<svg width="109px" height="109px" viewBox="0 0 px 109px" xmlns="http://www.w3.org/2000/svg" xmlns:xlink="http://www.w3.org/1999/xlink" xml:space="preserve" version="1.1"  baseProfile="full">
<path d="M24.67,19.75c1.25,1.5,2.62,3.75,2.12,6.38c-3,15.88-6.5,29.5-4.88,44.62c2.02,18.84,2.25,4.75,6.75-3.5" style="fill:none;stroke:black;stroke-width:3;opacity:0">
  <animate attributeType="CSS" attributeName="opacity" from="0" to="1" begin="0s" dur="1s" repeatCount="0" fill="freeze" />
</path>
<path d="M53.67,38.62c2.12,1.38,4.28,1.89,6.88,1.5c8.25-1.25,15.39-2.57,20.62-4c2.76-0.74,5.26-1.12,6.88-1.12" style="fill:none;stroke:black;stroke-width:3;opacity:0">
  <animate attributeType="CSS" attributeName="opacity" from="0" to="1" begin="1s" dur="1s" repeatCount="0" fill="freeze" />
</path>
<path d="M71.67,14.38c2.13,1.37,2.88,3.35,2.88,5.12c0,11.62,0.12,20.38,0.12,30.12c0,20.75-0.62,30.88-12.5,42.25" style="fill:none;stroke:black;stroke-width:3;opacity:0">
  <animate attributeType="CSS" attributeName="opacity" from="0" to="1" begin="2s" dur="1s" repeatCount="0" fill="freeze" />
</path>
</svg>