<svg width="109px" height="109px" viewBox="0 0 px 109px" xmlns="http://www.w3.org/2000/svg" xmlns:xlink="http://www.w3.org/1999/xlink" xml:space="preserve" version="1.1"  baseProfile="full">
<path d="M29.83,32.28c2.2,1.15,4.43,1.5,7.14,1.26c11.54-1.04,25.94-3.12,34.66-4.85c2.87-0.57,5.45-0.44,7.13-0.44" style="fill:none;stroke:black;stroke-width:3;opacity:0">
  <animate attributeType="CSS" attributeName="opacity" from="0" to="1" begin="0s" dur="1s" repeatCount="Indefinite" fill="freeze" />
</path>
<path d="M33.83,51.84c2.45,1.61,4.94,1.72,7.94,1.26c9.52-1.46,17.87-3.1,27.03-5.16c3.22-0.72,6.34-1.32,8.21-1.32" style="fill:none;stroke:black;stroke-width:3;opacity:0">
  <animate attributeType="CSS" attributeName="opacity" from="0" to="1" begin="1s" dur="1s" repeatCount="Indefinite" fill="freeze" />
</path>
<path d="M55.81,14c1.52,1.8,1.8,4.57,1.8,7.19c0,2.63,0.46,43.88,0.46,54.25c0,21.3-30.07,19.96-30.07,9.86c0-10.79,25.88-9.93,38.57-3.18c6.12,3.25,11.55,6.38,14.8,9.13" style="fill:none;stroke:black;stroke-width:3;opacity:0">
  <animate attributeType="CSS" attributeName="opacity" from="0" to="1" begin="2s" dur="1s" repeatCount="Indefinite" fill="freeze" />
</path>
</svg>