<svg width="109px" height="109px" viewBox="0 0 px 109px" xmlns="http://www.w3.org/2000/svg" xmlns:xlink="http://www.w3.org/1999/xlink" xml:space="preserve" version="1.1"  baseProfile="full">
<path d="M30.87,28.32c2.62,2.18,5.86,2.38,8.75,1.98c12.12-1.68,19.01-2.14,31.75-3.93c3.73-0.52,6.93,2.16,3,6c-5.75,5.63-14.63,13.63-16.63,15.25" style="fill:none;stroke:black;stroke-width:3;opacity:0">
  <animate attributeType="CSS" attributeName="opacity" from="0" to="1" begin="0s" dur="1s" repeatCount="0" fill="freeze" />
</path>
<path d="M52.83,47.12c1.08,1.48,1.3,2.96,1.21,4.71c-0.54,11.29-0.67,15.08-0.81,21.54" style="fill:none;stroke:black;stroke-width:3;opacity:0">
  <animate attributeType="CSS" attributeName="opacity" from="0" to="1" begin="1s" dur="1s" repeatCount="0" fill="freeze" />
</path>
<path d="M16,76.23c2.54,1.09,5.3,1.98,8.75,1.55c21.5-2.66,36.66-3.44,56.57-3.59c4.83-0.04,8.88,0.62,12.18,2.02" style="fill:none;stroke:black;stroke-width:3;opacity:0">
  <animate attributeType="CSS" attributeName="opacity" from="0" to="1" begin="2s" dur="1s" repeatCount="0" fill="freeze" />
</path>
<path d="M81.62,16.88c2.61,1.93,5.7,5.93,7.36,9.37" style="fill:none;stroke:black;stroke-width:3;opacity:0">
  <animate attributeType="CSS" attributeName="opacity" from="0" to="1" begin="3s" dur="1s" repeatCount="0" fill="freeze" />
</path>
<path d="M87.68,11.75c2.82,1.78,6.15,5.48,7.94,8.66" style="fill:none;stroke:black;stroke-width:3;opacity:0">
  <animate attributeType="CSS" attributeName="opacity" from="0" to="1" begin="4s" dur="1s" repeatCount="0" fill="freeze" />
</path>
</svg>