<svg width="109px" height="109px" viewBox="0 0 px 109px" xmlns="http://www.w3.org/2000/svg" xmlns:xlink="http://www.w3.org/1999/xlink" xml:space="preserve" version="1.1"  baseProfile="full">
<path d="M27.5,23.65c3.09,0.73,6.29,0.36,9.4,0.06c10.2-1,27-2.94,38.97-3.57c3.06-0.16,6.09-0.2,9.14,0.23" style="fill:none;stroke:black;stroke-width:3;opacity:0">
  <animate attributeType="CSS" attributeName="opacity" from="0" to="1" begin="0s" dur="1s" repeatCount="Indefinite" fill="freeze" />
</path>
<path d="M28.75,55.14c3.13,0.76,6.46,0.43,9.64,0.2c10.03-0.72,23.97-2.63,34.73-3.12c2.7-0.12,5.45-0.16,8.13,0.3" style="fill:none;stroke:black;stroke-width:3;opacity:0">
  <animate attributeType="CSS" attributeName="opacity" from="0" to="1" begin="1s" dur="1s" repeatCount="Indefinite" fill="freeze" />
</path>
<path d="M13,87.83c3.94,1.01,7.72,0.96,11.75,0.72c18.41-1.07,41.27-3.39,61.12-4.07c3.63-0.13,7.2-0.1,10.75,0.78" style="fill:none;stroke:black;stroke-width:3;opacity:0">
  <animate attributeType="CSS" attributeName="opacity" from="0" to="1" begin="2s" dur="1s" repeatCount="Indefinite" fill="freeze" />
</path>
</svg>