<svg width="109px" height="109px" viewBox="0 0 px 109px" xmlns="http://www.w3.org/2000/svg" xmlns:xlink="http://www.w3.org/1999/xlink" xml:space="preserve" version="1.1"  baseProfile="full">
<path d="M22.06,19.17c1.41,0.4,3.99,0.45,5.39,0.4c10.55-0.32,41.6-3.62,57.05-4.35c2.34-0.11,3.75,0.19,4.92,0.4" style="fill:none;stroke:black;stroke-width:3;opacity:0">
  <animate attributeType="CSS" attributeName="opacity" from="0" to="1" begin="0s" dur="1s" repeatCount="Indefinite" fill="freeze" />
</path>
<path d="M58.95,20.55c0.12,1.04,0.26,2.69-0.25,4.18c-3.01,8.81-20.29,28.15-43.94,39.99" style="fill:none;stroke:black;stroke-width:3;opacity:0">
  <animate attributeType="CSS" attributeName="opacity" from="0" to="1" begin="1s" dur="1s" repeatCount="Indefinite" fill="freeze" />
</path>
<path d="M52.29,40.03c0.98,0.45,1.56,2.02,1.76,2.92c0.2,0.9,0,38-0.2,43.61" style="fill:none;stroke:black;stroke-width:3;opacity:0">
  <animate attributeType="CSS" attributeName="opacity" from="0" to="1" begin="2s" dur="1s" repeatCount="Indefinite" fill="freeze" />
</path>
<path d="M61.47,40.51c8.87,3.89,19.8,13.3,25.13,22.04" style="fill:none;stroke:black;stroke-width:3;opacity:0">
  <animate attributeType="CSS" attributeName="opacity" from="0" to="1" begin="3s" dur="1s" repeatCount="Indefinite" fill="freeze" />
</path>
<path d="M16.31,94.14c1.58,0.43,4.47,0.44,6.06,0.43c11.25-0.08,46.17-3.33,63.53-4.11c2.63-0.12,4.21,0.21,5.53,0.42" style="fill:none;stroke:black;stroke-width:3;opacity:0">
  <animate attributeType="CSS" attributeName="opacity" from="0" to="1" begin="4s" dur="1s" repeatCount="Indefinite" fill="freeze" />
</path>
</svg>