<svg width="109px" height="109px" viewBox="0 0 px 109px" xmlns="http://www.w3.org/2000/svg" xmlns:xlink="http://www.w3.org/1999/xlink" xml:space="preserve" version="1.1"  baseProfile="full">
<path d="M21.88,21.64c3.04,1.11,6.87,0.73,10,0.4c10.7-1.16,35.17-3.56,47.87-3.96c2.85-0.09,5.72,0.06,8.53,0.67" style="fill:none;stroke:black;stroke-width:3;opacity:0">
  <animate attributeType="CSS" attributeName="opacity" from="0" to="1" begin="0s" dur="1s" repeatCount="Indefinite" fill="freeze" />
</path>
<path d="M21.43,43.31c0.71,0.79,1.34,2.44,1.44,3.88c0.38,5.27,1.1,25.35,1.44,36.17c0.12,3.7,0.19,6.31,0.19,6.88" style="fill:none;stroke:black;stroke-width:3;opacity:0">
  <animate attributeType="CSS" attributeName="opacity" from="0" to="1" begin="1s" dur="1s" repeatCount="Indefinite" fill="freeze" />
</path>
<path d="M23.48,45.54C36.12,44,70.12,40,83.62,39.1c4.01-0.27,6.38,1.9,6.2,6.9c-0.43,11.51-3.06,30.75-6.03,40.71c-2.23,7.49-4.79,4.04-7.47,0.32" style="fill:none;stroke:black;stroke-width:3;opacity:0">
  <animate attributeType="CSS" attributeName="opacity" from="0" to="1" begin="2s" dur="1s" repeatCount="Indefinite" fill="freeze" />
</path>
<path d="M51.81,22.04c1.26,1.26,1.59,2.59,1.7,4.47C54.62,45.62,50.5,63,32.25,72.75" style="fill:none;stroke:black;stroke-width:3;opacity:0">
  <animate attributeType="CSS" attributeName="opacity" from="0" to="1" begin="3s" dur="1s" repeatCount="Indefinite" fill="freeze" />
</path>
<path d="M56.42,52.83C62.88,56.62,71,63.38,75.14,69.78" style="fill:none;stroke:black;stroke-width:3;opacity:0">
  <animate attributeType="CSS" attributeName="opacity" from="0" to="1" begin="4s" dur="1s" repeatCount="Indefinite" fill="freeze" />
</path>
</svg>