<svg width="109px" height="109px" viewBox="0 0 px 109px" xmlns="http://www.w3.org/2000/svg" xmlns:xlink="http://www.w3.org/1999/xlink" xml:space="preserve" version="1.1"  baseProfile="full">
<path d="M11.25,47.7c2.75,0.68,7.22,0.76,9.77,0.54c20.36-1.74,48.36-4.37,69.57-4.98c4.24-0.12,6.79,0.26,8.92,0.53" style="fill:none;stroke:black;stroke-width:3;opacity:0">
  <animate attributeType="CSS" attributeName="opacity" from="0" to="1" begin="0s" dur="1s" repeatCount="Indefinite" fill="freeze" />
</path>
<path d="M53.37,17.5c0.94,0.94,1.4,2.48,1.46,3.5c0.14,2.54,0.69,31.98,0.8,44.88c0.02,2.36,0.02,4.16-0.02,5.12" style="fill:none;stroke:black;stroke-width:3;opacity:0">
  <animate attributeType="CSS" attributeName="opacity" from="0" to="1" begin="1s" dur="1s" repeatCount="Indefinite" fill="freeze" />
</path>
<path d="M77.37,15.5c0.82,0.81,1.5,2.23,1.46,3.25c-0.18,5.03-2.39,44.69-2.47,46" style="fill:none;stroke:black;stroke-width:3;opacity:0">
  <animate attributeType="CSS" attributeName="opacity" from="0" to="1" begin="2s" dur="1s" repeatCount="Indefinite" fill="freeze" />
</path>
<path d="M56.25,67c4.07-0.2,13.17-0.95,19.13-1.31c1.55-0.09,2.89-0.16,3.87-0.19" style="fill:none;stroke:black;stroke-width:3;opacity:0">
  <animate attributeType="CSS" attributeName="opacity" from="0" to="1" begin="3s" dur="1s" repeatCount="Indefinite" fill="freeze" />
</path>
<path d="M29.87,23.75c0.94,0.94,1.46,2.48,1.46,3.5c0.05,18.88-0.95,41.12-1.83,56.5c-0.21,3.75,0.38,6.66,3.75,6.25c20.75-2.5,34-3.88,51-3.25c3.26,0.12,6,0.75,7.25,1" style="fill:none;stroke:black;stroke-width:3;opacity:0">
  <animate attributeType="CSS" attributeName="opacity" from="0" to="1" begin="4s" dur="1s" repeatCount="Indefinite" fill="freeze" />
</path>
</svg>