<svg width="109px" height="109px" viewBox="0 0 px 109px" xmlns="http://www.w3.org/2000/svg" xmlns:xlink="http://www.w3.org/1999/xlink" xml:space="preserve" version="1.1"  baseProfile="full">
<path d="M44.38,17.38c1.32,1.32,1.5,2.86,1.52,4.63c0.4,39.04-9.39,57.25-28.52,68.25" style="fill:none;stroke:black;stroke-width:3;opacity:0">
  <animate attributeType="CSS" attributeName="opacity" from="0" to="1" begin="0s" dur="1s" repeatCount="Indefinite" fill="freeze" />
</path>
<path d="M20.5,43.75c2.88,0.12,4.55-0.06,7.04-0.75c7.21-2,31.46-9,36.49-10.75c2.28-0.79,4.84,0.95,4.1,3.75c-1.09,4.12-4.39,24-5.14,35.5c-0.77,11.82,0.75,18.45,15.72,18.45c14.53,0,15.26-1.45,15.26-11.7" style="fill:none;stroke:black;stroke-width:3;opacity:0">
  <animate attributeType="CSS" attributeName="opacity" from="0" to="1" begin="1s" dur="1s" repeatCount="Indefinite" fill="freeze" />
</path>
<path d="M30.75,57.5C39.5,60.25,47,68,50.06,72.72" style="fill:none;stroke:black;stroke-width:3;opacity:0">
  <animate attributeType="CSS" attributeName="opacity" from="0" to="1" begin="2s" dur="1s" repeatCount="Indefinite" fill="freeze" />
</path>
</svg>