<svg width="109px" height="109px" viewBox="0 0 px 109px" xmlns="http://www.w3.org/2000/svg" xmlns:xlink="http://www.w3.org/1999/xlink" xml:space="preserve" version="1.1"  baseProfile="full">
<path d="M43.27,14.83c4.43,1.66,10.94,6.31,12.04,8.88" style="fill:none;stroke:black;stroke-width:3;opacity:0">
  <animate attributeType="CSS" attributeName="opacity" from="0" to="1" begin="0s" dur="1s" repeatCount="0" fill="freeze" />
</path>
<path d="M26,40.11c0.95,0.48,4.04,0.16,5,0.03c10.5-1.39,34.75-4.94,45.5-5.43c1.46-0.07,2.79,0.1,4,0.5" style="fill:none;stroke:black;stroke-width:3;opacity:0">
  <animate attributeType="CSS" attributeName="opacity" from="0" to="1" begin="1s" dur="1s" repeatCount="0" fill="freeze" />
</path>
<path d="M28.75,65.07c0.94,0.52,4.04,0.34,5,0.23c11.5-1.3,27.58-3.82,40.5-4.68c1.17-0.08,3.75-0.21,5.5,0.25" style="fill:none;stroke:black;stroke-width:3;opacity:0">
  <animate attributeType="CSS" attributeName="opacity" from="0" to="1" begin="2s" dur="1s" repeatCount="0" fill="freeze" />
</path>
<path d="M15.75,93.51c2.75,0.49,5.7,0.15,7.25,0c21.75-2.06,42-5.26,62.75-5.8c2.5-0.06,5.5,0.49,6.75,0.94" style="fill:none;stroke:black;stroke-width:3;opacity:0">
  <animate attributeType="CSS" attributeName="opacity" from="0" to="1" begin="3s" dur="1s" repeatCount="0" fill="freeze" />
</path>
<path d="M52.5,39.33c1,1.15,2,3.33,2,4.25c0,6.41,0.5,38.25,0.25,44.67" style="fill:none;stroke:black;stroke-width:3;opacity:0">
  <animate attributeType="CSS" attributeName="opacity" from="0" to="1" begin="4s" dur="1s" repeatCount="0" fill="freeze" />
</path>
</svg>