<svg width="109px" height="109px" viewBox="0 0 px 109px" xmlns="http://www.w3.org/2000/svg" xmlns:xlink="http://www.w3.org/1999/xlink" xml:space="preserve" version="1.1"  baseProfile="full">
<path d="M32.62,15.67c0.98,0.98,1.28,2.42,1.35,4.32C35.38,62,32.5,84.75,24,96.42" style="fill:none;stroke:black;stroke-width:3;opacity:0">
  <animate attributeType="CSS" attributeName="opacity" from="0" to="1" begin="0s" dur="1s" repeatCount="0" fill="freeze" />
</path>
<path d="M35,17.83c11.75-1.83,28.68-4.66,35-5.42c3.5-0.42,5.25,0.83,5.25,5.17c0,2.33,0.08,70.25,0.08,73.58c0,11.08-6.08,4.08-8.58,1.58" style="fill:none;stroke:black;stroke-width:3;opacity:0">
  <animate attributeType="CSS" attributeName="opacity" from="0" to="1" begin="1s" dur="1s" repeatCount="0" fill="freeze" />
</path>
<path d="M48.42,27.75c2.51,1.37,8.97,9.11,9.5,11.67" style="fill:none;stroke:black;stroke-width:3;opacity:0">
  <animate attributeType="CSS" attributeName="opacity" from="0" to="1" begin="2s" dur="1s" repeatCount="0" fill="freeze" />
</path>
<path d="M10.67,52.78c3.68,0.75,7,0.84,10.7,0.38c16.54-2.06,46.76-5.04,64.77-6.01c3.89-0.21,8.16-0.25,11.95,0.71" style="fill:none;stroke:black;stroke-width:3;opacity:0">
  <animate attributeType="CSS" attributeName="opacity" from="0" to="1" begin="3s" dur="1s" repeatCount="0" fill="freeze" />
</path>
</svg>