<svg width="109px" height="109px" viewBox="0 0 px 109px" xmlns="http://www.w3.org/2000/svg" xmlns:xlink="http://www.w3.org/1999/xlink" xml:space="preserve" version="1.1"  baseProfile="full">
<path d="M68.51,10.5c-0.26,1.25-0.19,1.44-0.74,1.87C62.5,16.5,46.25,22.5,25.75,25" style="fill:none;stroke:black;stroke-width:3;opacity:0">
  <animate attributeType="CSS" attributeName="opacity" from="0" to="1" begin="0s" dur="1s" repeatCount="0" fill="freeze" />
</path>
<path d="M15.25,33.69c0.78,0.33,3.9,1.2,5.96,0.98c9.33-0.98,49.51-5.65,65.33-6.55c2.07-0.12,4.67,0.39,5.96,0.72" style="fill:none;stroke:black;stroke-width:3;opacity:0">
  <animate attributeType="CSS" attributeName="opacity" from="0" to="1" begin="1s" dur="1s" repeatCount="0" fill="freeze" />
</path>
<path d="M15.5,52.03c1.39,0.29,1.74,0.44,3.14,0.44s15.18-2.36,16.4-2.36" style="fill:none;stroke:black;stroke-width:3;opacity:0">
  <animate attributeType="CSS" attributeName="opacity" from="0" to="1" begin="2s" dur="1s" repeatCount="0" fill="freeze" />
</path>
<path d="M34.19,39.44c1.05,0.89,1.42,2.92,1.42,3.51s0.17,17.37,0.17,18.99" style="fill:none;stroke:black;stroke-width:3;opacity:0">
  <animate attributeType="CSS" attributeName="opacity" from="0" to="1" begin="3s" dur="1s" repeatCount="0" fill="freeze" />
</path>
<path d="M16.26,67.62c2.16,1.24,3.82,1.31,5.41,0.69c9.55-3.73,12.61-4.83,17.66-6.91" style="fill:none;stroke:black;stroke-width:3;opacity:0">
  <animate attributeType="CSS" attributeName="opacity" from="0" to="1" begin="4s" dur="1s" repeatCount="0" fill="freeze" />
</path>
<path d="M87.32,37.58c0.13,0.22,0.19,0.82-0.13,1.18c-3.06,3.46-10.59,8.52-17.2,10.33" style="fill:none;stroke:black;stroke-width:3;opacity:0">
  <animate attributeType="CSS" attributeName="opacity" from="0" to="1" begin="5s" dur="1s" repeatCount="0" fill="freeze" />
</path>
<path d="M66.22,36c0.52,0.4,1.21,1.19,1.21,2c0,0.55,0.17,18.06,0.17,19.71c0,4.23,2.91,5.34,12.16,5.34c8.25,0,11.99-1.04,11.99-5.45" style="fill:none;stroke:black;stroke-width:3;opacity:0">
  <animate attributeType="CSS" attributeName="opacity" from="0" to="1" begin="6s" dur="1s" repeatCount="0" fill="freeze" />
</path>
<path d="M52.72,22.5c0.89,0.49,1.42,2.19,1.6,3.16c0.18,0.97,0,68.26-0.18,74.34" style="fill:none;stroke:black;stroke-width:3;opacity:0">
  <animate attributeType="CSS" attributeName="opacity" from="0" to="1" begin="7s" dur="1s" repeatCount="0" fill="freeze" />
</path>
<path d="M54,56.18C47.46,70.47,30.75,86.25,15.75,94.5" style="fill:none;stroke:black;stroke-width:3;opacity:0">
  <animate attributeType="CSS" attributeName="opacity" from="0" to="1" begin="8s" dur="1s" repeatCount="0" fill="freeze" />
</path>
<path d="M54.25,58.21c7,8.04,26,25.29,33.96,30.99c1.93,1.38,3.44,2.13,5.29,2.55" style="fill:none;stroke:black;stroke-width:3;opacity:0">
  <animate attributeType="CSS" attributeName="opacity" from="0" to="1" begin="9s" dur="1s" repeatCount="0" fill="freeze" />
</path>
</svg>