<svg width="109px" height="109px" viewBox="0 0 px 109px" xmlns="http://www.w3.org/2000/svg" xmlns:xlink="http://www.w3.org/1999/xlink" xml:space="preserve" version="1.1"  baseProfile="full">
<path d="M22.51,18.78c1.09,0.39,3.09,0.45,4.18,0.39c7.56-0.42,44.99-4.48,55.36-4.48c1.82,0,2.91,0.19,3.82,0.38" style="fill:none;stroke:black;stroke-width:3;opacity:0">
  <animate attributeType="CSS" attributeName="opacity" from="0" to="1" begin="0s" dur="1s" repeatCount="0" fill="freeze" />
</path>
<path d="M12.75,46.99c1.63,0.57,4.61,0.64,6.23,0.57C32.5,47,75,42.5,92.56,42.56c2.71,0.01,4.33,0.27,5.69,0.56" style="fill:none;stroke:black;stroke-width:3;opacity:0">
  <animate attributeType="CSS" attributeName="opacity" from="0" to="1" begin="1s" dur="1s" repeatCount="0" fill="freeze" />
</path>
<path d="M53.58,19.33c0.67,0.89,1.91,2.92,1.98,5.88c0.31,14.24-0.2,60.51-0.2,65.36c0,10.26-6.92,0.2-7.8-0.73" style="fill:none;stroke:black;stroke-width:3;opacity:0">
  <animate attributeType="CSS" attributeName="opacity" from="0" to="1" begin="2s" dur="1s" repeatCount="0" fill="freeze" />
</path>
</svg>