<svg width="109px" height="109px" viewBox="0 0 px 109px" xmlns="http://www.w3.org/2000/svg" xmlns:xlink="http://www.w3.org/1999/xlink" xml:space="preserve" version="1.1"  baseProfile="full">
<path d="M33.74,15.14c0,1.48-0.16,2.68-0.63,4.1C29.5,30.25,22.12,44,10.31,57.72" style="fill:none;stroke:black;stroke-width:3;opacity:0">
  <animate attributeType="CSS" attributeName="opacity" from="0" to="1" begin="0s" dur="1s" repeatCount="Indefinite" fill="freeze" />
</path>
<path d="M26.74,38c0.88,0.88,1.1,2.12,1.1,3.63c0,10.56-0.04,28.98-0.06,42.12c-0.01,5.08-0.01,9.38-0.01,12.12" style="fill:none;stroke:black;stroke-width:3;opacity:0">
  <animate attributeType="CSS" attributeName="opacity" from="0" to="1" begin="1s" dur="1s" repeatCount="Indefinite" fill="freeze" />
</path>
<path d="M39,47.17c3.58,0.69,7.12,0.43,10.75,0.01c12.38-1.43,25-2.43,38.13-3.14c3.33-0.18,6.65,0.14,9.95,0.57" style="fill:none;stroke:black;stroke-width:3;opacity:0">
  <animate attributeType="CSS" attributeName="opacity" from="0" to="1" begin="2s" dur="1s" repeatCount="Indefinite" fill="freeze" />
</path>
<path d="M66.25,11c1.19,1.19,1.5,2.5,1.5,4.25c0,8.35,0,49.96,0,70.5c0,5.29,0,9.19,0,10.75" style="fill:none;stroke:black;stroke-width:3;opacity:0">
  <animate attributeType="CSS" attributeName="opacity" from="0" to="1" begin="3s" dur="1s" repeatCount="Indefinite" fill="freeze" />
</path>
</svg>