<svg width="109px" height="109px" viewBox="0 0 px 109px" xmlns="http://www.w3.org/2000/svg" xmlns:xlink="http://www.w3.org/1999/xlink" xml:space="preserve" version="1.1"  baseProfile="full">
<path d="M34.5,14.25c0.13,1.25-0.16,2.46-0.89,4.35C28.88,31,22.05,43.75,10.12,58.12" style="fill:none;stroke:black;stroke-width:3;opacity:0">
  <animate attributeType="CSS" attributeName="opacity" from="0" to="1" begin="0s" dur="1s" repeatCount="Indefinite" fill="freeze" />
</path>
<path d="M24.03,41.5c0.92,0.92,1.75,2.38,1.75,4.12c0,9.46-0.02,33.3-0.03,46.12c0,2.92,0,5.27,0,6.75" style="fill:none;stroke:black;stroke-width:3;opacity:0">
  <animate attributeType="CSS" attributeName="opacity" from="0" to="1" begin="1s" dur="1s" repeatCount="Indefinite" fill="freeze" />
</path>
<path d="M34.88,47.47c2.1,0.67,5.94,0.8,8.04,0.67c18.7-1.25,31.09-2.8,48.25-3.22c3.49-0.08,5.59,0.32,7.34,0.65" style="fill:none;stroke:black;stroke-width:3;opacity:0">
  <animate attributeType="CSS" attributeName="opacity" from="0" to="1" begin="2s" dur="1s" repeatCount="Indefinite" fill="freeze" />
</path>
<path d="M65.75,15.75c1.19,1.19,1.75,2.38,1.75,3.75c0,5.5,0,57.75,0,65" style="fill:none;stroke:black;stroke-width:3;opacity:0">
  <animate attributeType="CSS" attributeName="opacity" from="0" to="1" begin="3s" dur="1s" repeatCount="Indefinite" fill="freeze" />
</path>
<path d="M37,86.17c3.05,0.71,5.58,0.68,7.56,0.56c13.82-0.86,31.07-1.98,44.74-2.32c3.29-0.08,5.56,0.13,7.21,0.54" style="fill:none;stroke:black;stroke-width:3;opacity:0">
  <animate attributeType="CSS" attributeName="opacity" from="0" to="1" begin="4s" dur="1s" repeatCount="Indefinite" fill="freeze" />
</path>
</svg>