<svg width="109px" height="109px" viewBox="0 0 px 109px" xmlns="http://www.w3.org/2000/svg" xmlns:xlink="http://www.w3.org/1999/xlink" xml:space="preserve" version="1.1"  baseProfile="full">
<path d="M31.5,17.39c0.13,1.05,0.23,2.38-0.12,3.67c-2.19,8.2-10.64,24.04-20.82,35.15" style="fill:none;stroke:black;stroke-width:3;opacity:0">
  <animate attributeType="CSS" attributeName="opacity" from="0" to="1" begin="0s" dur="1s" repeatCount="0" fill="freeze" />
</path>
<path d="M26.03,40c0.59,0.61,0.76,1.97,0.76,3.23c0,13.02-0.29,42.15-0.29,50.9" style="fill:none;stroke:black;stroke-width:3;opacity:0">
  <animate attributeType="CSS" attributeName="opacity" from="0" to="1" begin="1s" dur="1s" repeatCount="0" fill="freeze" />
</path>
<path d="M62.52,12.25c0.07,0.95,0.25,2.5-0.15,3.83c-2.44,8.24-12.46,26.47-25.87,36.7" style="fill:none;stroke:black;stroke-width:3;opacity:0">
  <animate attributeType="CSS" attributeName="opacity" from="0" to="1" begin="2s" dur="1s" repeatCount="0" fill="freeze" />
</path>
<path d="M63.04,17.05c5.75,7.42,19.95,21.89,27.35,27.81c1.63,1.31,3.55,2.03,5.11,2.43" style="fill:none;stroke:black;stroke-width:3;opacity:0">
  <animate attributeType="CSS" attributeName="opacity" from="0" to="1" begin="3s" dur="1s" repeatCount="0" fill="freeze" />
</path>
<path d="M51.98,46.69c0.41,1.29,1,2.31,1,3.92c0,14.75,0.37,33.43-12.33,43.61" style="fill:none;stroke:black;stroke-width:3;opacity:0">
  <animate attributeType="CSS" attributeName="opacity" from="0" to="1" begin="4s" dur="1s" repeatCount="0" fill="freeze" />
</path>
<path d="M75.7,43.77c0.76,0.49,1.22,2.22,1.38,3.2c0.15,0.99,0,43.63-0.15,49.79" style="fill:none;stroke:black;stroke-width:3;opacity:0">
  <animate attributeType="CSS" attributeName="opacity" from="0" to="1" begin="5s" dur="1s" repeatCount="0" fill="freeze" />
</path>
</svg>