<svg width="109px" height="109px" viewBox="0 0 px 109px" xmlns="http://www.w3.org/2000/svg" xmlns:xlink="http://www.w3.org/1999/xlink" xml:space="preserve" version="1.1"  baseProfile="full">
<path d="M35.73,14.89c0.14,1.15,0,2.34-0.38,3.76c-2.39,8.93-11.65,26.46-22.8,38.57" style="fill:none;stroke:black;stroke-width:3;opacity:0">
  <animate attributeType="CSS" attributeName="opacity" from="0" to="1" begin="0s" dur="1s" repeatCount="0" fill="freeze" />
</path>
<path d="M28.53,37.75c0.92,0.92,1.26,1.97,1.26,3.23c0,10.64-0.03,32.78-0.04,45.03c0,2.74,0,5.02,0,6.62" style="fill:none;stroke:black;stroke-width:3;opacity:0">
  <animate attributeType="CSS" attributeName="opacity" from="0" to="1" begin="1s" dur="1s" repeatCount="0" fill="freeze" />
</path>
<path d="M47.5,23.5c2.97,2.26,7.67,9.28,8.41,12.79" style="fill:none;stroke:black;stroke-width:3;opacity:0">
  <animate attributeType="CSS" attributeName="opacity" from="0" to="1" begin="2s" dur="1s" repeatCount="0" fill="freeze" />
</path>
<path d="M91.18,19.63c0.08,1.03-0.04,1.45-0.56,2.38c-2.02,3.67-5.12,7.64-9.51,12.29" style="fill:none;stroke:black;stroke-width:3;opacity:0">
  <animate attributeType="CSS" attributeName="opacity" from="0" to="1" begin="3s" dur="1s" repeatCount="0" fill="freeze" />
</path>
<path d="M47.71,46.93c2.13,0.7,4.74,0.66,6.89,0.29c7.9-1.35,20.65-2.85,31.02-3.85c2.09-0.2,4.17-0.19,6.24,0.22" style="fill:none;stroke:black;stroke-width:3;opacity:0">
  <animate attributeType="CSS" attributeName="opacity" from="0" to="1" begin="4s" dur="1s" repeatCount="0" fill="freeze" />
</path>
<path d="M39.56,65.64c2.64,0.76,5.75,0.58,8.45,0.23c10.93-1.41,28.49-3.37,42.86-3.97c2.71-0.11,5.15-0.12,7.81,0.34" style="fill:none;stroke:black;stroke-width:3;opacity:0">
  <animate attributeType="CSS" attributeName="opacity" from="0" to="1" begin="5s" dur="1s" repeatCount="0" fill="freeze" />
</path>
<path d="M68.6,10.75c1.2,1.2,1.5,2.62,1.5,4.08c0,0.87-0.09,67.42-0.09,73.42c0,4.59-0.01,7.92-0.01,9.25" style="fill:none;stroke:black;stroke-width:3;opacity:0">
  <animate attributeType="CSS" attributeName="opacity" from="0" to="1" begin="6s" dur="1s" repeatCount="0" fill="freeze" />
</path>
</svg>