<svg width="109px" height="109px" viewBox="0 0 px 109px" xmlns="http://www.w3.org/2000/svg" xmlns:xlink="http://www.w3.org/1999/xlink" xml:space="preserve" version="1.1"  baseProfile="full">
<path d="M32.5,16.89c0.13,1.12,0.22,2.52-0.11,3.89C30.25,29.45,22,46.22,12.06,57.97" style="fill:none;stroke:black;stroke-width:3;opacity:0">
  <animate attributeType="CSS" attributeName="opacity" from="0" to="1" begin="0s" dur="1s" repeatCount="0" fill="freeze" />
</path>
<path d="M26.49,41.5c0.66,0.68,0.84,2.19,0.84,3.58c0,14.46-0.32,40.58-0.32,50.29" style="fill:none;stroke:black;stroke-width:3;opacity:0">
  <animate attributeType="CSS" attributeName="opacity" from="0" to="1" begin="1s" dur="1s" repeatCount="0" fill="freeze" />
</path>
<path d="M64.04,13c0.73,0.43,1.78,1.53,1.76,2.77c-0.05,3.9-0.05,8.54-0.06,12.08" style="fill:none;stroke:black;stroke-width:3;opacity:0">
  <animate attributeType="CSS" attributeName="opacity" from="0" to="1" begin="2s" dur="1s" repeatCount="0" fill="freeze" />
</path>
<path d="M41.15,28.38c0,2.89-1.92,11.69-2.59,13.62" style="fill:none;stroke:black;stroke-width:3;opacity:0">
  <animate attributeType="CSS" attributeName="opacity" from="0" to="1" begin="3s" dur="1s" repeatCount="0" fill="freeze" />
</path>
<path d="M41.66,30.24c0.85,0.09,43.01-4.43,47.29-4.9C101,24,91.25,33,89.7,34.61" style="fill:none;stroke:black;stroke-width:3;opacity:0">
  <animate attributeType="CSS" attributeName="opacity" from="0" to="1" begin="4s" dur="1s" repeatCount="0" fill="freeze" />
</path>
<path d="M40.18,52.34c1.46,0.44,4.14,0.58,5.59,0.44c9.92-1.03,30.92-4.53,43.95-4.77c2.43-0.04,3.89,0.21,5.1,0.43" style="fill:none;stroke:black;stroke-width:3;opacity:0">
  <animate attributeType="CSS" attributeName="opacity" from="0" to="1" begin="5s" dur="1s" repeatCount="0" fill="freeze" />
</path>
<path d="M66.75,52.11c0.07,0.37,0.96,1.93,0.96,4.29c0,13.6-0.2,31.32-0.2,35.17c0,10.93-6.53,0.39-7.68-0.58" style="fill:none;stroke:black;stroke-width:3;opacity:0">
  <animate attributeType="CSS" attributeName="opacity" from="0" to="1" begin="6s" dur="1s" repeatCount="0" fill="freeze" />
</path>
</svg>