<svg width="109px" height="109px" viewBox="0 0 px 109px" xmlns="http://www.w3.org/2000/svg" xmlns:xlink="http://www.w3.org/1999/xlink" xml:space="preserve" version="1.1"  baseProfile="full">
<path d="M31.26,19.5c0.21,2.03-0.06,4.69-0.73,6.43c-4.28,11.1-9.22,21.01-19.03,34.52" style="fill:none;stroke:black;stroke-width:3;opacity:0">
  <animate attributeType="CSS" attributeName="opacity" from="0" to="1" begin="0s" dur="1s" repeatCount="Indefinite" fill="freeze" />
</path>
<path d="M26.03,41c1.3,1,1.22,2.36,1.28,3.99c0.48,13-1.04,43.15-0.57,50.26" style="fill:none;stroke:black;stroke-width:3;opacity:0">
  <animate attributeType="CSS" attributeName="opacity" from="0" to="1" begin="1s" dur="1s" repeatCount="Indefinite" fill="freeze" />
</path>
<path d="M56.27,16.5c4.73,2.83,8.7,6.29,10.54,10.28" style="fill:none;stroke:black;stroke-width:3;opacity:0">
  <animate attributeType="CSS" attributeName="opacity" from="0" to="1" begin="2s" dur="1s" repeatCount="Indefinite" fill="freeze" />
</path>
<path d="M42.5,41.57c0.95,0.45,4.04,0.15,5,0.03c10.5-1.3,27.25-2.6,38-3.06c1.46-0.06,2.79,0.09,4,0.46" style="fill:none;stroke:black;stroke-width:3;opacity:0">
  <animate attributeType="CSS" attributeName="opacity" from="0" to="1" begin="3s" dur="1s" repeatCount="Indefinite" fill="freeze" />
</path>
<path d="M45.75,63.84c0.94,0.49,4.04,0.32,5,0.21c11.5-1.21,18.08-2.06,31-2.87c1.17-0.07,3.75-0.2,5.5,0.23" style="fill:none;stroke:black;stroke-width:3;opacity:0">
  <animate attributeType="CSS" attributeName="opacity" from="0" to="1" begin="4s" dur="1s" repeatCount="Indefinite" fill="freeze" />
</path>
<path d="M35.75,90.86c0.92,0.27,5.7,0.15,7.25,0c16-1.53,34-2.86,48.75-3.4c2.5-0.09,5.5,0.45,6.75,0.88" style="fill:none;stroke:black;stroke-width:3;opacity:0">
  <animate attributeType="CSS" attributeName="opacity" from="0" to="1" begin="5s" dur="1s" repeatCount="Indefinite" fill="freeze" />
</path>
<path d="M64,41.34c1,1.07,2,3.11,2,3.96c0,5.98,0.5,35.67,0.25,41.65" style="fill:none;stroke:black;stroke-width:3;opacity:0">
  <animate attributeType="CSS" attributeName="opacity" from="0" to="1" begin="6s" dur="1s" repeatCount="Indefinite" fill="freeze" />
</path>
</svg>