<svg width="109px" height="109px" viewBox="0 0 px 109px" xmlns="http://www.w3.org/2000/svg" xmlns:xlink="http://www.w3.org/1999/xlink" xml:space="preserve" version="1.1"  baseProfile="full">
<path d="M32.74,16.89c0.13,1.16,0.24,2.62-0.12,4.05c-2.26,9.04-11.02,26.52-21.56,38.77" style="fill:none;stroke:black;stroke-width:3;opacity:0">
  <animate attributeType="CSS" attributeName="opacity" from="0" to="1" begin="0s" dur="1s" repeatCount="Indefinite" fill="freeze" />
</path>
<path d="M26.53,41c0.59,0.61,0.76,1.97,0.76,3.23c0,13.02-0.29,42.65-0.29,51.4" style="fill:none;stroke:black;stroke-width:3;opacity:0">
  <animate attributeType="CSS" attributeName="opacity" from="0" to="1" begin="1s" dur="1s" repeatCount="Indefinite" fill="freeze" />
</path>
<path d="M51.11,22.08c0.03,0.61,0.07,1.57-0.06,2.45c-0.78,5.16-5.27,16.49-11.41,23.42" style="fill:none;stroke:black;stroke-width:3;opacity:0">
  <animate attributeType="CSS" attributeName="opacity" from="0" to="1" begin="2s" dur="1s" repeatCount="Indefinite" fill="freeze" />
</path>
<path d="M49.16,37.41c0.79,0.39,2.21,0.47,3.01,0.39c10.86-1.1,21.33-3.29,28.85-4.96c1.28-0.28,4.49,0.18,5.14,0.38" style="fill:none;stroke:black;stroke-width:3;opacity:0">
  <animate attributeType="CSS" attributeName="opacity" from="0" to="1" begin="3s" dur="1s" repeatCount="Indefinite" fill="freeze" />
</path>
<path d="M37.07,58.43c1.99,0.13,4.57,0.32,5.36,0.27c9.98-0.69,41.46-4.25,48.48-4.15c1.3,0.02,4.45,0.13,5.1,0.26" style="fill:none;stroke:black;stroke-width:3;opacity:0">
  <animate attributeType="CSS" attributeName="opacity" from="0" to="1" begin="4s" dur="1s" repeatCount="Indefinite" fill="freeze" />
</path>
<path d="M64.9,14.5c0.44,1.23,0.62,2.38,0.62,4.78c0,50.77-8.01,64.72-25.76,75.97" style="fill:none;stroke:black;stroke-width:3;opacity:0">
  <animate attributeType="CSS" attributeName="opacity" from="0" to="1" begin="5s" dur="1s" repeatCount="Indefinite" fill="freeze" />
</path>
<path d="M63.89,56.59c7.8,11.74,18.38,28.98,26.14,35.44c2.26,1.88,3.79,2.8,4.71,3.03" style="fill:none;stroke:black;stroke-width:3;opacity:0">
  <animate attributeType="CSS" attributeName="opacity" from="0" to="1" begin="6s" dur="1s" repeatCount="Indefinite" fill="freeze" />
</path>
</svg>