<svg width="109px" height="109px" viewBox="0 0 px 109px" xmlns="http://www.w3.org/2000/svg" xmlns:xlink="http://www.w3.org/1999/xlink" xml:space="preserve" version="1.1"  baseProfile="full">
<path d="M31.26,14.5c0.23,1.98-0.06,3.56-0.81,5.25C25.7,30.54,20.39,41.66,9.5,54.79" style="fill:none;stroke:black;stroke-width:3;opacity:0">
  <animate attributeType="CSS" attributeName="opacity" from="0" to="1" begin="0s" dur="1s" repeatCount="Indefinite" fill="freeze" />
</path>
<path d="M23.53,38c0.98,0.98,1.5,2.43,1.5,3.75c0,11.72-0.02,37.61-0.03,50.12c0,2.3,0,4.15,0,5.38" style="fill:none;stroke:black;stroke-width:3;opacity:0">
  <animate attributeType="CSS" attributeName="opacity" from="0" to="1" begin="1s" dur="1s" repeatCount="Indefinite" fill="freeze" />
</path>
<path d="M45.07,18.73c1.33,0.5,3.77,0.59,5.11,0.5c11.03-0.73,22.44-2.11,33.62-3.31c2.2-0.24,3.55-0.01,4.66,0.24" style="fill:none;stroke:black;stroke-width:3;opacity:0">
  <animate attributeType="CSS" attributeName="opacity" from="0" to="1" begin="2s" dur="1s" repeatCount="Indefinite" fill="freeze" />
</path>
<path d="M42.98,33.32c0.85,0.85,1.27,2.06,1.38,3.21c0.17,1.85,1.08,12.42,1.75,18.96c0.19,1.82,0.35,3.33,0.48,4.26" style="fill:none;stroke:black;stroke-width:3;opacity:0">
  <animate attributeType="CSS" attributeName="opacity" from="0" to="1" begin="3s" dur="1s" repeatCount="Indefinite" fill="freeze" />
</path>
<path d="M45.04,34.93c8.83-1.31,36.21-4.18,41.82-4.44c2.41-0.11,4.3,1.51,3.6,4.96c-0.96,4.76-1.44,8.32-3.73,17.23c-0.32,1.25-0.68,2.61-1.08,4.09" style="fill:none;stroke:black;stroke-width:3;opacity:0">
  <animate attributeType="CSS" attributeName="opacity" from="0" to="1" begin="4s" dur="1s" repeatCount="Indefinite" fill="freeze" />
</path>
<path d="M46.3,45.93c7.99-1.18,36.68-3.73,41.54-3.73" style="fill:none;stroke:black;stroke-width:3;opacity:0">
  <animate attributeType="CSS" attributeName="opacity" from="0" to="1" begin="5s" dur="1s" repeatCount="Indefinite" fill="freeze" />
</path>
<path d="M47.39,56.91c12.36-1.41,23.61-2.03,38.28-3" style="fill:none;stroke:black;stroke-width:3;opacity:0">
  <animate attributeType="CSS" attributeName="opacity" from="0" to="1" begin="6s" dur="1s" repeatCount="Indefinite" fill="freeze" />
</path>
<path d="M66,19.75c1.06,1.06,1.48,2.38,1.46,3.93c-0.71,44.69-2.21,63.07-29.71,75.36" style="fill:none;stroke:black;stroke-width:3;opacity:0">
  <animate attributeType="CSS" attributeName="opacity" from="0" to="1" begin="7s" dur="1s" repeatCount="Indefinite" fill="freeze" />
</path>
<path d="M45.25,66.5C51.84,66.73,73,84.75,84.23,91.91c2.76,1.76,5.6,3.26,8.77,4.09" style="fill:none;stroke:black;stroke-width:3;opacity:0">
  <animate attributeType="CSS" attributeName="opacity" from="0" to="1" begin="8s" dur="1s" repeatCount="Indefinite" fill="freeze" />
</path>
</svg>