<svg width="109px" height="109px" viewBox="0 0 px 109px" xmlns="http://www.w3.org/2000/svg" xmlns:xlink="http://www.w3.org/1999/xlink" xml:space="preserve" version="1.1"  baseProfile="full">
<path d="M32.93,13.5c0.14,1.22,0.24,2.76-0.12,4.27C30.52,27.28,21.67,45.68,11,58.57" style="fill:none;stroke:black;stroke-width:3;opacity:0">
  <animate attributeType="CSS" attributeName="opacity" from="0" to="1" begin="0s" dur="1s" repeatCount="Indefinite" fill="freeze" />
</path>
<path d="M22.98,44.61c0.59,0.61,0.76,1.97,0.76,3.23c0,13.02-0.29,38.15-0.29,46.9" style="fill:none;stroke:black;stroke-width:3;opacity:0">
  <animate attributeType="CSS" attributeName="opacity" from="0" to="1" begin="1s" dur="1s" repeatCount="Indefinite" fill="freeze" />
</path>
<path d="M44.79,13.14c0.3,0.52,0.31,0.89,0.48,1.55c1.37,5.43,2.85,19.64,3.7,29.77" style="fill:none;stroke:black;stroke-width:3;opacity:0">
  <animate attributeType="CSS" attributeName="opacity" from="0" to="1" begin="2s" dur="1s" repeatCount="Indefinite" fill="freeze" />
</path>
<path d="M45.77,15.44c9.38-1.16,26.83-3.4,35.51-4.15c2.58-0.22,3.1,2.05,2.96,3.32c-0.48,4.65-3.58,20.47-4.75,28.24" style="fill:none;stroke:black;stroke-width:3;opacity:0">
  <animate attributeType="CSS" attributeName="opacity" from="0" to="1" begin="3s" dur="1s" repeatCount="Indefinite" fill="freeze" />
</path>
<path d="M47.73,28.3c5.38-0.41,31.37-2.78,34.09-2.9" style="fill:none;stroke:black;stroke-width:3;opacity:0">
  <animate attributeType="CSS" attributeName="opacity" from="0" to="1" begin="4s" dur="1s" repeatCount="Indefinite" fill="freeze" />
</path>
<path d="M49.02,41.86c9.57-0.53,21.25-1.62,30.86-1.86" style="fill:none;stroke:black;stroke-width:3;opacity:0">
  <animate attributeType="CSS" attributeName="opacity" from="0" to="1" begin="5s" dur="1s" repeatCount="Indefinite" fill="freeze" />
</path>
<path d="M51.8,46.73c0.06,0.53,0.27,1.39-0.11,2.11C48.8,54.22,42.24,62.11,31.25,69" style="fill:none;stroke:black;stroke-width:3;opacity:0">
  <animate attributeType="CSS" attributeName="opacity" from="0" to="1" begin="6s" dur="1s" repeatCount="Indefinite" fill="freeze" />
</path>
<path d="M51.73,56.15c1.04,0.5,2.49,0.67,4.14,0.33c1.66-0.33,30.86-3.59,34.99-3.99c2.56-0.25,4.35,1.32,3.91,4.84c-1.52,12.16-5.1,25.39-11.71,36.76c-2.56,4.4-4.81,4.15-7.52-0.83" style="fill:none;stroke:black;stroke-width:3;opacity:0">
  <animate attributeType="CSS" attributeName="opacity" from="0" to="1" begin="7s" dur="1s" repeatCount="Indefinite" fill="freeze" />
</path>
<path d="M62.95,59.12c0.29,0.32-0.04,2.02-0.24,2.65C60.7,68,58.69,73.25,51.48,80.75" style="fill:none;stroke:black;stroke-width:3;opacity:0">
  <animate attributeType="CSS" attributeName="opacity" from="0" to="1" begin="8s" dur="1s" repeatCount="Indefinite" fill="freeze" />
</path>
<path d="M60.96,68.29c4.3,1.78,9.78,6.51,11.88,11" style="fill:none;stroke:black;stroke-width:3;opacity:0">
  <animate attributeType="CSS" attributeName="opacity" from="0" to="1" begin="9s" dur="1s" repeatCount="Indefinite" fill="freeze" />
</path>
<path d="M42.1,65.51c0.76,0.46,1.21,2.07,1.36,2.99c0.14,0.83-0.53,7.72-0.53,15.87c0,1.88,0.62,3.07,2.69,2.86c4.83-0.49,20.31-2.24,28.77-2.87c1.84-0.14,3.32,0.38,4.23,0.38" style="fill:none;stroke:black;stroke-width:3;opacity:0">
  <animate attributeType="CSS" attributeName="opacity" from="0" to="1" begin="10s" dur="1s" repeatCount="Indefinite" fill="freeze" />
</path>
</svg>