<svg width="109px" height="109px" viewBox="0 0 px 109px" xmlns="http://www.w3.org/2000/svg" xmlns:xlink="http://www.w3.org/1999/xlink" xml:space="preserve" version="1.1"  baseProfile="full">
<path d="M28.59,21.36c1.78,0.33,5.04,0.48,6.82,0.33c10.84-0.94,21.52-2.57,32.08-3.03c2.96-0.13,4.75,0.16,6.23,0.32" style="fill:none;stroke:black;stroke-width:3;opacity:0">
  <animate attributeType="CSS" attributeName="opacity" from="0" to="1" begin="0s" dur="1s" repeatCount="0" fill="freeze" />
</path>
<path d="M16.13,44.06c2.16,0.47,5.88,0.62,8.04,0.47c18.08-1.27,36.71-3.9,56.39-4.5c3.6-0.11,5.77,0.22,7.57,0.46" style="fill:none;stroke:black;stroke-width:3;opacity:0">
  <animate attributeType="CSS" attributeName="opacity" from="0" to="1" begin="1s" dur="1s" repeatCount="0" fill="freeze" />
</path>
<path d="M41.29,46.69c0.59,1.18,0.74,2.97,0.36,4.44c-2.9,11.36-8.78,27.99-25.4,41.36" style="fill:none;stroke:black;stroke-width:3;opacity:0">
  <animate attributeType="CSS" attributeName="opacity" from="0" to="1" begin="2s" dur="1s" repeatCount="0" fill="freeze" />
</path>
<path d="M56.7,44.12c1.53,1.53,2,3.11,2,5.66c0,9.59,0.01,19.49,0.01,27.97c0,14.38,1.03,15.62,18.28,15.62c14.88,0,16.14-1.12,16.14-12.69" style="fill:none;stroke:black;stroke-width:3;opacity:0">
  <animate attributeType="CSS" attributeName="opacity" from="0" to="1" begin="3s" dur="1s" repeatCount="0" fill="freeze" />
</path>
</svg>