<svg width="109px" height="109px" viewBox="0 0 px 109px" xmlns="http://www.w3.org/2000/svg" xmlns:xlink="http://www.w3.org/1999/xlink" xml:space="preserve" version="1.1"  baseProfile="full">
<path d="M16.38,24.98c1.4,0.54,3.96,0.63,5.36,0.54c14.54-0.91,42.27-6.02,64-6.23c2.33-0.02,4.23,0.26,5.39,0.53" style="fill:none;stroke:black;stroke-width:3;opacity:0">
  <animate attributeType="CSS" attributeName="opacity" from="0" to="1" begin="0s" dur="1s" repeatCount="0" fill="freeze" />
</path>
<path d="M42.75,26.5c1,1,0.97,3.9,0.87,6.08c-0.87,19.17-9.48,47.83-22.12,59.17" style="fill:none;stroke:black;stroke-width:3;opacity:0">
  <animate attributeType="CSS" attributeName="opacity" from="0" to="1" begin="1s" dur="1s" repeatCount="0" fill="freeze" />
</path>
<path d="M62.49,23.37c0.67,1.19,1.23,2.59,1.23,4.43c0,16.68,0.14,34.7,0.14,52.2c0,9.01,0.39,13.33,14.22,13.33c13.43,0,16.73-0.31,17.32-9.42" style="fill:none;stroke:black;stroke-width:3;opacity:0">
  <animate attributeType="CSS" attributeName="opacity" from="0" to="1" begin="2s" dur="1s" repeatCount="0" fill="freeze" />
</path>
</svg>