<svg width="109px" height="109px" viewBox="0 0 px 109px" xmlns="http://www.w3.org/2000/svg" xmlns:xlink="http://www.w3.org/1999/xlink" xml:space="preserve" version="1.1"  baseProfile="full">
<path d="M50.25,12c0.11,1.15,0.4,3.02-0.21,4.61C46.25,26.5,33.25,47.5,12.5,60.75" style="fill:none;stroke:black;stroke-width:3;opacity:0">
  <animate attributeType="CSS" attributeName="opacity" from="0" to="1" begin="0s" dur="1s" repeatCount="Indefinite" fill="freeze" />
</path>
<path d="M51.25,17.13C58.12,23.66,81.13,46,87.34,50.96c2.11,1.68,4.81,2.4,6.91,2.88" style="fill:none;stroke:black;stroke-width:3;opacity:0">
  <animate attributeType="CSS" attributeName="opacity" from="0" to="1" begin="1s" dur="1s" repeatCount="Indefinite" fill="freeze" />
</path>
<path d="M31.92,53.79c0.85,0.47,3.64,0.17,4.5,0.03c4.01-0.63,21.26-2.37,30.93-2.86c1.32-0.07,2.51,0.09,3.6,0.49" style="fill:none;stroke:black;stroke-width:3;opacity:0">
  <animate attributeType="CSS" attributeName="opacity" from="0" to="1" begin="2s" dur="1s" repeatCount="Indefinite" fill="freeze" />
</path>
<path d="M32.7,72.18c0.84,0.51,3.63,0.31,4.5,0.23c9-0.9,17.57-1.7,28.13-2.62c1.05-0.09,3.38-0.21,4.95,0.24" style="fill:none;stroke:black;stroke-width:3;opacity:0">
  <animate attributeType="CSS" attributeName="opacity" from="0" to="1" begin="3s" dur="1s" repeatCount="Indefinite" fill="freeze" />
</path>
<path d="M19.85,93.51c0.83,0.29,5.13,0.15,6.52,0c19.57-2.02,33.53-3,54.45-3.7c2.25-0.08,4.95,0.48,6.07,0.93" style="fill:none;stroke:black;stroke-width:3;opacity:0">
  <animate attributeType="CSS" attributeName="opacity" from="0" to="1" begin="4s" dur="1s" repeatCount="Indefinite" fill="freeze" />
</path>
<path d="M51.16,53.99c0.9,1.12,0.9,1.8,0.9,2.7c0,6.3,0.45,26.86,0.23,33.15" style="fill:none;stroke:black;stroke-width:3;opacity:0">
  <animate attributeType="CSS" attributeName="opacity" from="0" to="1" begin="5s" dur="1s" repeatCount="Indefinite" fill="freeze" />
</path>
</svg>