<svg width="109px" height="109px" viewBox="0 0 px 109px" xmlns="http://www.w3.org/2000/svg" xmlns:xlink="http://www.w3.org/1999/xlink" xml:space="preserve" version="1.1"  baseProfile="full">
<path d="M28.45,30.19c0.53,1.1,0.88,2.87,0.71,4.85c-0.18,1.98,0.18,57.9,0.18,61.21" style="fill:none;stroke:black;stroke-width:3;opacity:0">
  <animate attributeType="CSS" attributeName="opacity" from="0" to="1" begin="0s" dur="1s" repeatCount="Indefinite" fill="freeze" />
</path>
<path d="M29.15,32.39c6.71-0.88,43.5-4.1,44.82-4.41c2.82-0.66,4.9,1.61,4.59,2.65c-0.53,1.76-0.53,56.04-0.53,61.11c0,8.16-5.29,3.01-7.62,1.32" style="fill:none;stroke:black;stroke-width:3;opacity:0">
  <animate attributeType="CSS" attributeName="opacity" from="0" to="1" begin="1s" dur="1s" repeatCount="Indefinite" fill="freeze" />
</path>
<path d="M51.92,13.12c0.12,0.29,1.77,1.52,1.77,3.39c0,12,0.14,33.5,0.14,49.36" style="fill:none;stroke:black;stroke-width:3;opacity:0">
  <animate attributeType="CSS" attributeName="opacity" from="0" to="1" begin="2s" dur="1s" repeatCount="Indefinite" fill="freeze" />
</path>
<path d="M29.39,50.05C42.5,49,63.5,47.5,77.69,46.66" style="fill:none;stroke:black;stroke-width:3;opacity:0">
  <animate attributeType="CSS" attributeName="opacity" from="0" to="1" begin="3s" dur="1s" repeatCount="Indefinite" fill="freeze" />
</path>
<path d="M11.88,70.23c1.52,0.54,4.31,0.66,5.82,0.54c18.8-1.52,58.3-5.02,75.11-5.73c2.53-0.11,4.05,0.26,5.31,0.53" style="fill:none;stroke:black;stroke-width:3;opacity:0">
  <animate attributeType="CSS" attributeName="opacity" from="0" to="1" begin="4s" dur="1s" repeatCount="Indefinite" fill="freeze" />
</path>
</svg>