<svg width="109px" height="109px" viewBox="0 0 px 109px" xmlns="http://www.w3.org/2000/svg" xmlns:xlink="http://www.w3.org/1999/xlink" xml:space="preserve" version="1.1"  baseProfile="full">
<path d="M24.49,15.12c0.87,0.93,1.54,2.37,1.75,3.6c1.26,7.16,2.01,12.41,3.23,20.75c0.24,1.66,0.41,3.27,0.61,4.74" style="fill:none;stroke:black;stroke-width:3;opacity:0">
  <animate attributeType="CSS" attributeName="opacity" from="0" to="1" begin="0s" dur="1s" repeatCount="Indefinite" fill="freeze" />
</path>
<path d="M26.74,17.25C43.38,15.62,64,14,79.28,13.29c3.35-0.16,5.31,1.02,4.74,4.35c-0.74,4.29-2.21,12-3.64,18.64c-0.4,1.85-0.79,3.62-1.16,5.21" style="fill:none;stroke:black;stroke-width:3;opacity:0">
  <animate attributeType="CSS" attributeName="opacity" from="0" to="1" begin="1s" dur="1s" repeatCount="Indefinite" fill="freeze" />
</path>
<path d="M29.02,28.98c4.85-0.46,45.48-3.11,52.23-3.07" style="fill:none;stroke:black;stroke-width:3;opacity:0">
  <animate attributeType="CSS" attributeName="opacity" from="0" to="1" begin="2s" dur="1s" repeatCount="Indefinite" fill="freeze" />
</path>
<path d="M31.1,41.92c13.4-0.92,31.4-2.05,47.36-2.71" style="fill:none;stroke:black;stroke-width:3;opacity:0">
  <animate attributeType="CSS" attributeName="opacity" from="0" to="1" begin="3s" dur="1s" repeatCount="Indefinite" fill="freeze" />
</path>
<path d="M32.06,51.84c1.12,1.12,1.21,2.56,1.21,3.94c0,1.04,0.02,24.59,0.03,36.22c0,3.82,0.01,6.4,0.01,6.57" style="fill:none;stroke:black;stroke-width:3;opacity:0">
  <animate attributeType="CSS" attributeName="opacity" from="0" to="1" begin="4s" dur="1s" repeatCount="Indefinite" fill="freeze" />
</path>
<path d="M34.05,53.18c3.93-0.17,34.74-2.44,38.32-2.65c2.98-0.17,5.08,0.97,5.08,4.25c0,4.38,0.03,22.35-0.05,36c-0.01,1.84-0.02,3.59-0.02,5.22" style="fill:none;stroke:black;stroke-width:3;opacity:0">
  <animate attributeType="CSS" attributeName="opacity" from="0" to="1" begin="5s" dur="1s" repeatCount="Indefinite" fill="freeze" />
</path>
<path d="M34.6,66.51c9.65-0.89,35.37-2.95,41.67-2.95" style="fill:none;stroke:black;stroke-width:3;opacity:0">
  <animate attributeType="CSS" attributeName="opacity" from="0" to="1" begin="6s" dur="1s" repeatCount="Indefinite" fill="freeze" />
</path>
<path d="M34.42,80.21c11.2-0.96,29.33-2.46,41.64-2.82" style="fill:none;stroke:black;stroke-width:3;opacity:0">
  <animate attributeType="CSS" attributeName="opacity" from="0" to="1" begin="7s" dur="1s" repeatCount="Indefinite" fill="freeze" />
</path>
<path d="M34.37,95.23c10.13-0.73,30.63-2.1,41.75-2.3" style="fill:none;stroke:black;stroke-width:3;opacity:0">
  <animate attributeType="CSS" attributeName="opacity" from="0" to="1" begin="8s" dur="1s" repeatCount="Indefinite" fill="freeze" />
</path>
</svg>