<svg width="109px" height="109px" viewBox="0 0 px 109px" xmlns="http://www.w3.org/2000/svg" xmlns:xlink="http://www.w3.org/1999/xlink" xml:space="preserve" version="1.1"  baseProfile="full">
<path d="M44.62,15.25c0.14,1.46-0.19,2.53-0.9,3.84c-4.05,7.46-11.32,16.3-21.98,23.66" style="fill:none;stroke:black;stroke-width:3;opacity:0">
  <animate attributeType="CSS" attributeName="opacity" from="0" to="1" begin="0s" dur="1s" repeatCount="Indefinite" fill="freeze" />
</path>
<path d="M45.86,21.96c0.81,0.29,2.21,0.43,3.89,0.18c5.75-0.88,9.61-1.32,13.36-2.17c4.04-0.92,4.68,1.79,2.97,4.69C58.5,37.5,42.25,59.38,13.75,70.75" style="fill:none;stroke:black;stroke-width:3;opacity:0">
  <animate attributeType="CSS" attributeName="opacity" from="0" to="1" begin="1s" dur="1s" repeatCount="Indefinite" fill="freeze" />
</path>
<path d="M38.38,32.25c6.13,4.66,30.42,20.84,42.71,27.89c3.8,2.18,8.54,4.17,12.91,4.86" style="fill:none;stroke:black;stroke-width:3;opacity:0">
  <animate attributeType="CSS" attributeName="opacity" from="0" to="1" begin="2s" dur="1s" repeatCount="Indefinite" fill="freeze" />
</path>
<path d="M47.25,65c5.56,1.41,14.36,5.8,15.75,8" style="fill:none;stroke:black;stroke-width:3;opacity:0">
  <animate attributeType="CSS" attributeName="opacity" from="0" to="1" begin="3s" dur="1s" repeatCount="Indefinite" fill="freeze" />
</path>
<path d="M40.5,81.75c8.91,2.65,22.25,9.62,25.5,14" style="fill:none;stroke:black;stroke-width:3;opacity:0">
  <animate attributeType="CSS" attributeName="opacity" from="0" to="1" begin="4s" dur="1s" repeatCount="Indefinite" fill="freeze" />
</path>
</svg>