<svg width="109px" height="109px" viewBox="0 0 px 109px" xmlns="http://www.w3.org/2000/svg" xmlns:xlink="http://www.w3.org/1999/xlink" xml:space="preserve" version="1.1"  baseProfile="full">
<path d="M13.79,22.25c3.99,2.45,10.3,10.09,11.29,13.91" style="fill:none;stroke:black;stroke-width:3;opacity:0">
  <animate attributeType="CSS" attributeName="opacity" from="0" to="1" begin="0s" dur="1s" repeatCount="Indefinite" fill="freeze" />
</path>
<path d="M11.48,86.17c1.77,0.83,2.94,0.73,4.13-1C16.77,83.49,24,71,28.27,61.67" style="fill:none;stroke:black;stroke-width:3;opacity:0">
  <animate attributeType="CSS" attributeName="opacity" from="0" to="1" begin="1s" dur="1s" repeatCount="Indefinite" fill="freeze" />
</path>
<path d="M60.4,11.58c0.95,0.92,1.61,2.49,1.69,5.52c0.39,14.55-0.25,69.66-0.25,74.62c0,9.78-7.22,0.03-8.67-1.22" style="fill:none;stroke:black;stroke-width:3;opacity:0">
  <animate attributeType="CSS" attributeName="opacity" from="0" to="1" begin="2s" dur="1s" repeatCount="Indefinite" fill="freeze" />
</path>
<path d="M31,45.25c1.44,0.25,3.07,0.8,4.57,0.5C39.25,45,47.87,42,50.27,41s4.3,0.74,3.6,3c-3.21,10.5-14.04,31.5-22.94,37.25" style="fill:none;stroke:black;stroke-width:3;opacity:0">
  <animate attributeType="CSS" attributeName="opacity" from="0" to="1" begin="3s" dur="1s" repeatCount="Indefinite" fill="freeze" />
</path>
<path d="M86.76,30c0.1,0.5-0.2,1.94-0.58,2.59C82.58,38.73,74.95,46.3,68.46,49.5" style="fill:none;stroke:black;stroke-width:3;opacity:0">
  <animate attributeType="CSS" attributeName="opacity" from="0" to="1" begin="4s" dur="1s" repeatCount="Indefinite" fill="freeze" />
</path>
<path d="M62.47,45.5c7.72,11.35,20.67,26.67,29.31,33.21c1.82,1.38,3.55,2.07,5.22,2.54" style="fill:none;stroke:black;stroke-width:3;opacity:0">
  <animate attributeType="CSS" attributeName="opacity" from="0" to="1" begin="5s" dur="1s" repeatCount="Indefinite" fill="freeze" />
</path>
</svg>