<svg width="109px" height="109px" viewBox="0 0 px 109px" xmlns="http://www.w3.org/2000/svg" xmlns:xlink="http://www.w3.org/1999/xlink" xml:space="preserve" version="1.1"  baseProfile="full">
<path d="M17.04,19.25c4.78,2.1,12.35,8.64,13.54,11.91" style="fill:none;stroke:black;stroke-width:3;opacity:0">
  <animate attributeType="CSS" attributeName="opacity" from="0" to="1" begin="0s" dur="1s" repeatCount="0" fill="freeze" />
</path>
<path d="M12.48,87.67c2.77,1.33,3.94-0.27,5.13-2C18.77,83.99,25,72.5,29.27,63.17" style="fill:none;stroke:black;stroke-width:3;opacity:0">
  <animate attributeType="CSS" attributeName="opacity" from="0" to="1" begin="1s" dur="1s" repeatCount="0" fill="freeze" />
</path>
<path d="M39,15.98c0.58,1.48,1.43,2.59,1.45,4.56c0.11,14.77,0.11,50.77-0.24,78.96" style="fill:none;stroke:black;stroke-width:3;opacity:0">
  <animate attributeType="CSS" attributeName="opacity" from="0" to="1" begin="2s" dur="1s" repeatCount="0" fill="freeze" />
</path>
<path d="M41.21,18.39c14.03-1.71,37.93-4.89,47.32-4.89c2.14,0,4.22,1.5,4.22,3.69c0,16.29-0.78,57.25-0.39,80.27" style="fill:none;stroke:black;stroke-width:3;opacity:0">
  <animate attributeType="CSS" attributeName="opacity" from="0" to="1" begin="3s" dur="1s" repeatCount="0" fill="freeze" />
</path>
<path d="M46.28,41.46c0.57,0.2,2.1,0.73,3.61,0.59c6.21-0.59,24.27-4.72,33.2-4.72c1.52,0,1.9-0.2,2.85,0" style="fill:none;stroke:black;stroke-width:3;opacity:0">
  <animate attributeType="CSS" attributeName="opacity" from="0" to="1" begin="4s" dur="1s" repeatCount="0" fill="freeze" />
</path>
<path d="M64.31,23.47c0.99,0.64,1.78,2.83,1.78,4.13c0,22.26,0,24.7-0.2,32.65" style="fill:none;stroke:black;stroke-width:3;opacity:0">
  <animate attributeType="CSS" attributeName="opacity" from="0" to="1" begin="5s" dur="1s" repeatCount="0" fill="freeze" />
</path>
<path d="M51.26,61.34c0.33,0.74,0.72,1.26,0.83,1.83c0.83,4.13,2.17,14.32,3.33,22.15" style="fill:none;stroke:black;stroke-width:3;opacity:0">
  <animate attributeType="CSS" attributeName="opacity" from="0" to="1" begin="6s" dur="1s" repeatCount="0" fill="freeze" />
</path>
<path d="M52.16,63.04c6.19-0.79,21.93-3.41,26.16-3.53c1.75-0.05,2.69,1.12,2.54,2.33c-0.58,4.56-2.2,11.98-3.14,18.03" style="fill:none;stroke:black;stroke-width:3;opacity:0">
  <animate attributeType="CSS" attributeName="opacity" from="0" to="1" begin="7s" dur="1s" repeatCount="0" fill="freeze" />
</path>
<path d="M55.48,82.29c5.12-0.33,18.41-1.91,24.56-2.33" style="fill:none;stroke:black;stroke-width:3;opacity:0">
  <animate attributeType="CSS" attributeName="opacity" from="0" to="1" begin="8s" dur="1s" repeatCount="0" fill="freeze" />
</path>
<path d="M40.44,95.32c10.17,0,37.88-2.17,51.92-2.6" style="fill:none;stroke:black;stroke-width:3;opacity:0">
  <animate attributeType="CSS" attributeName="opacity" from="0" to="1" begin="9s" dur="1s" repeatCount="0" fill="freeze" />
</path>
</svg>