<svg width="109px" height="109px" viewBox="0 0 px 109px" xmlns="http://www.w3.org/2000/svg" xmlns:xlink="http://www.w3.org/1999/xlink" xml:space="preserve" version="1.1"  baseProfile="full">
<path d="M25.8,16.5c1.29,1.29,1.37,2.55,1.37,4.86c0,28.26-0.04,55.01-15.16,72.89" style="fill:none;stroke:black;stroke-width:3;opacity:0">
  <animate attributeType="CSS" attributeName="opacity" from="0" to="1" begin="0s" dur="1s" repeatCount="Indefinite" fill="freeze" />
</path>
<path d="M28,18.25c14.38-1,43.75-3.25,47.75-3.25s5.72,0.93,5.5,4.75C79.75,45.5,79.69,75.18,92,90.5c5.62,7,6.25,5.25,5.75-3" style="fill:none;stroke:black;stroke-width:3;opacity:0">
  <animate attributeType="CSS" attributeName="opacity" from="0" to="1" begin="1s" dur="1s" repeatCount="Indefinite" fill="freeze" />
</path>
<path d="M55.12,29c1.06,1.06,1.15,2.38,1.15,3.74c0,0.86,0.07,49.14,0.07,55.31" style="fill:none;stroke:black;stroke-width:3;opacity:0">
  <animate attributeType="CSS" attributeName="opacity" from="0" to="1" begin="2s" dur="1s" repeatCount="Indefinite" fill="freeze" />
</path>
<path d="M57.49,55.73c5.2-0.55,8.01-1.07,12.5-1.54c1.6-0.17,3.35-0.35,4.94,0.02" style="fill:none;stroke:black;stroke-width:3;opacity:0">
  <animate attributeType="CSS" attributeName="opacity" from="0" to="1" begin="3s" dur="1s" repeatCount="Indefinite" fill="freeze" />
</path>
<path d="M38.58,52.84c1.1,1.1,1.15,2.54,1.15,3.99c0,0.86-0.1,25.82-0.1,32.42" style="fill:none;stroke:black;stroke-width:3;opacity:0">
  <animate attributeType="CSS" attributeName="opacity" from="0" to="1" begin="4s" dur="1s" repeatCount="Indefinite" fill="freeze" />
</path>
<path d="M25.44,90.12c3.17,0.97,6.45,0.54,9.69,0.33c10.24-0.66,26.51-2.01,37.63-2.34c3.53-0.11,7.07,0.11,10.55,0.81" style="fill:none;stroke:black;stroke-width:3;opacity:0">
  <animate attributeType="CSS" attributeName="opacity" from="0" to="1" begin="5s" dur="1s" repeatCount="Indefinite" fill="freeze" />
</path>
</svg>