<svg width="109px" height="109px" viewBox="0 0 px 109px" xmlns="http://www.w3.org/2000/svg" xmlns:xlink="http://www.w3.org/1999/xlink" xml:space="preserve" version="1.1"  baseProfile="full">
<path d="M20.92,20.72c1.94,0.87,4.35,0.61,6.07,0.47c14.26-1.19,37.7-3.54,45.35-4.43c4.98-0.58,7.19,1.74,6.91,5.81c-0.73,10.74-8.54,49.54-15.32,61.89c-4.92,8.96-7.79,6.09-11.51,0.28" style="fill:none;stroke:black;stroke-width:3;opacity:0">
  <animate attributeType="CSS" attributeName="opacity" from="0" to="1" begin="0s" dur="1s" repeatCount="0" fill="freeze" />
</path>
<path d="M47.88,22.74c0.1,1.62,0.66,2.26,0.3,4.56C44.94,48.51,37.5,74,15,90.41" style="fill:none;stroke:black;stroke-width:3;opacity:0">
  <animate attributeType="CSS" attributeName="opacity" from="0" to="1" begin="1s" dur="1s" repeatCount="0" fill="freeze" />
</path>
<path d="M21,35.25c2,0,3.32,0.68,5.72,3.2c14.53,15.3,36,30.96,51.49,37.67c6.67,2.89,9.06,4.45,15.54,5.38" style="fill:none;stroke:black;stroke-width:3;opacity:0">
  <animate attributeType="CSS" attributeName="opacity" from="0" to="1" begin="2s" dur="1s" repeatCount="0" fill="freeze" />
</path>
</svg>