<svg width="109px" height="109px" viewBox="0 0 px 109px" xmlns="http://www.w3.org/2000/svg" xmlns:xlink="http://www.w3.org/1999/xlink" xml:space="preserve" version="1.1"  baseProfile="full">
<path d="M17.79,26.53c1.68,0.31,3.42,0.39,5.1,0.17c5.15-0.67,16.03-2.46,23.11-3.28c1.84-0.21,3.75-0.28,5.53,0.36" style="fill:none;stroke:black;stroke-width:3;opacity:0">
  <animate attributeType="CSS" attributeName="opacity" from="0" to="1" begin="0s" dur="1s" repeatCount="Indefinite" fill="freeze" />
</path>
<path d="M11.79,48.72c1.95,0.77,4.67,0.58,6.71,0.28c10.56-1.55,21.53-3.24,31.5-4.36c2.51-0.28,4.74-0.57,7.21,0.03" style="fill:none;stroke:black;stroke-width:3;opacity:0">
  <animate attributeType="CSS" attributeName="opacity" from="0" to="1" begin="1s" dur="1s" repeatCount="Indefinite" fill="freeze" />
</path>
<path d="M33.85,28.58c1.1,1.1,1.74,2.54,1.74,3.94c0,0.79-0.03,39.01-0.09,54.86c-0.01,3.08-0.02,5.31-0.03,6.26" style="fill:none;stroke:black;stroke-width:3;opacity:0">
  <animate attributeType="CSS" attributeName="opacity" from="0" to="1" begin="2s" dur="1s" repeatCount="Indefinite" fill="freeze" />
</path>
<path d="M66.02,33.08C67,34,67.52,35.62,67.52,37.6c0,10.25-0.01,18.3-0.02,23.9c0,2.36,0,4.28,0,5.75" style="fill:none;stroke:black;stroke-width:3;opacity:0">
  <animate attributeType="CSS" attributeName="opacity" from="0" to="1" begin="3s" dur="1s" repeatCount="Indefinite" fill="freeze" />
</path>
<path d="M87.27,16.83c0.98,0.92,1.76,2.29,1.76,4.27c0,14.56-0.01,60.41-0.01,65.37c0,14.28-6.77,4.78-8.71,2.5" style="fill:none;stroke:black;stroke-width:3;opacity:0">
  <animate attributeType="CSS" attributeName="opacity" from="0" to="1" begin="4s" dur="1s" repeatCount="Indefinite" fill="freeze" />
</path>
</svg>