<svg width="109px" height="109px" viewBox="0 0 px 109px" xmlns="http://www.w3.org/2000/svg" xmlns:xlink="http://www.w3.org/1999/xlink" xml:space="preserve" version="1.1"  baseProfile="full">
<path d="M14.98,21.96c0.69,0.33,1.95,0.4,2.63,0.33c9.44-0.9,23.44-3.1,34.95-3.51c1.14-0.04,1.83,0.16,2.41,0.33" style="fill:none;stroke:black;stroke-width:3;opacity:0">
  <animate attributeType="CSS" attributeName="opacity" from="0" to="1" begin="0s" dur="1s" repeatCount="0" fill="freeze" />
</path>
<path d="M33.03,23.15c0.47,1.1,0.05,2.43-0.26,2.97c-3.54,6.29-7.91,10.34-12.8,16.4c-1.58,1.95-1.69,3.27,0.84,2.7c5.9-1.35,19.73-4.94,29.03-7.17" style="fill:none;stroke:black;stroke-width:3;opacity:0">
  <animate attributeType="CSS" attributeName="opacity" from="0" to="1" begin="1s" dur="1s" repeatCount="0" fill="freeze" />
</path>
<path d="M44.59,30.39c3.39,2.58,8.76,10.6,9.61,14.6" style="fill:none;stroke:black;stroke-width:3;opacity:0">
  <animate attributeType="CSS" attributeName="opacity" from="0" to="1" begin="2s" dur="1s" repeatCount="0" fill="freeze" />
</path>
<path d="M34.67,46.2c0.11,0.28,1.58,1.44,1.58,3.2c0,5.85,0,26.31,0,29.19" style="fill:none;stroke:black;stroke-width:3;opacity:0">
  <animate attributeType="CSS" attributeName="opacity" from="0" to="1" begin="3s" dur="1s" repeatCount="0" fill="freeze" />
</path>
<path d="M18.23,62.5c0.67,0.37,1.9,0.35,2.58,0.37C28.75,63,42.5,60,49.08,58.78c1.1-0.2,1.79,0.17,2.35,0.36" style="fill:none;stroke:black;stroke-width:3;opacity:0">
  <animate attributeType="CSS" attributeName="opacity" from="0" to="1" begin="4s" dur="1s" repeatCount="0" fill="freeze" />
</path>
<path d="M14.44,85.08c1.06,0.92,3.28,1.41,4.15,1.08C33.5,80.5,40,78,54.48,73.28" style="fill:none;stroke:black;stroke-width:3;opacity:0">
  <animate attributeType="CSS" attributeName="opacity" from="0" to="1" begin="5s" dur="1s" repeatCount="0" fill="freeze" />
</path>
<path d="M65.27,28.33c0.98,0.92,1.76,1.99,1.76,5.02c0,14.9-0.02,26.19-0.02,31.15" style="fill:none;stroke:black;stroke-width:3;opacity:0">
  <animate attributeType="CSS" attributeName="opacity" from="0" to="1" begin="6s" dur="1s" repeatCount="0" fill="freeze" />
</path>
<path d="M85.27,15.83c0.98,0.92,1.67,1.99,1.76,5.02c0.4,14.55-0.26,62.16-0.26,67.12c0,13.14-7.21,1.5-8.71,0.25" style="fill:none;stroke:black;stroke-width:3;opacity:0">
  <animate attributeType="CSS" attributeName="opacity" from="0" to="1" begin="7s" dur="1s" repeatCount="0" fill="freeze" />
</path>
</svg>