<svg width="109px" height="109px" viewBox="0 0 px 109px" xmlns="http://www.w3.org/2000/svg" xmlns:xlink="http://www.w3.org/1999/xlink" xml:space="preserve" version="1.1"  baseProfile="full">
<path d="M44.74,13.25c0.08,0.87-0.09,1.83-0.66,2.99C40.5,23.5,31.75,38.75,16.5,49.63" style="fill:none;stroke:black;stroke-width:3;opacity:0">
  <animate attributeType="CSS" attributeName="opacity" from="0" to="1" begin="0s" dur="1s" repeatCount="0" fill="freeze" />
</path>
<path d="M39,31.25c3.38,0.62,6.05,0.4,9.02-0.02c7.72-1.08,23.89-3.58,30.1-4.3c5.67-0.66,7.32,1.18,6.66,6.57c-0.59,4.77-7.93,37.41-20.08,53.65c-5.46,7.29-7.19,7.63-11.68,2.1" style="fill:none;stroke:black;stroke-width:3;opacity:0">
  <animate attributeType="CSS" attributeName="opacity" from="0" to="1" begin="1s" dur="1s" repeatCount="0" fill="freeze" />
</path>
<path d="M55.28,33.68c0.6,1.29,0.6,3.02-0.2,5.32C47.96,59.51,37.5,74,18.25,85.75" style="fill:none;stroke:black;stroke-width:3;opacity:0">
  <animate attributeType="CSS" attributeName="opacity" from="0" to="1" begin="2s" dur="1s" repeatCount="0" fill="freeze" />
</path>
<path d="M31.25,45.25c4.39,0.21,30.25,24.5,48.62,38.16c4.55,3.38,9.11,6.19,14.38,8.34" style="fill:none;stroke:black;stroke-width:3;opacity:0">
  <animate attributeType="CSS" attributeName="opacity" from="0" to="1" begin="3s" dur="1s" repeatCount="0" fill="freeze" />
</path>
</svg>