<svg width="109px" height="109px" viewBox="0 0 px 109px" xmlns="http://www.w3.org/2000/svg" xmlns:xlink="http://www.w3.org/1999/xlink" xml:space="preserve" version="1.1"  baseProfile="full">
<path d="M38.5,15.5c0.06,0.76,0.33,2.03-0.13,3.05c-3.13,6.95-9.13,19.2-21.13,29.2" style="fill:none;stroke:black;stroke-width:3;opacity:0">
  <animate attributeType="CSS" attributeName="opacity" from="0" to="1" begin="0s" dur="1s" repeatCount="0" fill="freeze" />
</path>
<path d="M32.75,34.14c1.29,0.67,3.05,0.57,5.16,0.45c6.09-0.34,39.5-3.76,44.66-3.98c5.16-0.22,6.2,2.24,5.42,6.95c-0.77,4.71-6.7,40.4-18.05,53.18c-3.41,3.84-5.21,1.68-8.26-1.12" style="fill:none;stroke:black;stroke-width:3;opacity:0">
  <animate attributeType="CSS" attributeName="opacity" from="0" to="1" begin="1s" dur="1s" repeatCount="0" fill="freeze" />
</path>
<path d="M47.5,37.75c0.07,0.65,0.2,1.71-0.14,2.63C44,49.43,36,58.06,22.75,65.5" style="fill:none;stroke:black;stroke-width:3;opacity:0">
  <animate attributeType="CSS" attributeName="opacity" from="0" to="1" begin="2s" dur="1s" repeatCount="0" fill="freeze" />
</path>
<path d="M67.44,35.5c0.13,1.26-0.05,3.3-0.76,5.04C62,52,48.32,73.98,24,88.25" style="fill:none;stroke:black;stroke-width:3;opacity:0">
  <animate attributeType="CSS" attributeName="opacity" from="0" to="1" begin="3s" dur="1s" repeatCount="0" fill="freeze" />
</path>
<path d="M31.77,48.08c11.49,3.02,29.67,12.43,32.54,17.13" style="fill:none;stroke:black;stroke-width:3;opacity:0">
  <animate attributeType="CSS" attributeName="opacity" from="0" to="1" begin="4s" dur="1s" repeatCount="0" fill="freeze" />
</path>
</svg>