<svg width="109px" height="109px" viewBox="0 0 px 109px" xmlns="http://www.w3.org/2000/svg" xmlns:xlink="http://www.w3.org/1999/xlink" xml:space="preserve" version="1.1"  baseProfile="full">
<path d="M16.63,21.23c1.52,0.54,4.3,0.63,5.82,0.54c15.8-0.91,41.3-4.73,58.61-4.73c2.53,0,4.05,0.26,5.31,0.53" style="fill:none;stroke:black;stroke-width:3;opacity:0">
  <animate attributeType="CSS" attributeName="opacity" from="0" to="1" begin="0s" dur="1s" repeatCount="0" fill="freeze" />
</path>
<path d="M34.99,35.57c0.77,0.29,3.27,0.08,4.05,0.02c8.51-0.69,24.93-3.08,33.64-3.38c1.19-0.04,2.26,0.06,3.25,0.3" style="fill:none;stroke:black;stroke-width:3;opacity:0">
  <animate attributeType="CSS" attributeName="opacity" from="0" to="1" begin="1s" dur="1s" repeatCount="0" fill="freeze" />
</path>
<path d="M37.07,54.32c0.64,0.32,2.75,0.19,3.41,0.14c6.82-0.56,21.42-2.67,29.44-3.23c0.8-0.06,2.56-0.13,3.75,0.15" style="fill:none;stroke:black;stroke-width:3;opacity:0">
  <animate attributeType="CSS" attributeName="opacity" from="0" to="1" begin="2s" dur="1s" repeatCount="0" fill="freeze" />
</path>
<path d="M30.5,73.58c0.63,0.18,3.89,0.59,4.94,0.5c14.83-1.25,28.35-2.78,44.2-3.21c1.7-0.05,3.75,0.29,4.6,0.57" style="fill:none;stroke:black;stroke-width:3;opacity:0">
  <animate attributeType="CSS" attributeName="opacity" from="0" to="1" begin="3s" dur="1s" repeatCount="0" fill="freeze" />
</path>
<path d="M54.35,34.5c1.31,1.33,1.31,2.13,1.31,3.19c0,7.45-0.01,22.01-0.01,33.95" style="fill:none;stroke:black;stroke-width:3;opacity:0">
  <animate attributeType="CSS" attributeName="opacity" from="0" to="1" begin="4s" dur="1s" repeatCount="0" fill="freeze" />
</path>
<path d="M22.5,23.25c0,4-0.5,61.5-0.5,65.25c0,3,0.99,3.63,2.75,3.5c10-0.75,57.25-4.25,60.5-4.25s6,0.25,8,0.75" style="fill:none;stroke:black;stroke-width:3;opacity:0">
  <animate attributeType="CSS" attributeName="opacity" from="0" to="1" begin="5s" dur="1s" repeatCount="0" fill="freeze" />
</path>
</svg>