<svg width="109px" height="109px" viewBox="0 0 px 109px" xmlns="http://www.w3.org/2000/svg" xmlns:xlink="http://www.w3.org/1999/xlink" xml:space="preserve" version="1.1"  baseProfile="full">
<path d="M13.75,50.7c1.56,0.54,4.41,0.69,5.96,0.54c10.17-0.99,55.54-5.74,71.84-6.23c2.59-0.08,4.15,0.26,5.45,0.53" style="fill:none;stroke:black;stroke-width:3;opacity:0">
  <animate attributeType="CSS" attributeName="opacity" from="0" to="1" begin="0s" dur="1s" repeatCount="Indefinite" fill="freeze" />
</path>
<path d="M34.4,20.93c0.84,1.82,1,4.45,1,6.37c0,43.96,0.09,53.46-15.91,65.71" style="fill:none;stroke:black;stroke-width:3;opacity:0">
  <animate attributeType="CSS" attributeName="opacity" from="0" to="1" begin="1s" dur="1s" repeatCount="Indefinite" fill="freeze" />
</path>
<path d="M53.25,17.63c0.43,0.36,1.33,2.69,1.41,3.4c0.09,0.72-0.05,67.36-0.14,71.85" style="fill:none;stroke:black;stroke-width:3;opacity:0">
  <animate attributeType="CSS" attributeName="opacity" from="0" to="1" begin="2s" dur="1s" repeatCount="Indefinite" fill="freeze" />
</path>
<path d="M73.31,15.63c0.76,0.45,2.01,2.12,2.01,4.25c0,0.91-0.1,69.65-0.25,75.25" style="fill:none;stroke:black;stroke-width:3;opacity:0">
  <animate attributeType="CSS" attributeName="opacity" from="0" to="1" begin="3s" dur="1s" repeatCount="Indefinite" fill="freeze" />
</path>
</svg>