<svg width="109px" height="109px" viewBox="0 0 px 109px" xmlns="http://www.w3.org/2000/svg" xmlns:xlink="http://www.w3.org/1999/xlink" xml:space="preserve" version="1.1"  baseProfile="full">
<path d="M24.89,30.46c1.1,0.39,3.11,0.49,4.2,0.39c13.93-1.28,42.08-4.34,51.69-4.5c1.83-0.03,2.92,0.19,3.84,0.38" style="fill:none;stroke:black;stroke-width:3;opacity:0">
  <animate attributeType="CSS" attributeName="opacity" from="0" to="1" begin="0s" dur="1s" repeatCount="Indefinite" fill="freeze" />
</path>
<path d="M53.27,11.88c0.38,0.3,1.19,2.27,1.26,2.87c0.08,0.61-0.05,30.6-0.13,34.38" style="fill:none;stroke:black;stroke-width:3;opacity:0">
  <animate attributeType="CSS" attributeName="opacity" from="0" to="1" begin="1s" dur="1s" repeatCount="Indefinite" fill="freeze" />
</path>
<path d="M13.88,59.98c1.52,0.54,4.3,0.63,5.82,0.54c15.8-0.91,50.55-5.27,70.61-5.73c2.53-0.06,4.05,0.26,5.31,0.53" style="fill:none;stroke:black;stroke-width:3;opacity:0">
  <animate attributeType="CSS" attributeName="opacity" from="0" to="1" begin="2s" dur="1s" repeatCount="Indefinite" fill="freeze" />
</path>
<path d="M37.61,45c0.66,1.21,1.28,2.47,1.34,4.23c0.53,16.09-2.12,38.99-19.7,47.77" style="fill:none;stroke:black;stroke-width:3;opacity:0">
  <animate attributeType="CSS" attributeName="opacity" from="0" to="1" begin="3s" dur="1s" repeatCount="Indefinite" fill="freeze" />
</path>
<path d="M70.87,41.75c0.7,0.72,1.96,1.75,1.96,3.25c0,6.75,0,45.75-0.22,52" style="fill:none;stroke:black;stroke-width:3;opacity:0">
  <animate attributeType="CSS" attributeName="opacity" from="0" to="1" begin="4s" dur="1s" repeatCount="Indefinite" fill="freeze" />
</path>
</svg>