<svg width="109px" height="109px" viewBox="0 0 px 109px" xmlns="http://www.w3.org/2000/svg" xmlns:xlink="http://www.w3.org/1999/xlink" xml:space="preserve" version="1.1"  baseProfile="full">
<path d="M40.82,16c0.05,0.33,0.21,0.94-0.11,1.3C36.84,21.89,31.1,26.1,21,29.79" style="fill:none;stroke:black;stroke-width:3;opacity:0">
  <animate attributeType="CSS" attributeName="opacity" from="0" to="1" begin="0s" dur="1s" repeatCount="Indefinite" fill="freeze" />
</path>
<path d="M18.37,30.01c0.85,0.46,1.36,2.07,1.53,2.99c0.17,0.92,0.36,26.44,0.17,28.72c-0.17,2.07,0.51,0.92-0.51,3.22c-1.02,2.3-1.02,2.76,1.02,1.15C22.61,64.48,38,55.75,44,53.75" style="fill:none;stroke:black;stroke-width:3;opacity:0">
  <animate attributeType="CSS" attributeName="opacity" from="0" to="1" begin="1s" dur="1s" repeatCount="Indefinite" fill="freeze" />
</path>
<path d="M43.97,30.93c0.78,0.82,1.42,4.28,1.42,6.39c0,16.44,0.61,40.44-15.5,56.34" style="fill:none;stroke:black;stroke-width:3;opacity:0">
  <animate attributeType="CSS" attributeName="opacity" from="0" to="1" begin="2s" dur="1s" repeatCount="Indefinite" fill="freeze" />
</path>
<path d="M29.27,38.33c2.31,1.92,5.97,7.9,6.54,10.88" style="fill:none;stroke:black;stroke-width:3;opacity:0">
  <animate attributeType="CSS" attributeName="opacity" from="0" to="1" begin="3s" dur="1s" repeatCount="Indefinite" fill="freeze" />
</path>
<path d="M61.75,25.74c0.86,0.21,2.57,1.5,4.28,1.28c1.71-0.21,20.76-2.64,22.9-2.85c2.14-0.21,5.35-0.43,5.56,4.07c0.1,2.15-1.7,26.56-3.92,36.38C88,76,83.94,66.69,83.3,66.26" style="fill:none;stroke:black;stroke-width:3;opacity:0">
  <animate attributeType="CSS" attributeName="opacity" from="0" to="1" begin="4s" dur="1s" repeatCount="Indefinite" fill="freeze" />
</path>
<path d="M64.22,27.86c0.03,7.39,0,60.84-0.2,66.64" style="fill:none;stroke:black;stroke-width:3;opacity:0">
  <animate attributeType="CSS" attributeName="opacity" from="0" to="1" begin="5s" dur="1s" repeatCount="Indefinite" fill="freeze" />
</path>
<path d="M73.52,38.83c2.4,2.27,6.19,9.35,6.79,12.88" style="fill:none;stroke:black;stroke-width:3;opacity:0">
  <animate attributeType="CSS" attributeName="opacity" from="0" to="1" begin="6s" dur="1s" repeatCount="Indefinite" fill="freeze" />
</path>
</svg>