<svg width="109px" height="109px" viewBox="0 0 px 109px" xmlns="http://www.w3.org/2000/svg" xmlns:xlink="http://www.w3.org/1999/xlink" xml:space="preserve" version="1.1"  baseProfile="full">
<path d="M35.22,9.98c0.05,0.6,0.11,1.54-0.1,2.39c-1.21,5.04-8.18,16.11-17.72,22.88" style="fill:none;stroke:black;stroke-width:3;opacity:0">
  <animate attributeType="CSS" attributeName="opacity" from="0" to="1" begin="0s" dur="1s" repeatCount="0" fill="freeze" />
</path>
<path d="M37.08,14.33c7.19,3.09,15.94,9,18.41,12.17" style="fill:none;stroke:black;stroke-width:3;opacity:0">
  <animate attributeType="CSS" attributeName="opacity" from="0" to="1" begin="1s" dur="1s" repeatCount="0" fill="freeze" />
</path>
<path d="M39.11,35.25c0.07,0.75,0.35,2.01-0.15,3.03c-4.21,8.48-13.78,20.68-26.54,28.97" style="fill:none;stroke:black;stroke-width:3;opacity:0">
  <animate attributeType="CSS" attributeName="opacity" from="0" to="1" begin="2s" dur="1s" repeatCount="0" fill="freeze" />
</path>
<path d="M39.71,40.58c7.58,2.09,14.95,10.7,19.58,17.13" style="fill:none;stroke:black;stroke-width:3;opacity:0">
  <animate attributeType="CSS" attributeName="opacity" from="0" to="1" begin="3s" dur="1s" repeatCount="0" fill="freeze" />
</path>
<path d="M22.59,67.31c0.35,0.44,0.71,0.81,0.87,1.36c1.22,4.36,2.69,16.41,3.53,24.25" style="fill:none;stroke:black;stroke-width:3;opacity:0">
  <animate attributeType="CSS" attributeName="opacity" from="0" to="1" begin="4s" dur="1s" repeatCount="0" fill="freeze" />
</path>
<path d="M24.25,69.14c9.64-2.01,20.93-3.02,26.84-3.89c2.01-0.3,3.25,2,2.94,3.3c-1.47,6.24-2.56,11.33-3.92,18.99" style="fill:none;stroke:black;stroke-width:3;opacity:0">
  <animate attributeType="CSS" attributeName="opacity" from="0" to="1" begin="5s" dur="1s" repeatCount="0" fill="freeze" />
</path>
<path d="M27.93,90.23c7.76-0.6,14.43-1.52,24.54-2.22" style="fill:none;stroke:black;stroke-width:3;opacity:0">
  <animate attributeType="CSS" attributeName="opacity" from="0" to="1" begin="6s" dur="1s" repeatCount="0" fill="freeze" />
</path>
<path d="M62.75,18.75c1,0.25,3,1.75,5,1.5S85.5,17.75,88,17.5s4,1.75,4,4.25c0,2.51,0.75,39.75-0.75,52c-1.37,11.2-6.75,3.75-8.75,1.75" style="fill:none;stroke:black;stroke-width:3;opacity:0">
  <animate attributeType="CSS" attributeName="opacity" from="0" to="1" begin="7s" dur="1s" repeatCount="0" fill="freeze" />
</path>
<path d="M66.83,20.5c0.22,1,0,73.25-0.22,79.5" style="fill:none;stroke:black;stroke-width:3;opacity:0">
  <animate attributeType="CSS" attributeName="opacity" from="0" to="1" begin="8s" dur="1s" repeatCount="0" fill="freeze" />
</path>
</svg>