<svg width="109px" height="109px" viewBox="0 0 px 109px" xmlns="http://www.w3.org/2000/svg" xmlns:xlink="http://www.w3.org/1999/xlink" xml:space="preserve" version="1.1"  baseProfile="full">
<path d="M21.63,18.48c5.4,0.81,10.77,0.14,16.24-0.36c13.38-1.24,27.54-1.95,39.38-2.65c4.28-0.25,8.89-0.55,13.13,0.36" style="fill:none;stroke:black;stroke-width:3;opacity:0">
  <animate attributeType="CSS" attributeName="opacity" from="0" to="1" begin="0s" dur="1s" repeatCount="Indefinite" fill="freeze" />
</path>
<path d="M23.94,19c1.09,1.09,1.27,2.38,1.23,4.11C24.62,48.75,22.38,72,10.31,90.47" style="fill:none;stroke:black;stroke-width:3;opacity:0">
  <animate attributeType="CSS" attributeName="opacity" from="0" to="1" begin="1s" dur="1s" repeatCount="Indefinite" fill="freeze" />
</path>
<path d="M30.13,34.14c2.15,0.13,4.11,0.41,6.26,0.08c6.24-0.97,9.22-1.26,16.36-2.1c1.75-0.34,3.51-0.35,5.28-0.04" style="fill:none;stroke:black;stroke-width:3;opacity:0">
  <animate attributeType="CSS" attributeName="opacity" from="0" to="1" begin="2s" dur="1s" repeatCount="Indefinite" fill="freeze" />
</path>
<path d="M30.77,46.28c0.98,0.98,1.24,2.18,1.44,3.23c0.67,3.51,1.44,7.16,2.2,11.36c0.29,1.61,0.59,3.31,0.88,5.11" style="fill:none;stroke:black;stroke-width:3;opacity:0">
  <animate attributeType="CSS" attributeName="opacity" from="0" to="1" begin="3s" dur="1s" repeatCount="Indefinite" fill="freeze" />
</path>
<path d="M32.46,47.35c3.97-0.55,13.41-1.94,18.67-2.49c3.11-0.32,4.72,1,4.01,4.27c-0.62,2.81-1.64,5.85-2.98,11.21" style="fill:none;stroke:black;stroke-width:3;opacity:0">
  <animate attributeType="CSS" attributeName="opacity" from="0" to="1" begin="4s" dur="1s" repeatCount="Indefinite" fill="freeze" />
</path>
<path d="M36.04,63.07c3.42-0.44,8.92-1.18,13.58-1.67c1.52-0.16,2.94-0.29,4.18-0.38" style="fill:none;stroke:black;stroke-width:3;opacity:0">
  <animate attributeType="CSS" attributeName="opacity" from="0" to="1" begin="5s" dur="1s" repeatCount="Indefinite" fill="freeze" />
</path>
<path d="M32.78,70.46c2.11,2.45,5.7,11.19,6.22,15" style="fill:none;stroke:black;stroke-width:3;opacity:0">
  <animate attributeType="CSS" attributeName="opacity" from="0" to="1" begin="6s" dur="1s" repeatCount="Indefinite" fill="freeze" />
</path>
<path d="M54.36,67.16c0.16,1-0.03,1.93-0.33,2.86c-1.54,4.74-2.66,7.86-5.29,13.86" style="fill:none;stroke:black;stroke-width:3;opacity:0">
  <animate attributeType="CSS" attributeName="opacity" from="0" to="1" begin="7s" dur="1s" repeatCount="Indefinite" fill="freeze" />
</path>
<path d="M26.36,91.92c1.27,1.06,2.37,0.93,4.34,0.34c10.17-3.01,17.3-5.31,28.71-8.71" style="fill:none;stroke:black;stroke-width:3;opacity:0">
  <animate attributeType="CSS" attributeName="opacity" from="0" to="1" begin="8s" dur="1s" repeatCount="Indefinite" fill="freeze" />
</path>
<path d="M62.63,48.21c3.1,0.6,6.14,0.3,9.26-0.08C78,47.38,82.88,47,89.5,46.26c2.63-0.29,5.25-0.51,7.87-0.04" style="fill:none;stroke:black;stroke-width:3;opacity:0">
  <animate attributeType="CSS" attributeName="opacity" from="0" to="1" begin="9s" dur="1s" repeatCount="Indefinite" fill="freeze" />
</path>
<path d="M82.1,26.21c1.09,1.1,1.29,2.29,1.29,3.78c0,18.32,0.04,53.04,0.04,61.14c0,12-6.74,1.83-7.8,0.97" style="fill:none;stroke:black;stroke-width:3;opacity:0">
  <animate attributeType="CSS" attributeName="opacity" from="0" to="1" begin="10s" dur="1s" repeatCount="Indefinite" fill="freeze" />
</path>
<path d="M65.78,61.71c2.03,2.12,4.99,8.69,5.49,11.98" style="fill:none;stroke:black;stroke-width:3;opacity:0">
  <animate attributeType="CSS" attributeName="opacity" from="0" to="1" begin="11s" dur="1s" repeatCount="Indefinite" fill="freeze" />
</path>
</svg>