<svg width="109px" height="109px" viewBox="0 0 px 109px" xmlns="http://www.w3.org/2000/svg" xmlns:xlink="http://www.w3.org/1999/xlink" xml:space="preserve" version="1.1"  baseProfile="full">
<path d="M39.5,11.25c0.06,0.9-0.17,2.14-0.63,3.38C36,22.5,27.38,37.12,15.75,48.38" style="fill:none;stroke:black;stroke-width:3;opacity:0">
  <animate attributeType="CSS" attributeName="opacity" from="0" to="1" begin="0s" dur="1s" repeatCount="Indefinite" fill="freeze" />
</path>
<path d="M34.75,30.25c2.87,0.9,5.72,0.6,8.63,0.14c8.82-1.39,35.97-6.05,40.37-6.64c4.62-0.62,6.73,0.49,6.5,5.25c-0.5,10.25-4.5,45.25-14,64.75c-2.37,4.86-5.05,1.88-8-1.25" style="fill:none;stroke:black;stroke-width:3;opacity:0">
  <animate attributeType="CSS" attributeName="opacity" from="0" to="1" begin="1s" dur="1s" repeatCount="Indefinite" fill="freeze" />
</path>
<path d="M27.25,51.89c0.9,0.73,1.66,1.92,1.8,3.07c1.16,4.09,2.44,11.63,3.48,17.91c0.28,1.71,0.53,3.29,0.72,4.63" style="fill:none;stroke:black;stroke-width:3;opacity:0">
  <animate attributeType="CSS" attributeName="opacity" from="0" to="1" begin="2s" dur="1s" repeatCount="Indefinite" fill="freeze" />
</path>
<path d="M29.88,53.7c9.81-1.72,19.96-3.25,26.25-3.96c4.38-0.49,5.88,0.51,5.12,4.17c-0.99,4.83-2.61,9.93-4.32,16.46" style="fill:none;stroke:black;stroke-width:3;opacity:0">
  <animate attributeType="CSS" attributeName="opacity" from="0" to="1" begin="3s" dur="1s" repeatCount="Indefinite" fill="freeze" />
</path>
<path d="M33.98,74.08c5.95-0.57,13.67-1.69,21.76-2.63c1.27-0.15,2.54-0.29,3.82-0.43" style="fill:none;stroke:black;stroke-width:3;opacity:0">
  <animate attributeType="CSS" attributeName="opacity" from="0" to="1" begin="4s" dur="1s" repeatCount="Indefinite" fill="freeze" />
</path>
</svg>