<svg width="109px" height="109px" viewBox="0 0 px 109px" xmlns="http://www.w3.org/2000/svg" xmlns:xlink="http://www.w3.org/1999/xlink" xml:space="preserve" version="1.1"  baseProfile="full">
<path d="M30.8,13.25c0.91,0.92,1.36,1.88,1.36,3.62c0,4.63-0.03,8.96-0.03,11.38" style="fill:none;stroke:black;stroke-width:3;opacity:0">
  <animate attributeType="CSS" attributeName="opacity" from="0" to="1" begin="0s" dur="1s" repeatCount="0" fill="freeze" />
</path>
<path d="M33.29,21.01c6.03-0.98,8.21-1.51,11.73-2.21c1.38-0.27,2.86-0.43,4.18-0.37" style="fill:none;stroke:black;stroke-width:3;opacity:0">
  <animate attributeType="CSS" attributeName="opacity" from="0" to="1" begin="1s" dur="1s" repeatCount="0" fill="freeze" />
</path>
<path d="M16.3,30.12c-0.09,3.13-2.32,11.32-3.11,13.19" style="fill:none;stroke:black;stroke-width:3;opacity:0">
  <animate attributeType="CSS" attributeName="opacity" from="0" to="1" begin="2s" dur="1s" repeatCount="0" fill="freeze" />
</path>
<path d="M17.53,31.05c3.6-0.55,23.15-3.12,31.83-3.12c5.91,0,1.64,4.32-0.84,6.76" style="fill:none;stroke:black;stroke-width:3;opacity:0">
  <animate attributeType="CSS" attributeName="opacity" from="0" to="1" begin="3s" dur="1s" repeatCount="0" fill="freeze" />
</path>
<path d="M21.52,37.13c1.27,0.45,3.07,0.25,4.38,0.11c3.67-0.4,8.47-1.49,12.85-2.07c1.18-0.16,2.51-0.33,3.69-0.08" style="fill:none;stroke:black;stroke-width:3;opacity:0">
  <animate attributeType="CSS" attributeName="opacity" from="0" to="1" begin="4s" dur="1s" repeatCount="0" fill="freeze" />
</path>
<path d="M24.28,42.52c0.09,0.82-0.05,1.6-0.43,2.33c-1.27,2.76-4.65,7.02-9.8,11.69" style="fill:none;stroke:black;stroke-width:3;opacity:0">
  <animate attributeType="CSS" attributeName="opacity" from="0" to="1" begin="5s" dur="1s" repeatCount="0" fill="freeze" />
</path>
<path d="M40.26,40.73c3.53,1.13,9.11,4.64,9.99,6.4" style="fill:none;stroke:black;stroke-width:3;opacity:0">
  <animate attributeType="CSS" attributeName="opacity" from="0" to="1" begin="6s" dur="1s" repeatCount="0" fill="freeze" />
</path>
<path d="M33.52,45.58c0,1.04-0.36,2.09-1.24,3.56c-3.75,6.24-9.78,13.48-20.41,21.28" style="fill:none;stroke:black;stroke-width:3;opacity:0">
  <animate attributeType="CSS" attributeName="opacity" from="0" to="1" begin="7s" dur="1s" repeatCount="0" fill="freeze" />
</path>
<path d="M36.25,49.25c5.02,2.2,10.95,5.61,14.7,10.3" style="fill:none;stroke:black;stroke-width:3;opacity:0">
  <animate attributeType="CSS" attributeName="opacity" from="0" to="1" begin="8s" dur="1s" repeatCount="0" fill="freeze" />
</path>
<path d="M23,64.14c0.36,0.66,0.88,1.99,0.88,2.87c0,0.65,0.12,14.1,0.05,21.73c-0.02,2.8-0.04,4.74-0.04,4.86" style="fill:none;stroke:black;stroke-width:3;opacity:0">
  <animate attributeType="CSS" attributeName="opacity" from="0" to="1" begin="9s" dur="1s" repeatCount="0" fill="freeze" />
</path>
<path d="M24.77,64.85C26.8,64.74,41.15,62.43,43,62.3c1.54-0.11,2.63,0.53,2.63,2.48c0,0.81,0.09,16.24,0.05,23.53c-0.01,2.26-0.03,3.79-0.06,3.94" style="fill:none;stroke:black;stroke-width:3;opacity:0">
  <animate attributeType="CSS" attributeName="opacity" from="0" to="1" begin="10s" dur="1s" repeatCount="0" fill="freeze" />
</path>
<path d="M25.32,73.35c4.75-0.62,16.18-2.02,19.34-2.02" style="fill:none;stroke:black;stroke-width:3;opacity:0">
  <animate attributeType="CSS" attributeName="opacity" from="0" to="1" begin="11s" dur="1s" repeatCount="0" fill="freeze" />
</path>
<path d="M25.03,81.64c5.43-0.37,14.3-1.57,19.56-1.82" style="fill:none;stroke:black;stroke-width:3;opacity:0">
  <animate attributeType="CSS" attributeName="opacity" from="0" to="1" begin="12s" dur="1s" repeatCount="0" fill="freeze" />
</path>
<path d="M24.94,90.51c4.36-0.35,14.86-1.85,19.66-1.85" style="fill:none;stroke:black;stroke-width:3;opacity:0">
  <animate attributeType="CSS" attributeName="opacity" from="0" to="1" begin="13s" dur="1s" repeatCount="0" fill="freeze" />
</path>
<path d="M58.29,25.75c1.33,0.5,3.44,0.53,6.14,0c3.02-0.59,11.47-2.58,15.83-3.52c4.26-0.92,6.15,0.48,5.04,5.04C77.65,58.92,69.96,79.96,52,93.25" style="fill:none;stroke:black;stroke-width:3;opacity:0">
  <animate attributeType="CSS" attributeName="opacity" from="0" to="1" begin="14s" dur="1s" repeatCount="0" fill="freeze" />
</path>
<path d="M59.48,36.5c3.26,1.29,7.15,21.38,27.07,47.68c2.62,3.45,5.53,6.88,8.95,9.57" style="fill:none;stroke:black;stroke-width:3;opacity:0">
  <animate attributeType="CSS" attributeName="opacity" from="0" to="1" begin="15s" dur="1s" repeatCount="0" fill="freeze" />
</path>
</svg>