<svg width="109px" height="109px" viewBox="0 0 px 109px" xmlns="http://www.w3.org/2000/svg" xmlns:xlink="http://www.w3.org/1999/xlink" xml:space="preserve" version="1.1"  baseProfile="full">
<path d="M10.25,33.26c0.37,0.5,0.76,0.92,0.92,1.55c1.29,4.99,3.34,18.74,4.23,27.69" style="fill:none;stroke:black;stroke-width:3;opacity:0">
  <animate attributeType="CSS" attributeName="opacity" from="0" to="1" begin="0s" dur="1s" repeatCount="Indefinite" fill="freeze" />
</path>
<path d="M12.58,35.16c7.67-1.66,16.55-2.51,20.92-3.16c1.6-0.24,2.56,1.42,2.33,2.83c-0.95,5.82-3.05,13.33-4.46,21.38" style="fill:none;stroke:black;stroke-width:3;opacity:0">
  <animate attributeType="CSS" attributeName="opacity" from="0" to="1" begin="1s" dur="1s" repeatCount="Indefinite" fill="freeze" />
</path>
<path d="M15.57,58.59c5.14-0.74,11.33-1.03,18.39-2.17" style="fill:none;stroke:black;stroke-width:3;opacity:0">
  <animate attributeType="CSS" attributeName="opacity" from="0" to="1" begin="2s" dur="1s" repeatCount="Indefinite" fill="freeze" />
</path>
<path d="M52.18,35.03c0.39,1.69,0.69,3.63,0.45,5.69C51,54.75,45,77.75,29.75,91.5" style="fill:none;stroke:black;stroke-width:3;opacity:0">
  <animate attributeType="CSS" attributeName="opacity" from="0" to="1" begin="3s" dur="1s" repeatCount="Indefinite" fill="freeze" />
</path>
<path d="M57.42,15.75c1.56,0.72,3.03,1.66,4.02,3.54C70.53,36.54,81.48,72.31,90.1,83.1c3.71,4.65,5.04,7.15,8.65,8.65" style="fill:none;stroke:black;stroke-width:3;opacity:0">
  <animate attributeType="CSS" attributeName="opacity" from="0" to="1" begin="4s" dur="1s" repeatCount="Indefinite" fill="freeze" />
</path>
</svg>