<svg width="109px" height="109px" viewBox="0 0 px 109px" xmlns="http://www.w3.org/2000/svg" xmlns:xlink="http://www.w3.org/1999/xlink" xml:space="preserve" version="1.1"  baseProfile="full">
<path d="M50.25,14.5c0.5,2-0.25,3.5-1.75,5.21c-9.59,10.93-15,16.79-23.75,26.36c-3.45,3.77-3.13,4.67,1.5,3.48C36.25,47,60.5,41.75,77,38.5" style="fill:none;stroke:black;stroke-width:3;opacity:0">
  <animate attributeType="CSS" attributeName="opacity" from="0" to="1" begin="0s" dur="1s" repeatCount="Indefinite" fill="freeze" />
</path>
<path d="M69,29.75C75.18,33.32,84.71,44.44,86.25,50" style="fill:none;stroke:black;stroke-width:3;opacity:0">
  <animate attributeType="CSS" attributeName="opacity" from="0" to="1" begin="1s" dur="1s" repeatCount="Indefinite" fill="freeze" />
</path>
<path d="M28.75,64.48c1.2,1.2,1.9,2.7,2.22,4.27c1.4,6.87,2.81,13.67,4.08,21.99c0.27,1.76,0.52,3.45,0.74,5.01" style="fill:none;stroke:black;stroke-width:3;opacity:0">
  <animate attributeType="CSS" attributeName="opacity" from="0" to="1" begin="2s" dur="1s" repeatCount="Indefinite" fill="freeze" />
</path>
<path d="M31,65.55c16.02-1.56,36.34-3.15,45.3-4.14c3.34-0.37,5.32,1.08,4.38,4.59c-1.76,6.58-3.5,16.65-5.02,23.28" style="fill:none;stroke:black;stroke-width:3;opacity:0">
  <animate attributeType="CSS" attributeName="opacity" from="0" to="1" begin="3s" dur="1s" repeatCount="Indefinite" fill="freeze" />
</path>
<path d="M36.37,92.75c11.39-0.66,24.26-1.37,35.4-1.98c1.74-0.09,3.55-0.05,5.42-0.06" style="fill:none;stroke:black;stroke-width:3;opacity:0">
  <animate attributeType="CSS" attributeName="opacity" from="0" to="1" begin="4s" dur="1s" repeatCount="Indefinite" fill="freeze" />
</path>
</svg>