<svg width="109px" height="109px" viewBox="0 0 px 109px" xmlns="http://www.w3.org/2000/svg" xmlns:xlink="http://www.w3.org/1999/xlink" xml:space="preserve" version="1.1"  baseProfile="full">
<path d="M53.5,21.5c0.62,1.12,0.69,2.23,0.25,4C49.62,42,39.5,61,25.25,74.25" style="fill:none;stroke:black;stroke-width:3;opacity:0">
  <animate attributeType="CSS" attributeName="opacity" from="0" to="1" begin="0s" dur="1s" repeatCount="0" fill="freeze" />
</path>
<path d="M13,42.15c1.9,0.56,5.9,0.52,7.79,0.34c23.41-2.24,49.76-5.74,67.67-6.3c3.24-0.1,6.45,0.31,9.17,0.81" style="fill:none;stroke:black;stroke-width:3;opacity:0">
  <animate attributeType="CSS" attributeName="opacity" from="0" to="1" begin="1s" dur="1s" repeatCount="0" fill="freeze" />
</path>
<path d="M41.75,66.5c0.75,0.75,1.35,1.93,1.54,2.95c0.94,5,2.38,16.66,3.07,22.76c0.24,2.15,0.39,2.8,0.39,3.54" style="fill:none;stroke:black;stroke-width:3;opacity:0">
  <animate attributeType="CSS" attributeName="opacity" from="0" to="1" begin="2s" dur="1s" repeatCount="0" fill="freeze" />
</path>
<path d="M43.25,68c5.25-0.5,29.75-3.25,37-3.75c1.75-0.12,3.24,1.52,3,2.75c-1,5.12-3.38,18-4.5,23.25" style="fill:none;stroke:black;stroke-width:3;opacity:0">
  <animate attributeType="CSS" attributeName="opacity" from="0" to="1" begin="3s" dur="1s" repeatCount="0" fill="freeze" />
</path>
<path d="M47,93.25c5.79-0.2,19.51-1.58,28.25-2.23c2.21-0.17,4.18-0.27,5.75-0.27" style="fill:none;stroke:black;stroke-width:3;opacity:0">
  <animate attributeType="CSS" attributeName="opacity" from="0" to="1" begin="4s" dur="1s" repeatCount="0" fill="freeze" />
</path>
</svg>