<svg width="109px" height="109px" viewBox="0 0 px 109px" xmlns="http://www.w3.org/2000/svg" xmlns:xlink="http://www.w3.org/1999/xlink" xml:space="preserve" version="1.1"  baseProfile="full">
<path d="M23.51,27.95c3.24,0.55,6.34,0.2,9.25-0.14c10.64-1.25,32.38-3.74,42.88-4.71c2.71-0.25,5.58-0.3,8.24,0.27" style="fill:none;stroke:black;stroke-width:3;opacity:0">
  <animate attributeType="CSS" attributeName="opacity" from="0" to="1" begin="0s" dur="1s" repeatCount="0" fill="freeze" />
</path>
<path d="M29.56,40.03c0.89,0.89,1.39,1.53,1.55,2.52c0.89,2.98,1.59,8.54,2.16,13.19c0.19,1.57,0.4,3.09,0.64,4.47" style="fill:none;stroke:black;stroke-width:3;opacity:0">
  <animate attributeType="CSS" attributeName="opacity" from="0" to="1" begin="1s" dur="1s" repeatCount="0" fill="freeze" />
</path>
<path d="M31.86,41.95c10.86-1.2,34.82-3.35,43.53-4.12c3.44-0.3,5.45,0.66,4.39,4.42c-0.97,3.43-1.5,5.12-3.4,12.32" style="fill:none;stroke:black;stroke-width:3;opacity:0">
  <animate attributeType="CSS" attributeName="opacity" from="0" to="1" begin="2s" dur="1s" repeatCount="0" fill="freeze" />
</path>
<path d="M34.35,57.97c5.65-0.46,28.03-1.69,39.67-2.31c2.11-0.11,4.11-0.05,5.18-0.05" style="fill:none;stroke:black;stroke-width:3;opacity:0">
  <animate attributeType="CSS" attributeName="opacity" from="0" to="1" begin="3s" dur="1s" repeatCount="0" fill="freeze" />
</path>
<path d="M53.9,11.68c1.27,1.27,1.39,2.95,1.45,5.7C56.62,70.62,54.25,81.5,19.46,98" style="fill:none;stroke:black;stroke-width:3;opacity:0">
  <animate attributeType="CSS" attributeName="opacity" from="0" to="1" begin="4s" dur="1s" repeatCount="0" fill="freeze" />
</path>
<path d="M34.31,66.53c5.61-0.03,28.83,17.26,45,25.72c3.66,1.91,6.44,3.25,11.23,4.69" style="fill:none;stroke:black;stroke-width:3;opacity:0">
  <animate attributeType="CSS" attributeName="opacity" from="0" to="1" begin="5s" dur="1s" repeatCount="0" fill="freeze" />
</path>
</svg>