<svg width="109px" height="109px" viewBox="0 0 px 109px" xmlns="http://www.w3.org/2000/svg" xmlns:xlink="http://www.w3.org/1999/xlink" xml:space="preserve" version="1.1"  baseProfile="full">
<path d="M54.2,12.64c0.3,1.61-0.07,2.99-0.69,4.24c-3.49,7.13-13.28,19.29-25.96,27.54" style="fill:none;stroke:black;stroke-width:3;opacity:0">
  <animate attributeType="CSS" attributeName="opacity" from="0" to="1" begin="0s" dur="1s" repeatCount="0" fill="freeze" />
</path>
<path d="M53.25,24.16c0.88,0.47,1.95,0.5,3.28,0.37c4.37-0.43,11.99-2.47,17.81-4.1c4.18-1.17,5.46,1.02,4.41,3.51C72.25,39.38,43.88,69.62,16,77.5" style="fill:none;stroke:black;stroke-width:3;opacity:0">
  <animate attributeType="CSS" attributeName="opacity" from="0" to="1" begin="1s" dur="1s" repeatCount="0" fill="freeze" />
</path>
<path d="M43.62,40.88c3.62,2,8,6,9.68,9.58" style="fill:none;stroke:black;stroke-width:3;opacity:0">
  <animate attributeType="CSS" attributeName="opacity" from="0" to="1" begin="2s" dur="1s" repeatCount="0" fill="freeze" />
</path>
<path d="M42,67.81c0.91,0.91,1.62,2.19,1.83,3.33c0.5,2.82,2.15,14.38,3.05,20.86c0.3,2.12,0.52,3.7,0.59,4.25" style="fill:none;stroke:black;stroke-width:3;opacity:0">
  <animate attributeType="CSS" attributeName="opacity" from="0" to="1" begin="3s" dur="1s" repeatCount="0" fill="freeze" />
</path>
<path d="M44.53,69.52c10.82-1.38,32.39-4.4,38.01-4.53c2.76-0.06,4.08,1.63,3.25,4.64c-1.13,4.06-3.52,14.04-4.64,20.36" style="fill:none;stroke:black;stroke-width:3;opacity:0">
  <animate attributeType="CSS" attributeName="opacity" from="0" to="1" begin="4s" dur="1s" repeatCount="0" fill="freeze" />
</path>
<path d="M47.99,93.99c7.26-0.61,19.65-1.61,29.54-2.37c2.19-0.17,4.24-0.28,6.04-0.31" style="fill:none;stroke:black;stroke-width:3;opacity:0">
  <animate attributeType="CSS" attributeName="opacity" from="0" to="1" begin="5s" dur="1s" repeatCount="0" fill="freeze" />
</path>
</svg>