<svg width="109px" height="109px" viewBox="0 0 px 109px" xmlns="http://www.w3.org/2000/svg" xmlns:xlink="http://www.w3.org/1999/xlink" xml:space="preserve" version="1.1"  baseProfile="full">
<path d="M51.78,10.5c0.72,0.47,1.9,2.27,1.9,3.2c0,3.68-0.02,9.28-0.1,11.92" style="fill:none;stroke:black;stroke-width:3;opacity:0">
  <animate attributeType="CSS" attributeName="opacity" from="0" to="1" begin="0s" dur="1s" repeatCount="Indefinite" fill="freeze" />
</path>
<path d="M21.65,27.6c1.13,0.07,3.25,0.4,4.36,0.36c9.2-0.34,44.43-4.18,56.48-4.37c1.86-0.03,2.81,0.03,4.2,0.46" style="fill:none;stroke:black;stroke-width:3;opacity:0">
  <animate attributeType="CSS" attributeName="opacity" from="0" to="1" begin="1s" dur="1s" repeatCount="Indefinite" fill="freeze" />
</path>
<path d="M65.64,27.74c0.64,0.96,1.42,1.74,0.32,3.39c-10.46,15.62-29.21,31.12-51,39.62" style="fill:none;stroke:black;stroke-width:3;opacity:0">
  <animate attributeType="CSS" attributeName="opacity" from="0" to="1" begin="2s" dur="1s" repeatCount="Indefinite" fill="freeze" />
</path>
<path d="M35.27,33.32c14.32,7.97,34.79,23.01,51.77,31.32c3.19,1.57,5.55,1.54,8.32,1.68" style="fill:none;stroke:black;stroke-width:3;opacity:0">
  <animate attributeType="CSS" attributeName="opacity" from="0" to="1" begin="3s" dur="1s" repeatCount="Indefinite" fill="freeze" />
</path>
<path d="M30.98,72.27c0.47,0.46,0.95,0.84,1.15,1.42c1.63,4.55,3.57,16.1,4.68,24.28" style="fill:none;stroke:black;stroke-width:3;opacity:0">
  <animate attributeType="CSS" attributeName="opacity" from="0" to="1" begin="4s" dur="1s" repeatCount="Indefinite" fill="freeze" />
</path>
<path d="M32.4,73.83c11.48-1.91,34.13-4.42,40.05-5.06c2.17-0.23,3.47,2.37,3.16,3.76c-1.28,5.73-2.61,11.72-5,20.43" style="fill:none;stroke:black;stroke-width:3;opacity:0">
  <animate attributeType="CSS" attributeName="opacity" from="0" to="1" begin="5s" dur="1s" repeatCount="Indefinite" fill="freeze" />
</path>
<path d="M37.28,95.95c6.95-0.73,26.67-2.55,35.49-3.28" style="fill:none;stroke:black;stroke-width:3;opacity:0">
  <animate attributeType="CSS" attributeName="opacity" from="0" to="1" begin="6s" dur="1s" repeatCount="Indefinite" fill="freeze" />
</path>
</svg>