<svg width="109px" height="109px" viewBox="0 0 px 109px" xmlns="http://www.w3.org/2000/svg" xmlns:xlink="http://www.w3.org/1999/xlink" xml:space="preserve" version="1.1"  baseProfile="full">
<path d="M28.71,19.08c0.49,0.4,1,0.74,1.21,1.24c1.71,3.99,3.58,12.18,5.42,21.64" style="fill:none;stroke:black;stroke-width:3;opacity:0">
  <animate attributeType="CSS" attributeName="opacity" from="0" to="1" begin="0s" dur="1s" repeatCount="0" fill="freeze" />
</path>
<path d="M31.78,20.45c12.06-1.67,36.32-4.37,42.54-4.93c2.28-0.21,3.64,2.08,3.32,3.29c-1.35,5.02-2.89,8.84-5.77,16.08" style="fill:none;stroke:black;stroke-width:3;opacity:0">
  <animate attributeType="CSS" attributeName="opacity" from="0" to="1" begin="1s" dur="1s" repeatCount="0" fill="freeze" />
</path>
<path d="M35.83,39.33c7.31-0.64,29.03-3.17,38.3-3.81" style="fill:none;stroke:black;stroke-width:3;opacity:0">
  <animate attributeType="CSS" attributeName="opacity" from="0" to="1" begin="2s" dur="1s" repeatCount="0" fill="freeze" />
</path>
<path d="M29,54.22c0.95,0.52,4.04,0.19,5,0.03c4.46-0.7,30.75-3.75,41.5-4.29c1.46-0.07,2.79,0.1,4,0.54" style="fill:none;stroke:black;stroke-width:3;opacity:0">
  <animate attributeType="CSS" attributeName="opacity" from="0" to="1" begin="3s" dur="1s" repeatCount="0" fill="freeze" />
</path>
<path d="M29.25,70.5c0.94,0.57,4.04,0.35,5,0.25c10-1,27.75-3,39.5-4.02c1.17-0.1,3.75-0.23,5.5,0.27" style="fill:none;stroke:black;stroke-width:3;opacity:0">
  <animate attributeType="CSS" attributeName="opacity" from="0" to="1" begin="4s" dur="1s" repeatCount="0" fill="freeze" />
</path>
<path d="M15.75,90.99c0.92,0.32,5.7,0.12,7.25,0.01c23-1.75,41-3.5,64.25-4.28c2.5-0.08,5.5,0.53,6.75,1.03" style="fill:none;stroke:black;stroke-width:3;opacity:0">
  <animate attributeType="CSS" attributeName="opacity" from="0" to="1" begin="5s" dur="1s" repeatCount="0" fill="freeze" />
</path>
<path d="M53.25,54.25c1,1.25,1,2,1,3c0,7,0.25,24,0,31" style="fill:none;stroke:black;stroke-width:3;opacity:0">
  <animate attributeType="CSS" attributeName="opacity" from="0" to="1" begin="6s" dur="1s" repeatCount="0" fill="freeze" />
</path>
</svg>