<svg width="109px" height="109px" viewBox="0 0 px 109px" xmlns="http://www.w3.org/2000/svg" xmlns:xlink="http://www.w3.org/1999/xlink" xml:space="preserve" version="1.1"  baseProfile="full">
<path d="M10.25,33.29c0.37,0.51,0.76,0.94,0.92,1.58c1.29,5.07,3.34,18.54,4.23,27.63" style="fill:none;stroke:black;stroke-width:3;opacity:0">
  <animate attributeType="CSS" attributeName="opacity" from="0" to="1" begin="0s" dur="1s" repeatCount="Indefinite" fill="freeze" />
</path>
<path d="M11.58,35.22c9.42-1.72,17.55-3.06,21.92-3.73c1.6-0.24,2.56,1.44,2.33,2.87c-0.95,5.92-3.55,14.57-4.96,22.75" style="fill:none;stroke:black;stroke-width:3;opacity:0">
  <animate attributeType="CSS" attributeName="opacity" from="0" to="1" begin="1s" dur="1s" repeatCount="Indefinite" fill="freeze" />
</path>
<path d="M15.07,59.05c5.14-0.75,11.33-1.05,18.39-2.21" style="fill:none;stroke:black;stroke-width:3;opacity:0">
  <animate attributeType="CSS" attributeName="opacity" from="0" to="1" begin="2s" dur="1s" repeatCount="Indefinite" fill="freeze" />
</path>
<path d="M45.39,21.82c1.5,0.77,3.93,1.01,5.52,0.79c9.84-1.36,26.19-3.5,29.63-3.97c2.96-0.4,3.92,1.94,3.46,4.19c-1,4.91-2.25,12.16-4,20.41" style="fill:none;stroke:black;stroke-width:3;opacity:0">
  <animate attributeType="CSS" attributeName="opacity" from="0" to="1" begin="3s" dur="1s" repeatCount="Indefinite" fill="freeze" />
</path>
<path d="M49.5,46.25c4.32-0.26,27.55-2.51,32.06-2.76" style="fill:none;stroke:black;stroke-width:3;opacity:0">
  <animate attributeType="CSS" attributeName="opacity" from="0" to="1" begin="4s" dur="1s" repeatCount="Indefinite" fill="freeze" />
</path>
<path d="M49.59,24.12c0,3.91-0.01,9.27-0.67,17.64c-1.7,21.73-6.17,35.49-18.67,50.74" style="fill:none;stroke:black;stroke-width:3;opacity:0">
  <animate attributeType="CSS" attributeName="opacity" from="0" to="1" begin="5s" dur="1s" repeatCount="Indefinite" fill="freeze" />
</path>
<path d="M58.25,47c6.52,10.91,22.51,34.12,31.5,41.97c2.09,1.82,5.23,2.95,7,3.53" style="fill:none;stroke:black;stroke-width:3;opacity:0">
  <animate attributeType="CSS" attributeName="opacity" from="0" to="1" begin="6s" dur="1s" repeatCount="Indefinite" fill="freeze" />
</path>
</svg>