<svg width="109px" height="109px" viewBox="0 0 px 109px" xmlns="http://www.w3.org/2000/svg" xmlns:xlink="http://www.w3.org/1999/xlink" xml:space="preserve" version="1.1"  baseProfile="full">
<path d="M66.45,12.89c0.11,0.4,0.2,1.02-0.21,1.62C62.76,19.6,48.8,27.22,29.06,29.98" style="fill:none;stroke:black;stroke-width:3;opacity:0">
  <animate attributeType="CSS" attributeName="opacity" from="0" to="1" begin="0s" dur="1s" repeatCount="Indefinite" fill="freeze" />
</path>
<path d="M15.38,44.11c0.99,0.33,3.53,0.5,4.62,0.46c12.65-0.54,51.51-6.09,67.37-6.22c1.37-0.01,3.32,0.13,6.39,0.69" style="fill:none;stroke:black;stroke-width:3;opacity:0">
  <animate attributeType="CSS" attributeName="opacity" from="0" to="1" begin="1s" dur="1s" repeatCount="Indefinite" fill="freeze" />
</path>
<path d="M53.1,26.95c0.6,0.69,0.41,2.58-0.11,3.99C44.75,53.25,34.25,65.5,15.25,75.5" style="fill:none;stroke:black;stroke-width:3;opacity:0">
  <animate attributeType="CSS" attributeName="opacity" from="0" to="1" begin="2s" dur="1s" repeatCount="Indefinite" fill="freeze" />
</path>
<path d="M56,41.27c8.21,7.44,26.01,24.96,34.22,29.94c2.79,1.69,3.76,1.95,5.03,2.1" style="fill:none;stroke:black;stroke-width:3;opacity:0">
  <animate attributeType="CSS" attributeName="opacity" from="0" to="1" begin="3s" dur="1s" repeatCount="Indefinite" fill="freeze" />
</path>
<path d="M33.75,71.52c0.51,0.44,1.03,0.8,1.26,1.34c1.77,4.32,3.89,16.23,5.1,23.99" style="fill:none;stroke:black;stroke-width:3;opacity:0">
  <animate attributeType="CSS" attributeName="opacity" from="0" to="1" begin="4s" dur="1s" repeatCount="Indefinite" fill="freeze" />
</path>
<path d="M36.93,73.45c10.57-1.2,29.14-2.74,35.12-3.31c2.18-0.21,3.01,2.39,2.7,3.61c-1.29,5.04-3.32,12.97-5.25,19.95" style="fill:none;stroke:black;stroke-width:3;opacity:0">
  <animate attributeType="CSS" attributeName="opacity" from="0" to="1" begin="5s" dur="1s" repeatCount="Indefinite" fill="freeze" />
</path>
<path d="M40.34,96.06c7.02-0.64,20.16-1.56,31.34-1.74" style="fill:none;stroke:black;stroke-width:3;opacity:0">
  <animate attributeType="CSS" attributeName="opacity" from="0" to="1" begin="6s" dur="1s" repeatCount="Indefinite" fill="freeze" />
</path>
</svg>