<svg width="109px" height="109px" viewBox="0 0 px 109px" xmlns="http://www.w3.org/2000/svg" xmlns:xlink="http://www.w3.org/1999/xlink" xml:space="preserve" version="1.1"  baseProfile="full">
<path d="M19.63,16.52c1.32,0.56,3.75,0.82,5.05,0.56c5.33-1.08,35.6-5.23,60.84-5.38c2.2-0.01,3.51,0.27,4.61,0.54" style="fill:none;stroke:black;stroke-width:3;opacity:0">
  <animate attributeType="CSS" attributeName="opacity" from="0" to="1" begin="0s" dur="1s" repeatCount="Indefinite" fill="freeze" />
</path>
<path d="M32.81,26.82c0.34,0.28,0.7,0.5,0.85,0.85c1.19,2.72,2.77,9.94,3.59,14.83" style="fill:none;stroke:black;stroke-width:3;opacity:0">
  <animate attributeType="CSS" attributeName="opacity" from="0" to="1" begin="1s" dur="1s" repeatCount="Indefinite" fill="freeze" />
</path>
<path d="M34.96,28.67c7.04-1.42,15.62-2.99,19.65-3.35c1.47-0.13,2.36,0.77,2.15,1.54c-0.87,3.18-1.89,7.02-3.19,11.41" style="fill:none;stroke:black;stroke-width:3;opacity:0">
  <animate attributeType="CSS" attributeName="opacity" from="0" to="1" begin="2s" dur="1s" repeatCount="Indefinite" fill="freeze" />
</path>
<path d="M37.41,40.11c4.74-0.41,11.12-0.82,17.62-1.44" style="fill:none;stroke:black;stroke-width:3;opacity:0">
  <animate attributeType="CSS" attributeName="opacity" from="0" to="1" begin="3s" dur="1s" repeatCount="Indefinite" fill="freeze" />
</path>
<path d="M73.94,14.17c0.06,0.29,0.82,1.54,0.88,3.41c0.28,9-0.01,24.9-0.18,27.96c-0.1,1.87-1.2,2.62-2.78,2.47c-1.72-0.17-2.61-2.26-4.34-4.32" style="fill:none;stroke:black;stroke-width:3;opacity:0">
  <animate attributeType="CSS" attributeName="opacity" from="0" to="1" begin="4s" dur="1s" repeatCount="Indefinite" fill="freeze" />
</path>
<path d="M18.13,58.52c1.32,0.56,3.75,0.82,5.05,0.56c5.33-1.09,41.6-5.23,66.84-5.38c2.2-0.01,3.51,0.27,4.61,0.54" style="fill:none;stroke:black;stroke-width:3;opacity:0">
  <animate attributeType="CSS" attributeName="opacity" from="0" to="1" begin="5s" dur="1s" repeatCount="Indefinite" fill="freeze" />
</path>
<path d="M33.31,68.27c0.36,0.31,0.73,0.57,0.88,0.96c1.24,3.08,2.89,11.25,3.74,16.77" style="fill:none;stroke:black;stroke-width:3;opacity:0">
  <animate attributeType="CSS" attributeName="opacity" from="0" to="1" begin="6s" dur="1s" repeatCount="Indefinite" fill="freeze" />
</path>
<path d="M35.55,70.36c7.34-1.6,16.27-3.38,20.47-3.78c1.54-0.15,2.46,0.88,2.24,1.74c-0.91,3.59-1.97,7.93-3.32,12.9" style="fill:none;stroke:black;stroke-width:3;opacity:0">
  <animate attributeType="CSS" attributeName="opacity" from="0" to="1" begin="7s" dur="1s" repeatCount="Indefinite" fill="freeze" />
</path>
<path d="M38.1,83.3c4.93-0.46,11.58-0.93,18.36-1.63" style="fill:none;stroke:black;stroke-width:3;opacity:0">
  <animate attributeType="CSS" attributeName="opacity" from="0" to="1" begin="8s" dur="1s" repeatCount="Indefinite" fill="freeze" />
</path>
<path d="M74.31,56.17c0.07,0.29,0.94,1.54,1,3.41c0.32,9-0.01,32.9-0.21,35.96c-0.12,1.87-1.36,2.62-3.16,2.47C70,97.84,69.5,95,67.02,93.69" style="fill:none;stroke:black;stroke-width:3;opacity:0">
  <animate attributeType="CSS" attributeName="opacity" from="0" to="1" begin="9s" dur="1s" repeatCount="Indefinite" fill="freeze" />
</path>
</svg>