<svg width="109px" height="109px" viewBox="0 0 px 109px" xmlns="http://www.w3.org/2000/svg" xmlns:xlink="http://www.w3.org/1999/xlink" xml:space="preserve" version="1.1"  baseProfile="full">
<path d="M54.3,11.88c0.91,0.91,1.25,2.12,1.25,3.4c0,0.78-0.05,4.96-0.05,7.71" style="fill:none;stroke:black;stroke-width:3;opacity:0">
  <animate attributeType="CSS" attributeName="opacity" from="0" to="1" begin="0s" dur="1s" repeatCount="0" fill="freeze" />
</path>
<path d="M24.56,26.48c2.94,1.05,6.31,0.61,9.31,0.21c14.38-1.93,31.75-3.18,44.63-4.19c2.99-0.23,5.46-0.05,8.38,0.58" style="fill:none;stroke:black;stroke-width:3;opacity:0">
  <animate attributeType="CSS" attributeName="opacity" from="0" to="1" begin="1s" dur="1s" repeatCount="0" fill="freeze" />
</path>
<path d="M28.15,27.75c1.11,1.11,1.16,2.34,1.16,4.63c0,22.87-5.31,48.37-17,63.59" style="fill:none;stroke:black;stroke-width:3;opacity:0">
  <animate attributeType="CSS" attributeName="opacity" from="0" to="1" begin="2s" dur="1s" repeatCount="0" fill="freeze" />
</path>
<path d="M37.63,40.4c2.01,0.24,3.73,0.69,5.57,0.48C54.5,39.62,64,38.25,74.4,37.75c2.61-0.12,4.41,1.21,4.01,3.62c-1.05,6.31-2.04,13.38-3.21,20.77" style="fill:none;stroke:black;stroke-width:3;opacity:0">
  <animate attributeType="CSS" attributeName="opacity" from="0" to="1" begin="3s" dur="1s" repeatCount="0" fill="freeze" />
</path>
<path d="M33,52.41c2.7,0.36,5.03,0.5,7.75,0.21c15.38-1.61,30.63-2.69,43.27-3.35c2.98-0.16,6.05-0.14,8.98,0.57" style="fill:none;stroke:black;stroke-width:3;opacity:0">
  <animate attributeType="CSS" attributeName="opacity" from="0" to="1" begin="4s" dur="1s" repeatCount="0" fill="freeze" />
</path>
<path d="M36.83,65.95c2.26,0.33,4.27,0.44,6.55,0.25c10.21-0.83,21.26-2.5,30.52-2.77c1.6-0.05,2.61,0,3.81,0.15" style="fill:none;stroke:black;stroke-width:3;opacity:0">
  <animate attributeType="CSS" attributeName="opacity" from="0" to="1" begin="5s" dur="1s" repeatCount="0" fill="freeze" />
</path>
<path d="M55.37,30.5c1.07,1.06,1.21,2.25,1.21,3.75c0,1.02,0.03,23,0.03,30" style="fill:none;stroke:black;stroke-width:3;opacity:0">
  <animate attributeType="CSS" attributeName="opacity" from="0" to="1" begin="6s" dur="1s" repeatCount="0" fill="freeze" />
</path>
<path d="M39.5,77.3c0.85,0.65,1.36,1.51,1.52,2.56c1.1,4.38,1.87,8.58,2.73,13.84c0.28,1.7,0.53,3.33,0.75,4.79" style="fill:none;stroke:black;stroke-width:3;opacity:0">
  <animate attributeType="CSS" attributeName="opacity" from="0" to="1" begin="7s" dur="1s" repeatCount="0" fill="freeze" />
</path>
<path d="M41.38,78.09c8.99-1.19,24.97-2.92,31.9-3.63c3.26-0.34,5.29-0.11,4.36,3.67c-1.07,4.36-2.08,9.14-3.47,14.42" style="fill:none;stroke:black;stroke-width:3;opacity:0">
  <animate attributeType="CSS" attributeName="opacity" from="0" to="1" begin="8s" dur="1s" repeatCount="0" fill="freeze" />
</path>
<path d="M45.2,96.22c4.83-0.46,15.46-1.6,25.3-2.26c1.96-0.13,3.89-0.25,5.71-0.36" style="fill:none;stroke:black;stroke-width:3;opacity:0">
  <animate attributeType="CSS" attributeName="opacity" from="0" to="1" begin="9s" dur="1s" repeatCount="0" fill="freeze" />
</path>
</svg>