<svg width="109px" height="109px" viewBox="0 0 px 109px" xmlns="http://www.w3.org/2000/svg" xmlns:xlink="http://www.w3.org/1999/xlink" xml:space="preserve" version="1.1"  baseProfile="full">
<path d="M9.75,34.09c0.36,0.45,0.73,0.83,0.89,1.4c1.25,4.5,3.26,18.42,4.11,26.51" style="fill:none;stroke:black;stroke-width:3;opacity:0">
  <animate attributeType="CSS" attributeName="opacity" from="0" to="1" begin="0s" dur="1s" repeatCount="Indefinite" fill="freeze" />
</path>
<path d="M11,36.25c9.13-1.98,16.08-3.17,20.31-3.76c1.55-0.22,2.48,1.28,2.26,2.55c-0.92,5.26-2.49,13.39-3.85,20.67" style="fill:none;stroke:black;stroke-width:3;opacity:0">
  <animate attributeType="CSS" attributeName="opacity" from="0" to="1" begin="1s" dur="1s" repeatCount="Indefinite" fill="freeze" />
</path>
<path d="M14.92,58.33c4.98-0.67,10.48-1.43,17.31-2.46" style="fill:none;stroke:black;stroke-width:3;opacity:0">
  <animate attributeType="CSS" attributeName="opacity" from="0" to="1" begin="2s" dur="1s" repeatCount="Indefinite" fill="freeze" />
</path>
<path d="M62.42,12.25c0.07,0.85,0.24,2.22-0.13,3.4c-2.63,8.19-10.42,21.48-23.2,32.5" style="fill:none;stroke:black;stroke-width:3;opacity:0">
  <animate attributeType="CSS" attributeName="opacity" from="0" to="1" begin="3s" dur="1s" repeatCount="Indefinite" fill="freeze" />
</path>
<path d="M62.99,16.35c4.21,5.35,22.36,22.8,27,26.72c1.58,1.33,3.6,1.9,5.17,2.27" style="fill:none;stroke:black;stroke-width:3;opacity:0">
  <animate attributeType="CSS" attributeName="opacity" from="0" to="1" begin="4s" dur="1s" repeatCount="Indefinite" fill="freeze" />
</path>
<path d="M53.25,40.55c0.3,0.14,2.11,0.16,2.4,0.14c3.08-0.16,10.09-1.44,13.7-2.15c0.48-0.1,2.55,0.07,2.8,0.14" style="fill:none;stroke:black;stroke-width:3;opacity:0">
  <animate attributeType="CSS" attributeName="opacity" from="0" to="1" begin="5s" dur="1s" repeatCount="Indefinite" fill="freeze" />
</path>
<path d="M47.59,53.65c0.78,0.37,1.23,0.57,3.11,0.27c7.31-1.17,18.89-3.21,24.12-4.16c3.1-0.57,3.81,1.35,2.34,4.26C74,60.25,72.75,62,67.97,68.72" style="fill:none;stroke:black;stroke-width:3;opacity:0">
  <animate attributeType="CSS" attributeName="opacity" from="0" to="1" begin="6s" dur="1s" repeatCount="Indefinite" fill="freeze" />
</path>
<path d="M40.66,77.58c0.26,2.34-2.61,12.67-4.7,16.58" style="fill:none;stroke:black;stroke-width:3;opacity:0">
  <animate attributeType="CSS" attributeName="opacity" from="0" to="1" begin="7s" dur="1s" repeatCount="Indefinite" fill="freeze" />
</path>
<path d="M49.57,76.26c5.83,13.98,16.83,23.81,35.97,21.38c5.27-0.67,5.27-2.7,2.38-5.71" style="fill:none;stroke:black;stroke-width:3;opacity:0">
  <animate attributeType="CSS" attributeName="opacity" from="0" to="1" begin="8s" dur="1s" repeatCount="Indefinite" fill="freeze" />
</path>
<path d="M65.43,74.25c2.16,5.94,5.41,8.9,6.43,3.06" style="fill:none;stroke:black;stroke-width:3;opacity:0">
  <animate attributeType="CSS" attributeName="opacity" from="0" to="1" begin="9s" dur="1s" repeatCount="Indefinite" fill="freeze" />
</path>
<path d="M86.56,74.66c4.82,1.51,8.44,2.89,12.35,7.57" style="fill:none;stroke:black;stroke-width:3;opacity:0">
  <animate attributeType="CSS" attributeName="opacity" from="0" to="1" begin="10s" dur="1s" repeatCount="Indefinite" fill="freeze" />
</path>
</svg>