<svg width="109px" height="109px" viewBox="0 0 px 109px" xmlns="http://www.w3.org/2000/svg" xmlns:xlink="http://www.w3.org/1999/xlink" xml:space="preserve" version="1.1"  baseProfile="full">
<path d="M18.39,15.04c1.22,1.22,1.93,3.12,1.93,4.92c0,0.89,0.01,50,0.01,70.67c0,3.77,0,6.6,0,8.01" style="fill:none;stroke:black;stroke-width:3;opacity:0">
  <animate attributeType="CSS" attributeName="opacity" from="0" to="1" begin="0s" dur="1s" repeatCount="Indefinite" fill="freeze" />
</path>
<path d="M20.52,16.91c6.35-1.16,14.8-2.87,19.12-3.56c2.64-0.42,4.88-0.16,4.75,3.02c-0.13,2.95-0.88,15.16-1.28,21.75c-0.14,2.41-0.24,4.08-0.24,4.26" style="fill:none;stroke:black;stroke-width:3;opacity:0">
  <animate attributeType="CSS" attributeName="opacity" from="0" to="1" begin="1s" dur="1s" repeatCount="Indefinite" fill="freeze" />
</path>
<path d="M21.2,29.49c6.8-1.24,14.3-2.24,21.38-2.83" style="fill:none;stroke:black;stroke-width:3;opacity:0">
  <animate attributeType="CSS" attributeName="opacity" from="0" to="1" begin="2s" dur="1s" repeatCount="Indefinite" fill="freeze" />
</path>
<path d="M21.27,42.06c8.11-1.29,13.14-1.76,20.31-2.36" style="fill:none;stroke:black;stroke-width:3;opacity:0">
  <animate attributeType="CSS" attributeName="opacity" from="0" to="1" begin="3s" dur="1s" repeatCount="Indefinite" fill="freeze" />
</path>
<path d="M64.36,12.26c1,1,1.54,2.24,1.54,3.65c0,0.68-0.06,12.96-0.08,19.84c-0.01,1.89-0.01,3.38-0.01,4.1" style="fill:none;stroke:black;stroke-width:3;opacity:0">
  <animate attributeType="CSS" attributeName="opacity" from="0" to="1" begin="4s" dur="1s" repeatCount="Indefinite" fill="freeze" />
</path>
<path d="M66.55,14.16c5.82-1.03,14.49-2.29,19.57-2.95c2.67-0.35,4.85,0.79,4.85,2.92c0,20.13,0.04,63.76,0.04,77.56c0,8.69-5.51,3.56-9.9-0.64" style="fill:none;stroke:black;stroke-width:3;opacity:0">
  <animate attributeType="CSS" attributeName="opacity" from="0" to="1" begin="5s" dur="1s" repeatCount="Indefinite" fill="freeze" />
</path>
<path d="M67.24,25.22c6.63-0.84,17.38-1.84,22.15-2.24" style="fill:none;stroke:black;stroke-width:3;opacity:0">
  <animate attributeType="CSS" attributeName="opacity" from="0" to="1" begin="6s" dur="1s" repeatCount="Indefinite" fill="freeze" />
</path>
<path d="M67.05,36.76c6.2-0.51,15.45-1.51,22.55-2.06" style="fill:none;stroke:black;stroke-width:3;opacity:0">
  <animate attributeType="CSS" attributeName="opacity" from="0" to="1" begin="7s" dur="1s" repeatCount="Indefinite" fill="freeze" />
</path>
<path d="M36.25,57.11c0.88,0.64,1.62,1.76,1.87,2.92c0.92,4.35,1.84,11.03,2.61,17.07c0.15,1.17,0.29,2.31,0.43,3.41" style="fill:none;stroke:black;stroke-width:3;opacity:0">
  <animate attributeType="CSS" attributeName="opacity" from="0" to="1" begin="8s" dur="1s" repeatCount="Indefinite" fill="freeze" />
</path>
<path d="M38.71,59.66c9.11-1.03,21.45-2.32,27.33-2.98c3.34-0.37,4.76,0.9,4.01,4.37c-0.9,4.17-1.73,8.1-3.59,14.23" style="fill:none;stroke:black;stroke-width:3;opacity:0">
  <animate attributeType="CSS" attributeName="opacity" from="0" to="1" begin="9s" dur="1s" repeatCount="Indefinite" fill="freeze" />
</path>
<path d="M42.01,78.52c4.47-0.52,15.74-1.45,23.11-2.08c1.29-0.11,2.46-0.22,3.46-0.31" style="fill:none;stroke:black;stroke-width:3;opacity:0">
  <animate attributeType="CSS" attributeName="opacity" from="0" to="1" begin="10s" dur="1s" repeatCount="Indefinite" fill="freeze" />
</path>
</svg>