<svg width="109px" height="109px" viewBox="0 0 px 109px" xmlns="http://www.w3.org/2000/svg" xmlns:xlink="http://www.w3.org/1999/xlink" xml:space="preserve" version="1.1"  baseProfile="full">
<path d="M11.75,34.76c0.34,0.5,0.69,0.92,0.83,1.55c1.17,4.98,2.58,18.73,3.38,27.69" style="fill:none;stroke:black;stroke-width:3;opacity:0">
  <animate attributeType="CSS" attributeName="opacity" from="0" to="1" begin="0s" dur="1s" repeatCount="Indefinite" fill="freeze" />
</path>
<path d="M13.86,36.16c7.89-1.91,14.14-2.51,18.11-3.16c1.45-0.24,2.32,1.42,2.11,2.83c-0.86,5.82-1.86,14.83-3.14,22.88" style="fill:none;stroke:black;stroke-width:3;opacity:0">
  <animate attributeType="CSS" attributeName="opacity" from="0" to="1" begin="1s" dur="1s" repeatCount="Indefinite" fill="freeze" />
</path>
<path d="M16.12,61.59c4.66-0.74,10.28-1.04,16.67-2.17" style="fill:none;stroke:black;stroke-width:3;opacity:0">
  <animate attributeType="CSS" attributeName="opacity" from="0" to="1" begin="2s" dur="1s" repeatCount="Indefinite" fill="freeze" />
</path>
<path d="M62.04,10.25c0.07,0.78,0.27,2.07-0.13,3.12c-3.32,8.66-13.19,22.41-23.54,29.88" style="fill:none;stroke:black;stroke-width:3;opacity:0">
  <animate attributeType="CSS" attributeName="opacity" from="0" to="1" begin="3s" dur="1s" repeatCount="Indefinite" fill="freeze" />
</path>
<path d="M62.21,13.7C67,17,86.69,33.65,91.3,36.77c1.7,1.15,3.88,1.64,5.58,1.96" style="fill:none;stroke:black;stroke-width:3;opacity:0">
  <animate attributeType="CSS" attributeName="opacity" from="0" to="1" begin="4s" dur="1s" repeatCount="Indefinite" fill="freeze" />
</path>
<path d="M55.5,32.5c1.5-0.25,2.48-0.5,4.02-0.5c2.48,0,9.72,0,11.73,0c1.25,0,2.5-0.25,3.75-0.5" style="fill:none;stroke:black;stroke-width:3;opacity:0">
  <animate attributeType="CSS" attributeName="opacity" from="0" to="1" begin="5s" dur="1s" repeatCount="Indefinite" fill="freeze" />
</path>
<path d="M51.19,41.91c2.2-0.1,24.41-2.54,26.42-2.66c1.67-0.1,2.74,1.16,2.61,1.78c-0.26,1.25-1.72,14.48-3.39,22.13" style="fill:none;stroke:black;stroke-width:3;opacity:0">
  <animate attributeType="CSS" attributeName="opacity" from="0" to="1" begin="6s" dur="1s" repeatCount="Indefinite" fill="freeze" />
</path>
<path d="M51.58,52.23c2.97,0,23.56-2.23,26.92-2.23" style="fill:none;stroke:black;stroke-width:3;opacity:0">
  <animate attributeType="CSS" attributeName="opacity" from="0" to="1" begin="7s" dur="1s" repeatCount="Indefinite" fill="freeze" />
</path>
<path d="M51.44,63.9c6.06-0.45,17.81-1.65,25.35-2.04" style="fill:none;stroke:black;stroke-width:3;opacity:0">
  <animate attributeType="CSS" attributeName="opacity" from="0" to="1" begin="8s" dur="1s" repeatCount="Indefinite" fill="freeze" />
</path>
<path d="M48.5,40c1.25,0.5,2,2.25,2.25,3.25S51.28,89.52,51,92c-0.25,2.25-2.25,6.5,0.75,4.75s12-8,14.5-10.25" style="fill:none;stroke:black;stroke-width:3;opacity:0">
  <animate attributeType="CSS" attributeName="opacity" from="0" to="1" begin="9s" dur="1s" repeatCount="Indefinite" fill="freeze" />
</path>
<path d="M85.14,63.5c0.31,1.16,0.32,2.13-0.39,3.05c-1.5,1.95-5.74,4.57-8.5,6.2" style="fill:none;stroke:black;stroke-width:3;opacity:0">
  <animate attributeType="CSS" attributeName="opacity" from="0" to="1" begin="10s" dur="1s" repeatCount="Indefinite" fill="freeze" />
</path>
<path d="M61,68c3.97,0,24,20.25,28.04,23.34c4.17,3.19,5.37,2.88,7.71,3.41" style="fill:none;stroke:black;stroke-width:3;opacity:0">
  <animate attributeType="CSS" attributeName="opacity" from="0" to="1" begin="11s" dur="1s" repeatCount="Indefinite" fill="freeze" />
</path>
</svg>