<svg width="109px" height="109px" viewBox="0 0 px 109px" xmlns="http://www.w3.org/2000/svg" xmlns:xlink="http://www.w3.org/1999/xlink" xml:space="preserve" version="1.1"  baseProfile="full">
<path d="M8.75,34.56C9.1,35,9.47,35.38,9.62,35.94c1.23,4.42,2.7,17.62,3.54,25.56" style="fill:none;stroke:black;stroke-width:3;opacity:0">
  <animate attributeType="CSS" attributeName="opacity" from="0" to="1" begin="0s" dur="1s" repeatCount="Indefinite" fill="freeze" />
</path>
<path d="M10.96,36.68c8.94-1.94,13.27-3.11,17.41-3.69c1.52-0.21,2.43,1.26,2.21,2.51c-0.9,5.17-2.45,12.15-3.78,19.3" style="fill:none;stroke:black;stroke-width:3;opacity:0">
  <animate attributeType="CSS" attributeName="opacity" from="0" to="1" begin="1s" dur="1s" repeatCount="Indefinite" fill="freeze" />
</path>
<path d="M12.82,57.86c4.87-0.66,9.75-1.42,16.43-2.43" style="fill:none;stroke:black;stroke-width:3;opacity:0">
  <animate attributeType="CSS" attributeName="opacity" from="0" to="1" begin="2s" dur="1s" repeatCount="Indefinite" fill="freeze" />
</path>
<path d="M34.04,31.23c1.14,0.16,3.07,0.44,3.62,0.36c4.96-0.69,21.35-2.25,27.45-2.84c0.9-0.09,2.25,0.17,2.7,0.34" style="fill:none;stroke:black;stroke-width:3;opacity:0">
  <animate attributeType="CSS" attributeName="opacity" from="0" to="1" begin="3s" dur="1s" repeatCount="Indefinite" fill="freeze" />
</path>
<path d="M40.12,16.59c0.82,0.49,1.31,2.21,1.47,3.19c0.16,0.98,0,46.42-0.17,52.55" style="fill:none;stroke:black;stroke-width:3;opacity:0">
  <animate attributeType="CSS" attributeName="opacity" from="0" to="1" begin="4s" dur="1s" repeatCount="Indefinite" fill="freeze" />
</path>
<path d="M58.25,13.5c0.78,0.49,1.25,2.22,1.4,3.21c0.15,0.99,0,47.54-0.16,53.7" style="fill:none;stroke:black;stroke-width:3;opacity:0">
  <animate attributeType="CSS" attributeName="opacity" from="0" to="1" begin="5s" dur="1s" repeatCount="Indefinite" fill="freeze" />
</path>
<path d="M41.79,44.55c2.29-0.24,15.25-1.43,17.4-1.68" style="fill:none;stroke:black;stroke-width:3;opacity:0">
  <animate attributeType="CSS" attributeName="opacity" from="0" to="1" begin="6s" dur="1s" repeatCount="Indefinite" fill="freeze" />
</path>
<path d="M41.64,57.2c2.58-0.24,14.39-1.19,17.4-1.68" style="fill:none;stroke:black;stroke-width:3;opacity:0">
  <animate attributeType="CSS" attributeName="opacity" from="0" to="1" begin="7s" dur="1s" repeatCount="Indefinite" fill="freeze" />
</path>
<path d="M30.13,73.49c1.21,0.06,2.42,0.08,3.28,0c6.58-0.57,22.99-2.02,32.43-2.79c1.42-0.12,2.28,0.2,2.99,0.41" style="fill:none;stroke:black;stroke-width:3;opacity:0">
  <animate attributeType="CSS" attributeName="opacity" from="0" to="1" begin="8s" dur="1s" repeatCount="Indefinite" fill="freeze" />
</path>
<path d="M43.3,78.02c0.04,0.4,0.08,1.05-0.08,1.63c-0.98,3.43-6.59,10.97-14.27,15.58" style="fill:none;stroke:black;stroke-width:3;opacity:0">
  <animate attributeType="CSS" attributeName="opacity" from="0" to="1" begin="9s" dur="1s" repeatCount="Indefinite" fill="freeze" />
</path>
<path d="M54.99,77.09c2.43,1.85,6.29,7.61,6.89,10.48" style="fill:none;stroke:black;stroke-width:3;opacity:0">
  <animate attributeType="CSS" attributeName="opacity" from="0" to="1" begin="10s" dur="1s" repeatCount="Indefinite" fill="freeze" />
</path>
<path d="M93.04,14.13c0.04,0.34,0.18,1-0.09,1.37c-3.65,5.01-8.32,8.8-16.01,13.11" style="fill:none;stroke:black;stroke-width:3;opacity:0">
  <animate attributeType="CSS" attributeName="opacity" from="0" to="1" begin="11s" dur="1s" repeatCount="Indefinite" fill="freeze" />
</path>
<path d="M74.15,27.74c0.95,1.77,0.96,3.46,0.93,5.39c-0.08,5.82-0.14,7.34-0.14,14.27c0,12.68-1.94,33.1-10.45,43.79" style="fill:none;stroke:black;stroke-width:3;opacity:0">
  <animate attributeType="CSS" attributeName="opacity" from="0" to="1" begin="12s" dur="1s" repeatCount="Indefinite" fill="freeze" />
</path>
<path d="M75.68,44.04c0.28,0.17,1.36,0.19,2.12,0.1c5.7-0.64,15.02-1.82,19.69-2.36c0.75-0.09,2.04-0.17,2.51,0" style="fill:none;stroke:black;stroke-width:3;opacity:0">
  <animate attributeType="CSS" attributeName="opacity" from="0" to="1" begin="13s" dur="1s" repeatCount="Indefinite" fill="freeze" />
</path>
<path d="M88.97,45.23c0.61,0.55,0.97,2.46,1.09,3.55c0.12,1.09,0,42.89-0.12,49.72" style="fill:none;stroke:black;stroke-width:3;opacity:0">
  <animate attributeType="CSS" attributeName="opacity" from="0" to="1" begin="14s" dur="1s" repeatCount="Indefinite" fill="freeze" />
</path>
</svg>