<svg width="109px" height="109px" viewBox="0 0 px 109px" xmlns="http://www.w3.org/2000/svg" xmlns:xlink="http://www.w3.org/1999/xlink" xml:space="preserve" version="1.1"  baseProfile="full">
<path d="M21.75,18.52c0.41,0.37,1.35,1.67,1.5,2.15c1.5,4.58,2.6,12.86,3.57,19.48" style="fill:none;stroke:black;stroke-width:3;opacity:0">
  <animate attributeType="CSS" attributeName="opacity" from="0" to="1" begin="0s" dur="1s" repeatCount="Indefinite" fill="freeze" />
</path>
<path d="M24.29,21.02c8.33-1.92,17.47-3.05,22.24-3.53c1.74-0.18,2.79,1.05,2.54,2.09c-1.03,4.31-1.24,8.51-2.78,14.46" style="fill:none;stroke:black;stroke-width:3;opacity:0">
  <animate attributeType="CSS" attributeName="opacity" from="0" to="1" begin="1s" dur="1s" repeatCount="Indefinite" fill="freeze" />
</path>
<path d="M27.01,36.91c5.6-0.55,13.33-1.49,21.02-2.34" style="fill:none;stroke:black;stroke-width:3;opacity:0">
  <animate attributeType="CSS" attributeName="opacity" from="0" to="1" begin="2s" dur="1s" repeatCount="Indefinite" fill="freeze" />
</path>
<path d="M58.25,16.97c0.42,0.36,0.85,0.66,1.04,1.12C60.75,21.67,62,31.56,63,38" style="fill:none;stroke:black;stroke-width:3;opacity:0">
  <animate attributeType="CSS" attributeName="opacity" from="0" to="1" begin="3s" dur="1s" repeatCount="Indefinite" fill="freeze" />
</path>
<path d="M59.88,18.9c9.62-1.4,18.12-2.44,23.06-2.91c1.8-0.17,2.89,1.02,2.63,2.03c-1.07,4.19-2.32,9.25-3.91,15.04" style="fill:none;stroke:black;stroke-width:3;opacity:0">
  <animate attributeType="CSS" attributeName="opacity" from="0" to="1" begin="4s" dur="1s" repeatCount="Indefinite" fill="freeze" />
</path>
<path d="M63.2,35.85C69,35.32,76,34.9,83.96,34.08" style="fill:none;stroke:black;stroke-width:3;opacity:0">
  <animate attributeType="CSS" attributeName="opacity" from="0" to="1" begin="5s" dur="1s" repeatCount="Indefinite" fill="freeze" />
</path>
<path d="M28.25,48.06c0.95,0.48,4.04,0.63,5,0.49c4.46-0.65,37.5-4.35,45-4.84c1.46-0.1,2.79,0.1,4,0.49" style="fill:none;stroke:black;stroke-width:3;opacity:0">
  <animate attributeType="CSS" attributeName="opacity" from="0" to="1" begin="6s" dur="1s" repeatCount="Indefinite" fill="freeze" />
</path>
<path d="M52.67,47.87c1.17,1.34,1.17,2.14,1.17,3.22c0,4.17-0.03,5.42-0.03,9.99" style="fill:none;stroke:black;stroke-width:3;opacity:0">
  <animate attributeType="CSS" attributeName="opacity" from="0" to="1" begin="7s" dur="1s" repeatCount="Indefinite" fill="freeze" />
</path>
<path d="M20.5,63.15c0.84,0.26,3.82,0.54,5.23,0.42c15.24-1.29,43-3.92,56.88-4.32c2.27-0.06,5,0.44,6.14,0.86" style="fill:none;stroke:black;stroke-width:3;opacity:0">
  <animate attributeType="CSS" attributeName="opacity" from="0" to="1" begin="8s" dur="1s" repeatCount="Indefinite" fill="freeze" />
</path>
<path d="M23.25,75.1c0.41,0.39,1.32,1.71,1.5,2.19c1.41,3.82,2.1,11.85,3.07,18.71" style="fill:none;stroke:black;stroke-width:3;opacity:0">
  <animate attributeType="CSS" attributeName="opacity" from="0" to="1" begin="9s" dur="1s" repeatCount="Indefinite" fill="freeze" />
</path>
<path d="M25.29,76.69c9.71-1.69,17.47-2.7,22.24-3.2c1.74-0.18,2.79,1.09,2.54,2.16c-1.03,4.46-1.74,8.85-3.28,15.02" style="fill:none;stroke:black;stroke-width:3;opacity:0">
  <animate attributeType="CSS" attributeName="opacity" from="0" to="1" begin="10s" dur="1s" repeatCount="Indefinite" fill="freeze" />
</path>
<path d="M28.01,93.65c5.6-0.57,12.83-1.55,20.52-2.42" style="fill:none;stroke:black;stroke-width:3;opacity:0">
  <animate attributeType="CSS" attributeName="opacity" from="0" to="1" begin="11s" dur="1s" repeatCount="Indefinite" fill="freeze" />
</path>
<path d="M60.25,72.14c0.42,0.39,0.85,0.72,1.04,1.21C62.75,77.25,63,86.5,64,93.5" style="fill:none;stroke:black;stroke-width:3;opacity:0">
  <animate attributeType="CSS" attributeName="opacity" from="0" to="1" begin="12s" dur="1s" repeatCount="Indefinite" fill="freeze" />
</path>
<path d="M61.88,73.78c8.87-1.28,19.62-3.28,24.56-3.79c1.8-0.19,2.89,1.11,2.63,2.21c-1.07,4.55-2.32,12.05-3.91,18.35" style="fill:none;stroke:black;stroke-width:3;opacity:0">
  <animate attributeType="CSS" attributeName="opacity" from="0" to="1" begin="13s" dur="1s" repeatCount="Indefinite" fill="freeze" />
</path>
<path d="M64.2,92.08C70,91.5,80,91,87.96,90.11" style="fill:none;stroke:black;stroke-width:3;opacity:0">
  <animate attributeType="CSS" attributeName="opacity" from="0" to="1" begin="14s" dur="1s" repeatCount="Indefinite" fill="freeze" />
</path>
</svg>