<svg width="109px" height="109px" viewBox="0 0 px 109px" xmlns="http://www.w3.org/2000/svg" xmlns:xlink="http://www.w3.org/1999/xlink" xml:space="preserve" version="1.1"  baseProfile="full">
<path d="M19.25,18.07c1.03,1.03,1.36,2.26,1.36,4.16c0,12.63-0.14,46.59-0.17,66.77c-0.01,3.24-0.01,6.12-0.01,8.5" style="fill:none;stroke:black;stroke-width:3;opacity:0">
  <animate attributeType="CSS" attributeName="opacity" from="0" to="1" begin="0s" dur="1s" repeatCount="Indefinite" fill="freeze" />
</path>
<path d="M21.73,20.15c19.4-1.52,49.52-3.9,63.27-4.65c2.75-0.15,4.5,0.88,4.5,4.5c0,11.21,0.08,50.57,0.1,68.62c0.01,4.05,0.01,7.02,0.01,8.38" style="fill:none;stroke:black;stroke-width:3;opacity:0">
  <animate attributeType="CSS" attributeName="opacity" from="0" to="1" begin="1s" dur="1s" repeatCount="Indefinite" fill="freeze" />
</path>
<path d="M54.08,26c0.55,1.5,0.9,3.7,0.61,5.61C52.96,42.92,46,71,29.83,82.68" style="fill:none;stroke:black;stroke-width:3;opacity:0">
  <animate attributeType="CSS" attributeName="opacity" from="0" to="1" begin="2s" dur="1s" repeatCount="Indefinite" fill="freeze" />
</path>
<path d="M52.36,47.24c5.02,6.63,13.14,17.01,19.81,24.72c2.19,2.54,3.96,4.29,6.75,6.29" style="fill:none;stroke:black;stroke-width:3;opacity:0">
  <animate attributeType="CSS" attributeName="opacity" from="0" to="1" begin="3s" dur="1s" repeatCount="Indefinite" fill="freeze" />
</path>
<path d="M21.5,93.51c16.25-0.51,48.71-2.6,66.75-3.01" style="fill:none;stroke:black;stroke-width:3;opacity:0">
  <animate attributeType="CSS" attributeName="opacity" from="0" to="1" begin="4s" dur="1s" repeatCount="Indefinite" fill="freeze" />
</path>
</svg>