<svg width="109px" height="109px" viewBox="0 0 px 109px" xmlns="http://www.w3.org/2000/svg" xmlns:xlink="http://www.w3.org/1999/xlink" xml:space="preserve" version="1.1"  baseProfile="full">
<path d="M18.75,15.82c0.75,1.43,1.84,2.51,1.86,4.41c0.14,14.27,0.14,48.02-0.31,75.27" style="fill:none;stroke:black;stroke-width:3;opacity:0">
  <animate attributeType="CSS" attributeName="opacity" from="0" to="1" begin="0s" dur="1s" repeatCount="0" fill="freeze" />
</path>
<path d="M22.23,18.15C40.25,16.5,74.18,15,86.25,15c2.75,0,3.6,2.1,3.5,5.5c-0.5,16.75-1,50.25-0.5,72.5" style="fill:none;stroke:black;stroke-width:3;opacity:0">
  <animate attributeType="CSS" attributeName="opacity" from="0" to="1" begin="1s" dur="1s" repeatCount="0" fill="freeze" />
</path>
<path d="M35.49,34.3c0.77,0.35,3.27,0.46,4.04,0.35c3.6-0.47,16.97-2.64,31.92-3.87c1.18-0.1,2.26,0.07,3.24,0.36" style="fill:none;stroke:black;stroke-width:3;opacity:0">
  <animate attributeType="CSS" attributeName="opacity" from="0" to="1" begin="2s" dur="1s" repeatCount="0" fill="freeze" />
</path>
<path d="M37.83,52.18c0.71,0.33,3.08,0.51,3.8,0.43c4.18-0.43,14.16-2.46,27.77-3.21c0.89-0.05,2.85-0.13,4.18,0.15" style="fill:none;stroke:black;stroke-width:3;opacity:0">
  <animate attributeType="CSS" attributeName="opacity" from="0" to="1" begin="3s" dur="1s" repeatCount="0" fill="freeze" />
</path>
<path d="M30.83,75.39c0.57,0.19,2.77,0.25,3.73,0.16C42.5,74.75,66,72,74.97,71.5c1.55-0.09,3.42,0.32,4.2,0.63" style="fill:none;stroke:black;stroke-width:3;opacity:0">
  <animate attributeType="CSS" attributeName="opacity" from="0" to="1" begin="4s" dur="1s" repeatCount="0" fill="freeze" />
</path>
<path d="M53.12,33.39c0.63,0.76,0.63,2.47,0.63,3.08c0,4.26,0.31,31.48,0.16,35.74" style="fill:none;stroke:black;stroke-width:3;opacity:0">
  <animate attributeType="CSS" attributeName="opacity" from="0" to="1" begin="5s" dur="1s" repeatCount="0" fill="freeze" />
</path>
<path d="M69.5,57.5c3.02,1.66,5.6,5.18,6.25,7.25" style="fill:none;stroke:black;stroke-width:3;opacity:0">
  <animate attributeType="CSS" attributeName="opacity" from="0" to="1" begin="6s" dur="1s" repeatCount="0" fill="freeze" />
</path>
<path d="M21.25,92.51c13.07,0,49.96-2.1,68-2.51" style="fill:none;stroke:black;stroke-width:3;opacity:0">
  <animate attributeType="CSS" attributeName="opacity" from="0" to="1" begin="7s" dur="1s" repeatCount="0" fill="freeze" />
</path>
</svg>