<svg width="109px" height="109px" viewBox="0 0 px 109px" xmlns="http://www.w3.org/2000/svg" xmlns:xlink="http://www.w3.org/1999/xlink" xml:space="preserve" version="1.1"  baseProfile="full">
<path d="M19.25,18.32c0.75,1.43,1.34,2.51,1.36,4.41C20.75,37,20.75,69.75,20.3,97" style="fill:none;stroke:black;stroke-width:3;opacity:0">
  <animate attributeType="CSS" attributeName="opacity" from="0" to="1" begin="0s" dur="1s" repeatCount="Indefinite" fill="freeze" />
</path>
<path d="M20.23,21.15C38.25,19.5,73.68,17,85.75,17c2.75,0,3.55,2.49,3.5,5.5c-0.25,15.75-1,49.75-0.5,72" style="fill:none;stroke:black;stroke-width:3;opacity:0">
  <animate attributeType="CSS" attributeName="opacity" from="0" to="1" begin="1s" dur="1s" repeatCount="Indefinite" fill="freeze" />
</path>
<path d="M35.54,29.86c0.98,0.13,2.78,0.13,3.74,0.08C47,29.5,64,27,71.52,26.78c1.63-0.05,2.61,0.02,3.42,0.08" style="fill:none;stroke:black;stroke-width:3;opacity:0">
  <animate attributeType="CSS" attributeName="opacity" from="0" to="1" begin="2s" dur="1s" repeatCount="Indefinite" fill="freeze" />
</path>
<path d="M51,30.4c0.75,1.1,0.73,2.22,0.62,2.61c-1,3.7-5.81,18.44-6.89,20.87" style="fill:none;stroke:black;stroke-width:3;opacity:0">
  <animate attributeType="CSS" attributeName="opacity" from="0" to="1" begin="3s" dur="1s" repeatCount="Indefinite" fill="freeze" />
</path>
<path d="M34.93,41.62c0.79,0.29,2.89,0.4,3.53,0.33c7.05-0.7,20.8-2.17,27.31-2.71c1.5-0.12,3.21,0.9,3.21,2.13c0,2.12-1.27,7-2.48,11.65" style="fill:none;stroke:black;stroke-width:3;opacity:0">
  <animate attributeType="CSS" attributeName="opacity" from="0" to="1" begin="4s" dur="1s" repeatCount="Indefinite" fill="freeze" />
</path>
<path d="M28.33,55.69c0.98,0.19,3.42,0.2,4.39,0.06c3.96-0.59,26.33-2.24,45.19-3.5c1.63-0.11,3.25-0.01,4.06,0.07" style="fill:none;stroke:black;stroke-width:3;opacity:0">
  <animate attributeType="CSS" attributeName="opacity" from="0" to="1" begin="5s" dur="1s" repeatCount="Indefinite" fill="freeze" />
</path>
<path d="M37.5,63.41c0.3,0.32,0.61,0.59,0.74,1c1.04,3.21,2.79,13.07,3.51,18.84" style="fill:none;stroke:black;stroke-width:3;opacity:0">
  <animate attributeType="CSS" attributeName="opacity" from="0" to="1" begin="6s" dur="1s" repeatCount="Indefinite" fill="freeze" />
</path>
<path d="M39.36,65.52C49.57,63.9,63,63.1,68.84,62.69c2.14-0.15,3.42,0.89,3.11,1.77c-1.27,3.64-2.75,9.54-4.63,14.58" style="fill:none;stroke:black;stroke-width:3;opacity:0">
  <animate attributeType="CSS" attributeName="opacity" from="0" to="1" begin="7s" dur="1s" repeatCount="Indefinite" fill="freeze" />
</path>
<path d="M41.7,80.97c6.87-0.46,17.8-1.4,27.76-1.75" style="fill:none;stroke:black;stroke-width:3;opacity:0">
  <animate attributeType="CSS" attributeName="opacity" from="0" to="1" begin="8s" dur="1s" repeatCount="Indefinite" fill="freeze" />
</path>
<path d="M20.75,94.01c13.07,0,49.46-1.6,67.5-2.01" style="fill:none;stroke:black;stroke-width:3;opacity:0">
  <animate attributeType="CSS" attributeName="opacity" from="0" to="1" begin="9s" dur="1s" repeatCount="Indefinite" fill="freeze" />
</path>
</svg>