<svg width="109px" height="109px" viewBox="0 0 px 109px" xmlns="http://www.w3.org/2000/svg" xmlns:xlink="http://www.w3.org/1999/xlink" xml:space="preserve" version="1.1"  baseProfile="full">
<path d="M66.27,13.5c0.08,0.31,0.33,0.9-0.17,1.26c-6.17,4.42-15.28,8.47-31.35,12.04" style="fill:none;stroke:black;stroke-width:3;opacity:0">
  <animate attributeType="CSS" attributeName="opacity" from="0" to="1" begin="0s" dur="1s" repeatCount="Indefinite" fill="freeze" />
</path>
<path d="M25.25,39.15c1.1,0.45,3.11,0.57,4.21,0.45c7-0.77,44.04-5.1,51.94-5.04c1.83,0.01,2.93,0.21,3.85,0.44" style="fill:none;stroke:black;stroke-width:3;opacity:0">
  <animate attributeType="CSS" attributeName="opacity" from="0" to="1" begin="1s" dur="1s" repeatCount="Indefinite" fill="freeze" />
</path>
<path d="M18,58.27c1.29,0.53,2.8,0.63,4.1,0.53C34,57.83,69.75,53,83.72,52.26c2.16-0.11,3.45,0.25,4.53,0.51" style="fill:none;stroke:black;stroke-width:3;opacity:0">
  <animate attributeType="CSS" attributeName="opacity" from="0" to="1" begin="2s" dur="1s" repeatCount="Indefinite" fill="freeze" />
</path>
<path d="M32.25,47.25c1.47,1.48,1.94,1.93,2.1,2.84c1.47,8.52,2.73,17.31,3.15,20.41" style="fill:none;stroke:black;stroke-width:3;opacity:0">
  <animate attributeType="CSS" attributeName="opacity" from="0" to="1" begin="3s" dur="1s" repeatCount="Indefinite" fill="freeze" />
</path>
<path d="M75.76,43.25c0.26,1.15,0.6,2.01,0.31,3.43C74.37,55,73.6,59.17,71.75,67" style="fill:none;stroke:black;stroke-width:3;opacity:0">
  <animate attributeType="CSS" attributeName="opacity" from="0" to="1" begin="4s" dur="1s" repeatCount="Indefinite" fill="freeze" />
</path>
<path d="M29.25,76.15c1.1,0.45,3.11,0.57,4.21,0.45c7-0.77,39.04-4.1,46.94-4.04c1.83,0.01,2.93,0.21,3.85,0.44" style="fill:none;stroke:black;stroke-width:3;opacity:0">
  <animate attributeType="CSS" attributeName="opacity" from="0" to="1" begin="5s" dur="1s" repeatCount="Indefinite" fill="freeze" />
</path>
<path d="M23.25,95.15c1.1,0.45,3.11,0.57,4.21,0.45c7-0.77,50.29-4.6,59.44-5.04c1.83-0.09,2.93,0.21,3.85,0.44" style="fill:none;stroke:black;stroke-width:3;opacity:0">
  <animate attributeType="CSS" attributeName="opacity" from="0" to="1" begin="6s" dur="1s" repeatCount="Indefinite" fill="freeze" />
</path>
<path d="M52.25,26.25c1.25,0.5,2,2.25,2.25,3.25s0.25,53,0.25,63" style="fill:none;stroke:black;stroke-width:3;opacity:0">
  <animate attributeType="CSS" attributeName="opacity" from="0" to="1" begin="7s" dur="1s" repeatCount="Indefinite" fill="freeze" />
</path>
</svg>