<svg width="109px" height="109px" viewBox="0 0 px 109px" xmlns="http://www.w3.org/2000/svg" xmlns:xlink="http://www.w3.org/1999/xlink" xml:space="preserve" version="1.1"  baseProfile="full">
<path d="M10,41.14c0.76,0.38,2.24,0.44,3,0.36c4.75-0.5,17.15-2.89,22.5-3.5c1.25-0.14,2.62-0.18,3.25,0.01" style="fill:none;stroke:black;stroke-width:3;opacity:0">
  <animate attributeType="CSS" attributeName="opacity" from="0" to="1" begin="0s" dur="1s" repeatCount="Indefinite" fill="freeze" />
</path>
<path d="M23.37,14c1.09,0.5,1.96,2.23,1.96,3.25c0,7.25,0.03,40.25,0.03,51" style="fill:none;stroke:black;stroke-width:3;opacity:0">
  <animate attributeType="CSS" attributeName="opacity" from="0" to="1" begin="1s" dur="1s" repeatCount="Indefinite" fill="freeze" />
</path>
<path d="M10,75.29c0.75,0.96,2.25,1.46,4.5,0.21C20.75,72,32,65.75,38.25,62.25" style="fill:none;stroke:black;stroke-width:3;opacity:0">
  <animate attributeType="CSS" attributeName="opacity" from="0" to="1" begin="2s" dur="1s" repeatCount="Indefinite" fill="freeze" />
</path>
<path d="M66.64,10.5c0.49,0.47,1.3,2.26,1.3,3.19c0,3.41-0.06,7.31-0.06,10.57" style="fill:none;stroke:black;stroke-width:3;opacity:0">
  <animate attributeType="CSS" attributeName="opacity" from="0" to="1" begin="3s" dur="1s" repeatCount="Indefinite" fill="freeze" />
</path>
<path d="M45.46,26.22c0.88,0.07,2.91,0.46,3.77,0.36c6.95-0.76,31.66-3.89,40.49-4.09c1.46-0.03,2.2,0.03,3.29,0.46" style="fill:none;stroke:black;stroke-width:3;opacity:0">
  <animate attributeType="CSS" attributeName="opacity" from="0" to="1" begin="4s" dur="1s" repeatCount="Indefinite" fill="freeze" />
</path>
<path d="M56.61,31.99c0,0.55,0.03,0.99-0.09,1.65c-0.66,3.44-6.91,14.9-12.25,19.99" style="fill:none;stroke:black;stroke-width:3;opacity:0">
  <animate attributeType="CSS" attributeName="opacity" from="0" to="1" begin="5s" dur="1s" repeatCount="Indefinite" fill="freeze" />
</path>
<path d="M55.3,40.71c3.34,1.34,7.6,4.91,9.23,8.29" style="fill:none;stroke:black;stroke-width:3;opacity:0">
  <animate attributeType="CSS" attributeName="opacity" from="0" to="1" begin="6s" dur="1s" repeatCount="Indefinite" fill="freeze" />
</path>
<path d="M81.35,29.49c0,0.5,0.03,0.9-0.09,1.5c-0.62,3.12-6.51,13.52-11.55,18.14" style="fill:none;stroke:black;stroke-width:3;opacity:0">
  <animate attributeType="CSS" attributeName="opacity" from="0" to="1" begin="7s" dur="1s" repeatCount="Indefinite" fill="freeze" />
</path>
<path d="M79.11,38.21c4.26,1.79,9.71,6.53,11.79,11.04" style="fill:none;stroke:black;stroke-width:3;opacity:0">
  <animate attributeType="CSS" attributeName="opacity" from="0" to="1" begin="8s" dur="1s" repeatCount="Indefinite" fill="freeze" />
</path>
<path d="M41.5,69.64c1.17,0.48,3.32,0.6,4.49,0.48c14.89-1.57,36.89-4.5,47.16-4.69c1.95-0.04,3.12,0.23,4.1,0.47" style="fill:none;stroke:black;stroke-width:3;opacity:0">
  <animate attributeType="CSS" attributeName="opacity" from="0" to="1" begin="9s" dur="1s" repeatCount="Indefinite" fill="freeze" />
</path>
<path d="M67.14,56.5c0.67,0.56,1.21,1.5,1.21,3.8c0,1.13-0.09,31.21-0.22,38.2" style="fill:none;stroke:black;stroke-width:3;opacity:0">
  <animate attributeType="CSS" attributeName="opacity" from="0" to="1" begin="10s" dur="1s" repeatCount="Indefinite" fill="freeze" />
</path>
</svg>