<svg width="109px" height="109px" viewBox="0 0 px 109px" xmlns="http://www.w3.org/2000/svg" xmlns:xlink="http://www.w3.org/1999/xlink" xml:space="preserve" version="1.1"  baseProfile="full">
<path d="M11,43.14c0.76,0.38,2.24,0.46,3,0.36c4.82-0.66,17.15-2.89,22.5-3.5c1.25-0.14,2.62-0.18,3.25,0.01" style="fill:none;stroke:black;stroke-width:3;opacity:0">
  <animate attributeType="CSS" attributeName="opacity" from="0" to="1" begin="0s" dur="1s" repeatCount="0" fill="freeze" />
</path>
<path d="M24.87,15c1.09,0.5,1.96,2.23,1.96,3.25c0,7.25,0.03,41.25,0.03,52" style="fill:none;stroke:black;stroke-width:3;opacity:0">
  <animate attributeType="CSS" attributeName="opacity" from="0" to="1" begin="1s" dur="1s" repeatCount="0" fill="freeze" />
</path>
<path d="M12.25,77.29c0.75,0.96,2.38,1.67,4.5,0.21c7.25-5,13.75-8.5,21-13.25" style="fill:none;stroke:black;stroke-width:3;opacity:0">
  <animate attributeType="CSS" attributeName="opacity" from="0" to="1" begin="2s" dur="1s" repeatCount="0" fill="freeze" />
</path>
<path d="M66.73,9.64c0.02,0.26,0.04,0.66-0.04,1.03c-0.47,2.18-3.42,7.35-7.14,10.28" style="fill:none;stroke:black;stroke-width:3;opacity:0">
  <animate attributeType="CSS" attributeName="opacity" from="0" to="1" begin="3s" dur="1s" repeatCount="0" fill="freeze" />
</path>
<path d="M50.39,21.15c0.78,0.52,1.25,2.33,1.4,3.37c0.15,1.04,0,30.35-0.16,36.83" style="fill:none;stroke:black;stroke-width:3;opacity:0">
  <animate attributeType="CSS" attributeName="opacity" from="0" to="1" begin="4s" dur="1s" repeatCount="0" fill="freeze" />
</path>
<path d="M52.79,23.57c5.96-0.82,27.67-2.84,30.38-3.24c0.99-0.15,1.58,1.49,1.44,2.37c-0.59,3.61-1.25,6.2-2.51,11.41" style="fill:none;stroke:black;stroke-width:3;opacity:0">
  <animate attributeType="CSS" attributeName="opacity" from="0" to="1" begin="5s" dur="1s" repeatCount="0" fill="freeze" />
</path>
<path d="M52.19,36.48c9.56-0.98,25.81-2.23,31.97-2.44" style="fill:none;stroke:black;stroke-width:3;opacity:0">
  <animate attributeType="CSS" attributeName="opacity" from="0" to="1" begin="6s" dur="1s" repeatCount="0" fill="freeze" />
</path>
<path d="M52.13,46.08c8.37-0.83,28.2-2.3,31.26-2.78c1.12-0.17,1.79,1.77,1.63,2.8c-0.66,4.26-1.74,7.63-2.84,11.5" style="fill:none;stroke:black;stroke-width:3;opacity:0">
  <animate attributeType="CSS" attributeName="opacity" from="0" to="1" begin="7s" dur="1s" repeatCount="0" fill="freeze" />
</path>
<path d="M52.09,59.96c6.16-0.46,24.66-1.46,32.29-1.83" style="fill:none;stroke:black;stroke-width:3;opacity:0">
  <animate attributeType="CSS" attributeName="opacity" from="0" to="1" begin="8s" dur="1s" repeatCount="0" fill="freeze" />
</path>
<path d="M35.75,75.42c1.14,0.39,3.23,0.49,4.36,0.39c14.46-1.28,42.93-3.26,52.91-3.42c1.9-0.03,3.03,0.19,3.98,0.38" style="fill:none;stroke:black;stroke-width:3;opacity:0">
  <animate attributeType="CSS" attributeName="opacity" from="0" to="1" begin="9s" dur="1s" repeatCount="0" fill="freeze" />
</path>
<path d="M65.11,61.12c0.54,0.62,1.69,3.18,1.8,4.43c0.11,1.25-0.07,26.52-0.18,34.33" style="fill:none;stroke:black;stroke-width:3;opacity:0">
  <animate attributeType="CSS" attributeName="opacity" from="0" to="1" begin="10s" dur="1s" repeatCount="0" fill="freeze" />
</path>
</svg>