<svg width="109px" height="109px" viewBox="0 0 px 109px" xmlns="http://www.w3.org/2000/svg" xmlns:xlink="http://www.w3.org/1999/xlink" xml:space="preserve" version="1.1"  baseProfile="full">
<path d="M35.73,11.73c0.29,1.63-0.29,3.7-1.02,5.16C30.18,25.99,23.25,35.5,11.5,46.21" style="fill:none;stroke:black;stroke-width:3;opacity:0">
  <animate attributeType="CSS" attributeName="opacity" from="0" to="1" begin="0s" dur="1s" repeatCount="0" fill="freeze" />
</path>
<path d="M27.31,34.88c0.56,0.44,0.72,1.42,0.72,2.33c0,10.29-0.01,26.04-0.01,31.25" style="fill:none;stroke:black;stroke-width:3;opacity:0">
  <animate attributeType="CSS" attributeName="opacity" from="0" to="1" begin="1s" dur="1s" repeatCount="0" fill="freeze" />
</path>
<path d="M45.57,14c0.36,0.29,0.73,0.52,0.88,0.88c1.24,2.83,3.13,10.15,3.98,15.23" style="fill:none;stroke:black;stroke-width:3;opacity:0">
  <animate attributeType="CSS" attributeName="opacity" from="0" to="1" begin="2s" dur="1s" repeatCount="0" fill="freeze" />
</path>
<path d="M46.72,15.3c9.48-0.86,26.5-2.68,30.69-3.05c1.53-0.14,2.45,0.81,2.23,1.6c-0.91,3.3-2.43,6.91-3.78,11.47" style="fill:none;stroke:black;stroke-width:3;opacity:0">
  <animate attributeType="CSS" attributeName="opacity" from="0" to="1" begin="3s" dur="1s" repeatCount="0" fill="freeze" />
</path>
<path d="M50.1,27.85c4.93-0.42,21.45-1.48,28.21-2.12" style="fill:none;stroke:black;stroke-width:3;opacity:0">
  <animate attributeType="CSS" attributeName="opacity" from="0" to="1" begin="4s" dur="1s" repeatCount="0" fill="freeze" />
</path>
<path d="M37.39,39.29c1.47,0,3.68,0.36,5.63,0.23c8.88-0.6,32.76-2.98,46.23-4.14c1.95-0.17,2.45-0.23,3.67,0" style="fill:none;stroke:black;stroke-width:3;opacity:0">
  <animate attributeType="CSS" attributeName="opacity" from="0" to="1" begin="5s" dur="1s" repeatCount="0" fill="freeze" />
</path>
<path d="M62.62,29.12c0.93,0.47,1.68,3.06,1.68,4.04c0,6.65,0,28.15-0.19,34.09" style="fill:none;stroke:black;stroke-width:3;opacity:0">
  <animate attributeType="CSS" attributeName="opacity" from="0" to="1" begin="6s" dur="1s" repeatCount="0" fill="freeze" />
</path>
<path d="M62.17,38.67c-4.84,7.45-14.92,18.08-27,22.22" style="fill:none;stroke:black;stroke-width:3;opacity:0">
  <animate attributeType="CSS" attributeName="opacity" from="0" to="1" begin="7s" dur="1s" repeatCount="0" fill="freeze" />
</path>
<path d="M64.33,38.03c3.81,3.57,22.13,17.54,26.6,20.55c1.51,1.02,2.81,1.46,4.32,1.75" style="fill:none;stroke:black;stroke-width:3;opacity:0">
  <animate attributeType="CSS" attributeName="opacity" from="0" to="1" begin="8s" dur="1s" repeatCount="0" fill="freeze" />
</path>
<path d="M27.5,79.44c1.18,0.46,3.35,0.58,4.54,0.46c15.22-1.57,31.32-2.9,46.63-3.3c1.97-0.05,3.16,0.22,4.14,0.45" style="fill:none;stroke:black;stroke-width:3;opacity:0">
  <animate attributeType="CSS" attributeName="opacity" from="0" to="1" begin="9s" dur="1s" repeatCount="0" fill="freeze" />
</path>
<path d="M53.25,64.5c0.13,0.31,1.88,1.62,1.88,3.59c0,4.16-0.38,20.91-0.38,26.41" style="fill:none;stroke:black;stroke-width:3;opacity:0">
  <animate attributeType="CSS" attributeName="opacity" from="0" to="1" begin="10s" dur="1s" repeatCount="0" fill="freeze" />
</path>
<path d="M14.67,95.78c1.84,0.85,5.22,0.96,7.07,0.85c22.75-1.38,44.75-2.38,66.87-3.11c3.07-0.1,4.92,0.4,6.46,0.83" style="fill:none;stroke:black;stroke-width:3;opacity:0">
  <animate attributeType="CSS" attributeName="opacity" from="0" to="1" begin="11s" dur="1s" repeatCount="0" fill="freeze" />
</path>
</svg>