<svg width="109px" height="109px" viewBox="0 0 px 109px" xmlns="http://www.w3.org/2000/svg" xmlns:xlink="http://www.w3.org/1999/xlink" xml:space="preserve" version="1.1"  baseProfile="full">
<path d="M34.12,16.25c1.19,1.19,1.46,3,1.46,4.5c0,0.65,0.04,45.06,0.04,65c0,5.58,0,9.25-0.01,9.5" style="fill:none;stroke:black;stroke-width:3;opacity:0">
  <animate attributeType="CSS" attributeName="opacity" from="0" to="1" begin="0s" dur="1s" repeatCount="0" fill="freeze" />
</path>
<path d="M13.88,30.25c4.02,2.43,10.37,9.98,11.38,13.75" style="fill:none;stroke:black;stroke-width:3;opacity:0">
  <animate attributeType="CSS" attributeName="opacity" from="0" to="1" begin="1s" dur="1s" repeatCount="0" fill="freeze" />
</path>
<path d="M12.5,76.3c1.88,0.95,3.08,0.2,4.34-0.76c3.66-2.8,7.33-6.22,10.66-9.78" style="fill:none;stroke:black;stroke-width:3;opacity:0">
  <animate attributeType="CSS" attributeName="opacity" from="0" to="1" begin="2s" dur="1s" repeatCount="0" fill="freeze" />
</path>
<path d="M44.63,46.23c2.12,0.65,5.24,0.48,7.25,0.18c11.12-1.65,26.75-3.78,38.5-4.62c1.96-0.14,4.25-0.15,6.25,0.29" style="fill:none;stroke:black;stroke-width:3;opacity:0">
  <animate attributeType="CSS" attributeName="opacity" from="0" to="1" begin="3s" dur="1s" repeatCount="0" fill="freeze" />
</path>
<path d="M69,17.25c1.19,1.19,1.75,2.75,1.75,4.75c0,1.03,0,45.25,0,60.5" style="fill:none;stroke:black;stroke-width:3;opacity:0">
  <animate attributeType="CSS" attributeName="opacity" from="0" to="1" begin="4s" dur="1s" repeatCount="0" fill="freeze" />
</path>
<path d="M47.5,83.75c2.88,0.75,4.73,0.7,7.25,0.46c10.56-1,22.05-2.24,33.26-2.41c2.12-0.03,4.53,0.11,6.61,0.59" style="fill:none;stroke:black;stroke-width:3;opacity:0">
  <animate attributeType="CSS" attributeName="opacity" from="0" to="1" begin="5s" dur="1s" repeatCount="0" fill="freeze" />
</path>
</svg>