<svg width="109px" height="109px" viewBox="0 0 px 109px" xmlns="http://www.w3.org/2000/svg" xmlns:xlink="http://www.w3.org/1999/xlink" xml:space="preserve" version="1.1"  baseProfile="full">
<path d="M19.75,17.56c2.06,0.37,5.85,0.54,7.9,0.37c16.1-1.31,35.23-3.18,51.51-3.76c3.43-0.12,5.5,0.18,7.21,0.36" style="fill:none;stroke:black;stroke-width:3;opacity:0">
  <animate attributeType="CSS" attributeName="opacity" from="0" to="1" begin="0s" dur="1s" repeatCount="0" fill="freeze" />
</path>
<path d="M51.24,18.88c0.26,1,0.13,2-0.12,2.58C50,24.04,49,25.66,46.25,28" style="fill:none;stroke:black;stroke-width:3;opacity:0">
  <animate attributeType="CSS" attributeName="opacity" from="0" to="1" begin="1s" dur="1s" repeatCount="0" fill="freeze" />
</path>
<path d="M35.25,29.57c0.96,0.96,1.46,1.8,1.46,2.98c0,0.6-0.1,13.36-0.09,21.19c0,3.31,0.03,5.75,0.09,6" style="fill:none;stroke:black;stroke-width:3;opacity:0">
  <animate attributeType="CSS" attributeName="opacity" from="0" to="1" begin="2s" dur="1s" repeatCount="0" fill="freeze" />
</path>
<path d="M37.77,31.62c7.99-1.02,29.58-3.88,31.4-3.95c2.55-0.11,4.33,0.83,4.34,3.39c0,0.9,0.01,12.2,0.01,21.69c0,1.49,0,2.95,0,4.32" style="fill:none;stroke:black;stroke-width:3;opacity:0">
  <animate attributeType="CSS" attributeName="opacity" from="0" to="1" begin="3s" dur="1s" repeatCount="0" fill="freeze" />
</path>
<path d="M37.89,39.64c7.86-0.76,28.11-2.76,34.79-3.17" style="fill:none;stroke:black;stroke-width:3;opacity:0">
  <animate attributeType="CSS" attributeName="opacity" from="0" to="1" begin="4s" dur="1s" repeatCount="0" fill="freeze" />
</path>
<path d="M37.91,47.78c10.21-1.03,25.21-2.41,34.37-3.1" style="fill:none;stroke:black;stroke-width:3;opacity:0">
  <animate attributeType="CSS" attributeName="opacity" from="0" to="1" begin="5s" dur="1s" repeatCount="0" fill="freeze" />
</path>
<path d="M38.23,57.09c9.27-0.84,25.52-2.59,33.82-3.02" style="fill:none;stroke:black;stroke-width:3;opacity:0">
  <animate attributeType="CSS" attributeName="opacity" from="0" to="1" begin="6s" dur="1s" repeatCount="0" fill="freeze" />
</path>
<path d="M47.01,59.25c0.24,1.5-0.01,2.75-1,4.14c-3.62,5.1-12.51,15.11-24.34,20.55" style="fill:none;stroke:black;stroke-width:3;opacity:0">
  <animate attributeType="CSS" attributeName="opacity" from="0" to="1" begin="7s" dur="1s" repeatCount="0" fill="freeze" />
</path>
<path d="M48.22,66.14c1.28,0.24,2.26,0.12,3.37-0.08c4.42-0.81,6.75-1.76,12.31-2.58c3.81-0.57,3.9,1.65,2.92,3.18C61.47,75.07,40.75,92.5,17.25,98.5" style="fill:none;stroke:black;stroke-width:3;opacity:0">
  <animate attributeType="CSS" attributeName="opacity" from="0" to="1" begin="8s" dur="1s" repeatCount="0" fill="freeze" />
</path>
<path d="M40.75,73.72c5.25-0.22,31,16.91,41.72,20.99c2.58,0.98,4.57,1.66,7.03,1.99" style="fill:none;stroke:black;stroke-width:3;opacity:0">
  <animate attributeType="CSS" attributeName="opacity" from="0" to="1" begin="9s" dur="1s" repeatCount="0" fill="freeze" />
</path>
</svg>