<svg width="109px" height="109px" viewBox="0 0 px 109px" xmlns="http://www.w3.org/2000/svg" xmlns:xlink="http://www.w3.org/1999/xlink" xml:space="preserve" version="1.1"  baseProfile="full">
<path d="M35.44,15.75c0.53,1.77,0.62,3.56,0.13,5.33C33.25,29.5,26.75,44.75,16.5,55" style="fill:none;stroke:black;stroke-width:3;opacity:0">
  <animate attributeType="CSS" attributeName="opacity" from="0" to="1" begin="0s" dur="1s" repeatCount="0" fill="freeze" />
</path>
<path d="M36.72,28.81c1.47,0.25,3.12,0.16,4.56-0.14c3.52-0.72,5.83-1.04,9.45-2.2c3.61-1.17,4.39,1.7,3.77,3.54c-5.46,16.06-22.18,50.32-39.75,58.5" style="fill:none;stroke:black;stroke-width:3;opacity:0">
  <animate attributeType="CSS" attributeName="opacity" from="0" to="1" begin="1s" dur="1s" repeatCount="0" fill="freeze" />
</path>
<path d="M27.5,47c3.71,1.68,9.57,6.89,10.5,9.5" style="fill:none;stroke:black;stroke-width:3;opacity:0">
  <animate attributeType="CSS" attributeName="opacity" from="0" to="1" begin="2s" dur="1s" repeatCount="0" fill="freeze" />
</path>
<path d="M65.56,12.13c1.09,1.09,1.76,2.87,1.76,5.25c0,0.78-0.07,54.62-0.19,73.62c-0.02,3.16-0.04,5.33-0.06,6.13" style="fill:none;stroke:black;stroke-width:3;opacity:0">
  <animate attributeType="CSS" attributeName="opacity" from="0" to="1" begin="3s" dur="1s" repeatCount="0" fill="freeze" />
</path>
<path d="M71.5,42.5c7.85,3.75,20.29,15.42,22.25,21.25" style="fill:none;stroke:black;stroke-width:3;opacity:0">
  <animate attributeType="CSS" attributeName="opacity" from="0" to="1" begin="4s" dur="1s" repeatCount="0" fill="freeze" />
</path>
</svg>