<svg width="109px" height="109px" viewBox="0 0 px 109px" xmlns="http://www.w3.org/2000/svg" xmlns:xlink="http://www.w3.org/1999/xlink" xml:space="preserve" version="1.1"  baseProfile="full">
<path d="M52.27,10.5c1.24,1.24,1.92,2.75,1.92,4.26c0,4.29-0.12,5.13-0.12,8.81" style="fill:none;stroke:black;stroke-width:3;opacity:0">
  <animate attributeType="CSS" attributeName="opacity" from="0" to="1" begin="0s" dur="1s" repeatCount="Indefinite" fill="freeze" />
</path>
<path d="M20,27.47c2.58,0.33,5.52,0.3,9.16-0.04c17.5-1.67,34.28-3.92,51.31-4.98c3.54-0.22,5.63-0.21,8.28,0.33" style="fill:none;stroke:black;stroke-width:3;opacity:0">
  <animate attributeType="CSS" attributeName="opacity" from="0" to="1" begin="1s" dur="1s" repeatCount="Indefinite" fill="freeze" />
</path>
<path d="M34.26,36c0.31,2-0.06,3.89-0.76,5.34c-4.44,9.2-10.07,17.85-20.25,29.05" style="fill:none;stroke:black;stroke-width:3;opacity:0">
  <animate attributeType="CSS" attributeName="opacity" from="0" to="1" begin="2s" dur="1s" repeatCount="Indefinite" fill="freeze" />
</path>
<path d="M27.73,55.9c0.77,1.1,1.26,2.51,1.26,3.84c0,8.77,0.17,23.89,0.04,32.77C29,94.78,28.97,96.68,28.97,98" style="fill:none;stroke:black;stroke-width:3;opacity:0">
  <animate attributeType="CSS" attributeName="opacity" from="0" to="1" begin="3s" dur="1s" repeatCount="Indefinite" fill="freeze" />
</path>
<path d="M60.5,32c0.13,1.12,0.18,2.04-0.15,2.89C57.86,41.41,52.87,50.32,45,57" style="fill:none;stroke:black;stroke-width:3;opacity:0">
  <animate attributeType="CSS" attributeName="opacity" from="0" to="1" begin="4s" dur="1s" repeatCount="Indefinite" fill="freeze" />
</path>
<path d="M62.21,39.36c1.04,0.14,2.54,0.26,3.52,0.12c4.52-0.61,8.27-1.61,11.9-3.12c3-1.25,4.38,0.75,3.47,3.02C74.75,55.25,61,78.88,38.25,90" style="fill:none;stroke:black;stroke-width:3;opacity:0">
  <animate attributeType="CSS" attributeName="opacity" from="0" to="1" begin="5s" dur="1s" repeatCount="Indefinite" fill="freeze" />
</path>
<path d="M56.75,49.12c2.73,1.25,7.04,5.14,7.73,7.08" style="fill:none;stroke:black;stroke-width:3;opacity:0">
  <animate attributeType="CSS" attributeName="opacity" from="0" to="1" begin="6s" dur="1s" repeatCount="Indefinite" fill="freeze" />
</path>
<path d="M45,62.75c7.38,0.75,28.23,18.89,38.64,25.59c3.13,2.01,6.66,4,10.36,4.66" style="fill:none;stroke:black;stroke-width:3;opacity:0">
  <animate attributeType="CSS" attributeName="opacity" from="0" to="1" begin="7s" dur="1s" repeatCount="Indefinite" fill="freeze" />
</path>
</svg>