<svg width="109px" height="109px" viewBox="0 0 px 109px" xmlns="http://www.w3.org/2000/svg" xmlns:xlink="http://www.w3.org/1999/xlink" xml:space="preserve" version="1.1"  baseProfile="full">
<path d="M30,36.14c2.37,0.43,4.64,0.49,7.02,0.21c9.48-1.1,25.86-2.98,35.11-3.65c2.19-0.16,4.47-0.22,6.62,0.31" style="fill:none;stroke:black;stroke-width:3;opacity:0">
  <animate attributeType="CSS" attributeName="opacity" from="0" to="1" begin="0s" dur="1s" repeatCount="Indefinite" fill="freeze" />
</path>
<path d="M20.25,57.63c2.82,0.69,5.67,0.58,8.51,0.27c13.72-1.51,40.82-3.55,52.12-4.27c2.2-0.14,5.38,0,7.38,0.4" style="fill:none;stroke:black;stroke-width:3;opacity:0">
  <animate attributeType="CSS" attributeName="opacity" from="0" to="1" begin="1s" dur="1s" repeatCount="Indefinite" fill="freeze" />
</path>
<path d="M52.87,14.25c0.63,1.25,1.08,2.92,1.12,5.33c0.76,42.17-9.24,62.04-36.49,76.92" style="fill:none;stroke:black;stroke-width:3;opacity:0">
  <animate attributeType="CSS" attributeName="opacity" from="0" to="1" begin="2s" dur="1s" repeatCount="Indefinite" fill="freeze" />
</path>
<path d="M54,55.75c9.63,11.28,26.53,29.19,37.32,36.08c3.11,1.99,3.87,2.69,5.18,2.92" style="fill:none;stroke:black;stroke-width:3;opacity:0">
  <animate attributeType="CSS" attributeName="opacity" from="0" to="1" begin="3s" dur="1s" repeatCount="Indefinite" fill="freeze" />
</path>
</svg>