<svg width="109px" height="109px" viewBox="0 0 px 109px" xmlns="http://www.w3.org/2000/svg" xmlns:xlink="http://www.w3.org/1999/xlink" xml:space="preserve" version="1.1"  baseProfile="full">
<path d="M36.51,23.14c0.04,0.57,0.21,1.5-0.09,2.28c-2.42,6.33-7.05,13.2-15.86,21.3" style="fill:none;stroke:black;stroke-width:3;opacity:0">
  <animate attributeType="CSS" attributeName="opacity" from="0" to="1" begin="0s" dur="1s" repeatCount="Indefinite" fill="freeze" />
</path>
<path d="M32.75,38.39c2.25,0.49,4.26,0.32,6.26,0.09c7.43-0.87,24.34-3.05,33.49-3.51c2.23-0.11,4.56-0.25,6.75,0.29" style="fill:none;stroke:black;stroke-width:3;opacity:0">
  <animate attributeType="CSS" attributeName="opacity" from="0" to="1" begin="1s" dur="1s" repeatCount="Indefinite" fill="freeze" />
</path>
<path d="M19.75,60.14c2.71,0.97,6.7,0.53,9.49,0.13c13.14-1.9,38.25-4.73,50.51-5.47c2.81-0.17,5.72-0.13,8.5,0.46" style="fill:none;stroke:black;stroke-width:3;opacity:0">
  <animate attributeType="CSS" attributeName="opacity" from="0" to="1" begin="2s" dur="1s" repeatCount="Indefinite" fill="freeze" />
</path>
<path d="M53.62,14.25c0.63,1.25,0.86,2.41,0.87,4.83C54.75,63.75,43.75,83,17.5,95.5" style="fill:none;stroke:black;stroke-width:3;opacity:0">
  <animate attributeType="CSS" attributeName="opacity" from="0" to="1" begin="3s" dur="1s" repeatCount="Indefinite" fill="freeze" />
</path>
<path d="M54.5,57.5c9.99,11.52,23.52,28.43,33.46,34.78c2.9,1.85,4.85,2.75,6.04,2.97" style="fill:none;stroke:black;stroke-width:3;opacity:0">
  <animate attributeType="CSS" attributeName="opacity" from="0" to="1" begin="4s" dur="1s" repeatCount="Indefinite" fill="freeze" />
</path>
</svg>