<svg width="109px" height="109px" viewBox="0 0 px 109px" xmlns="http://www.w3.org/2000/svg" xmlns:xlink="http://www.w3.org/1999/xlink" xml:space="preserve" version="1.1"  baseProfile="full">
<path d="M73.44,9.89c0.12,0.28,0.25,0.72-0.24,1.12C70.29,13.37,52,19.5,27.81,21.22" style="fill:none;stroke:black;stroke-width:3;opacity:0">
  <animate attributeType="CSS" attributeName="opacity" from="0" to="1" begin="0s" dur="1s" repeatCount="0" fill="freeze" />
</path>
<path d="M30.27,26.14c0.04,0.4,0.08,1.04-0.07,1.62c-0.9,3.41-5.19,9.49-12.63,15.96" style="fill:none;stroke:black;stroke-width:3;opacity:0">
  <animate attributeType="CSS" attributeName="opacity" from="0" to="1" begin="1s" dur="1s" repeatCount="0" fill="freeze" />
</path>
<path d="M49.77,25.08c2.4,1.7,6.19,6.99,6.79,9.63" style="fill:none;stroke:black;stroke-width:3;opacity:0">
  <animate attributeType="CSS" attributeName="opacity" from="0" to="1" begin="2s" dur="1s" repeatCount="0" fill="freeze" />
</path>
<path d="M72.27,22.33c5.13,2.71,13.26,11.16,14.54,15.38" style="fill:none;stroke:black;stroke-width:3;opacity:0">
  <animate attributeType="CSS" attributeName="opacity" from="0" to="1" begin="3s" dur="1s" repeatCount="0" fill="freeze" />
</path>
<path d="M45.46,33.12c0.5,1.13,0.77,1.92-0.25,3.2c-1.96,2.44-5.71,6.94-9,10.16c-0.83,0.81-0.49,2.11,0.5,2.32c5.25,1.13,6,1.51,10.5,3.58" style="fill:none;stroke:black;stroke-width:3;opacity:0">
  <animate attributeType="CSS" attributeName="opacity" from="0" to="1" begin="4s" dur="1s" repeatCount="0" fill="freeze" />
</path>
<path d="M63.71,38.76c0.29,1.74-0.74,2.95-1.5,3.51c-10.5,7.71-17.96,12.98-29.75,21.13c-1.67,1.16-1,1.88,1,1.5c8.36-1.57,31.75-5.39,42.5-6.89" style="fill:none;stroke:black;stroke-width:3;opacity:0">
  <animate attributeType="CSS" attributeName="opacity" from="0" to="1" begin="5s" dur="1s" repeatCount="0" fill="freeze" />
</path>
<path d="M68.21,51.43c4.32,2.31,11.17,9.49,12.25,13.09" style="fill:none;stroke:black;stroke-width:3;opacity:0">
  <animate attributeType="CSS" attributeName="opacity" from="0" to="1" begin="6s" dur="1s" repeatCount="0" fill="freeze" />
</path>
<path d="M19.38,77.19c1.21,0.38,4.43,0.84,6.99,0.67c17.33-1.14,40.09-3.44,55.65-3.99c2.68-0.09,4.83-0.05,7.24,0.25" style="fill:none;stroke:black;stroke-width:3;opacity:0">
  <animate attributeType="CSS" attributeName="opacity" from="0" to="1" begin="7s" dur="1s" repeatCount="0" fill="freeze" />
</path>
<path d="M53.38,65c0.58,0.51,0.58,1.62,0.37,2.71C50.5,84.25,37.75,96.75,17,102.29" style="fill:none;stroke:black;stroke-width:3;opacity:0">
  <animate attributeType="CSS" attributeName="opacity" from="0" to="1" begin="8s" dur="1s" repeatCount="0" fill="freeze" />
</path>
<path d="M52.5,76.62C59.58,81.93,76.09,95.45,83.16,99c2.4,1.21,3.24,1.39,4.34,1.5" style="fill:none;stroke:black;stroke-width:3;opacity:0">
  <animate attributeType="CSS" attributeName="opacity" from="0" to="1" begin="9s" dur="1s" repeatCount="0" fill="freeze" />
</path>
</svg>