<svg width="109px" height="109px" viewBox="0 0 px 109px" xmlns="http://www.w3.org/2000/svg" xmlns:xlink="http://www.w3.org/1999/xlink" xml:space="preserve" version="1.1"  baseProfile="full">
<path d="M50.27,10.14c0.03,0.33,0.06,0.84-0.06,1.31c-0.71,2.76-4.81,8.81-10.41,12.52" style="fill:none;stroke:black;stroke-width:3;opacity:0">
  <animate attributeType="CSS" attributeName="opacity" from="0" to="1" begin="0s" dur="1s" repeatCount="0" fill="freeze" />
</path>
<path d="M30.24,24.4c0.51,0.85,0.85,2.2,0.68,3.72c-0.17,1.52,0.17,36.34,0.17,38.88" style="fill:none;stroke:black;stroke-width:3;opacity:0">
  <animate attributeType="CSS" attributeName="opacity" from="0" to="1" begin="1s" dur="1s" repeatCount="0" fill="freeze" />
</path>
<path d="M30.92,26.09c6.43-0.68,41.69-3.15,42.96-3.38c2.71-0.51,4.69,1.24,4.4,2.03c-0.51,1.35-1.01,33.64-1.01,37.54" style="fill:none;stroke:black;stroke-width:3;opacity:0">
  <animate attributeType="CSS" attributeName="opacity" from="0" to="1" begin="2s" dur="1s" repeatCount="0" fill="freeze" />
</path>
<path d="M62.88,26.64c0.07,0.22,0.09,0.54-0.13,0.9c-1.85,2.94-12.64,6.85-23.84,8.06" style="fill:none;stroke:black;stroke-width:3;opacity:0">
  <animate attributeType="CSS" attributeName="opacity" from="0" to="1" begin="3s" dur="1s" repeatCount="0" fill="freeze" />
</path>
<path d="M42.09,38.3c1.42,1.05,3.56,4.04,3.91,5.68" style="fill:none;stroke:black;stroke-width:3;opacity:0">
  <animate attributeType="CSS" attributeName="opacity" from="0" to="1" begin="4s" dur="1s" repeatCount="0" fill="freeze" />
</path>
<path d="M66.7,33.98c0.02,0.25,0.11,0.68-0.04,1.02c-1.18,2.75-3.06,5.99-6.94,9.78" style="fill:none;stroke:black;stroke-width:3;opacity:0">
  <animate attributeType="CSS" attributeName="opacity" from="0" to="1" begin="5s" dur="1s" repeatCount="0" fill="freeze" />
</path>
<path d="M37.17,47.6c0.4,0.13,1.48,0.35,2.56,0.4C42.7,48.14,63,45.25,68.73,44.8c1.08-0.08,1.35-0.13,2.02,0" style="fill:none;stroke:black;stroke-width:3;opacity:0">
  <animate attributeType="CSS" attributeName="opacity" from="0" to="1" begin="6s" dur="1s" repeatCount="0" fill="freeze" />
</path>
<path d="M52.4,34.39c0.67,0.27,1.08,1.2,1.21,1.74c0.13,0.54,0,20.53-0.14,23.87" style="fill:none;stroke:black;stroke-width:3;opacity:0">
  <animate attributeType="CSS" attributeName="opacity" from="0" to="1" begin="7s" dur="1s" repeatCount="0" fill="freeze" />
</path>
<path d="M53.4,47.54C50.7,52.39,44.13,59.2,38.06,62" style="fill:none;stroke:black;stroke-width:3;opacity:0">
  <animate attributeType="CSS" attributeName="opacity" from="0" to="1" begin="8s" dur="1s" repeatCount="0" fill="freeze" />
</path>
<path d="M56.21,49.84c4.57,2.04,10.02,5.49,12.27,8.99" style="fill:none;stroke:black;stroke-width:3;opacity:0">
  <animate attributeType="CSS" attributeName="opacity" from="0" to="1" begin="9s" dur="1s" repeatCount="0" fill="freeze" />
</path>
<path d="M15.88,74.33c1.33,0.52,4.89,1.13,7.71,0.91c19.13-1.55,44.25-4.66,61.42-5.41c2.95-0.13,5.33-0.06,7.99,0.34" style="fill:none;stroke:black;stroke-width:3;opacity:0">
  <animate attributeType="CSS" attributeName="opacity" from="0" to="1" begin="10s" dur="1s" repeatCount="0" fill="freeze" />
</path>
<path d="M51.72,64.25c0.52,0.49,0.93,2.57,0.77,3.61C49.75,86,37.25,96,19.25,101.5" style="fill:none;stroke:black;stroke-width:3;opacity:0">
  <animate attributeType="CSS" attributeName="opacity" from="0" to="1" begin="11s" dur="1s" repeatCount="0" fill="freeze" />
</path>
<path d="M55,73.5c6.57,5.67,21.91,20.1,28.47,23.9c2.23,1.29,3.01,1.48,4.03,1.6" style="fill:none;stroke:black;stroke-width:3;opacity:0">
  <animate attributeType="CSS" attributeName="opacity" from="0" to="1" begin="12s" dur="1s" repeatCount="0" fill="freeze" />
</path>
</svg>