<svg width="109px" height="109px" viewBox="0 0 px 109px" xmlns="http://www.w3.org/2000/svg" xmlns:xlink="http://www.w3.org/1999/xlink" xml:space="preserve" version="1.1"  baseProfile="full">
<path d="M28.48,16.87c0.39,1.04,1.08,2.74,0.89,4.24c-0.98,7.39-7.32,33.66-11.63,42.29c-0.89,1.77,0.41,2.44,0.89,2.63c8.88,3.47,17.63,8.72,22.13,16.75" style="fill:none;stroke:black;stroke-width:3;opacity:0">
  <animate attributeType="CSS" attributeName="opacity" from="0" to="1" begin="0s" dur="1s" repeatCount="Indefinite" fill="freeze" />
</path>
<path d="M40.75,36.89c0.08,1.21,0.06,4.15-0.16,5.92c-2.04,16.22-9.64,36.16-26.85,46.94" style="fill:none;stroke:black;stroke-width:3;opacity:0">
  <animate attributeType="CSS" attributeName="opacity" from="0" to="1" begin="1s" dur="1s" repeatCount="Indefinite" fill="freeze" />
</path>
<path d="M10.5,48.22c0.75,0.94,1.75,1.62,3.75,1.39c2.15-0.24,21.34-4.85,30.25-7.23" style="fill:none;stroke:black;stroke-width:3;opacity:0">
  <animate attributeType="CSS" attributeName="opacity" from="0" to="1" begin="2s" dur="1s" repeatCount="Indefinite" fill="freeze" />
</path>
<path d="M49.17,21.62c0.8,0.43,3.56,0.46,4.36,0.38c5.54-0.5,24.84-3.66,34.29-4.5c1.33-0.12,4.13,0.37,4.79,0.58" style="fill:none;stroke:black;stroke-width:3;opacity:0">
  <animate attributeType="CSS" attributeName="opacity" from="0" to="1" begin="3s" dur="1s" repeatCount="Indefinite" fill="freeze" />
</path>
<path d="M45.88,51.78c1.29,0.46,3.67,0.59,4.96,0.46C63,51,80.49,48.75,94.6,48.33c2.16-0.06,3.45,0.22,4.53,0.45" style="fill:none;stroke:black;stroke-width:3;opacity:0">
  <animate attributeType="CSS" attributeName="opacity" from="0" to="1" begin="4s" dur="1s" repeatCount="Indefinite" fill="freeze" />
</path>
<path d="M68.81,22.38c0.54,0.52,2.29,2.18,2.29,4.98c0,5.45-0.07,64.46-0.18,71.02" style="fill:none;stroke:black;stroke-width:3;opacity:0">
  <animate attributeType="CSS" attributeName="opacity" from="0" to="1" begin="5s" dur="1s" repeatCount="Indefinite" fill="freeze" />
</path>
</svg>