<svg width="109px" height="109px" viewBox="0 0 px 109px" xmlns="http://www.w3.org/2000/svg" xmlns:xlink="http://www.w3.org/1999/xlink" xml:space="preserve" version="1.1"  baseProfile="full">
<path d="M33.28,19.04c1.84,0.71,3.7,0.86,5.4,0.63c4.95-0.67,27.95-4.58,29.86-4.92c3.46-0.62,4.06,1.36,2.11,3.58c-1.95,2.22-11.41,13.17-16.35,17.19" style="fill:none;stroke:black;stroke-width:3;opacity:0">
  <animate attributeType="CSS" attributeName="opacity" from="0" to="1" begin="0s" dur="1s" repeatCount="0" fill="freeze" />
</path>
<path d="M52.48,37.74c6.42,2.97,11.75,30.73,5.24,52.57c-2.8,9.38-8.09,2.96-10.47,0.99" style="fill:none;stroke:black;stroke-width:3;opacity:0">
  <animate attributeType="CSS" attributeName="opacity" from="0" to="1" begin="1s" dur="1s" repeatCount="0" fill="freeze" />
</path>
<path d="M12.25,51.48c3.75,1.14,8.79,1.03,12.48,0.49c16.77-2.47,42.86-5.84,58.53-6.75c4.26-0.25,9.11-0.34,13.11,0.57" style="fill:none;stroke:black;stroke-width:3;opacity:0">
  <animate attributeType="CSS" attributeName="opacity" from="0" to="1" begin="2s" dur="1s" repeatCount="0" fill="freeze" />
</path>
</svg>