<svg width="109px" height="109px" viewBox="0 0 px 109px" xmlns="http://www.w3.org/2000/svg" xmlns:xlink="http://www.w3.org/1999/xlink" xml:space="preserve" version="1.1"  baseProfile="full">
<path d="M11.29,27.74c2.13,0.74,3.98,0.91,6.12,0.38c6.1-1.5,15.64-3.98,18.72-4.62c1.61-0.33,3.28,0.86,1.78,2.91C36,29,30.5,35.5,24.81,42.61" style="fill:none;stroke:black;stroke-width:3;opacity:0">
  <animate attributeType="CSS" attributeName="opacity" from="0" to="1" begin="0s" dur="1s" repeatCount="0" fill="freeze" />
</path>
<path d="M24.02,43.24c6.88,2.84,10.48,23.8,4.97,41.99c-2.97,9.79-8.21,2.06-9.46,1.26" style="fill:none;stroke:black;stroke-width:3;opacity:0">
  <animate attributeType="CSS" attributeName="opacity" from="0" to="1" begin="1s" dur="1s" repeatCount="0" fill="freeze" />
</path>
<path d="M10.5,61.33c1.34,0.97,2.54,1.09,4.73,0.09C26,56.5,31.5,53.5,40.25,49.4" style="fill:none;stroke:black;stroke-width:3;opacity:0">
  <animate attributeType="CSS" attributeName="opacity" from="0" to="1" begin="2s" dur="1s" repeatCount="0" fill="freeze" />
</path>
<path d="M79.05,16.5c0,0.88-0.3,1.62-1.07,2.29c-6.41,5.53-12.86,9.84-27.83,15.4" style="fill:none;stroke:black;stroke-width:3;opacity:0">
  <animate attributeType="CSS" attributeName="opacity" from="0" to="1" begin="3s" dur="1s" repeatCount="0" fill="freeze" />
</path>
<path d="M46.11,34.13c0.82,0.82,1.05,2,1.09,3.46C47.75,58,47.62,79.75,34.06,92.72" style="fill:none;stroke:black;stroke-width:3;opacity:0">
  <animate attributeType="CSS" attributeName="opacity" from="0" to="1" begin="4s" dur="1s" repeatCount="0" fill="freeze" />
</path>
<path d="M62.22,32.43c0.99,0.99,1.4,2.57,1.4,4.31c0,6.12-0.11,32.32-0.11,42.26" style="fill:none;stroke:black;stroke-width:3;opacity:0">
  <animate attributeType="CSS" attributeName="opacity" from="0" to="1" begin="5s" dur="1s" repeatCount="0" fill="freeze" />
</path>
<path d="M50.43,83.51c0.72,0.58,2.13,1.23,3.62,0.57c8.7-3.84,11.7-5.09,20.19-8.78" style="fill:none;stroke:black;stroke-width:3;opacity:0">
  <animate attributeType="CSS" attributeName="opacity" from="0" to="1" begin="6s" dur="1s" repeatCount="0" fill="freeze" />
</path>
<path d="M72.26,69.14c2.37,2.54,6.11,10.43,6.71,14.37" style="fill:none;stroke:black;stroke-width:3;opacity:0">
  <animate attributeType="CSS" attributeName="opacity" from="0" to="1" begin="7s" dur="1s" repeatCount="0" fill="freeze" />
</path>
<path d="M76.18,28.08c1.64,0.38,6.48,35.09,14.38,53.76c1.57,3.71,3.31,6.53,6.19,9.8" style="fill:none;stroke:black;stroke-width:3;opacity:0">
  <animate attributeType="CSS" attributeName="opacity" from="0" to="1" begin="8s" dur="1s" repeatCount="0" fill="freeze" />
</path>
</svg>