<svg width="109px" height="109px" viewBox="0 0 px 109px" xmlns="http://www.w3.org/2000/svg" xmlns:xlink="http://www.w3.org/1999/xlink" xml:space="preserve" version="1.1"  baseProfile="full">
<path d="M53.66,10c0.98,0.98,1.18,2.25,1.18,4.02c0,2.1-0.08,5.48-0.08,7.48" style="fill:none;stroke:black;stroke-width:3;opacity:0">
  <animate attributeType="CSS" attributeName="opacity" from="0" to="1" begin="0s" dur="1s" repeatCount="Indefinite" fill="freeze" />
</path>
<path d="M21.58,23.38c0,3.48-2.81,14.05-4.08,16.37" style="fill:none;stroke:black;stroke-width:3;opacity:0">
  <animate attributeType="CSS" attributeName="opacity" from="0" to="1" begin="1s" dur="1s" repeatCount="Indefinite" fill="freeze" />
</path>
<path d="M22.52,25.74c15.1-1.61,51.73-5.49,63.62-5.9c11.16-0.39,3.23,7.41-0.42,9.78" style="fill:none;stroke:black;stroke-width:3;opacity:0">
  <animate attributeType="CSS" attributeName="opacity" from="0" to="1" begin="2s" dur="1s" repeatCount="Indefinite" fill="freeze" />
</path>
<path d="M34.87,40.44c1.74,0.71,4.56,0.37,6.4,0.17c6.92-0.73,20.29-2.52,26.86-3.03c1.84-0.14,3.69-0.31,5.5,0.13" style="fill:none;stroke:black;stroke-width:3;opacity:0">
  <animate attributeType="CSS" attributeName="opacity" from="0" to="1" begin="3s" dur="1s" repeatCount="Indefinite" fill="freeze" />
</path>
<path d="M21.81,58.7c2.94,0.55,5.43,0.46,7.95,0.15c12.24-1.48,34.49-3.92,48.86-4.51c2.98-0.12,6.04-0.07,8.99,0.56" style="fill:none;stroke:black;stroke-width:3;opacity:0">
  <animate attributeType="CSS" attributeName="opacity" from="0" to="1" begin="4s" dur="1s" repeatCount="Indefinite" fill="freeze" />
</path>
<path d="M53.58,59.2c1.05,1.05,1.58,2.68,1.58,4.26c0,12.55,0.03,24.52,0.03,28.79c0,9.08-3.89,3.26-7.51,0.22" style="fill:none;stroke:black;stroke-width:3;opacity:0">
  <animate attributeType="CSS" attributeName="opacity" from="0" to="1" begin="5s" dur="1s" repeatCount="Indefinite" fill="freeze" />
</path>
<path d="M33.11,71.79c0.09,1.32-0.22,2.69-0.97,3.84c-3.27,4.99-7.89,11.24-15.23,17.94" style="fill:none;stroke:black;stroke-width:3;opacity:0">
  <animate attributeType="CSS" attributeName="opacity" from="0" to="1" begin="6s" dur="1s" repeatCount="Indefinite" fill="freeze" />
</path>
<path d="M73.38,70.62c7.25,4.62,15.12,12.25,18.96,20.29" style="fill:none;stroke:black;stroke-width:3;opacity:0">
  <animate attributeType="CSS" attributeName="opacity" from="0" to="1" begin="7s" dur="1s" repeatCount="Indefinite" fill="freeze" />
</path>
</svg>