<svg width="109px" height="109px" viewBox="0 0 px 109px" xmlns="http://www.w3.org/2000/svg" xmlns:xlink="http://www.w3.org/1999/xlink" xml:space="preserve" version="1.1"  baseProfile="full">
<path d="M53.67,8.25c1.42,1.42,1.67,2.75,1.67,4.73c0,3.6-0.08,5.5-0.08,8.77" style="fill:none;stroke:black;stroke-width:3;opacity:0">
  <animate attributeType="CSS" attributeName="opacity" from="0" to="1" begin="0s" dur="1s" repeatCount="Indefinite" fill="freeze" />
</path>
<path d="M22.38,22.75c0,4.13-3.11,15.5-4.52,18.25" style="fill:none;stroke:black;stroke-width:3;opacity:0">
  <animate attributeType="CSS" attributeName="opacity" from="0" to="1" begin="1s" dur="1s" repeatCount="Indefinite" fill="freeze" />
</path>
<path d="M23.36,25.84C41.5,24,64.88,21.5,84.55,20.57c11.69-0.55,2.36,7.11-0.42,9.06" style="fill:none;stroke:black;stroke-width:3;opacity:0">
  <animate attributeType="CSS" attributeName="opacity" from="0" to="1" begin="2s" dur="1s" repeatCount="Indefinite" fill="freeze" />
</path>
<path d="M53.31,29.75c0.95,0.72,1.43,1.97,1.43,3.64c0,0.74,0,3.36,0,5.5" style="fill:none;stroke:black;stroke-width:3;opacity:0">
  <animate attributeType="CSS" attributeName="opacity" from="0" to="1" begin="3s" dur="1s" repeatCount="Indefinite" fill="freeze" />
</path>
<path d="M29.66,41.73c2.44,0.69,5.35,0.28,7.84,0.01c9.72-1.07,26.27-2.82,35.76-3.34c2.72-0.15,5.12,0.19,7.8,0.64" style="fill:none;stroke:black;stroke-width:3;opacity:0">
  <animate attributeType="CSS" attributeName="opacity" from="0" to="1" begin="4s" dur="1s" repeatCount="Indefinite" fill="freeze" />
</path>
<path d="M40.01,45.35c3.59,4.63,5.22,9.36,5.55,12.41" style="fill:none;stroke:black;stroke-width:3;opacity:0">
  <animate attributeType="CSS" attributeName="opacity" from="0" to="1" begin="5s" dur="1s" repeatCount="Indefinite" fill="freeze" />
</path>
<path d="M68.89,42.34c0.36,0.91,0.24,1.98-0.27,3.21c-1.12,2.7-5.46,10.29-6.92,12.54" style="fill:none;stroke:black;stroke-width:3;opacity:0">
  <animate attributeType="CSS" attributeName="opacity" from="0" to="1" begin="6s" dur="1s" repeatCount="Indefinite" fill="freeze" />
</path>
<path d="M17.6,62.07c3.21,0.86,6.79,0.61,10.03,0.27c17.61-1.84,38.74-3.47,55.62-4.05c3.58-0.12,7.09-0.01,10.64,0.57" style="fill:none;stroke:black;stroke-width:3;opacity:0">
  <animate attributeType="CSS" attributeName="opacity" from="0" to="1" begin="7s" dur="1s" repeatCount="Indefinite" fill="freeze" />
</path>
<path d="M24.89,78.45c3.48,0.68,6.51,0.56,9.61,0.17c13.87-1.74,28.41-2.3,41.51-3.24c3.24-0.23,6.67-0.33,9.85,0.35" style="fill:none;stroke:black;stroke-width:3;opacity:0">
  <animate attributeType="CSS" attributeName="opacity" from="0" to="1" begin="8s" dur="1s" repeatCount="Indefinite" fill="freeze" />
</path>
<path d="M53.39,62.38c0.99,0.99,1.18,2.37,1.18,4.46c0,6.98,0.02,18.81,0.03,27.65c0,2.75,0,5.13,0,6.88" style="fill:none;stroke:black;stroke-width:3;opacity:0">
  <animate attributeType="CSS" attributeName="opacity" from="0" to="1" begin="9s" dur="1s" repeatCount="Indefinite" fill="freeze" />
</path>
</svg>