<svg width="109px" height="109px" viewBox="0 0 px 109px" xmlns="http://www.w3.org/2000/svg" xmlns:xlink="http://www.w3.org/1999/xlink" xml:space="preserve" version="1.1"  baseProfile="full">
<path d="M52.15,11.25c1.18,1.18,1.42,3.03,1.42,4.27c0,4.85-0.06,6.06-0.06,9.6" style="fill:none;stroke:black;stroke-width:3;opacity:0">
  <animate attributeType="CSS" attributeName="opacity" from="0" to="1" begin="0s" dur="1s" repeatCount="Indefinite" fill="freeze" />
</path>
<path d="M21.41,26.63c0,4.04-3.21,15.17-4.66,17.87" style="fill:none;stroke:black;stroke-width:3;opacity:0">
  <animate attributeType="CSS" attributeName="opacity" from="0" to="1" begin="1s" dur="1s" repeatCount="Indefinite" fill="freeze" />
</path>
<path d="M21.71,29.23c18.17-1.85,44.79-4.6,62.99-5.39c12.06-0.52,2.55,7.16-0.45,9.28" style="fill:none;stroke:black;stroke-width:3;opacity:0">
  <animate attributeType="CSS" attributeName="opacity" from="0" to="1" begin="2s" dur="1s" repeatCount="Indefinite" fill="freeze" />
</path>
<path d="M34.4,36.88c0.8,0.8,0.96,1.87,0.96,2.96c0,0.42-0.11,16.15-0.11,19.91" style="fill:none;stroke:black;stroke-width:3;opacity:0">
  <animate attributeType="CSS" attributeName="opacity" from="0" to="1" begin="3s" dur="1s" repeatCount="Indefinite" fill="freeze" />
</path>
<path d="M36.5,47.11c1.42,0,6.79-1.02,10.93-1.52c1.48-0.18,2.16-0.33,3.02-0.13" style="fill:none;stroke:black;stroke-width:3;opacity:0">
  <animate attributeType="CSS" attributeName="opacity" from="0" to="1" begin="4s" dur="1s" repeatCount="Indefinite" fill="freeze" />
</path>
<path d="M14.76,62.42c1.98,0.58,3.42,0.35,5.07,0.16c8.99-1.08,17.3-2.33,27.57-3.37c1.87-0.19,4.59-0.4,6.4,0.17" style="fill:none;stroke:black;stroke-width:3;opacity:0">
  <animate attributeType="CSS" attributeName="opacity" from="0" to="1" begin="5s" dur="1s" repeatCount="Indefinite" fill="freeze" />
</path>
<path d="M36.66,63.41c0.07,0.32,0.96,1.67,0.96,3.72c0,10.68,0.02,22.81,0.02,26.15c0,7.58-5.52,1.01-6.67,0.17" style="fill:none;stroke:black;stroke-width:3;opacity:0">
  <animate attributeType="CSS" attributeName="opacity" from="0" to="1" begin="6s" dur="1s" repeatCount="Indefinite" fill="freeze" />
</path>
<path d="M24.05,73.85c0.09,1.04-0.04,1.73-0.47,2.69c-1.99,4.43-5.84,8.64-12.96,14.64" style="fill:none;stroke:black;stroke-width:3;opacity:0">
  <animate attributeType="CSS" attributeName="opacity" from="0" to="1" begin="7s" dur="1s" repeatCount="Indefinite" fill="freeze" />
</path>
<path d="M45.5,71.88c2.94,1.92,7.6,7.89,8.33,10.87" style="fill:none;stroke:black;stroke-width:3;opacity:0">
  <animate attributeType="CSS" attributeName="opacity" from="0" to="1" begin="8s" dur="1s" repeatCount="Indefinite" fill="freeze" />
</path>
<path d="M56.42,48.71c2.23,0.66,4.26,0.45,6.58-0.06c4.62-1.01,13.07-2.96,16.04-3.85c3.08-0.92,5.05,0.47,4.14,3.45C76.38,70.34,64.37,86.67,51.34,95" style="fill:none;stroke:black;stroke-width:3;opacity:0">
  <animate attributeType="CSS" attributeName="opacity" from="0" to="1" begin="9s" dur="1s" repeatCount="Indefinite" fill="freeze" />
</path>
<path d="M59.25,56.09c3.45,2.3,15.11,17.28,25.8,28.36c2.82,2.92,5.95,5.67,8.54,7.2" style="fill:none;stroke:black;stroke-width:3;opacity:0">
  <animate attributeType="CSS" attributeName="opacity" from="0" to="1" begin="10s" dur="1s" repeatCount="Indefinite" fill="freeze" />
</path>
</svg>