<svg width="109px" height="109px" viewBox="0 0 px 109px" xmlns="http://www.w3.org/2000/svg" xmlns:xlink="http://www.w3.org/1999/xlink" xml:space="preserve" version="1.1"  baseProfile="full">
<path d="M24.66,19.73c1.78,0.56,5.23,1.06,7.11,0.95c10.18-0.62,40.98-4.04,45.07-4.27c2.02-0.11,2.91,1.38,2.91,3.07c0,1.83-0.87,4.16-2.67,11.08" style="fill:none;stroke:black;stroke-width:3;opacity:0">
  <animate attributeType="CSS" attributeName="opacity" from="0" to="1" begin="0s" dur="1s" repeatCount="Indefinite" fill="freeze" />
</path>
<path d="M30.44,35.74c5.11-0.19,42.87-3.8,48.2-3.99" style="fill:none;stroke:black;stroke-width:3;opacity:0">
  <animate attributeType="CSS" attributeName="opacity" from="0" to="1" begin="1s" dur="1s" repeatCount="Indefinite" fill="freeze" />
</path>
<path d="M30.63,21.17c0,3.91-0.43,18.43-0.63,22.08c-1,18.25-5.5,35.5-16.75,49.48" style="fill:none;stroke:black;stroke-width:3;opacity:0">
  <animate attributeType="CSS" attributeName="opacity" from="0" to="1" begin="2s" dur="1s" repeatCount="Indefinite" fill="freeze" />
</path>
<path d="M38.26,46.1c0.84,0.26,2.38,0.29,3.23,0.26c11.13-0.31,23.32-2.75,39.43-2.83c1.4-0.01,2.24,0.13,2.95,0.26" style="fill:none;stroke:black;stroke-width:3;opacity:0">
  <animate attributeType="CSS" attributeName="opacity" from="0" to="1" begin="3s" dur="1s" repeatCount="Indefinite" fill="freeze" />
</path>
<path d="M56.93,47.43c0.49,0.37,0.67,1.53,0.3,1.96c-4.34,4.99-7.85,8.2-13.84,13.02c-1.93,1.55-2.07,3.6,1.03,3.14c7.23-1.07,21.17-4.92,32.57-6.69" style="fill:none;stroke:black;stroke-width:3;opacity:0">
  <animate attributeType="CSS" attributeName="opacity" from="0" to="1" begin="4s" dur="1s" repeatCount="Indefinite" fill="freeze" />
</path>
<path d="M70.54,52.78c4.16,2.04,10.74,8.41,11.78,11.59" style="fill:none;stroke:black;stroke-width:3;opacity:0">
  <animate attributeType="CSS" attributeName="opacity" from="0" to="1" begin="5s" dur="1s" repeatCount="Indefinite" fill="freeze" />
</path>
<path d="M58.08,63.74c0.1,0.17,1.49,0.86,1.46,1.92c-0.16,6.02,0.46,24.23,0.46,25.95" style="fill:none;stroke:black;stroke-width:3;opacity:0">
  <animate attributeType="CSS" attributeName="opacity" from="0" to="1" begin="6s" dur="1s" repeatCount="Indefinite" fill="freeze" />
</path>
<path d="M40.07,78.02c0.81,0.22,2.31,0.32,3.11,0.22c3.28-0.42,26.53-2.48,34.13-2.48c1.35,0,2.16,0.1,2.84,0.21" style="fill:none;stroke:black;stroke-width:3;opacity:0">
  <animate attributeType="CSS" attributeName="opacity" from="0" to="1" begin="7s" dur="1s" repeatCount="Indefinite" fill="freeze" />
</path>
<path d="M29.47,94.01c1.25,0.3,3.57,0.45,4.81,0.3c5.08-0.6,32.08-2.88,56.11-2.96c2.09-0.01,3.35,0.15,4.39,0.3" style="fill:none;stroke:black;stroke-width:3;opacity:0">
  <animate attributeType="CSS" attributeName="opacity" from="0" to="1" begin="8s" dur="1s" repeatCount="Indefinite" fill="freeze" />
</path>
</svg>