<svg width="109px" height="109px" viewBox="0 0 px 109px" xmlns="http://www.w3.org/2000/svg" xmlns:xlink="http://www.w3.org/1999/xlink" xml:space="preserve" version="1.1"  baseProfile="full">
<path d="M26.68,15.15c1.91,0.73,4.13,0.88,6.16,0.73C43.8,15.07,72,12.25,76.37,11.65c2.88-0.4,3.63,1.1,3.13,3.97c-0.63,3.61-2,7.13-2.87,11.44" style="fill:none;stroke:black;stroke-width:3;opacity:0">
  <animate attributeType="CSS" attributeName="opacity" from="0" to="1" begin="0s" dur="1s" repeatCount="Indefinite" fill="freeze" />
</path>
<path d="M28.9,30.17c10.85-0.67,43.17-3.13,48.91-3.37" style="fill:none;stroke:black;stroke-width:3;opacity:0">
  <animate attributeType="CSS" attributeName="opacity" from="0" to="1" begin="1s" dur="1s" repeatCount="Indefinite" fill="freeze" />
</path>
<path d="M29.08,15.83c0,3.89-0.26,15.19-0.66,18.81c-2.29,20.56-3.96,36.85-15.18,51.61" style="fill:none;stroke:black;stroke-width:3;opacity:0">
  <animate attributeType="CSS" attributeName="opacity" from="0" to="1" begin="2s" dur="1s" repeatCount="Indefinite" fill="freeze" />
</path>
<path d="M38.3,45.01c0.61,0.25,1.73,0.28,2.35,0.25c6.96-0.4,18.8-2.29,25.66-2.46c1.02-0.03,1.63,0.12,2.14,0.24" style="fill:none;stroke:black;stroke-width:3;opacity:0">
  <animate attributeType="CSS" attributeName="opacity" from="0" to="1" begin="3s" dur="1s" repeatCount="Indefinite" fill="freeze" />
</path>
<path d="M53.59,33.87c0.09,0.22,1.28,1.15,1.37,2.56c0.44,6.74,0.24,17.02,0.24,19.32" style="fill:none;stroke:black;stroke-width:3;opacity:0">
  <animate attributeType="CSS" attributeName="opacity" from="0" to="1" begin="4s" dur="1s" repeatCount="Indefinite" fill="freeze" />
</path>
<path d="M31.5,57.97c1.35,0.35,3.43,0.65,4.64,0.52c6.75-0.73,43.67-4.88,51.5-5.04c2.02-0.04,3.23,0.25,4.24,0.51" style="fill:none;stroke:black;stroke-width:3;opacity:0">
  <animate attributeType="CSS" attributeName="opacity" from="0" to="1" begin="5s" dur="1s" repeatCount="Indefinite" fill="freeze" />
</path>
<path d="M77.16,35.35c0.09,1.15,0.72,2.31-0.26,3.48C64.22,53.9,51.8,64.67,28.68,78.61" style="fill:none;stroke:black;stroke-width:3;opacity:0">
  <animate attributeType="CSS" attributeName="opacity" from="0" to="1" begin="6s" dur="1s" repeatCount="Indefinite" fill="freeze" />
</path>
<path d="M62.3,59.57c2.74,1.1,7.06,4.53,7.75,6.25" style="fill:none;stroke:black;stroke-width:3;opacity:0">
  <animate attributeType="CSS" attributeName="opacity" from="0" to="1" begin="7s" dur="1s" repeatCount="Indefinite" fill="freeze" />
</path>
<path d="M46.52,71.36c0.35,0.68,0.65,1.01,0.7,1.91c0.28,4.73,1.88,24.58,2,25.48" style="fill:none;stroke:black;stroke-width:3;opacity:0">
  <animate attributeType="CSS" attributeName="opacity" from="0" to="1" begin="8s" dur="1s" repeatCount="Indefinite" fill="freeze" />
</path>
<path d="M47.3,72.48c1.98-0.11,26.95-3.72,28.75-3.86c1.5-0.11,2.46,1.25,2.35,1.91c-0.24,1.35-2.46,25.82-2.46,26.49" style="fill:none;stroke:black;stroke-width:3;opacity:0">
  <animate attributeType="CSS" attributeName="opacity" from="0" to="1" begin="9s" dur="1s" repeatCount="Indefinite" fill="freeze" />
</path>
<path d="M48.15,83.63c2.67,0,25.95-2.41,28.97-2.41" style="fill:none;stroke:black;stroke-width:3;opacity:0">
  <animate attributeType="CSS" attributeName="opacity" from="0" to="1" begin="10s" dur="1s" repeatCount="Indefinite" fill="freeze" />
</path>
<path d="M49.53,96.73c5.44-0.48,19.8-2.27,26.58-2.69" style="fill:none;stroke:black;stroke-width:3;opacity:0">
  <animate attributeType="CSS" attributeName="opacity" from="0" to="1" begin="11s" dur="1s" repeatCount="Indefinite" fill="freeze" />
</path>
</svg>