<svg width="109px" height="109px" viewBox="0 0 px 109px" xmlns="http://www.w3.org/2000/svg" xmlns:xlink="http://www.w3.org/1999/xlink" xml:space="preserve" version="1.1"  baseProfile="full">
<path d="M25.4,17.03c1.35,0.72,3.11,0.89,5.13,0.74c10.92-0.82,41.97-4.02,48.6-4.53c2.17-0.09,3.12,1.64,3.12,3.02c-0.88,3.37-1.44,5.33-3.11,10.24" style="fill:none;stroke:black;stroke-width:3;opacity:0">
  <animate attributeType="CSS" attributeName="opacity" from="0" to="1" begin="0s" dur="1s" repeatCount="Indefinite" fill="freeze" />
</path>
<path d="M29.35,31.54c9.88-0.81,32.53-2.79,47.15-4.2c2.05-0.2,3.78-0.2,5.06-0.21" style="fill:none;stroke:black;stroke-width:3;opacity:0">
  <animate attributeType="CSS" attributeName="opacity" from="0" to="1" begin="1s" dur="1s" repeatCount="Indefinite" fill="freeze" />
</path>
<path d="M27.24,17.98c0.95,0.95,1.35,2.27,1.35,4.11C28.59,45.5,24,71,10,86.4" style="fill:none;stroke:black;stroke-width:3;opacity:0">
  <animate attributeType="CSS" attributeName="opacity" from="0" to="1" begin="2s" dur="1s" repeatCount="Indefinite" fill="freeze" />
</path>
<path d="M41.96,35.3c2.32,1.58,6,6.49,6.58,8.94" style="fill:none;stroke:black;stroke-width:3;opacity:0">
  <animate attributeType="CSS" attributeName="opacity" from="0" to="1" begin="3s" dur="1s" repeatCount="Indefinite" fill="freeze" />
</path>
<path d="M71.82,31.56c0.09,0.81-0.06,1.58-0.44,2.3c-1.19,2.66-4.5,6.6-8.76,10.64" style="fill:none;stroke:black;stroke-width:3;opacity:0">
  <animate attributeType="CSS" attributeName="opacity" from="0" to="1" begin="4s" dur="1s" repeatCount="Indefinite" fill="freeze" />
</path>
<path d="M33.04,47.59c0.74,0.74,1.29,1.67,1.44,2.29c1.27,5.24,2.06,9.95,2.83,15.61c0.21,1.52,0.39,2.98,0.56,4.31" style="fill:none;stroke:black;stroke-width:3;opacity:0">
  <animate attributeType="CSS" attributeName="opacity" from="0" to="1" begin="5s" dur="1s" repeatCount="Indefinite" fill="freeze" />
</path>
<path d="M35.37,49.11c11.91-1.28,34.24-3.6,45.63-4.35c4.13-0.27,5.12,0.45,4.43,4.37c-0.58,3.25-1.55,8.24-2.86,12.89c-0.38,1.33-0.77,2.65-1.17,3.92" style="fill:none;stroke:black;stroke-width:3;opacity:0">
  <animate attributeType="CSS" attributeName="opacity" from="0" to="1" begin="6s" dur="1s" repeatCount="Indefinite" fill="freeze" />
</path>
<path d="M57.43,47.9c0.84,0.84,1,2.07,0.99,3.37c-0.04,4.36-0.22,10.48-0.22,13.41" style="fill:none;stroke:black;stroke-width:3;opacity:0">
  <animate attributeType="CSS" attributeName="opacity" from="0" to="1" begin="7s" dur="1s" repeatCount="Indefinite" fill="freeze" />
</path>
<path d="M37.33,57.52c10.67-1.14,39.57-2.85,46.11-3.1" style="fill:none;stroke:black;stroke-width:3;opacity:0">
  <animate attributeType="CSS" attributeName="opacity" from="0" to="1" begin="8s" dur="1s" repeatCount="Indefinite" fill="freeze" />
</path>
<path d="M38.74,67.29c13.64-1.29,27.64-2.67,42.01-3.21" style="fill:none;stroke:black;stroke-width:3;opacity:0">
  <animate attributeType="CSS" attributeName="opacity" from="0" to="1" begin="9s" dur="1s" repeatCount="Indefinite" fill="freeze" />
</path>
<path d="M41.82,74.26c0.77,0.77,1.11,2.2,1.17,3.1c0.38,5.44,0.98,11.71,1.42,17.37c0.1,1.29,0.19,2.56,0.26,3.77" style="fill:none;stroke:black;stroke-width:3;opacity:0">
  <animate attributeType="CSS" attributeName="opacity" from="0" to="1" begin="10s" dur="1s" repeatCount="Indefinite" fill="freeze" />
</path>
<path d="M44.18,76.21c6.32-0.71,25.98-2.73,28.99-2.84c2.51-0.09,3.21,2.06,3.14,2.6c-0.34,2.73-0.77,9.04-1.42,17.04c-0.11,1.3-0.22,2.65-0.36,4.02" style="fill:none;stroke:black;stroke-width:3;opacity:0">
  <animate attributeType="CSS" attributeName="opacity" from="0" to="1" begin="11s" dur="1s" repeatCount="Indefinite" fill="freeze" />
</path>
<path d="M44.3,85.74c6.82-0.49,21.7-1.49,30.17-1.75" style="fill:none;stroke:black;stroke-width:3;opacity:0">
  <animate attributeType="CSS" attributeName="opacity" from="0" to="1" begin="12s" dur="1s" repeatCount="Indefinite" fill="freeze" />
</path>
<path d="M45.54,95.55c8.86-0.34,19.66-0.95,28.22-0.95" style="fill:none;stroke:black;stroke-width:3;opacity:0">
  <animate attributeType="CSS" attributeName="opacity" from="0" to="1" begin="13s" dur="1s" repeatCount="Indefinite" fill="freeze" />
</path>
</svg>