<svg width="109px" height="109px" viewBox="0 0 px 109px" xmlns="http://www.w3.org/2000/svg" xmlns:xlink="http://www.w3.org/1999/xlink" xml:space="preserve" version="1.1"  baseProfile="full">
<path d="M21.94,19.89c1.15,1.15,1.41,2.61,1.41,4.78c0,6.33,0.23,65.23,0.23,68.83" style="fill:none;stroke:black;stroke-width:3;opacity:0">
  <animate attributeType="CSS" attributeName="opacity" from="0" to="1" begin="0s" dur="1s" repeatCount="Indefinite" fill="freeze" />
</path>
<path d="M24.35,21.79c11.4-1.54,40.9-4.67,54.41-6.06c4.52-0.46,7.81,0.57,7.81,5.64c0,11-0.19,61.18-0.19,66.13c0,11.12-4.62,4.81-7.35,1.69" style="fill:none;stroke:black;stroke-width:3;opacity:0">
  <animate attributeType="CSS" attributeName="opacity" from="0" to="1" begin="1s" dur="1s" repeatCount="Indefinite" fill="freeze" />
</path>
<path d="M39.02,28.66c2.8,1.95,7.24,8.04,7.94,11.08" style="fill:none;stroke:black;stroke-width:3;opacity:0">
  <animate attributeType="CSS" attributeName="opacity" from="0" to="1" begin="2s" dur="1s" repeatCount="Indefinite" fill="freeze" />
</path>
<path d="M67.02,24.44c0.09,1.14-0.08,2.25-0.51,3.32c-2.02,4.12-4.02,8.12-8.59,13.92" style="fill:none;stroke:black;stroke-width:3;opacity:0">
  <animate attributeType="CSS" attributeName="opacity" from="0" to="1" begin="3s" dur="1s" repeatCount="Indefinite" fill="freeze" />
</path>
<path d="M30.25,46.64c3.08,0.6,6.07,0.03,9.23-0.3c10.35-1.09,24.89-2.96,33.52-3.68c2.45-0.21,5-0.03,7.25,0.11" style="fill:none;stroke:black;stroke-width:3;opacity:0">
  <animate attributeType="CSS" attributeName="opacity" from="0" to="1" begin="4s" dur="1s" repeatCount="Indefinite" fill="freeze" />
</path>
<path d="M52.84,46.25c0.77,0.77,1.06,1.88,1.06,2.88c0,3.24-0.02,15.99-0.02,20.37" style="fill:none;stroke:black;stroke-width:3;opacity:0">
  <animate attributeType="CSS" attributeName="opacity" from="0" to="1" begin="5s" dur="1s" repeatCount="Indefinite" fill="freeze" />
</path>
<path d="M36.89,58.35c0.63,0.63,0.76,1.96,0.69,2.51c-0.45,3.26-1.22,5.9-2.07,9.38c-0.6,2.44,0.39,3.44,3.25,2.88C49.62,71,60.5,69.88,72.54,69.22" style="fill:none;stroke:black;stroke-width:3;opacity:0">
  <animate attributeType="CSS" attributeName="opacity" from="0" to="1" begin="6s" dur="1s" repeatCount="Indefinite" fill="freeze" />
</path>
<path d="M73.21,53.29c0.69,0.69,0.79,1.96,0.69,3.38c-0.31,4.08-0.39,9.08-0.89,16.08" style="fill:none;stroke:black;stroke-width:3;opacity:0">
  <animate attributeType="CSS" attributeName="opacity" from="0" to="1" begin="7s" dur="1s" repeatCount="Indefinite" fill="freeze" />
</path>
</svg>