<svg width="109px" height="109px" viewBox="0 0 px 109px" xmlns="http://www.w3.org/2000/svg" xmlns:xlink="http://www.w3.org/1999/xlink" xml:space="preserve" version="1.1"  baseProfile="full">
<path d="M22.09,25.52c0.56,0.32,1.87,2.42,1.87,3.08c0,6.8-0.26,33.01-0.26,41.74" style="fill:none;stroke:black;stroke-width:3;opacity:0">
  <animate attributeType="CSS" attributeName="opacity" from="0" to="1" begin="0s" dur="1s" repeatCount="Indefinite" fill="freeze" />
</path>
<path d="M11.51,45.73c0.62,0.36,1.29,1.87,1.24,2.59C12.4,53.3,11.5,62,10.67,71.17c-0.15,1.64,0.18,2,1.69,1.63c8.59-2.08,12.03-2.53,22.47-4.6" style="fill:none;stroke:black;stroke-width:3;opacity:0">
  <animate attributeType="CSS" attributeName="opacity" from="0" to="1" begin="1s" dur="1s" repeatCount="Indefinite" fill="freeze" />
</path>
<path d="M35.57,43.31c0.62,0.36,1.24,2.66,1.24,3.39c0,5.59-1.05,16.55-1.85,26.41" style="fill:none;stroke:black;stroke-width:3;opacity:0">
  <animate attributeType="CSS" attributeName="opacity" from="0" to="1" begin="2s" dur="1s" repeatCount="Indefinite" fill="freeze" />
</path>
<path d="M50.89,11.52c2.67,2.08,6.89,8.54,7.56,11.77" style="fill:none;stroke:black;stroke-width:3;opacity:0">
  <animate attributeType="CSS" attributeName="opacity" from="0" to="1" begin="3s" dur="1s" repeatCount="Indefinite" fill="freeze" />
</path>
<path d="M78.93,10.52c0.02,0.32,0.05,0.83-0.05,1.29c-0.57,2.73-3.87,8.72-8.38,12.39" style="fill:none;stroke:black;stroke-width:3;opacity:0">
  <animate attributeType="CSS" attributeName="opacity" from="0" to="1" begin="4s" dur="1s" repeatCount="Indefinite" fill="freeze" />
</path>
<path d="M44.92,28.32c0.78,0.43,2.19,0.51,2.97,0.43c6.19-0.65,32.36-4.16,39.34-4c1.29,0.03,2.07,0.2,2.71,0.42" style="fill:none;stroke:black;stroke-width:3;opacity:0">
  <animate attributeType="CSS" attributeName="opacity" from="0" to="1" begin="5s" dur="1s" repeatCount="Indefinite" fill="freeze" />
</path>
<path d="M47.39,41.29c0.72,0.28,2.03,0.31,2.76,0.28c5.95-0.25,23.08-3.07,31.23-3.2c1.2-0.02,1.92,0.13,2.52,0.27" style="fill:none;stroke:black;stroke-width:3;opacity:0">
  <animate attributeType="CSS" attributeName="opacity" from="0" to="1" begin="6s" dur="1s" repeatCount="Indefinite" fill="freeze" />
</path>
<path d="M42.27,54.6c1.05,0.51,2.98,0.58,4.03,0.51c5.84-0.38,35.16-3.11,46.2-3.43c1.75-0.05,2.8,0.25,3.68,0.5" style="fill:none;stroke:black;stroke-width:3;opacity:0">
  <animate attributeType="CSS" attributeName="opacity" from="0" to="1" begin="7s" dur="1s" repeatCount="Indefinite" fill="freeze" />
</path>
<path d="M64.21,28.16c0.87,0.47,1.38,2.12,1.56,3.07c0.17,0.94,0,14.67-0.17,20.57" style="fill:none;stroke:black;stroke-width:3;opacity:0">
  <animate attributeType="CSS" attributeName="opacity" from="0" to="1" begin="8s" dur="1s" repeatCount="Indefinite" fill="freeze" />
</path>
<path d="M53.89,56.84c0.07,0.86,0.31,2.33-0.14,3.46C50.77,67.8,44,82.75,31.34,92.73" style="fill:none;stroke:black;stroke-width:3;opacity:0">
  <animate attributeType="CSS" attributeName="opacity" from="0" to="1" begin="9s" dur="1s" repeatCount="Indefinite" fill="freeze" />
</path>
<path d="M53.36,69.41c0.63,0.48,2.67,0.56,3.31,0.49c6.32-0.65,23.83-2.83,28.8-3.33c0.97-0.1,1.85,0.09,2.65,0.5" style="fill:none;stroke:black;stroke-width:3;opacity:0">
  <animate attributeType="CSS" attributeName="opacity" from="0" to="1" begin="10s" dur="1s" repeatCount="Indefinite" fill="freeze" />
</path>
<path d="M68.29,69.63c0.66,1.16,0.66,1.85,0.66,2.77c0,6.47,0,15.52-0.17,21.99" style="fill:none;stroke:black;stroke-width:3;opacity:0">
  <animate attributeType="CSS" attributeName="opacity" from="0" to="1" begin="11s" dur="1s" repeatCount="Indefinite" fill="freeze" />
</path>
<path d="M43.07,95.93c1.18,0.32,2.44,0.62,4.11,0.5C64,95.25,77.5,94,91.04,94.59c1.95,0.08,4.3,0.25,5.28,0.48" style="fill:none;stroke:black;stroke-width:3;opacity:0">
  <animate attributeType="CSS" attributeName="opacity" from="0" to="1" begin="12s" dur="1s" repeatCount="Indefinite" fill="freeze" />
</path>
</svg>