<svg width="109px" height="109px" viewBox="0 0 px 109px" xmlns="http://www.w3.org/2000/svg" xmlns:xlink="http://www.w3.org/1999/xlink" xml:space="preserve" version="1.1"  baseProfile="full">
<path d="M35.21,14.37c1.04,0.88,1.49,4,0.75,5.75C32,29.5,27.25,40.75,20.5,52.75c-1.3,2.32-0.52,2.11,0,3C27,67,34.75,80,37.5,95.25" style="fill:none;stroke:black;stroke-width:3;opacity:0">
  <animate attributeType="CSS" attributeName="opacity" from="0" to="1" begin="0s" dur="1s" repeatCount="Indefinite" fill="freeze" />
</path>
<path d="M58.21,13.87c1.04,0.88,1.39,3.96,0.75,5.75C55.5,29.25,52.75,40.75,46.25,52c-0.71,1.22-0.29,2.37,0.25,3.25c6.5,10.5,13,22,17,39" style="fill:none;stroke:black;stroke-width:3;opacity:0">
  <animate attributeType="CSS" attributeName="opacity" from="0" to="1" begin="1s" dur="1s" repeatCount="Indefinite" fill="freeze" />
</path>
<path d="M84.21,14.87c1.04,0.88,1.35,3.94,0.75,5.75C81.5,31,77.25,41.75,70.75,53c-0.71,1.22-0.29,2.37,0.25,3.25c6.5,10.5,13,21,17,38" style="fill:none;stroke:black;stroke-width:3;opacity:0">
  <animate attributeType="CSS" attributeName="opacity" from="0" to="1" begin="2s" dur="1s" repeatCount="Indefinite" fill="freeze" />
</path>
</svg>