<svg width="109px" height="109px" viewBox="0 0 px 109px" xmlns="http://www.w3.org/2000/svg" xmlns:xlink="http://www.w3.org/1999/xlink" xml:space="preserve" version="1.1"  baseProfile="full">
<path d="M36.45,14.83c3.33,1.96,8.6,8.07,9.43,11.12" style="fill:none;stroke:black;stroke-width:3;opacity:0">
  <animate attributeType="CSS" attributeName="opacity" from="0" to="1" begin="0s" dur="1s" repeatCount="0" fill="freeze" />
</path>
<path d="M69.56,11.52c0.03,0.42,0.05,1.09-0.05,1.69c-0.63,3.57-4.25,11.4-9.22,16.19" style="fill:none;stroke:black;stroke-width:3;opacity:0">
  <animate attributeType="CSS" attributeName="opacity" from="0" to="1" begin="1s" dur="1s" repeatCount="0" fill="freeze" />
</path>
<path d="M30.88,33.18c0.81,0.34,2.3,0.41,3.11,0.34c6.48-0.52,33.86-3.31,41.17-3.18c1.35,0.02,2.16,0.16,2.84,0.33" style="fill:none;stroke:black;stroke-width:3;opacity:0">
  <animate attributeType="CSS" attributeName="opacity" from="0" to="1" begin="2s" dur="1s" repeatCount="0" fill="freeze" />
</path>
<path d="M33.34,45.22c0.81,0.34,2.29,0.38,3.11,0.34c6.71-0.31,26.02-3.81,35.22-3.96c1.35-0.02,2.16,0.16,2.84,0.33" style="fill:none;stroke:black;stroke-width:3;opacity:0">
  <animate attributeType="CSS" attributeName="opacity" from="0" to="1" begin="3s" dur="1s" repeatCount="0" fill="freeze" />
</path>
<path d="M19.48,57.87c1.31,0.48,3.71,0.55,5.02,0.48C31.78,58,72.09,54,85.87,53.69c2.18-0.05,3.5,0.23,4.59,0.47" style="fill:none;stroke:black;stroke-width:3;opacity:0">
  <animate attributeType="CSS" attributeName="opacity" from="0" to="1" begin="4s" dur="1s" repeatCount="0" fill="freeze" />
</path>
<path d="M53.07,32.43c1.08,0.45,1.73,2.01,1.94,2.9s0.5,13.86,0.28,19.43" style="fill:none;stroke:black;stroke-width:3;opacity:0">
  <animate attributeType="CSS" attributeName="opacity" from="0" to="1" begin="5s" dur="1s" repeatCount="0" fill="freeze" />
</path>
<path d="M40.21,59.52c0.08,0.82,0.35,2.22-0.16,3.29c-3.39,7.13-11.46,19.87-25.49,30.84" style="fill:none;stroke:black;stroke-width:3;opacity:0">
  <animate attributeType="CSS" attributeName="opacity" from="0" to="1" begin="6s" dur="1s" repeatCount="0" fill="freeze" />
</path>
<path d="M43.28,71.86c0.78,0.45,3.34,0.6,4.13,0.46c3.69-0.61,20.99-3.15,27.19-3.62c1.21-0.09,2.31,0.09,3.31,0.47" style="fill:none;stroke:black;stroke-width:3;opacity:0">
  <animate attributeType="CSS" attributeName="opacity" from="0" to="1" begin="7s" dur="1s" repeatCount="0" fill="freeze" />
</path>
<path d="M60.03,72.54c0.83,1.09,0.83,1.75,0.83,2.62c0,6.11,0,12.3-0.21,18.41" style="fill:none;stroke:black;stroke-width:3;opacity:0">
  <animate attributeType="CSS" attributeName="opacity" from="0" to="1" begin="8s" dur="1s" repeatCount="0" fill="freeze" />
</path>
<path d="M33.25,96.32c0.76,0.28,3.06,0.18,4.34,0c13.02-1.79,34.24-3.07,46.84-3.48c2.07-0.07,4.55,0.46,5.58,0.9" style="fill:none;stroke:black;stroke-width:3;opacity:0">
  <animate attributeType="CSS" attributeName="opacity" from="0" to="1" begin="9s" dur="1s" repeatCount="0" fill="freeze" />
</path>
</svg>