<svg width="109px" height="109px" viewBox="0 0 px 109px" xmlns="http://www.w3.org/2000/svg" xmlns:xlink="http://www.w3.org/1999/xlink" xml:space="preserve" version="1.1"  baseProfile="full">
<path d="M25.75,19.89c2.38,1.39,4.42,1.39,7.92,0.93c7.1-0.93,38.05-4.15,40.22-4.33c2.86-0.23,5.11,1.52,4.09,5.1c-0.3,1.07-2.73,12.42-4.73,22.67" style="fill:none;stroke:black;stroke-width:3;opacity:0">
  <animate attributeType="CSS" attributeName="opacity" from="0" to="1" begin="0s" dur="1s" repeatCount="0" fill="freeze" />
</path>
<path d="M30.25,48.75c5.25-0.5,30-2.5,45.5-4.5" style="fill:none;stroke:black;stroke-width:3;opacity:0">
  <animate attributeType="CSS" attributeName="opacity" from="0" to="1" begin="1s" dur="1s" repeatCount="0" fill="freeze" />
</path>
<path d="M28.74,34.87c1.16,1.69,1.67,3.68,1.65,6.28c-0.04,7.6-0.28,23.71-0.28,30.6C30.11,93.25,33.1,92,61.94,92C93.06,92,91,85.5,91,76.75" style="fill:none;stroke:black;stroke-width:3;opacity:0">
  <animate attributeType="CSS" attributeName="opacity" from="0" to="1" begin="2s" dur="1s" repeatCount="0" fill="freeze" />
</path>
</svg>