<svg width="109px" height="109px" viewBox="0 0 px 109px" xmlns="http://www.w3.org/2000/svg" xmlns:xlink="http://www.w3.org/1999/xlink" xml:space="preserve" version="1.1"  baseProfile="full">
<path d="M21.5,18.06c3,0.57,5.48,0.35,8.11,0.16c12.18-0.92,34.11-2.52,47.14-2.83c2.68-0.06,5.35-0.16,7.99,0.38" style="fill:none;stroke:black;stroke-width:3;opacity:0">
  <animate attributeType="CSS" attributeName="opacity" from="0" to="1" begin="0s" dur="1s" repeatCount="Indefinite" fill="freeze" />
</path>
<path d="M37.75,11.24c1.12,0.51,1.61,1.44,1.75,2.03c1.25,5.36,2,8.87,2.5,10.81" style="fill:none;stroke:black;stroke-width:3;opacity:0">
  <animate attributeType="CSS" attributeName="opacity" from="0" to="1" begin="1s" dur="1s" repeatCount="Indefinite" fill="freeze" />
</path>
<path d="M66.1,8.75c0.35,0.81,0.48,1.89,0.17,2.9c-1.47,4.79-1.85,5.86-3.52,10.65" style="fill:none;stroke:black;stroke-width:3;opacity:0">
  <animate attributeType="CSS" attributeName="opacity" from="0" to="1" begin="2s" dur="1s" repeatCount="Indefinite" fill="freeze" />
</path>
<path d="M31.02,29.46c0.83,0.83,1.34,1.91,1.44,2.49c0.67,4.05,2.17,9.88,2.76,13.77c0.28,1.85,0.47,3.13,0.47,3.23" style="fill:none;stroke:black;stroke-width:3;opacity:0">
  <animate attributeType="CSS" attributeName="opacity" from="0" to="1" begin="3s" dur="1s" repeatCount="Indefinite" fill="freeze" />
</path>
<path d="M33,31.03c7.62-1,29.26-3.43,36.36-4.1c3.47-0.33,5.81,0.17,5.12,4.22c-0.51,3-1.67,7.57-2.5,11.6c-0.28,1.35-0.67,2.5-0.94,3.36" style="fill:none;stroke:black;stroke-width:3;opacity:0">
  <animate attributeType="CSS" attributeName="opacity" from="0" to="1" begin="4s" dur="1s" repeatCount="Indefinite" fill="freeze" />
</path>
<path d="M34.98,38.88c7.39-0.76,33.3-3.4,37.48-3.4" style="fill:none;stroke:black;stroke-width:3;opacity:0">
  <animate attributeType="CSS" attributeName="opacity" from="0" to="1" begin="5s" dur="1s" repeatCount="Indefinite" fill="freeze" />
</path>
<path d="M36.93,47.34c9.82-1.09,23.82-2.57,33.18-2.84" style="fill:none;stroke:black;stroke-width:3;opacity:0">
  <animate attributeType="CSS" attributeName="opacity" from="0" to="1" begin="6s" dur="1s" repeatCount="Indefinite" fill="freeze" />
</path>
<path d="M14.88,59.24c2.8,0.57,5.91,0.47,8.74,0.25c18.6-1.49,46.42-3.25,61.88-4.08c2.72-0.15,5.75-0.03,8.75,0.5" style="fill:none;stroke:black;stroke-width:3;opacity:0">
  <animate attributeType="CSS" attributeName="opacity" from="0" to="1" begin="7s" dur="1s" repeatCount="Indefinite" fill="freeze" />
</path>
<path d="M47.13,49.43c-0.1,1.18-0.35,2.46-0.89,3.35C38.88,65,29.5,75.25,12.25,84.5" style="fill:none;stroke:black;stroke-width:3;opacity:0">
  <animate attributeType="CSS" attributeName="opacity" from="0" to="1" begin="8s" dur="1s" repeatCount="Indefinite" fill="freeze" />
</path>
<path d="M61.25,52.35c5.07,2.24,17.82,15.84,25.89,22.48c1.49,1.22,4.73,3.29,7.36,4.57" style="fill:none;stroke:black;stroke-width:3;opacity:0">
  <animate attributeType="CSS" attributeName="opacity" from="0" to="1" begin="9s" dur="1s" repeatCount="Indefinite" fill="freeze" />
</path>
<path d="M37.99,74.8c0.73,0.73,1,1.83,1,2.54c0,0.42,0,8.45-0.08,13.67c-0.02,1.58-0.05,2.9-0.07,3.67" style="fill:none;stroke:black;stroke-width:3;opacity:0">
  <animate attributeType="CSS" attributeName="opacity" from="0" to="1" begin="10s" dur="1s" repeatCount="Indefinite" fill="freeze" />
</path>
<path d="M40.14,75.99c4.23-0.61,27.63-3.96,29.75-4.08c2.49-0.14,2.91,1.35,2.94,2.58c0.17,6.76-0.08,12.01-1.04,17.32c-0.79,4.38-3.73,0.6-4.93-0.9" style="fill:none;stroke:black;stroke-width:3;opacity:0">
  <animate attributeType="CSS" attributeName="opacity" from="0" to="1" begin="11s" dur="1s" repeatCount="Indefinite" fill="freeze" />
</path>
<path d="M53.88,63.88c0.99,0.99,1.24,2.24,1.24,3.45c0,2.17-0.02,20.18-0.11,29.42c-0.02,1.97-0.04,3.45-0.06,4.13" style="fill:none;stroke:black;stroke-width:3;opacity:0">
  <animate attributeType="CSS" attributeName="opacity" from="0" to="1" begin="12s" dur="1s" repeatCount="Indefinite" fill="freeze" />
</path>
</svg>