<svg width="109px" height="109px" viewBox="0 0 px 109px" xmlns="http://www.w3.org/2000/svg" xmlns:xlink="http://www.w3.org/1999/xlink" xml:space="preserve" version="1.1"  baseProfile="full">
<path d="M13.49,33.81c0.43,0.39,1.33,2.88,1.42,3.65c0.34,3.04,0.44,33.67,0.36,38.48" style="fill:none;stroke:black;stroke-width:3;opacity:0">
  <animate attributeType="CSS" attributeName="opacity" from="0" to="1" begin="0s" dur="1s" repeatCount="Indefinite" fill="freeze" />
</path>
<path d="M14.79,35.75c2.47-0.27,21.15-3.91,22.99-4.07c2.16-0.19,3.52,1.34,3.55,3.07c0.17,8.75-0.09,26.35-1.36,34.89c-0.91,6.14-4.25,1.85-5.29-0.27" style="fill:none;stroke:black;stroke-width:3;opacity:0">
  <animate attributeType="CSS" attributeName="opacity" from="0" to="1" begin="1s" dur="1s" repeatCount="Indefinite" fill="freeze" />
</path>
<path d="M25.5,14.13c0.61,0.42,1.89,3.18,2.01,4.03c0.12,0.85-0.08,74.16-0.2,79.47" style="fill:none;stroke:black;stroke-width:3;opacity:0">
  <animate attributeType="CSS" attributeName="opacity" from="0" to="1" begin="2s" dur="1s" repeatCount="Indefinite" fill="freeze" />
</path>
<path d="M67.78,10.75c0.88,0.73,1.32,0.73,1.32,2.45c0,1.71,0,4.15,0,8.8" style="fill:none;stroke:black;stroke-width:3;opacity:0">
  <animate attributeType="CSS" attributeName="opacity" from="0" to="1" begin="3s" dur="1s" repeatCount="Indefinite" fill="freeze" />
</path>
<path d="M49.86,23.91c1.02,0.32,2.23,0.37,3.25,0.32c5.78-0.28,26.36-3.53,35.11-3.76c1.71-0.05,2.73,0.15,3.58,0.31" style="fill:none;stroke:black;stroke-width:3;opacity:0">
  <animate attributeType="CSS" attributeName="opacity" from="0" to="1" begin="4s" dur="1s" repeatCount="Indefinite" fill="freeze" />
</path>
<path d="M57.1,26.45c2.8,3.5,4.07,6.58,4.33,8.89" style="fill:none;stroke:black;stroke-width:3;opacity:0">
  <animate attributeType="CSS" attributeName="opacity" from="0" to="1" begin="5s" dur="1s" repeatCount="Indefinite" fill="freeze" />
</path>
<path d="M81.83,23.92c0.42,0.83,0.45,2.03,0.4,2.32c-0.32,1.98-3.28,6.78-4.08,8.29" style="fill:none;stroke:black;stroke-width:3;opacity:0">
  <animate attributeType="CSS" attributeName="opacity" from="0" to="1" begin="6s" dur="1s" repeatCount="Indefinite" fill="freeze" />
</path>
<path d="M47.22,39.26c1.15,0.34,2.49,0.46,3.63,0.34c12.9-1.35,28.44-4.16,42.91-4.86c1.91-0.09,3.06,0.16,4.01,0.33" style="fill:none;stroke:black;stroke-width:3;opacity:0">
  <animate attributeType="CSS" attributeName="opacity" from="0" to="1" begin="7s" dur="1s" repeatCount="Indefinite" fill="freeze" />
</path>
<path d="M51.26,48.14c0.27,0.35,0.28,0.59,0.43,1.02c1.23,3.6,2.81,14.15,3.57,20.86" style="fill:none;stroke:black;stroke-width:3;opacity:0">
  <animate attributeType="CSS" attributeName="opacity" from="0" to="1" begin="8s" dur="1s" repeatCount="Indefinite" fill="freeze" />
</path>
<path d="M52.54,48.63c9.55-0.91,26.91-2.92,34.04-3.68c2.62-0.28,4.38,2.13,4.24,3.12c-0.49,3.63-2.32,11.42-4.16,19.13" style="fill:none;stroke:black;stroke-width:3;opacity:0">
  <animate attributeType="CSS" attributeName="opacity" from="0" to="1" begin="9s" dur="1s" repeatCount="Indefinite" fill="freeze" />
</path>
<path d="M54.32,58.44c3.11-0.35,31.43-2.48,34-2.62" style="fill:none;stroke:black;stroke-width:3;opacity:0">
  <animate attributeType="CSS" attributeName="opacity" from="0" to="1" begin="10s" dur="1s" repeatCount="Indefinite" fill="freeze" />
</path>
<path d="M55.34,68.14c6.87-0.39,21.83-2.04,31.32-2.67" style="fill:none;stroke:black;stroke-width:3;opacity:0">
  <animate attributeType="CSS" attributeName="opacity" from="0" to="1" begin="11s" dur="1s" repeatCount="Indefinite" fill="freeze" />
</path>
<path d="M68.8,48.14c0.58,0.55,1.01,1.58,1.04,2.92c0.2,9.83,0.07,37.57,0.07,40.32" style="fill:none;stroke:black;stroke-width:3;opacity:0">
  <animate attributeType="CSS" attributeName="opacity" from="0" to="1" begin="12s" dur="1s" repeatCount="Indefinite" fill="freeze" />
</path>
<path d="M52.18,80.01c0.68,0.32,1.92,0.35,2.6,0.32c7.06-0.36,22.59-2.58,31.32-2.65c1.13-0.01,1.81,0.15,2.37,0.31" style="fill:none;stroke:black;stroke-width:3;opacity:0">
  <animate attributeType="CSS" attributeName="opacity" from="0" to="1" begin="13s" dur="1s" repeatCount="Indefinite" fill="freeze" />
</path>
<path d="M40.93,93.53c1.1,0.44,3.11,0.52,4.21,0.44c11.41-0.75,35.22-3.35,50.81-3.35c1.83,0,2.92,0.21,3.84,0.44" style="fill:none;stroke:black;stroke-width:3;opacity:0">
  <animate attributeType="CSS" attributeName="opacity" from="0" to="1" begin="14s" dur="1s" repeatCount="Indefinite" fill="freeze" />
</path>
</svg>