<svg width="109px" height="109px" viewBox="0 0 px 109px" xmlns="http://www.w3.org/2000/svg" xmlns:xlink="http://www.w3.org/1999/xlink" xml:space="preserve" version="1.1"  baseProfile="full">
<path d="M58.81,13.38c1.09,1.09,1.26,2.37,1.26,3.9c0,0.79-0.07,5.46-0.07,10.21" style="fill:none;stroke:black;stroke-width:3;opacity:0">
  <animate attributeType="CSS" attributeName="opacity" from="0" to="1" begin="0s" dur="1s" repeatCount="Indefinite" fill="freeze" />
</path>
<path d="M28.63,30.48c2.92,1.15,6.59,0.47,9.62,0.23c12.9-1.03,29.32-3.1,44.63-3.59c2.86-0.09,5.7-0.21,8.5,0.45" style="fill:none;stroke:black;stroke-width:3;opacity:0">
  <animate attributeType="CSS" attributeName="opacity" from="0" to="1" begin="1s" dur="1s" repeatCount="Indefinite" fill="freeze" />
</path>
<path d="M30.48,32c0.95,0.95,0.73,2.49,0.63,4.45c-0.74,14.17-3.24,37.05-20.06,53.52" style="fill:none;stroke:black;stroke-width:3;opacity:0">
  <animate attributeType="CSS" attributeName="opacity" from="0" to="1" begin="2s" dur="1s" repeatCount="Indefinite" fill="freeze" />
</path>
<path d="M41.71,62.81c1.98,0.77,5.02,0.68,7.04,0.51c9.7-0.82,22.04-2.14,31.24-2.56c1.78-0.08,3.86,0.07,5.58,0.47" style="fill:none;stroke:black;stroke-width:3;opacity:0">
  <animate attributeType="CSS" attributeName="opacity" from="0" to="1" begin="3s" dur="1s" repeatCount="Indefinite" fill="freeze" />
</path>
<path d="M60.67,38.37c1.11,1.1,1.27,2.27,1.27,4.14c0,12-0.07,29.63-0.07,45.5" style="fill:none;stroke:black;stroke-width:3;opacity:0">
  <animate attributeType="CSS" attributeName="opacity" from="0" to="1" begin="4s" dur="1s" repeatCount="Indefinite" fill="freeze" />
</path>
<path d="M30.15,90.06c2.96,1.05,6.52,0.83,9.6,0.59c13.74-1.05,31.97-2.2,44.88-2.84c3.38-0.17,6.68,0,9.98,0.71" style="fill:none;stroke:black;stroke-width:3;opacity:0">
  <animate attributeType="CSS" attributeName="opacity" from="0" to="1" begin="5s" dur="1s" repeatCount="Indefinite" fill="freeze" />
</path>
</svg>