<svg width="109px" height="109px" viewBox="0 0 px 109px" xmlns="http://www.w3.org/2000/svg" xmlns:xlink="http://www.w3.org/1999/xlink" xml:space="preserve" version="1.1"  baseProfile="full">
<path d="M54.81,12.38c1.09,1.09,1.51,2.62,1.51,4.4c0,1.46-0.07,6.71-0.07,9.21" style="fill:none;stroke:black;stroke-width:3;opacity:0">
  <animate attributeType="CSS" attributeName="opacity" from="0" to="1" begin="0s" dur="1s" repeatCount="Indefinite" fill="freeze" />
</path>
<path d="M23.63,29.23c3.5,0.77,6.89,0.34,10,0.03c15.4-1.54,31.85-2.97,47.39-4.25c2.73-0.23,5.18-0.26,7.87,0.32" style="fill:none;stroke:black;stroke-width:3;opacity:0">
  <animate attributeType="CSS" attributeName="opacity" from="0" to="1" begin="1s" dur="1s" repeatCount="Indefinite" fill="freeze" />
</path>
<path d="M26.24,30.25c1.07,1.07,1.26,2.53,1.15,4.5C26.5,50.75,24,76.5,10.56,89.72" style="fill:none;stroke:black;stroke-width:3;opacity:0">
  <animate attributeType="CSS" attributeName="opacity" from="0" to="1" begin="2s" dur="1s" repeatCount="Indefinite" fill="freeze" />
</path>
<path d="M35.24,48.8c2.64,0.45,5.44,0.33,7.75,0.06c11.64-1.36,27.14-3.11,40.5-3.58c2.55-0.09,5.02-0.12,7.52,0.47" style="fill:none;stroke:black;stroke-width:3;opacity:0">
  <animate attributeType="CSS" attributeName="opacity" from="0" to="1" begin="3s" dur="1s" repeatCount="Indefinite" fill="freeze" />
</path>
<path d="M61.91,49.49c0.86,0.86,1.3,2.13,1.3,3.93c0,12.35-0.09,35.12-0.09,39.32c0,9.53-7.25-0.08-8.51-1.14" style="fill:none;stroke:black;stroke-width:3;opacity:0">
  <animate attributeType="CSS" attributeName="opacity" from="0" to="1" begin="4s" dur="1s" repeatCount="Indefinite" fill="freeze" />
</path>
</svg>