<svg width="109px" height="109px" viewBox="0 0 px 109px" xmlns="http://www.w3.org/2000/svg" xmlns:xlink="http://www.w3.org/1999/xlink" xml:space="preserve" version="1.1"  baseProfile="full">
<path d="M53.81,13.88c1.22,1.22,1.51,2.87,1.51,4.4c0,0.79-0.07,4.96-0.07,7.71" style="fill:none;stroke:black;stroke-width:3;opacity:0">
  <animate attributeType="CSS" attributeName="opacity" from="0" to="1" begin="0s" dur="1s" repeatCount="Indefinite" fill="freeze" />
</path>
<path d="M21.13,28.82c2.87,0.68,6.55,0.48,9.61,0.24c15.51-1.19,32.65-2.29,48.51-3.1c3.13-0.16,6.05-0.3,9.13,0.28" style="fill:none;stroke:black;stroke-width:3;opacity:0">
  <animate attributeType="CSS" attributeName="opacity" from="0" to="1" begin="1s" dur="1s" repeatCount="Indefinite" fill="freeze" />
</path>
<path d="M24,29.5c0.88,0.88,1.2,2.13,1.16,3.36c-0.66,21.77-1.78,40.89-14.85,60.11" style="fill:none;stroke:black;stroke-width:3;opacity:0">
  <animate attributeType="CSS" attributeName="opacity" from="0" to="1" begin="2s" dur="1s" repeatCount="Indefinite" fill="freeze" />
</path>
<path d="M43.35,41.05c0.06,1.13-0.13,2.21-0.59,3.25C40.69,50.16,36,56.23,28.71,63.26" style="fill:none;stroke:black;stroke-width:3;opacity:0">
  <animate attributeType="CSS" attributeName="opacity" from="0" to="1" begin="3s" dur="1s" repeatCount="Indefinite" fill="freeze" />
</path>
<path d="M42.75,51c3.28,1.76,7.48,6.43,9.08,10.86" style="fill:none;stroke:black;stroke-width:3;opacity:0">
  <animate attributeType="CSS" attributeName="opacity" from="0" to="1" begin="4s" dur="1s" repeatCount="Indefinite" fill="freeze" />
</path>
<path d="M78.77,39.42c0.08,1.1,0.09,2.13-0.46,3.1c-2.03,4.88-6.2,11.76-11.74,17.42" style="fill:none;stroke:black;stroke-width:3;opacity:0">
  <animate attributeType="CSS" attributeName="opacity" from="0" to="1" begin="5s" dur="1s" repeatCount="Indefinite" fill="freeze" />
</path>
<path d="M78.62,49.75c3.95,2.88,6.99,6.49,9.35,10.87" style="fill:none;stroke:black;stroke-width:3;opacity:0">
  <animate attributeType="CSS" attributeName="opacity" from="0" to="1" begin="6s" dur="1s" repeatCount="Indefinite" fill="freeze" />
</path>
<path d="M37.31,74.62c1.57,0.38,4.01,0.5,5.56,0.34c8.95-0.94,20.41-2.36,29.76-2.83c2.27-0.11,4.9-0.12,7.11,0.39" style="fill:none;stroke:black;stroke-width:3;opacity:0">
  <animate attributeType="CSS" attributeName="opacity" from="0" to="1" begin="7s" dur="1s" repeatCount="Indefinite" fill="freeze" />
</path>
<path d="M25.73,93.33c2.79,0.99,6.64,0.55,9.53,0.34c14.21-1.03,34.73-1.85,47.99-2.45c3.08-0.14,6.04,0.1,9.03,0.74" style="fill:none;stroke:black;stroke-width:3;opacity:0">
  <animate attributeType="CSS" attributeName="opacity" from="0" to="1" begin="8s" dur="1s" repeatCount="Indefinite" fill="freeze" />
</path>
<path d="M57.53,34.87c0.74,0.74,1.22,2.01,1.22,3.56c0,9.95,0,39.29,0,52.7" style="fill:none;stroke:black;stroke-width:3;opacity:0">
  <animate attributeType="CSS" attributeName="opacity" from="0" to="1" begin="9s" dur="1s" repeatCount="Indefinite" fill="freeze" />
</path>
</svg>