<svg width="109px" height="109px" viewBox="0 0 px 109px" xmlns="http://www.w3.org/2000/svg" xmlns:xlink="http://www.w3.org/1999/xlink" xml:space="preserve" version="1.1"  baseProfile="full">
<path d="M44.45,18.7c0.73,0.34,3.29,0.37,4.02,0.34c9.67-0.4,28.53-2.65,40.07-2.84c1.22-0.02,2.36,0.16,2.96,0.33" style="fill:none;stroke:black;stroke-width:3;opacity:0">
  <animate attributeType="CSS" attributeName="opacity" from="0" to="1" begin="0s" dur="1s" repeatCount="Indefinite" fill="freeze" />
</path>
<path d="M45.19,34.93c0.63,0.69,1.43,2.93,1.54,3.85c0.85,6.62,1.19,19.97,1.19,34.64" style="fill:none;stroke:black;stroke-width:3;opacity:0">
  <animate attributeType="CSS" attributeName="opacity" from="0" to="1" begin="1s" dur="1s" repeatCount="Indefinite" fill="freeze" />
</path>
<path d="M47.24,37.38c10.12-1.29,34.54-3.99,41.44-4.19c2.86-0.08,4.14,2.3,3.79,5.46c-0.85,7.67-2.01,22.17-4.72,33.61" style="fill:none;stroke:black;stroke-width:3;opacity:0">
  <animate attributeType="CSS" attributeName="opacity" from="0" to="1" begin="2s" dur="1s" repeatCount="Indefinite" fill="freeze" />
</path>
<path d="M61.27,21.14c0.42,1.01,0.8,3.24,0.72,4.65c-0.74,12.66-2.14,28.95-10.81,33.79" style="fill:none;stroke:black;stroke-width:3;opacity:0">
  <animate attributeType="CSS" attributeName="opacity" from="0" to="1" begin="3s" dur="1s" repeatCount="Indefinite" fill="freeze" />
</path>
<path d="M72.8,20.01c0.69,0.96,1.28,2.1,1.28,3.59c0,13-0.33,19.87-0.33,23.8c0,5.05,0.77,6.52,5.98,6.52c4.41,0,7.31-1.02,7.56-1.32" style="fill:none;stroke:black;stroke-width:3;opacity:0">
  <animate attributeType="CSS" attributeName="opacity" from="0" to="1" begin="4s" dur="1s" repeatCount="Indefinite" fill="freeze" />
</path>
<path d="M47.97,71.14c8.49-0.46,30-1.42,40.32-1.62" style="fill:none;stroke:black;stroke-width:3;opacity:0">
  <animate attributeType="CSS" attributeName="opacity" from="0" to="1" begin="5s" dur="1s" repeatCount="Indefinite" fill="freeze" />
</path>
<path d="M12.33,26.9c1.38,0.66,3.58,1.09,5.5,0.66c1.93-0.44,10.2-2.28,14.01-3.34c1.66-0.46,2.79,0.79,1.8,2.25c-1.89,2.79-11.63,18.35-15.49,23.6" style="fill:none;stroke:black;stroke-width:3;opacity:0">
  <animate attributeType="CSS" attributeName="opacity" from="0" to="1" begin="6s" dur="1s" repeatCount="Indefinite" fill="freeze" />
</path>
<path d="M17.83,50.93c5.23-0.87,9.17-2.68,13.09-3.81c4.3-1.24,6.58-0.19,5.78,3.71C34.5,61.5,26.75,83.25,12,91.59" style="fill:none;stroke:black;stroke-width:3;opacity:0">
  <animate attributeType="CSS" attributeName="opacity" from="0" to="1" begin="7s" dur="1s" repeatCount="Indefinite" fill="freeze" />
</path>
<path d="M13.08,61.45c1.04-0.04,3.3,0.15,5.8,1.77C34.75,73.5,54.75,86.75,76.42,92.97C79.77,93.93,85.25,95,90,95.25" style="fill:none;stroke:black;stroke-width:3;opacity:0">
  <animate attributeType="CSS" attributeName="opacity" from="0" to="1" begin="8s" dur="1s" repeatCount="Indefinite" fill="freeze" />
</path>
</svg>