<svg width="109px" height="109px" viewBox="0 0 px 109px" xmlns="http://www.w3.org/2000/svg" xmlns:xlink="http://www.w3.org/1999/xlink" xml:space="preserve" version="1.1"  baseProfile="full">
<path d="M48.73,33.24c0.35,1.1,0.62,2.24,0.7,3.19c0.67,7.89,1.95,24.9,2.35,39.42" style="fill:none;stroke:black;stroke-width:3;opacity:0">
  <animate attributeType="CSS" attributeName="opacity" from="0" to="1" begin="0s" dur="1s" repeatCount="Indefinite" fill="freeze" />
</path>
<path d="M50.08,35.58c12.4-1.94,28.75-3.3,36.59-4.06c2.88-0.28,3.96,1.96,3.8,4.04c-0.58,7.61-1.31,25.07-3.12,37.59" style="fill:none;stroke:black;stroke-width:3;opacity:0">
  <animate attributeType="CSS" attributeName="opacity" from="0" to="1" begin="1s" dur="1s" repeatCount="Indefinite" fill="freeze" />
</path>
<path d="M66,14c1.07,1,1.7,2.46,1.71,3.78c0.04,13.06,0.2,50.77,0.2,54.18" style="fill:none;stroke:black;stroke-width:3;opacity:0">
  <animate attributeType="CSS" attributeName="opacity" from="0" to="1" begin="2s" dur="1s" repeatCount="Indefinite" fill="freeze" />
</path>
<path d="M50.94,52.89c3.42-0.38,35.35-2.98,38.17-2.98" style="fill:none;stroke:black;stroke-width:3;opacity:0">
  <animate attributeType="CSS" attributeName="opacity" from="0" to="1" begin="3s" dur="1s" repeatCount="Indefinite" fill="freeze" />
</path>
<path d="M54.31,72.91c8.66-0.55,20.69-2.12,31.13-2.33" style="fill:none;stroke:black;stroke-width:3;opacity:0">
  <animate attributeType="CSS" attributeName="opacity" from="0" to="1" begin="4s" dur="1s" repeatCount="Indefinite" fill="freeze" />
</path>
<path d="M12.11,27.86c1.33,0.65,3.45,1.08,5.31,0.65c1.86-0.43,12.78-2.21,16.44-3.3c2.38-0.71,2.52,1.15,1.19,2.22s-9.31,14.82-12.83,21.25" style="fill:none;stroke:black;stroke-width:3;opacity:0">
  <animate attributeType="CSS" attributeName="opacity" from="0" to="1" begin="5s" dur="1s" repeatCount="Indefinite" fill="freeze" />
</path>
<path d="M22.96,49.75c6.04-2.25,8.37-3.42,11.1-3.94c2.94-0.56,3.94,0.44,3.19,3.44C33.34,64.89,27.5,83.75,12,93.1" style="fill:none;stroke:black;stroke-width:3;opacity:0">
  <animate attributeType="CSS" attributeName="opacity" from="0" to="1" begin="6s" dur="1s" repeatCount="Indefinite" fill="freeze" />
</path>
<path d="M13.27,63.44c6.01-0.21,35.48,23.81,65.85,30.63c3.24,0.73,7.11,1.32,10.13,1.68" style="fill:none;stroke:black;stroke-width:3;opacity:0">
  <animate attributeType="CSS" attributeName="opacity" from="0" to="1" begin="7s" dur="1s" repeatCount="Indefinite" fill="freeze" />
</path>
</svg>