<svg width="109px" height="109px" viewBox="0 0 px 109px" xmlns="http://www.w3.org/2000/svg" xmlns:xlink="http://www.w3.org/1999/xlink" xml:space="preserve" version="1.1"  baseProfile="full">
<path d="M52.28,12.87c1.47,0.9,2.62,2.15,2.62,4.17c0,14.34-0.11,19.12-0.11,31.96" style="fill:none;stroke:black;stroke-width:3;opacity:0">
  <animate attributeType="CSS" attributeName="opacity" from="0" to="1" begin="0s" dur="1s" repeatCount="0" fill="freeze" />
</path>
<path d="M24.27,24.83c3.99,2.76,10.3,11.34,11.29,15.63" style="fill:none;stroke:black;stroke-width:3;opacity:0">
  <animate attributeType="CSS" attributeName="opacity" from="0" to="1" begin="1s" dur="1s" repeatCount="0" fill="freeze" />
</path>
<path d="M83.99,19c0.09,1.19-0.39,2.8-1,3.83c-3.49,5.92-7.74,11.42-12.69,16.63" style="fill:none;stroke:black;stroke-width:3;opacity:0">
  <animate attributeType="CSS" attributeName="opacity" from="0" to="1" begin="2s" dur="1s" repeatCount="0" fill="freeze" />
</path>
<path d="M24.2,50.18c2.18,0.57,4.62,0.72,7.34,0.54C50.25,49.5,76,47.75,81.15,47.25c3.82-0.37,5.35,2.53,4.91,5.48c-1.28,8.48-2.87,22.66-4.04,33.52c-0.25,2.29-0.48,4.45-0.68,6.39" style="fill:none;stroke:black;stroke-width:3;opacity:0">
  <animate attributeType="CSS" attributeName="opacity" from="0" to="1" begin="3s" dur="1s" repeatCount="0" fill="freeze" />
</path>
<path d="M25.25,69.74c2.71,0.45,4.74,0.61,7.68,0.4C45,69.25,72.25,67,83.12,67.18" style="fill:none;stroke:black;stroke-width:3;opacity:0">
  <animate attributeType="CSS" attributeName="opacity" from="0" to="1" begin="4s" dur="1s" repeatCount="0" fill="freeze" />
</path>
<path d="M24.22,92.41c2.48,0.71,4.99,0.68,7.53,0.44c13.2-1.24,33.36-2.85,47.92-2.82" style="fill:none;stroke:black;stroke-width:3;opacity:0">
  <animate attributeType="CSS" attributeName="opacity" from="0" to="1" begin="5s" dur="1s" repeatCount="0" fill="freeze" />
</path>
</svg>