<svg width="109px" height="109px" viewBox="0 0 px 109px" xmlns="http://www.w3.org/2000/svg" xmlns:xlink="http://www.w3.org/1999/xlink" xml:space="preserve" version="1.1"  baseProfile="full">
<path d="M32.96,13.33c0.58,0.92,1.54,1.99,1.54,5.02c0,5.9-0.01,7.69-0.01,12.65" style="fill:none;stroke:black;stroke-width:3;opacity:0">
  <animate attributeType="CSS" attributeName="opacity" from="0" to="1" begin="0s" dur="1s" repeatCount="Indefinite" fill="freeze" />
</path>
<path d="M36.42,22.69c4.24-1.19,9.02-2.74,13.31-3.68c1.41-0.31,2.28-0.22,2.99,0.08" style="fill:none;stroke:black;stroke-width:3;opacity:0">
  <animate attributeType="CSS" attributeName="opacity" from="0" to="1" begin="1s" dur="1s" repeatCount="Indefinite" fill="freeze" />
</path>
<path d="M20.37,34.99c0.68,0.19,1.42,0.06,2.53-0.22c8.15-2.09,21.42-4.52,28.18-4.68c7.12-0.17,2.01,4.66,0.23,6.78" style="fill:none;stroke:black;stroke-width:3;opacity:0">
  <animate attributeType="CSS" attributeName="opacity" from="0" to="1" begin="2s" dur="1s" repeatCount="Indefinite" fill="freeze" />
</path>
<path d="M18.91,32.43c0.45,0.57,1.49,2.72,1.49,4.78C20.4,64.75,19,81.25,9,93.5" style="fill:none;stroke:black;stroke-width:3;opacity:0">
  <animate attributeType="CSS" attributeName="opacity" from="0" to="1" begin="3s" dur="1s" repeatCount="Indefinite" fill="freeze" />
</path>
<path d="M24.84,49.44c0.57,0.37,3.11-0.04,3.69-0.13c6.47-1.06,14.4-4.57,20.58-5.47c0.95-0.14,1.52,0.18,2,0.36" style="fill:none;stroke:black;stroke-width:3;opacity:0">
  <animate attributeType="CSS" attributeName="opacity" from="0" to="1" begin="4s" dur="1s" repeatCount="Indefinite" fill="freeze" />
</path>
<path d="M33.92,37.93c0.4,0.45,0.92,2.22,0.92,2.84c0,4.98-0.07,7.14-0.07,9.37c0,6.61,1.84,7.11,7.52,7.11c2.11,0,6.67,0,8.49-0.89" style="fill:none;stroke:black;stroke-width:3;opacity:0">
  <animate attributeType="CSS" attributeName="opacity" from="0" to="1" begin="5s" dur="1s" repeatCount="Indefinite" fill="freeze" />
</path>
<path d="M31.1,65.47c0.03,0.73,0.47,1.89,0.44,2.95C31.25,78,27.25,90.75,19.54,96.67" style="fill:none;stroke:black;stroke-width:3;opacity:0">
  <animate attributeType="CSS" attributeName="opacity" from="0" to="1" begin="6s" dur="1s" repeatCount="Indefinite" fill="freeze" />
</path>
<path d="M44,65c0.35,1.02,0.63,2.22,0.65,3.78c0.09,7-0.25,10.3-0.25,15.05c0,11.11,6.36,11.16,24.85,10.66C88,94,94,95.5,94,83" style="fill:none;stroke:black;stroke-width:3;opacity:0">
  <animate attributeType="CSS" attributeName="opacity" from="0" to="1" begin="7s" dur="1s" repeatCount="Indefinite" fill="freeze" />
</path>
<path d="M86.53,14.75c0.06,0.51,0.24,1.37-0.13,2.03c-2.44,4.34-9.67,13.52-22.71,18.7" style="fill:none;stroke:black;stroke-width:3;opacity:0">
  <animate attributeType="CSS" attributeName="opacity" from="0" to="1" begin="8s" dur="1s" repeatCount="Indefinite" fill="freeze" />
</path>
<path d="M89.72,36.41c0.08,0.56,0.3,1.53-0.16,2.25c-3.19,4.92-13.17,16.11-29.25,21.55" style="fill:none;stroke:black;stroke-width:3;opacity:0">
  <animate attributeType="CSS" attributeName="opacity" from="0" to="1" begin="9s" dur="1s" repeatCount="Indefinite" fill="freeze" />
</path>
<path d="M93.07,56.74c0.11,0.71,0.22,1.81-0.21,2.82C90.32,65.5,75.75,78.52,55.79,86.5" style="fill:none;stroke:black;stroke-width:3;opacity:0">
  <animate attributeType="CSS" attributeName="opacity" from="0" to="1" begin="10s" dur="1s" repeatCount="Indefinite" fill="freeze" />
</path>
</svg>