<svg width="109px" height="109px" viewBox="0 0 px 109px" xmlns="http://www.w3.org/2000/svg" xmlns:xlink="http://www.w3.org/1999/xlink" xml:space="preserve" version="1.1"  baseProfile="full">
<path d="M30.83,17c0.06,0.44-0.21,1.73-0.62,2.27C27.36,23.11,20.12,30.75,11.12,36" style="fill:none;stroke:black;stroke-width:3;opacity:0">
  <animate attributeType="CSS" attributeName="opacity" from="0" to="1" begin="0s" dur="1s" repeatCount="Indefinite" fill="freeze" />
</path>
<path d="M33.6,35.5c0.07,0.71-0.18,1.97-0.63,2.84C29.78,44.47,21.62,56.5,10.25,66" style="fill:none;stroke:black;stroke-width:3;opacity:0">
  <animate attributeType="CSS" attributeName="opacity" from="0" to="1" begin="1s" dur="1s" repeatCount="Indefinite" fill="freeze" />
</path>
<path d="M23.22,54.5c0.95,0.95,1.4,2.12,1.4,3.16c0,4.22-0.02,26.09-0.02,32.59c0,3.72-0.03,6.47-0.05,7.25" style="fill:none;stroke:black;stroke-width:3;opacity:0">
  <animate attributeType="CSS" attributeName="opacity" from="0" to="1" begin="2s" dur="1s" repeatCount="Indefinite" fill="freeze" />
</path>
<path d="M60.54,13c0.1,0.9-0.15,2.14-0.7,3.38C56,25.25,48.75,39.5,33.71,51.32" style="fill:none;stroke:black;stroke-width:3;opacity:0">
  <animate attributeType="CSS" attributeName="opacity" from="0" to="1" begin="3s" dur="1s" repeatCount="Indefinite" fill="freeze" />
</path>
<path d="M61.04,16.99c3.61,4.41,17.88,17.85,25.61,24.86c2.45,2.22,5.25,4.35,8.13,5.96" style="fill:none;stroke:black;stroke-width:3;opacity:0">
  <animate attributeType="CSS" attributeName="opacity" from="0" to="1" begin="4s" dur="1s" repeatCount="Indefinite" fill="freeze" />
</path>
<path d="M48,46.97c1.44,0.59,3.89,0.67,5.4,0.53c5.61-0.51,13.88-1.69,19.1-2.17c1.68-0.15,3.35-0.43,5,0.02" style="fill:none;stroke:black;stroke-width:3;opacity:0">
  <animate attributeType="CSS" attributeName="opacity" from="0" to="1" begin="5s" dur="1s" repeatCount="Indefinite" fill="freeze" />
</path>
<path d="M41.48,62.96c2.39,0.79,5.35,0.99,7.4,0.81c8.29-0.75,22.23-2.27,29.75-2.77c1.98-0.13,4.12-0.19,6.08,0.23" style="fill:none;stroke:black;stroke-width:3;opacity:0">
  <animate attributeType="CSS" attributeName="opacity" from="0" to="1" begin="6s" dur="1s" repeatCount="Indefinite" fill="freeze" />
</path>
<path d="M61.79,48.8c1.14,1.14,1.46,2.57,1.46,4.55c0,18.93,0,31.51,0,36.27c0,10.8-5.96,1.92-7.4,0.72" style="fill:none;stroke:black;stroke-width:3;opacity:0">
  <animate attributeType="CSS" attributeName="opacity" from="0" to="1" begin="7s" dur="1s" repeatCount="Indefinite" fill="freeze" />
</path>
<path d="M49.97,72.75c0.12,1.05-0.06,2.07-0.62,2.99c-2.26,3.73-6.49,8.56-13.97,13.77" style="fill:none;stroke:black;stroke-width:3;opacity:0">
  <animate attributeType="CSS" attributeName="opacity" from="0" to="1" begin="8s" dur="1s" repeatCount="Indefinite" fill="freeze" />
</path>
<path d="M74,74.12c4.93,2.66,12.73,10.94,13.96,15.08" style="fill:none;stroke:black;stroke-width:3;opacity:0">
  <animate attributeType="CSS" attributeName="opacity" from="0" to="1" begin="9s" dur="1s" repeatCount="Indefinite" fill="freeze" />
</path>
</svg>