<svg width="109px" height="109px" viewBox="0 0 px 109px" xmlns="http://www.w3.org/2000/svg" xmlns:xlink="http://www.w3.org/1999/xlink" xml:space="preserve" version="1.1"  baseProfile="full">
<path d="M29.35,17c0.11,0.95-0.52,1.94-1.03,2.67c-2.78,4.03-8.94,9.95-16.2,14.58" style="fill:none;stroke:black;stroke-width:3;opacity:0">
  <animate attributeType="CSS" attributeName="opacity" from="0" to="1" begin="0s" dur="1s" repeatCount="0" fill="freeze" />
</path>
<path d="M32.61,33.5c0.18,1.27-0.11,2.34-0.66,3.47C28.5,44.1,21.84,53.99,10.75,63.5" style="fill:none;stroke:black;stroke-width:3;opacity:0">
  <animate attributeType="CSS" attributeName="opacity" from="0" to="1" begin="1s" dur="1s" repeatCount="0" fill="freeze" />
</path>
<path d="M24.22,52.75c0.7,0.7,0.9,2,0.9,2.91c0,3.59,0.02,25.51-0.03,35.84c-0.01,2.83-0.03,4.85-0.04,5.5" style="fill:none;stroke:black;stroke-width:3;opacity:0">
  <animate attributeType="CSS" attributeName="opacity" from="0" to="1" begin="2s" dur="1s" repeatCount="0" fill="freeze" />
</path>
<path d="M45.88,19.5c3.15,2.6,8.15,10.68,8.93,14.72" style="fill:none;stroke:black;stroke-width:3;opacity:0">
  <animate attributeType="CSS" attributeName="opacity" from="0" to="1" begin="3s" dur="1s" repeatCount="0" fill="freeze" />
</path>
<path d="M77.03,14.64c0.35,0.86,0.23,1.99-0.05,2.75c-2.1,5.73-5.23,12.6-9.42,20.32" style="fill:none;stroke:black;stroke-width:3;opacity:0">
  <animate attributeType="CSS" attributeName="opacity" from="0" to="1" begin="4s" dur="1s" repeatCount="0" fill="freeze" />
</path>
<path d="M40.25,42.82c2.1,0.57,5.49,0.54,7.66,0.16c10.59-1.85,27.15-4.17,36.1-4.96c2.43-0.22,5.09-0.28,7.49,0.11" style="fill:none;stroke:black;stroke-width:3;opacity:0">
  <animate attributeType="CSS" attributeName="opacity" from="0" to="1" begin="5s" dur="1s" repeatCount="0" fill="freeze" />
</path>
<path d="M63.35,44c0.82,0.82,1.36,2.12,1.36,3.12c0,0.86-0.02,27.38-0.02,35.28" style="fill:none;stroke:black;stroke-width:3;opacity:0">
  <animate attributeType="CSS" attributeName="opacity" from="0" to="1" begin="6s" dur="1s" repeatCount="0" fill="freeze" />
</path>
<path d="M66.91,61.18c4.84-0.56,8.71-1.93,14.25-2.67c1.42-0.19,1.78-0.2,2.67,0" style="fill:none;stroke:black;stroke-width:3;opacity:0">
  <animate attributeType="CSS" attributeName="opacity" from="0" to="1" begin="7s" dur="1s" repeatCount="0" fill="freeze" />
</path>
<path d="M48.07,60.62c0.18,0.76,0.18,1.72-0.09,2.79c-1.73,6.84-7.27,20.36-15.75,28.98" style="fill:none;stroke:black;stroke-width:3;opacity:0">
  <animate attributeType="CSS" attributeName="opacity" from="0" to="1" begin="8s" dur="1s" repeatCount="0" fill="freeze" />
</path>
<path d="M45.72,74.13c5.32,2.53,23.74,12.54,34.13,17.56c2.1,1.01,6.77,2.94,10.73,4.06" style="fill:none;stroke:black;stroke-width:3;opacity:0">
  <animate attributeType="CSS" attributeName="opacity" from="0" to="1" begin="9s" dur="1s" repeatCount="0" fill="freeze" />
</path>
</svg>