<svg width="109px" height="109px" viewBox="0 0 px 109px" xmlns="http://www.w3.org/2000/svg" xmlns:xlink="http://www.w3.org/1999/xlink" xml:space="preserve" version="1.1"  baseProfile="full">
<path d="M34.58,16.25c0.06,0.5,0.28,1.38-0.12,1.99c-2.82,4.29-11.32,14.64-19.6,19.01" style="fill:none;stroke:black;stroke-width:3;opacity:0">
  <animate attributeType="CSS" attributeName="opacity" from="0" to="1" begin="0s" dur="1s" repeatCount="Indefinite" fill="freeze" />
</path>
<path d="M37.33,33.25c0.07,0.78,0.35,2.18-0.14,3.15C33.74,43.19,24.21,56.8,12,66.5" style="fill:none;stroke:black;stroke-width:3;opacity:0">
  <animate attributeType="CSS" attributeName="opacity" from="0" to="1" begin="1s" dur="1s" repeatCount="Indefinite" fill="freeze" />
</path>
<path d="M28.19,54c0.38,0.27,1.13,1.73,1.21,2.27c0.07,0.54,0,39.12-0.08,42.48" style="fill:none;stroke:black;stroke-width:3;opacity:0">
  <animate attributeType="CSS" attributeName="opacity" from="0" to="1" begin="2s" dur="1s" repeatCount="Indefinite" fill="freeze" />
</path>
<path d="M63.97,11.75c0.38,0.51,0.44,1.15,0.35,1.59c-0.54,2.65-5.21,8.99-9.45,12.55" style="fill:none;stroke:black;stroke-width:3;opacity:0">
  <animate attributeType="CSS" attributeName="opacity" from="0" to="1" begin="3s" dur="1s" repeatCount="Indefinite" fill="freeze" />
</path>
<path d="M47.46,26.56c0.64,0.72,1.15,2.06,1.29,3.01c0.76,5.28,2.81,20.82,3.07,25.58" style="fill:none;stroke:black;stroke-width:3;opacity:0">
  <animate attributeType="CSS" attributeName="opacity" from="0" to="1" begin="4s" dur="1s" repeatCount="Indefinite" fill="freeze" />
</path>
<path d="M49.13,28.27c8.91-1.3,29.48-3.71,32.77-4.16c2.6-0.36,4.1,1.92,3.76,3.91c-0.77,4.43-3.05,14.7-4.58,23.19" style="fill:none;stroke:black;stroke-width:3;opacity:0">
  <animate attributeType="CSS" attributeName="opacity" from="0" to="1" begin="5s" dur="1s" repeatCount="Indefinite" fill="freeze" />
</path>
<path d="M50.46,39.73c8.1-1.78,27.85-3.2,33.39-3.2" style="fill:none;stroke:black;stroke-width:3;opacity:0">
  <animate attributeType="CSS" attributeName="opacity" from="0" to="1" begin="6s" dur="1s" repeatCount="Indefinite" fill="freeze" />
</path>
<path d="M51.52,51.43c9.25-0.82,21.7-2.73,29.34-2.98" style="fill:none;stroke:black;stroke-width:3;opacity:0">
  <animate attributeType="CSS" attributeName="opacity" from="0" to="1" begin="7s" dur="1s" repeatCount="Indefinite" fill="freeze" />
</path>
<path d="M43.75,61.69c1.85,0.28,3.88,0.56,4.81,0.53C56,62,75.73,60.23,86.06,59.1c1.4-0.15,2.69,0.1,3.85,0.52" style="fill:none;stroke:black;stroke-width:3;opacity:0">
  <animate attributeType="CSS" attributeName="opacity" from="0" to="1" begin="8s" dur="1s" repeatCount="Indefinite" fill="freeze" />
</path>
<path d="M65.21,63.65c1.1,1.78,1.1,2.84,1.1,4.26c0,9.94-0.06,12.84-0.06,25.21" style="fill:none;stroke:black;stroke-width:3;opacity:0">
  <animate attributeType="CSS" attributeName="opacity" from="0" to="1" begin="9s" dur="1s" repeatCount="Indefinite" fill="freeze" />
</path>
<path d="M47.25,77.68c0.76,0.49,3.26,0.3,4.03,0.22c8.07-0.86,19.92-1.7,29.4-2.58c0.95-0.09,3.03-0.2,4.44,0.23" style="fill:none;stroke:black;stroke-width:3;opacity:0">
  <animate attributeType="CSS" attributeName="opacity" from="0" to="1" begin="10s" dur="1s" repeatCount="Indefinite" fill="freeze" />
</path>
<path d="M38.84,93.73c0.7,0.31,4.35,0.62,5.54,0.52c14.23-1.28,26.74-1.19,44.5-2.19c2.98-0.17,5.11-0.06,6.76,0.5" style="fill:none;stroke:black;stroke-width:3;opacity:0">
  <animate attributeType="CSS" attributeName="opacity" from="0" to="1" begin="11s" dur="1s" repeatCount="Indefinite" fill="freeze" />
</path>
</svg>