<svg width="109px" height="109px" viewBox="0 0 px 109px" xmlns="http://www.w3.org/2000/svg" xmlns:xlink="http://www.w3.org/1999/xlink" xml:space="preserve" version="1.1"  baseProfile="full">
<path d="M35.07,15.25c0.06,0.5,0.31,1.38-0.13,1.99c-3.1,4.29-12.46,14.64-21.57,19.01" style="fill:none;stroke:black;stroke-width:3;opacity:0">
  <animate attributeType="CSS" attributeName="opacity" from="0" to="1" begin="0s" dur="1s" repeatCount="Indefinite" fill="freeze" />
</path>
<path d="M36.35,32.75c0.07,0.71,0.32,1.97-0.13,2.84C33.03,41.72,24.25,54,13,62.75" style="fill:none;stroke:black;stroke-width:3;opacity:0">
  <animate attributeType="CSS" attributeName="opacity" from="0" to="1" begin="1s" dur="1s" repeatCount="Indefinite" fill="freeze" />
</path>
<path d="M27.22,52c0.36,0.25,1.07,1.65,1.15,2.16c0.07,0.51,0,39.65-0.07,42.84" style="fill:none;stroke:black;stroke-width:3;opacity:0">
  <animate attributeType="CSS" attributeName="opacity" from="0" to="1" begin="2s" dur="1s" repeatCount="Indefinite" fill="freeze" />
</path>
<path d="M63.92,10.5c0.69,0.77,0.59,2.52-0.04,3.52C60.75,19,54.75,26.75,45.61,31.2" style="fill:none;stroke:black;stroke-width:3;opacity:0">
  <animate attributeType="CSS" attributeName="opacity" from="0" to="1" begin="3s" dur="1s" repeatCount="Indefinite" fill="freeze" />
</path>
<path d="M61.94,18.06c1.31,0.44,2.31,0.44,4.21,0.55c4.39,0.26,11.48-1.25,14.46-2.01c2.39-0.6,3.43,0.83,2.17,2.9c-5.53,9-21.53,23.5-42.01,32.33" style="fill:none;stroke:black;stroke-width:3;opacity:0">
  <animate attributeType="CSS" attributeName="opacity" from="0" to="1" begin="4s" dur="1s" repeatCount="Indefinite" fill="freeze" />
</path>
<path d="M59.47,24.26c1.19,0.54,5.97,3.76,8.35,6.98" style="fill:none;stroke:black;stroke-width:3;opacity:0">
  <animate attributeType="CSS" attributeName="opacity" from="0" to="1" begin="5s" dur="1s" repeatCount="Indefinite" fill="freeze" />
</path>
<path d="M48.51,31.96c1.49,1.17,5.97,6.12,7.21,8.74" style="fill:none;stroke:black;stroke-width:3;opacity:0">
  <animate attributeType="CSS" attributeName="opacity" from="0" to="1" begin="6s" dur="1s" repeatCount="Indefinite" fill="freeze" />
</path>
<path d="M56.95,46.64c0.03,0.4,0.07,1.03-0.06,1.61c-0.78,3.39-5.23,10.82-11.32,15.36" style="fill:none;stroke:black;stroke-width:3;opacity:0">
  <animate attributeType="CSS" attributeName="opacity" from="0" to="1" begin="7s" dur="1s" repeatCount="Indefinite" fill="freeze" />
</path>
<path d="M54.87,53.94c0.67,0.24,1.89,0.29,2.56,0.24c8.18-0.65,19.11-3.21,26.46-4.04c1.1-0.12,1.78,0.11,2.33,0.23" style="fill:none;stroke:black;stroke-width:3;opacity:0">
  <animate attributeType="CSS" attributeName="opacity" from="0" to="1" begin="8s" dur="1s" repeatCount="Indefinite" fill="freeze" />
</path>
<path d="M40.13,70.39c1.08,0.34,3.06,0.39,4.13,0.34c11.22-0.56,33.21-4.94,49.59-5.07c1.8-0.01,2.88,0.16,3.77,0.33" style="fill:none;stroke:black;stroke-width:3;opacity:0">
  <animate attributeType="CSS" attributeName="opacity" from="0" to="1" begin="9s" dur="1s" repeatCount="Indefinite" fill="freeze" />
</path>
<path d="M66.72,56.38c0.67,0.85,1.43,1.47,1.43,2.65c0,4.12-0.07,29.38-0.18,32.86" style="fill:none;stroke:black;stroke-width:3;opacity:0">
  <animate attributeType="CSS" attributeName="opacity" from="0" to="1" begin="10s" dur="1s" repeatCount="Indefinite" fill="freeze" />
</path>
<path d="M48.6,78.5c0.54,0.28,1.08,1.46,1.08,2.03c-0.05,3.5-0.68,6.97-1.5,13.03c-0.17,1.27-0.25,2.64,1.07,2.34c11.51-2.64,32.91-5.15,39.66-5.3" style="fill:none;stroke:black;stroke-width:3;opacity:0">
  <animate attributeType="CSS" attributeName="opacity" from="0" to="1" begin="11s" dur="1s" repeatCount="Indefinite" fill="freeze" />
</path>
<path d="M89.67,73.92c0.54,0.28,1.16,2.09,1.08,2.65c-0.53,3.43-0.99,10.93-1.45,18.07" style="fill:none;stroke:black;stroke-width:3;opacity:0">
  <animate attributeType="CSS" attributeName="opacity" from="0" to="1" begin="12s" dur="1s" repeatCount="Indefinite" fill="freeze" />
</path>
</svg>