<svg width="109px" height="109px" viewBox="0 0 px 109px" xmlns="http://www.w3.org/2000/svg" xmlns:xlink="http://www.w3.org/1999/xlink" xml:space="preserve" version="1.1"  baseProfile="full">
<path d="M67.94,12.14c0.13,0.37,0.24,0.93-0.24,1.48c-4.07,4.66-20.35,11.62-43.39,14.14" style="fill:none;stroke:black;stroke-width:3;opacity:0">
  <animate attributeType="CSS" attributeName="opacity" from="0" to="1" begin="0s" dur="1s" repeatCount="0" fill="freeze" />
</path>
<path d="M13.88,41.2c1.01,0.39,3.6,0.6,4.71,0.54c12.9-0.64,50.47-4.87,66.65-5.03c1.4-0.01,3.39,0.15,6.52,0.82" style="fill:none;stroke:black;stroke-width:3;opacity:0">
  <animate attributeType="CSS" attributeName="opacity" from="0" to="1" begin="1s" dur="1s" repeatCount="0" fill="freeze" />
</path>
<path d="M50.6,25.44c0.4,1.31,0.45,2.54-0.11,3.84C41.75,49.5,31.75,61.5,12.25,74" style="fill:none;stroke:black;stroke-width:3;opacity:0">
  <animate attributeType="CSS" attributeName="opacity" from="0" to="1" begin="2s" dur="1s" repeatCount="0" fill="freeze" />
</path>
<path d="M55,39.02c8.42,7.09,26.68,23.8,35.09,28.55c2.86,1.61,3.86,1.85,5.16,2.01" style="fill:none;stroke:black;stroke-width:3;opacity:0">
  <animate attributeType="CSS" attributeName="opacity" from="0" to="1" begin="3s" dur="1s" repeatCount="0" fill="freeze" />
</path>
<path d="M47.49,57.33c0.88,0.82,1.5,1.78,1.57,4.5c0.36,13.04-0.23,23.71-0.23,28.15c0,9.31-6.46,1.34-7.8,0.22" style="fill:none;stroke:black;stroke-width:3;opacity:0">
  <animate attributeType="CSS" attributeName="opacity" from="0" to="1" begin="4s" dur="1s" repeatCount="0" fill="freeze" />
</path>
<path d="M32.5,74.75c0,5.16-6.34,12.78-8,14.25" style="fill:none;stroke:black;stroke-width:3;opacity:0">
  <animate attributeType="CSS" attributeName="opacity" from="0" to="1" begin="5s" dur="1s" repeatCount="0" fill="freeze" />
</path>
<path d="M60.12,72.83c2.18,2.67,5.64,10.98,6.18,15.13" style="fill:none;stroke:black;stroke-width:3;opacity:0">
  <animate attributeType="CSS" attributeName="opacity" from="0" to="1" begin="6s" dur="1s" repeatCount="0" fill="freeze" />
</path>
<path d="M72.27,70.08c3.1,2.98,8.02,12.25,8.79,16.88" style="fill:none;stroke:black;stroke-width:3;opacity:0">
  <animate attributeType="CSS" attributeName="opacity" from="0" to="1" begin="7s" dur="1s" repeatCount="0" fill="freeze" />
</path>
</svg>