<svg width="109px" height="109px" viewBox="0 0 px 109px" xmlns="http://www.w3.org/2000/svg" xmlns:xlink="http://www.w3.org/1999/xlink" xml:space="preserve" version="1.1"  baseProfile="full">
<path d="M14.75,39.5c0,6.61-2.97,16.36-3.75,18.25" style="fill:none;stroke:black;stroke-width:3;opacity:0">
  <animate attributeType="CSS" attributeName="opacity" from="0" to="1" begin="0s" dur="1s" repeatCount="0" fill="freeze" />
</path>
<path d="M30.88,36.5c2.89,1.45,7.46,5.96,8.18,8.22" style="fill:none;stroke:black;stroke-width:3;opacity:0">
  <animate attributeType="CSS" attributeName="opacity" from="0" to="1" begin="1s" dur="1s" repeatCount="0" fill="freeze" />
</path>
<path d="M23.87,14.75c0.88,0.88,1.46,2.62,1.46,4c0,0.84-0.15,47.34-0.2,67.88c-0.01,4.35-0.02,7.54-0.02,8.88" style="fill:none;stroke:black;stroke-width:3;opacity:0">
  <animate attributeType="CSS" attributeName="opacity" from="0" to="1" begin="2s" dur="1s" repeatCount="0" fill="freeze" />
</path>
<path d="M45.81,36.01c1.21,0.6,3.37,1.02,5.18,0.76c8.64-1.27,24.15-4.36,26.52-4.72c4.02-0.6,5.28,1.1,4.68,4.12c-0.6,3.02-2.76,14.72-2.96,17.14" style="fill:none;stroke:black;stroke-width:3;opacity:0">
  <animate attributeType="CSS" attributeName="opacity" from="0" to="1" begin="3s" dur="1s" repeatCount="0" fill="freeze" />
</path>
<path d="M35.95,57.85c2.55,1.15,6.28,0.65,8.92,0.26c11.63-1.74,27.45-3.58,41.14-4.72c3.34-0.28,6.4-0.5,9.69,0.33" style="fill:none;stroke:black;stroke-width:3;opacity:0">
  <animate attributeType="CSS" attributeName="opacity" from="0" to="1" begin="4s" dur="1s" repeatCount="0" fill="freeze" />
</path>
<path d="M61.97,14.25c0.83,0.83,1.04,2.52,1.13,4.54C65.38,74,52.62,82.25,34.01,94.75" style="fill:none;stroke:black;stroke-width:3;opacity:0">
  <animate attributeType="CSS" attributeName="opacity" from="0" to="1" begin="5s" dur="1s" repeatCount="0" fill="freeze" />
</path>
<path d="M62.55,56.56c6.09,7.38,17.41,23.75,25.66,31.31c1.97,1.8,4.41,3.76,7.09,5.04" style="fill:none;stroke:black;stroke-width:3;opacity:0">
  <animate attributeType="CSS" attributeName="opacity" from="0" to="1" begin="6s" dur="1s" repeatCount="0" fill="freeze" />
</path>
</svg>