<svg width="109px" height="109px" viewBox="0 0 px 109px" xmlns="http://www.w3.org/2000/svg" xmlns:xlink="http://www.w3.org/1999/xlink" xml:space="preserve" version="1.1"  baseProfile="full">
<path d="M34.12,13.62c0.38,0.86,0.57,2.26,0.38,3.5c-0.97,6.08-4.99,21.12-9.27,28.24c-0.88,1.46,0.38,2.07,0.88,2.16c5.29,1.05,12.02,3.75,17.25,6.99c1.74,1.08,4.15,3,5.65,4.97" style="fill:none;stroke:black;stroke-width:3;opacity:0">
  <animate attributeType="CSS" attributeName="opacity" from="0" to="1" begin="0s" dur="1s" repeatCount="Indefinite" fill="freeze" />
</path>
<path d="M46.01,25.04c0.36,0.96,0.36,2.33,0.11,3.64C44.12,39.22,38.5,55.38,23.5,63" style="fill:none;stroke:black;stroke-width:3;opacity:0">
  <animate attributeType="CSS" attributeName="opacity" from="0" to="1" begin="1s" dur="1s" repeatCount="Indefinite" fill="freeze" />
</path>
<path d="M13,37.57c0.78,1.19,1.88,1.21,3.9,0.69c7.97-2.02,20.22-4.89,31.85-8.1" style="fill:none;stroke:black;stroke-width:3;opacity:0">
  <animate attributeType="CSS" attributeName="opacity" from="0" to="1" begin="2s" dur="1s" repeatCount="Indefinite" fill="freeze" />
</path>
<path d="M57.14,22.19c2.12,0.46,3.84,0.2,5.99-0.15c5.49-0.89,17.83-3.35,19.1-3.65c2.4-0.57,3.73,1.22,2.52,3.97C78.6,36.28,68.5,49.61,55.78,55.43" style="fill:none;stroke:black;stroke-width:3;opacity:0">
  <animate attributeType="CSS" attributeName="opacity" from="0" to="1" begin="3s" dur="1s" repeatCount="Indefinite" fill="freeze" />
</path>
<path d="M57.22,30.62c2.97,0.55,16.34,13.94,27.38,21.55c2.32,1.6,5.28,3.33,7.88,4.42" style="fill:none;stroke:black;stroke-width:3;opacity:0">
  <animate attributeType="CSS" attributeName="opacity" from="0" to="1" begin="4s" dur="1s" repeatCount="Indefinite" fill="freeze" />
</path>
<path d="M20.4,75.32c0.28,2.5-2.81,13.51-5.07,17.67" style="fill:none;stroke:black;stroke-width:3;opacity:0">
  <animate attributeType="CSS" attributeName="opacity" from="0" to="1" begin="5s" dur="1s" repeatCount="Indefinite" fill="freeze" />
</path>
<path d="M32,70.25c7,13.25,16.75,23.5,41.78,23.68c11.47,0.08,12.22-2.43,4.15-9.44" style="fill:none;stroke:black;stroke-width:3;opacity:0">
  <animate attributeType="CSS" attributeName="opacity" from="0" to="1" begin="6s" dur="1s" repeatCount="Indefinite" fill="freeze" />
</path>
<path d="M54.41,69.25c2.34,4.12,5.22,9.38,6.88,3.21" style="fill:none;stroke:black;stroke-width:3;opacity:0">
  <animate attributeType="CSS" attributeName="opacity" from="0" to="1" begin="7s" dur="1s" repeatCount="Indefinite" fill="freeze" />
</path>
<path d="M83.38,69.23c4.62,2.39,7.74,4.89,11.85,10.36" style="fill:none;stroke:black;stroke-width:3;opacity:0">
  <animate attributeType="CSS" attributeName="opacity" from="0" to="1" begin="8s" dur="1s" repeatCount="Indefinite" fill="freeze" />
</path>
</svg>