<svg width="109px" height="109px" viewBox="0 0 px 109px" xmlns="http://www.w3.org/2000/svg" xmlns:xlink="http://www.w3.org/1999/xlink" xml:space="preserve" version="1.1"  baseProfile="full">
<path d="M15.98,38.25c0,6.61-3.53,16.36-4.45,18.25" style="fill:none;stroke:black;stroke-width:3;opacity:0">
  <animate attributeType="CSS" attributeName="opacity" from="0" to="1" begin="0s" dur="1s" repeatCount="0" fill="freeze" />
</path>
<path d="M30.52,30.58c3.72,2.19,9.61,8.98,10.54,12.38" style="fill:none;stroke:black;stroke-width:3;opacity:0">
  <animate attributeType="CSS" attributeName="opacity" from="0" to="1" begin="1s" dur="1s" repeatCount="0" fill="freeze" />
</path>
<path d="M25.37,14.75c1.09,0.5,1.74,2.25,1.96,3.25c0.22,1,0,70.25-0.22,76.5" style="fill:none;stroke:black;stroke-width:3;opacity:0">
  <animate attributeType="CSS" attributeName="opacity" from="0" to="1" begin="2s" dur="1s" repeatCount="0" fill="freeze" />
</path>
<path d="M54.51,28.14c0.04,0.7,0.08,1.82-0.08,2.83C53.48,36.93,48,50,40.5,58" style="fill:none;stroke:black;stroke-width:3;opacity:0">
  <animate attributeType="CSS" attributeName="opacity" from="0" to="1" begin="3s" dur="1s" repeatCount="0" fill="freeze" />
</path>
<path d="M52.38,41.92c0.94,0.38,2.66,0.46,3.6,0.38c6.77-0.55,27.02-2.8,32.86-3.38c1.56-0.16,2.21-0.09,3.03-0.02" style="fill:none;stroke:black;stroke-width:3;opacity:0">
  <animate attributeType="CSS" attributeName="opacity" from="0" to="1" begin="4s" dur="1s" repeatCount="0" fill="freeze" />
</path>
<path d="M50.88,63.53c0.94,0.28,2.66,0.34,3.6,0.28c6.77-0.4,26.52-1.99,32.36-2.42c1.56-0.11,2.21-0.06,3.03-0.02" style="fill:none;stroke:black;stroke-width:3;opacity:0">
  <animate attributeType="CSS" attributeName="opacity" from="0" to="1" begin="5s" dur="1s" repeatCount="0" fill="freeze" />
</path>
<path d="M38.88,90.97c1.24,0.27,3.52,0.32,4.76,0.27c8.96-0.38,42.43-1.76,50.15-2.17c2.06-0.11,3.8,0.22,5.71,0.88" style="fill:none;stroke:black;stroke-width:3;opacity:0">
  <animate attributeType="CSS" attributeName="opacity" from="0" to="1" begin="6s" dur="1s" repeatCount="0" fill="freeze" />
</path>
<path d="M67.81,13.88c0.76,0.52,2.36,3.93,2.51,4.98c0.15,1.05-0.1,63.96-0.25,70.52" style="fill:none;stroke:black;stroke-width:3;opacity:0">
  <animate attributeType="CSS" attributeName="opacity" from="0" to="1" begin="7s" dur="1s" repeatCount="0" fill="freeze" />
</path>
</svg>