<svg width="109px" height="109px" viewBox="0 0 px 109px" xmlns="http://www.w3.org/2000/svg" xmlns:xlink="http://www.w3.org/1999/xlink" xml:space="preserve" version="1.1"  baseProfile="full">
<path d="M16.38,39.75c0,6.61-2.68,16.36-3.38,18.25" style="fill:none;stroke:black;stroke-width:3;opacity:0">
  <animate attributeType="CSS" attributeName="opacity" from="0" to="1" begin="0s" dur="1s" repeatCount="0" fill="freeze" />
</path>
<path d="M31,32.62c3.99,2.13,10.31,8.77,11.31,12.09" style="fill:none;stroke:black;stroke-width:3;opacity:0">
  <animate attributeType="CSS" attributeName="opacity" from="0" to="1" begin="1s" dur="1s" repeatCount="0" fill="freeze" />
</path>
<path d="M26.12,14.5c0.94,0.94,1.21,2.38,1.21,3.75c0,0.69,0.04,49.01,0.04,68.88c0,4.98,0,8.18-0.01,8.38" style="fill:none;stroke:black;stroke-width:3;opacity:0">
  <animate attributeType="CSS" attributeName="opacity" from="0" to="1" begin="2s" dur="1s" repeatCount="0" fill="freeze" />
</path>
<path d="M46.8,24.07c2.2,0.3,4.71,0.25,6.71-0.02c7.74-1.05,23.79-3.26,32.13-3.84c2.31-0.16,4.79-0.15,7.04,0.52" style="fill:none;stroke:black;stroke-width:3;opacity:0">
  <animate attributeType="CSS" attributeName="opacity" from="0" to="1" begin="3s" dur="1s" repeatCount="0" fill="freeze" />
</path>
<path d="M53.07,38.09c0.92,0.92,1.23,2.13,1.23,3.39s0.08,17.77,0.02,27.26c-0.01,1.35-0.01,2.69,0,4.04" style="fill:none;stroke:black;stroke-width:3;opacity:0">
  <animate attributeType="CSS" attributeName="opacity" from="0" to="1" begin="4s" dur="1s" repeatCount="0" fill="freeze" />
</path>
<path d="M54.76,39.92c5.98-0.75,23.04-3.44,25.14-3.74s3.53,0.87,3.53,3.1s-0.13,17.74-0.11,25.98c0,1.77,0.02,3.45,0.04,5" style="fill:none;stroke:black;stroke-width:3;opacity:0">
  <animate attributeType="CSS" attributeName="opacity" from="0" to="1" begin="5s" dur="1s" repeatCount="0" fill="freeze" />
</path>
<path d="M55.54,54.29c8.34-1.29,21.1-2.77,26.74-3.25" style="fill:none;stroke:black;stroke-width:3;opacity:0">
  <animate attributeType="CSS" attributeName="opacity" from="0" to="1" begin="6s" dur="1s" repeatCount="0" fill="freeze" />
</path>
<path d="M55.35,69.74c7.9-0.74,17.9-2.15,26.8-2.71" style="fill:none;stroke:black;stroke-width:3;opacity:0">
  <animate attributeType="CSS" attributeName="opacity" from="0" to="1" begin="7s" dur="1s" repeatCount="0" fill="freeze" />
</path>
<path d="M42.78,87.16c2.11,0.86,5.51,0.82,7.74,0.57c10.86-1.23,28.3-2.98,39.11-3.24c2.37-0.06,4.77-0.16,7.09,0.41" style="fill:none;stroke:black;stroke-width:3;opacity:0">
  <animate attributeType="CSS" attributeName="opacity" from="0" to="1" begin="8s" dur="1s" repeatCount="0" fill="freeze" />
</path>
</svg>