<svg width="109px" height="109px" viewBox="0 0 px 109px" xmlns="http://www.w3.org/2000/svg" xmlns:xlink="http://www.w3.org/1999/xlink" xml:space="preserve" version="1.1"  baseProfile="full">
<path d="M15.25,22.54c0.62,0.07,1.83,0.4,2.92,0.33c5.09-0.35,14.65-1.4,18.02-1.75c0.95-0.1,1.83,0.13,2.31,0.26" style="fill:none;stroke:black;stroke-width:3;opacity:0">
  <animate attributeType="CSS" attributeName="opacity" from="0" to="1" begin="0s" dur="1s" repeatCount="0" fill="freeze" />
</path>
<path d="M15,48.79c0.75,0.96,2.25,1.46,4.5,0.21c6.25-3.5,14-9.25,20.25-12.75" style="fill:none;stroke:black;stroke-width:3;opacity:0">
  <animate attributeType="CSS" attributeName="opacity" from="0" to="1" begin="1s" dur="1s" repeatCount="0" fill="freeze" />
</path>
<path d="M55.24,12.25c0.03,0.6,0.06,1.54-0.06,2.4c-0.73,5.05-4.96,16.13-10.74,22.91" style="fill:none;stroke:black;stroke-width:3;opacity:0">
  <animate attributeType="CSS" attributeName="opacity" from="0" to="1" begin="2s" dur="1s" repeatCount="0" fill="freeze" />
</path>
<path d="M55.31,23.91c0.81,0.23,2.33,0.58,3.55,0.38c1.48-0.24,24.9-4.93,26.31-4.94c4.86-0.04-0.51,5.6-3.51,8.57" style="fill:none;stroke:black;stroke-width:3;opacity:0">
  <animate attributeType="CSS" attributeName="opacity" from="0" to="1" begin="3s" dur="1s" repeatCount="0" fill="freeze" />
</path>
<path d="M63.51,31.12c0.06,0.71,0.04,1.8-0.12,2.83c-1,6.4-10.43,21.7-23.39,29.05" style="fill:none;stroke:black;stroke-width:3;opacity:0">
  <animate attributeType="CSS" attributeName="opacity" from="0" to="1" begin="4s" dur="1s" repeatCount="0" fill="freeze" />
</path>
<path d="M63.81,38.25c3.41,4.39,15.34,17.56,21.46,22.26c1.29,0.99,2.27,1.58,3.49,1.89" style="fill:none;stroke:black;stroke-width:3;opacity:0">
  <animate attributeType="CSS" attributeName="opacity" from="0" to="1" begin="5s" dur="1s" repeatCount="0" fill="freeze" />
</path>
<path d="M22.15,79.57c0.32,2.28-3.23,12.36-5.82,16.17" style="fill:none;stroke:black;stroke-width:3;opacity:0">
  <animate attributeType="CSS" attributeName="opacity" from="0" to="1" begin="6s" dur="1s" repeatCount="0" fill="freeze" />
</path>
<path d="M31.83,73.75c6.73,12.99,17.88,24.77,43.84,24.93c12.53,0.08,13.34-3.47,2.9-9.38" style="fill:none;stroke:black;stroke-width:3;opacity:0">
  <animate attributeType="CSS" attributeName="opacity" from="0" to="1" begin="7s" dur="1s" repeatCount="0" fill="freeze" />
</path>
<path d="M54.66,71.25c2.17,5.25,5.32,10.5,7.63,2.46" style="fill:none;stroke:black;stroke-width:3;opacity:0">
  <animate attributeType="CSS" attributeName="opacity" from="0" to="1" begin="8s" dur="1s" repeatCount="0" fill="freeze" />
</path>
<path d="M83.63,72.73c4.63,2.07,8.09,3.96,11.85,10.36" style="fill:none;stroke:black;stroke-width:3;opacity:0">
  <animate attributeType="CSS" attributeName="opacity" from="0" to="1" begin="9s" dur="1s" repeatCount="0" fill="freeze" />
</path>
</svg>