<svg width="109px" height="109px" viewBox="0 0 px 109px" xmlns="http://www.w3.org/2000/svg" xmlns:xlink="http://www.w3.org/1999/xlink" xml:space="preserve" version="1.1"  baseProfile="full">
<path d="M29.25,24.86c2.75,0.51,5.65,0.43,7.99,0.16c9.05-1.05,27.35-3.32,36.14-3.82c2.4-0.14,5.01-0.26,7.37,0.34" style="fill:none;stroke:black;stroke-width:3;opacity:0">
  <animate attributeType="CSS" attributeName="opacity" from="0" to="1" begin="0s" dur="1s" repeatCount="0" fill="freeze" />
</path>
<path d="M28.14,37.79c0.66,0.66,1.3,1.69,1.54,2.93c1.45,7.4,2.36,12.3,3.76,21c0.25,1.52,0.49,3.08,0.74,4.67" style="fill:none;stroke:black;stroke-width:3;opacity:0">
  <animate attributeType="CSS" attributeName="opacity" from="0" to="1" begin="1s" dur="1s" repeatCount="0" fill="freeze" />
</path>
<path d="M30.08,39.18c13.79-1.93,37.54-5.17,47.17-5.99c3.58-0.31,4.4,1.48,3.92,4.7c-0.83,5.57-2.39,13.22-4.04,19.52c-0.46,1.74-0.92,3.38-1.38,4.84" style="fill:none;stroke:black;stroke-width:3;opacity:0">
  <animate attributeType="CSS" attributeName="opacity" from="0" to="1" begin="2s" dur="1s" repeatCount="0" fill="freeze" />
</path>
<path d="M32.9,51.85c14.6-2.47,35.6-5.22,45.36-5.64" style="fill:none;stroke:black;stroke-width:3;opacity:0">
  <animate attributeType="CSS" attributeName="opacity" from="0" to="1" begin="3s" dur="1s" repeatCount="0" fill="freeze" />
</path>
<path d="M35.14,63.92c12.73-1.8,26.23-3.8,41.08-4.8" style="fill:none;stroke:black;stroke-width:3;opacity:0">
  <animate attributeType="CSS" attributeName="opacity" from="0" to="1" begin="4s" dur="1s" repeatCount="0" fill="freeze" />
</path>
<path d="M52.74,12.32c1.22,1.22,1.5,2.63,1.51,4.18c0.04,15.3,0.23,40.45,0.23,44.44" style="fill:none;stroke:black;stroke-width:3;opacity:0">
  <animate attributeType="CSS" attributeName="opacity" from="0" to="1" begin="5s" dur="1s" repeatCount="0" fill="freeze" />
</path>
<path d="M24.12,79c0.39,2.22-3.91,12.03-7.04,15.74" style="fill:none;stroke:black;stroke-width:3;opacity:0">
  <animate attributeType="CSS" attributeName="opacity" from="0" to="1" begin="6s" dur="1s" repeatCount="0" fill="freeze" />
</path>
<path d="M34.75,76.5C45.68,91.52,50.74,98,80.01,97.93c9.1-0.02,8.99-2.93,2.81-7.28" style="fill:none;stroke:black;stroke-width:3;opacity:0">
  <animate attributeType="CSS" attributeName="opacity" from="0" to="1" begin="7s" dur="1s" repeatCount="0" fill="freeze" />
</path>
<path d="M52.77,72.75c2.23,5.25,5.48,10.5,7.87,2.46" style="fill:none;stroke:black;stroke-width:3;opacity:0">
  <animate attributeType="CSS" attributeName="opacity" from="0" to="1" begin="8s" dur="1s" repeatCount="0" fill="freeze" />
</path>
<path d="M80.7,71.23c5.48,3.27,9.92,7.89,14.28,16.11" style="fill:none;stroke:black;stroke-width:3;opacity:0">
  <animate attributeType="CSS" attributeName="opacity" from="0" to="1" begin="9s" dur="1s" repeatCount="0" fill="freeze" />
</path>
</svg>