<svg width="109px" height="109px" viewBox="0 0 px 109px" xmlns="http://www.w3.org/2000/svg" xmlns:xlink="http://www.w3.org/1999/xlink" xml:space="preserve" version="1.1"  baseProfile="full">
<path d="M22.71,20.89c1.43,0.33,4.04,0.26,5.46,0.17c18.84-1.18,27.99-2.57,55.28-3.72c2.38-0.1,3.8,0.04,4.99,0.18" style="fill:none;stroke:black;stroke-width:3;opacity:0">
  <animate attributeType="CSS" attributeName="opacity" from="0" to="1" begin="0s" dur="1s" repeatCount="Indefinite" fill="freeze" />
</path>
<path d="M52.38,9.87c0.93,0.32,1.68,1.54,1.68,2.28c0,3.85,0.19,6.85,0.22,16.78" style="fill:none;stroke:black;stroke-width:3;opacity:0">
  <animate attributeType="CSS" attributeName="opacity" from="0" to="1" begin="1s" dur="1s" repeatCount="Indefinite" fill="freeze" />
</path>
<path d="M40.15,29.63c0.49,0.69,1.2,1.9,1.2,2.82c0,0.92-0.11,20.68-0.32,29.23" style="fill:none;stroke:black;stroke-width:3;opacity:0">
  <animate attributeType="CSS" attributeName="opacity" from="0" to="1" begin="2s" dur="1s" repeatCount="Indefinite" fill="freeze" />
</path>
<path d="M41.43,32.02c2.9-0.12,26.65-2.99,29.31-3.14c2.09-0.11,3.73,1.34,3.56,2.19c-0.22,1.08-0.82,18.53-0.81,28.65" style="fill:none;stroke:black;stroke-width:3;opacity:0">
  <animate attributeType="CSS" attributeName="opacity" from="0" to="1" begin="3s" dur="1s" repeatCount="Indefinite" fill="freeze" />
</path>
<path d="M42.11,40.3c5.5-0.16,27.09-1.96,31.6-1.96" style="fill:none;stroke:black;stroke-width:3;opacity:0">
  <animate attributeType="CSS" attributeName="opacity" from="0" to="1" begin="4s" dur="1s" repeatCount="Indefinite" fill="freeze" />
</path>
<path d="M41.83,49.48c7.34-0.39,23.92-1.88,31.04-1.88" style="fill:none;stroke:black;stroke-width:3;opacity:0">
  <animate attributeType="CSS" attributeName="opacity" from="0" to="1" begin="5s" dur="1s" repeatCount="Indefinite" fill="freeze" />
</path>
<path d="M41.8,59.36c5.11-0.35,27.5-1.61,31.18-1.61" style="fill:none;stroke:black;stroke-width:3;opacity:0">
  <animate attributeType="CSS" attributeName="opacity" from="0" to="1" begin="6s" dur="1s" repeatCount="Indefinite" fill="freeze" />
</path>
<path d="M25.43,36.3c0.88,1.26,1.31,1.77,1.31,4.29c0,2.53-0.11,22.57-0.68,24.76c-0.66,2.53,0.69,3.9,3.12,3.79c21.41-0.96,34.56-2.54,55.22-3.08c2.41-0.06,4.44-0.02,6.35,0.41" style="fill:none;stroke:black;stroke-width:3;opacity:0">
  <animate attributeType="CSS" attributeName="opacity" from="0" to="1" begin="7s" dur="1s" repeatCount="Indefinite" fill="freeze" />
</path>
<path d="M21.89,81.82c0.38,2.32-3.78,12.56-6.81,16.42" style="fill:none;stroke:black;stroke-width:3;opacity:0">
  <animate attributeType="CSS" attributeName="opacity" from="0" to="1" begin="8s" dur="1s" repeatCount="Indefinite" fill="freeze" />
</path>
<path d="M33.58,78.25c6.17,11,15.92,20.55,39.7,20.68C84.75,99,85.5,96,75.93,90.99" style="fill:none;stroke:black;stroke-width:3;opacity:0">
  <animate attributeType="CSS" attributeName="opacity" from="0" to="1" begin="9s" dur="1s" repeatCount="Indefinite" fill="freeze" />
</path>
<path d="M53.41,77.25c2.17,5.25,5.32,10.5,7.63,2.46" style="fill:none;stroke:black;stroke-width:3;opacity:0">
  <animate attributeType="CSS" attributeName="opacity" from="0" to="1" begin="10s" dur="1s" repeatCount="Indefinite" fill="freeze" />
</path>
<path d="M79.63,75.48c4.72,2.42,9.12,6.77,12.1,12.11" style="fill:none;stroke:black;stroke-width:3;opacity:0">
  <animate attributeType="CSS" attributeName="opacity" from="0" to="1" begin="11s" dur="1s" repeatCount="Indefinite" fill="freeze" />
</path>
</svg>