<svg width="109px" height="109px" viewBox="0 0 px 109px" xmlns="http://www.w3.org/2000/svg" xmlns:xlink="http://www.w3.org/1999/xlink" xml:space="preserve" version="1.1"  baseProfile="full">
<path d="M15.7,39.75c0,5.7-2.9,14.12-3.65,15.75" style="fill:none;stroke:black;stroke-width:3;opacity:0">
  <animate attributeType="CSS" attributeName="opacity" from="0" to="1" begin="0s" dur="1s" repeatCount="Indefinite" fill="freeze" />
</path>
<path d="M30.02,33.83c2.49,2.32,6.42,10.03,7.04,13.63" style="fill:none;stroke:black;stroke-width:3;opacity:0">
  <animate attributeType="CSS" attributeName="opacity" from="0" to="1" begin="1s" dur="1s" repeatCount="Indefinite" fill="freeze" />
</path>
<path d="M23.62,13.5c1,1,1.21,2.12,1.21,3.5c0,0.83,0.02,48.19,0.03,69.88c0,5.14,0,8.83,0,10.12" style="fill:none;stroke:black;stroke-width:3;opacity:0">
  <animate attributeType="CSS" attributeName="opacity" from="0" to="1" begin="2s" dur="1s" repeatCount="Indefinite" fill="freeze" />
</path>
<path d="M58.65,13.25c-0.13,1.03-0.13,2.13-0.6,3.05c-3.8,7.45-7.92,14.07-14.45,21.53" style="fill:none;stroke:black;stroke-width:3;opacity:0">
  <animate attributeType="CSS" attributeName="opacity" from="0" to="1" begin="3s" dur="1s" repeatCount="Indefinite" fill="freeze" />
</path>
<path d="M55.35,27.31c2.21,0.37,4.42,0.4,6.64,0.09c6.35-0.87,20.12-2.86,25.27-3.4c4.64-0.48,5.73,1.4,5.01,5.76c-0.8,4.83-3.38,19.52-8.27,28.81c-2.32,4.42-4.54,8.01-8.84,4.11" style="fill:none;stroke:black;stroke-width:3;opacity:0">
  <animate attributeType="CSS" attributeName="opacity" from="0" to="1" begin="4s" dur="1s" repeatCount="Indefinite" fill="freeze" />
</path>
<path d="M61.9,30.55c0.06,0.95-0.13,1.82-0.55,2.62c-3.63,7.81-7.87,14.07-15.69,20.2" style="fill:none;stroke:black;stroke-width:3;opacity:0">
  <animate attributeType="CSS" attributeName="opacity" from="0" to="1" begin="5s" dur="1s" repeatCount="Indefinite" fill="freeze" />
</path>
<path d="M77.74,29.13c0.08,0.88,0.05,1.8-0.4,3.01c-2.96,7.98-11.09,23.23-25.67,33.61" style="fill:none;stroke:black;stroke-width:3;opacity:0">
  <animate attributeType="CSS" attributeName="opacity" from="0" to="1" begin="6s" dur="1s" repeatCount="Indefinite" fill="freeze" />
</path>
<path d="M41.51,81.05c0.23,2.18-2.32,11.08-4.18,14.73" style="fill:none;stroke:black;stroke-width:3;opacity:0">
  <animate attributeType="CSS" attributeName="opacity" from="0" to="1" begin="7s" dur="1s" repeatCount="Indefinite" fill="freeze" />
</path>
<path d="M50.55,75.58c5.17,11.22,13.35,20.96,33.29,21.1c9.62,0.07,10.25-2.99,2.22-8.1" style="fill:none;stroke:black;stroke-width:3;opacity:0">
  <animate attributeType="CSS" attributeName="opacity" from="0" to="1" begin="8s" dur="1s" repeatCount="Indefinite" fill="freeze" />
</path>
<path d="M63.92,73.5c2.33,6.25,4.45,7.5,6.07,1.91" style="fill:none;stroke:black;stroke-width:3;opacity:0">
  <animate attributeType="CSS" attributeName="opacity" from="0" to="1" begin="9s" dur="1s" repeatCount="Indefinite" fill="freeze" />
</path>
<path d="M83.45,71.48c5.17,2.89,10.17,7.02,12.28,10.95" style="fill:none;stroke:black;stroke-width:3;opacity:0">
  <animate attributeType="CSS" attributeName="opacity" from="0" to="1" begin="10s" dur="1s" repeatCount="Indefinite" fill="freeze" />
</path>
</svg>