<svg width="109px" height="109px" viewBox="0 0 px 109px" xmlns="http://www.w3.org/2000/svg" xmlns:xlink="http://www.w3.org/1999/xlink" xml:space="preserve" version="1.1"  baseProfile="full">
<path d="M16.72,32.5c0.03,4.31-2.47,14.14-4.69,17.5" style="fill:none;stroke:black;stroke-width:3;opacity:0">
  <animate attributeType="CSS" attributeName="opacity" from="0" to="1" begin="0s" dur="1s" repeatCount="Indefinite" fill="freeze" />
</path>
<path d="M30.77,26.83c2.22,2.23,5.74,9.17,6.29,12.63" style="fill:none;stroke:black;stroke-width:3;opacity:0">
  <animate attributeType="CSS" attributeName="opacity" from="0" to="1" begin="1s" dur="1s" repeatCount="Indefinite" fill="freeze" />
</path>
<path d="M22.37,12.75c1.09,0.5,1.74,2.25,1.96,3.25c0.22,1,0,74.75-0.22,81" style="fill:none;stroke:black;stroke-width:3;opacity:0">
  <animate attributeType="CSS" attributeName="opacity" from="0" to="1" begin="2s" dur="1s" repeatCount="Indefinite" fill="freeze" />
</path>
<path d="M63.05,11.29c1.47,1.47,2.21,2.18,2.21,3.74c0,6.6-0.09,13.02-0.22,17.94" style="fill:none;stroke:black;stroke-width:3;opacity:0">
  <animate attributeType="CSS" attributeName="opacity" from="0" to="1" begin="3s" dur="1s" repeatCount="Indefinite" fill="freeze" />
</path>
<path d="M46.17,18.42c0.67,0.39,1.43,2.07,1.33,2.86c-0.44,3.52-2.14,9.09-2.74,12.43c-0.32,1.78,0.76,1.98,2.41,1.67c9.84-1.88,30.57-3.51,38.93-3.73" style="fill:none;stroke:black;stroke-width:3;opacity:0">
  <animate attributeType="CSS" attributeName="opacity" from="0" to="1" begin="4s" dur="1s" repeatCount="Indefinite" fill="freeze" />
</path>
<path d="M86.48,16.32c0.67,0.4,1.44,2.95,1.33,3.74c-0.66,4.84-0.81,7.19-1.55,14.13" style="fill:none;stroke:black;stroke-width:3;opacity:0">
  <animate attributeType="CSS" attributeName="opacity" from="0" to="1" begin="5s" dur="1s" repeatCount="Indefinite" fill="freeze" />
</path>
<path d="M36.86,46.98c1.17,0.33,3.32,0.37,4.49,0.33c9.01-0.34,36.89-4.12,49.67-4.29c1.95-0.03,3.12,0.16,4.1,0.32" style="fill:none;stroke:black;stroke-width:3;opacity:0">
  <animate attributeType="CSS" attributeName="opacity" from="0" to="1" begin="6s" dur="1s" repeatCount="Indefinite" fill="freeze" />
</path>
<path d="M61.24,48.26c0.03,0.26,0.05,0.68-0.04,1.06c-0.56,2.24-3.76,7.14-8.13,10.15" style="fill:none;stroke:black;stroke-width:3;opacity:0">
  <animate attributeType="CSS" attributeName="opacity" from="0" to="1" begin="7s" dur="1s" repeatCount="Indefinite" fill="freeze" />
</path>
<path d="M43,60.16c0.54,0.92,0.59,2.39,0.71,4.06c0.18,2.4-0.21,29.56-0.21,32.32" style="fill:none;stroke:black;stroke-width:3;opacity:0">
  <animate attributeType="CSS" attributeName="opacity" from="0" to="1" begin="8s" dur="1s" repeatCount="Indefinite" fill="freeze" />
</path>
<path d="M45.08,62.75c12.62-2.17,42.34-4.9,43.53-5.13c2.85-0.55,4.56,1.11,4.64,3.32c0.25,6.81-1.25,21.81-3.29,28.79c-2.33,7.97-4.6,3.5-6.74,1.11" style="fill:none;stroke:black;stroke-width:3;opacity:0">
  <animate attributeType="CSS" attributeName="opacity" from="0" to="1" begin="9s" dur="1s" repeatCount="Indefinite" fill="freeze" />
</path>
<path d="M58.52,63.49c0.7,0.67,1.25,1.47,1.25,3.7c0,11.41-0.22,15.47-0.22,25.77" style="fill:none;stroke:black;stroke-width:3;opacity:0">
  <animate attributeType="CSS" attributeName="opacity" from="0" to="1" begin="10s" dur="1s" repeatCount="Indefinite" fill="freeze" />
</path>
<path d="M73.63,61.63c0.7,0.67,1.25,1.47,1.25,3.7c0,12.66-0.35,19.74-0.35,26.87" style="fill:none;stroke:black;stroke-width:3;opacity:0">
  <animate attributeType="CSS" attributeName="opacity" from="0" to="1" begin="11s" dur="1s" repeatCount="Indefinite" fill="freeze" />
</path>
</svg>