<svg width="109px" height="109px" viewBox="0 0 px 109px" xmlns="http://www.w3.org/2000/svg" xmlns:xlink="http://www.w3.org/1999/xlink" xml:space="preserve" version="1.1"  baseProfile="full">
<path d="M14.72,35.75C14.74,40,12.78,49.69,11.03,53" style="fill:none;stroke:black;stroke-width:3;opacity:0">
  <animate attributeType="CSS" attributeName="opacity" from="0" to="1" begin="0s" dur="1s" repeatCount="0" fill="freeze" />
</path>
<path d="M26.02,31.33c2.31,1.96,5.97,8.08,6.54,11.13" style="fill:none;stroke:black;stroke-width:3;opacity:0">
  <animate attributeType="CSS" attributeName="opacity" from="0" to="1" begin="1s" dur="1s" repeatCount="0" fill="freeze" />
</path>
<path d="M20.87,13.25c1.09,0.5,1.74,2.25,1.96,3.25c0.22,1,0,74.75-0.22,81" style="fill:none;stroke:black;stroke-width:3;opacity:0">
  <animate attributeType="CSS" attributeName="opacity" from="0" to="1" begin="2s" dur="1s" repeatCount="0" fill="freeze" />
</path>
<path d="M58.2,11.14c0.04,0.28,0.08,0.73-0.07,1.13c-0.91,2.38-6.12,7.61-13.24,10.81" style="fill:none;stroke:black;stroke-width:3;opacity:0">
  <animate attributeType="CSS" attributeName="opacity" from="0" to="1" begin="3s" dur="1s" repeatCount="0" fill="freeze" />
</path>
<path d="M78.7,10.64c0.04,0.29,0.09,0.74-0.08,1.15c-1.03,2.43-6.92,7.77-14.98,11.04" style="fill:none;stroke:black;stroke-width:3;opacity:0">
  <animate attributeType="CSS" attributeName="opacity" from="0" to="1" begin="4s" dur="1s" repeatCount="0" fill="freeze" />
</path>
<path d="M39.19,32.68c1.14,0.36,3.23,0.44,4.36,0.36c7.65-0.51,31.53-2.92,42.91-3.64c1.89-0.12,3.04,0.17,3.98,0.35" style="fill:none;stroke:black;stroke-width:3;opacity:0">
  <animate attributeType="CSS" attributeName="opacity" from="0" to="1" begin="5s" dur="1s" repeatCount="0" fill="freeze" />
</path>
<path d="M41.47,43.38c1.62,0.22,2.51,0.69,4.64,0.45c11.59-1.34,26.05-3.58,36.48-4.26c2.08-0.13,3.25,1.57,2.78,3.81c-1.21,5.86-2.62,10.87-3.6,15.97" style="fill:none;stroke:black;stroke-width:3;opacity:0">
  <animate attributeType="CSS" attributeName="opacity" from="0" to="1" begin="6s" dur="1s" repeatCount="0" fill="freeze" />
</path>
<path d="M33.29,52.82c1.96,0.2,3.5,0.59,5.68,0.4c19-1.61,37.78-3.36,53.06-4.59c2.4-0.19,4.37,0.4,5.46,0.6" style="fill:none;stroke:black;stroke-width:3;opacity:0">
  <animate attributeType="CSS" attributeName="opacity" from="0" to="1" begin="7s" dur="1s" repeatCount="0" fill="freeze" />
</path>
<path d="M42.61,61.95c1.18,0.11,3.32,0.44,4.73,0.33c10.46-0.8,23.64-2.02,34.16-2.8c1.88-0.14,3.08,0,4.49,0.11" style="fill:none;stroke:black;stroke-width:3;opacity:0">
  <animate attributeType="CSS" attributeName="opacity" from="0" to="1" begin="8s" dur="1s" repeatCount="0" fill="freeze" />
</path>
<path d="M53.56,21.98c0.93,0.49,1.48,2.19,1.67,3.17c0.18,0.97,0,66.26-0.18,72.35" style="fill:none;stroke:black;stroke-width:3;opacity:0">
  <animate attributeType="CSS" attributeName="opacity" from="0" to="1" begin="9s" dur="1s" repeatCount="0" fill="freeze" />
</path>
<path d="M67.39,24.56c0.92,0.49,1.48,2.19,1.67,3.17c0.18,0.97,0,64.21-0.19,70.3" style="fill:none;stroke:black;stroke-width:3;opacity:0">
  <animate attributeType="CSS" attributeName="opacity" from="0" to="1" begin="10s" dur="1s" repeatCount="0" fill="freeze" />
</path>
<path d="M54.56,62.83c-4.43,8.34-15.96,20.14-25.18,24.86" style="fill:none;stroke:black;stroke-width:3;opacity:0">
  <animate attributeType="CSS" attributeName="opacity" from="0" to="1" begin="11s" dur="1s" repeatCount="0" fill="freeze" />
</path>
<path d="M68.2,60.4c3.69,3.44,19.86,19.7,23.87,23.08c1.36,1.14,2.52,1.64,3.88,1.96" style="fill:none;stroke:black;stroke-width:3;opacity:0">
  <animate attributeType="CSS" attributeName="opacity" from="0" to="1" begin="12s" dur="1s" repeatCount="0" fill="freeze" />
</path>
</svg>