<svg width="109px" height="109px" viewBox="0 0 px 109px" xmlns="http://www.w3.org/2000/svg" xmlns:xlink="http://www.w3.org/1999/xlink" xml:space="preserve" version="1.1"  baseProfile="full">
<path d="M20.85,14.8c1.05,0.46,3.1,0.86,4.21,0.77c5.17-0.44,17.32-1.83,22.2-2.34c2.72-0.28,4.81,0.55,4.21,3.79c-0.41,2.23-1.35,4.98-2.31,8.19" style="fill:none;stroke:black;stroke-width:3;opacity:0">
  <animate attributeType="CSS" attributeName="opacity" from="0" to="1" begin="0s" dur="1s" repeatCount="0" fill="freeze" />
</path>
<path d="M24.58,29.04c3.37-0.17,15.21-1.78,21.93-2.39c1.67-0.15,2.95-0.26,3.58-0.29" style="fill:none;stroke:black;stroke-width:3;opacity:0">
  <animate attributeType="CSS" attributeName="opacity" from="0" to="1" begin="1s" dur="1s" repeatCount="0" fill="freeze" />
</path>
<path d="M22.8,15.94c0.63,0.63,1.03,1.97,0.99,3.06c-0.92,23.75-3.3,35-12.55,45.38" style="fill:none;stroke:black;stroke-width:3;opacity:0">
  <animate attributeType="CSS" attributeName="opacity" from="0" to="1" begin="2s" dur="1s" repeatCount="0" fill="freeze" />
</path>
<path d="M28.37,38.44c1.08,0.38,2.91,0.31,4.02,0.18c3.85-0.46,11.66-1.54,15.62-2.09c1.22-0.17,2.69-0.12,3.89,0.13" style="fill:none;stroke:black;stroke-width:3;opacity:0">
  <animate attributeType="CSS" attributeName="opacity" from="0" to="1" begin="3s" dur="1s" repeatCount="0" fill="freeze" />
</path>
<path d="M26.82,48.73c1.64,0.5,3.41,0.2,5.06,0c6.33-0.77,14.05-1.88,18.76-2.27c1.39-0.12,2.69-0.11,4.07,0.14" style="fill:none;stroke:black;stroke-width:3;opacity:0">
  <animate attributeType="CSS" attributeName="opacity" from="0" to="1" begin="4s" dur="1s" repeatCount="0" fill="freeze" />
</path>
<path d="M40.08,49.79c0.69,0.69,1.19,1.58,1.19,3.22c0,3.73-0.02,12.31-0.02,15.23c0,6.2-2.98,2.15-5.86,0.07" style="fill:none;stroke:black;stroke-width:3;opacity:0">
  <animate attributeType="CSS" attributeName="opacity" from="0" to="1" begin="5s" dur="1s" repeatCount="0" fill="freeze" />
</path>
<path d="M29.62,55.47c0.1,0.82-0.04,1.59-0.43,2.31c-1.41,3-5.56,7.35-11.26,11.24" style="fill:none;stroke:black;stroke-width:3;opacity:0">
  <animate attributeType="CSS" attributeName="opacity" from="0" to="1" begin="6s" dur="1s" repeatCount="0" fill="freeze" />
</path>
<path d="M48.72,56.06c2.31,1.69,6.1,6.74,6.68,9.37" style="fill:none;stroke:black;stroke-width:3;opacity:0">
  <animate attributeType="CSS" attributeName="opacity" from="0" to="1" begin="7s" dur="1s" repeatCount="0" fill="freeze" />
</path>
<path d="M58.88,32.25c2.62,0.5,4.71,0.23,6.62,0c7.76-0.94,15.2-2.25,23.76-2.84c1.68-0.12,3.22-0.17,4.87,0.26" style="fill:none;stroke:black;stroke-width:3;opacity:0">
  <animate attributeType="CSS" attributeName="opacity" from="0" to="1" begin="8s" dur="1s" repeatCount="0" fill="freeze" />
</path>
<path d="M79.98,12.53c0.81,0.81,1.35,2.34,1.35,4.16s0.04,43.22,0.04,46.82c0,8.74-6.23,1.29-8.05,0.18" style="fill:none;stroke:black;stroke-width:3;opacity:0">
  <animate attributeType="CSS" attributeName="opacity" from="0" to="1" begin="9s" dur="1s" repeatCount="0" fill="freeze" />
</path>
<path d="M63.06,42.75c2.14,1.71,5.53,7.03,6.07,9.69" style="fill:none;stroke:black;stroke-width:3;opacity:0">
  <animate attributeType="CSS" attributeName="opacity" from="0" to="1" begin="10s" dur="1s" repeatCount="0" fill="freeze" />
</path>
<path d="M24.5,79.12c0.33,2.12-3.3,11.51-5.93,15.05" style="fill:none;stroke:black;stroke-width:3;opacity:0">
  <animate attributeType="CSS" attributeName="opacity" from="0" to="1" begin="11s" dur="1s" repeatCount="0" fill="freeze" />
</path>
<path d="M37.47,78.2C46.75,92,57.7,97.74,80.23,96.86c9.27-0.36,8.52-2.36,2-7.38" style="fill:none;stroke:black;stroke-width:3;opacity:0">
  <animate attributeType="CSS" attributeName="opacity" from="0" to="1" begin="12s" dur="1s" repeatCount="0" fill="freeze" />
</path>
<path d="M56.08,75.6c3.3,4.9,5.86,6.69,6.79,3.23" style="fill:none;stroke:black;stroke-width:3;opacity:0">
  <animate attributeType="CSS" attributeName="opacity" from="0" to="1" begin="13s" dur="1s" repeatCount="0" fill="freeze" />
</path>
<path d="M82.66,75.06c3.84,2.44,7.84,5.57,11.02,10.21" style="fill:none;stroke:black;stroke-width:3;opacity:0">
  <animate attributeType="CSS" attributeName="opacity" from="0" to="1" begin="14s" dur="1s" repeatCount="0" fill="freeze" />
</path>
</svg>