<svg width="109px" height="109px" viewBox="0 0 px 109px" xmlns="http://www.w3.org/2000/svg" xmlns:xlink="http://www.w3.org/1999/xlink" xml:space="preserve" version="1.1"  baseProfile="full">
<path d="M16.72,34.5c0.03,4.31-2.47,14.14-4.69,17.5" style="fill:none;stroke:black;stroke-width:3;opacity:0">
  <animate attributeType="CSS" attributeName="opacity" from="0" to="1" begin="0s" dur="1s" repeatCount="Indefinite" fill="freeze" />
</path>
<path d="M31.27,30.83c2.04,2.05,5.28,8.44,5.79,11.63" style="fill:none;stroke:black;stroke-width:3;opacity:0">
  <animate attributeType="CSS" attributeName="opacity" from="0" to="1" begin="1s" dur="1s" repeatCount="Indefinite" fill="freeze" />
</path>
<path d="M23.37,13.25c1.09,0.5,1.74,2.25,1.96,3.25c0.22,1,0,73.75-0.22,80" style="fill:none;stroke:black;stroke-width:3;opacity:0">
  <animate attributeType="CSS" attributeName="opacity" from="0" to="1" begin="2s" dur="1s" repeatCount="Indefinite" fill="freeze" />
</path>
<path d="M53.85,11c0.03,0.45,0.12,1.3-0.06,1.81C51.47,19.17,48.11,25.32,42,31.04" style="fill:none;stroke:black;stroke-width:3;opacity:0">
  <animate attributeType="CSS" attributeName="opacity" from="0" to="1" begin="3s" dur="1s" repeatCount="Indefinite" fill="freeze" />
</path>
<path d="M53,21.69c0.79,0.4,2.33,0.48,3.12,0.37c5.01-0.69,20.94-2.48,26.5-3.12c1.3-0.15,2.72-0.19,3.38,0.01" style="fill:none;stroke:black;stroke-width:3;opacity:0">
  <animate attributeType="CSS" attributeName="opacity" from="0" to="1" begin="4s" dur="1s" repeatCount="Indefinite" fill="freeze" />
</path>
<path d="M51.13,30.66c0.27,0.47,0.44,0.72,0.53,1.33c0.65,4.35,2.64,18.9,2.73,19.52" style="fill:none;stroke:black;stroke-width:3;opacity:0">
  <animate attributeType="CSS" attributeName="opacity" from="0" to="1" begin="5s" dur="1s" repeatCount="Indefinite" fill="freeze" />
</path>
<path d="M52.32,31.42c5.12-0.62,20.83-2.26,27.39-2.67c1.14-0.07,1.82,1.68,1.78,2.15c-0.49,5.86-2,13.19-3.58,18.19" style="fill:none;stroke:black;stroke-width:3;opacity:0">
  <animate attributeType="CSS" attributeName="opacity" from="0" to="1" begin="6s" dur="1s" repeatCount="Indefinite" fill="freeze" />
</path>
<path d="M53.34,40.03c2.03,0,23.84-2.05,26.13-2.05" style="fill:none;stroke:black;stroke-width:3;opacity:0">
  <animate attributeType="CSS" attributeName="opacity" from="0" to="1" begin="7s" dur="1s" repeatCount="Indefinite" fill="freeze" />
</path>
<path d="M54.71,49.06c4.14-0.46,17.6-1.44,22.75-1.83" style="fill:none;stroke:black;stroke-width:3;opacity:0">
  <animate attributeType="CSS" attributeName="opacity" from="0" to="1" begin="8s" dur="1s" repeatCount="Indefinite" fill="freeze" />
</path>
<path d="M37.31,58.41c1.3,0.38,3.68,0.44,4.98,0.38c13.5-0.63,37.68-4.14,50.34-4.29c2.16-0.03,3.46,0.18,4.54,0.37" style="fill:none;stroke:black;stroke-width:3;opacity:0">
  <animate attributeType="CSS" attributeName="opacity" from="0" to="1" begin="9s" dur="1s" repeatCount="Indefinite" fill="freeze" />
</path>
<path d="M55.12,60.73c0.05,0.47,0.27,1.27-0.09,1.89C52.44,67,45.87,73.64,37.21,79.47" style="fill:none;stroke:black;stroke-width:3;opacity:0">
  <animate attributeType="CSS" attributeName="opacity" from="0" to="1" begin="10s" dur="1s" repeatCount="Indefinite" fill="freeze" />
</path>
<path d="M55.79,66.82c0.75,0.43,1.79,0.58,2.99,0.29c1.19-0.29,26.43-3.73,29.41-3.87c2.99-0.14,3.58,1.45,3.14,4.49c-0.45,3.04-3.11,19.32-9.68,27.56c-1.98,2.48-3.09-0.41-4.85-2.22" style="fill:none;stroke:black;stroke-width:3;opacity:0">
  <animate attributeType="CSS" attributeName="opacity" from="0" to="1" begin="11s" dur="1s" repeatCount="Indefinite" fill="freeze" />
</path>
<path d="M63.16,69.72c0.06,0.42,0.16,1.1-0.11,1.69c-2.59,5.85-9.68,13.99-19.9,18.79" style="fill:none;stroke:black;stroke-width:3;opacity:0">
  <animate attributeType="CSS" attributeName="opacity" from="0" to="1" begin="12s" dur="1s" repeatCount="Indefinite" fill="freeze" />
</path>
<path d="M78.38,67.54c0.09,0.76,0.33,2-0.18,3.05c-3.21,6.56-9.97,16.45-23.07,25.06" style="fill:none;stroke:black;stroke-width:3;opacity:0">
  <animate attributeType="CSS" attributeName="opacity" from="0" to="1" begin="13s" dur="1s" repeatCount="Indefinite" fill="freeze" />
</path>
</svg>