<svg width="109px" height="109px" viewBox="0 0 px 109px" xmlns="http://www.w3.org/2000/svg" xmlns:xlink="http://www.w3.org/1999/xlink" xml:space="preserve" version="1.1"  baseProfile="full">
<path d="M16.22,35.5c0.03,3.7-2.21,12.12-4.19,15" style="fill:none;stroke:black;stroke-width:3;opacity:0">
  <animate attributeType="CSS" attributeName="opacity" from="0" to="1" begin="0s" dur="1s" repeatCount="Indefinite" fill="freeze" />
</path>
<path d="M30.02,30.58c2.31,2.01,5.97,8.26,6.54,11.38" style="fill:none;stroke:black;stroke-width:3;opacity:0">
  <animate attributeType="CSS" attributeName="opacity" from="0" to="1" begin="1s" dur="1s" repeatCount="Indefinite" fill="freeze" />
</path>
<path d="M21.87,12.75c1.09,0.5,1.74,2.25,1.96,3.25c0.22,1,0,76.25-0.22,82.5" style="fill:none;stroke:black;stroke-width:3;opacity:0">
  <animate attributeType="CSS" attributeName="opacity" from="0" to="1" begin="2s" dur="1s" repeatCount="Indefinite" fill="freeze" />
</path>
<path d="M44.8,15.18c0.26,0.64,0.65,1.11,0.65,1.97c0,0.85-0.18,26.3-0.18,26.72" style="fill:none;stroke:black;stroke-width:3;opacity:0">
  <animate attributeType="CSS" attributeName="opacity" from="0" to="1" begin="3s" dur="1s" repeatCount="Indefinite" fill="freeze" />
</path>
<path d="M45.37,16.01c1.5-0.11,13.46-1.66,14.83-1.79c1.14-0.11,2.04,0.6,1.94,1.38c-0.12,1-0.26,21.99-0.26,25.85" style="fill:none;stroke:black;stroke-width:3;opacity:0">
  <animate attributeType="CSS" attributeName="opacity" from="0" to="1" begin="4s" dur="1s" repeatCount="Indefinite" fill="freeze" />
</path>
<path d="M45.87,24.48c2.96-0.15,13.42-1.35,15.82-1.35" style="fill:none;stroke:black;stroke-width:3;opacity:0">
  <animate attributeType="CSS" attributeName="opacity" from="0" to="1" begin="5s" dur="1s" repeatCount="Indefinite" fill="freeze" />
</path>
<path d="M45.99,32.61c3.98-0.36,11.66-1.28,15.52-1.28" style="fill:none;stroke:black;stroke-width:3;opacity:0">
  <animate attributeType="CSS" attributeName="opacity" from="0" to="1" begin="6s" dur="1s" repeatCount="Indefinite" fill="freeze" />
</path>
<path d="M45.59,40.97c3.42-0.19,12.27-1.45,16.12-1.45" style="fill:none;stroke:black;stroke-width:3;opacity:0">
  <animate attributeType="CSS" attributeName="opacity" from="0" to="1" begin="7s" dur="1s" repeatCount="Indefinite" fill="freeze" />
</path>
<path d="M71.95,13.25c0.27,0.68,0.67,1.18,0.67,2.09c0,0.9-0.18,25.34-0.18,25.79" style="fill:none;stroke:black;stroke-width:3;opacity:0">
  <animate attributeType="CSS" attributeName="opacity" from="0" to="1" begin="8s" dur="1s" repeatCount="Indefinite" fill="freeze" />
</path>
<path d="M72.53,14.13c1.54-0.11,13.84-1.76,15.25-1.89c1.17-0.11,2.09,0.63,2,1.47c-0.12,1.06-0.27,21.89-0.27,25.99" style="fill:none;stroke:black;stroke-width:3;opacity:0">
  <animate attributeType="CSS" attributeName="opacity" from="0" to="1" begin="9s" dur="1s" repeatCount="Indefinite" fill="freeze" />
</path>
<path d="M73.05,22.66c3.04-0.15,13.8-1.44,16.27-1.44" style="fill:none;stroke:black;stroke-width:3;opacity:0">
  <animate attributeType="CSS" attributeName="opacity" from="0" to="1" begin="10s" dur="1s" repeatCount="Indefinite" fill="freeze" />
</path>
<path d="M73.17,30.77c4.09-0.38,11.99-1.35,15.96-1.35" style="fill:none;stroke:black;stroke-width:3;opacity:0">
  <animate attributeType="CSS" attributeName="opacity" from="0" to="1" begin="11s" dur="1s" repeatCount="Indefinite" fill="freeze" />
</path>
<path d="M72.76,39.11c3.51-0.2,12.61-1.01,16.58-1.01" style="fill:none;stroke:black;stroke-width:3;opacity:0">
  <animate attributeType="CSS" attributeName="opacity" from="0" to="1" begin="12s" dur="1s" repeatCount="Indefinite" fill="freeze" />
</path>
<path d="M54.47,45.7c0.2,1.19-0.06,2.74-0.69,3.76c-4.06,6.49-9.21,11.97-18.52,19.87" style="fill:none;stroke:black;stroke-width:3;opacity:0">
  <animate attributeType="CSS" attributeName="opacity" from="0" to="1" begin="13s" dur="1s" repeatCount="Indefinite" fill="freeze" />
</path>
<path d="M49.14,58.52c0.7,0.58,1.23,1.87,1.28,2.78c0.42,8.1-0.57,32.48-0.22,36.7" style="fill:none;stroke:black;stroke-width:3;opacity:0">
  <animate attributeType="CSS" attributeName="opacity" from="0" to="1" begin="14s" dur="1s" repeatCount="Indefinite" fill="freeze" />
</path>
<path d="M73.15,46.69c0.08,0.52-0.02,1.2-0.27,1.65c-1.57,2.84-3.57,5.03-7.17,8.49" style="fill:none;stroke:black;stroke-width:3;opacity:0">
  <animate attributeType="CSS" attributeName="opacity" from="0" to="1" begin="15s" dur="1s" repeatCount="Indefinite" fill="freeze" />
</path>
<path d="M50.22,59.72c8.1-0.76,36.45-2.49,39.92-2.91" style="fill:none;stroke:black;stroke-width:3;opacity:0">
  <animate attributeType="CSS" attributeName="opacity" from="0" to="1" begin="16s" dur="1s" repeatCount="Indefinite" fill="freeze" />
</path>
<path d="M68.04,59.64c0.39,0.3,1.2,1.71,1.2,2.23c0,5.25,0.04,23.05-0.19,31.32" style="fill:none;stroke:black;stroke-width:3;opacity:0">
  <animate attributeType="CSS" attributeName="opacity" from="0" to="1" begin="17s" dur="1s" repeatCount="Indefinite" fill="freeze" />
</path>
<path d="M51.3,70.66c7.65-0.63,32.81-1.98,36.09-2.33" style="fill:none;stroke:black;stroke-width:3;opacity:0">
  <animate attributeType="CSS" attributeName="opacity" from="0" to="1" begin="18s" dur="1s" repeatCount="Indefinite" fill="freeze" />
</path>
<path d="M50.38,81.81c8.07-0.53,33.89-1.61,37.35-1.91" style="fill:none;stroke:black;stroke-width:3;opacity:0">
  <animate attributeType="CSS" attributeName="opacity" from="0" to="1" begin="19s" dur="1s" repeatCount="Indefinite" fill="freeze" />
</path>
<path d="M50.38,94.95c8.1-0.76,39.4-2.21,42.87-2.62" style="fill:none;stroke:black;stroke-width:3;opacity:0">
  <animate attributeType="CSS" attributeName="opacity" from="0" to="1" begin="20s" dur="1s" repeatCount="Indefinite" fill="freeze" />
</path>
</svg>