<svg width="109px" height="109px" viewBox="0 0 px 109px" xmlns="http://www.w3.org/2000/svg" xmlns:xlink="http://www.w3.org/1999/xlink" xml:space="preserve" version="1.1"  baseProfile="full">
<path d="M25.76,35.64c0.99,0.99,1.2,2.85,1.15,4.86c-0.41,18.75-5.41,45.75-16.1,54.47" style="fill:none;stroke:black;stroke-width:3;opacity:0">
  <animate attributeType="CSS" attributeName="opacity" from="0" to="1" begin="0s" dur="1s" repeatCount="0" fill="freeze" />
</path>
<path d="M22.75,33.7c2.66,0.58,5.32,0.7,7.99,0.37c9.35-0.78,34.33-3.32,49.51-3.97c2.6-0.21,5.18-0.06,7.75,0.44" style="fill:none;stroke:black;stroke-width:3;opacity:0">
  <animate attributeType="CSS" attributeName="opacity" from="0" to="1" begin="1s" dur="1s" repeatCount="0" fill="freeze" />
</path>
<path d="M37.75,54.75c2.75,1.5,7.75,8,10.25,14" style="fill:none;stroke:black;stroke-width:3;opacity:0">
  <animate attributeType="CSS" attributeName="opacity" from="0" to="1" begin="2s" dur="1s" repeatCount="0" fill="freeze" />
</path>
<path d="M53.75,11c1.72,1.84,2.29,3.34,2.54,7.29C58.38,51.25,69.5,80.75,89.75,93c6.69,4.05,5.71,2.71,4.85-5.42" style="fill:none;stroke:black;stroke-width:3;opacity:0">
  <animate attributeType="CSS" attributeName="opacity" from="0" to="1" begin="3s" dur="1s" repeatCount="0" fill="freeze" />
</path>
<path d="M82.21,42.14c0.29,1.23,0.12,2.94-0.46,4.5c-3.62,9.73-15.5,31.23-35.19,44.58" style="fill:none;stroke:black;stroke-width:3;opacity:0">
  <animate attributeType="CSS" attributeName="opacity" from="0" to="1" begin="4s" dur="1s" repeatCount="0" fill="freeze" />
</path>
<path d="M73.25,11.5c3.1,2,8.05,6.57,9.5,10" style="fill:none;stroke:black;stroke-width:3;opacity:0">
  <animate attributeType="CSS" attributeName="opacity" from="0" to="1" begin="5s" dur="1s" repeatCount="0" fill="freeze" />
</path>
</svg>