<svg width="109px" height="109px" viewBox="0 0 px 109px" xmlns="http://www.w3.org/2000/svg" xmlns:xlink="http://www.w3.org/1999/xlink" xml:space="preserve" version="1.1"  baseProfile="full">
<path d="M61.48,11.5c0.02,1-0.61,1.88-1.67,2.9c-3.27,3.15-13.69,8.23-28.57,11.85" style="fill:none;stroke:black;stroke-width:3;opacity:0">
  <animate attributeType="CSS" attributeName="opacity" from="0" to="1" begin="0s" dur="1s" repeatCount="Indefinite" fill="freeze" />
</path>
<path d="M26.38,42.92c1.8,0.46,3.61,0.67,5.68,0.38C46,41.38,58.4,39,71.37,37.75c1.92-0.19,4.62-0.38,7.25,0.04" style="fill:none;stroke:black;stroke-width:3;opacity:0">
  <animate attributeType="CSS" attributeName="opacity" from="0" to="1" begin="1s" dur="1s" repeatCount="Indefinite" fill="freeze" />
</path>
<path d="M13.27,62.87c2.71,0.63,4.86,0.6,7.22,0.38c22.63-2.12,46.13-5.62,67.7-7c2.01-0.13,4.83,0,7.46,0.37" style="fill:none;stroke:black;stroke-width:3;opacity:0">
  <animate attributeType="CSS" attributeName="opacity" from="0" to="1" begin="2s" dur="1s" repeatCount="Indefinite" fill="freeze" />
</path>
<path d="M48.88,23.55C60.38,31,62.73,63.66,57.83,89.87c-2.08,11.13-8.64,2.34-9.89,1.17" style="fill:none;stroke:black;stroke-width:3;opacity:0">
  <animate attributeType="CSS" attributeName="opacity" from="0" to="1" begin="3s" dur="1s" repeatCount="Indefinite" fill="freeze" />
</path>
</svg>