<svg width="109px" height="109px" viewBox="0 0 px 109px" xmlns="http://www.w3.org/2000/svg" xmlns:xlink="http://www.w3.org/1999/xlink" xml:space="preserve" version="1.1"  baseProfile="full">
<path d="M23.38,14.73c2.32,0.73,5.13,0.33,7.5,0.18c11.1-0.7,28.88-2.71,41.75-3.21c2.65-0.1,5.38-0.22,8,0.27" style="fill:none;stroke:black;stroke-width:3;opacity:0">
  <animate attributeType="CSS" attributeName="opacity" from="0" to="1" begin="0s" dur="1s" repeatCount="Indefinite" fill="freeze" />
</path>
<path d="M22.35,29.13c2.56,0.83,4.75,0.81,7.4,0.52c12.86-1.39,39.32-3.27,46.25-3.9c1.99-0.18,4.07,1.27,3.25,4C78.5,32.25,78,34.5,77,38" style="fill:none;stroke:black;stroke-width:3;opacity:0">
  <animate attributeType="CSS" attributeName="opacity" from="0" to="1" begin="1s" dur="1s" repeatCount="Indefinite" fill="freeze" />
</path>
<path d="M25.75,43.5c9.75-0.75,30-2.88,46.52-4.21c2.95-0.24,5.38-0.29,6.98-0.29" style="fill:none;stroke:black;stroke-width:3;opacity:0">
  <animate attributeType="CSS" attributeName="opacity" from="0" to="1" begin="2s" dur="1s" repeatCount="Indefinite" fill="freeze" />
</path>
<path d="M23.81,29.93c1.07,1.07,1.27,2.26,1.28,4.37c0.11,26.55-1.84,45.45-13.34,57.45" style="fill:none;stroke:black;stroke-width:3;opacity:0">
  <animate attributeType="CSS" attributeName="opacity" from="0" to="1" begin="3s" dur="1s" repeatCount="Indefinite" fill="freeze" />
</path>
<path d="M49.74,47.79c0.8,0.8,1.18,1.96,1.2,3.01C51.38,81.12,49.38,90,36.95,100" style="fill:none;stroke:black;stroke-width:3;opacity:0">
  <animate attributeType="CSS" attributeName="opacity" from="0" to="1" begin="4s" dur="1s" repeatCount="Indefinite" fill="freeze" />
</path>
<path d="M30.85,57.6c1.28,0.53,2.57,0.79,3.54,0.75c2.61-0.1,10.74-1.47,15.6-2.07" style="fill:none;stroke:black;stroke-width:3;opacity:0">
  <animate attributeType="CSS" attributeName="opacity" from="0" to="1" begin="5s" dur="1s" repeatCount="Indefinite" fill="freeze" />
</path>
<path d="M31.78,70.05c1.22,0.45,3.33,0.66,4.29,0.5c0.96-0.16,11.5-1.66,14.06-2.14" style="fill:none;stroke:black;stroke-width:3;opacity:0">
  <animate attributeType="CSS" attributeName="opacity" from="0" to="1" begin="6s" dur="1s" repeatCount="Indefinite" fill="freeze" />
</path>
<path d="M27.12,85.65c0.96,1.09,1.95,1.03,3.62,0.58c6.77-1.85,10.14-2.85,17.6-4.98" style="fill:none;stroke:black;stroke-width:3;opacity:0">
  <animate attributeType="CSS" attributeName="opacity" from="0" to="1" begin="7s" dur="1s" repeatCount="Indefinite" fill="freeze" />
</path>
<path d="M63.45,46.25c1.02,1.02,1.25,2.12,1.25,3.29c0,0.5,0.05,27.39-0.05,41.96c-0.03,4.28,0,7.11-0.04,8" style="fill:none;stroke:black;stroke-width:3;opacity:0">
  <animate attributeType="CSS" attributeName="opacity" from="0" to="1" begin="8s" dur="1s" repeatCount="Indefinite" fill="freeze" />
</path>
<path d="M66.58,55.42c2.25-0.18,10.44-1.22,14.95-1.75c1.46-0.17,2.85-0.3,4.32-0.19" style="fill:none;stroke:black;stroke-width:3;opacity:0">
  <animate attributeType="CSS" attributeName="opacity" from="0" to="1" begin="9s" dur="1s" repeatCount="Indefinite" fill="freeze" />
</path>
<path d="M66.32,68.25c2.25-0.18,10.49-1.08,14.83-1.65c1.45-0.19,3.06-0.21,4.51-0.21" style="fill:none;stroke:black;stroke-width:3;opacity:0">
  <animate attributeType="CSS" attributeName="opacity" from="0" to="1" begin="10s" dur="1s" repeatCount="Indefinite" fill="freeze" />
</path>
<path d="M66.49,81.36c2.3-0.19,12.41-1.22,17.4-1.72c1.54-0.16,2.86-0.14,4.25,0.1" style="fill:none;stroke:black;stroke-width:3;opacity:0">
  <animate attributeType="CSS" attributeName="opacity" from="0" to="1" begin="11s" dur="1s" repeatCount="Indefinite" fill="freeze" />
</path>
</svg>