<svg width="109px" height="109px" viewBox="0 0 px 109px" xmlns="http://www.w3.org/2000/svg" xmlns:xlink="http://www.w3.org/1999/xlink" xml:space="preserve" version="1.1"  baseProfile="full">
<path d="M26.88,13.16c1.08,0.28,4.2,0.31,5.28,0.28c11.22-0.32,31.59-1.19,48.55-1.7c1.8-0.05,4.65,0.37,5.54,0.51" style="fill:none;stroke:black;stroke-width:3;opacity:0">
  <animate attributeType="CSS" attributeName="opacity" from="0" to="1" begin="0s" dur="1s" repeatCount="0" fill="freeze" />
</path>
<path d="M28.35,28.45c1.15,0.29,2.89,0.81,5.15,0.6c11.75-1.08,38.14-2.49,45.5-3c1.99-0.14,4.05,0.98,3.25,3.08c-1,2.63-2.25,6.88-3,9.66" style="fill:none;stroke:black;stroke-width:3;opacity:0">
  <animate attributeType="CSS" attributeName="opacity" from="0" to="1" begin="1s" dur="1s" repeatCount="0" fill="freeze" />
</path>
<path d="M29.75,41.43c1.6,0,3.56-0.05,5.78-0.13c12.5-0.45,33.41-1.93,46.22-1.93" style="fill:none;stroke:black;stroke-width:3;opacity:0">
  <animate attributeType="CSS" attributeName="opacity" from="0" to="1" begin="2s" dur="1s" repeatCount="0" fill="freeze" />
</path>
<path d="M29.94,28.95c0.56,1.3,0.6,3.15,0.4,5.46C28,62.75,23,83,10.75,95.25" style="fill:none;stroke:black;stroke-width:3;opacity:0">
  <animate attributeType="CSS" attributeName="opacity" from="0" to="1" begin="3s" dur="1s" repeatCount="0" fill="freeze" />
</path>
<path d="M43.19,48.08c0.24,0.21,0.49,0.39,0.6,0.65c0.84,2.08,1.85,7.82,2.42,11.56" style="fill:none;stroke:black;stroke-width:3;opacity:0">
  <animate attributeType="CSS" attributeName="opacity" from="0" to="1" begin="4s" dur="1s" repeatCount="0" fill="freeze" />
</path>
<path d="M44.7,49.18c5.54-0.88,25.9-1.68,28.74-1.95c1.04-0.1,1.66,0.59,1.51,1.18c-0.62,2.43-1.33,5.67-2.25,9.03" style="fill:none;stroke:black;stroke-width:3;opacity:0">
  <animate attributeType="CSS" attributeName="opacity" from="0" to="1" begin="5s" dur="1s" repeatCount="0" fill="freeze" />
</path>
<path d="M46.32,59.06c3.34-0.31,23.13-0.84,27.71-1.32" style="fill:none;stroke:black;stroke-width:3;opacity:0">
  <animate attributeType="CSS" attributeName="opacity" from="0" to="1" begin="6s" dur="1s" repeatCount="0" fill="freeze" />
</path>
<path d="M36.71,66.47c0.96,0.43,2.34,0.94,4.05,0.84c14.49-0.82,32.25-2.78,39.21-3.22c2.96-0.19,3.65,1.71,3.48,2.86c-0.67,4.36-1.63,9.05-2.96,12.25" style="fill:none;stroke:black;stroke-width:3;opacity:0">
  <animate attributeType="CSS" attributeName="opacity" from="0" to="1" begin="7s" dur="1s" repeatCount="0" fill="freeze" />
</path>
<path d="M58.62,66.92c0.64,0.29,1.27,2.14,1.27,2.72c0,3.63-0.21,6.37-0.21,8.57" style="fill:none;stroke:black;stroke-width:3;opacity:0">
  <animate attributeType="CSS" attributeName="opacity" from="0" to="1" begin="8s" dur="1s" repeatCount="0" fill="freeze" />
</path>
<path d="M39.8,81.16c4.42-0.32,39.21-2.1,44.26-2.42" style="fill:none;stroke:black;stroke-width:3;opacity:0">
  <animate attributeType="CSS" attributeName="opacity" from="0" to="1" begin="9s" dur="1s" repeatCount="0" fill="freeze" />
</path>
<path d="M38.88,67.7c0.7,0.87,0.75,1.89,0.8,3.22c0.19,5.96-0.35,9.52-0.35,13.54c0,12.29-0.63,14.29,26.5,14.29c23.93,0,26.98-2.25,26.98-10.08" style="fill:none;stroke:black;stroke-width:3;opacity:0">
  <animate attributeType="CSS" attributeName="opacity" from="0" to="1" begin="10s" dur="1s" repeatCount="0" fill="freeze" />
</path>
</svg>