<svg width="109px" height="109px" viewBox="0 0 px 109px" xmlns="http://www.w3.org/2000/svg" xmlns:xlink="http://www.w3.org/1999/xlink" xml:space="preserve" version="1.1"  baseProfile="full">
<path d="M12,35.7c2.47,0.3,1.51,0.66,4.15,0.3c6.53-0.89,18.39-2.97,29.26-4.35" style="fill:none;stroke:black;stroke-width:3;opacity:0">
  <animate attributeType="CSS" attributeName="opacity" from="0" to="1" begin="0s" dur="1s" repeatCount="0" fill="freeze" />
</path>
<path d="M29.17,12c0.51,0.96,1.75,2.6,1.84,5.77c0.42,15.23,0.26,65.86,0.26,71.05c0,14.91-6.62,3.7-8.13,2.09" style="fill:none;stroke:black;stroke-width:3;opacity:0">
  <animate attributeType="CSS" attributeName="opacity" from="0" to="1" begin="1s" dur="1s" repeatCount="0" fill="freeze" />
</path>
<path d="M10.75,64.52c2.68,1.6,2.9,1.37,5.58,0c1.58-0.81,17.72-9.72,24.42-13.6" style="fill:none;stroke:black;stroke-width:3;opacity:0">
  <animate attributeType="CSS" attributeName="opacity" from="0" to="1" begin="2s" dur="1s" repeatCount="0" fill="freeze" />
</path>
<path d="M49.67,21.62c0.8,0.43,3.56,0.46,4.36,0.38c5.54-0.5,23.34-2.66,32.79-3.5c1.33-0.12,4.13,0.37,4.79,0.58" style="fill:none;stroke:black;stroke-width:3;opacity:0">
  <animate attributeType="CSS" attributeName="opacity" from="0" to="1" begin="3s" dur="1s" repeatCount="0" fill="freeze" />
</path>
<path d="M47.38,52.78c1.29,0.46,3.67,0.59,4.96,0.46C64.5,52,77.99,50.25,92.1,49.83c2.16-0.06,3.45,0.22,4.53,0.45" style="fill:none;stroke:black;stroke-width:3;opacity:0">
  <animate attributeType="CSS" attributeName="opacity" from="0" to="1" begin="4s" dur="1s" repeatCount="0" fill="freeze" />
</path>
<path d="M68.81,23.13c0.54,0.51,2.29,2.12,2.29,4.83c0,5.29-0.07,61.56-0.18,67.92" style="fill:none;stroke:black;stroke-width:3;opacity:0">
  <animate attributeType="CSS" attributeName="opacity" from="0" to="1" begin="5s" dur="1s" repeatCount="0" fill="freeze" />
</path>
</svg>