<svg width="109px" height="109px" viewBox="0 0 px 109px" xmlns="http://www.w3.org/2000/svg" xmlns:xlink="http://www.w3.org/1999/xlink" xml:space="preserve" version="1.1"  baseProfile="full">
<path d="M12.25,37.92c2.04,0.25,3.94,0.46,6.03,0.1c4.85-0.84,12.72-2.52,19.23-3.98c1.21-0.27,2.49-0.54,3.91-0.29" style="fill:none;stroke:black;stroke-width:3;opacity:0">
  <animate attributeType="CSS" attributeName="opacity" from="0" to="1" begin="0s" dur="1s" repeatCount="0" fill="freeze" />
</path>
<path d="M29.02,15.25c1.12,1.12,1.51,2.75,1.51,4.77c0,15.23-0.01,53.96-0.01,65.4c0,14.25-6.07,3.53-7.52,2" style="fill:none;stroke:black;stroke-width:3;opacity:0">
  <animate attributeType="CSS" attributeName="opacity" from="0" to="1" begin="1s" dur="1s" repeatCount="0" fill="freeze" />
</path>
<path d="M11.25,65.93c1.38,0.82,2.5,0.82,4.5-0.43c5.11-3.19,9.62-6.25,22-14.33" style="fill:none;stroke:black;stroke-width:3;opacity:0">
  <animate attributeType="CSS" attributeName="opacity" from="0" to="1" begin="2s" dur="1s" repeatCount="0" fill="freeze" />
</path>
<path d="M47.39,39.22c2,0.57,4.11,0.21,6.1-0.12c6.67-1.09,18.45-3.61,25-4.13c1.62-0.13,3.25-0.22,4.91,0.09" style="fill:none;stroke:black;stroke-width:3;opacity:0">
  <animate attributeType="CSS" attributeName="opacity" from="0" to="1" begin="3s" dur="1s" repeatCount="0" fill="freeze" />
</path>
<path d="M42.65,58.23c2.7,0.69,5.42,0.41,8.1-0.09c10.25-1.89,26.63-3.93,35.37-4.81c2.06-0.21,4.75-0.36,6.75,0.33" style="fill:none;stroke:black;stroke-width:3;opacity:0">
  <animate attributeType="CSS" attributeName="opacity" from="0" to="1" begin="4s" dur="1s" repeatCount="0" fill="freeze" />
</path>
<path d="M63.35,15.5c1.08,1.08,1.05,2.62,1.08,4.44C65.12,61,58.5,80.5,41,94" style="fill:none;stroke:black;stroke-width:3;opacity:0">
  <animate attributeType="CSS" attributeName="opacity" from="0" to="1" begin="5s" dur="1s" repeatCount="0" fill="freeze" />
</path>
<path d="M64.18,56.87c6.88,9.09,15.07,20.88,22.93,29.65c1.9,2.11,4.22,4.25,6.64,5.76" style="fill:none;stroke:black;stroke-width:3;opacity:0">
  <animate attributeType="CSS" attributeName="opacity" from="0" to="1" begin="6s" dur="1s" repeatCount="0" fill="freeze" />
</path>
</svg>