<svg width="109px" height="109px" viewBox="0 0 px 109px" xmlns="http://www.w3.org/2000/svg" xmlns:xlink="http://www.w3.org/1999/xlink" xml:space="preserve" version="1.1"  baseProfile="full">
<path d="M13,38.75C15.08,39,14.25,39,16.5,39c4.26,0,17.5-2.5,26.67-3.67" style="fill:none;stroke:black;stroke-width:3;opacity:0">
  <animate attributeType="CSS" attributeName="opacity" from="0" to="1" begin="0s" dur="1s" repeatCount="Indefinite" fill="freeze" />
</path>
<path d="M29.38,14.33c0.51,0.96,1.76,2.62,1.85,5.81c0.42,15.33-0.27,63.35-0.27,68.57c0,10.29-5.54,2.63-7.12,1.32" style="fill:none;stroke:black;stroke-width:3;opacity:0">
  <animate attributeType="CSS" attributeName="opacity" from="0" to="1" begin="1s" dur="1s" repeatCount="Indefinite" fill="freeze" />
</path>
<path d="M13,65.54c2.03,1.26,3.33,0.69,5.36-0.4c1.2-0.64,10.82-6.32,15.89-9.39" style="fill:none;stroke:black;stroke-width:3;opacity:0">
  <animate attributeType="CSS" attributeName="opacity" from="0" to="1" begin="2s" dur="1s" repeatCount="Indefinite" fill="freeze" />
</path>
<path d="M69.66,14.17c0.84,1.85,0.41,3.65-0.5,5.51c-5.9,12.07-10.4,18.82-16.66,27.73c-2.66,3.78-0.74,5.04,2.51,4.19c9-2.35,20.75-4.6,35.17-8.7" style="fill:none;stroke:black;stroke-width:3;opacity:0">
  <animate attributeType="CSS" attributeName="opacity" from="0" to="1" begin="3s" dur="1s" repeatCount="Indefinite" fill="freeze" />
</path>
<path d="M80.42,32.58C86,36.09,94.85,47.01,96.25,52.46" style="fill:none;stroke:black;stroke-width:3;opacity:0">
  <animate attributeType="CSS" attributeName="opacity" from="0" to="1" begin="4s" dur="1s" repeatCount="Indefinite" fill="freeze" />
</path>
<path d="M51.62,65.22c0.45,0.48,0.91,0.87,1.1,1.47c1.55,4.72,2.88,18.91,3.94,27.39" style="fill:none;stroke:black;stroke-width:3;opacity:0">
  <animate attributeType="CSS" attributeName="opacity" from="0" to="1" begin="5s" dur="1s" repeatCount="Indefinite" fill="freeze" />
</path>
<path d="M53.72,67.2c14.28-2.2,24.98-3,32.48-3.94c2.56-0.32,4.07,0.85,3.73,3.57c-1.01,8-2.82,14.14-4.54,22.43" style="fill:none;stroke:black;stroke-width:3;opacity:0">
  <animate attributeType="CSS" attributeName="opacity" from="0" to="1" begin="6s" dur="1s" repeatCount="Indefinite" fill="freeze" />
</path>
<path d="M56.86,91.18c11.39-0.93,17.63-1,31.51-1.92" style="fill:none;stroke:black;stroke-width:3;opacity:0">
  <animate attributeType="CSS" attributeName="opacity" from="0" to="1" begin="7s" dur="1s" repeatCount="Indefinite" fill="freeze" />
</path>
</svg>