<svg width="109px" height="109px" viewBox="0 0 px 109px" xmlns="http://www.w3.org/2000/svg" xmlns:xlink="http://www.w3.org/1999/xlink" xml:space="preserve" version="1.1"  baseProfile="full">
<path d="M29.93,9.94c0.38,0.81,1.06,2.14,0.86,3.24c-0.97,5.42-6.25,18.78-10.48,24.85c-0.87,1.24,0.36,1.99,0.86,2.04c9.83,0.93,18.44,4.7,24.1,9.99" style="fill:none;stroke:black;stroke-width:3;opacity:0">
  <animate attributeType="CSS" attributeName="opacity" from="0" to="1" begin="0s" dur="1s" repeatCount="0" fill="freeze" />
</path>
<path d="M42.37,19.46c0.07,0.84,0.12,2.86-0.16,4.05C39.96,33.08,34,47,14.09,55.85" style="fill:none;stroke:black;stroke-width:3;opacity:0">
  <animate attributeType="CSS" attributeName="opacity" from="0" to="1" begin="1s" dur="1s" repeatCount="0" fill="freeze" />
</path>
<path d="M11.75,27.58c0.77,1.19,2.33,1.59,4.4,1.49c2.23-0.11,22.64-3.39,31.87-5.48" style="fill:none;stroke:black;stroke-width:3;opacity:0">
  <animate attributeType="CSS" attributeName="opacity" from="0" to="1" begin="2s" dur="1s" repeatCount="0" fill="freeze" />
</path>
<path d="M55.99,18.21c1.26,0.24,1.4,0.44,3.93,0.24c5.82-0.45,17.77-2.56,19.5-2.92c1.73-0.36,3.8,1.04,3.2,2.36C77.75,28.62,67,42.37,52.69,47.55" style="fill:none;stroke:black;stroke-width:3;opacity:0">
  <animate attributeType="CSS" attributeName="opacity" from="0" to="1" begin="3s" dur="1s" repeatCount="0" fill="freeze" />
</path>
<path d="M55.77,25.31c3.4,0.56,20.03,15.45,31.89,21.56c1.84,0.95,3.19,1.58,4.91,1.9" style="fill:none;stroke:black;stroke-width:3;opacity:0">
  <animate attributeType="CSS" attributeName="opacity" from="0" to="1" begin="4s" dur="1s" repeatCount="0" fill="freeze" />
</path>
<path d="M65.97,46c0.1,0.33,0.21,0.85-0.19,1.33c-2.37,2.79-15.95,8.93-34.53,12.68" style="fill:none;stroke:black;stroke-width:3;opacity:0">
  <animate attributeType="CSS" attributeName="opacity" from="0" to="1" begin="5s" dur="1s" repeatCount="0" fill="freeze" />
</path>
<path d="M25.88,68.27c1.12,0.39,3.18,0.47,4.3,0.39c14.06-1.06,23.51-2.71,45.12-4.31c1.86-0.14,4.89-0.16,5.83,0.04" style="fill:none;stroke:black;stroke-width:3;opacity:0">
  <animate attributeType="CSS" attributeName="opacity" from="0" to="1" begin="6s" dur="1s" repeatCount="0" fill="freeze" />
</path>
<path d="M14.9,80.54c1.47,0.51,4.17,0.54,5.65,0.51c13.75-0.26,42.47-4.14,66.58-4.06c2.46,0.01,3.93,0.24,5.16,0.5" style="fill:none;stroke:black;stroke-width:3;opacity:0">
  <animate attributeType="CSS" attributeName="opacity" from="0" to="1" begin="7s" dur="1s" repeatCount="0" fill="freeze" />
</path>
<path d="M52.32,56.22c6.31,9.45,6.68,25.03,4.32,36.32c-2.12,10.18-5.2,5.15-9.57,1.07" style="fill:none;stroke:black;stroke-width:3;opacity:0">
  <animate attributeType="CSS" attributeName="opacity" from="0" to="1" begin="8s" dur="1s" repeatCount="0" fill="freeze" />
</path>
</svg>