<svg width="109px" height="109px" viewBox="0 0 px 109px" xmlns="http://www.w3.org/2000/svg" xmlns:xlink="http://www.w3.org/1999/xlink" xml:space="preserve" version="1.1"  baseProfile="full">
<path d="M15,37.49c1.85,0.18,3.62,0.44,5.51,0.22c4.87-0.58,12.72-1.78,19.74-2.57c1.23-0.14,2.5-0.27,3.92-0.14" style="fill:none;stroke:black;stroke-width:3;opacity:0">
  <animate attributeType="CSS" attributeName="opacity" from="0" to="1" begin="0s" dur="1s" repeatCount="0" fill="freeze" />
</path>
<path d="M31.52,13.75c1.18,1.18,1.51,2.75,1.51,5.02c0,15.23-0.01,56.71-0.01,68.15c0,14.25-5.82,4.28-7.27,2.75" style="fill:none;stroke:black;stroke-width:3;opacity:0">
  <animate attributeType="CSS" attributeName="opacity" from="0" to="1" begin="1s" dur="1s" repeatCount="0" fill="freeze" />
</path>
<path d="M13.75,66.93c1.25,1.2,2.62,1.07,4.5-0.18c5.01-3.34,12.75-9.17,24-17.25" style="fill:none;stroke:black;stroke-width:3;opacity:0">
  <animate attributeType="CSS" attributeName="opacity" from="0" to="1" begin="2s" dur="1s" repeatCount="0" fill="freeze" />
</path>
<path d="M48.19,28.89c2.03,0.92,5.29,0.56,7.44,0.31c6.93-0.8,20.06-2.93,29.36-3.35c2.04-0.09,4.07-0.18,6.06,0.36" style="fill:none;stroke:black;stroke-width:3;opacity:0">
  <animate attributeType="CSS" attributeName="opacity" from="0" to="1" begin="3s" dur="1s" repeatCount="0" fill="freeze" />
</path>
<path d="M49.83,42.31c1,1,1.1,2.26,1.12,3.94c0.07,6.89,0.03,28.4,0.01,41c-0.01,4-0.01,7.05-0.01,8.37" style="fill:none;stroke:black;stroke-width:3;opacity:0">
  <animate attributeType="CSS" attributeName="opacity" from="0" to="1" begin="4s" dur="1s" repeatCount="0" fill="freeze" />
</path>
<path d="M51.7,43.64c7.42-0.76,33.34-3.55,35.26-3.78s3.54,1.06,3.54,3.29s0,29.77,0,45.61c0,11.29-6.07,2.54-7.04,1.86" style="fill:none;stroke:black;stroke-width:3;opacity:0">
  <animate attributeType="CSS" attributeName="opacity" from="0" to="1" begin="5s" dur="1s" repeatCount="0" fill="freeze" />
</path>
<path d="M52.2,57.58c10.3-1.21,29.42-2.58,37.06-3.14" style="fill:none;stroke:black;stroke-width:3;opacity:0">
  <animate attributeType="CSS" attributeName="opacity" from="0" to="1" begin="6s" dur="1s" repeatCount="0" fill="freeze" />
</path>
<path d="M52.12,71.91c5.67-0.52,30.58-2.63,37.13-2.97" style="fill:none;stroke:black;stroke-width:3;opacity:0">
  <animate attributeType="CSS" attributeName="opacity" from="0" to="1" begin="7s" dur="1s" repeatCount="0" fill="freeze" />
</path>
<path d="M67.83,12.78c0.88,0.88,1.22,2.1,1.22,3.88c0,0.95,0.09,49.04,0.07,69.84c0,4.14-0.01,6.22-0.01,7.66" style="fill:none;stroke:black;stroke-width:3;opacity:0">
  <animate attributeType="CSS" attributeName="opacity" from="0" to="1" begin="8s" dur="1s" repeatCount="0" fill="freeze" />
</path>
<path d="M86,12.12c3.14,1.53,8.11,6.31,8.9,8.69" style="fill:none;stroke:black;stroke-width:3;opacity:0">
  <animate attributeType="CSS" attributeName="opacity" from="0" to="1" begin="9s" dur="1s" repeatCount="0" fill="freeze" />
</path>
</svg>