<svg width="109px" height="109px" viewBox="0 0 px 109px" xmlns="http://www.w3.org/2000/svg" xmlns:xlink="http://www.w3.org/1999/xlink" xml:space="preserve" version="1.1"  baseProfile="full">
<path d="M11.5,35.92c2.08,0.25,1.27,0.55,3.5,0.25c5.5-0.75,14.5-2,23.67-3.17" style="fill:none;stroke:black;stroke-width:3;opacity:0">
  <animate attributeType="CSS" attributeName="opacity" from="0" to="1" begin="0s" dur="1s" repeatCount="0" fill="freeze" />
</path>
<path d="M25.27,12c0.48,0.92,1.76,2.49,1.76,5.52c0,15.23,0.24,59.96,0.24,71.4c0,14.25-6.32,3.53-7.77,2" style="fill:none;stroke:black;stroke-width:3;opacity:0">
  <animate attributeType="CSS" attributeName="opacity" from="0" to="1" begin="1s" dur="1s" repeatCount="0" fill="freeze" />
</path>
<path d="M12,63.99c0.9,1.06,2.33,1.69,4.3,0.7c1.17-0.58,14.49-10.16,21.31-14.53" style="fill:none;stroke:black;stroke-width:3;opacity:0">
  <animate attributeType="CSS" attributeName="opacity" from="0" to="1" begin="2s" dur="1s" repeatCount="0" fill="freeze" />
</path>
<path d="M82.46,12.5c0.08,0.35,0.33,1.01-0.17,1.4C76,18.82,66.71,23.33,50.34,27.29" style="fill:none;stroke:black;stroke-width:3;opacity:0">
  <animate attributeType="CSS" attributeName="opacity" from="0" to="1" begin="3s" dur="1s" repeatCount="0" fill="freeze" />
</path>
<path d="M45.56,37.15c1.18,0.45,3.33,0.49,4.52,0.45c10.45-0.35,31.85-4.1,40.33-4.04c1.96,0.01,3.15,0.21,4.13,0.44" style="fill:none;stroke:black;stroke-width:3;opacity:0">
  <animate attributeType="CSS" attributeName="opacity" from="0" to="1" begin="4s" dur="1s" repeatCount="0" fill="freeze" />
</path>
<path d="M41,55.96c1.41,0.36,3.05,0.43,4.46,0.36c12.96-0.65,32.72-2.58,47.93-3.08c2.35-0.08,3.76,0.17,4.94,0.35" style="fill:none;stroke:black;stroke-width:3;opacity:0">
  <animate attributeType="CSS" attributeName="opacity" from="0" to="1" begin="5s" dur="1s" repeatCount="0" fill="freeze" />
</path>
<path d="M50.92,44.25c1.13,1.48,1.49,1.93,1.61,2.84c1.13,8.52,0.72,16.66,0.91,21.91" style="fill:none;stroke:black;stroke-width:3;opacity:0">
  <animate attributeType="CSS" attributeName="opacity" from="0" to="1" begin="6s" dur="1s" repeatCount="0" fill="freeze" />
</path>
<path d="M85.19,40.75c0.22,1.26,0.88,2.19,0.77,3.75c-0.7,9.25-1.45,16.75-1.72,22.25" style="fill:none;stroke:black;stroke-width:3;opacity:0">
  <animate attributeType="CSS" attributeName="opacity" from="0" to="1" begin="7s" dur="1s" repeatCount="0" fill="freeze" />
</path>
<path d="M44.62,75.87c1.27,0.31,3.58,0.34,4.86,0.31c10.76-0.24,31.49-2.48,40.6-2.44c2.11,0.01,3.38,0.15,4.44,0.3" style="fill:none;stroke:black;stroke-width:3;opacity:0">
  <animate attributeType="CSS" attributeName="opacity" from="0" to="1" begin="8s" dur="1s" repeatCount="0" fill="freeze" />
</path>
<path d="M42.52,94.39c1.34,0.34,3.81,0.33,5.16,0.34c11.82,0.03,34.41-1.95,45.61-2.28c2.24-0.07,3.59,0.16,4.71,0.33" style="fill:none;stroke:black;stroke-width:3;opacity:0">
  <animate attributeType="CSS" attributeName="opacity" from="0" to="1" begin="9s" dur="1s" repeatCount="0" fill="freeze" />
</path>
<path d="M66.75,25.75c0.96,0.5,1.53,2.25,1.72,3.25s0.19,52,0.19,62" style="fill:none;stroke:black;stroke-width:3;opacity:0">
  <animate attributeType="CSS" attributeName="opacity" from="0" to="1" begin="10s" dur="1s" repeatCount="0" fill="freeze" />
</path>
</svg>