<svg width="109px" height="109px" viewBox="0 0 px 109px" xmlns="http://www.w3.org/2000/svg" xmlns:xlink="http://www.w3.org/1999/xlink" xml:space="preserve" version="1.1"  baseProfile="full">
<path d="M13.75,38.42c1.62,0.33,3.09,0.31,5.01,0.04c4.94-0.71,13.56-1.71,20.74-2.69c1.28-0.17,2.62-0.44,3.92-0.26" style="fill:none;stroke:black;stroke-width:3;opacity:0">
  <animate attributeType="CSS" attributeName="opacity" from="0" to="1" begin="0s" dur="1s" repeatCount="0" fill="freeze" />
</path>
<path d="M29.52,17c1.05,1.05,1.76,2.62,1.76,5.02c0,15.23-0.01,51.46-0.01,62.9c0,12.83-4.35,5.17-7.27,2.25" style="fill:none;stroke:black;stroke-width:3;opacity:0">
  <animate attributeType="CSS" attributeName="opacity" from="0" to="1" begin="1s" dur="1s" repeatCount="0" fill="freeze" />
</path>
<path d="M13.67,66.16c1.38,0.62,2.19,1.34,4.08-0.16c6-4.75,11-9.25,19.5-16.08" style="fill:none;stroke:black;stroke-width:3;opacity:0">
  <animate attributeType="CSS" attributeName="opacity" from="0" to="1" begin="2s" dur="1s" repeatCount="0" fill="freeze" />
</path>
<path d="M57.85,17.85c0.4,1.9,0.2,3.25-0.31,4.72c-3.25,9.37-7.12,17.78-14.55,29.1" style="fill:none;stroke:black;stroke-width:3;opacity:0">
  <animate attributeType="CSS" attributeName="opacity" from="0" to="1" begin="3s" dur="1s" repeatCount="0" fill="freeze" />
</path>
<path d="M51.73,38.04c0.74,0.74,0.75,1.61,0.75,2.96c-0.02,12.97-0.1,36.35-0.13,48c-0.01,2.83-0.01,5.06-0.01,6.45" style="fill:none;stroke:black;stroke-width:3;opacity:0">
  <animate attributeType="CSS" attributeName="opacity" from="0" to="1" begin="4s" dur="1s" repeatCount="0" fill="freeze" />
</path>
<path d="M78.97,16.44c0.28,0.94,0.03,2.06-0.29,2.79c-2.18,5.02-3.73,7.99-7.5,13.8" style="fill:none;stroke:black;stroke-width:3;opacity:0">
  <animate attributeType="CSS" attributeName="opacity" from="0" to="1" begin="5s" dur="1s" repeatCount="0" fill="freeze" />
</path>
<path d="M53.62,36.17c7.88-0.42,24.47-2.08,33.9-3.04c2.32-0.24,4.01-0.42,4.7-0.54" style="fill:none;stroke:black;stroke-width:3;opacity:0">
  <animate attributeType="CSS" attributeName="opacity" from="0" to="1" begin="6s" dur="1s" repeatCount="0" fill="freeze" />
</path>
<path d="M71.64,36.39c1.11,1.11,1.45,2.61,1.45,4.45c0,6.28-0.05,41.28-0.05,47.22" style="fill:none;stroke:black;stroke-width:3;opacity:0">
  <animate attributeType="CSS" attributeName="opacity" from="0" to="1" begin="7s" dur="1s" repeatCount="0" fill="freeze" />
</path>
<path d="M53.78,53.48C60.62,53,76.26,51.69,85,50.8c2.36-0.24,4.09-0.43,4.79-0.53" style="fill:none;stroke:black;stroke-width:3;opacity:0">
  <animate attributeType="CSS" attributeName="opacity" from="0" to="1" begin="8s" dur="1s" repeatCount="0" fill="freeze" />
</path>
<path d="M53.57,70.86c6.25-0.53,22.47-1.93,31.72-2.72c2.74-0.23,4.76-0.42,5.56-0.51" style="fill:none;stroke:black;stroke-width:3;opacity:0">
  <animate attributeType="CSS" attributeName="opacity" from="0" to="1" begin="9s" dur="1s" repeatCount="0" fill="freeze" />
</path>
<path d="M53.41,90.2c6.84-0.45,27.21-1.61,37.62-2.38c2.48-0.18,4.25-0.34,4.92-0.45" style="fill:none;stroke:black;stroke-width:3;opacity:0">
  <animate attributeType="CSS" attributeName="opacity" from="0" to="1" begin="10s" dur="1s" repeatCount="0" fill="freeze" />
</path>
</svg>