<svg width="109px" height="109px" viewBox="0 0 px 109px" xmlns="http://www.w3.org/2000/svg" xmlns:xlink="http://www.w3.org/1999/xlink" xml:space="preserve" version="1.1"  baseProfile="full">
<path d="M9,35.75c1.93,0.23,1.16,0.23,3.24,0.23c3.94,0,16.19-2.8,24.68-3.87" style="fill:none;stroke:black;stroke-width:3;opacity:0">
  <animate attributeType="CSS" attributeName="opacity" from="0" to="1" begin="0s" dur="1s" repeatCount="Indefinite" fill="freeze" />
</path>
<path d="M24.89,14.58c0.52,0.98,1.78,2.65,1.87,5.88c0.43,15.52-0.27,64.15-0.27,69.43c0,9.1-5.24,5.1-8.22,1.33" style="fill:none;stroke:black;stroke-width:3;opacity:0">
  <animate attributeType="CSS" attributeName="opacity" from="0" to="1" begin="1s" dur="1s" repeatCount="Indefinite" fill="freeze" />
</path>
<path d="M10.75,64.48c1,1.02,2.48,1.01,4.29,0.21c1.07-0.47,19.67-10.67,24.21-12.94" style="fill:none;stroke:black;stroke-width:3;opacity:0">
  <animate attributeType="CSS" attributeName="opacity" from="0" to="1" begin="2s" dur="1s" repeatCount="Indefinite" fill="freeze" />
</path>
<path d="M41.75,17.1c1.06,0.69,2.96,0.6,4.51,0.46c4.49-0.41,12.15-1.62,13.11-1.69c2.16-0.16,2.97,1.05,2.7,1.54c-0.26,0.47-0.41,16.97-0.41,23.52" style="fill:none;stroke:black;stroke-width:3;opacity:0">
  <animate attributeType="CSS" attributeName="opacity" from="0" to="1" begin="3s" dur="1s" repeatCount="Indefinite" fill="freeze" />
</path>
<path d="M53.77,18.64c0.03,0.35,0.07,0.9-0.07,1.4c-0.82,2.96-5.49,9.45-11.9,13.42" style="fill:none;stroke:black;stroke-width:3;opacity:0">
  <animate attributeType="CSS" attributeName="opacity" from="0" to="1" begin="4s" dur="1s" repeatCount="Indefinite" fill="freeze" />
</path>
<path d="M57.51,27.89c0.04,0.38,0.09,0.99-0.09,1.54c-1.07,3.26-7.21,10.4-15.62,14.78" style="fill:none;stroke:black;stroke-width:3;opacity:0">
  <animate attributeType="CSS" attributeName="opacity" from="0" to="1" begin="5s" dur="1s" repeatCount="Indefinite" fill="freeze" />
</path>
<path d="M68.3,14.93c1.02,0.79,1.88,0.59,3.38,0.52c4.14-0.17,12.83-1.9,13.76-1.98c2.08-0.19,2.86,1.2,2.6,1.76c-0.25,0.53-0.39,21.21-0.39,28.7" style="fill:none;stroke:black;stroke-width:3;opacity:0">
  <animate attributeType="CSS" attributeName="opacity" from="0" to="1" begin="6s" dur="1s" repeatCount="Indefinite" fill="freeze" />
</path>
<path d="M79.28,16.89c0.03,0.28,0.06,0.72-0.06,1.12c-0.71,2.36-4.81,7.54-10.41,10.71" style="fill:none;stroke:black;stroke-width:3;opacity:0">
  <animate attributeType="CSS" attributeName="opacity" from="0" to="1" begin="7s" dur="1s" repeatCount="Indefinite" fill="freeze" />
</path>
<path d="M83.77,25.89c0.04,0.28,0.08,0.73-0.07,1.14c-0.87,2.41-5.84,7.7-12.64,10.93" style="fill:none;stroke:black;stroke-width:3;opacity:0">
  <animate attributeType="CSS" attributeName="opacity" from="0" to="1" begin="8s" dur="1s" repeatCount="Indefinite" fill="freeze" />
</path>
<path d="M66.21,41.75c0.07,0.56,0.33,1.53-0.15,2.25c-3.38,5.1-11.28,13.67-26.35,21.5" style="fill:none;stroke:black;stroke-width:3;opacity:0">
  <animate attributeType="CSS" attributeName="opacity" from="0" to="1" begin="9s" dur="1s" repeatCount="Indefinite" fill="freeze" />
</path>
<path d="M66.25,45.5c3.93,4.01,20.84,17.11,25.18,20.04c1.47,1,3.36,1.42,4.82,1.71" style="fill:none;stroke:black;stroke-width:3;opacity:0">
  <animate attributeType="CSS" attributeName="opacity" from="0" to="1" begin="10s" dur="1s" repeatCount="Indefinite" fill="freeze" />
</path>
<path d="M69.3,56c0.07,0.41,0.24,1.11-0.13,1.65c-2.43,3.5-10.61,10.33-22.64,15.12" style="fill:none;stroke:black;stroke-width:3;opacity:0">
  <animate attributeType="CSS" attributeName="opacity" from="0" to="1" begin="11s" dur="1s" repeatCount="Indefinite" fill="freeze" />
</path>
<path d="M76.72,66.27c0.09,0.43,0.32,1.18-0.17,1.73C73.22,71.79,62.33,79.37,46,84.6" style="fill:none;stroke:black;stroke-width:3;opacity:0">
  <animate attributeType="CSS" attributeName="opacity" from="0" to="1" begin="12s" dur="1s" repeatCount="Indefinite" fill="freeze" />
</path>
<path d="M82.51,77.63c0.11,0.45,0.23,1.16-0.21,1.81c-2.64,3.82-17.76,12.18-38.46,17.31" style="fill:none;stroke:black;stroke-width:3;opacity:0">
  <animate attributeType="CSS" attributeName="opacity" from="0" to="1" begin="13s" dur="1s" repeatCount="Indefinite" fill="freeze" />
</path>
</svg>