<svg width="109px" height="109px" viewBox="0 0 px 109px" xmlns="http://www.w3.org/2000/svg" xmlns:xlink="http://www.w3.org/1999/xlink" xml:space="preserve" version="1.1"  baseProfile="full">
<path d="M11.5,34.92c2.08,0.25,1.27,0.55,3.5,0.25c5.5-0.75,13-1.5,22.17-2.67" style="fill:none;stroke:black;stroke-width:3;opacity:0">
  <animate attributeType="CSS" attributeName="opacity" from="0" to="1" begin="0s" dur="1s" repeatCount="0" fill="freeze" />
</path>
<path d="M25.44,12c0.56,0.94,2.04,2.56,2.04,5.67c0,15.66,0.28,58.04,0.28,69.79c0,14.65-7.34,3.63-9.02,2.06" style="fill:none;stroke:black;stroke-width:3;opacity:0">
  <animate attributeType="CSS" attributeName="opacity" from="0" to="1" begin="1s" dur="1s" repeatCount="0" fill="freeze" />
</path>
<path d="M11.5,64.49c0.89,1.06,2.32,1.68,4.29,0.7c1.16-0.58,17.19-11.01,22.12-13.78" style="fill:none;stroke:black;stroke-width:3;opacity:0">
  <animate attributeType="CSS" attributeName="opacity" from="0" to="1" begin="2s" dur="1s" repeatCount="0" fill="freeze" />
</path>
<path d="M45.92,15.82c1.25,0.13,3.3,0.49,4.43,0.39c6.86-0.59,21.91-2.06,32.31-2.63c1.59-0.08,2.91-0.11,4.37,0.08" style="fill:none;stroke:black;stroke-width:3;opacity:0">
  <animate attributeType="CSS" attributeName="opacity" from="0" to="1" begin="3s" dur="1s" repeatCount="0" fill="freeze" />
</path>
<path d="M43.83,25.99c-0.23,5.49-2.25,11.57-3.74,17.12" style="fill:none;stroke:black;stroke-width:3;opacity:0">
  <animate attributeType="CSS" attributeName="opacity" from="0" to="1" begin="4s" dur="1s" repeatCount="0" fill="freeze" />
</path>
<path d="M44.59,28.5c15.66-1.25,34.97-2.63,46.61-3c8.04-0.25,3.26,4.42,0.14,8.21" style="fill:none;stroke:black;stroke-width:3;opacity:0">
  <animate attributeType="CSS" attributeName="opacity" from="0" to="1" begin="5s" dur="1s" repeatCount="0" fill="freeze" />
</path>
<path d="M65.06,16.56c1.06,0.75,1.51,2.59,1.51,3.18c0,0.6-0.24,31.93-0.24,33.57" style="fill:none;stroke:black;stroke-width:3;opacity:0">
  <animate attributeType="CSS" attributeName="opacity" from="0" to="1" begin="6s" dur="1s" repeatCount="0" fill="freeze" />
</path>
<path d="M52.14,35.25c2.51,0.87,5.94,3.47,7.31,4.92" style="fill:none;stroke:black;stroke-width:3;opacity:0">
  <animate attributeType="CSS" attributeName="opacity" from="0" to="1" begin="7s" dur="1s" repeatCount="0" fill="freeze" />
</path>
<path d="M48.09,46.64c2.99,0.83,7.6,3.87,9.23,5.25" style="fill:none;stroke:black;stroke-width:3;opacity:0">
  <animate attributeType="CSS" attributeName="opacity" from="0" to="1" begin="8s" dur="1s" repeatCount="0" fill="freeze" />
</path>
<path d="M75.61,34.04c3.14,1.39,6.71,4.17,7.97,5.32" style="fill:none;stroke:black;stroke-width:3;opacity:0">
  <animate attributeType="CSS" attributeName="opacity" from="0" to="1" begin="9s" dur="1s" repeatCount="0" fill="freeze" />
</path>
<path d="M75.48,46.19c3.21,0.91,7.58,3.65,9.33,5.18" style="fill:none;stroke:black;stroke-width:3;opacity:0">
  <animate attributeType="CSS" attributeName="opacity" from="0" to="1" begin="10s" dur="1s" repeatCount="0" fill="freeze" />
</path>
<path d="M44.83,62.38c0.34,0.56,0.35,0.96,0.54,1.67c1.55,5.86,2.16,21.73,3.12,32.66" style="fill:none;stroke:black;stroke-width:3;opacity:0">
  <animate attributeType="CSS" attributeName="opacity" from="0" to="1" begin="11s" dur="1s" repeatCount="0" fill="freeze" />
</path>
<path d="M46.01,64.22c11.98-1.48,31.93-2.43,40.88-3.66c3.28-0.46,4.97,1.15,4.8,2.77C91.07,69.24,89.5,85,87.27,95.18" style="fill:none;stroke:black;stroke-width:3;opacity:0">
  <animate attributeType="CSS" attributeName="opacity" from="0" to="1" begin="12s" dur="1s" repeatCount="0" fill="freeze" />
</path>
<path d="M66.32,63.14c0.86,0.3,1.37,2.17,1.4,3.44c0.24,8.37,0.08,20.97,0.08,25.38" style="fill:none;stroke:black;stroke-width:3;opacity:0">
  <animate attributeType="CSS" attributeName="opacity" from="0" to="1" begin="13s" dur="1s" repeatCount="0" fill="freeze" />
</path>
<path d="M47.82,78.32c3.9-0.57,38.87-2.72,42.09-2.96" style="fill:none;stroke:black;stroke-width:3;opacity:0">
  <animate attributeType="CSS" attributeName="opacity" from="0" to="1" begin="14s" dur="1s" repeatCount="0" fill="freeze" />
</path>
<path d="M48.68,94.08c8.62-0.63,24.67-1.53,38.09-2.17" style="fill:none;stroke:black;stroke-width:3;opacity:0">
  <animate attributeType="CSS" attributeName="opacity" from="0" to="1" begin="15s" dur="1s" repeatCount="0" fill="freeze" />
</path>
</svg>