<svg width="109px" height="109px" viewBox="0 0 px 109px" xmlns="http://www.w3.org/2000/svg" xmlns:xlink="http://www.w3.org/1999/xlink" xml:space="preserve" version="1.1"  baseProfile="full">
<path d="M14.5,39.42c2.08,0.25,1.27,0.55,3.5,0.25c5.5-0.75,13.5-2,22.67-3.17" style="fill:none;stroke:black;stroke-width:3;opacity:0">
  <animate attributeType="CSS" attributeName="opacity" from="0" to="1" begin="0s" dur="1s" repeatCount="0" fill="freeze" />
</path>
<path d="M30.27,14.5c0.48,0.92,1.67,2.49,1.76,5.52c0.4,14.55,0.24,60.44,0.24,65.4c0,14.25-5.82,4.03-7.27,2.5" style="fill:none;stroke:black;stroke-width:3;opacity:0">
  <animate attributeType="CSS" attributeName="opacity" from="0" to="1" begin="1s" dur="1s" repeatCount="0" fill="freeze" />
</path>
<path d="M12.5,65.14c2.79,2.26,4.58,1.22,7.36-0.71c1.64-1.14,11.67-8.79,18.64-14.27" style="fill:none;stroke:black;stroke-width:3;opacity:0">
  <animate attributeType="CSS" attributeName="opacity" from="0" to="1" begin="2s" dur="1s" repeatCount="0" fill="freeze" />
</path>
<path d="M45.25,15.38c1.06,0.54,1.96,0.54,3.51,0.36c3.15-0.36,12.15-1.36,13.11-1.42c2.16-0.13,2.97,0.82,2.7,1.2c-0.26,0.37-0.41,20.28-0.41,25.41" style="fill:none;stroke:black;stroke-width:3;opacity:0">
  <animate attributeType="CSS" attributeName="opacity" from="0" to="1" begin="3s" dur="1s" repeatCount="0" fill="freeze" />
</path>
<path d="M54.77,18.93c0.03,0.27,0.06,0.69-0.06,1.08c-0.71,2.28-4.81,7.28-10.41,10.34" style="fill:none;stroke:black;stroke-width:3;opacity:0">
  <animate attributeType="CSS" attributeName="opacity" from="0" to="1" begin="4s" dur="1s" repeatCount="0" fill="freeze" />
</path>
<path d="M61.51,24.48c0.04,0.34,0.08,0.89-0.08,1.38c-0.97,2.9-6.52,9.28-14.13,13.18" style="fill:none;stroke:black;stroke-width:3;opacity:0">
  <animate attributeType="CSS" attributeName="opacity" from="0" to="1" begin="5s" dur="1s" repeatCount="0" fill="freeze" />
</path>
<path d="M72.3,13.96c1.19,0.54,2.21,0.54,3.96,0.36c3.55-0.36,11.64-1.3,12.72-1.35c2.44-0.13,3.35,0.82,3.05,1.2c-0.29,0.36-0.46,21.9-0.46,27.01" style="fill:none;stroke:black;stroke-width:3;opacity:0">
  <animate attributeType="CSS" attributeName="opacity" from="0" to="1" begin="6s" dur="1s" repeatCount="0" fill="freeze" />
</path>
<path d="M82.58,17.72c0.03,0.18,0.06,0.48-0.06,0.74c-0.68,1.56-4.58,4.97-9.93,7.06" style="fill:none;stroke:black;stroke-width:3;opacity:0">
  <animate attributeType="CSS" attributeName="opacity" from="0" to="1" begin="7s" dur="1s" repeatCount="0" fill="freeze" />
</path>
<path d="M87.43,24.73c0.04,0.26,0.08,0.67-0.07,1.04c-0.88,2.18-5.89,6.97-12.76,9.9" style="fill:none;stroke:black;stroke-width:3;opacity:0">
  <animate attributeType="CSS" attributeName="opacity" from="0" to="1" begin="8s" dur="1s" repeatCount="0" fill="freeze" />
</path>
<path d="M55.5,42.25c0.15,1.21-0.04,2.79-0.54,3.82c-3.17,6.59-7.19,12.16-14.46,20.18" style="fill:none;stroke:black;stroke-width:3;opacity:0">
  <animate attributeType="CSS" attributeName="opacity" from="0" to="1" begin="9s" dur="1s" repeatCount="0" fill="freeze" />
</path>
<path d="M52.05,55.29c0.75,5.8-0.36,36.11-0.02,41.21" style="fill:none;stroke:black;stroke-width:3;opacity:0">
  <animate attributeType="CSS" attributeName="opacity" from="0" to="1" begin="10s" dur="1s" repeatCount="0" fill="freeze" />
</path>
<path d="M76.74,41.5c0.07,0.57-0.02,1.33-0.25,1.82c-1.48,3.14-3.35,5.56-6.73,9.38" style="fill:none;stroke:black;stroke-width:3;opacity:0">
  <animate attributeType="CSS" attributeName="opacity" from="0" to="1" begin="11s" dur="1s" repeatCount="0" fill="freeze" />
</path>
<path d="M52.23,55.03c7.19-0.83,37.05-3.24,40.13-3.7" style="fill:none;stroke:black;stroke-width:3;opacity:0">
  <animate attributeType="CSS" attributeName="opacity" from="0" to="1" begin="12s" dur="1s" repeatCount="0" fill="freeze" />
</path>
<path d="M71.58,55.38c0.35,0.32,0.62,0.77,0.62,1.33c0,5.71,0.04,23.65-0.17,32.64" style="fill:none;stroke:black;stroke-width:3;opacity:0">
  <animate attributeType="CSS" attributeName="opacity" from="0" to="1" begin="13s" dur="1s" repeatCount="0" fill="freeze" />
</path>
<path d="M53.51,66.86c6.78-0.69,32-2.68,34.91-3.06" style="fill:none;stroke:black;stroke-width:3;opacity:0">
  <animate attributeType="CSS" attributeName="opacity" from="0" to="1" begin="14s" dur="1s" repeatCount="0" fill="freeze" />
</path>
<path d="M52.68,78.46c7.16-0.58,33.62-2.25,36.69-2.57" style="fill:none;stroke:black;stroke-width:3;opacity:0">
  <animate attributeType="CSS" attributeName="opacity" from="0" to="1" begin="15s" dur="1s" repeatCount="0" fill="freeze" />
</path>
<path d="M53.36,91.27c7.19-0.83,39.99-3.42,43.08-3.87" style="fill:none;stroke:black;stroke-width:3;opacity:0">
  <animate attributeType="CSS" attributeName="opacity" from="0" to="1" begin="16s" dur="1s" repeatCount="0" fill="freeze" />
</path>
</svg>