<svg width="109px" height="109px" viewBox="0 0 px 109px" xmlns="http://www.w3.org/2000/svg" xmlns:xlink="http://www.w3.org/1999/xlink" xml:space="preserve" version="1.1"  baseProfile="full">
<path d="M35.25,14c0.24,2.17-0.07,5.01-0.85,6.87c-4.97,11.86-11.27,22.99-22.66,37.42" style="fill:none;stroke:black;stroke-width:3;opacity:0">
  <animate attributeType="CSS" attributeName="opacity" from="0" to="1" begin="0s" dur="1s" repeatCount="Indefinite" fill="freeze" />
</path>
<path d="M25.53,42c0.47,1,1.19,1.94,1.25,3.23c0.58,12.48-1.02,43.27-0.53,50.52" style="fill:none;stroke:black;stroke-width:3;opacity:0">
  <animate attributeType="CSS" attributeName="opacity" from="0" to="1" begin="1s" dur="1s" repeatCount="Indefinite" fill="freeze" />
</path>
<path d="M38.27,33.83c0.98,0.92,1.67,1.99,1.76,5.02C40.42,53.41,40,81.54,40,86.5" style="fill:none;stroke:black;stroke-width:3;opacity:0">
  <animate attributeType="CSS" attributeName="opacity" from="0" to="1" begin="2s" dur="1s" repeatCount="Indefinite" fill="freeze" />
</path>
<path d="M63.34,13.64c0.04,0.96,0.26,2.54-0.08,3.87C61.1,26,55.23,45.25,47.75,57" style="fill:none;stroke:black;stroke-width:3;opacity:0">
  <animate attributeType="CSS" attributeName="opacity" from="0" to="1" begin="3s" dur="1s" repeatCount="Indefinite" fill="freeze" />
</path>
<path d="M62.22,34.17c0.03-0.17,1.71,0.5,2.31,0.46c6.28-0.52,17.02-2.38,26.6-3.22c1.08-0.09,1.74-0.02,2.02,0.08" style="fill:none;stroke:black;stroke-width:3;opacity:0">
  <animate attributeType="CSS" attributeName="opacity" from="0" to="1" begin="4s" dur="1s" repeatCount="Indefinite" fill="freeze" />
</path>
<path d="M79.79,37.43c0.56,1.39,0.86,2.38,0.28,4.92C74.79,65.4,62.75,86,45.37,94" style="fill:none;stroke:black;stroke-width:3;opacity:0">
  <animate attributeType="CSS" attributeName="opacity" from="0" to="1" begin="5s" dur="1s" repeatCount="Indefinite" fill="freeze" />
</path>
<path d="M55.75,46.26c6,10.49,22.98,34.99,33.52,43.43c2.03,1.62,3.32,1.89,4.98,2.07" style="fill:none;stroke:black;stroke-width:3;opacity:0">
  <animate attributeType="CSS" attributeName="opacity" from="0" to="1" begin="6s" dur="1s" repeatCount="Indefinite" fill="freeze" />
</path>
</svg>