<svg width="109px" height="109px" viewBox="0 0 px 109px" xmlns="http://www.w3.org/2000/svg" xmlns:xlink="http://www.w3.org/1999/xlink" xml:space="preserve" version="1.1"  baseProfile="full">
<path d="M13.13,29.98c1.24,0.77,2.99,1.06,4.6,0.9c4.69-0.47,13.42-2.13,20.16-3.8c4.36-1.08,5.89,0.43,4.35,4.51c-1.09,2.89-3.12,9.53-4.82,15.88" style="fill:none;stroke:black;stroke-width:3;opacity:0">
  <animate attributeType="CSS" attributeName="opacity" from="0" to="1" begin="0s" dur="1s" repeatCount="Indefinite" fill="freeze" />
</path>
<path d="M13.66,50c1.09,0.62,2.34,0.79,3.44,0.74c4.45-0.2,13.4-1.37,18.9-2.09c1.19-0.16,2.33-0.03,3.36,0.02" style="fill:none;stroke:black;stroke-width:3;opacity:0">
  <animate attributeType="CSS" attributeName="opacity" from="0" to="1" begin="1s" dur="1s" repeatCount="Indefinite" fill="freeze" />
</path>
<path d="M15.04,51.02c0.72,0.72,1.07,1.73,1.07,2.92c0,8.25,0.03,11.68,0.03,16.68c0,10.12,1.24,11.4,11.31,11.4c10.3,0,12.52-1.29,12.75-8.88" style="fill:none;stroke:black;stroke-width:3;opacity:0">
  <animate attributeType="CSS" attributeName="opacity" from="0" to="1" begin="2s" dur="1s" repeatCount="Indefinite" fill="freeze" />
</path>
<path d="M62.66,16.3c0.34,1.33,0.28,2.31-0.09,3.52c-2.36,7.73-8.16,22.98-16.32,33.68" style="fill:none;stroke:black;stroke-width:3;opacity:0">
  <animate attributeType="CSS" attributeName="opacity" from="0" to="1" begin="3s" dur="1s" repeatCount="Indefinite" fill="freeze" />
</path>
<path d="M59.81,36.74c1.57,0.26,2.79,0.03,3.51-0.07c5.53-0.79,15.31-2.47,22.19-3.63c1.76-0.3,3.49-0.46,5.27-0.19" style="fill:none;stroke:black;stroke-width:3;opacity:0">
  <animate attributeType="CSS" attributeName="opacity" from="0" to="1" begin="4s" dur="1s" repeatCount="Indefinite" fill="freeze" />
</path>
<path d="M78.81,37.89c0.44,1.36,0.68,2.86-0.18,5.26C71.5,63,58.88,82.62,39.88,93.12" style="fill:none;stroke:black;stroke-width:3;opacity:0">
  <animate attributeType="CSS" attributeName="opacity" from="0" to="1" begin="5s" dur="1s" repeatCount="Indefinite" fill="freeze" />
</path>
<path d="M54.56,52.34c3.73,0.29,21.17,24.37,33.3,34.27c2.31,1.89,4.86,3.89,7.89,4.39" style="fill:none;stroke:black;stroke-width:3;opacity:0">
  <animate attributeType="CSS" attributeName="opacity" from="0" to="1" begin="6s" dur="1s" repeatCount="Indefinite" fill="freeze" />
</path>
</svg>