<svg width="109px" height="109px" viewBox="0 0 px 109px" xmlns="http://www.w3.org/2000/svg" xmlns:xlink="http://www.w3.org/1999/xlink" xml:space="preserve" version="1.1"  baseProfile="full">
<path d="M15.17,26.02c1.7,0.74,4.05,0.38,5.83,0.25c6.03-0.46,16.79-1.94,22.42-2.74c1.68-0.24,3.38-0.6,5.06-0.17" style="fill:none;stroke:black;stroke-width:3;opacity:0">
  <animate attributeType="CSS" attributeName="opacity" from="0" to="1" begin="0s" dur="1s" repeatCount="0" fill="freeze" />
</path>
<path d="M15.65,35.63c0.8,0.8,1.23,1.74,1.38,2.7c0.35,2.13,1.26,8.62,1.81,13.92c0.17,1.64,0.28,3.07,0.28,4.07" style="fill:none;stroke:black;stroke-width:3;opacity:0">
  <animate attributeType="CSS" attributeName="opacity" from="0" to="1" begin="1s" dur="1s" repeatCount="0" fill="freeze" />
</path>
<path d="M17.58,36.89c6.27-0.84,21.46-2.65,27.16-3.23c3.27-0.34,5,0.17,4.44,3.85c-0.31,2.08-0.78,5.7-1.99,11.34c-0.31,1.44-0.67,3.01-1.08,4.73" style="fill:none;stroke:black;stroke-width:3;opacity:0">
  <animate attributeType="CSS" attributeName="opacity" from="0" to="1" begin="2s" dur="1s" repeatCount="0" fill="freeze" />
</path>
<path d="M19.08,45.19c7.17-0.82,22.76-2.31,28.04-2.66" style="fill:none;stroke:black;stroke-width:3;opacity:0">
  <animate attributeType="CSS" attributeName="opacity" from="0" to="1" begin="3s" dur="1s" repeatCount="0" fill="freeze" />
</path>
<path d="M20.31,54.48c4.7-0.35,19.69-1.98,25.13-2.21" style="fill:none;stroke:black;stroke-width:3;opacity:0">
  <animate attributeType="CSS" attributeName="opacity" from="0" to="1" begin="4s" dur="1s" repeatCount="0" fill="freeze" />
</path>
<path d="M31.16,13.61c0.92,0.92,1.15,2.01,1.15,3.44c0,7.41,0.04,21.75,0.04,35.29" style="fill:none;stroke:black;stroke-width:3;opacity:0">
  <animate attributeType="CSS" attributeName="opacity" from="0" to="1" begin="5s" dur="1s" repeatCount="0" fill="freeze" />
</path>
<path d="M45.75,13.12c3.04,1.28,7.86,5.26,8.62,7.25" style="fill:none;stroke:black;stroke-width:3;opacity:0">
  <animate attributeType="CSS" attributeName="opacity" from="0" to="1" begin="6s" dur="1s" repeatCount="0" fill="freeze" />
</path>
<path d="M32.51,58.27c0.8,0.8,1.03,1.86,1.03,3.39c0,2.29-0.04,2.83-0.04,4.6" style="fill:none;stroke:black;stroke-width:3;opacity:0">
  <animate attributeType="CSS" attributeName="opacity" from="0" to="1" begin="7s" dur="1s" repeatCount="0" fill="freeze" />
</path>
<path d="M10.98,69.22c2.15,0.28,3.89,0.2,6.03-0.04c7.04-0.79,21.34-2.68,29.5-3.36c2.01-0.17,4.31-0.62,6.26,0.11" style="fill:none;stroke:black;stroke-width:3;opacity:0">
  <animate attributeType="CSS" attributeName="opacity" from="0" to="1" begin="8s" dur="1s" repeatCount="0" fill="freeze" />
</path>
<path d="M32.36,74.86c3.27,0.89,5.14,1.14,8.73,2.07c2.06,0.53,2.43,1.58,1.89,3.57c-1.15,4.24-5.28,11.28-7.24,13.89c-2.37,3.17-3.96-0.12-4.67-0.55" style="fill:none;stroke:black;stroke-width:3;opacity:0">
  <animate attributeType="CSS" attributeName="opacity" from="0" to="1" begin="9s" dur="1s" repeatCount="0" fill="freeze" />
</path>
<path d="M31.98,70.04c0.27,0.84,0.31,1.63-0.1,2.43c-2.88,5.66-8,14.91-17.97,21.75" style="fill:none;stroke:black;stroke-width:3;opacity:0">
  <animate attributeType="CSS" attributeName="opacity" from="0" to="1" begin="10s" dur="1s" repeatCount="0" fill="freeze" />
</path>
<path d="M67.93,15.14c0.05,1.24,0.1,2.39-0.18,3.61c-1.98,8.58-6.74,22.49-13.25,32.62" style="fill:none;stroke:black;stroke-width:3;opacity:0">
  <animate attributeType="CSS" attributeName="opacity" from="0" to="1" begin="11s" dur="1s" repeatCount="0" fill="freeze" />
</path>
<path d="M64.58,38.63c1.09,0.32,3.11,0,3.7-0.04c5.33-0.45,12.97-2.84,18.98-4.23c1.41-0.33,3.87-0.48,5.59-0.08" style="fill:none;stroke:black;stroke-width:3;opacity:0">
  <animate attributeType="CSS" attributeName="opacity" from="0" to="1" begin="12s" dur="1s" repeatCount="0" fill="freeze" />
</path>
<path d="M81.28,40.37c0.54,1.33,0.44,2.56-0.23,4.97C75,67,64.5,83.25,47.59,95.25" style="fill:none;stroke:black;stroke-width:3;opacity:0">
  <animate attributeType="CSS" attributeName="opacity" from="0" to="1" begin="13s" dur="1s" repeatCount="0" fill="freeze" />
</path>
<path d="M59.4,52.48c2.99,0.8,17.85,21.02,28.32,33.55c1.93,2.31,4.28,4.6,7.28,6.28" style="fill:none;stroke:black;stroke-width:3;opacity:0">
  <animate attributeType="CSS" attributeName="opacity" from="0" to="1" begin="14s" dur="1s" repeatCount="0" fill="freeze" />
</path>
</svg>