<svg width="109px" height="109px" viewBox="0 0 px 109px" xmlns="http://www.w3.org/2000/svg" xmlns:xlink="http://www.w3.org/1999/xlink" xml:space="preserve" version="1.1"  baseProfile="full">
<path d="M12.25,27.25c0.56,0.37,3.6,0.45,4.16,0.34c2.63-0.5,13.34-2.09,19.66-2.64c0.86-0.07,2.46-0.26,3.18,0.04" style="fill:none;stroke:black;stroke-width:3;opacity:0">
  <animate attributeType="CSS" attributeName="opacity" from="0" to="1" begin="0s" dur="1s" repeatCount="Indefinite" fill="freeze" />
</path>
<path d="M25.57,29.52c0.87,0.88,1.48,2.78,1.48,3.48c0,5.95,0.52,37.62,0.35,41.57" style="fill:none;stroke:black;stroke-width:3;opacity:0">
  <animate attributeType="CSS" attributeName="opacity" from="0" to="1" begin="1s" dur="1s" repeatCount="Indefinite" fill="freeze" />
</path>
<path d="M12.5,52.32c0.5,0.36,3.99,0.42,4.5,0.33c2.91-0.48,13.66-2.25,17.69-2.76c0.62-0.08,2.88-0.15,3.81,0.17" style="fill:none;stroke:black;stroke-width:3;opacity:0">
  <animate attributeType="CSS" attributeName="opacity" from="0" to="1" begin="2s" dur="1s" repeatCount="Indefinite" fill="freeze" />
</path>
<path d="M13.25,80.75c1.25,1.5,3.18,1.43,4,1C22.5,79,29.5,75.5,37.5,70.75" style="fill:none;stroke:black;stroke-width:3;opacity:0">
  <animate attributeType="CSS" attributeName="opacity" from="0" to="1" begin="3s" dur="1s" repeatCount="Indefinite" fill="freeze" />
</path>
<path d="M54.06,18c0.59,0.51,1.56,2.48,1.56,3.49c0,4.01-0.02,9.44-0.08,12.32" style="fill:none;stroke:black;stroke-width:3;opacity:0">
  <animate attributeType="CSS" attributeName="opacity" from="0" to="1" begin="4s" dur="1s" repeatCount="Indefinite" fill="freeze" />
</path>
<path d="M40.5,35.69c0.67,0.07,2.21,0.4,2.86,0.36c5.48-0.34,16.81-3.26,23.08-3.7c1.11-0.08,1.48-0.09,2.8-0.09" style="fill:none;stroke:black;stroke-width:3;opacity:0">
  <animate attributeType="CSS" attributeName="opacity" from="0" to="1" begin="5s" dur="1s" repeatCount="Indefinite" fill="freeze" />
</path>
<path d="M62.09,36.81c0.35,1.24,0.66,2.12,0.17,4.41C57.8,62.12,46.6,83.76,34.63,92.75" style="fill:none;stroke:black;stroke-width:3;opacity:0">
  <animate attributeType="CSS" attributeName="opacity" from="0" to="1" begin="6s" dur="1s" repeatCount="Indefinite" fill="freeze" />
</path>
<path d="M44.21,47.01c7.92,5.9,16.45,19.1,20.54,27.99" style="fill:none;stroke:black;stroke-width:3;opacity:0">
  <animate attributeType="CSS" attributeName="opacity" from="0" to="1" begin="7s" dur="1s" repeatCount="Indefinite" fill="freeze" />
</path>
<path d="M67.5,24.86c0.63,0.45,2.67,0.08,3.31,0.03c4.94-0.39,13.69-1.39,20.5-2.68c0.96-0.18,1.85,0.09,2.65,0.46" style="fill:none;stroke:black;stroke-width:3;opacity:0">
  <animate attributeType="CSS" attributeName="opacity" from="0" to="1" begin="8s" dur="1s" repeatCount="Indefinite" fill="freeze" />
</path>
<path d="M79.25,26.56c1.61,2.19,1.61,3.5,1.61,5.25c0,12.25-0.02,33.88-0.02,53.51" style="fill:none;stroke:black;stroke-width:3;opacity:0">
  <animate attributeType="CSS" attributeName="opacity" from="0" to="1" begin="9s" dur="1s" repeatCount="Indefinite" fill="freeze" />
</path>
<path d="M67.95,53.54c0.47,0.31,3.5,0.69,3.98,0.63c4.96-0.54,12.76-2.12,18.59-2.66c0.58-0.05,1.86-0.12,2.73,0.14" style="fill:none;stroke:black;stroke-width:3;opacity:0">
  <animate attributeType="CSS" attributeName="opacity" from="0" to="1" begin="10s" dur="1s" repeatCount="Indefinite" fill="freeze" />
</path>
<path d="M61.25,87.11c0.42,0.12,2.63,0.06,3.35,0c10.04-0.83,20.55-1.84,31.29-2.13c1.15-0.03,2.54,0.2,3.12,0.38" style="fill:none;stroke:black;stroke-width:3;opacity:0">
  <animate attributeType="CSS" attributeName="opacity" from="0" to="1" begin="11s" dur="1s" repeatCount="Indefinite" fill="freeze" />
</path>
</svg>