<svg width="109px" height="109px" viewBox="0 0 px 109px" xmlns="http://www.w3.org/2000/svg" xmlns:xlink="http://www.w3.org/1999/xlink" xml:space="preserve" version="1.1"  baseProfile="full">
<path d="M59.76,11.75c-0.39,1.25-1.14,2.17-1.87,2.68C49.5,20.25,41.88,23.5,28,28.75" style="fill:none;stroke:black;stroke-width:3;opacity:0">
  <animate attributeType="CSS" attributeName="opacity" from="0" to="1" begin="0s" dur="1s" repeatCount="Indefinite" fill="freeze" />
</path>
<path d="M23.18,28.63c1.16,1.16,1.46,2.88,1.52,4.9C25.5,61.5,22.5,78,13.06,87.36" style="fill:none;stroke:black;stroke-width:3;opacity:0">
  <animate attributeType="CSS" attributeName="opacity" from="0" to="1" begin="1s" dur="1s" repeatCount="Indefinite" fill="freeze" />
</path>
<path d="M28.25,41.69c4,0.31,6.76,0.14,9.74-0.23c11.47-1.42,32.93-3.79,44-4.65c2.87-0.22,6.15-0.24,9,0.29" style="fill:none;stroke:black;stroke-width:3;opacity:0">
  <animate attributeType="CSS" attributeName="opacity" from="0" to="1" begin="2s" dur="1s" repeatCount="Indefinite" fill="freeze" />
</path>
<path d="M57.62,41.8c1.04,1.04,1.32,2.7,1.32,5.01c0,4.97,0.07,29.65-0.01,44.94c-0.02,3.76-0.03,6.98-0.03,9.25" style="fill:none;stroke:black;stroke-width:3;opacity:0">
  <animate attributeType="CSS" attributeName="opacity" from="0" to="1" begin="3s" dur="1s" repeatCount="Indefinite" fill="freeze" />
</path>
<path d="M46.52,61.33c12.36,1.92,28.73,9.17,32.54,14.13" style="fill:none;stroke:black;stroke-width:3;opacity:0">
  <animate attributeType="CSS" attributeName="opacity" from="0" to="1" begin="4s" dur="1s" repeatCount="Indefinite" fill="freeze" />
</path>
</svg>