<svg width="109px" height="109px" viewBox="0 0 px 109px" xmlns="http://www.w3.org/2000/svg" xmlns:xlink="http://www.w3.org/1999/xlink" xml:space="preserve" version="1.1"  baseProfile="full">
<path d="M52.86,12c1.07,1.07,1.73,2.5,1.73,4.41c0,4.84-0.15,7.84-0.15,11.65" style="fill:none;stroke:black;stroke-width:3;opacity:0">
  <animate attributeType="CSS" attributeName="opacity" from="0" to="1" begin="0s" dur="1s" repeatCount="0" fill="freeze" />
</path>
<path d="M15.5,31.61c2.5,0.64,6.38,0.89,10.02,0.55C43.97,30.41,67.12,28,85.87,27.2c3.88-0.16,6.36,0.05,9.25,0.7" style="fill:none;stroke:black;stroke-width:3;opacity:0">
  <animate attributeType="CSS" attributeName="opacity" from="0" to="1" begin="1s" dur="1s" repeatCount="0" fill="freeze" />
</path>
<path d="M53.48,47.2c6.64,1.17,13.39,0.92,18.51,0.41c3.41-0.34,5.18,1.75,4.67,4.36c-2.03,10.4-10.53,33.53-16.54,41.1c-4.79,6.04-7.12,1.17-10.09-2.07" style="fill:none;stroke:black;stroke-width:3;opacity:0">
  <animate attributeType="CSS" attributeName="opacity" from="0" to="1" begin="2s" dur="1s" repeatCount="0" fill="freeze" />
</path>
<path d="M54.51,32.75c0.49,1.5,0.39,3.19-0.19,4.88C50.3,49.29,38.68,72.85,20.62,83.88" style="fill:none;stroke:black;stroke-width:3;opacity:0">
  <animate attributeType="CSS" attributeName="opacity" from="0" to="1" begin="3s" dur="1s" repeatCount="0" fill="freeze" />
</path>
</svg>