<svg width="109px" height="109px" viewBox="0 0 px 109px" xmlns="http://www.w3.org/2000/svg" xmlns:xlink="http://www.w3.org/1999/xlink" xml:space="preserve" version="1.1"  baseProfile="full">
<path d="M23.16,23c1.05,1.05,1.7,2.5,1.7,3.82c0,0.77-0.16,42.52-0.2,59.68c-0.01,2.88-0.01,5.07-0.01,6.25" style="fill:none;stroke:black;stroke-width:3;opacity:0">
  <animate attributeType="CSS" attributeName="opacity" from="0" to="1" begin="0s" dur="1s" repeatCount="0" fill="freeze" />
</path>
<path d="M46,23.3c1.1,1.1,1.51,2.53,1.51,4.56c0,3.28,0,41.59,0,57.76c0,3.59,0,6.09,0,6.88" style="fill:none;stroke:black;stroke-width:3;opacity:0">
  <animate attributeType="CSS" attributeName="opacity" from="0" to="1" begin="1s" dur="1s" repeatCount="0" fill="freeze" />
</path>
<path d="M48.55,25.3c3.54-0.25,30.01-3,33.24-3.3c2.69-0.25,4.46,1.25,4.46,4.06c0,2.48-0.05,41.35-0.07,57.31c0,3.83-0.01,6.32-0.01,6.61" style="fill:none;stroke:black;stroke-width:3;opacity:0">
  <animate attributeType="CSS" attributeName="opacity" from="0" to="1" begin="2s" dur="1s" repeatCount="0" fill="freeze" />
</path>
<path d="M48.43,54.99c8.32-0.74,31.36-3.04,36.79-3.04" style="fill:none;stroke:black;stroke-width:3;opacity:0">
  <animate attributeType="CSS" attributeName="opacity" from="0" to="1" begin="3s" dur="1s" repeatCount="0" fill="freeze" />
</path>
<path d="M48.8,86.71C59.88,86,73.12,85,85.05,84.68" style="fill:none;stroke:black;stroke-width:3;opacity:0">
  <animate attributeType="CSS" attributeName="opacity" from="0" to="1" begin="4s" dur="1s" repeatCount="0" fill="freeze" />
</path>
</svg>