<svg width="109px" height="109px" viewBox="0 0 px 109px" xmlns="http://www.w3.org/2000/svg" xmlns:xlink="http://www.w3.org/1999/xlink" xml:space="preserve" version="1.1"  baseProfile="full">
<path d="M34.51,16.12c0.74,1.5,0.72,2.12,0.62,3.65C32.5,58.88,25,74.25,11.38,91" style="fill:none;stroke:black;stroke-width:3;opacity:0">
  <animate attributeType="CSS" attributeName="opacity" from="0" to="1" begin="0s" dur="1s" repeatCount="0" fill="freeze" />
</path>
<path d="M14,40.5c1,0.75,4.75,0.25,6,0s24.38-5.69,25.5-5.75c2.5-0.12,3.62,0.88,3.25,3.75C48,44.25,44.51,61.98,44,72.25c-1,20,11.75,20.37,26.21,20.37C90,92.62,94.22,91.05,94.48,82" style="fill:none;stroke:black;stroke-width:3;opacity:0">
  <animate attributeType="CSS" attributeName="opacity" from="0" to="1" begin="1s" dur="1s" repeatCount="0" fill="freeze" />
</path>
<path d="M60,28.56c0.97,0.97,1.26,2.02,1.26,3.37c0,1.01,0.75,21.18,1.19,32.33c0.15,3.75,0.26,6.36,0.31,6.7" style="fill:none;stroke:black;stroke-width:3;opacity:0">
  <animate attributeType="CSS" attributeName="opacity" from="0" to="1" begin="2s" dur="1s" repeatCount="0" fill="freeze" />
</path>
<path d="M61.59,29.65c5.16-0.9,20.95-3.66,23.54-3.86c2.16-0.17,3.54,1.87,3.38,2.87c-0.26,1.59-1.25,22.59-2.29,34.59c-0.29,3.31-0.56,5.92-0.79,7.21" style="fill:none;stroke:black;stroke-width:3;opacity:0">
  <animate attributeType="CSS" attributeName="opacity" from="0" to="1" begin="3s" dur="1s" repeatCount="0" fill="freeze" />
</path>
<path d="M62.83,47.58c8.04-1.2,17.67-2.58,23.44-3.03" style="fill:none;stroke:black;stroke-width:3;opacity:0">
  <animate attributeType="CSS" attributeName="opacity" from="0" to="1" begin="4s" dur="1s" repeatCount="0" fill="freeze" />
</path>
<path d="M64.01,68.19c6.87-1.06,15.49-2.31,21.02-2.69" style="fill:none;stroke:black;stroke-width:3;opacity:0">
  <animate attributeType="CSS" attributeName="opacity" from="0" to="1" begin="5s" dur="1s" repeatCount="0" fill="freeze" />
</path>
</svg>