<svg width="109px" height="109px" viewBox="0 0 px 109px" xmlns="http://www.w3.org/2000/svg" xmlns:xlink="http://www.w3.org/1999/xlink" xml:space="preserve" version="1.1"  baseProfile="full">
<path d="M31.27,14.83c0.39,0.57,0.64,0.87,0.78,1.62c0.95,5.3,1.95,11.8,3.74,21.4c0.07,0.38,0.13,0.38,0.26,1.15" style="fill:none;stroke:black;stroke-width:3;opacity:0">
  <animate attributeType="CSS" attributeName="opacity" from="0" to="1" begin="0s" dur="1s" repeatCount="0" fill="freeze" />
</path>
<path d="M33,15.75C40.5,15,63.5,13,73.11,12.49c1.67-0.09,2.67,2.05,2.61,2.62C75,22.25,73.25,29.75,72,35c-0.2,0.84-0.79,2.95-0.79,3.52" style="fill:none;stroke:black;stroke-width:3;opacity:0">
  <animate attributeType="CSS" attributeName="opacity" from="0" to="1" begin="1s" dur="1s" repeatCount="0" fill="freeze" />
</path>
<path d="M34.5,26.25c2.97,0,35.64-2.5,39-2.5" style="fill:none;stroke:black;stroke-width:3;opacity:0">
  <animate attributeType="CSS" attributeName="opacity" from="0" to="1" begin="2s" dur="1s" repeatCount="0" fill="freeze" />
</path>
<path d="M36.5,37.25c6.06-0.56,26.5-1.75,34.04-2.23" style="fill:none;stroke:black;stroke-width:3;opacity:0">
  <animate attributeType="CSS" attributeName="opacity" from="0" to="1" begin="3s" dur="1s" repeatCount="0" fill="freeze" />
</path>
<path d="M19.88,49.17c1.52,0.36,4.3,0.42,5.82,0.36c15.8-0.6,42.3-3.35,57.11-3.49c2.53-0.02,4.05,0.17,5.31,0.35" style="fill:none;stroke:black;stroke-width:3;opacity:0">
  <animate attributeType="CSS" attributeName="opacity" from="0" to="1" begin="4s" dur="1s" repeatCount="0" fill="freeze" />
</path>
<path d="M40.33,51.75c0.05,0.56,0.11,1.44-0.1,2.25C38.96,58.74,29.7,70.14,19.75,76.5" style="fill:none;stroke:black;stroke-width:3;opacity:0">
  <animate attributeType="CSS" attributeName="opacity" from="0" to="1" begin="5s" dur="1s" repeatCount="0" fill="freeze" />
</path>
<path d="M37.95,62.85c1.08,0.49,2.59,0.66,4.31,0.33c1.73-0.33,35.99-3.14,40.3-3.3c4.31-0.16,5.17,1.65,4.53,5.12c-0.65,3.47-3.84,23.13-13.33,32.54c-2.85,2.83-4.46-0.47-7.01-2.53" style="fill:none;stroke:black;stroke-width:3;opacity:0">
  <animate attributeType="CSS" attributeName="opacity" from="0" to="1" begin="6s" dur="1s" repeatCount="0" fill="freeze" />
</path>
<path d="M49.43,64.77c0.06,0.5,0.17,1.29-0.12,1.98c-2.8,6.85-10.49,16.38-21.55,22.01" style="fill:none;stroke:black;stroke-width:3;opacity:0">
  <animate attributeType="CSS" attributeName="opacity" from="0" to="1" begin="7s" dur="1s" repeatCount="0" fill="freeze" />
</path>
<path d="M66.51,63.48c0.11,0.92,0.22,2.38-0.21,3.71c-2.59,7.83-12.04,22.06-27.9,30.51" style="fill:none;stroke:black;stroke-width:3;opacity:0">
  <animate attributeType="CSS" attributeName="opacity" from="0" to="1" begin="8s" dur="1s" repeatCount="0" fill="freeze" />
</path>
</svg>