<svg width="109px" height="109px" viewBox="0 0 px 109px" xmlns="http://www.w3.org/2000/svg" xmlns:xlink="http://www.w3.org/1999/xlink" xml:space="preserve" version="1.1"  baseProfile="full">
<path d="M22.25,16.17c1.82,0.44,5.14,0.5,6.96,0.44c18.14-0.62,28.37-2.7,49.44-2.69c3.02,0,4.84,0.21,6.35,0.43" style="fill:none;stroke:black;stroke-width:3;opacity:0">
  <animate attributeType="CSS" attributeName="opacity" from="0" to="1" begin="0s" dur="1s" repeatCount="0" fill="freeze" />
</path>
<path d="M36.07,23c0.34,0.4,0.03,1.91-0.16,2.43c-2.46,6.41-7.09,11.97-11.67,16.47c-1.45,1.43-0.95,3.24,1.17,2.93c4.46-0.67,14.34-3.82,22.94-5.25" style="fill:none;stroke:black;stroke-width:3;opacity:0">
  <animate attributeType="CSS" attributeName="opacity" from="0" to="1" begin="1s" dur="1s" repeatCount="0" fill="freeze" />
</path>
<path d="M42.36,33.3c3.15,2.06,8.14,8.46,8.92,11.67" style="fill:none;stroke:black;stroke-width:3;opacity:0">
  <animate attributeType="CSS" attributeName="opacity" from="0" to="1" begin="2s" dur="1s" repeatCount="0" fill="freeze" />
</path>
<path d="M70.57,22c0.18,1,0.53,1.46,0.33,1.99c-2.46,6.72-6.59,11.62-11.17,16.33c-1.45,1.49-0.95,2.83,1.17,2.49c4.46-0.7,16.24-4.16,22.94-4.9" style="fill:none;stroke:black;stroke-width:3;opacity:0">
  <animate attributeType="CSS" attributeName="opacity" from="0" to="1" begin="3s" dur="1s" repeatCount="0" fill="freeze" />
</path>
<path d="M77.11,31.3c3.41,2.06,8.82,8.46,9.67,11.67" style="fill:none;stroke:black;stroke-width:3;opacity:0">
  <animate attributeType="CSS" attributeName="opacity" from="0" to="1" begin="4s" dur="1s" repeatCount="0" fill="freeze" />
</path>
<path d="M11.5,55.33c1.55,0.42,4.38,0.42,5.93,0.42c14.75,0,58.91-4,73.91-3.99c2.58,0,4.12,0.2,5.41,0.41" style="fill:none;stroke:black;stroke-width:3;opacity:0">
  <animate attributeType="CSS" attributeName="opacity" from="0" to="1" begin="5s" dur="1s" repeatCount="0" fill="freeze" />
</path>
<path d="M34.49,64.48c0.26,0.5,0.26,0.85,0.4,1.48c1.16,5.19,2.24,20.81,2.96,30.5" style="fill:none;stroke:black;stroke-width:3;opacity:0">
  <animate attributeType="CSS" attributeName="opacity" from="0" to="1" begin="6s" dur="1s" repeatCount="0" fill="freeze" />
</path>
<path d="M35.69,65.17c8.95-1.31,28.79-2.53,35.48-3.62c2.46-0.4,3.71,1.02,3.59,2.45c-0.46,5.24-1.6,21.5-2.73,30.25" style="fill:none;stroke:black;stroke-width:3;opacity:0">
  <animate attributeType="CSS" attributeName="opacity" from="0" to="1" begin="7s" dur="1s" repeatCount="0" fill="freeze" />
</path>
<path d="M37.36,78.61c2.92-0.51,33.03-2.76,35.44-2.97" style="fill:none;stroke:black;stroke-width:3;opacity:0">
  <animate attributeType="CSS" attributeName="opacity" from="0" to="1" begin="8s" dur="1s" repeatCount="0" fill="freeze" />
</path>
<path d="M38.32,93.04c6.44-0.56,24.81-1.38,33.71-2.29" style="fill:none;stroke:black;stroke-width:3;opacity:0">
  <animate attributeType="CSS" attributeName="opacity" from="0" to="1" begin="9s" dur="1s" repeatCount="0" fill="freeze" />
</path>
</svg>