<svg width="109px" height="109px" viewBox="0 0 px 109px" xmlns="http://www.w3.org/2000/svg" xmlns:xlink="http://www.w3.org/1999/xlink" xml:space="preserve" version="1.1"  baseProfile="full">
<path d="M27.16,18.58c3.14,0.81,6.29,0.46,9.47,0.14c10.87-1.1,24.62-1.97,36.74-2.43c3.06-0.11,5.99,0.06,8.99,0.53" style="fill:none;stroke:black;stroke-width:3;opacity:0">
  <animate attributeType="CSS" attributeName="opacity" from="0" to="1" begin="0s" dur="1s" repeatCount="Indefinite" fill="freeze" />
</path>
<path d="M44.65,20.24c0.99,0.99,1.1,2.14,1.21,4.13c0.27,5.06,0.44,20.78,0.35,24.03" style="fill:none;stroke:black;stroke-width:3;opacity:0">
  <animate attributeType="CSS" attributeName="opacity" from="0" to="1" begin="1s" dur="1s" repeatCount="Indefinite" fill="freeze" />
</path>
<path d="M62.06,18.55c0.57,1.2,0.82,2.07,0.67,3.59c-0.44,4.59-1.5,21.85-1.63,25.87" style="fill:none;stroke:black;stroke-width:3;opacity:0">
  <animate attributeType="CSS" attributeName="opacity" from="0" to="1" begin="2s" dur="1s" repeatCount="Indefinite" fill="freeze" />
</path>
<path d="M24.18,29.89c3.36,2.05,8.67,8.44,9.51,11.64" style="fill:none;stroke:black;stroke-width:3;opacity:0">
  <animate attributeType="CSS" attributeName="opacity" from="0" to="1" begin="3s" dur="1s" repeatCount="Indefinite" fill="freeze" />
</path>
<path d="M80.88,25.34c0.13,1.17-0.33,2.29-0.86,3.29c-1.89,3.63-4.5,7.62-9.33,13.4" style="fill:none;stroke:black;stroke-width:3;opacity:0">
  <animate attributeType="CSS" attributeName="opacity" from="0" to="1" begin="4s" dur="1s" repeatCount="Indefinite" fill="freeze" />
</path>
<path d="M14.75,50.21c3.8,0.81,7.65,0.7,11.5,0.44c19.11-1.31,38.22-2.17,57.38-2.61c3.8-0.09,7.37-0.04,11.12,0.45" style="fill:none;stroke:black;stroke-width:3;opacity:0">
  <animate attributeType="CSS" attributeName="opacity" from="0" to="1" begin="5s" dur="1s" repeatCount="Indefinite" fill="freeze" />
</path>
<path d="M34.77,61.26c0.81,1.36,0.95,2.33,1.06,3.87c0.35,5.07,1.34,17.46,1.98,25.51c0.17,2.19,0.32,4.06,0.42,5.37" style="fill:none;stroke:black;stroke-width:3;opacity:0">
  <animate attributeType="CSS" attributeName="opacity" from="0" to="1" begin="6s" dur="1s" repeatCount="Indefinite" fill="freeze" />
</path>
<path d="M36.77,62.89c2.38-0.12,25.08-2.55,32.1-3.23c3.54-0.35,5.28,0.45,4.83,4.09c-0.6,4.91-1.99,17.43-2.78,24.87c-0.35,3.29-0.59,5.6-0.59,5.81" style="fill:none;stroke:black;stroke-width:3;opacity:0">
  <animate attributeType="CSS" attributeName="opacity" from="0" to="1" begin="7s" dur="1s" repeatCount="Indefinite" fill="freeze" />
</path>
<path d="M37.75,76.84c6.13-0.34,29.34-1.87,33.48-1.87" style="fill:none;stroke:black;stroke-width:3;opacity:0">
  <animate attributeType="CSS" attributeName="opacity" from="0" to="1" begin="8s" dur="1s" repeatCount="Indefinite" fill="freeze" />
</path>
<path d="M38.83,92.5C47,92,60.19,91.4,69.46,90.9" style="fill:none;stroke:black;stroke-width:3;opacity:0">
  <animate attributeType="CSS" attributeName="opacity" from="0" to="1" begin="9s" dur="1s" repeatCount="Indefinite" fill="freeze" />
</path>
</svg>