<svg width="109px" height="109px" viewBox="0 0 px 109px" xmlns="http://www.w3.org/2000/svg" xmlns:xlink="http://www.w3.org/1999/xlink" xml:space="preserve" version="1.1"  baseProfile="full">
<path d="M31.45,13.2c0.67,0.67,1.11,1.53,1.31,2.25c1.61,5.79,1.99,8.08,3.17,13.26c0.27,1.19,0.63,2.35,0.8,3.49" style="fill:none;stroke:black;stroke-width:3;opacity:0">
  <animate attributeType="CSS" attributeName="opacity" from="0" to="1" begin="0s" dur="1s" repeatCount="Indefinite" fill="freeze" />
</path>
<path d="M32.88,14.14C46.5,12.62,62.94,11.21,71,10.52c2.67-0.23,4.62,0.91,4.21,3.74c-0.37,2.55-1.47,6.75-2.52,10.79c-0.41,1.55-0.8,3.08-1.15,4.48" style="fill:none;stroke:black;stroke-width:3;opacity:0">
  <animate attributeType="CSS" attributeName="opacity" from="0" to="1" begin="1s" dur="1s" repeatCount="Indefinite" fill="freeze" />
</path>
<path d="M35.88,21.95c8.24-1.08,30.12-2.83,37.07-3.02" style="fill:none;stroke:black;stroke-width:3;opacity:0">
  <animate attributeType="CSS" attributeName="opacity" from="0" to="1" begin="2s" dur="1s" repeatCount="Indefinite" fill="freeze" />
</path>
<path d="M37.53,30.33c8.1-0.71,23.43-2.15,33.47-2.83" style="fill:none;stroke:black;stroke-width:3;opacity:0">
  <animate attributeType="CSS" attributeName="opacity" from="0" to="1" begin="3s" dur="1s" repeatCount="Indefinite" fill="freeze" />
</path>
<path d="M34.21,39.56c2.2,0.23,4.24,0.08,6.42-0.18c5.47-0.67,16.34-1.84,25.25-2.39c2.12-0.13,4.26-0.3,6.37-0.03" style="fill:none;stroke:black;stroke-width:3;opacity:0">
  <animate attributeType="CSS" attributeName="opacity" from="0" to="1" begin="4s" dur="1s" repeatCount="Indefinite" fill="freeze" />
</path>
<path d="M21.1,48.77c-0.2,5.28-1.95,10.09-3.22,15.35" style="fill:none;stroke:black;stroke-width:3;opacity:0">
  <animate attributeType="CSS" attributeName="opacity" from="0" to="1" begin="5s" dur="1s" repeatCount="Indefinite" fill="freeze" />
</path>
<path d="M22.25,51.4c17.62-2.03,49-5.13,63.5-5.51c11.49-0.3,1.54,6.18,0.25,7.5" style="fill:none;stroke:black;stroke-width:3;opacity:0">
  <animate attributeType="CSS" attributeName="opacity" from="0" to="1" begin="6s" dur="1s" repeatCount="Indefinite" fill="freeze" />
</path>
<path d="M51.48,40.25c1.07,1.07,1.57,2.5,1.57,3.78c0,1.38,0.03,9.99,0.04,15.59c0.01,2.74,0.02,4.76,0.02,4.87" style="fill:none;stroke:black;stroke-width:3;opacity:0">
  <animate attributeType="CSS" attributeName="opacity" from="0" to="1" begin="7s" dur="1s" repeatCount="Indefinite" fill="freeze" />
</path>
<path d="M34.38,55.5c2.54,0.56,6,2.24,7.38,3.18" style="fill:none;stroke:black;stroke-width:3;opacity:0">
  <animate attributeType="CSS" attributeName="opacity" from="0" to="1" begin="8s" dur="1s" repeatCount="Indefinite" fill="freeze" />
</path>
<path d="M29.97,62.22c2.5,0.58,6.37,2.69,7.74,3.65" style="fill:none;stroke:black;stroke-width:3;opacity:0">
  <animate attributeType="CSS" attributeName="opacity" from="0" to="1" begin="9s" dur="1s" repeatCount="Indefinite" fill="freeze" />
</path>
<path d="M67.68,53.11c3.02,0.92,6.44,2.77,7.65,3.54" style="fill:none;stroke:black;stroke-width:3;opacity:0">
  <animate attributeType="CSS" attributeName="opacity" from="0" to="1" begin="10s" dur="1s" repeatCount="Indefinite" fill="freeze" />
</path>
<path d="M65.75,60c2.57,0.75,6.08,3.01,7.49,4.26" style="fill:none;stroke:black;stroke-width:3;opacity:0">
  <animate attributeType="CSS" attributeName="opacity" from="0" to="1" begin="11s" dur="1s" repeatCount="Indefinite" fill="freeze" />
</path>
<path d="M38,71.05c1.45,0.45,3.27,0.23,4.77,0.14c5.35-0.33,13.07-1.34,21.23-1.92c1.38-0.1,2.64-0.16,4,0.09" style="fill:none;stroke:black;stroke-width:3;opacity:0">
  <animate attributeType="CSS" attributeName="opacity" from="0" to="1" begin="12s" dur="1s" repeatCount="Indefinite" fill="freeze" />
</path>
<path d="M19,82.5c3.04,0.63,6.22,0.27,9.27-0.01c13.03-1.17,33.23-3.83,52.36-4.63c3.39-0.14,6.87-0.11,9.87,0.64" style="fill:none;stroke:black;stroke-width:3;opacity:0">
  <animate attributeType="CSS" attributeName="opacity" from="0" to="1" begin="13s" dur="1s" repeatCount="Indefinite" fill="freeze" />
</path>
<path d="M47.68,83.59c0.07,0.93-0.34,1.83-1.11,2.72c-2.57,2.94-5.82,5.94-10.04,9.73c-1.74,1.56-1.5,2.75,1.26,2.15c7.71-1.68,19.84-3.81,32.96-6.11" style="fill:none;stroke:black;stroke-width:3;opacity:0">
  <animate attributeType="CSS" attributeName="opacity" from="0" to="1" begin="14s" dur="1s" repeatCount="Indefinite" fill="freeze" />
</path>
<path d="M65.46,85.44c4.36,2.44,11.26,10.02,12.35,13.81" style="fill:none;stroke:black;stroke-width:3;opacity:0">
  <animate attributeType="CSS" attributeName="opacity" from="0" to="1" begin="15s" dur="1s" repeatCount="Indefinite" fill="freeze" />
</path>
</svg>