<svg width="109px" height="109px" viewBox="0 0 px 109px" xmlns="http://www.w3.org/2000/svg" xmlns:xlink="http://www.w3.org/1999/xlink" xml:space="preserve" version="1.1"  baseProfile="full">
<path d="M17.27,40.03c1.16,1.16,1.63,2.27,1.8,3.82c0.35,3.16,2.4,28.1,3.46,41.43c0.06,0.73,0.46,5.87,0.54,6.96" style="fill:none;stroke:black;stroke-width:3;opacity:0">
  <animate attributeType="CSS" attributeName="opacity" from="0" to="1" begin="0s" dur="1s" repeatCount="0" fill="freeze" />
</path>
<path d="M19.94,42.98c22.12-2.87,47.03-5.31,63.95-6.64c3.6-0.28,7.63,1.09,7.17,5.31c-0.8,7.23-3,26.09-4.99,39.38c-0.12,0.81-1.01,6.35-1.31,7.98" style="fill:none;stroke:black;stroke-width:3;opacity:0">
  <animate attributeType="CSS" attributeName="opacity" from="0" to="1" begin="1s" dur="1s" repeatCount="0" fill="freeze" />
</path>
<path d="M39.87,21c0.94,0.94,1.42,2.5,1.46,4C42,48.62,42.5,73.12,42.75,86.5" style="fill:none;stroke:black;stroke-width:3;opacity:0">
  <animate attributeType="CSS" attributeName="opacity" from="0" to="1" begin="2s" dur="1s" repeatCount="0" fill="freeze" />
</path>
<path d="M66.87,16.5c1.38,1.38,1.59,2.5,1.46,4.25c-2.33,30.38-2.83,42.88-4.58,64" style="fill:none;stroke:black;stroke-width:3;opacity:0">
  <animate attributeType="CSS" attributeName="opacity" from="0" to="1" begin="3s" dur="1s" repeatCount="0" fill="freeze" />
</path>
<path d="M21.96,64.76C40.38,62.5,63.5,60.12,88,58.75" style="fill:none;stroke:black;stroke-width:3;opacity:0">
  <animate attributeType="CSS" attributeName="opacity" from="0" to="1" begin="4s" dur="1s" repeatCount="0" fill="freeze" />
</path>
<path d="M24.02,88.8c8.14-0.76,45.85-3.55,60.23-4.05" style="fill:none;stroke:black;stroke-width:3;opacity:0">
  <animate attributeType="CSS" attributeName="opacity" from="0" to="1" begin="5s" dur="1s" repeatCount="0" fill="freeze" />
</path>
</svg>