<svg width="109px" height="109px" viewBox="0 0 px 109px" xmlns="http://www.w3.org/2000/svg" xmlns:xlink="http://www.w3.org/1999/xlink" xml:space="preserve" version="1.1"  baseProfile="full">
<path d="M19.12,15.25c2.9,2.61,7.49,10.75,8.22,14.82" style="fill:none;stroke:black;stroke-width:3;opacity:0">
  <animate attributeType="CSS" attributeName="opacity" from="0" to="1" begin="0s" dur="1s" repeatCount="Indefinite" fill="freeze" />
</path>
<path d="M49.28,13.64c0.09,1.12-0.06,2.21-0.45,3.26c-2.08,4.1-5,8.31-9.71,14.08" style="fill:none;stroke:black;stroke-width:3;opacity:0">
  <animate attributeType="CSS" attributeName="opacity" from="0" to="1" begin="1s" dur="1s" repeatCount="Indefinite" fill="freeze" />
</path>
<path d="M13,36.64c2.07,0.84,4.89,0.34,7.01,0.1c8.29-0.94,23.55-3.82,31.24-4.49c2.19-0.19,5.09-0.52,7.25,0.01" style="fill:none;stroke:black;stroke-width:3;opacity:0">
  <animate attributeType="CSS" attributeName="opacity" from="0" to="1" begin="2s" dur="1s" repeatCount="Indefinite" fill="freeze" />
</path>
<path d="M18.56,45.63c1.03,1.03,1.06,2.12,1.01,3.75c-0.17,5.4-0.32,8.62-0.5,13.75c-0.08,2.45,0.03,3.01,2.58,2.55c7.82-1.39,18.83-3.76,29.16-5.3" style="fill:none;stroke:black;stroke-width:3;opacity:0">
  <animate attributeType="CSS" attributeName="opacity" from="0" to="1" begin="3s" dur="1s" repeatCount="Indefinite" fill="freeze" />
</path>
<path d="M51.81,40.63c0.97,0.97,1.06,2.62,1.01,4.5c-0.17,6.37-0.7,15.49-1,20" style="fill:none;stroke:black;stroke-width:3;opacity:0">
  <animate attributeType="CSS" attributeName="opacity" from="0" to="1" begin="4s" dur="1s" repeatCount="Indefinite" fill="freeze" />
</path>
<path d="M34.54,37.5c1.17,1.17,1.31,2.88,1.31,4.89c0,23.99,0.77,40.74-22.05,54.33" style="fill:none;stroke:black;stroke-width:3;opacity:0">
  <animate attributeType="CSS" attributeName="opacity" from="0" to="1" begin="5s" dur="1s" repeatCount="Indefinite" fill="freeze" />
</path>
<path d="M66.3,18.5c1.1,1.1,1.04,2.38,1.05,3.74c0.28,32.88,1.03,56.01-16.85,71.26" style="fill:none;stroke:black;stroke-width:3;opacity:0">
  <animate attributeType="CSS" attributeName="opacity" from="0" to="1" begin="6s" dur="1s" repeatCount="Indefinite" fill="freeze" />
</path>
<path d="M68.5,20.75C72.88,19.88,84.77,17.25,87,17c4-0.46,5,1.5,5,4.38c0,6.87,0,45.72,0,64.41c0,13.96-5,4.65-7.5,2.58" style="fill:none;stroke:black;stroke-width:3;opacity:0">
  <animate attributeType="CSS" attributeName="opacity" from="0" to="1" begin="7s" dur="1s" repeatCount="Indefinite" fill="freeze" />
</path>
<path d="M68.75,40c6.88-0.88,15-2,22.25-2.75" style="fill:none;stroke:black;stroke-width:3;opacity:0">
  <animate attributeType="CSS" attributeName="opacity" from="0" to="1" begin="8s" dur="1s" repeatCount="Indefinite" fill="freeze" />
</path>
<path d="M67.75,57.75c8-0.75,13.5-1.5,22.75-2" style="fill:none;stroke:black;stroke-width:3;opacity:0">
  <animate attributeType="CSS" attributeName="opacity" from="0" to="1" begin="9s" dur="1s" repeatCount="Indefinite" fill="freeze" />
</path>
</svg>