<svg width="109px" height="109px" viewBox="0 0 px 109px" xmlns="http://www.w3.org/2000/svg" xmlns:xlink="http://www.w3.org/1999/xlink" xml:space="preserve" version="1.1"  baseProfile="full">
<path d="M13.28,37.28c0.36,0.21,2.47,0.36,3.42,0.27c4.08-0.36,17.7-1.93,24.25-2.99c0.95-0.15,2.22-0.21,2.82,0" style="fill:none;stroke:black;stroke-width:3;opacity:0">
  <animate attributeType="CSS" attributeName="opacity" from="0" to="1" begin="0s" dur="1s" repeatCount="0" fill="freeze" />
</path>
<path d="M28.36,15c0.91,0.47,2.04,2.75,2.04,4.42c0,0.95-0.12,70.75-0.3,76.58" style="fill:none;stroke:black;stroke-width:3;opacity:0">
  <animate attributeType="CSS" attributeName="opacity" from="0" to="1" begin="1s" dur="1s" repeatCount="0" fill="freeze" />
</path>
<path d="M29.94,39.78c-5.5,15.37-8.56,21.86-17.08,35.31" style="fill:none;stroke:black;stroke-width:3;opacity:0">
  <animate attributeType="CSS" attributeName="opacity" from="0" to="1" begin="2s" dur="1s" repeatCount="0" fill="freeze" />
</path>
<path d="M33.47,46.9c2.37,1.59,7.28,7.76,9.28,10.85" style="fill:none;stroke:black;stroke-width:3;opacity:0">
  <animate attributeType="CSS" attributeName="opacity" from="0" to="1" begin="3s" dur="1s" repeatCount="0" fill="freeze" />
</path>
<path d="M48.25,30c1.75,0.75,3.95,0.6,5.48,0.4C67,28.75,81.08,26.77,88,26c4.5-0.5,6.51,1.5,6.25,5c-1,13.25-5.5,43.25-12,56.25c-5.2,10.4-8.75,2.5-10.5-0.25" style="fill:none;stroke:black;stroke-width:3;opacity:0">
  <animate attributeType="CSS" attributeName="opacity" from="0" to="1" begin="4s" dur="1s" repeatCount="0" fill="freeze" />
</path>
<path d="M67.93,32.18c0.07,1.49,0.11,3.84-0.15,5.99C65.27,59.14,57.75,79.5,41.25,94.25" style="fill:none;stroke:black;stroke-width:3;opacity:0">
  <animate attributeType="CSS" attributeName="opacity" from="0" to="1" begin="5s" dur="1s" repeatCount="0" fill="freeze" />
</path>
</svg>