<svg width="109px" height="109px" viewBox="0 0 px 109px" xmlns="http://www.w3.org/2000/svg" xmlns:xlink="http://www.w3.org/1999/xlink" xml:space="preserve" version="1.1"  baseProfile="full">
<path d="M45.94,12c0.06,0.57,0.13,1.47-0.12,2.29c-1.45,4.82-9.76,14.9-21.14,21.38" style="fill:none;stroke:black;stroke-width:3;opacity:0">
  <animate attributeType="CSS" attributeName="opacity" from="0" to="1" begin="0s" dur="1s" repeatCount="Indefinite" fill="freeze" />
</path>
<path d="M47.09,19.29c0.32,0.03,1.7,0.09,2.6-0.08c4.44-0.83,12.87-2.67,17.16-3.44c2.94-0.52,3.79,1.85,3.03,3.28C63.25,31.5,44.5,49.5,19,57.75" style="fill:none;stroke:black;stroke-width:3;opacity:0">
  <animate attributeType="CSS" attributeName="opacity" from="0" to="1" begin="1s" dur="1s" repeatCount="Indefinite" fill="freeze" />
</path>
<path d="M40.25,27C46,28.88,65.62,45.12,82.92,51.03c2.66,0.91,4.55,1.85,7,2.23" style="fill:none;stroke:black;stroke-width:3;opacity:0">
  <animate attributeType="CSS" attributeName="opacity" from="0" to="1" begin="2s" dur="1s" repeatCount="Indefinite" fill="freeze" />
</path>
<path d="M17.75,66.5c3.12,0.62,5.4,0.44,7.88,0.28c11.53-0.77,38.84-2.42,53.99-3.28c2.96-0.17,5.98-0.08,8.88,0.5" style="fill:none;stroke:black;stroke-width:3;opacity:0">
  <animate attributeType="CSS" attributeName="opacity" from="0" to="1" begin="3s" dur="1s" repeatCount="Indefinite" fill="freeze" />
</path>
<path d="M53,50.5c0.88,0.88,1.5,2.62,1.5,4c0,4.31,0,23,0,37c0,3.71,0.06,5.87,0,7.25" style="fill:none;stroke:black;stroke-width:3;opacity:0">
  <animate attributeType="CSS" attributeName="opacity" from="0" to="1" begin="4s" dur="1s" repeatCount="Indefinite" fill="freeze" />
</path>
<path d="M50.5,65.95c-0.5,2.3-1.79,3.76-3.64,5.9c-7.92,9.16-21.1,19.24-31.86,23.9" style="fill:none;stroke:black;stroke-width:3;opacity:0">
  <animate attributeType="CSS" attributeName="opacity" from="0" to="1" begin="5s" dur="1s" repeatCount="Indefinite" fill="freeze" />
</path>
<path d="M57,66c4.16,3.05,20.81,15.83,28.07,21.03c2.25,1.61,4.18,2.59,6.93,3.79" style="fill:none;stroke:black;stroke-width:3;opacity:0">
  <animate attributeType="CSS" attributeName="opacity" from="0" to="1" begin="6s" dur="1s" repeatCount="Indefinite" fill="freeze" />
</path>
</svg>