<svg width="109px" height="109px" viewBox="0 0 px 109px" xmlns="http://www.w3.org/2000/svg" xmlns:xlink="http://www.w3.org/1999/xlink" xml:space="preserve" version="1.1"  baseProfile="full">
<path d="M14.28,38.07c0.37,0.2,2.56,0.33,3.55,0.26c4.23-0.33,16.22-1.79,23.01-2.77c0.98-0.14,2.31-0.2,2.93,0" style="fill:none;stroke:black;stroke-width:3;opacity:0">
  <animate attributeType="CSS" attributeName="opacity" from="0" to="1" begin="0s" dur="1s" repeatCount="0" fill="freeze" />
</path>
<path d="M29.36,16c0.91,0.47,2.04,2.25,2.04,4.92c0,0.95-0.12,68.75-0.3,74.58" style="fill:none;stroke:black;stroke-width:3;opacity:0">
  <animate attributeType="CSS" attributeName="opacity" from="0" to="1" begin="1s" dur="1s" repeatCount="0" fill="freeze" />
</path>
<path d="M30.94,39.78c-5.66,16.45-8.81,23.41-17.58,37.81" style="fill:none;stroke:black;stroke-width:3;opacity:0">
  <animate attributeType="CSS" attributeName="opacity" from="0" to="1" begin="2s" dur="1s" repeatCount="0" fill="freeze" />
</path>
<path d="M33.97,49.4c2.37,1.59,6.28,6.76,8.28,9.85" style="fill:none;stroke:black;stroke-width:3;opacity:0">
  <animate attributeType="CSS" attributeName="opacity" from="0" to="1" begin="3s" dur="1s" repeatCount="0" fill="freeze" />
</path>
<path d="M58.77,20.52c0.28,0.85-0.06,1.81-0.39,2.87C55.67,32.13,50,41.75,42.35,49" style="fill:none;stroke:black;stroke-width:3;opacity:0">
  <animate attributeType="CSS" attributeName="opacity" from="0" to="1" begin="4s" dur="1s" repeatCount="0" fill="freeze" />
</path>
<path d="M67.59,13.5c7.52,3.01,16.65,21.6,22.92,26.41c2.42,1.86,3.29,2.86,5.64,3.46" style="fill:none;stroke:black;stroke-width:3;opacity:0">
  <animate attributeType="CSS" attributeName="opacity" from="0" to="1" begin="5s" dur="1s" repeatCount="0" fill="freeze" />
</path>
<path d="M49.29,51.63c1.24,0.58,2.79,0.48,3.87,0.32c9.84-1.45,24.5-3.36,29.39-3.96c3.18-0.39,4.59,1.17,4.41,3.9c-0.46,7.22-6.02,31.95-10.02,40.35c-3.57,7.49-7.01,0.46-8.44-1.65" style="fill:none;stroke:black;stroke-width:3;opacity:0">
  <animate attributeType="CSS" attributeName="opacity" from="0" to="1" begin="6s" dur="1s" repeatCount="0" fill="freeze" />
</path>
<path d="M65.52,53.29c0.06,0.87,0.21,2.29-0.13,3.5c-3.83,13.46-9.15,24.67-21.69,35.59" style="fill:none;stroke:black;stroke-width:3;opacity:0">
  <animate attributeType="CSS" attributeName="opacity" from="0" to="1" begin="7s" dur="1s" repeatCount="0" fill="freeze" />
</path>
</svg>