<svg width="109px" height="109px" viewBox="0 0 px 109px" xmlns="http://www.w3.org/2000/svg" xmlns:xlink="http://www.w3.org/1999/xlink" xml:space="preserve" version="1.1"  baseProfile="full">
<path d="M14.44,27.33c1.39,0.48,3.61,0.35,5.07,0.1c7.72-1.31,22.93-5.01,26.32-5.31c2.43-0.22,3.23,1.22,3.22,2.75c-0.04,5.89-2.25,16.15-6.28,21.83C39,52,37.12,47.5,36.28,46.37" style="fill:none;stroke:black;stroke-width:3;opacity:0">
  <animate attributeType="CSS" attributeName="opacity" from="0" to="1" begin="0s" dur="1s" repeatCount="Indefinite" fill="freeze" />
</path>
<path d="M33.88,11.68c0.25,0.95,0.15,2.32,0.04,3.09C32.38,25.5,27,40.38,14.83,50.03" style="fill:none;stroke:black;stroke-width:3;opacity:0">
  <animate attributeType="CSS" attributeName="opacity" from="0" to="1" begin="1s" dur="1s" repeatCount="Indefinite" fill="freeze" />
</path>
<path d="M60.75,23.53c0.67,0.67,1.04,1.4,1.14,2.31c0.86,3.9,1.68,8.42,2.35,13.4c0.19,1.4,0.36,2.75,0.51,3.97" style="fill:none;stroke:black;stroke-width:3;opacity:0">
  <animate attributeType="CSS" attributeName="opacity" from="0" to="1" begin="2s" dur="1s" repeatCount="Indefinite" fill="freeze" />
</path>
<path d="M62.83,24.97c10.04-1.72,16.92-2.47,24.09-3.33c2.59-0.31,4.02,1.34,3.01,4.59c-0.93,3.02-1.43,5.52-3.52,11.81" style="fill:none;stroke:black;stroke-width:3;opacity:0">
  <animate attributeType="CSS" attributeName="opacity" from="0" to="1" begin="3s" dur="1s" repeatCount="Indefinite" fill="freeze" />
</path>
<path d="M65.32,40.69c5.97-0.29,11.59-0.98,18.93-1.43c1.1-0.07,2.23-0.13,3.39-0.18" style="fill:none;stroke:black;stroke-width:3;opacity:0">
  <animate attributeType="CSS" attributeName="opacity" from="0" to="1" begin="4s" dur="1s" repeatCount="Indefinite" fill="freeze" />
</path>
<path d="M20.75,63.86c3.17,1.03,6.74,0.66,10,0.26c11.29-1.36,36.74-3.87,51.12-4.99c2.55-0.2,5.45-0.79,7.88,0.27" style="fill:none;stroke:black;stroke-width:3;opacity:0">
  <animate attributeType="CSS" attributeName="opacity" from="0" to="1" begin="5s" dur="1s" repeatCount="Indefinite" fill="freeze" />
</path>
<path d="M53.25,46.5c1.06,1.06,1.25,2.5,1.25,4.25c0,7.11,0.09,27.44,0.11,41c0,2.42,0.01,4.62,0.01,6.5" style="fill:none;stroke:black;stroke-width:3;opacity:0">
  <animate attributeType="CSS" attributeName="opacity" from="0" to="1" begin="6s" dur="1s" repeatCount="Indefinite" fill="freeze" />
</path>
<path d="M51,62.5c0,1.57-1.25,3.16-2.18,4.29C40.99,76.41,27.22,88.09,15.5,93" style="fill:none;stroke:black;stroke-width:3;opacity:0">
  <animate attributeType="CSS" attributeName="opacity" from="0" to="1" begin="7s" dur="1s" repeatCount="Indefinite" fill="freeze" />
</path>
<path d="M55.5,62.5c4.18,3.02,19.64,15.65,28.01,21.78c2.61,1.92,5.19,3.82,8.24,4.97" style="fill:none;stroke:black;stroke-width:3;opacity:0">
  <animate attributeType="CSS" attributeName="opacity" from="0" to="1" begin="8s" dur="1s" repeatCount="Indefinite" fill="freeze" />
</path>
</svg>