<svg width="109px" height="109px" viewBox="0 0 px 109px" xmlns="http://www.w3.org/2000/svg" xmlns:xlink="http://www.w3.org/1999/xlink" xml:space="preserve" version="1.1"  baseProfile="full">
<path d="M13.28,36.72c0.35,0.24,2.39,0.41,3.31,0.31c3.94-0.41,17.12-2.21,23.45-3.41c0.92-0.17,2.15-0.24,2.73,0" style="fill:none;stroke:black;stroke-width:3;opacity:0">
  <animate attributeType="CSS" attributeName="opacity" from="0" to="1" begin="0s" dur="1s" repeatCount="0" fill="freeze" />
</path>
<path d="M27.36,14.5c0.91,0.47,2.04,2,2.04,4.42c0,0.95-0.12,69.75-0.3,75.58" style="fill:none;stroke:black;stroke-width:3;opacity:0">
  <animate attributeType="CSS" attributeName="opacity" from="0" to="1" begin="1s" dur="1s" repeatCount="0" fill="freeze" />
</path>
<path d="M28.94,40.28c-5.1,15.04-7.94,20.4-15.83,33.56" style="fill:none;stroke:black;stroke-width:3;opacity:0">
  <animate attributeType="CSS" attributeName="opacity" from="0" to="1" begin="2s" dur="1s" repeatCount="0" fill="freeze" />
</path>
<path d="M31.47,42.9c2.16,1.23,5.71,5.22,7.53,7.6" style="fill:none;stroke:black;stroke-width:3;opacity:0">
  <animate attributeType="CSS" attributeName="opacity" from="0" to="1" begin="3s" dur="1s" repeatCount="0" fill="freeze" />
</path>
<path d="M58.48,16.61c0.19,1.95-0.05,4.5-0.66,6.17c-3.88,10.64-9.19,24.05-18.09,37" style="fill:none;stroke:black;stroke-width:3;opacity:0">
  <animate attributeType="CSS" attributeName="opacity" from="0" to="1" begin="4s" dur="1s" repeatCount="0" fill="freeze" />
</path>
<path d="M50.64,44.03c0.34,0.92,0.88,2.83,0.92,4.11c0.39,11.53-0.75,39.6-0.4,46.21" style="fill:none;stroke:black;stroke-width:3;opacity:0">
  <animate attributeType="CSS" attributeName="opacity" from="0" to="1" begin="5s" dur="1s" repeatCount="0" fill="freeze" />
</path>
<path d="M60.75,40.09c1.05,0.7,3.47,0.84,4.54,0.76c7.95-0.6,18.36-2.68,28.41-3.52c1.75-0.15,2.81-0.1,3.69,0.24" style="fill:none;stroke:black;stroke-width:3;opacity:0">
  <animate attributeType="CSS" attributeName="opacity" from="0" to="1" begin="6s" dur="1s" repeatCount="0" fill="freeze" />
</path>
<path d="M82.6,13.93c0.08,0.63,1.11,1.57,1.19,5.54c0.38,19.08-0.24,62.97-0.24,69.47c0,12.17-6.17,2.34-8.25,0.33" style="fill:none;stroke:black;stroke-width:3;opacity:0">
  <animate attributeType="CSS" attributeName="opacity" from="0" to="1" begin="7s" dur="1s" repeatCount="0" fill="freeze" />
</path>
<path d="M65.52,55.02c3.02,1.81,7.81,7.44,8.57,10.25" style="fill:none;stroke:black;stroke-width:3;opacity:0">
  <animate attributeType="CSS" attributeName="opacity" from="0" to="1" begin="8s" dur="1s" repeatCount="0" fill="freeze" />
</path>
</svg>