<svg width="109px" height="109px" viewBox="0 0 px 109px" xmlns="http://www.w3.org/2000/svg" xmlns:xlink="http://www.w3.org/1999/xlink" xml:space="preserve" version="1.1"  baseProfile="full">
<path d="M34.64,16.72c0.94,0.94,1.35,2.15,1.35,3.95c0,3.08-0.06,21.6-0.06,27.22" style="fill:none;stroke:black;stroke-width:3;opacity:0">
  <animate attributeType="CSS" attributeName="opacity" from="0" to="1" begin="0s" dur="1s" repeatCount="Indefinite" fill="freeze" />
</path>
<path d="M37.19,31.4c3.02-0.3,6.51-0.87,10.08-1.41c1.62-0.35,3.25-0.48,4.89-0.41" style="fill:none;stroke:black;stroke-width:3;opacity:0">
  <animate attributeType="CSS" attributeName="opacity" from="0" to="1" begin="1s" dur="1s" repeatCount="Indefinite" fill="freeze" />
</path>
<path d="M22.06,32.04c0.83,0.83,1.1,2.21,1.1,3.2c0,2.87-0.02,14.04-0.02,17.83" style="fill:none;stroke:black;stroke-width:3;opacity:0">
  <animate attributeType="CSS" attributeName="opacity" from="0" to="1" begin="2s" dur="1s" repeatCount="Indefinite" fill="freeze" />
</path>
<path d="M17.39,54.08c0.89,0.89,2.13,1.38,3.09,0.99C38.5,47.75,41.7,46.56,50.14,42.8" style="fill:none;stroke:black;stroke-width:3;opacity:0">
  <animate attributeType="CSS" attributeName="opacity" from="0" to="1" begin="3s" dur="1s" repeatCount="Indefinite" fill="freeze" />
</path>
<path d="M86.64,20.04c0.17,0.25-0.78,2.07-1.22,2.46c-2.85,2.53-11.58,8.42-20.8,11.01" style="fill:none;stroke:black;stroke-width:3;opacity:0">
  <animate attributeType="CSS" attributeName="opacity" from="0" to="1" begin="4s" dur="1s" repeatCount="Indefinite" fill="freeze" />
</path>
<path d="M61.71,12.5c0.98,0.58,1.38,1.62,1.38,2.48c0,0.84-0.09,20.54-0.09,25.77c0,6.61,2.53,7.78,14.77,7.78c11.57,0,12.63-1.03,12.63-8.38" style="fill:none;stroke:black;stroke-width:3;opacity:0">
  <animate attributeType="CSS" attributeName="opacity" from="0" to="1" begin="5s" dur="1s" repeatCount="Indefinite" fill="freeze" />
</path>
<path d="M23.75,65.11c4,0.77,7.94,0.36,12-0.04c11.38-1.13,29.13-2.95,42.5-3.97c3.83-0.29,7.53-0.61,11.25,0.31" style="fill:none;stroke:black;stroke-width:3;opacity:0">
  <animate attributeType="CSS" attributeName="opacity" from="0" to="1" begin="6s" dur="1s" repeatCount="Indefinite" fill="freeze" />
</path>
<path d="M54,51.25c1,1,1.25,2.62,1.25,4.25c0,10.5,0,34.38,0,41.5" style="fill:none;stroke:black;stroke-width:3;opacity:0">
  <animate attributeType="CSS" attributeName="opacity" from="0" to="1" begin="7s" dur="1s" repeatCount="Indefinite" fill="freeze" />
</path>
<path d="M53.25,64.25C53,65.5,52.26,67.1,51.4,68.23c-7.52,9.9-18.02,20.02-32.9,25.02" style="fill:none;stroke:black;stroke-width:3;opacity:0">
  <animate attributeType="CSS" attributeName="opacity" from="0" to="1" begin="8s" dur="1s" repeatCount="Indefinite" fill="freeze" />
</path>
<path d="M56.75,65.5c10.38,10,14.98,13.46,23.44,20.33c3.19,2.66,6.71,4.72,10.56,6.17" style="fill:none;stroke:black;stroke-width:3;opacity:0">
  <animate attributeType="CSS" attributeName="opacity" from="0" to="1" begin="9s" dur="1s" repeatCount="Indefinite" fill="freeze" />
</path>
</svg>