<svg width="109px" height="109px" viewBox="0 0 px 109px" xmlns="http://www.w3.org/2000/svg" xmlns:xlink="http://www.w3.org/1999/xlink" xml:space="preserve" version="1.1"  baseProfile="full">
<path d="M30.75,12.87c0.18,0.47,0.66,1.89,0.34,2.78c-2.34,6.6-8.15,17.3-17.13,24.65" style="fill:none;stroke:black;stroke-width:3;opacity:0">
  <animate attributeType="CSS" attributeName="opacity" from="0" to="1" begin="0s" dur="1s" repeatCount="0" fill="freeze" />
</path>
<path d="M32.31,19.91c0.23,0.03,2.19,0,2.83-0.1c2.12-0.31,6.39-0.62,9.21-1.82c2.03-0.86,2.66,0.76,2.13,2.57C43.58,30.48,28.94,54.73,16,59.84" style="fill:none;stroke:black;stroke-width:3;opacity:0">
  <animate attributeType="CSS" attributeName="opacity" from="0" to="1" begin="1s" dur="1s" repeatCount="0" fill="freeze" />
</path>
<path d="M24.15,31.68c3.23,1.43,8.34,5.89,9.15,8.12" style="fill:none;stroke:black;stroke-width:3;opacity:0">
  <animate attributeType="CSS" attributeName="opacity" from="0" to="1" begin="2s" dur="1s" repeatCount="0" fill="freeze" />
</path>
<path d="M54.38,21.98c0.9,0.22,2.56,0.28,3.46,0.22c5.75-0.38,23.74-3.03,29.95-2.95c1.5,0.02,2.41,0.1,3.16,0.21" style="fill:none;stroke:black;stroke-width:3;opacity:0">
  <animate attributeType="CSS" attributeName="opacity" from="0" to="1" begin="3s" dur="1s" repeatCount="0" fill="freeze" />
</path>
<path d="M58,22.67c1.05,0.29,1.67,1.3,1.88,1.87c0.21,0.58,0,10.69-0.21,14.3" style="fill:none;stroke:black;stroke-width:3;opacity:0">
  <animate attributeType="CSS" attributeName="opacity" from="0" to="1" begin="4s" dur="1s" repeatCount="0" fill="freeze" />
</path>
<path d="M46.63,39.98c1.2,0.29,3.41,0.37,4.6,0.29c7.66-0.51,30.76-2.77,40.01-3.1c2-0.07,3.2,0.14,4.2,0.29" style="fill:none;stroke:black;stroke-width:3;opacity:0">
  <animate attributeType="CSS" attributeName="opacity" from="0" to="1" begin="5s" dur="1s" repeatCount="0" fill="freeze" />
</path>
<path d="M72.5,10.42c1.05,0.29,1.67,1.8,1.88,2.37c0.21,0.58,0,39.69-0.21,43.3" style="fill:none;stroke:black;stroke-width:3;opacity:0">
  <animate attributeType="CSS" attributeName="opacity" from="0" to="1" begin="6s" dur="1s" repeatCount="0" fill="freeze" />
</path>
<path d="M15.25,67c2.08,0.68,4.44,0.9,6.83,0.68c12.18-1.11,47.52-2.97,65.93-4.27c2.37-0.17,3.86,0.12,6.24,0.59" style="fill:none;stroke:black;stroke-width:3;opacity:0">
  <animate attributeType="CSS" attributeName="opacity" from="0" to="1" begin="7s" dur="1s" repeatCount="0" fill="freeze" />
</path>
<path d="M52.25,50.75c1.25,0.5,2.25,2.22,2.25,3.25c0,10.5,0,38.25-0.25,44.5" style="fill:none;stroke:black;stroke-width:3;opacity:0">
  <animate attributeType="CSS" attributeName="opacity" from="0" to="1" begin="8s" dur="1s" repeatCount="0" fill="freeze" />
</path>
<path d="M51.75,67.25C45.2,75.89,31,88.5,14,94" style="fill:none;stroke:black;stroke-width:3;opacity:0">
  <animate attributeType="CSS" attributeName="opacity" from="0" to="1" begin="9s" dur="1s" repeatCount="0" fill="freeze" />
</path>
<path d="M54.5,67c4.94,3.17,28.18,19.07,33.55,22.19c1.82,1.06,3.38,1.51,5.2,1.81" style="fill:none;stroke:black;stroke-width:3;opacity:0">
  <animate attributeType="CSS" attributeName="opacity" from="0" to="1" begin="10s" dur="1s" repeatCount="0" fill="freeze" />
</path>
</svg>