<svg width="109px" height="109px" viewBox="0 0 px 109px" xmlns="http://www.w3.org/2000/svg" xmlns:xlink="http://www.w3.org/1999/xlink" xml:space="preserve" version="1.1"  baseProfile="full">
<path d="M14.03,39.72c2.15,0.36,4.32,0.42,6.49,0.18c4.65-0.62,12.56-1.78,17.88-2.65c1.27-0.35,2.86-0.12,3.87-0.13" style="fill:none;stroke:black;stroke-width:3;opacity:0">
  <animate attributeType="CSS" attributeName="opacity" from="0" to="1" begin="0s" dur="1s" repeatCount="Indefinite" fill="freeze" />
</path>
<path d="M29.86,17.25c0.94,0.94,1.29,2.25,1.29,3.92c0,0.73-0.01,40.22-0.02,61.7c0,6.53,0,11.4,0,13" style="fill:none;stroke:black;stroke-width:3;opacity:0">
  <animate attributeType="CSS" attributeName="opacity" from="0" to="1" begin="1s" dur="1s" repeatCount="Indefinite" fill="freeze" />
</path>
<path d="M30.94,40.03c0,2.47-1.1,5.63-1.7,7.05c-4.66,11.03-8.68,18.31-16.63,29.26" style="fill:none;stroke:black;stroke-width:3;opacity:0">
  <animate attributeType="CSS" attributeName="opacity" from="0" to="1" begin="2s" dur="1s" repeatCount="Indefinite" fill="freeze" />
</path>
<path d="M34.38,47.62c2.71,1.71,6.88,7.75,8.51,11.16" style="fill:none;stroke:black;stroke-width:3;opacity:0">
  <animate attributeType="CSS" attributeName="opacity" from="0" to="1" begin="3s" dur="1s" repeatCount="Indefinite" fill="freeze" />
</path>
<path d="M47.67,35.75c2.75,0.45,5.45,0.25,8.2-0.09c11.51-1.41,21.26-2.29,31.52-2.86c2.99-0.15,5.98-0.07,8.96,0.24" style="fill:none;stroke:black;stroke-width:3;opacity:0">
  <animate attributeType="CSS" attributeName="opacity" from="0" to="1" begin="4s" dur="1s" repeatCount="Indefinite" fill="freeze" />
</path>
<path d="M67.94,13.76c1.15,1.15,1.44,2.37,1.44,3.64c0,1.01,0.05,29.1,0.05,35.3" style="fill:none;stroke:black;stroke-width:3;opacity:0">
  <animate attributeType="CSS" attributeName="opacity" from="0" to="1" begin="5s" dur="1s" repeatCount="Indefinite" fill="freeze" />
</path>
<path d="M50.88,55.62c2.61,0.54,5.19,0.29,7.86,0.01c8.6-0.9,14.31-1.84,25.77-2.54c2.53-0.21,5.04-0.08,7.53,0.39" style="fill:none;stroke:black;stroke-width:3;opacity:0">
  <animate attributeType="CSS" attributeName="opacity" from="0" to="1" begin="6s" dur="1s" repeatCount="Indefinite" fill="freeze" />
</path>
<path d="M52.07,68.17c0.76,0.76,1.21,1.67,1.35,2.72c0.77,4.8,1.8,10.77,2.66,16.72c0.35,2.4,0.67,4.79,0.93,7.1" style="fill:none;stroke:black;stroke-width:3;opacity:0">
  <animate attributeType="CSS" attributeName="opacity" from="0" to="1" begin="7s" dur="1s" repeatCount="Indefinite" fill="freeze" />
</path>
<path d="M54.67,69.81c10.41-1.21,23.76-2.64,29.82-3.38c2.26-0.28,4.5,1.14,4,3.86c-1.14,6.11-2.49,12.91-3.64,18.58" style="fill:none;stroke:black;stroke-width:3;opacity:0">
  <animate attributeType="CSS" attributeName="opacity" from="0" to="1" begin="8s" dur="1s" repeatCount="Indefinite" fill="freeze" />
</path>
<path d="M57.93,92.5c6.02-0.42,14.88-1.55,23.69-2.25c1.89-0.15,3.79-0.28,5.65-0.38" style="fill:none;stroke:black;stroke-width:3;opacity:0">
  <animate attributeType="CSS" attributeName="opacity" from="0" to="1" begin="9s" dur="1s" repeatCount="Indefinite" fill="freeze" />
</path>
</svg>