<svg width="109px" height="109px" viewBox="0 0 px 109px" xmlns="http://www.w3.org/2000/svg" xmlns:xlink="http://www.w3.org/1999/xlink" xml:space="preserve" version="1.1"  baseProfile="full">
<path d="M11.78,36.97c0.37,0.24,2.58,0.41,3.57,0.31c4.25-0.41,16.89-2.21,23.73-3.41c0.99-0.17,2.32-0.24,2.94,0" style="fill:none;stroke:black;stroke-width:3;opacity:0">
  <animate attributeType="CSS" attributeName="opacity" from="0" to="1" begin="0s" dur="1s" repeatCount="Indefinite" fill="freeze" />
</path>
<path d="M28.11,13.75c0.91,0.47,2.54,2,2.54,4.42c0,0.95-0.12,70.75-0.3,76.58" style="fill:none;stroke:black;stroke-width:3;opacity:0">
  <animate attributeType="CSS" attributeName="opacity" from="0" to="1" begin="1s" dur="1s" repeatCount="Indefinite" fill="freeze" />
</path>
<path d="M30.69,37.53c-5.74,16.13-8.94,22.94-17.83,37.06" style="fill:none;stroke:black;stroke-width:3;opacity:0">
  <animate attributeType="CSS" attributeName="opacity" from="0" to="1" begin="2s" dur="1s" repeatCount="Indefinite" fill="freeze" />
</path>
<path d="M33.47,46.9c2.44,1.47,6.47,6.25,8.53,9.1" style="fill:none;stroke:black;stroke-width:3;opacity:0">
  <animate attributeType="CSS" attributeName="opacity" from="0" to="1" begin="3s" dur="1s" repeatCount="Indefinite" fill="freeze" />
</path>
<path d="M60.74,12.5c0.05,0.63,0.1,1.63-0.1,2.53c-1.14,5.34-8.16,17.05-17.15,24.22" style="fill:none;stroke:black;stroke-width:3;opacity:0">
  <animate attributeType="CSS" attributeName="opacity" from="0" to="1" begin="4s" dur="1s" repeatCount="Indefinite" fill="freeze" />
</path>
<path d="M59.44,19.54c2.5,0,16.66-2.52,19.16-3.33c2.5-0.81,3.65,1.14,2.5,2.65C77.35,23.73,74.25,28,69.52,37" style="fill:none;stroke:black;stroke-width:3;opacity:0">
  <animate attributeType="CSS" attributeName="opacity" from="0" to="1" begin="5s" dur="1s" repeatCount="Indefinite" fill="freeze" />
</path>
<path d="M49.89,37.5c0.65,0.77,1.3,2.94,1.3,3.76c0,3.18-0.11,17.9-0.11,19.64c0,11.85-3.12,24.92-8.58,31.85" style="fill:none;stroke:black;stroke-width:3;opacity:0">
  <animate attributeType="CSS" attributeName="opacity" from="0" to="1" begin="6s" dur="1s" repeatCount="Indefinite" fill="freeze" />
</path>
<path d="M51.41,40.19c3.03-0.19,32.03-4.25,34.28-4.45c4.04-0.37,5.47,3.15,5.05,5.35c-0.23,1.18-0.76,29.69-0.76,44.86c0,12.91-5.05,5.27-7.38,2.35" style="fill:none;stroke:black;stroke-width:3;opacity:0">
  <animate attributeType="CSS" attributeName="opacity" from="0" to="1" begin="7s" dur="1s" repeatCount="Indefinite" fill="freeze" />
</path>
<path d="M68.35,40.87c0.06,0.24,0.85,1.25,0.91,2.77c0.29,7.29-0.19,23.38-0.19,25.87" style="fill:none;stroke:black;stroke-width:3;opacity:0">
  <animate attributeType="CSS" attributeName="opacity" from="0" to="1" begin="8s" dur="1s" repeatCount="Indefinite" fill="freeze" />
</path>
<path d="M51.41,54.35c5.22,0,29.49-2.85,38.56-2.85" style="fill:none;stroke:black;stroke-width:3;opacity:0">
  <animate attributeType="CSS" attributeName="opacity" from="0" to="1" begin="9s" dur="1s" repeatCount="Indefinite" fill="freeze" />
</path>
<path d="M50.4,70.75c7.85-0.25,29.4-2.5,39.02-2.5" style="fill:none;stroke:black;stroke-width:3;opacity:0">
  <animate attributeType="CSS" attributeName="opacity" from="0" to="1" begin="10s" dur="1s" repeatCount="Indefinite" fill="freeze" />
</path>
</svg>