<svg width="109px" height="109px" viewBox="0 0 px 109px" xmlns="http://www.w3.org/2000/svg" xmlns:xlink="http://www.w3.org/1999/xlink" xml:space="preserve" version="1.1"  baseProfile="full">
<path d="M9.03,36.22c0.37,0.24,2.54,0.41,3.52,0.31c4.19-0.41,16.08-1.71,22.82-2.91c0.98-0.17,2.29-0.24,2.9,0" style="fill:none;stroke:black;stroke-width:3;opacity:0">
  <animate attributeType="CSS" attributeName="opacity" from="0" to="1" begin="0s" dur="1s" repeatCount="0" fill="freeze" />
</path>
<path d="M24.36,13.5c0.91,0.47,2.54,1.5,2.54,4.42c0,0.95-0.12,72.75-0.3,78.58" style="fill:none;stroke:black;stroke-width:3;opacity:0">
  <animate attributeType="CSS" attributeName="opacity" from="0" to="1" begin="1s" dur="1s" repeatCount="0" fill="freeze" />
</path>
<path d="M26.94,37.78c-5.18,15.58-8.06,22.17-16.08,35.81" style="fill:none;stroke:black;stroke-width:3;opacity:0">
  <animate attributeType="CSS" attributeName="opacity" from="0" to="1" begin="2s" dur="1s" repeatCount="0" fill="freeze" />
</path>
<path d="M28.97,43.4c3.45,1.46,7.67,6.28,9.78,10.35" style="fill:none;stroke:black;stroke-width:3;opacity:0">
  <animate attributeType="CSS" attributeName="opacity" from="0" to="1" begin="3s" dur="1s" repeatCount="0" fill="freeze" />
</path>
<path d="M47.19,21.15c2.91,1.09,3.08,1.02,5,0.87c11.65-0.87,20.92-2.78,30.08-2.78c2.71,0,4.61,0.51,4.16,4.31c-0.69,5.82-2.89,15.27-4.35,25.11" style="fill:none;stroke:black;stroke-width:3;opacity:0">
  <animate attributeType="CSS" attributeName="opacity" from="0" to="1" begin="4s" dur="1s" repeatCount="0" fill="freeze" />
</path>
<path d="M44,38.14c2.04,0.21,3.64,0.66,5.9,0.42c17.18-1.82,25.27-3.17,40.93-3.81c2.5-0.1,4.54,0.42,5.67,0.64" style="fill:none;stroke:black;stroke-width:3;opacity:0">
  <animate attributeType="CSS" attributeName="opacity" from="0" to="1" begin="5s" dur="1s" repeatCount="0" fill="freeze" />
</path>
<path d="M47.48,53.66c1.05,0.12,2.94,0.42,4.19,0.35c11.52-0.59,20.79-2.09,31.26-2.33c1.67-0.04,2.72,0,3.98,0.12" style="fill:none;stroke:black;stroke-width:3;opacity:0">
  <animate attributeType="CSS" attributeName="opacity" from="0" to="1" begin="6s" dur="1s" repeatCount="0" fill="freeze" />
</path>
<path d="M64.16,24.5c0.99,1.04,1.17,3.13,0.93,4.14C60.33,48.42,55,71.75,35.44,87.5" style="fill:none;stroke:black;stroke-width:3;opacity:0">
  <animate attributeType="CSS" attributeName="opacity" from="0" to="1" begin="7s" dur="1s" repeatCount="0" fill="freeze" />
</path>
<path d="M54.33,69c0.45,0.45,1.27,2.66,1.33,3.26c0.67,6.42,1.78,15.34,2.69,23.46" style="fill:none;stroke:black;stroke-width:3;opacity:0">
  <animate attributeType="CSS" attributeName="opacity" from="0" to="1" begin="8s" dur="1s" repeatCount="0" fill="freeze" />
</path>
<path d="M56.12,71.03c10.97-1.88,26.34-3.38,31.99-4.01c2.07-0.23,3.31,2.33,3.02,3.69c-1.23,5.63-2.3,11.19-4.14,20.8" style="fill:none;stroke:black;stroke-width:3;opacity:0">
  <animate attributeType="CSS" attributeName="opacity" from="0" to="1" begin="9s" dur="1s" repeatCount="0" fill="freeze" />
</path>
<path d="M58.8,93.71c8.45-0.46,21.82-0.78,30.25-1.5" style="fill:none;stroke:black;stroke-width:3;opacity:0">
  <animate attributeType="CSS" attributeName="opacity" from="0" to="1" begin="10s" dur="1s" repeatCount="0" fill="freeze" />
</path>
</svg>