<svg width="109px" height="109px" viewBox="0 0 px 109px" xmlns="http://www.w3.org/2000/svg" xmlns:xlink="http://www.w3.org/1999/xlink" xml:space="preserve" version="1.1"  baseProfile="full">
<path d="M50.72,9.68c0.02,0.25,0.04,0.64-0.04,0.99c-0.51,2.09-3.43,6.69-7.43,9.5" style="fill:none;stroke:black;stroke-width:3;opacity:0">
  <animate attributeType="CSS" attributeName="opacity" from="0" to="1" begin="0s" dur="1s" repeatCount="0" fill="freeze" />
</path>
<path d="M32.13,19.35c0.46,0.31,0.82,1.75,0.82,2.29c0,5.54,0.3,25.1-0.73,34.54" style="fill:none;stroke:black;stroke-width:3;opacity:0">
  <animate attributeType="CSS" attributeName="opacity" from="0" to="1" begin="1s" dur="1s" repeatCount="0" fill="freeze" />
</path>
<path d="M33.52,22.98c2.02-0.07,35.39-2.92,37.34-2.7c1.72,0.19,3.25,1.29,3.12,2.59c-0.21,2.06-0.92,8.97-2.11,15.12" style="fill:none;stroke:black;stroke-width:3;opacity:0">
  <animate attributeType="CSS" attributeName="opacity" from="0" to="1" begin="2s" dur="1s" repeatCount="0" fill="freeze" />
</path>
<path d="M33.84,31.03c2.47,0,36.16-2.44,38.96-2.44" style="fill:none;stroke:black;stroke-width:3;opacity:0">
  <animate attributeType="CSS" attributeName="opacity" from="0" to="1" begin="3s" dur="1s" repeatCount="0" fill="freeze" />
</path>
<path d="M33.73,38.81c5.03-0.28,31.85-2.07,38.12-2.31" style="fill:none;stroke:black;stroke-width:3;opacity:0">
  <animate attributeType="CSS" attributeName="opacity" from="0" to="1" begin="4s" dur="1s" repeatCount="0" fill="freeze" />
</path>
<path d="M33.03,47.04c13.4-1.09,40.65-2.8,46.42-3.13c2.79-0.16,5.41,0.05,6.42,0.21" style="fill:none;stroke:black;stroke-width:3;opacity:0">
  <animate attributeType="CSS" attributeName="opacity" from="0" to="1" begin="5s" dur="1s" repeatCount="0" fill="freeze" />
</path>
<path d="M32.23,56.15c8.26-0.96,46.55-4.31,51.13-4.67c2.98-0.23,3.02,1.3,2.48,2.87c-1.49,4.37-2.36,6.66-4.8,9.44c-2.32,2.64-4.3,1.01-5.63-0.99" style="fill:none;stroke:black;stroke-width:3;opacity:0">
  <animate attributeType="CSS" attributeName="opacity" from="0" to="1" begin="6s" dur="1s" repeatCount="0" fill="freeze" />
</path>
<path d="M14.75,72.26c2.11,0.44,4.51,0.58,6.94,0.44c12.37-0.71,48.27-3.21,66.98-4.05c2.41-0.11,3.92,0.08,6.34,0.38" style="fill:none;stroke:black;stroke-width:3;opacity:0">
  <animate attributeType="CSS" attributeName="opacity" from="0" to="1" begin="7s" dur="1s" repeatCount="0" fill="freeze" />
</path>
<path d="M52.96,59.75c1.02,0.41,1.84,1.81,1.84,2.65c0,8.57,0,33.49-0.2,38.6" style="fill:none;stroke:black;stroke-width:3;opacity:0">
  <animate attributeType="CSS" attributeName="opacity" from="0" to="1" begin="8s" dur="1s" repeatCount="0" fill="freeze" />
</path>
<path d="M52.25,71C45.5,81.5,32.5,92.75,13.5,97.75" style="fill:none;stroke:black;stroke-width:3;opacity:0">
  <animate attributeType="CSS" attributeName="opacity" from="0" to="1" begin="9s" dur="1s" repeatCount="0" fill="freeze" />
</path>
<path d="M55,71c5.75,5,26.5,20.5,34.2,23.81c2,0.86,3.45,1.62,5.3,1.94" style="fill:none;stroke:black;stroke-width:3;opacity:0">
  <animate attributeType="CSS" attributeName="opacity" from="0" to="1" begin="10s" dur="1s" repeatCount="0" fill="freeze" />
</path>
</svg>