<svg width="109px" height="109px" viewBox="0 0 px 109px" xmlns="http://www.w3.org/2000/svg" xmlns:xlink="http://www.w3.org/1999/xlink" xml:space="preserve" version="1.1"  baseProfile="full">
<path d="M20.66,24.1c0.7,0.17,2.82,0.15,4.69,0c6.56-0.52,15.33-1.88,22.36-2.22c1.87-0.09,2.28-0.02,3.45,0.16" style="fill:none;stroke:black;stroke-width:3;opacity:0">
  <animate attributeType="CSS" attributeName="opacity" from="0" to="1" begin="0s" dur="1s" repeatCount="Indefinite" fill="freeze" />
</path>
<path d="M37.07,11.88c0.68,0.62,1.61,2.01,1.61,2.74c0,8.14,0,31.64-0.23,35.95" style="fill:none;stroke:black;stroke-width:3;opacity:0">
  <animate attributeType="CSS" attributeName="opacity" from="0" to="1" begin="1s" dur="1s" repeatCount="Indefinite" fill="freeze" />
</path>
<path d="M38.24,23.47c-3.43,6.81-13.63,18.24-20.75,22.09" style="fill:none;stroke:black;stroke-width:3;opacity:0">
  <animate attributeType="CSS" attributeName="opacity" from="0" to="1" begin="2s" dur="1s" repeatCount="Indefinite" fill="freeze" />
</path>
<path d="M42.36,30.79c2.76,1.37,6.2,3.93,8.61,6.09" style="fill:none;stroke:black;stroke-width:3;opacity:0">
  <animate attributeType="CSS" attributeName="opacity" from="0" to="1" begin="3s" dur="1s" repeatCount="Indefinite" fill="freeze" />
</path>
<path d="M57.02,20.85c0.57,0.17,1.33,0.45,2.85,0.52c4.18,0.17,15.73-2.21,26.19-3.07c1.52-0.12,2.84-0.17,3.79,0" style="fill:none;stroke:black;stroke-width:3;opacity:0">
  <animate attributeType="CSS" attributeName="opacity" from="0" to="1" begin="4s" dur="1s" repeatCount="Indefinite" fill="freeze" />
</path>
<path d="M71.06,10c1.17,0.34,2.11,2.51,2.11,3.24c0,5.51,0,31.71-0.23,36.01" style="fill:none;stroke:black;stroke-width:3;opacity:0">
  <animate attributeType="CSS" attributeName="opacity" from="0" to="1" begin="5s" dur="1s" repeatCount="Indefinite" fill="freeze" />
</path>
<path d="M71.99,21.9C69.1,29.13,60.1,39.19,53.4,42.89" style="fill:none;stroke:black;stroke-width:3;opacity:0">
  <animate attributeType="CSS" attributeName="opacity" from="0" to="1" begin="6s" dur="1s" repeatCount="Indefinite" fill="freeze" />
</path>
<path d="M72.87,21.7c5.33,7.23,13.86,16.5,18.19,19.36c1.23,0.81,1.92,1.37,2.96,1.65" style="fill:none;stroke:black;stroke-width:3;opacity:0">
  <animate attributeType="CSS" attributeName="opacity" from="0" to="1" begin="7s" dur="1s" repeatCount="Indefinite" fill="freeze" />
</path>
<path d="M54.12,49.39c0.27,0.41,0.5,1.65,0.01,2.41c-3.53,5.51-11.7,14.99-25.16,21.36" style="fill:none;stroke:black;stroke-width:3;opacity:0">
  <animate attributeType="CSS" attributeName="opacity" from="0" to="1" begin="8s" dur="1s" repeatCount="Indefinite" fill="freeze" />
</path>
<path d="M51.33,58.29c1.56,0.3,3.07,0.29,4.25,0.2c3.89-0.33,12.11-2.33,17.29-3.59c3.72-0.91,4.56,1.34,3.42,3.21C67.18,73.04,47.33,92.63,19.75,101" style="fill:none;stroke:black;stroke-width:3;opacity:0">
  <animate attributeType="CSS" attributeName="opacity" from="0" to="1" begin="9s" dur="1s" repeatCount="Indefinite" fill="freeze" />
</path>
<path d="M40.84,69.05c4.12,1.94,10.63,7.98,11.66,11" style="fill:none;stroke:black;stroke-width:3;opacity:0">
  <animate attributeType="CSS" attributeName="opacity" from="0" to="1" begin="10s" dur="1s" repeatCount="Indefinite" fill="freeze" />
</path>
</svg>