<svg width="109px" height="109px" viewBox="0 0 px 109px" xmlns="http://www.w3.org/2000/svg" xmlns:xlink="http://www.w3.org/1999/xlink" xml:space="preserve" version="1.1"  baseProfile="full">
<path d="M11.28,35.72c0.35,0.24,2.39,0.41,3.31,0.31c3.94-0.41,15.62-1.21,21.95-2.41c0.92-0.17,2.15-0.24,2.73,0" style="fill:none;stroke:black;stroke-width:3;opacity:0">
  <animate attributeType="CSS" attributeName="opacity" from="0" to="1" begin="0s" dur="1s" repeatCount="Indefinite" fill="freeze" />
</path>
<path d="M25.36,13.5c0.91,0.47,2.04,2.25,2.04,4.42c0,0.95-0.12,70.75-0.3,76.58" style="fill:none;stroke:black;stroke-width:3;opacity:0">
  <animate attributeType="CSS" attributeName="opacity" from="0" to="1" begin="1s" dur="1s" repeatCount="Indefinite" fill="freeze" />
</path>
<path d="M26.94,38.78C21.52,53.82,19,59.75,10.11,73.34" style="fill:none;stroke:black;stroke-width:3;opacity:0">
  <animate attributeType="CSS" attributeName="opacity" from="0" to="1" begin="2s" dur="1s" repeatCount="Indefinite" fill="freeze" />
</path>
<path d="M29.47,45.9c2.37,1.59,7.28,6.76,9.28,9.85" style="fill:none;stroke:black;stroke-width:3;opacity:0">
  <animate attributeType="CSS" attributeName="opacity" from="0" to="1" begin="3s" dur="1s" repeatCount="Indefinite" fill="freeze" />
</path>
<path d="M66.1,12.13c0.58,0.39,1.82,2.92,1.94,3.7c0.12,0.78,0.06,3.21-0.06,8.08" style="fill:none;stroke:black;stroke-width:3;opacity:0">
  <animate attributeType="CSS" attributeName="opacity" from="0" to="1" begin="4s" dur="1s" repeatCount="Indefinite" fill="freeze" />
</path>
<path d="M42.97,25.91c1.17,0.55,3.31,0.64,4.48,0.55c12.17-0.92,27.27-3.58,42.54-3.79c1.95-0.03,3.12,0.26,4.09,0.54" style="fill:none;stroke:black;stroke-width:3;opacity:0">
  <animate attributeType="CSS" attributeName="opacity" from="0" to="1" begin="5s" dur="1s" repeatCount="Indefinite" fill="freeze" />
</path>
<path d="M46.72,26.72c0.04,1.53-0.09,3.94-0.07,6.14C46.75,47.75,47.25,77,34.06,91.12" style="fill:none;stroke:black;stroke-width:3;opacity:0">
  <animate attributeType="CSS" attributeName="opacity" from="0" to="1" begin="6s" dur="1s" repeatCount="Indefinite" fill="freeze" />
</path>
<path d="M65.28,32.64c0.15,1.37-0.04,3.17-0.53,4.35c-3.09,7.5-7.3,16.95-14.38,26.08" style="fill:none;stroke:black;stroke-width:3;opacity:0">
  <animate attributeType="CSS" attributeName="opacity" from="0" to="1" begin="7s" dur="1s" repeatCount="Indefinite" fill="freeze" />
</path>
<path d="M57.5,58.04c0.5,0.71,0.65,1.9,0.69,3.2c0.32,10.16-0.71,30.7-0.39,36.29" style="fill:none;stroke:black;stroke-width:3;opacity:0">
  <animate attributeType="CSS" attributeName="opacity" from="0" to="1" begin="8s" dur="1s" repeatCount="Indefinite" fill="freeze" />
</path>
<path d="M64.63,52.06c1.08,0.63,3.04,0.32,4.14,0.23c6.72-0.54,15.77-2.23,26.07-2.99c1.8-0.13,2.88,0.3,3.78,0.61" style="fill:none;stroke:black;stroke-width:3;opacity:0">
  <animate attributeType="CSS" attributeName="opacity" from="0" to="1" begin="9s" dur="1s" repeatCount="Indefinite" fill="freeze" />
</path>
<path d="M84.34,32.32c0.07,0.38,1.43,1.96,1.49,4.35c0.32,11.48-0.2,50.33-0.2,54.24c0,7.32-4.66,0.41-6.4-0.8" style="fill:none;stroke:black;stroke-width:3;opacity:0">
  <animate attributeType="CSS" attributeName="opacity" from="0" to="1" begin="10s" dur="1s" repeatCount="Indefinite" fill="freeze" />
</path>
<path d="M68.55,63.3c2.94,2.01,7.59,8.27,8.33,11.4" style="fill:none;stroke:black;stroke-width:3;opacity:0">
  <animate attributeType="CSS" attributeName="opacity" from="0" to="1" begin="11s" dur="1s" repeatCount="Indefinite" fill="freeze" />
</path>
</svg>