<svg width="109px" height="109px" viewBox="0 0 px 109px" xmlns="http://www.w3.org/2000/svg" xmlns:xlink="http://www.w3.org/1999/xlink" xml:space="preserve" version="1.1"  baseProfile="full">
<path d="M13.28,39.22c1.9,0.28,3.81,0.39,5.73,0.32c5.5-0.53,15.81-1.8,21.39-2.81c1.02-0.23,2.06-0.27,3.12-0.12" style="fill:none;stroke:black;stroke-width:3;opacity:0">
  <animate attributeType="CSS" attributeName="opacity" from="0" to="1" begin="0s" dur="1s" repeatCount="Indefinite" fill="freeze" />
</path>
<path d="M30.61,15.5c0.94,0.94,1.29,2.62,1.29,3.92c0,0.76-0.01,44.42-0.02,65.2c0,5.17,0,8.93,0,10.25" style="fill:none;stroke:black;stroke-width:3;opacity:0">
  <animate attributeType="CSS" attributeName="opacity" from="0" to="1" begin="1s" dur="1s" repeatCount="Indefinite" fill="freeze" />
</path>
<path d="M31.44,39.78c0,1.72-0.46,3.89-0.92,5.22C26.5,56.5,19,67.38,11.25,77.25" style="fill:none;stroke:black;stroke-width:3;opacity:0">
  <animate attributeType="CSS" attributeName="opacity" from="0" to="1" begin="2s" dur="1s" repeatCount="Indefinite" fill="freeze" />
</path>
<path d="M35.47,50.15c3.28,2.23,6.4,5.85,8.41,9.39" style="fill:none;stroke:black;stroke-width:3;opacity:0">
  <animate attributeType="CSS" attributeName="opacity" from="0" to="1" begin="3s" dur="1s" repeatCount="Indefinite" fill="freeze" />
</path>
<path d="M45.48,24.28c2.65,0.41,5.29,0.41,7.93,0c10-0.99,20.17-2.76,32.59-3.62c2.25-0.22,4.51-0.18,6.77,0.13" style="fill:none;stroke:black;stroke-width:3;opacity:0">
  <animate attributeType="CSS" attributeName="opacity" from="0" to="1" begin="4s" dur="1s" repeatCount="Indefinite" fill="freeze" />
</path>
<path d="M67.33,11.75c0.15,0.76,0.01,1.88-0.27,2.73c-4.77,14.56-12.4,26.24-23.94,34.36" style="fill:none;stroke:black;stroke-width:3;opacity:0">
  <animate attributeType="CSS" attributeName="opacity" from="0" to="1" begin="5s" dur="1s" repeatCount="Indefinite" fill="freeze" />
</path>
<path d="M62.14,32.73c1.93,0.12,3.84,0.04,5.75-0.22c3.98-0.46,10.44-1.22,15.12-1.83c1.51-0.29,3.03-0.27,4.56,0.07" style="fill:none;stroke:black;stroke-width:3;opacity:0">
  <animate attributeType="CSS" attributeName="opacity" from="0" to="1" begin="6s" dur="1s" repeatCount="Indefinite" fill="freeze" />
</path>
<path d="M71.35,33.18c0.86,0.86,1.15,1.82,1.15,2.81c0,2.76,0.03,4.01,0.03,6.9" style="fill:none;stroke:black;stroke-width:3;opacity:0">
  <animate attributeType="CSS" attributeName="opacity" from="0" to="1" begin="7s" dur="1s" repeatCount="Indefinite" fill="freeze" />
</path>
<path d="M51.83,45.46c2.52,0.43,5.04,0.39,7.55-0.13c9.58-1.21,19.94-2.52,29.49-2.73c2.44-0.16,4.86,0.03,7.26,0.57" style="fill:none;stroke:black;stroke-width:3;opacity:0">
  <animate attributeType="CSS" attributeName="opacity" from="0" to="1" begin="8s" dur="1s" repeatCount="Indefinite" fill="freeze" />
</path>
<path d="M56.03,54.08c0.82,0.82,1.15,1.92,1.15,2.97c0,0.67-0.06,34.08-0.06,39.24" style="fill:none;stroke:black;stroke-width:3;opacity:0">
  <animate attributeType="CSS" attributeName="opacity" from="0" to="1" begin="9s" dur="1s" repeatCount="Indefinite" fill="freeze" />
</path>
<path d="M58.08,55.21C67.62,54,76.38,53,81.94,52.32c3.89-0.48,4.69,0.96,4.69,4.69c0,7.37,0.06,30.12,0.06,34.81c0,11.44-4.7,4.69-7.27,2.14" style="fill:none;stroke:black;stroke-width:3;opacity:0">
  <animate attributeType="CSS" attributeName="opacity" from="0" to="1" begin="10s" dur="1s" repeatCount="Indefinite" fill="freeze" />
</path>
<path d="M58.08,66.99c10.04-1.11,17.79-2.11,27.85-2.62" style="fill:none;stroke:black;stroke-width:3;opacity:0">
  <animate attributeType="CSS" attributeName="opacity" from="0" to="1" begin="11s" dur="1s" repeatCount="Indefinite" fill="freeze" />
</path>
<path d="M58.16,77.61c9.47-0.98,15.84-1.36,27.89-2.28" style="fill:none;stroke:black;stroke-width:3;opacity:0">
  <animate attributeType="CSS" attributeName="opacity" from="0" to="1" begin="12s" dur="1s" repeatCount="Indefinite" fill="freeze" />
</path>
</svg>