<svg width="109px" height="109px" viewBox="0 0 px 109px" xmlns="http://www.w3.org/2000/svg" xmlns:xlink="http://www.w3.org/1999/xlink" xml:space="preserve" version="1.1"  baseProfile="full">
<path d="M10.78,38.22c0.35,0.24,2.39,0.41,3.31,0.31c3.94-0.41,15.62-1.21,21.95-2.41c0.92-0.17,2.15-0.24,2.73,0" style="fill:none;stroke:black;stroke-width:3;opacity:0">
  <animate attributeType="CSS" attributeName="opacity" from="0" to="1" begin="0s" dur="1s" repeatCount="0" fill="freeze" />
</path>
<path d="M25.36,16.5c0.91,0.47,2.04,2.75,2.04,4.42c0,0.95-0.12,66.75-0.3,72.58" style="fill:none;stroke:black;stroke-width:3;opacity:0">
  <animate attributeType="CSS" attributeName="opacity" from="0" to="1" begin="1s" dur="1s" repeatCount="0" fill="freeze" />
</path>
<path d="M26.94,40.28c-5.1,15.04-7.94,21.4-15.83,34.56" style="fill:none;stroke:black;stroke-width:3;opacity:0">
  <animate attributeType="CSS" attributeName="opacity" from="0" to="1" begin="2s" dur="1s" repeatCount="0" fill="freeze" />
</path>
<path d="M30.47,47.65c2.23,1.46,5.9,5.28,7.78,8.1" style="fill:none;stroke:black;stroke-width:3;opacity:0">
  <animate attributeType="CSS" attributeName="opacity" from="0" to="1" begin="3s" dur="1s" repeatCount="0" fill="freeze" />
</path>
<path d="M40,42.11c0.33,0.18,2.18,0.44,4.8,0.44c4.87,0,15.4-2.33,20.5-2.33c0.87,0,3.17,0.04,3.71,0.22" style="fill:none;stroke:black;stroke-width:3;opacity:0">
  <animate attributeType="CSS" attributeName="opacity" from="0" to="1" begin="4s" dur="1s" repeatCount="0" fill="freeze" />
</path>
<path d="M52.98,18.88c0.67,0.41,1.2,1.83,1.2,2.68c0,14.43,0,35.22-0.13,40.38" style="fill:none;stroke:black;stroke-width:3;opacity:0">
  <animate attributeType="CSS" attributeName="opacity" from="0" to="1" begin="5s" dur="1s" repeatCount="0" fill="freeze" />
</path>
<path d="M43.65,62.79c0.21,0.63,0.45,1.06,0.52,1.54c0.51,3.47,2.16,17.54,2.89,24.12" style="fill:none;stroke:black;stroke-width:3;opacity:0">
  <animate attributeType="CSS" attributeName="opacity" from="0" to="1" begin="6s" dur="1s" repeatCount="0" fill="freeze" />
</path>
<path d="M44.7,63.8c5.79-0.7,15.12-1.97,19.07-2.08c1.63-0.05,2.51,0.98,2.37,2.04c-0.54,4-2.59,14.03-3.47,19.34" style="fill:none;stroke:black;stroke-width:3;opacity:0">
  <animate attributeType="CSS" attributeName="opacity" from="0" to="1" begin="7s" dur="1s" repeatCount="0" fill="freeze" />
</path>
<path d="M46.87,85.17c4.79-0.29,11.77-1.17,17.53-1.55" style="fill:none;stroke:black;stroke-width:3;opacity:0">
  <animate attributeType="CSS" attributeName="opacity" from="0" to="1" begin="8s" dur="1s" repeatCount="0" fill="freeze" />
</path>
<path d="M75.9,20.75c0.29,0.98,0.48,1.95,0.58,2.91c0.09,0.97-0.1,27.59-0.1,31.82c0,10.36-2.85,27.01-9.62,36.02" style="fill:none;stroke:black;stroke-width:3;opacity:0">
  <animate attributeType="CSS" attributeName="opacity" from="0" to="1" begin="9s" dur="1s" repeatCount="0" fill="freeze" />
</path>
<path d="M77.22,22.22c1.49-0.19,13.61-2.03,14.75-2.01c1.78,0.03,2.45,1.1,2.45,2.52c0,3.76-0.82,46.13-0.82,65.1c0,10.17-6.09,1.67-8.09-0.08" style="fill:none;stroke:black;stroke-width:3;opacity:0">
  <animate attributeType="CSS" attributeName="opacity" from="0" to="1" begin="10s" dur="1s" repeatCount="0" fill="freeze" />
</path>
<path d="M76.96,42.69c6.29-0.69,12.62-1.16,17.16-1.4" style="fill:none;stroke:black;stroke-width:3;opacity:0">
  <animate attributeType="CSS" attributeName="opacity" from="0" to="1" begin="11s" dur="1s" repeatCount="0" fill="freeze" />
</path>
<path d="M76.64,60.31c4.03-0.29,11.86-1.02,16.52-1" style="fill:none;stroke:black;stroke-width:3;opacity:0">
  <animate attributeType="CSS" attributeName="opacity" from="0" to="1" begin="12s" dur="1s" repeatCount="0" fill="freeze" />
</path>
</svg>