<svg width="109px" height="109px" viewBox="0 0 px 109px" xmlns="http://www.w3.org/2000/svg" xmlns:xlink="http://www.w3.org/1999/xlink" xml:space="preserve" version="1.1"  baseProfile="full">
<path d="M32.51,11.25c0.32,0.99,0.94,1.29,0.27,2.5c-1.03,1.87-1.15,3.15-5.88,8.63" style="fill:none;stroke:black;stroke-width:3;opacity:0">
  <animate attributeType="CSS" attributeName="opacity" from="0" to="1" begin="0s" dur="1s" repeatCount="Indefinite" fill="freeze" />
</path>
<path d="M22.8,22.45c0.58,0.71,0.73,1.97,0.73,2.86c0,0.89,0.08,12.69,0.15,14.3c0.29,7.04-3.88,16.37-6.78,19.94" style="fill:none;stroke:black;stroke-width:3;opacity:0">
  <animate attributeType="CSS" attributeName="opacity" from="0" to="1" begin="1s" dur="1s" repeatCount="Indefinite" fill="freeze" />
</path>
<path d="M23.51,24.68c3.61-0.38,15.56-2.91,18.82-3.29c3.26-0.38,3.09,0.75,3.09,2.07s-0.34,28.31-0.34,30.19c0,9.1-4.08,2.6-5.32,0.75" style="fill:none;stroke:black;stroke-width:3;opacity:0">
  <animate attributeType="CSS" attributeName="opacity" from="0" to="1" begin="2s" dur="1s" repeatCount="Indefinite" fill="freeze" />
</path>
<path d="M29.83,27.86c1.6,0.87,5.58,3.2,5.98,4.22" style="fill:none;stroke:black;stroke-width:3;opacity:0">
  <animate attributeType="CSS" attributeName="opacity" from="0" to="1" begin="3s" dur="1s" repeatCount="Indefinite" fill="freeze" />
</path>
<path d="M32.93,39.26c0.86,0.94,1.03,1.51,1.03,2.26S33.61,49,33.61,54.5" style="fill:none;stroke:black;stroke-width:3;opacity:0">
  <animate attributeType="CSS" attributeName="opacity" from="0" to="1" begin="4s" dur="1s" repeatCount="Indefinite" fill="freeze" />
</path>
<path d="M13.93,39.99c0.37,0.67,2.02,1.07,3.22,0.89c1.2-0.18,26.82-6.79,30.47-7.73" style="fill:none;stroke:black;stroke-width:3;opacity:0">
  <animate attributeType="CSS" attributeName="opacity" from="0" to="1" begin="5s" dur="1s" repeatCount="Indefinite" fill="freeze" />
</path>
<path d="M58.71,14.12c0.19,0.4,0.36,1.28,0.35,1.87c-0.13,6.1-1.32,12.75-5.64,17.19" style="fill:none;stroke:black;stroke-width:3;opacity:0">
  <animate attributeType="CSS" attributeName="opacity" from="0" to="1" begin="6s" dur="1s" repeatCount="Indefinite" fill="freeze" />
</path>
<path d="M59.58,16.56c4.42-0.81,11.64-1.93,14.19-2.27c2.1-0.28,3,0.25,2.79,1.4c-0.4,2.24-1.03,5.03-1.03,7.28c0,3.1,1,5.34,7.58,5.34c6.55,0,8.15-1.58,8.15-5.32" style="fill:none;stroke:black;stroke-width:3;opacity:0">
  <animate attributeType="CSS" attributeName="opacity" from="0" to="1" begin="7s" dur="1s" repeatCount="Indefinite" fill="freeze" />
</path>
<path d="M60.41,36.39c0.96,0.18,1.08,0.45,3,0.18c1.92-0.27,13.19-2.2,14.5-2.47c1.32-0.27,2.39,1.04,1.8,1.96c-6.07,9.55-11.9,14.46-23.4,18.9" style="fill:none;stroke:black;stroke-width:3;opacity:0">
  <animate attributeType="CSS" attributeName="opacity" from="0" to="1" begin="8s" dur="1s" repeatCount="Indefinite" fill="freeze" />
</path>
<path d="M56.83,41.12c3.04,0.34,17.86,9.54,28.42,13.32c1.64,0.59,2.84,0.98,4.38,1.17" style="fill:none;stroke:black;stroke-width:3;opacity:0">
  <animate attributeType="CSS" attributeName="opacity" from="0" to="1" begin="9s" dur="1s" repeatCount="Indefinite" fill="freeze" />
</path>
<path d="M18.75,70.79c1.88,0.41,4.02,0.54,6.18,0.41c11.02-0.67,43.01-3.02,59.67-3.81c2.15-0.1,3.49,0.07,5.64,0.36" style="fill:none;stroke:black;stroke-width:3;opacity:0">
  <animate attributeType="CSS" attributeName="opacity" from="0" to="1" begin="10s" dur="1s" repeatCount="Indefinite" fill="freeze" />
</path>
<path d="M52.34,58.75c1.02,0.49,1.83,2.19,1.83,3.2c0,11.76-0.2,26.55-0.2,37.55" style="fill:none;stroke:black;stroke-width:3;opacity:0">
  <animate attributeType="CSS" attributeName="opacity" from="0" to="1" begin="11s" dur="1s" repeatCount="Indefinite" fill="freeze" />
</path>
<path d="M52.25,70.25c-6.38,7.92-21.46,19.3-36.75,24.5" style="fill:none;stroke:black;stroke-width:3;opacity:0">
  <animate attributeType="CSS" attributeName="opacity" from="0" to="1" begin="12s" dur="1s" repeatCount="Indefinite" fill="freeze" />
</path>
<path d="M55,69.5c4.69,3.04,26.72,18.28,31.82,21.26c1.73,1.01,3.21,1.45,4.93,1.74" style="fill:none;stroke:black;stroke-width:3;opacity:0">
  <animate attributeType="CSS" attributeName="opacity" from="0" to="1" begin="13s" dur="1s" repeatCount="Indefinite" fill="freeze" />
</path>
</svg>