<svg width="109px" height="109px" viewBox="0 0 px 109px" xmlns="http://www.w3.org/2000/svg" xmlns:xlink="http://www.w3.org/1999/xlink" xml:space="preserve" version="1.1"  baseProfile="full">
<path d="M12.03,38c0.38,0.23,2.62,0.38,3.63,0.29c4.32-0.38,17.17-1.57,24.12-2.7c1.01-0.16,2.36-0.23,2.99,0" style="fill:none;stroke:black;stroke-width:3;opacity:0">
  <animate attributeType="CSS" attributeName="opacity" from="0" to="1" begin="0s" dur="1s" repeatCount="0" fill="freeze" />
</path>
<path d="M29.36,16c0.91,0.47,2.04,3.25,2.04,4.42c0,0.95-0.12,68.75-0.3,74.58" style="fill:none;stroke:black;stroke-width:3;opacity:0">
  <animate attributeType="CSS" attributeName="opacity" from="0" to="1" begin="1s" dur="1s" repeatCount="0" fill="freeze" />
</path>
<path d="M30.94,38.78c-6.06,16.89-9.44,24.03-18.83,38.81" style="fill:none;stroke:black;stroke-width:3;opacity:0">
  <animate attributeType="CSS" attributeName="opacity" from="0" to="1" begin="2s" dur="1s" repeatCount="0" fill="freeze" />
</path>
<path d="M33.47,44.9c2.37,1.59,5.28,5.76,7.28,8.85" style="fill:none;stroke:black;stroke-width:3;opacity:0">
  <animate attributeType="CSS" attributeName="opacity" from="0" to="1" begin="3s" dur="1s" repeatCount="0" fill="freeze" />
</path>
<path d="M48.59,18.94c0.39,0.78,1.22,2.68,1.28,3.72c0.2,3.34,2.74,24.25,2.74,24.77" style="fill:none;stroke:black;stroke-width:3;opacity:0">
  <animate attributeType="CSS" attributeName="opacity" from="0" to="1" begin="4s" dur="1s" repeatCount="0" fill="freeze" />
</path>
<path d="M51.02,20.07c2.2-0.13,32.91-2.67,34.92-2.83c1.67-0.13,3.74,1.95,3.61,2.72c-0.62,3.69-2,16.48-3.89,24.53" style="fill:none;stroke:black;stroke-width:3;opacity:0">
  <animate attributeType="CSS" attributeName="opacity" from="0" to="1" begin="5s" dur="1s" repeatCount="0" fill="freeze" />
</path>
<path d="M50.91,32.23c2.97,0,33.36-2.31,36.72-2.31" style="fill:none;stroke:black;stroke-width:3;opacity:0">
  <animate attributeType="CSS" attributeName="opacity" from="0" to="1" begin="6s" dur="1s" repeatCount="0" fill="freeze" />
</path>
<path d="M52.77,45.06c6.06-0.56,25.81-2.06,33.35-2.54" style="fill:none;stroke:black;stroke-width:3;opacity:0">
  <animate attributeType="CSS" attributeName="opacity" from="0" to="1" begin="7s" dur="1s" repeatCount="0" fill="freeze" />
</path>
<path d="M45.01,58.94c0.32,0.8,0.65,1.21,0.64,2.26c-0.01,1.06,0.21,32.15,0.31,33.21" style="fill:none;stroke:black;stroke-width:3;opacity:0">
  <animate attributeType="CSS" attributeName="opacity" from="0" to="1" begin="8s" dur="1s" repeatCount="0" fill="freeze" />
</path>
<path d="M46.22,60.11c1.85-0.09,14.4-1.71,16.09-1.82c1.41-0.1,2.3,1.52,2.19,2.3c-0.23,1.58-0.12,32.1-0.13,32.89" style="fill:none;stroke:black;stroke-width:3;opacity:0">
  <animate attributeType="CSS" attributeName="opacity" from="0" to="1" begin="9s" dur="1s" repeatCount="0" fill="freeze" />
</path>
<path d="M46.45,74.94c2.5,0.06,13.93-1.35,16.76-1.28" style="fill:none;stroke:black;stroke-width:3;opacity:0">
  <animate attributeType="CSS" attributeName="opacity" from="0" to="1" begin="10s" dur="1s" repeatCount="0" fill="freeze" />
</path>
<path d="M46.24,91.47c5.1-0.44,11.52-1.18,17.87-1.51" style="fill:none;stroke:black;stroke-width:3;opacity:0">
  <animate attributeType="CSS" attributeName="opacity" from="0" to="1" begin="11s" dur="1s" repeatCount="0" fill="freeze" />
</path>
<path d="M74.34,57.44c0.32,0.8,0.65,1.21,0.64,2.26c-0.01,1.06,0.21,32.65,0.31,33.71" style="fill:none;stroke:black;stroke-width:3;opacity:0">
  <animate attributeType="CSS" attributeName="opacity" from="0" to="1" begin="12s" dur="1s" repeatCount="0" fill="freeze" />
</path>
<path d="M75.54,59.11c1.85-0.09,15.58-2.71,17.26-2.82c1.41-0.1,2.3,1.52,2.19,2.3c-0.23,1.58-0.62,34.1-0.63,34.89" style="fill:none;stroke:black;stroke-width:3;opacity:0">
  <animate attributeType="CSS" attributeName="opacity" from="0" to="1" begin="13s" dur="1s" repeatCount="0" fill="freeze" />
</path>
<path d="M75.78,73.94c2.5,0.06,15.61-1.35,18.44-1.28" style="fill:none;stroke:black;stroke-width:3;opacity:0">
  <animate attributeType="CSS" attributeName="opacity" from="0" to="1" begin="14s" dur="1s" repeatCount="0" fill="freeze" />
</path>
<path d="M76.07,90.47c5.1-0.44,11.19-1.18,17.54-1.51" style="fill:none;stroke:black;stroke-width:3;opacity:0">
  <animate attributeType="CSS" attributeName="opacity" from="0" to="1" begin="15s" dur="1s" repeatCount="0" fill="freeze" />
</path>
</svg>