<svg width="109px" height="109px" viewBox="0 0 px 109px" xmlns="http://www.w3.org/2000/svg" xmlns:xlink="http://www.w3.org/1999/xlink" xml:space="preserve" version="1.1"  baseProfile="full">
<path d="M12.28,39.72c0.35,0.24,2.39,0.41,3.31,0.31c3.94-0.41,18.12-1.71,24.45-2.91c0.92-0.17,2.15-0.24,2.73,0" style="fill:none;stroke:black;stroke-width:3;opacity:0">
  <animate attributeType="CSS" attributeName="opacity" from="0" to="1" begin="0s" dur="1s" repeatCount="Indefinite" fill="freeze" />
</path>
<path d="M27.86,14.5c0.91,0.47,2.54,2.75,2.54,4.42c0,0.95-0.12,72.75-0.3,78.58" style="fill:none;stroke:black;stroke-width:3;opacity:0">
  <animate attributeType="CSS" attributeName="opacity" from="0" to="1" begin="1s" dur="1s" repeatCount="Indefinite" fill="freeze" />
</path>
<path d="M29.94,40.28c-5.77,15.77-9.11,22.76-19.83,35.81" style="fill:none;stroke:black;stroke-width:3;opacity:0">
  <animate attributeType="CSS" attributeName="opacity" from="0" to="1" begin="2s" dur="1s" repeatCount="Indefinite" fill="freeze" />
</path>
<path d="M32.72,46.9C35.1,48.57,39,54,41,57.25" style="fill:none;stroke:black;stroke-width:3;opacity:0">
  <animate attributeType="CSS" attributeName="opacity" from="0" to="1" begin="3s" dur="1s" repeatCount="Indefinite" fill="freeze" />
</path>
<path d="M44.86,22.99c1.42,0.4,4.01,0.36,5.43,0.24c8.45-0.73,23.2-2.48,34.19-3.34c2.36-0.18,3.78,0.07,4.96,0.25" style="fill:none;stroke:black;stroke-width:3;opacity:0">
  <animate attributeType="CSS" attributeName="opacity" from="0" to="1" begin="4s" dur="1s" repeatCount="Indefinite" fill="freeze" />
</path>
<path d="M64.71,12.26c0.7,0.3,1.12,1.45,1.26,2.11c0.14,0.66,0.01,14.01-0.13,18.2" style="fill:none;stroke:black;stroke-width:3;opacity:0">
  <animate attributeType="CSS" attributeName="opacity" from="0" to="1" begin="5s" dur="1s" repeatCount="Indefinite" fill="freeze" />
</path>
<path d="M48.88,33.92c0.99,0.33,2.8,0.27,3.79,0.17c13.08-1.19,10.23-1.11,29.18-2.28c1.65-0.1,2.64,0.04,3.46,0.19" style="fill:none;stroke:black;stroke-width:3;opacity:0">
  <animate attributeType="CSS" attributeName="opacity" from="0" to="1" begin="6s" dur="1s" repeatCount="Indefinite" fill="freeze" />
</path>
<path d="M50.38,42.29c0.32,0.27,0.65,0.49,0.79,0.82c1.11,2.62,2.44,9.86,3.2,14.57" style="fill:none;stroke:black;stroke-width:3;opacity:0">
  <animate attributeType="CSS" attributeName="opacity" from="0" to="1" begin="7s" dur="1s" repeatCount="Indefinite" fill="freeze" />
</path>
<path d="M52.38,43.69c7.83-1.1,25.59-3.04,29.63-3.41c1.48-0.14,2.37,1.37,2.16,2.16c-0.88,3.3-1.47,5.69-3.34,10.44" style="fill:none;stroke:black;stroke-width:3;opacity:0">
  <animate attributeType="CSS" attributeName="opacity" from="0" to="1" begin="8s" dur="1s" repeatCount="Indefinite" fill="freeze" />
</path>
<path d="M54.68,55.94c4.74-0.42,22.49-2.22,28.51-2.64" style="fill:none;stroke:black;stroke-width:3;opacity:0">
  <animate attributeType="CSS" attributeName="opacity" from="0" to="1" begin="9s" dur="1s" repeatCount="Indefinite" fill="freeze" />
</path>
<path d="M53.68,60.94c2.1,1.23,5.42,5.06,5.94,6.97" style="fill:none;stroke:black;stroke-width:3;opacity:0">
  <animate attributeType="CSS" attributeName="opacity" from="0" to="1" begin="10s" dur="1s" repeatCount="Indefinite" fill="freeze" />
</path>
<path d="M79.75,58.71c0.01,0.2,0.03,0.52-0.03,0.8c-0.33,1.69-2.24,5.4-4.86,7.67" style="fill:none;stroke:black;stroke-width:3;opacity:0">
  <animate attributeType="CSS" attributeName="opacity" from="0" to="1" begin="11s" dur="1s" repeatCount="Indefinite" fill="freeze" />
</path>
<path d="M41.1,71.81c1.32,0.5,3.75,0.63,5.08,0.5c9.75-0.92,32.57-3.12,47.33-3.8c2.21-0.1,3.53,0.24,4.63,0.49" style="fill:none;stroke:black;stroke-width:3;opacity:0">
  <animate attributeType="CSS" attributeName="opacity" from="0" to="1" begin="12s" dur="1s" repeatCount="Indefinite" fill="freeze" />
</path>
<path d="M50.08,79.95c0.35,0.28,0.72,0.52,0.87,0.87c1.23,2.8,2.43,11.86,3.27,16.89" style="fill:none;stroke:black;stroke-width:3;opacity:0">
  <animate attributeType="CSS" attributeName="opacity" from="0" to="1" begin="13s" dur="1s" repeatCount="Indefinite" fill="freeze" />
</path>
<path d="M51.79,81.44c8.67-1.17,26.95-2.74,31.42-3.14c1.64-0.14,2.62,1.46,2.39,2.31c-0.97,3.52-1.62,8.33-3.7,13.41" style="fill:none;stroke:black;stroke-width:3;opacity:0">
  <animate attributeType="CSS" attributeName="opacity" from="0" to="1" begin="14s" dur="1s" repeatCount="Indefinite" fill="freeze" />
</path>
<path d="M54.57,95.86c5.25-0.45,23.24-1.45,29.91-1.9" style="fill:none;stroke:black;stroke-width:3;opacity:0">
  <animate attributeType="CSS" attributeName="opacity" from="0" to="1" begin="15s" dur="1s" repeatCount="Indefinite" fill="freeze" />
</path>
</svg>