<svg width="109px" height="109px" viewBox="0 0 px 109px" xmlns="http://www.w3.org/2000/svg" xmlns:xlink="http://www.w3.org/1999/xlink" xml:space="preserve" version="1.1"  baseProfile="full">
<path d="M10.28,36.72c0.35,0.24,2.39,0.41,3.31,0.31c3.94-0.41,13.12-1.21,19.45-2.41c0.92-0.17,2.15-0.24,2.73,0" style="fill:none;stroke:black;stroke-width:3;opacity:0">
  <animate attributeType="CSS" attributeName="opacity" from="0" to="1" begin="0s" dur="1s" repeatCount="0" fill="freeze" />
</path>
<path d="M25.36,14.5c0.91,0.47,2.04,2.25,2.04,4.42c0,0.95-0.12,70.75-0.3,76.58" style="fill:none;stroke:black;stroke-width:3;opacity:0">
  <animate attributeType="CSS" attributeName="opacity" from="0" to="1" begin="1s" dur="1s" repeatCount="0" fill="freeze" />
</path>
<path d="M26.94,39.28c-5.1,15.04-7.94,21.4-15.83,34.56" style="fill:none;stroke:black;stroke-width:3;opacity:0">
  <animate attributeType="CSS" attributeName="opacity" from="0" to="1" begin="2s" dur="1s" repeatCount="0" fill="freeze" />
</path>
<path d="M29.47,47.9c2.78,3.35,5.03,7.6,6.28,11.85" style="fill:none;stroke:black;stroke-width:3;opacity:0">
  <animate attributeType="CSS" attributeName="opacity" from="0" to="1" begin="3s" dur="1s" repeatCount="0" fill="freeze" />
</path>
<path d="M49.76,13c0.23,0.42,0.27,0.93,0.21,1.29c-0.32,2.15-3.12,7.29-5.67,10.17" style="fill:none;stroke:black;stroke-width:3;opacity:0">
  <animate attributeType="CSS" attributeName="opacity" from="0" to="1" begin="4s" dur="1s" repeatCount="0" fill="freeze" />
</path>
<path d="M39.5,25c0.36,0.53,0.73,1.3,0.73,2c0,0.71,2.24,17.51,2.39,21" style="fill:none;stroke:black;stroke-width:3;opacity:0">
  <animate attributeType="CSS" attributeName="opacity" from="0" to="1" begin="5s" dur="1s" repeatCount="0" fill="freeze" />
</path>
<path d="M40.95,26.25c2.06-0.09,17.73-1.91,19.61-2.01c1.57-0.09,3.77,0.79,3.45,2.62c-0.76,4.4-1.51,11.65-2.76,20.02" style="fill:none;stroke:black;stroke-width:3;opacity:0">
  <animate attributeType="CSS" attributeName="opacity" from="0" to="1" begin="6s" dur="1s" repeatCount="0" fill="freeze" />
</path>
<path d="M42.31,35.85c5.69-0.6,12.94-1.1,19.87-1.16" style="fill:none;stroke:black;stroke-width:3;opacity:0">
  <animate attributeType="CSS" attributeName="opacity" from="0" to="1" begin="7s" dur="1s" repeatCount="0" fill="freeze" />
</path>
<path d="M42.73,46.03c6.02-0.78,11.27-0.78,17.93-1.48" style="fill:none;stroke:black;stroke-width:3;opacity:0">
  <animate attributeType="CSS" attributeName="opacity" from="0" to="1" begin="8s" dur="1s" repeatCount="0" fill="freeze" />
</path>
<path d="M51.58,49.25c0.67,0.36,1.78,1.76,1.78,2.48c0,2.66-0.21,3-0.09,5.25" style="fill:none;stroke:black;stroke-width:3;opacity:0">
  <animate attributeType="CSS" attributeName="opacity" from="0" to="1" begin="9s" dur="1s" repeatCount="0" fill="freeze" />
</path>
<path d="M39.94,57.69c0.85,0.06,2.79,0.41,3.61,0.33c9.59-0.99,13.95-1.52,19.85-1.7c1.4-0.04,2.11-0.47,3.16-0.08" style="fill:none;stroke:black;stroke-width:3;opacity:0">
  <animate attributeType="CSS" attributeName="opacity" from="0" to="1" begin="10s" dur="1s" repeatCount="0" fill="freeze" />
</path>
<path d="M52.15,64.27c3.35,1.73,7.1,2.23,9.73,3.29c1.89,0.76,2.6,1.79,2.49,3.02c-0.3,3.25-7.32,21.04-9.86,23.67c-2.76,2.86-4.26-0.5-4.92-2.49" style="fill:none;stroke:black;stroke-width:3;opacity:0">
  <animate attributeType="CSS" attributeName="opacity" from="0" to="1" begin="11s" dur="1s" repeatCount="0" fill="freeze" />
</path>
<path d="M51.52,60.48c0.05,0.69,0.17,1.81-0.1,2.79c-1.99,7.37-6.73,19.1-17.54,26.67" style="fill:none;stroke:black;stroke-width:3;opacity:0">
  <animate attributeType="CSS" attributeName="opacity" from="0" to="1" begin="12s" dur="1s" repeatCount="0" fill="freeze" />
</path>
<path d="M78.78,15.64c0.03,0.8,0.13,2.11-0.06,3.23C77.47,26,74.23,39.91,67.75,49.75" style="fill:none;stroke:black;stroke-width:3;opacity:0">
  <animate attributeType="CSS" attributeName="opacity" from="0" to="1" begin="13s" dur="1s" repeatCount="0" fill="freeze" />
</path>
<path d="M77.03,35.84c0.41,0.14,1.17,0.16,1.58,0.14c4.29-0.16,13.96-1.72,18.04-2c0.73-0.05,1.19-0.01,1.38,0.03" style="fill:none;stroke:black;stroke-width:3;opacity:0">
  <animate attributeType="CSS" attributeName="opacity" from="0" to="1" begin="14s" dur="1s" repeatCount="0" fill="freeze" />
</path>
<path d="M89.68,39.93c0.47,1.39,0.72,2.38,0.23,4.92C85.47,67.9,76.47,87.23,60.73,96.5" style="fill:none;stroke:black;stroke-width:3;opacity:0">
  <animate attributeType="CSS" attributeName="opacity" from="0" to="1" begin="15s" dur="1s" repeatCount="0" fill="freeze" />
</path>
<path d="M71.5,47.4c4.69,8.37,16.21,35.73,23.2,45.15c1.34,1.81,2.2,2.11,3.3,2.31" style="fill:none;stroke:black;stroke-width:3;opacity:0">
  <animate attributeType="CSS" attributeName="opacity" from="0" to="1" begin="16s" dur="1s" repeatCount="0" fill="freeze" />
</path>
</svg>