<svg width="109px" height="109px" viewBox="0 0 px 109px" xmlns="http://www.w3.org/2000/svg" xmlns:xlink="http://www.w3.org/1999/xlink" xml:space="preserve" version="1.1"  baseProfile="full">
<path d="M40.75,14.62c0.05,0.85,0.11,1.94-0.11,3.17C39.31,25,31.94,40.57,21.5,50.25" style="fill:none;stroke:black;stroke-width:3;opacity:0">
  <animate attributeType="CSS" attributeName="opacity" from="0" to="1" begin="0s" dur="1s" repeatCount="0" fill="freeze" />
</path>
<path d="M36.97,34.99c1.28,0.36,3.69,0.65,5.62,0.36c7.41-1.1,26.66-5.1,32.96-6.04c7.61-1.14,4.94,4.44-5.06,13.44" style="fill:none;stroke:black;stroke-width:3;opacity:0">
  <animate attributeType="CSS" attributeName="opacity" from="0" to="1" begin="1s" dur="1s" repeatCount="0" fill="freeze" />
</path>
<path d="M51.37,45.88c0.35,1.52,0.31,2.66,0.06,4.33C49.85,60.57,38.06,82.1,17.5,94" style="fill:none;stroke:black;stroke-width:3;opacity:0">
  <animate attributeType="CSS" attributeName="opacity" from="0" to="1" begin="2s" dur="1s" repeatCount="0" fill="freeze" />
</path>
<path d="M51.5,58.75c5.62,5.75,20.25,19.88,30.76,28.73c2.5,2.1,5.36,4.15,8.61,4.9" style="fill:none;stroke:black;stroke-width:3;opacity:0">
  <animate attributeType="CSS" attributeName="opacity" from="0" to="1" begin="3s" dur="1s" repeatCount="0" fill="freeze" />
</path>
</svg>