<svg width="109px" height="109px" viewBox="0 0 px 109px" xmlns="http://www.w3.org/2000/svg" xmlns:xlink="http://www.w3.org/1999/xlink" xml:space="preserve" version="1.1"  baseProfile="full">
<path d="M24.85,23.98c0.07,0.84-0.25,1.65-0.63,2.38c-1.92,3.74-6.1,8.39-11.9,13.04" style="fill:none;stroke:black;stroke-width:3;opacity:0">
  <animate attributeType="CSS" attributeName="opacity" from="0" to="1" begin="0s" dur="1s" repeatCount="Indefinite" fill="freeze" />
</path>
<path d="M40.41,23.85c4.23,2.54,8.68,6.91,10.13,9.51" style="fill:none;stroke:black;stroke-width:3;opacity:0">
  <animate attributeType="CSS" attributeName="opacity" from="0" to="1" begin="1s" dur="1s" repeatCount="Indefinite" fill="freeze" />
</path>
<path d="M33.69,37.99c0.17,1.6-0.26,3.06-1.16,4.42c-4.5,6.74-12.4,15.22-22.65,21.53" style="fill:none;stroke:black;stroke-width:3;opacity:0">
  <animate attributeType="CSS" attributeName="opacity" from="0" to="1" begin="2s" dur="1s" repeatCount="Indefinite" fill="freeze" />
</path>
<path d="M35.3,44.27c4.37,2.35,9.36,5.25,12.93,9.52" style="fill:none;stroke:black;stroke-width:3;opacity:0">
  <animate attributeType="CSS" attributeName="opacity" from="0" to="1" begin="3s" dur="1s" repeatCount="Indefinite" fill="freeze" />
</path>
<path d="M17.48,66.65c0.69,0.68,1.14,1.6,1.36,2.73c0.85,4.48,1.7,9.8,2.36,15.31c0.16,1.33,0.31,2.6,0.44,3.76" style="fill:none;stroke:black;stroke-width:3;opacity:0">
  <animate attributeType="CSS" attributeName="opacity" from="0" to="1" begin="4s" dur="1s" repeatCount="Indefinite" fill="freeze" />
</path>
<path d="M19.45,68.46c7.66-1.54,16.62-3.38,22.18-4.29c3.2-0.52,4.95,0.53,4.08,3.89c-1.21,4.67-2.54,8.54-3.64,14.49" style="fill:none;stroke:black;stroke-width:3;opacity:0">
  <animate attributeType="CSS" attributeName="opacity" from="0" to="1" begin="5s" dur="1s" repeatCount="Indefinite" fill="freeze" />
</path>
<path d="M22.47,85.56c5.51-0.41,11.57-1.1,17.53-1.77c1.49-0.17,3.03-0.33,4.62-0.49" style="fill:none;stroke:black;stroke-width:3;opacity:0">
  <animate attributeType="CSS" attributeName="opacity" from="0" to="1" begin="6s" dur="1s" repeatCount="Indefinite" fill="freeze" />
</path>
<path d="M65.92,20.25c0.07,1.47,0.07,2.66-0.44,4.06c-2.61,7.19-5.61,14.82-11.23,23.95" style="fill:none;stroke:black;stroke-width:3;opacity:0">
  <animate attributeType="CSS" attributeName="opacity" from="0" to="1" begin="7s" dur="1s" repeatCount="Indefinite" fill="freeze" />
</path>
<path d="M62.17,40.54c1.53,0.43,3.42,0.04,4.91-0.38c3.61-1.01,13.74-4.29,19.1-6c5.53-1.76,2.32,4.71-2.71,10.14" style="fill:none;stroke:black;stroke-width:3;opacity:0">
  <animate attributeType="CSS" attributeName="opacity" from="0" to="1" begin="8s" dur="1s" repeatCount="Indefinite" fill="freeze" />
</path>
<path d="M66.42,49.91c0.58,0.97,0.87,2.5,0.63,3.91C65.25,64.5,60.75,81.88,45.23,91" style="fill:none;stroke:black;stroke-width:3;opacity:0">
  <animate attributeType="CSS" attributeName="opacity" from="0" to="1" begin="9s" dur="1s" repeatCount="Indefinite" fill="freeze" />
</path>
<path d="M66.83,58.93c5.12,6.09,14.06,18.06,20.93,25.42c2.12,2.27,4.74,4.65,7.01,5.84" style="fill:none;stroke:black;stroke-width:3;opacity:0">
  <animate attributeType="CSS" attributeName="opacity" from="0" to="1" begin="10s" dur="1s" repeatCount="Indefinite" fill="freeze" />
</path>
</svg>