<svg width="109px" height="109px" viewBox="0 0 px 109px" xmlns="http://www.w3.org/2000/svg" xmlns:xlink="http://www.w3.org/1999/xlink" xml:space="preserve" version="1.1"  baseProfile="full">
<path d="M12.87,22.32c1.62,0.38,4.57,0.57,6.21,0.38c8.42-0.95,18.04-2.45,27.39-3.16c2.68-0.2,4.32,0.18,5.67,0.37" style="fill:none;stroke:black;stroke-width:3;opacity:0">
  <animate attributeType="CSS" attributeName="opacity" from="0" to="1" begin="0s" dur="1s" repeatCount="0" fill="freeze" />
</path>
<path d="M16.65,32.85c0.56,0.41,0.88,0.96,0.97,1.65c0.62,2.03,1.31,5.53,1.85,8.42c0.19,1,0.35,1.96,0.49,2.84" style="fill:none;stroke:black;stroke-width:3;opacity:0">
  <animate attributeType="CSS" attributeName="opacity" from="0" to="1" begin="1s" dur="1s" repeatCount="0" fill="freeze" />
</path>
<path d="M18.75,34.28c4.65-0.96,11.62-2.38,14.17-2.62c1.1-0.1,1.76,0.61,1.6,1.22c-0.5,1.92-1.31,5.39-1.98,7.88" style="fill:none;stroke:black;stroke-width:3;opacity:0">
  <animate attributeType="CSS" attributeName="opacity" from="0" to="1" begin="2s" dur="1s" repeatCount="0" fill="freeze" />
</path>
<path d="M20.83,43.36c2.68-0.24,5.82-0.99,9.42-1.31c1.15-0.1,2.32-0.21,3.49-0.33" style="fill:none;stroke:black;stroke-width:3;opacity:0">
  <animate attributeType="CSS" attributeName="opacity" from="0" to="1" begin="3s" dur="1s" repeatCount="0" fill="freeze" />
</path>
<path d="M44,21.37c0.03,0.26,0.98,1.35,1.01,3c0.12,5.81,0.06,14.91-0.02,20.39c-0.03,1.96-0.06,3.46-0.08,4.17" style="fill:none;stroke:black;stroke-width:3;opacity:0">
  <animate attributeType="CSS" attributeName="opacity" from="0" to="1" begin="4s" dur="1s" repeatCount="0" fill="freeze" />
</path>
<path d="M9.63,54.68c1.45,0.39,4.92,0.56,6.39,0.39C25.38,54,36.5,52,47.8,50.96c2.4-0.22,3.87,0.19,5.08,0.39" style="fill:none;stroke:black;stroke-width:3;opacity:0">
  <animate attributeType="CSS" attributeName="opacity" from="0" to="1" begin="5s" dur="1s" repeatCount="0" fill="freeze" />
</path>
<path d="M13.93,64.82c0.61,0.45,0.97,1.05,1.08,1.8c0.67,2.09,1.17,5.73,1.75,8.83c0.2,1.06,0.37,2.08,0.52,3.01" style="fill:none;stroke:black;stroke-width:3;opacity:0">
  <animate attributeType="CSS" attributeName="opacity" from="0" to="1" begin="6s" dur="1s" repeatCount="0" fill="freeze" />
</path>
<path d="M16.31,66.05c5-1.02,12.81-2.25,15.54-2.51c1.2-0.11,1.91,0.66,1.74,1.32c-0.52,2-1.86,6.32-2.56,8.9" style="fill:none;stroke:black;stroke-width:3;opacity:0">
  <animate attributeType="CSS" attributeName="opacity" from="0" to="1" begin="7s" dur="1s" repeatCount="0" fill="freeze" />
</path>
<path d="M18.16,76.42c3.18-0.29,7.53-1.08,11.84-1.48c0.89-0.08,1.79-0.17,2.69-0.26" style="fill:none;stroke:black;stroke-width:3;opacity:0">
  <animate attributeType="CSS" attributeName="opacity" from="0" to="1" begin="8s" dur="1s" repeatCount="0" fill="freeze" />
</path>
<path d="M43.91,54.26c0.06,0.26,0.79,1.35,0.85,3c0.27,7.9-0.17,31.89-0.17,34.59c0,4.66-4.25-0.98-6.35-2.12" style="fill:none;stroke:black;stroke-width:3;opacity:0">
  <animate attributeType="CSS" attributeName="opacity" from="0" to="1" begin="9s" dur="1s" repeatCount="0" fill="freeze" />
</path>
<path d="M66.24,13c0.5,1.67,0.52,3.33,0.09,4.95C64.43,25.07,61,36.25,56.45,44" style="fill:none;stroke:black;stroke-width:3;opacity:0">
  <animate attributeType="CSS" attributeName="opacity" from="0" to="1" begin="10s" dur="1s" repeatCount="0" fill="freeze" />
</path>
<path d="M62.88,37.4c0.81,0.35,2.59,0.37,3.82,0.1c7.3-1.62,13.36-2.99,19.42-4.35c7.82-1.76-0.89,10.41-2.12,12.1" style="fill:none;stroke:black;stroke-width:3;opacity:0">
  <animate attributeType="CSS" attributeName="opacity" from="0" to="1" begin="11s" dur="1s" repeatCount="0" fill="freeze" />
</path>
<path d="M68,44.38c0.37,1.12,0.53,2.34,0.41,3.96C67.6,58.43,63.5,80.33,51.25,91" style="fill:none;stroke:black;stroke-width:3;opacity:0">
  <animate attributeType="CSS" attributeName="opacity" from="0" to="1" begin="12s" dur="1s" repeatCount="0" fill="freeze" />
</path>
<path d="M68.5,61c3.45,4.84,14.8,18.55,21.86,25.13c1.64,1.53,3.42,3.24,5.64,3.87" style="fill:none;stroke:black;stroke-width:3;opacity:0">
  <animate attributeType="CSS" attributeName="opacity" from="0" to="1" begin="13s" dur="1s" repeatCount="0" fill="freeze" />
</path>
</svg>