<svg width="109px" height="109px" viewBox="0 0 px 109px" xmlns="http://www.w3.org/2000/svg" xmlns:xlink="http://www.w3.org/1999/xlink" xml:space="preserve" version="1.1"  baseProfile="full">
<path d="M12.75,21.97c1,0.03,3.29,0.6,4.3,0.52C23,22,35,20.25,41.28,19.51c1.64-0.19,2.64,0.25,3.47,0.5" style="fill:none;stroke:black;stroke-width:3;opacity:0">
  <animate attributeType="CSS" attributeName="opacity" from="0" to="1" begin="0s" dur="1s" repeatCount="Indefinite" fill="freeze" />
</path>
<path d="M25.66,23.89c0.2,0.67,0.61,2.65,0.38,3.98c-1.79,10.38-4.98,22.76-14.87,33.29" style="fill:none;stroke:black;stroke-width:3;opacity:0">
  <animate attributeType="CSS" attributeName="opacity" from="0" to="1" begin="1s" dur="1s" repeatCount="Indefinite" fill="freeze" />
</path>
<path d="M26.14,40c0.26,0.05,1.89,0.5,2.64,0.36c2.47-0.45,4.7-1.28,8.93-2.05c2.49-0.46,2.91,2.23,2.29,4.81C36.61,57.26,27.75,80.75,8.61,91" style="fill:none;stroke:black;stroke-width:3;opacity:0">
  <animate attributeType="CSS" attributeName="opacity" from="0" to="1" begin="2s" dur="1s" repeatCount="Indefinite" fill="freeze" />
</path>
<path d="M19.21,56.48c2.76,1.53,7.12,6.28,7.81,8.66" style="fill:none;stroke:black;stroke-width:3;opacity:0">
  <animate attributeType="CSS" attributeName="opacity" from="0" to="1" begin="3s" dur="1s" repeatCount="Indefinite" fill="freeze" />
</path>
<path d="M67.75,13.75c1,0.75,1.5,0.75,1.5,2.5s0,7.25,0,12" style="fill:none;stroke:black;stroke-width:3;opacity:0">
  <animate attributeType="CSS" attributeName="opacity" from="0" to="1" begin="4s" dur="1s" repeatCount="Indefinite" fill="freeze" />
</path>
<path d="M48,29.7c1.22,0.33,2.64,0.38,3.85,0.33c6.87-0.28,26.75-3.53,37.13-3.77c2.03-0.05,3.25,0.16,4.26,0.32" style="fill:none;stroke:black;stroke-width:3;opacity:0">
  <animate attributeType="CSS" attributeName="opacity" from="0" to="1" begin="5s" dur="1s" repeatCount="Indefinite" fill="freeze" />
</path>
<path d="M54.5,35.5c3.88,6.25,5.65,12.63,6,16.75" style="fill:none;stroke:black;stroke-width:3;opacity:0">
  <animate attributeType="CSS" attributeName="opacity" from="0" to="1" begin="6s" dur="1s" repeatCount="Indefinite" fill="freeze" />
</path>
<path d="M82.08,31c0.69,0.69,0.77,1.05,0.69,1.62c-0.55,3.93-5.14,15.87-6.52,18.88" style="fill:none;stroke:black;stroke-width:3;opacity:0">
  <animate attributeType="CSS" attributeName="opacity" from="0" to="1" begin="7s" dur="1s" repeatCount="Indefinite" fill="freeze" />
</path>
<path d="M43.75,56.3c1.46,0.39,3.17,0.54,4.62,0.39C64.25,55,76.75,54,95.15,53.2c2.43-0.11,3.89,0.19,5.1,0.38" style="fill:none;stroke:black;stroke-width:3;opacity:0">
  <animate attributeType="CSS" attributeName="opacity" from="0" to="1" begin="8s" dur="1s" repeatCount="Indefinite" fill="freeze" />
</path>
<path d="M50.25,66.64c0.42,0.39,1.35,1.72,1.54,2.21c1.46,3.9,3.71,20.65,4.71,27.65" style="fill:none;stroke:black;stroke-width:3;opacity:0">
  <animate attributeType="CSS" attributeName="opacity" from="0" to="1" begin="9s" dur="1s" repeatCount="Indefinite" fill="freeze" />
</path>
<path d="M52.38,68.78c8.87-1.28,28.12-2.83,33.06-3.29c2.56-0.24,3.81,0.76,3.63,2.71c-0.43,4.66-3.32,17.05-4.91,23.35" style="fill:none;stroke:black;stroke-width:3;opacity:0">
  <animate attributeType="CSS" attributeName="opacity" from="0" to="1" begin="10s" dur="1s" repeatCount="Indefinite" fill="freeze" />
</path>
<path d="M56.7,94.08c5.8-0.58,19.3-1.58,29.27-1.97" style="fill:none;stroke:black;stroke-width:3;opacity:0">
  <animate attributeType="CSS" attributeName="opacity" from="0" to="1" begin="11s" dur="1s" repeatCount="Indefinite" fill="freeze" />
</path>
</svg>