<svg width="109px" height="109px" viewBox="0 0 px 109px" xmlns="http://www.w3.org/2000/svg" xmlns:xlink="http://www.w3.org/1999/xlink" xml:space="preserve" version="1.1"  baseProfile="full">
<path d="M35.3,18.98c1.1,1.06,1.65,4.6,1.36,7.38c-1.41,13.14-6.41,37.89-9.21,48.52c-1.03,3.89,0.48,4.92,2.57,4.92c14.23-0.04,36.73,2.71,52.48,9.48" style="fill:none;stroke:black;stroke-width:3;opacity:0">
  <animate attributeType="CSS" attributeName="opacity" from="0" to="1" begin="0s" dur="1s" repeatCount="Indefinite" fill="freeze" />
</path>
<path d="M38.15,21.27c9.6-1.02,31.36-4.63,36.44-5.02c3.91-0.29,6.42,2.07,6.1,5.7C79,41.5,74,74.75,66.25,93c-3.34,7.86-9.5,1.75-11,0" style="fill:none;stroke:black;stroke-width:3;opacity:0">
  <animate attributeType="CSS" attributeName="opacity" from="0" to="1" begin="1s" dur="1s" repeatCount="Indefinite" fill="freeze" />
</path>
<path d="M55.46,22.82c0.51,1.17,1.41,3.79,1.28,5.27C55.75,39.25,53,62,48.07,80.71" style="fill:none;stroke:black;stroke-width:3;opacity:0">
  <animate attributeType="CSS" attributeName="opacity" from="0" to="1" begin="2s" dur="1s" repeatCount="Indefinite" fill="freeze" />
</path>
<path d="M15.13,50.83c1.13,0.65,3.2,0.72,4.34,0.65c11.77-0.75,49.04-2.96,70.71-3.13c1.89-0.01,3.02,0.31,3.96,0.64" style="fill:none;stroke:black;stroke-width:3;opacity:0">
  <animate attributeType="CSS" attributeName="opacity" from="0" to="1" begin="3s" dur="1s" repeatCount="Indefinite" fill="freeze" />
</path>
</svg>