<svg width="109px" height="109px" viewBox="0 0 px 109px" xmlns="http://www.w3.org/2000/svg" xmlns:xlink="http://www.w3.org/1999/xlink" xml:space="preserve" version="1.1"  baseProfile="full">
<path d="M36.05,22.22c0.82,0.4,2.33,0.56,3.16,0.54c5.95-0.15,29.17-3.64,34.3-3.87c1.37-0.06,1.94,0.04,2.66,0.14" style="fill:none;stroke:black;stroke-width:3;opacity:0">
  <animate attributeType="CSS" attributeName="opacity" from="0" to="1" begin="0s" dur="1s" repeatCount="0" fill="freeze" />
</path>
<path d="M34.09,33.55c0.83,0.31,2.33,0.45,3.16,0.45c5.94-0.01,29.16-3.45,34.29-3.53c1.37-0.02,2.38,0.09,3.1,0.17" style="fill:none;stroke:black;stroke-width:3;opacity:0">
  <animate attributeType="CSS" attributeName="opacity" from="0" to="1" begin="1s" dur="1s" repeatCount="0" fill="freeze" />
</path>
<path d="M19.13,47.77c1.29,0.35,3.65,0.63,4.93,0.57c11.94-0.52,48.19-5.06,60.15-5.03c2.13,0.01,3.79-0.15,5.29,0.23" style="fill:none;stroke:black;stroke-width:3;opacity:0">
  <animate attributeType="CSS" attributeName="opacity" from="0" to="1" begin="2s" dur="1s" repeatCount="0" fill="freeze" />
</path>
<path d="M52.67,10.22c0.67,0.28,2.21,2.41,2.21,2.9c0,6.68,0.31,24.63,0.37,32.13" style="fill:none;stroke:black;stroke-width:3;opacity:0">
  <animate attributeType="CSS" attributeName="opacity" from="0" to="1" begin="3s" dur="1s" repeatCount="0" fill="freeze" />
</path>
<path d="M39.19,55.98c1.01,0.68,1.15,2.46,0.75,4.21C38,68.75,34.75,74.5,30.41,80.33c-1.59,2.13-0.48,3.64,1.45,3.46c15.89-1.54,39.64,4.96,49.89,16.23" style="fill:none;stroke:black;stroke-width:3;opacity:0">
  <animate attributeType="CSS" attributeName="opacity" from="0" to="1" begin="4s" dur="1s" repeatCount="0" fill="freeze" />
</path>
<path d="M41.15,56.67c1.35-0.17,3.11,0.33,3.8,0.19c10.3-2.11,20.74-3.38,24.71-3.62c3.06-0.18,5.02,1.29,4.78,3.55c-1.32,12.15-3.44,26.88-9.8,38.68c-1.17,2.18-3.72,3.73-5.76,2.25c-0.82-0.59-1.67-1.16-2.85-2.25" style="fill:none;stroke:black;stroke-width:3;opacity:0">
  <animate attributeType="CSS" attributeName="opacity" from="0" to="1" begin="5s" dur="1s" repeatCount="0" fill="freeze" />
</path>
<path d="M55.22,57.82c0.41,0.56,1.13,1.83,1.02,2.54c-0.79,5.37-2.99,12.89-6.92,24.35" style="fill:none;stroke:black;stroke-width:3;opacity:0">
  <animate attributeType="CSS" attributeName="opacity" from="0" to="1" begin="6s" dur="1s" repeatCount="0" fill="freeze" />
</path>
<path d="M10.63,72.83c1.13,0.65,3.2,0.72,4.34,0.65c11.77-0.75,55.04-3.96,76.71-4.13c1.89-0.01,3.02,0.31,3.96,0.64" style="fill:none;stroke:black;stroke-width:3;opacity:0">
  <animate attributeType="CSS" attributeName="opacity" from="0" to="1" begin="7s" dur="1s" repeatCount="0" fill="freeze" />
</path>
</svg>