<svg width="109px" height="109px" viewBox="0 0 px 109px" xmlns="http://www.w3.org/2000/svg" xmlns:xlink="http://www.w3.org/1999/xlink" xml:space="preserve" version="1.1"  baseProfile="full">
<path d="M21.89,17.96c1.98,0.92,4.61,1.29,7.49,0.96c12.78-1.48,33.28-3.93,41.51-4.66c4.36-0.39,6.23,1.61,5.37,4.65c-1.32,4.67-2.62,8.33-4.01,11.59" style="fill:none;stroke:black;stroke-width:3;opacity:0">
  <animate attributeType="CSS" attributeName="opacity" from="0" to="1" begin="0s" dur="1s" repeatCount="0" fill="freeze" />
</path>
<path d="M25.35,36.27c9.44-0.95,33.85-3.79,45.27-4.92c1.98-0.2,4.5-0.61,6.13-0.35" style="fill:none;stroke:black;stroke-width:3;opacity:0">
  <animate attributeType="CSS" attributeName="opacity" from="0" to="1" begin="1s" dur="1s" repeatCount="0" fill="freeze" />
</path>
<path d="M23,18.75c0.69,0.69,1.25,2.12,1.25,3.25c0,2.25-0.25,62.75-0.25,66.25s0.25,4.5,3.5,2S38.75,80,40.75,78.5" style="fill:none;stroke:black;stroke-width:3;opacity:0">
  <animate attributeType="CSS" attributeName="opacity" from="0" to="1" begin="2s" dur="1s" repeatCount="0" fill="freeze" />
</path>
<path d="M27.73,55.8c1.65-0.21,3.64-0.46,5.88-0.75c13.44-1.7,33.41-4.24,46.41-6.28c1.85-0.29,3.99-0.53,5.77-0.12" style="fill:none;stroke:black;stroke-width:3;opacity:0">
  <animate attributeType="CSS" attributeName="opacity" from="0" to="1" begin="3s" dur="1s" repeatCount="0" fill="freeze" />
</path>
<path d="M52.75,36.25c1.12,1.12,2.13,3.39,2.39,5.15c3.48,23.48,14.11,41.98,32.94,52.02c8.09,4.32,6.17-1.92,5.95-6.36" style="fill:none;stroke:black;stroke-width:3;opacity:0">
  <animate attributeType="CSS" attributeName="opacity" from="0" to="1" begin="4s" dur="1s" repeatCount="0" fill="freeze" />
</path>
</svg>