<svg width="109px" height="109px" viewBox="0 0 px 109px" xmlns="http://www.w3.org/2000/svg" xmlns:xlink="http://www.w3.org/1999/xlink" xml:space="preserve" version="1.1"  baseProfile="full">
<path d="M18.63,17c4.28,1.6,11.05,6.6,12.12,9.09" style="fill:none;stroke:black;stroke-width:3;opacity:0">
  <animate attributeType="CSS" attributeName="opacity" from="0" to="1" begin="0s" dur="1s" repeatCount="Indefinite" fill="freeze" />
</path>
<path d="M13.5,42c4.24,1.59,10.94,6.53,12,9" style="fill:none;stroke:black;stroke-width:3;opacity:0">
  <animate attributeType="CSS" attributeName="opacity" from="0" to="1" begin="1s" dur="1s" repeatCount="Indefinite" fill="freeze" />
</path>
<path d="M12.75,89.23c1.71,1.27,3.78,1.32,4.86-0.25C20.75,84.42,28.39,68.83,31.25,63" style="fill:none;stroke:black;stroke-width:3;opacity:0">
  <animate attributeType="CSS" attributeName="opacity" from="0" to="1" begin="2s" dur="1s" repeatCount="Indefinite" fill="freeze" />
</path>
<path d="M39.86,25.24c1.64,0.26,5.27,0.21,6.53,0.05c13.7-1.75,26.23-2.82,40.25-3.57c1.91-0.1,3.65,0.15,5.23,0.76" style="fill:none;stroke:black;stroke-width:3;opacity:0">
  <animate attributeType="CSS" attributeName="opacity" from="0" to="1" begin="3s" dur="1s" repeatCount="Indefinite" fill="freeze" />
</path>
<path d="M43.64,55.87c0.79,0.52,3.42,0.31,4.23,0.23c8.46-0.91,23.48-2.23,33.41-3.15c0.99-0.09,3.17-0.21,4.65,0.24" style="fill:none;stroke:black;stroke-width:3;opacity:0">
  <animate attributeType="CSS" attributeName="opacity" from="0" to="1" begin="4s" dur="1s" repeatCount="Indefinite" fill="freeze" />
</path>
<path d="M33.59,89.46c1.66,0.33,4.58,0.55,7.21,0.47c12.46-0.37,33.69-3.18,53.99-3.19c2.08,0,4.57,0.38,5.61,0.73" style="fill:none;stroke:black;stroke-width:3;opacity:0">
  <animate attributeType="CSS" attributeName="opacity" from="0" to="1" begin="5s" dur="1s" repeatCount="Indefinite" fill="freeze" />
</path>
<path d="M62.61,25.86c1.74,2.33,1.74,3.73,1.74,5.6c0,13.06-0.02,35.21-0.02,56.14" style="fill:none;stroke:black;stroke-width:3;opacity:0">
  <animate attributeType="CSS" attributeName="opacity" from="0" to="1" begin="6s" dur="1s" repeatCount="Indefinite" fill="freeze" />
</path>
</svg>