<svg width="109px" height="109px" viewBox="0 0 px 109px" xmlns="http://www.w3.org/2000/svg" xmlns:xlink="http://www.w3.org/1999/xlink" xml:space="preserve" version="1.1"  baseProfile="full">
<path d="M21.88,17.38c4.04,1.59,9.86,5.99,10.88,8.47" style="fill:none;stroke:black;stroke-width:3;opacity:0">
  <animate attributeType="CSS" attributeName="opacity" from="0" to="1" begin="0s" dur="1s" repeatCount="Indefinite" fill="freeze" />
</path>
<path d="M16.62,40c4.1,1.19,10.6,4.9,11.62,6.75" style="fill:none;stroke:black;stroke-width:3;opacity:0">
  <animate attributeType="CSS" attributeName="opacity" from="0" to="1" begin="1s" dur="1s" repeatCount="Indefinite" fill="freeze" />
</path>
<path d="M15.44,85.78c1.31,0.55,2.65,0.3,3.43-0.96c2.97-4.74,5.93-10.53,8.63-16.57" style="fill:none;stroke:black;stroke-width:3;opacity:0">
  <animate attributeType="CSS" attributeName="opacity" from="0" to="1" begin="2s" dur="1s" repeatCount="Indefinite" fill="freeze" />
</path>
<path d="M41.22,23.13c2.78,0.62,6.17,0.35,8.78,0.04c9.61-1.15,28.85-3.66,39-4.6c2.6-0.24,4.98-0.43,7.53,0.22" style="fill:none;stroke:black;stroke-width:3;opacity:0">
  <animate attributeType="CSS" attributeName="opacity" from="0" to="1" begin="3s" dur="1s" repeatCount="Indefinite" fill="freeze" />
</path>
<path d="M43.08,43.57c0.8,0.8,1.4,1.87,1.48,2.92c0.8,3.45,1.65,9.58,2.32,14.89c0.23,1.78,0.43,3.46,0.61,4.92" style="fill:none;stroke:black;stroke-width:3;opacity:0">
  <animate attributeType="CSS" attributeName="opacity" from="0" to="1" begin="4s" dur="1s" repeatCount="Indefinite" fill="freeze" />
</path>
<path d="M45.4,45.55c6.98-1.34,14.04-2.86,18.23-3.5c2.6-0.4,4.12,1.07,3.78,3.33c-0.6,4.04-1.04,6.74-2.22,13.1" style="fill:none;stroke:black;stroke-width:3;opacity:0">
  <animate attributeType="CSS" attributeName="opacity" from="0" to="1" begin="5s" dur="1s" repeatCount="Indefinite" fill="freeze" />
</path>
<path d="M48.39,61.83c3.73-0.44,9.92-1.47,15.49-2.29c1.29-0.19,2.55-0.37,3.74-0.53" style="fill:none;stroke:black;stroke-width:3;opacity:0">
  <animate attributeType="CSS" attributeName="opacity" from="0" to="1" begin="6s" dur="1s" repeatCount="Indefinite" fill="freeze" />
</path>
<path d="M82.66,22.34c1.19,1.19,1.89,2.79,1.89,4.68c0,13.68,0.05,55.82,0.05,60.48c0,9-8.21,0.91-9.39-0.27" style="fill:none;stroke:black;stroke-width:3;opacity:0">
  <animate attributeType="CSS" attributeName="opacity" from="0" to="1" begin="7s" dur="1s" repeatCount="Indefinite" fill="freeze" />
</path>
</svg>