<svg width="109px" height="109px" viewBox="0 0 px 109px" xmlns="http://www.w3.org/2000/svg" xmlns:xlink="http://www.w3.org/1999/xlink" xml:space="preserve" version="1.1"  baseProfile="full">
<path d="M22.38,15.75c3.31,1.47,8.54,6.05,9.37,8.34" style="fill:none;stroke:black;stroke-width:3;opacity:0">
  <animate attributeType="CSS" attributeName="opacity" from="0" to="1" begin="0s" dur="1s" repeatCount="Indefinite" fill="freeze" />
</path>
<path d="M14.75,37c3.62,1.41,9.34,5.8,10.25,8" style="fill:none;stroke:black;stroke-width:3;opacity:0">
  <animate attributeType="CSS" attributeName="opacity" from="0" to="1" begin="1s" dur="1s" repeatCount="Indefinite" fill="freeze" />
</path>
<path d="M13.25,89c1.52,0.25,2.96-0.26,3.88-1.65c4.34-6.6,8.68-14.67,12.62-23.09" style="fill:none;stroke:black;stroke-width:3;opacity:0">
  <animate attributeType="CSS" attributeName="opacity" from="0" to="1" begin="2s" dur="1s" repeatCount="Indefinite" fill="freeze" />
</path>
<path d="M41.5,42.08c0.96,0.96,1.8,2.11,1.85,3.15c0.6,12.27,1.17,24.52,1.97,39.14c0.07,1.34,0.15,2.71,0.22,4.09" style="fill:none;stroke:black;stroke-width:3;opacity:0">
  <animate attributeType="CSS" attributeName="opacity" from="0" to="1" begin="3s" dur="1s" repeatCount="Indefinite" fill="freeze" />
</path>
<path d="M44.3,44.1c14.86-1.95,33-3.84,43.57-4.76c5.05-0.44,7.43,0.86,6.92,6.16c-0.78,8.1-2.56,24.34-4.42,35.89c-0.32,1.97-0.63,3.8-0.95,5.44" style="fill:none;stroke:black;stroke-width:3;opacity:0">
  <animate attributeType="CSS" attributeName="opacity" from="0" to="1" begin="4s" dur="1s" repeatCount="Indefinite" fill="freeze" />
</path>
<path d="M65.56,16.61c1.23,1.23,1.84,2.91,1.84,4.35c0.03,14.16-0.06,58.13-0.06,61.83" style="fill:none;stroke:black;stroke-width:3;opacity:0">
  <animate attributeType="CSS" attributeName="opacity" from="0" to="1" begin="5s" dur="1s" repeatCount="Indefinite" fill="freeze" />
</path>
<path d="M45.42,63.12c9.08-0.99,35.96-3.24,46.81-3.53" style="fill:none;stroke:black;stroke-width:3;opacity:0">
  <animate attributeType="CSS" attributeName="opacity" from="0" to="1" begin="6s" dur="1s" repeatCount="Indefinite" fill="freeze" />
</path>
<path d="M46.49,85.11c11.14-0.59,29.11-2.05,42.55-2.27" style="fill:none;stroke:black;stroke-width:3;opacity:0">
  <animate attributeType="CSS" attributeName="opacity" from="0" to="1" begin="7s" dur="1s" repeatCount="Indefinite" fill="freeze" />
</path>
</svg>