<svg width="109px" height="109px" viewBox="0 0 px 109px" xmlns="http://www.w3.org/2000/svg" xmlns:xlink="http://www.w3.org/1999/xlink" xml:space="preserve" version="1.1"  baseProfile="full">
<path d="M50.72,12.49c0.03,0.76,0.02,1.47-0.16,1.83c-1.31,2.68-2.68,5.18-6.68,9.93" style="fill:none;stroke:black;stroke-width:3;opacity:0">
  <animate attributeType="CSS" attributeName="opacity" from="0" to="1" begin="0s" dur="1s" repeatCount="Indefinite" fill="freeze" />
</path>
<path d="M32.2,25.73c0.78,0.78,1.15,2.17,1.29,3.01c0.63,3.88,1.55,12.6,2.6,20.48c0.31,2.3,0.53,4.15,0.59,5.11" style="fill:none;stroke:black;stroke-width:3;opacity:0">
  <animate attributeType="CSS" attributeName="opacity" from="0" to="1" begin="1s" dur="1s" repeatCount="Indefinite" fill="freeze" />
</path>
<path d="M33.88,27.42c7.99-1.17,30.49-4.17,38.63-4.6c2.77-0.15,4.24,1.68,3.74,4.18c-0.24,1.21-1.4,8.74-3.3,18.99c-0.23,1.22-0.71,2.48-0.95,3.76" style="fill:none;stroke:black;stroke-width:3;opacity:0">
  <animate attributeType="CSS" attributeName="opacity" from="0" to="1" begin="2s" dur="1s" repeatCount="Indefinite" fill="freeze" />
</path>
<path d="M35.75,38.5C51.25,37,61.25,35.75,74,35" style="fill:none;stroke:black;stroke-width:3;opacity:0">
  <animate attributeType="CSS" attributeName="opacity" from="0" to="1" begin="3s" dur="1s" repeatCount="Indefinite" fill="freeze" />
</path>
<path d="M37.51,51.1C48.5,50,61.83,48.45,71.25,48" style="fill:none;stroke:black;stroke-width:3;opacity:0">
  <animate attributeType="CSS" attributeName="opacity" from="0" to="1" begin="4s" dur="1s" repeatCount="Indefinite" fill="freeze" />
</path>
<path d="M52.68,52.67c0.82,0.82,1.42,2.08,1.42,3.88c0,14.2,0.01,28.08,0.01,35.1c0,6.62-5.79,1.12-7.87-0.44" style="fill:none;stroke:black;stroke-width:3;opacity:0">
  <animate attributeType="CSS" attributeName="opacity" from="0" to="1" begin="5s" dur="1s" repeatCount="Indefinite" fill="freeze" />
</path>
<path d="M21.69,68.21c1.36,0.21,2.91,0.46,4.31,0.17c3.63-0.76,7.25-2.13,11.41-3.4c2.31-0.71,4.1,1.14,3.4,3.02c-3.18,8.5-13.31,20.38-24.56,26.75" style="fill:none;stroke:black;stroke-width:3;opacity:0">
  <animate attributeType="CSS" attributeName="opacity" from="0" to="1" begin="6s" dur="1s" repeatCount="Indefinite" fill="freeze" />
</path>
<path d="M79,55c0,0.88-0.25,1.62-0.97,2.32C73.14,62.01,68,64.88,60.5,69" style="fill:none;stroke:black;stroke-width:3;opacity:0">
  <animate attributeType="CSS" attributeName="opacity" from="0" to="1" begin="7s" dur="1s" repeatCount="Indefinite" fill="freeze" />
</path>
<path d="M55.85,66.92C65.38,75,73,81.62,82.92,88.29c2.77,1.86,4.83,3.33,7.45,4.33" style="fill:none;stroke:black;stroke-width:3;opacity:0">
  <animate attributeType="CSS" attributeName="opacity" from="0" to="1" begin="8s" dur="1s" repeatCount="Indefinite" fill="freeze" />
</path>
</svg>