<svg width="109px" height="109px" viewBox="0 0 px 109px" xmlns="http://www.w3.org/2000/svg" xmlns:xlink="http://www.w3.org/1999/xlink" xml:space="preserve" version="1.1"  baseProfile="full">
<path d="M19.13,16.5c3.92,1.96,10.13,8.05,11.12,11.09" style="fill:none;stroke:black;stroke-width:3;opacity:0">
  <animate attributeType="CSS" attributeName="opacity" from="0" to="1" begin="0s" dur="1s" repeatCount="0" fill="freeze" />
</path>
<path d="M13.75,42.75C17.72,44.56,24.01,50.19,25,53" style="fill:none;stroke:black;stroke-width:3;opacity:0">
  <animate attributeType="CSS" attributeName="opacity" from="0" to="1" begin="1s" dur="1s" repeatCount="0" fill="freeze" />
</path>
<path d="M11.75,88.23c1.71,1.27,3.78,1.32,4.86-0.25c3.14-4.57,9.79-14.66,12.64-20.49" style="fill:none;stroke:black;stroke-width:3;opacity:0">
  <animate attributeType="CSS" attributeName="opacity" from="0" to="1" begin="2s" dur="1s" repeatCount="0" fill="freeze" />
</path>
<path d="M82.69,15c0.11,0.35,0.42,1.02-0.22,1.42c-7.92,5-19.62,9.59-40.26,13.62" style="fill:none;stroke:black;stroke-width:3;opacity:0">
  <animate attributeType="CSS" attributeName="opacity" from="0" to="1" begin="3s" dur="1s" repeatCount="0" fill="freeze" />
</path>
<path d="M64.03,31.33c0.87,0.92,1.54,1.99,1.54,5.02c0,3.15-0.02,4.19-0.02,9.15" style="fill:none;stroke:black;stroke-width:3;opacity:0">
  <animate attributeType="CSS" attributeName="opacity" from="0" to="1" begin="4s" dur="1s" repeatCount="0" fill="freeze" />
</path>
<path d="M40.62,48.5c0.89,0.45,2.2,0.81,3.74,0.7c6.13-0.44,38.14-4.79,40.41-5.2c4.11-0.75,4.99,2,2.2,4.75c-12.04,11.85-26.59,21.5-44.62,32" style="fill:none;stroke:black;stroke-width:3;opacity:0">
  <animate attributeType="CSS" attributeName="opacity" from="0" to="1" begin="5s" dur="1s" repeatCount="0" fill="freeze" />
</path>
<path d="M35.25,80.91c3.75-0.16,5.98,0.41,9.74,1.07c5.76,1.01,21.89,6.72,25.44,8.2C80.75,94.5,86.25,95.75,93,96.52" style="fill:none;stroke:black;stroke-width:3;opacity:0">
  <animate attributeType="CSS" attributeName="opacity" from="0" to="1" begin="6s" dur="1s" repeatCount="0" fill="freeze" />
</path>
</svg>