<svg width="109px" height="109px" viewBox="0 0 px 109px" xmlns="http://www.w3.org/2000/svg" xmlns:xlink="http://www.w3.org/1999/xlink" xml:space="preserve" version="1.1"  baseProfile="full">
<path d="M19.38,16.25c4.01,1.56,10.36,6.41,11.37,8.84" style="fill:none;stroke:black;stroke-width:3;opacity:0">
  <animate attributeType="CSS" attributeName="opacity" from="0" to="1" begin="0s" dur="1s" repeatCount="Indefinite" fill="freeze" />
</path>
<path d="M15.5,41c4.06,1.5,10.48,6.17,11.5,8.5" style="fill:none;stroke:black;stroke-width:3;opacity:0">
  <animate attributeType="CSS" attributeName="opacity" from="0" to="1" begin="1s" dur="1s" repeatCount="Indefinite" fill="freeze" />
</path>
<path d="M14.75,86.23c1.71,1.27,3.78,1.32,4.86-0.25c3.14-4.57,9.79-16.16,12.64-21.99" style="fill:none;stroke:black;stroke-width:3;opacity:0">
  <animate attributeType="CSS" attributeName="opacity" from="0" to="1" begin="2s" dur="1s" repeatCount="Indefinite" fill="freeze" />
</path>
<path d="M39.95,21.73c1.06,0.39,4.74,0.43,5.8,0.39c13.96-0.47,28.82-2.7,45.47-2.93c1.76-0.02,3.4,0.19,4.28,0.39" style="fill:none;stroke:black;stroke-width:3;opacity:0">
  <animate attributeType="CSS" attributeName="opacity" from="0" to="1" begin="3s" dur="1s" repeatCount="Indefinite" fill="freeze" />
</path>
<path d="M42.2,39.38c0.26,0.95,1.09,2.01,1.14,3.25c0.35,9.04,0.12,32.17,0.61,49.28" style="fill:none;stroke:black;stroke-width:3;opacity:0">
  <animate attributeType="CSS" attributeName="opacity" from="0" to="1" begin="4s" dur="1s" repeatCount="Indefinite" fill="freeze" />
</path>
<path d="M43.71,41.67c11.84-1.52,35.24-3.69,43.32-3.92c3.34-0.1,4.61,0.68,4.43,4.41C91,52,91.25,76.75,90.53,92.88" style="fill:none;stroke:black;stroke-width:3;opacity:0">
  <animate attributeType="CSS" attributeName="opacity" from="0" to="1" begin="5s" dur="1s" repeatCount="Indefinite" fill="freeze" />
</path>
<path d="M57.79,24.6c0.4,1.15,0.75,2.17,0.68,3.76c-0.7,14.3-2.01,34.21-10.19,39.68" style="fill:none;stroke:black;stroke-width:3;opacity:0">
  <animate attributeType="CSS" attributeName="opacity" from="0" to="1" begin="6s" dur="1s" repeatCount="Indefinite" fill="freeze" />
</path>
<path d="M71.61,23.27c0.69,1.1,1.29,2.4,1.29,4.09c0,14.82-0.33,25.65-0.33,30.14c0,5.76,0.78,6.93,6.03,6.93c4.45,0,8.88-1.16,9.13-1.5" style="fill:none;stroke:black;stroke-width:3;opacity:0">
  <animate attributeType="CSS" attributeName="opacity" from="0" to="1" begin="7s" dur="1s" repeatCount="Indefinite" fill="freeze" />
</path>
<path d="M44.08,89.74c9.93-0.54,34.41-1.76,46.49-1.99" style="fill:none;stroke:black;stroke-width:3;opacity:0">
  <animate attributeType="CSS" attributeName="opacity" from="0" to="1" begin="8s" dur="1s" repeatCount="Indefinite" fill="freeze" />
</path>
</svg>