<svg width="109px" height="109px" viewBox="0 0 px 109px" xmlns="http://www.w3.org/2000/svg" xmlns:xlink="http://www.w3.org/1999/xlink" xml:space="preserve" version="1.1"  baseProfile="full">
<path d="M18.13,17c4.28,1.78,11.05,7.32,12.12,10.09" style="fill:none;stroke:black;stroke-width:3;opacity:0">
  <animate attributeType="CSS" attributeName="opacity" from="0" to="1" begin="0s" dur="1s" repeatCount="0" fill="freeze" />
</path>
<path d="M13.5,43.5c4.24,1.85,10.94,7.62,12,10.5" style="fill:none;stroke:black;stroke-width:3;opacity:0">
  <animate attributeType="CSS" attributeName="opacity" from="0" to="1" begin="1s" dur="1s" repeatCount="0" fill="freeze" />
</path>
<path d="M13.75,88.73c1.71,1.27,3.78,1.32,4.86-0.25c3.14-4.57,8.29-13.66,11.14-19.49" style="fill:none;stroke:black;stroke-width:3;opacity:0">
  <animate attributeType="CSS" attributeName="opacity" from="0" to="1" begin="2s" dur="1s" repeatCount="0" fill="freeze" />
</path>
<path d="M49.99,18.12c0.29,1,0.83,2.63,0.68,4.07c-0.75,7.08-6.17,34.07-10.86,43.02c-0.85,1.62,0.3,2.42,0.68,2.52c9.27,2.53,15.44,9.78,19.69,20.06" style="fill:none;stroke:black;stroke-width:3;opacity:0">
  <animate attributeType="CSS" attributeName="opacity" from="0" to="1" begin="3s" dur="1s" repeatCount="0" fill="freeze" />
</path>
<path d="M61.59,32.89c0.24,1.58,0.62,4.27,0.3,6.32C59.3,55.8,51.35,79.91,32.83,92.25" style="fill:none;stroke:black;stroke-width:3;opacity:0">
  <animate attributeType="CSS" attributeName="opacity" from="0" to="1" begin="4s" dur="1s" repeatCount="0" fill="freeze" />
</path>
<path d="M33.5,44.98c0.56,0.77,1.3,1.32,2.79,1.14c1.6-0.2,18.26-3.56,27.39-5.49" style="fill:none;stroke:black;stroke-width:3;opacity:0">
  <animate attributeType="CSS" attributeName="opacity" from="0" to="1" begin="5s" dur="1s" repeatCount="0" fill="freeze" />
</path>
<path d="M70.77,31.27c0.36,0.75,0.72,1.38,0.87,2.32c1.23,7.47,0.15,40.42,0.37,56.11" style="fill:none;stroke:black;stroke-width:3;opacity:0">
  <animate attributeType="CSS" attributeName="opacity" from="0" to="1" begin="6s" dur="1s" repeatCount="0" fill="freeze" />
</path>
<path d="M71.72,33.48c8.11-1.2,14.28-2.23,20.29-2.98c1.55-0.19,3.28,1.62,3.06,3.73c-0.9,8.72-3.67,37-4.8,51.16" style="fill:none;stroke:black;stroke-width:3;opacity:0">
  <animate attributeType="CSS" attributeName="opacity" from="0" to="1" begin="7s" dur="1s" repeatCount="0" fill="freeze" />
</path>
<path d="M72.18,86.71c6.58-0.86,14.82-1.21,21.04-1.38" style="fill:none;stroke:black;stroke-width:3;opacity:0">
  <animate attributeType="CSS" attributeName="opacity" from="0" to="1" begin="8s" dur="1s" repeatCount="0" fill="freeze" />
</path>
</svg>