<svg width="109px" height="109px" viewBox="0 0 px 109px" xmlns="http://www.w3.org/2000/svg" xmlns:xlink="http://www.w3.org/1999/xlink" xml:space="preserve" version="1.1"  baseProfile="full">
<path d="M18.38,16.25c4.37,2,11.27,8.23,12.37,11.34" style="fill:none;stroke:black;stroke-width:3;opacity:0">
  <animate attributeType="CSS" attributeName="opacity" from="0" to="1" begin="0s" dur="1s" repeatCount="0" fill="freeze" />
</path>
<path d="M13.25,43.25C18.1,45.06,25.79,50.69,27,53.5" style="fill:none;stroke:black;stroke-width:3;opacity:0">
  <animate attributeType="CSS" attributeName="opacity" from="0" to="1" begin="1s" dur="1s" repeatCount="0" fill="freeze" />
</path>
<path d="M13.75,88.23c1.9,1.27,4.18,1.32,5.38-0.25c3.48-4.57,6.96-10.16,10.12-15.99" style="fill:none;stroke:black;stroke-width:3;opacity:0">
  <animate attributeType="CSS" attributeName="opacity" from="0" to="1" begin="2s" dur="1s" repeatCount="0" fill="freeze" />
</path>
<path d="M61.92,12c0.06,1.05-0.21,2.79-0.62,4.2C58.42,26,49.12,41.22,36.82,53.43" style="fill:none;stroke:black;stroke-width:3;opacity:0">
  <animate attributeType="CSS" attributeName="opacity" from="0" to="1" begin="3s" dur="1s" repeatCount="0" fill="freeze" />
</path>
<path d="M61.08,17.08c4.62,6.27,24.56,26.73,29.66,31.32c1.73,1.56,3.96,2.22,5.69,2.67" style="fill:none;stroke:black;stroke-width:3;opacity:0">
  <animate attributeType="CSS" attributeName="opacity" from="0" to="1" begin="4s" dur="1s" repeatCount="0" fill="freeze" />
</path>
<path d="M47.05,52.28c0.69,0.34,3.93,0.38,4.63,0.34c7.23-0.39,17.82-2.12,25.01-2.69c1.16-0.09,2.83,0.16,3.42,0.33" style="fill:none;stroke:black;stroke-width:3;opacity:0">
  <animate attributeType="CSS" attributeName="opacity" from="0" to="1" begin="5s" dur="1s" repeatCount="0" fill="freeze" />
</path>
<path d="M44.59,67.33c0.47,0.59,1.53,2.01,1.65,2.79c1.56,10.15,1.74,18.95,2.8,27.41" style="fill:none;stroke:black;stroke-width:3;opacity:0">
  <animate attributeType="CSS" attributeName="opacity" from="0" to="1" begin="6s" dur="1s" repeatCount="0" fill="freeze" />
</path>
<path d="M45.81,68.96c13.32-1.66,27.54-2.1,34.19-2.9c2.43-0.29,3.89,1.74,3.54,3.46c-1.44,7.13-2.79,12.24-4.76,23.19" style="fill:none;stroke:black;stroke-width:3;opacity:0">
  <animate attributeType="CSS" attributeName="opacity" from="0" to="1" begin="7s" dur="1s" repeatCount="0" fill="freeze" />
</path>
<path d="M49.25,94.81c7.5-0.56,22.32-1.11,31.72-1.75" style="fill:none;stroke:black;stroke-width:3;opacity:0">
  <animate attributeType="CSS" attributeName="opacity" from="0" to="1" begin="8s" dur="1s" repeatCount="0" fill="freeze" />
</path>
</svg>