<svg width="109px" height="109px" viewBox="0 0 px 109px" xmlns="http://www.w3.org/2000/svg" xmlns:xlink="http://www.w3.org/1999/xlink" xml:space="preserve" version="1.1"  baseProfile="full">
<path d="M19.63,19.25c4.19,1.38,10.82,5.69,11.87,7.84" style="fill:none;stroke:black;stroke-width:3;opacity:0">
  <animate attributeType="CSS" attributeName="opacity" from="0" to="1" begin="0s" dur="1s" repeatCount="Indefinite" fill="freeze" />
</path>
<path d="M13.5,44.75c4.32,1.5,11.17,6.17,12.25,8.5" style="fill:none;stroke:black;stroke-width:3;opacity:0">
  <animate attributeType="CSS" attributeName="opacity" from="0" to="1" begin="1s" dur="1s" repeatCount="Indefinite" fill="freeze" />
</path>
<path d="M15,90.98c1.88,0.77,3.03,0.32,4.11-1.25c3.14-4.57,7.04-12.16,9.89-17.99" style="fill:none;stroke:black;stroke-width:3;opacity:0">
  <animate attributeType="CSS" attributeName="opacity" from="0" to="1" begin="2s" dur="1s" repeatCount="Indefinite" fill="freeze" />
</path>
<path d="M62.66,13.25c1.23,1.23,1.59,3,1.59,4.87c0,4.75,0,25.62,0,30" style="fill:none;stroke:black;stroke-width:3;opacity:0">
  <animate attributeType="CSS" attributeName="opacity" from="0" to="1" begin="3s" dur="1s" repeatCount="Indefinite" fill="freeze" />
</path>
<path d="M41.94,27.83c3.71,2.58,9.58,10.62,10.51,14.63" style="fill:none;stroke:black;stroke-width:3;opacity:0">
  <animate attributeType="CSS" attributeName="opacity" from="0" to="1" begin="4s" dur="1s" repeatCount="Indefinite" fill="freeze" />
</path>
<path d="M85.43,22c0.1,1.15-0.05,2.25-0.45,3.33c-2.35,4.92-4.85,9.75-9.23,15.64" style="fill:none;stroke:black;stroke-width:3;opacity:0">
  <animate attributeType="CSS" attributeName="opacity" from="0" to="1" begin="5s" dur="1s" repeatCount="Indefinite" fill="freeze" />
</path>
<path d="M36.38,50.92c3.02,0.87,6.7,0.75,9.76,0.31c12.12-1.73,27.39-3.1,38.87-3.72c3.4-0.18,6.64-0.2,10,0.38" style="fill:none;stroke:black;stroke-width:3;opacity:0">
  <animate attributeType="CSS" attributeName="opacity" from="0" to="1" begin="6s" dur="1s" repeatCount="Indefinite" fill="freeze" />
</path>
<path d="M56.35,54c0.4,1,0.39,2.34,0.15,3.62C54.47,68.5,47.71,85.5,38.01,92.25" style="fill:none;stroke:black;stroke-width:3;opacity:0">
  <animate attributeType="CSS" attributeName="opacity" from="0" to="1" begin="7s" dur="1s" repeatCount="Indefinite" fill="freeze" />
</path>
<path d="M69.4,53.32c1.09,1.09,1.22,2.25,1.22,4.43c0,5.27,0.05,18.79,0.05,26.5c0,7.5,1.45,9.03,12.53,9.03c10.42,0,11.43-1.78,11.43-8.12" style="fill:none;stroke:black;stroke-width:3;opacity:0">
  <animate attributeType="CSS" attributeName="opacity" from="0" to="1" begin="8s" dur="1s" repeatCount="Indefinite" fill="freeze" />
</path>
</svg>