<svg width="109px" height="109px" viewBox="0 0 px 109px" xmlns="http://www.w3.org/2000/svg" xmlns:xlink="http://www.w3.org/1999/xlink" xml:space="preserve" version="1.1"  baseProfile="full">
<path d="M18.63,17.5c4.1,1.6,10.59,6.6,11.62,9.09" style="fill:none;stroke:black;stroke-width:3;opacity:0">
  <animate attributeType="CSS" attributeName="opacity" from="0" to="1" begin="0s" dur="1s" repeatCount="Indefinite" fill="freeze" />
</path>
<path d="M12.75,40.25c4.15,1.81,10.71,7.44,11.75,10.25" style="fill:none;stroke:black;stroke-width:3;opacity:0">
  <animate attributeType="CSS" attributeName="opacity" from="0" to="1" begin="1s" dur="1s" repeatCount="Indefinite" fill="freeze" />
</path>
<path d="M12.75,87.18c2.25,0.82,4.14,0.4,5.18-1.26c3.03-4.84,7.56-14.75,10.32-20.92" style="fill:none;stroke:black;stroke-width:3;opacity:0">
  <animate attributeType="CSS" attributeName="opacity" from="0" to="1" begin="2s" dur="1s" repeatCount="Indefinite" fill="freeze" />
</path>
<path d="M82.99,13c0.07,0.34,0.26,0.97-0.14,1.35c-5,4.75-12.39,9.11-25.42,12.93" style="fill:none;stroke:black;stroke-width:3;opacity:0">
  <animate attributeType="CSS" attributeName="opacity" from="0" to="1" begin="3s" dur="1s" repeatCount="Indefinite" fill="freeze" />
</path>
<path d="M73.75,24.8c0.68,0.34,1.09,1.54,1.23,2.23c0.14,0.69,0,38.37-0.14,42.65" style="fill:none;stroke:black;stroke-width:3;opacity:0">
  <animate attributeType="CSS" attributeName="opacity" from="0" to="1" begin="4s" dur="1s" repeatCount="Indefinite" fill="freeze" />
</path>
<path d="M75.33,43.56c4.47-0.51,8.24-1.21,12.95-1.56c1.09-0.08,1.37-0.17,2.05,0" style="fill:none;stroke:black;stroke-width:3;opacity:0">
  <animate attributeType="CSS" attributeName="opacity" from="0" to="1" begin="5s" dur="1s" repeatCount="Indefinite" fill="freeze" />
</path>
<path d="M60.44,44.61c0.68,0.34,1.09,1.54,1.23,2.23c0.14,0.69,0.22,17.9,0.3,19.21c0.07,1.3,1.14,3.16,3.88,3.46c6.91,0.75,13.16,1,23.83,0.1c1.37-0.12,2.77-0.16,3.55,0.01" style="fill:none;stroke:black;stroke-width:3;opacity:0">
  <animate attributeType="CSS" attributeName="opacity" from="0" to="1" begin="6s" dur="1s" repeatCount="Indefinite" fill="freeze" />
</path>
<path d="M34.22,34.15c1.03,0.35,2.79,0.4,4.33,0.11c2.71-0.51,6.45-1.25,9.48-2.07c3.03-0.81,3.1,0.92,2.16,2.1c-1.73,2.18-7.3,15.65-10.33,20.54" style="fill:none;stroke:black;stroke-width:3;opacity:0">
  <animate attributeType="CSS" attributeName="opacity" from="0" to="1" begin="7s" dur="1s" repeatCount="Indefinite" fill="freeze" />
</path>
<path d="M39.76,55.38c2.83-0.83,7.99-2.36,9.93-2.56c1.93-0.21,3.93-0.09,3.12,3.53C50,69,41.28,84.54,28.93,92.43" style="fill:none;stroke:black;stroke-width:3;opacity:0">
  <animate attributeType="CSS" attributeName="opacity" from="0" to="1" begin="8s" dur="1s" repeatCount="Indefinite" fill="freeze" />
</path>
<path d="M34,64.86c10.75-0.61,26.25,16.39,50.49,27.09c3.09,1.36,7.06,2.22,9.51,2.55" style="fill:none;stroke:black;stroke-width:3;opacity:0">
  <animate attributeType="CSS" attributeName="opacity" from="0" to="1" begin="9s" dur="1s" repeatCount="Indefinite" fill="freeze" />
</path>
</svg>