<svg width="109px" height="109px" viewBox="0 0 px 109px" xmlns="http://www.w3.org/2000/svg" xmlns:xlink="http://www.w3.org/1999/xlink" xml:space="preserve" version="1.1"  baseProfile="full">
<path d="M19.88,16.25C23.45,17.59,27.75,21,30,23.84" style="fill:none;stroke:black;stroke-width:3;opacity:0">
  <animate attributeType="CSS" attributeName="opacity" from="0" to="1" begin="0s" dur="1s" repeatCount="0" fill="freeze" />
</path>
<path d="M17.25,40.5c3.88,1.75,7.25,4.25,9.75,7" style="fill:none;stroke:black;stroke-width:3;opacity:0">
  <animate attributeType="CSS" attributeName="opacity" from="0" to="1" begin="1s" dur="1s" repeatCount="0" fill="freeze" />
</path>
<path d="M15.88,86.62c1.39,0.52,2.8,0.27,3.63-0.96c3.18-4.69,6.35-10.42,9.24-16.4" style="fill:none;stroke:black;stroke-width:3;opacity:0">
  <animate attributeType="CSS" attributeName="opacity" from="0" to="1" begin="2s" dur="1s" repeatCount="0" fill="freeze" />
</path>
<path d="M41.05,19.04c0.95,0.95,1.71,2.2,1.92,3.82c0.6,4.65,2.12,15.69,2.96,21.83c0.34,2.49,0.56,4.17,0.56,4.28" style="fill:none;stroke:black;stroke-width:3;opacity:0">
  <animate attributeType="CSS" attributeName="opacity" from="0" to="1" begin="3s" dur="1s" repeatCount="0" fill="freeze" />
</path>
<path d="M43.62,21c11.05-1.78,25.93-3.68,35.75-4.19c3.46-0.18,4.93,0.76,4.48,4.45c-0.4,3.27-1.73,12.88-3.2,21.07c-0.25,1.37-0.5,2.7-0.75,3.96" style="fill:none;stroke:black;stroke-width:3;opacity:0">
  <animate attributeType="CSS" attributeName="opacity" from="0" to="1" begin="4s" dur="1s" repeatCount="0" fill="freeze" />
</path>
<path d="M45.59,33.61c8.04-0.98,29.91-2.86,35.84-3.23" style="fill:none;stroke:black;stroke-width:3;opacity:0">
  <animate attributeType="CSS" attributeName="opacity" from="0" to="1" begin="5s" dur="1s" repeatCount="0" fill="freeze" />
</path>
<path d="M47.33,46.73c8.55-0.98,22.82-2.31,31.75-2.73" style="fill:none;stroke:black;stroke-width:3;opacity:0">
  <animate attributeType="CSS" attributeName="opacity" from="0" to="1" begin="6s" dur="1s" repeatCount="0" fill="freeze" />
</path>
<path d="M46.5,69.75c3.75-0.25,10.75-3,11.75-3s1.5-0.25,3,0" style="fill:none;stroke:black;stroke-width:3;opacity:0">
  <animate attributeType="CSS" attributeName="opacity" from="0" to="1" begin="7s" dur="1s" repeatCount="0" fill="freeze" />
</path>
<path d="M43.72,55.7c0.73,0.73,1.37,1.95,1.37,2.79c0,4.77,0,21.64,0,28.36c0,3,0.94,4.34,3.99,1.91c3.3-2.63,6.93-5.5,10.15-8.02" style="fill:none;stroke:black;stroke-width:3;opacity:0">
  <animate attributeType="CSS" attributeName="opacity" from="0" to="1" begin="8s" dur="1s" repeatCount="0" fill="freeze" />
</path>
<path d="M89.68,57.29c0.19,0.96-0.31,2.33-1.13,3.09c-5.85,5.4-8.8,6.62-16.05,10.56" style="fill:none;stroke:black;stroke-width:3;opacity:0">
  <animate attributeType="CSS" attributeName="opacity" from="0" to="1" begin="9s" dur="1s" repeatCount="0" fill="freeze" />
</path>
<path d="M68.63,55.25c0.87,0.87,1.43,2.5,1.43,3.88c0,4.62-0.24,17.12-0.24,24.06c0,7.32,1.92,9.14,12.83,9.14c9.84,0,11.91-1.08,11.91-7.52" style="fill:none;stroke:black;stroke-width:3;opacity:0">
  <animate attributeType="CSS" attributeName="opacity" from="0" to="1" begin="10s" dur="1s" repeatCount="0" fill="freeze" />
</path>
</svg>