<svg width="109px" height="109px" viewBox="0 0 px 109px" xmlns="http://www.w3.org/2000/svg" xmlns:xlink="http://www.w3.org/1999/xlink" xml:space="preserve" version="1.1"  baseProfile="full">
<path d="M17.88,16.25c4.45,1.69,11.5,6.96,12.62,9.59" style="fill:none;stroke:black;stroke-width:3;opacity:0">
  <animate attributeType="CSS" attributeName="opacity" from="0" to="1" begin="0s" dur="1s" repeatCount="0" fill="freeze" />
</path>
<path d="M13.25,44c4.24,1.37,10.94,5.62,12,7.75" style="fill:none;stroke:black;stroke-width:3;opacity:0">
  <animate attributeType="CSS" attributeName="opacity" from="0" to="1" begin="1s" dur="1s" repeatCount="0" fill="freeze" />
</path>
<path d="M14,89.68c2.25,0.57,4.37-0.1,5.34-1.76c2.81-4.84,4.61-9.25,7.16-15.42" style="fill:none;stroke:black;stroke-width:3;opacity:0">
  <animate attributeType="CSS" attributeName="opacity" from="0" to="1" begin="2s" dur="1s" repeatCount="0" fill="freeze" />
</path>
<path d="M41.42,20.34c1.44,0.54,4.22,1.02,5.75,0.91c8.23-0.6,31.61-3.87,34.92-4.09c1.63-0.11,2.35,1.33,2.35,2.94c0,1.75-0.7,3.99-2.16,10.62" style="fill:none;stroke:black;stroke-width:3;opacity:0">
  <animate attributeType="CSS" attributeName="opacity" from="0" to="1" begin="3s" dur="1s" repeatCount="0" fill="freeze" />
</path>
<path d="M46.09,35.68c4.13-0.18,33.64-3.14,37.95-3.32" style="fill:none;stroke:black;stroke-width:3;opacity:0">
  <animate attributeType="CSS" attributeName="opacity" from="0" to="1" begin="4s" dur="1s" repeatCount="0" fill="freeze" />
</path>
<path d="M46.24,21.72c0,3.62-0.37,11.58-0.54,14.97C44.83,53.6,42,72.25,31.2,88.05" style="fill:none;stroke:black;stroke-width:3;opacity:0">
  <animate attributeType="CSS" attributeName="opacity" from="0" to="1" begin="5s" dur="1s" repeatCount="0" fill="freeze" />
</path>
<path d="M50.91,46.11c0.68,0.25,1.93,0.28,2.61,0.25c8.99-0.3,21.73-3.11,31.87-3.71c1.13-0.07,1.81,0.12,2.38,0.25" style="fill:none;stroke:black;stroke-width:3;opacity:0">
  <animate attributeType="CSS" attributeName="opacity" from="0" to="1" begin="6s" dur="1s" repeatCount="0" fill="freeze" />
</path>
<path d="M66.49,46.89c0.4,0.36,0.08,2-0.26,2.38c-4.48,4.98-6.48,6.98-10.68,9.97c-1.75,1.25-1.67,3.45,0.83,3.01c5.84-1.02,17.11-4.22,26.32-5.91" style="fill:none;stroke:black;stroke-width:3;opacity:0">
  <animate attributeType="CSS" attributeName="opacity" from="0" to="1" begin="7s" dur="1s" repeatCount="0" fill="freeze" />
</path>
<path d="M77.99,51.52c3.36,1.96,8.68,8.06,9.52,11.11" style="fill:none;stroke:black;stroke-width:3;opacity:0">
  <animate attributeType="CSS" attributeName="opacity" from="0" to="1" begin="8s" dur="1s" repeatCount="0" fill="freeze" />
</path>
<path d="M66.43,64.02c0.08,0.16,1.21,2.33,1.18,3.34c-0.13,5.77-0.13,20.22-0.13,21.87" style="fill:none;stroke:black;stroke-width:3;opacity:0">
  <animate attributeType="CSS" attributeName="opacity" from="0" to="1" begin="9s" dur="1s" repeatCount="0" fill="freeze" />
</path>
<path d="M47.35,76.12c0.85,0.27,2.42,0.33,3.26,0.27c7.41-0.49,27.85-2.59,35.82-2.59c1.42,0,2.27,0.13,2.98,0.26" style="fill:none;stroke:black;stroke-width:3;opacity:0">
  <animate attributeType="CSS" attributeName="opacity" from="0" to="1" begin="10s" dur="1s" repeatCount="0" fill="freeze" />
</path>
<path d="M40.31,91.49c1.13,0.33,3.21,0.4,4.33,0.33c8.86-0.57,28.37-2.57,50-2.65c1.88-0.01,3.01,0.16,3.95,0.32" style="fill:none;stroke:black;stroke-width:3;opacity:0">
  <animate attributeType="CSS" attributeName="opacity" from="0" to="1" begin="11s" dur="1s" repeatCount="0" fill="freeze" />
</path>
</svg>