<svg width="109px" height="109px" viewBox="0 0 px 109px" xmlns="http://www.w3.org/2000/svg" xmlns:xlink="http://www.w3.org/1999/xlink" xml:space="preserve" version="1.1"  baseProfile="full">
<path d="M19.25,18.38c5.1,1.74,10.05,5.21,12,8.22" style="fill:none;stroke:black;stroke-width:3;opacity:0">
  <animate attributeType="CSS" attributeName="opacity" from="0" to="1" begin="0s" dur="1s" repeatCount="0" fill="freeze" />
</path>
<path d="M13,44.12c4.5,1.35,10.5,4.88,12.75,7.62" style="fill:none;stroke:black;stroke-width:3;opacity:0">
  <animate attributeType="CSS" attributeName="opacity" from="0" to="1" begin="1s" dur="1s" repeatCount="0" fill="freeze" />
</path>
<path d="M14,87.96c1.88,0,2.81-0.39,3.75-2c2.75-4.7,5.5-10.45,8-16.45" style="fill:none;stroke:black;stroke-width:3;opacity:0">
  <animate attributeType="CSS" attributeName="opacity" from="0" to="1" begin="2s" dur="1s" repeatCount="0" fill="freeze" />
</path>
<path d="M41.91,30.73c1.39,0.28,3.95,0.49,5.32,0.28c9.4-1.51,20.28-3.26,31.6-4.4c2.3-0.23,3.7,0.13,4.85,0.27" style="fill:none;stroke:black;stroke-width:3;opacity:0">
  <animate attributeType="CSS" attributeName="opacity" from="0" to="1" begin="3s" dur="1s" repeatCount="0" fill="freeze" />
</path>
<path d="M50,16.12c1,1,1.52,1.97,1.57,2.76c0.43,6.37,1.5,18.68,2.03,25.05" style="fill:none;stroke:black;stroke-width:3;opacity:0">
  <animate attributeType="CSS" attributeName="opacity" from="0" to="1" begin="4s" dur="1s" repeatCount="0" fill="freeze" />
</path>
<path d="M70.79,14.5c0.71,1.12,1.01,2.25,0.88,3.66c-0.93,10.47-1.3,13.47-2.44,24.48" style="fill:none;stroke:black;stroke-width:3;opacity:0">
  <animate attributeType="CSS" attributeName="opacity" from="0" to="1" begin="5s" dur="1s" repeatCount="0" fill="freeze" />
</path>
<path d="M32.13,47.04c1.66,0.36,4.71,0.53,6.35,0.36c12.39-1.34,32.14-3.71,48.35-4.74c2.76-0.17,4.42,0.17,5.8,0.35" style="fill:none;stroke:black;stroke-width:3;opacity:0">
  <animate attributeType="CSS" attributeName="opacity" from="0" to="1" begin="6s" dur="1s" repeatCount="0" fill="freeze" />
</path>
<path d="M52.79,47.78c0.06,0.48,0.22,1.29-0.12,1.94c-2.3,4.41-9.8,14.79-20.8,22.91" style="fill:none;stroke:black;stroke-width:3;opacity:0">
  <animate attributeType="CSS" attributeName="opacity" from="0" to="1" begin="7s" dur="1s" repeatCount="0" fill="freeze" />
</path>
<path d="M68.03,44.75c3.57,2.82,19.1,20.86,24.09,22.94c1.46,0.61,2.44,1.34,3.75,1.61" style="fill:none;stroke:black;stroke-width:3;opacity:0">
  <animate attributeType="CSS" attributeName="opacity" from="0" to="1" begin="8s" dur="1s" repeatCount="0" fill="freeze" />
</path>
<path d="M48.44,62.39c1.93,0.61,3.24,0.75,4.82,0.5c3.2-0.51,17.63-3.02,18.61-3.12c1.29-0.13,2.31,1.07,1.85,3.01c-0.14,0.58-1.76,4.8-2.66,10.35" style="fill:none;stroke:black;stroke-width:3;opacity:0">
  <animate attributeType="CSS" attributeName="opacity" from="0" to="1" begin="9s" dur="1s" repeatCount="0" fill="freeze" />
</path>
<path d="M47.5,75.12c0.88,0.62,2.73,1.07,4.12,1c4.88-0.25,11.5-1.38,17.01-1.9c1.73-0.17,2.99-0.47,4.1-0.29" style="fill:none;stroke:black;stroke-width:3;opacity:0">
  <animate attributeType="CSS" attributeName="opacity" from="0" to="1" begin="10s" dur="1s" repeatCount="0" fill="freeze" />
</path>
<path d="M48.36,75.6c0.71,0.71,1.06,1.65,1.06,2.9c0,2.28-0.08,4.61-0.08,6.76c0,8.25,1.54,9.55,16.05,9.55c16.12,0,17.57-1.55,17.57-9.46" style="fill:none;stroke:black;stroke-width:3;opacity:0">
  <animate attributeType="CSS" attributeName="opacity" from="0" to="1" begin="11s" dur="1s" repeatCount="0" fill="freeze" />
</path>
</svg>