<svg width="109px" height="109px" viewBox="0 0 px 109px" xmlns="http://www.w3.org/2000/svg" xmlns:xlink="http://www.w3.org/1999/xlink" xml:space="preserve" version="1.1"  baseProfile="full">
<path d="M21.38,17.5c4.1,1.47,10.59,6.05,11.62,8.34" style="fill:none;stroke:black;stroke-width:3;opacity:0">
  <animate attributeType="CSS" attributeName="opacity" from="0" to="1" begin="0s" dur="1s" repeatCount="0" fill="freeze" />
</path>
<path d="M16.5,39.25c3.97,1.59,10.26,6.53,11.25,9" style="fill:none;stroke:black;stroke-width:3;opacity:0">
  <animate attributeType="CSS" attributeName="opacity" from="0" to="1" begin="1s" dur="1s" repeatCount="0" fill="freeze" />
</path>
<path d="M16.45,89.6c1.25,0.62,2.55,0.39,3.3-0.9c2.75-4.7,5.5-10.45,8-16.45" style="fill:none;stroke:black;stroke-width:3;opacity:0">
  <animate attributeType="CSS" attributeName="opacity" from="0" to="1" begin="2s" dur="1s" repeatCount="0" fill="freeze" />
</path>
<path d="M43.2,19.81c1,1,1.37,2.2,1.49,3.07c0.42,3.07,1.74,14.22,2.38,20.11c0.22,2,0.52,3.88,0.69,4.75" style="fill:none;stroke:black;stroke-width:3;opacity:0">
  <animate attributeType="CSS" attributeName="opacity" from="0" to="1" begin="3s" dur="1s" repeatCount="0" fill="freeze" />
</path>
<path d="M45.5,21.35c7.42-1.21,30.25-3.97,38.14-4.09c3.51-0.05,5.22,0.9,4.57,4.64c-0.9,5.17-2.58,13.17-3.93,19.12c-0.47,2.08-0.87,3.81-1.14,4.94" style="fill:none;stroke:black;stroke-width:3;opacity:0">
  <animate attributeType="CSS" attributeName="opacity" from="0" to="1" begin="4s" dur="1s" repeatCount="0" fill="freeze" />
</path>
<path d="M47.27,33.44c5.85-0.69,33.68-3.41,37.93-3.59" style="fill:none;stroke:black;stroke-width:3;opacity:0">
  <animate attributeType="CSS" attributeName="opacity" from="0" to="1" begin="5s" dur="1s" repeatCount="0" fill="freeze" />
</path>
<path d="M48.64,45.48c7.66-0.8,23.36-1.98,34.09-2.38" style="fill:none;stroke:black;stroke-width:3;opacity:0">
  <animate attributeType="CSS" attributeName="opacity" from="0" to="1" begin="6s" dur="1s" repeatCount="0" fill="freeze" />
</path>
<path d="M58.94,52.38c1.22,1.22,1.48,2.37,1.48,4.26c0,12.62,0,24.73,0,33.17" style="fill:none;stroke:black;stroke-width:3;opacity:0">
  <animate attributeType="CSS" attributeName="opacity" from="0" to="1" begin="7s" dur="1s" repeatCount="0" fill="freeze" />
</path>
<path d="M72.23,51.6c1.02,1.02,1.28,2.4,1.28,4.09c0,5.06,0,24.93,0,33.22" style="fill:none;stroke:black;stroke-width:3;opacity:0">
  <animate attributeType="CSS" attributeName="opacity" from="0" to="1" begin="8s" dur="1s" repeatCount="0" fill="freeze" />
</path>
<path d="M44.08,66.45c2.82,2.57,7.28,10.08,7.98,14.08" style="fill:none;stroke:black;stroke-width:3;opacity:0">
  <animate attributeType="CSS" attributeName="opacity" from="0" to="1" begin="9s" dur="1s" repeatCount="0" fill="freeze" />
</path>
<path d="M90.99,62c0.08,0.97-0.03,1.67-0.4,2.58c-1.62,4.02-3.57,7.43-10.27,14.71" style="fill:none;stroke:black;stroke-width:3;opacity:0">
  <animate attributeType="CSS" attributeName="opacity" from="0" to="1" begin="10s" dur="1s" repeatCount="0" fill="freeze" />
</path>
<path d="M37.34,92.25c2.54,0.92,5.7,0.76,8.29,0.41c12.94-1.75,30.39-2.95,42.38-3.4c2.44-0.09,4.8,0.29,7.16,0.8" style="fill:none;stroke:black;stroke-width:3;opacity:0">
  <animate attributeType="CSS" attributeName="opacity" from="0" to="1" begin="11s" dur="1s" repeatCount="0" fill="freeze" />
</path>
</svg>