<svg width="109px" height="109px" viewBox="0 0 px 109px" xmlns="http://www.w3.org/2000/svg" xmlns:xlink="http://www.w3.org/1999/xlink" xml:space="preserve" version="1.1"  baseProfile="full">
<path d="M18.63,16.75c4.28,1.56,11.05,6.41,12.12,8.84" style="fill:none;stroke:black;stroke-width:3;opacity:0">
  <animate attributeType="CSS" attributeName="opacity" from="0" to="1" begin="0s" dur="1s" repeatCount="0" fill="freeze" />
</path>
<path d="M15,42.75c3.79,1.23,9.8,5.08,10.75,7" style="fill:none;stroke:black;stroke-width:3;opacity:0">
  <animate attributeType="CSS" attributeName="opacity" from="0" to="1" begin="1s" dur="1s" repeatCount="0" fill="freeze" />
</path>
<path d="M16.24,91.78c1.26,0.6,2.56,0.35,3.31-0.96c2.82-4.86,5.64-10.8,8.2-17" style="fill:none;stroke:black;stroke-width:3;opacity:0">
  <animate attributeType="CSS" attributeName="opacity" from="0" to="1" begin="2s" dur="1s" repeatCount="0" fill="freeze" />
</path>
<path d="M40.23,25.54c1.96,0.68,5.04,0.85,7.04,0.61c9.48-1.15,23.32-2.97,32.38-3.85c2.19-0.21,4.77-0.7,6.97-0.24" style="fill:none;stroke:black;stroke-width:3;opacity:0">
  <animate attributeType="CSS" attributeName="opacity" from="0" to="1" begin="3s" dur="1s" repeatCount="0" fill="freeze" />
</path>
<path d="M50.45,14.02c1.02,1.02,1.55,2.11,1.76,3.77c0.1,0.8,1.16,16.46,1.74,26.83" style="fill:none;stroke:black;stroke-width:3;opacity:0">
  <animate attributeType="CSS" attributeName="opacity" from="0" to="1" begin="4s" dur="1s" repeatCount="0" fill="freeze" />
</path>
<path d="M72.39,12.88c1.11,1.24,1.11,2.24,1.01,3.86c-0.2,3.26-1.56,19.19-2.16,26.44" style="fill:none;stroke:black;stroke-width:3;opacity:0">
  <animate attributeType="CSS" attributeName="opacity" from="0" to="1" begin="5s" dur="1s" repeatCount="0" fill="freeze" />
</path>
<path d="M39.83,35.91c2.2,0.76,5.42,0.42,7.69,0.2c8.45-0.82,23.78-2.8,32.48-3.73c2-0.21,3.79-0.37,5.76,0.05" style="fill:none;stroke:black;stroke-width:3;opacity:0">
  <animate attributeType="CSS" attributeName="opacity" from="0" to="1" begin="6s" dur="1s" repeatCount="0" fill="freeze" />
</path>
<path d="M32.57,47.23C36,47.75,39.54,47.4,43,46.93c11.49-1.57,28.62-3.25,40.75-3.94c3.36-0.19,6.62-0.23,9.93,0.49" style="fill:none;stroke:black;stroke-width:3;opacity:0">
  <animate attributeType="CSS" attributeName="opacity" from="0" to="1" begin="7s" dur="1s" repeatCount="0" fill="freeze" />
</path>
<path d="M44.7,55.9c1.08,1.08,1.26,2.48,1.26,4.39c0,1.91-0.04,20.58-0.07,30.34c-0.01,3.41-0.01,5.73-0.01,5.87" style="fill:none;stroke:black;stroke-width:3;opacity:0">
  <animate attributeType="CSS" attributeName="opacity" from="0" to="1" begin="8s" dur="1s" repeatCount="0" fill="freeze" />
</path>
<path d="M47.46,57.58c3.97-0.47,21.29-2.48,28.05-3.4c3.66-0.5,5.93,0.57,5.93,4.07c0,7.87-0.06,30.4-0.06,33.37c0,8.67-4.88,2.62-7.05,0.31" style="fill:none;stroke:black;stroke-width:3;opacity:0">
  <animate attributeType="CSS" attributeName="opacity" from="0" to="1" begin="9s" dur="1s" repeatCount="0" fill="freeze" />
</path>
<path d="M61.51,46.46c0.77,0.77,1.19,2.01,1.19,3.25c0,7.99-0.07,15.85-0.07,26.41" style="fill:none;stroke:black;stroke-width:3;opacity:0">
  <animate attributeType="CSS" attributeName="opacity" from="0" to="1" begin="10s" dur="1s" repeatCount="0" fill="freeze" />
</path>
<path d="M47.13,67.92c10.62-1.42,22.69-2.79,32.96-3.34" style="fill:none;stroke:black;stroke-width:3;opacity:0">
  <animate attributeType="CSS" attributeName="opacity" from="0" to="1" begin="11s" dur="1s" repeatCount="0" fill="freeze" />
</path>
<path d="M33.44,79.23c2.81,0.64,5.8,0.26,8.45-0.03c15.49-1.7,30.61-3.33,43.88-4.04c2.9-0.16,5.37-0.01,8.2,0.58" style="fill:none;stroke:black;stroke-width:3;opacity:0">
  <animate attributeType="CSS" attributeName="opacity" from="0" to="1" begin="12s" dur="1s" repeatCount="0" fill="freeze" />
</path>
</svg>