<svg width="109px" height="109px" viewBox="0 0 px 109px" xmlns="http://www.w3.org/2000/svg" xmlns:xlink="http://www.w3.org/1999/xlink" xml:space="preserve" version="1.1"  baseProfile="full">
<path d="M17.88,15.25c4.9,1.56,12.64,6.41,13.87,8.84" style="fill:none;stroke:black;stroke-width:3;opacity:0">
  <animate attributeType="CSS" attributeName="opacity" from="0" to="1" begin="0s" dur="1s" repeatCount="0" fill="freeze" />
</path>
<path d="M15.75,40c4.5,1.68,11.62,6.89,12.75,9.5" style="fill:none;stroke:black;stroke-width:3;opacity:0">
  <animate attributeType="CSS" attributeName="opacity" from="0" to="1" begin="1s" dur="1s" repeatCount="0" fill="freeze" />
</path>
<path d="M14.25,88.73c1.71,1.27,3.78,1.32,4.86-0.25c3.14-4.57,8.79-15.66,11.64-21.49" style="fill:none;stroke:black;stroke-width:3;opacity:0">
  <animate attributeType="CSS" attributeName="opacity" from="0" to="1" begin="2s" dur="1s" repeatCount="0" fill="freeze" />
</path>
<path d="M39.5,15.82c0.58,1.43,1.43,2.51,1.45,4.41c0.11,14.27,0.61,50.02,0.26,77.27" style="fill:none;stroke:black;stroke-width:3;opacity:0">
  <animate attributeType="CSS" attributeName="opacity" from="0" to="1" begin="3s" dur="1s" repeatCount="0" fill="freeze" />
</path>
<path d="M41.21,18.15C56,17.5,79.63,15.5,89.03,15.5c2.14,0,4.26,1.99,4.22,5c-0.19,15.75-0.78,53.25-0.39,75.5" style="fill:none;stroke:black;stroke-width:3;opacity:0">
  <animate attributeType="CSS" attributeName="opacity" from="0" to="1" begin="4s" dur="1s" repeatCount="0" fill="freeze" />
</path>
<path d="M48.99,29.1c0.73,0.39,2.07,0.39,2.81,0.39c6.96,0.01,21.21-1.74,29.32-2.2c1.22-0.07,1.95,0.18,2.56,0.38" style="fill:none;stroke:black;stroke-width:3;opacity:0">
  <animate attributeType="CSS" attributeName="opacity" from="0" to="1" begin="5s" dur="1s" repeatCount="0" fill="freeze" />
</path>
<path d="M66.6,31.59c0.05,0.43,0.26,1.19-0.1,1.73c-2.75,4.18-9.25,11.18-18.18,16.61" style="fill:none;stroke:black;stroke-width:3;opacity:0">
  <animate attributeType="CSS" attributeName="opacity" from="0" to="1" begin="6s" dur="1s" repeatCount="0" fill="freeze" />
</path>
<path d="M60.89,41.88c9.61,7.37,13.86,21.37,9.55,38.7c-2.4,9.63-6.44,5.93-8.73,2.39" style="fill:none;stroke:black;stroke-width:3;opacity:0">
  <animate attributeType="CSS" attributeName="opacity" from="0" to="1" begin="7s" dur="1s" repeatCount="0" fill="freeze" />
</path>
<path d="M62.23,46.93c0.04,0.39,0.09,1-0.08,1.55c-1.03,3.27-6.92,10.45-14.99,14.85" style="fill:none;stroke:black;stroke-width:3;opacity:0">
  <animate attributeType="CSS" attributeName="opacity" from="0" to="1" begin="8s" dur="1s" repeatCount="0" fill="freeze" />
</path>
<path d="M67.37,57.04c0.05,0.52,0.11,1.34-0.11,2.08c-1.29,4.39-8.7,14.04-18.84,19.94" style="fill:none;stroke:black;stroke-width:3;opacity:0">
  <animate attributeType="CSS" attributeName="opacity" from="0" to="1" begin="9s" dur="1s" repeatCount="0" fill="freeze" />
</path>
<path d="M81.62,39.34c0.03,0.3,0.06,0.77-0.06,1.2c-0.71,2.54-4.81,8.11-10.42,11.52" style="fill:none;stroke:black;stroke-width:3;opacity:0">
  <animate attributeType="CSS" attributeName="opacity" from="0" to="1" begin="10s" dur="1s" repeatCount="0" fill="freeze" />
</path>
<path d="M72.06,58.45c5.21,3.25,11.99,11.75,13.78,19.82" style="fill:none;stroke:black;stroke-width:3;opacity:0">
  <animate attributeType="CSS" attributeName="opacity" from="0" to="1" begin="11s" dur="1s" repeatCount="0" fill="freeze" />
</path>
<path d="M41.44,94.51c10.17,0,36.88-1.1,50.92-1.51" style="fill:none;stroke:black;stroke-width:3;opacity:0">
  <animate attributeType="CSS" attributeName="opacity" from="0" to="1" begin="12s" dur="1s" repeatCount="0" fill="freeze" />
</path>
</svg>