<svg width="109px" height="109px" viewBox="0 0 px 109px" xmlns="http://www.w3.org/2000/svg" xmlns:xlink="http://www.w3.org/1999/xlink" xml:space="preserve" version="1.1"  baseProfile="full">
<path d="M16.63,15c4.28,1.6,11.05,6.6,12.12,9.09" style="fill:none;stroke:black;stroke-width:3;opacity:0">
  <animate attributeType="CSS" attributeName="opacity" from="0" to="1" begin="0s" dur="1s" repeatCount="Indefinite" fill="freeze" />
</path>
<path d="M12.75,42.25c4.5,1.72,11.62,7.07,12.75,9.75" style="fill:none;stroke:black;stroke-width:3;opacity:0">
  <animate attributeType="CSS" attributeName="opacity" from="0" to="1" begin="1s" dur="1s" repeatCount="Indefinite" fill="freeze" />
</path>
<path d="M13.75,88.73c1.71,1.27,3.78,1.32,4.86-0.25c3.14-4.57,6.79-12.16,9.64-17.99" style="fill:none;stroke:black;stroke-width:3;opacity:0">
  <animate attributeType="CSS" attributeName="opacity" from="0" to="1" begin="2s" dur="1s" repeatCount="Indefinite" fill="freeze" />
</path>
<path d="M62.44,9.25c1.03,0.4,2.51,2.34,2.48,3.48c-0.08,3.6-0.08,5.72-0.08,8.99" style="fill:none;stroke:black;stroke-width:3;opacity:0">
  <animate attributeType="CSS" attributeName="opacity" from="0" to="1" begin="3s" dur="1s" repeatCount="Indefinite" fill="freeze" />
</path>
<path d="M42.88,20.57c0,3.61-2.94,13.52-4.28,15.93" style="fill:none;stroke:black;stroke-width:3;opacity:0">
  <animate attributeType="CSS" attributeName="opacity" from="0" to="1" begin="4s" dur="1s" repeatCount="Indefinite" fill="freeze" />
</path>
<path d="M42.57,24.34c2.03,0.16,34.55-3.59,47.58-4.02c9.96-0.33,2.01,7.11-0.35,9.06" style="fill:none;stroke:black;stroke-width:3;opacity:0">
  <animate attributeType="CSS" attributeName="opacity" from="0" to="1" begin="5s" dur="1s" repeatCount="Indefinite" fill="freeze" />
</path>
<path d="M64.2,28c0.81,0.72,1.22,1.22,1.22,2.89s0,2.97,0,7.5" style="fill:none;stroke:black;stroke-width:3;opacity:0">
  <animate attributeType="CSS" attributeName="opacity" from="0" to="1" begin="6s" dur="1s" repeatCount="Indefinite" fill="freeze" />
</path>
<path d="M45.08,39.73c0.94,0.31,2.05,0.36,2.99,0.31c5.33-0.27,27.88-2.33,35.94-2.55c1.58-0.04,2.52,0.15,3.31,0.31" style="fill:none;stroke:black;stroke-width:3;opacity:0">
  <animate attributeType="CSS" attributeName="opacity" from="0" to="1" begin="7s" dur="1s" repeatCount="Indefinite" fill="freeze" />
</path>
<path d="M52.6,44.85c3.05,4.63,4.44,9.36,4.72,12.41" style="fill:none;stroke:black;stroke-width:3;opacity:0">
  <animate attributeType="CSS" attributeName="opacity" from="0" to="1" begin="8s" dur="1s" repeatCount="Indefinite" fill="freeze" />
</path>
<path d="M77.54,41.84c0.62,0.52,0.34,2.81,0.19,3.21c-0.95,2.7-4.48,8.95-6.88,12.54" style="fill:none;stroke:black;stroke-width:3;opacity:0">
  <animate attributeType="CSS" attributeName="opacity" from="0" to="1" begin="9s" dur="1s" repeatCount="Indefinite" fill="freeze" />
</path>
<path d="M38.82,61.93c1.42,0.27,3.08,0.33,4.5,0.27c17.08-0.7,31.45-2.9,49.37-3.46c2.36-0.07,3.79,0.13,4.97,0.27" style="fill:none;stroke:black;stroke-width:3;opacity:0">
  <animate attributeType="CSS" attributeName="opacity" from="0" to="1" begin="10s" dur="1s" repeatCount="Indefinite" fill="freeze" />
</path>
<path d="M42.02,76.45c1.12,0.47,3.17,0.55,4.29,0.47C58.71,76,77,74.25,87.78,74.02c1.87-0.04,2.99,0.22,3.92,0.46" style="fill:none;stroke:black;stroke-width:3;opacity:0">
  <animate attributeType="CSS" attributeName="opacity" from="0" to="1" begin="11s" dur="1s" repeatCount="Indefinite" fill="freeze" />
</path>
<path d="M64.21,62.13c0.56,0.52,1.74,3.92,1.85,4.96c0.65,6-0.16,31.74-0.18,33.29" style="fill:none;stroke:black;stroke-width:3;opacity:0">
  <animate attributeType="CSS" attributeName="opacity" from="0" to="1" begin="12s" dur="1s" repeatCount="Indefinite" fill="freeze" />
</path>
</svg>