<svg width="109px" height="109px" viewBox="0 0 px 109px" xmlns="http://www.w3.org/2000/svg" xmlns:xlink="http://www.w3.org/1999/xlink" xml:space="preserve" version="1.1"  baseProfile="full">
<path d="M17.13,15.75c4.1,1.3,10.59,5.33,11.62,7.34" style="fill:none;stroke:black;stroke-width:3;opacity:0">
  <animate attributeType="CSS" attributeName="opacity" from="0" to="1" begin="0s" dur="1s" repeatCount="0" fill="freeze" />
</path>
<path d="M14,40.5c4.06,1.32,10.48,5.44,11.5,7.5" style="fill:none;stroke:black;stroke-width:3;opacity:0">
  <animate attributeType="CSS" attributeName="opacity" from="0" to="1" begin="1s" dur="1s" repeatCount="0" fill="freeze" />
</path>
<path d="M13.25,86.23c1.71,1.27,3.78,1.32,4.86-0.25c3.14-4.57,7.29-12.66,10.14-18.49" style="fill:none;stroke:black;stroke-width:3;opacity:0">
  <animate attributeType="CSS" attributeName="opacity" from="0" to="1" begin="2s" dur="1s" repeatCount="0" fill="freeze" />
</path>
<path d="M60.64,9.75c0.11,1-0.14,1.83-0.44,2.2c-4.27,5.3-5.95,7.3-11.48,12.64c-1.53,1.48-1.21,3.5,0.88,3.2c9.15-1.29,18.32-3.04,27.18-4.73" style="fill:none;stroke:black;stroke-width:3;opacity:0">
  <animate attributeType="CSS" attributeName="opacity" from="0" to="1" begin="3s" dur="1s" repeatCount="0" fill="freeze" />
</path>
<path d="M69.82,15.24c3.23,1.94,8.34,7.96,9.14,10.97" style="fill:none;stroke:black;stroke-width:3;opacity:0">
  <animate attributeType="CSS" attributeName="opacity" from="0" to="1" begin="4s" dur="1s" repeatCount="0" fill="freeze" />
</path>
<path d="M44.79,31.45c0.25,0.29,0.4,1.23,0.25,1.61c-1.86,4.75-6.74,10.53-10.2,13.86c-1.1,1.06-0.57,2.7,0.97,2.11c5.27-2,11.32-3.46,17.48-5.52" style="fill:none;stroke:black;stroke-width:3;opacity:0">
  <animate attributeType="CSS" attributeName="opacity" from="0" to="1" begin="5s" dur="1s" repeatCount="0" fill="freeze" />
</path>
<path d="M50.3,38.73c1.63,1.55,4.2,6.38,4.61,8.8" style="fill:none;stroke:black;stroke-width:3;opacity:0">
  <animate attributeType="CSS" attributeName="opacity" from="0" to="1" begin="6s" dur="1s" repeatCount="0" fill="freeze" />
</path>
<path d="M83.83,30.2c0.23,0.26-0.06,1.11-0.19,1.45C81.97,35.91,76,40.11,72.89,43.1c-0.99,0.95-0.54,2.35,0.87,1.95c4.53-1.3,13.35-3.3,18.68-4.66" style="fill:none;stroke:black;stroke-width:3;opacity:0">
  <animate attributeType="CSS" attributeName="opacity" from="0" to="1" begin="7s" dur="1s" repeatCount="0" fill="freeze" />
</path>
<path d="M88.21,36.23c2.67,1.77,6.91,7.29,7.57,10.05" style="fill:none;stroke:black;stroke-width:3;opacity:0">
  <animate attributeType="CSS" attributeName="opacity" from="0" to="1" begin="8s" dur="1s" repeatCount="0" fill="freeze" />
</path>
<path d="M63.44,40.25c0.08,0.73,0.38,2.03-0.17,2.93c-3.3,5.41-17.33,21.08-29.53,28.07" style="fill:none;stroke:black;stroke-width:3;opacity:0">
  <animate attributeType="CSS" attributeName="opacity" from="0" to="1" begin="9s" dur="1s" repeatCount="0" fill="freeze" />
</path>
<path d="M63.22,44c4.26,4.43,22.6,18.88,27.3,22.12c1.59,1.1,3.64,1.57,5.23,1.88" style="fill:none;stroke:black;stroke-width:3;opacity:0">
  <animate attributeType="CSS" attributeName="opacity" from="0" to="1" begin="10s" dur="1s" repeatCount="0" fill="freeze" />
</path>
<path d="M67.24,57.25c0.07,0.47,0.25,1.29-0.14,1.92c-2.6,4.09-11.99,12.05-24.22,17.62" style="fill:none;stroke:black;stroke-width:3;opacity:0">
  <animate attributeType="CSS" attributeName="opacity" from="0" to="1" begin="11s" dur="1s" repeatCount="0" fill="freeze" />
</path>
<path d="M73.83,68.4c0.09,0.45,0.31,1.23-0.17,1.81C70.42,74.16,59.5,82,43.96,87.51" style="fill:none;stroke:black;stroke-width:3;opacity:0">
  <animate attributeType="CSS" attributeName="opacity" from="0" to="1" begin="12s" dur="1s" repeatCount="0" fill="freeze" />
</path>
<path d="M81.97,77.68c0.12,0.56,0.4,1.56-0.23,2.26c-5,5.56-21,14.56-40.8,21.56" style="fill:none;stroke:black;stroke-width:3;opacity:0">
  <animate attributeType="CSS" attributeName="opacity" from="0" to="1" begin="13s" dur="1s" repeatCount="0" fill="freeze" />
</path>
</svg>