<svg width="109px" height="109px" viewBox="0 0 px 109px" xmlns="http://www.w3.org/2000/svg" xmlns:xlink="http://www.w3.org/1999/xlink" xml:space="preserve" version="1.1"  baseProfile="full">
<path d="M19.12,17c3.66,1.29,9.46,5.33,10.38,7.34" style="fill:none;stroke:black;stroke-width:3;opacity:0">
  <animate attributeType="CSS" attributeName="opacity" from="0" to="1" begin="0s" dur="1s" repeatCount="Indefinite" fill="freeze" />
</path>
<path d="M15,41.75c3.79,1.15,9.8,4.72,10.75,6.5" style="fill:none;stroke:black;stroke-width:3;opacity:0">
  <animate attributeType="CSS" attributeName="opacity" from="0" to="1" begin="1s" dur="1s" repeatCount="Indefinite" fill="freeze" />
</path>
<path d="M13.61,85.06c1.41,0.65,2.89,0.47,3.74-0.73c2.97-4.24,5.95-9.42,8.65-14.83" style="fill:none;stroke:black;stroke-width:3;opacity:0">
  <animate attributeType="CSS" attributeName="opacity" from="0" to="1" begin="2s" dur="1s" repeatCount="Indefinite" fill="freeze" />
</path>
<path d="M41.38,16.3c0.66,0.66,1.39,1.45,1.5,2.33c0.79,2.73,1.84,6.98,3.03,11.64c0.32,1.26,0.73,2.51,0.85,3.67" style="fill:none;stroke:black;stroke-width:3;opacity:0">
  <animate attributeType="CSS" attributeName="opacity" from="0" to="1" begin="3s" dur="1s" repeatCount="Indefinite" fill="freeze" />
</path>
<path d="M43.96,17.2c7.79-1.08,31.54-3.58,43.31-4.26c2.95-0.17,4.74,0.61,4.02,4.06c-0.54,2.58-1.55,5.9-2.6,9.3c-0.47,1.5-0.94,2.52-1.39,3.99" style="fill:none;stroke:black;stroke-width:3;opacity:0">
  <animate attributeType="CSS" attributeName="opacity" from="0" to="1" begin="4s" dur="1s" repeatCount="Indefinite" fill="freeze" />
</path>
<path d="M57.56,16.43c0.69,0.69,1.04,1.55,1.13,2.81c0.31,4.51,0.43,6.26,0.42,10.26" style="fill:none;stroke:black;stroke-width:3;opacity:0">
  <animate attributeType="CSS" attributeName="opacity" from="0" to="1" begin="5s" dur="1s" repeatCount="Indefinite" fill="freeze" />
</path>
<path d="M73.93,14.85c0.44,0.9,0.56,1.85,0.35,3.23c-0.61,4.08-1.71,9-1.96,10.58" style="fill:none;stroke:black;stroke-width:3;opacity:0">
  <animate attributeType="CSS" attributeName="opacity" from="0" to="1" begin="6s" dur="1s" repeatCount="Indefinite" fill="freeze" />
</path>
<path d="M47.82,32.21c6.43-0.71,31.18-2.96,39.13-3.38" style="fill:none;stroke:black;stroke-width:3;opacity:0">
  <animate attributeType="CSS" attributeName="opacity" from="0" to="1" begin="7s" dur="1s" repeatCount="Indefinite" fill="freeze" />
</path>
<path d="M52.48,35.44c0.13,1,0.05,1.98-0.5,2.8c-2.85,4.26-9.1,11.01-15.92,15.81" style="fill:none;stroke:black;stroke-width:3;opacity:0">
  <animate attributeType="CSS" attributeName="opacity" from="0" to="1" begin="8s" dur="1s" repeatCount="Indefinite" fill="freeze" />
</path>
<path d="M49.42,45.97c2.33,0.53,4.79,0.06,6.94-0.28c8.68-1.36,27.45-4.27,33.5-4.81c4.48-0.4,5.95,2.1,5.47,6.61c-1.26,11.86-3.83,34.01-10.68,46.6c-3.57,6.56-5.28,6.03-8.94,0.18" style="fill:none;stroke:black;stroke-width:3;opacity:0">
  <animate attributeType="CSS" attributeName="opacity" from="0" to="1" begin="9s" dur="1s" repeatCount="Indefinite" fill="freeze" />
</path>
<path d="M42.14,58.51c0.8,0.8,1.34,2.07,1.57,3.12c0.52,2.42,1.11,5.56,1.85,9.35c0.21,1.09,0.43,2.24,0.63,3.44" style="fill:none;stroke:black;stroke-width:3;opacity:0">
  <animate attributeType="CSS" attributeName="opacity" from="0" to="1" begin="10s" dur="1s" repeatCount="Indefinite" fill="freeze" />
</path>
<path d="M44.08,59.47c9.17-1.14,22.27-2.8,28.69-3.54c2.55-0.29,4.75,0.56,3.96,3.4c-0.71,2.58-1.02,4.48-2.41,9.22" style="fill:none;stroke:black;stroke-width:3;opacity:0">
  <animate attributeType="CSS" attributeName="opacity" from="0" to="1" begin="11s" dur="1s" repeatCount="Indefinite" fill="freeze" />
</path>
<path d="M47.24,72.15c6.39-0.77,15.61-1.96,24.28-2.79c1.87-0.18,3.17-0.33,4.8-0.43" style="fill:none;stroke:black;stroke-width:3;opacity:0">
  <animate attributeType="CSS" attributeName="opacity" from="0" to="1" begin="12s" dur="1s" repeatCount="Indefinite" fill="freeze" />
</path>
<path d="M58.2,47.9c1.14,1.14,1.38,2.48,1.38,4.09c0,4.39-0.01,23.64-0.01,30.3" style="fill:none;stroke:black;stroke-width:3;opacity:0">
  <animate attributeType="CSS" attributeName="opacity" from="0" to="1" begin="13s" dur="1s" repeatCount="Indefinite" fill="freeze" />
</path>
<path d="M40.55,87.64c0.79,0.7,2.04,0.9,2.81,0.65c4.27-1.41,24.91-7.7,29.82-9.1" style="fill:none;stroke:black;stroke-width:3;opacity:0">
  <animate attributeType="CSS" attributeName="opacity" from="0" to="1" begin="14s" dur="1s" repeatCount="Indefinite" fill="freeze" />
</path>
<path d="M70.84,74.54c2.83,2.33,7.3,9.58,8.01,13.21" style="fill:none;stroke:black;stroke-width:3;opacity:0">
  <animate attributeType="CSS" attributeName="opacity" from="0" to="1" begin="15s" dur="1s" repeatCount="Indefinite" fill="freeze" />
</path>
</svg>