<svg width="109px" height="109px" viewBox="0 0 px 109px" xmlns="http://www.w3.org/2000/svg" xmlns:xlink="http://www.w3.org/1999/xlink" xml:space="preserve" version="1.1"  baseProfile="full">
<path d="M12.24,37.25c2.69,3.72,6.61,14.28,7.34,18" style="fill:none;stroke:black;stroke-width:3;opacity:0">
  <animate attributeType="CSS" attributeName="opacity" from="0" to="1" begin="0s" dur="1s" repeatCount="Indefinite" fill="freeze" />
</path>
<path d="M41.58,30.25c0.71,0.87,0.54,2.53-0.11,3.88c-0.64,1.35-7.27,11.46-10.49,14.62" style="fill:none;stroke:black;stroke-width:3;opacity:0">
  <animate attributeType="CSS" attributeName="opacity" from="0" to="1" begin="1s" dur="1s" repeatCount="Indefinite" fill="freeze" />
</path>
<path d="M26.75,14.25c0.76,0.78,1.52,1.83,1.53,3.14C28.5,71.2,24.5,81.92,12,95.5" style="fill:none;stroke:black;stroke-width:3;opacity:0">
  <animate attributeType="CSS" attributeName="opacity" from="0" to="1" begin="2s" dur="1s" repeatCount="Indefinite" fill="freeze" />
</path>
<path d="M29.25,67c4.95,3,11.2,12.5,12.5,16.75" style="fill:none;stroke:black;stroke-width:3;opacity:0">
  <animate attributeType="CSS" attributeName="opacity" from="0" to="1" begin="3s" dur="1s" repeatCount="Indefinite" fill="freeze" />
</path>
<path d="M59.12,12.5c0.04,0.78,0.23,2.07-0.09,3.12c-2.1,6.88-7.82,19.81-15.67,29.86" style="fill:none;stroke:black;stroke-width:3;opacity:0">
  <animate attributeType="CSS" attributeName="opacity" from="0" to="1" begin="4s" dur="1s" repeatCount="Indefinite" fill="freeze" />
</path>
<path d="M57.49,27.68c0.98,0.61,2.35,0.82,3.92,0.41s22.59-3.28,26.49-3.64c1.85-0.17,3.87,1.12,3.87,3.41c-0.02,8.64-3.02,27.14-7.6,40.21c-1.44,4.11-4.96,3.03-7.27,0.48" style="fill:none;stroke:black;stroke-width:3;opacity:0">
  <animate attributeType="CSS" attributeName="opacity" from="0" to="1" begin="5s" dur="1s" repeatCount="Indefinite" fill="freeze" />
</path>
<path d="M51.03,43.85c1.28,0.81,2.37,0.81,4.25,0.54c3.81-0.54,16.14-2.3,17.3-2.41c1.54-0.13,3.17,1.05,2.2,2.97c-1.03,2.05-1.53,6.3-2.62,12.53" style="fill:none;stroke:black;stroke-width:3;opacity:0">
  <animate attributeType="CSS" attributeName="opacity" from="0" to="1" begin="6s" dur="1s" repeatCount="Indefinite" fill="freeze" />
</path>
<path d="M54.74,60.85c4.12-0.45,14.07-1.79,19.93-2.18" style="fill:none;stroke:black;stroke-width:3;opacity:0">
  <animate attributeType="CSS" attributeName="opacity" from="0" to="1" begin="7s" dur="1s" repeatCount="Indefinite" fill="freeze" />
</path>
<path d="M53.52,46.02c0.48,0.98,0.52,1.39,0.51,3.09C54,54.54,54.17,74.86,54.17,79.6c0,12.4,3.08,14.58,21.57,14.58c19.26,0,21.4-1.94,21.4-13.39" style="fill:none;stroke:black;stroke-width:3;opacity:0">
  <animate attributeType="CSS" attributeName="opacity" from="0" to="1" begin="8s" dur="1s" repeatCount="Indefinite" fill="freeze" />
</path>
</svg>