<svg width="109px" height="109px" viewBox="0 0 px 109px" xmlns="http://www.w3.org/2000/svg" xmlns:xlink="http://www.w3.org/1999/xlink" xml:space="preserve" version="1.1"  baseProfile="full">
<path d="M19.83,16.82c2.23,0.86,4.93,0.33,7.21,0.03c6.72-0.88,16.7-2.55,23.45-3.16c2.21-0.2,4.37-0.3,6.55,0.2" style="fill:none;stroke:black;stroke-width:3;opacity:0">
  <animate attributeType="CSS" attributeName="opacity" from="0" to="1" begin="0s" dur="1s" repeatCount="0" fill="freeze" />
</path>
<path d="M38.93,19.01c0.07,1.11-0.15,1.84-0.57,2.8C35.88,27.5,28.12,38,17.1,47.12" style="fill:none;stroke:black;stroke-width:3;opacity:0">
  <animate attributeType="CSS" attributeName="opacity" from="0" to="1" begin="1s" dur="1s" repeatCount="0" fill="freeze" />
</path>
<path d="M35.41,31.58c1.24,0.17,2.74-0.01,3.95-0.27c3.51-0.77,6.72-1.65,11.39-2.91c2.72-0.73,4.46,1.06,3.43,3.82C50,43.5,37.25,61.38,19.02,71.5" style="fill:none;stroke:black;stroke-width:3;opacity:0">
  <animate attributeType="CSS" attributeName="opacity" from="0" to="1" begin="2s" dur="1s" repeatCount="0" fill="freeze" />
</path>
<path d="M29.5,39.88c3.38,1.96,8.74,8.07,9.59,11.12" style="fill:none;stroke:black;stroke-width:3;opacity:0">
  <animate attributeType="CSS" attributeName="opacity" from="0" to="1" begin="3s" dur="1s" repeatCount="0" fill="freeze" />
</path>
<path d="M67.57,19.63c1.03,1.03,1.27,2.62,1.27,4.9c0,9.79-0.02,15.49-0.04,20.72c0,1.83-0.01,3.61-0.01,5.49" style="fill:none;stroke:black;stroke-width:3;opacity:0">
  <animate attributeType="CSS" attributeName="opacity" from="0" to="1" begin="4s" dur="1s" repeatCount="0" fill="freeze" />
</path>
<path d="M88.36,12.33c1.03,1.03,1.42,2.29,1.42,4.26c0,11.25,0.01,44.71,0.01,48.54c0,8.61-7.36-0.84-8.79-1.81" style="fill:none;stroke:black;stroke-width:3;opacity:0">
  <animate attributeType="CSS" attributeName="opacity" from="0" to="1" begin="5s" dur="1s" repeatCount="0" fill="freeze" />
</path>
<path d="M22,79.25c0,6.43-5.75,15.91-7.25,17.75" style="fill:none;stroke:black;stroke-width:3;opacity:0">
  <animate attributeType="CSS" attributeName="opacity" from="0" to="1" begin="6s" dur="1s" repeatCount="0" fill="freeze" />
</path>
<path d="M41.77,78.58c2.7,2.95,5.26,11.05,5.94,15.63" style="fill:none;stroke:black;stroke-width:3;opacity:0">
  <animate attributeType="CSS" attributeName="opacity" from="0" to="1" begin="7s" dur="1s" repeatCount="0" fill="freeze" />
</path>
<path d="M62.87,76.83c2.62,2.8,6.78,11.52,7.43,15.88" style="fill:none;stroke:black;stroke-width:3;opacity:0">
  <animate attributeType="CSS" attributeName="opacity" from="0" to="1" begin="8s" dur="1s" repeatCount="0" fill="freeze" />
</path>
<path d="M84.02,76.58c3.72,3.2,9.61,13.16,10.54,18.13" style="fill:none;stroke:black;stroke-width:3;opacity:0">
  <animate attributeType="CSS" attributeName="opacity" from="0" to="1" begin="9s" dur="1s" repeatCount="0" fill="freeze" />
</path>
</svg>