<svg width="109px" height="109px" viewBox="0 0 px 109px" xmlns="http://www.w3.org/2000/svg" xmlns:xlink="http://www.w3.org/1999/xlink" xml:space="preserve" version="1.1"  baseProfile="full">
<path d="M9.99,38.25c2.6,3.72,6.38,14.28,7.09,18" style="fill:none;stroke:black;stroke-width:3;opacity:0">
  <animate attributeType="CSS" attributeName="opacity" from="0" to="1" begin="0s" dur="1s" repeatCount="0" fill="freeze" />
</path>
<path d="M40.03,31.25c0.47,1.25,0.61,2.28-0.08,3.47c-0.69,1.19-7.27,10-10.72,12.78" style="fill:none;stroke:black;stroke-width:3;opacity:0">
  <animate attributeType="CSS" attributeName="opacity" from="0" to="1" begin="1s" dur="1s" repeatCount="0" fill="freeze" />
</path>
<path d="M24.68,15.25c0.8,0.77,1.6,1.79,1.6,3.07c0.23,52.66-3.96,63.14-17.03,76.43" style="fill:none;stroke:black;stroke-width:3;opacity:0">
  <animate attributeType="CSS" attributeName="opacity" from="0" to="1" begin="2s" dur="1s" repeatCount="0" fill="freeze" />
</path>
<path d="M27,67.75c5.05,3.13,11.42,13.06,12.75,17.5" style="fill:none;stroke:black;stroke-width:3;opacity:0">
  <animate attributeType="CSS" attributeName="opacity" from="0" to="1" begin="3s" dur="1s" repeatCount="0" fill="freeze" />
</path>
<path d="M65.89,11c0.22,0.44,0.26,0.98,0.2,1.37c-0.31,2.27-3.01,7.72-5.47,10.77" style="fill:none;stroke:black;stroke-width:3;opacity:0">
  <animate attributeType="CSS" attributeName="opacity" from="0" to="1" begin="4s" dur="1s" repeatCount="0" fill="freeze" />
</path>
<path d="M47.05,24.27c0.74,0.78,1.33,2.21,1.49,3.22c0.88,5.65,3.26,22.3,3.56,27.4" style="fill:none;stroke:black;stroke-width:3;opacity:0">
  <animate attributeType="CSS" attributeName="opacity" from="0" to="1" begin="5s" dur="1s" repeatCount="0" fill="freeze" />
</path>
<path d="M48.98,26.1c10.33-1.4,30.66-2.98,34.47-3.49c1.83-0.24,4.02,1.56,3.62,3.69c-0.89,4.74-1.81,14.7-4.65,24.38" style="fill:none;stroke:black;stroke-width:3;opacity:0">
  <animate attributeType="CSS" attributeName="opacity" from="0" to="1" begin="6s" dur="1s" repeatCount="0" fill="freeze" />
</path>
<path d="M50.51,38.38c9.39-1.91,28.11-2.96,34.53-2.96" style="fill:none;stroke:black;stroke-width:3;opacity:0">
  <animate attributeType="CSS" attributeName="opacity" from="0" to="1" begin="7s" dur="1s" repeatCount="0" fill="freeze" />
</path>
<path d="M51.75,50.91c10.72-0.88,21.57-1.93,30.42-2.19" style="fill:none;stroke:black;stroke-width:3;opacity:0">
  <animate attributeType="CSS" attributeName="opacity" from="0" to="1" begin="8s" dur="1s" repeatCount="0" fill="freeze" />
</path>
<path d="M44.75,61.59c2,0.41,4.54,0.63,5.63,0.55c7.99-0.6,25.9-1.98,38.01-2.77c1.65-0.11,3.15,0.15,4.51,0.79" style="fill:none;stroke:black;stroke-width:3;opacity:0">
  <animate attributeType="CSS" attributeName="opacity" from="0" to="1" begin="9s" dur="1s" repeatCount="0" fill="freeze" />
</path>
<path d="M66.11,62.65c1.29,2.08,1.29,3.33,1.29,5c0,6.6-0.07,16.35-0.07,24.97" style="fill:none;stroke:black;stroke-width:3;opacity:0">
  <animate attributeType="CSS" attributeName="opacity" from="0" to="1" begin="10s" dur="1s" repeatCount="0" fill="freeze" />
</path>
<path d="M47.25,77.83c0.97,0.76,4.16,0.44,5.15,0.33c8.85-0.91,22.85-1.91,30.8-2.63c1.21-0.11,3.87-0.31,5.67,0.36" style="fill:none;stroke:black;stroke-width:3;opacity:0">
  <animate attributeType="CSS" attributeName="opacity" from="0" to="1" begin="11s" dur="1s" repeatCount="0" fill="freeze" />
</path>
<path d="M38.34,93.73c0.7,0.31,4.36,1.16,5.54,1.02c14.36-1.75,32.49-1.69,50.25-2.69c2.98-0.17,4.11,0.19,6.26,0.5" style="fill:none;stroke:black;stroke-width:3;opacity:0">
  <animate attributeType="CSS" attributeName="opacity" from="0" to="1" begin="12s" dur="1s" repeatCount="0" fill="freeze" />
</path>
</svg>