<svg width="109px" height="109px" viewBox="0 0 px 109px" xmlns="http://www.w3.org/2000/svg" xmlns:xlink="http://www.w3.org/1999/xlink" xml:space="preserve" version="1.1"  baseProfile="full">
<path d="M13.49,38c1.13,3.47,2.78,13.28,3.09,16.75" style="fill:none;stroke:black;stroke-width:3;opacity:0">
  <animate attributeType="CSS" attributeName="opacity" from="0" to="1" begin="0s" dur="1s" repeatCount="Indefinite" fill="freeze" />
</path>
<path d="M38.16,31.25c0.63,0.7,0.92,1.62,0.35,2.7c-0.57,1.08-6.43,9.53-9.28,12.05" style="fill:none;stroke:black;stroke-width:3;opacity:0">
  <animate attributeType="CSS" attributeName="opacity" from="0" to="1" begin="1s" dur="1s" repeatCount="Indefinite" fill="freeze" />
</path>
<path d="M25.44,15.25c0.67,0.71,1.34,1.67,1.34,2.86c0.19,49.02-3.32,58.77-14.28,71.14" style="fill:none;stroke:black;stroke-width:3;opacity:0">
  <animate attributeType="CSS" attributeName="opacity" from="0" to="1" begin="2s" dur="1s" repeatCount="Indefinite" fill="freeze" />
</path>
<path d="M26.75,65c4.35,2.46,9.85,10.26,11,13.75" style="fill:none;stroke:black;stroke-width:3;opacity:0">
  <animate attributeType="CSS" attributeName="opacity" from="0" to="1" begin="3s" dur="1s" repeatCount="Indefinite" fill="freeze" />
</path>
<path d="M42.76,29.32c1.01,0.36,2.87,0.46,3.88,0.36c9.37-0.93,30.34-3.24,42.29-4.25c1.68-0.14,3.54,0.17,4.38,0.35" style="fill:none;stroke:black;stroke-width:3;opacity:0">
  <animate attributeType="CSS" attributeName="opacity" from="0" to="1" begin="4s" dur="1s" repeatCount="Indefinite" fill="freeze" />
</path>
<path d="M54.41,17.09c0.72,0.33,1.25,1.49,1.3,2.17c0.29,3.98,1.04,25.48,1.36,33.03" style="fill:none;stroke:black;stroke-width:3;opacity:0">
  <animate attributeType="CSS" attributeName="opacity" from="0" to="1" begin="5s" dur="1s" repeatCount="Indefinite" fill="freeze" />
</path>
<path d="M78.39,14.26c0.73,0.33,1.16,1.5,1.31,2.17c0.14,0.67-0.5,29.41-0.65,33.59" style="fill:none;stroke:black;stroke-width:3;opacity:0">
  <animate attributeType="CSS" attributeName="opacity" from="0" to="1" begin="6s" dur="1s" repeatCount="Indefinite" fill="freeze" />
</path>
<path d="M56.66,39.27c2.83-0.33,19.81-2.01,21.81-2.01" style="fill:none;stroke:black;stroke-width:3;opacity:0">
  <animate attributeType="CSS" attributeName="opacity" from="0" to="1" begin="7s" dur="1s" repeatCount="Indefinite" fill="freeze" />
</path>
<path d="M57.16,50.65c4.33-0.17,17.15-1.94,21.15-2.1" style="fill:none;stroke:black;stroke-width:3;opacity:0">
  <animate attributeType="CSS" attributeName="opacity" from="0" to="1" begin="8s" dur="1s" repeatCount="Indefinite" fill="freeze" />
</path>
<path d="M43.26,65.94c1.61,0.58,3.45,0.76,5.3,0.58c9.44-0.94,26.35-2.73,40.62-3.84c1.84-0.14,2.99,0.1,4.84,0.51" style="fill:none;stroke:black;stroke-width:3;opacity:0">
  <animate attributeType="CSS" attributeName="opacity" from="0" to="1" begin="9s" dur="1s" repeatCount="Indefinite" fill="freeze" />
</path>
<path d="M66.68,54.4c0.89,1.14,1.27,2.72,1.27,3.77c0,10.63-0.23,25.48-0.23,38.28" style="fill:none;stroke:black;stroke-width:3;opacity:0">
  <animate attributeType="CSS" attributeName="opacity" from="0" to="1" begin="10s" dur="1s" repeatCount="Indefinite" fill="freeze" />
</path>
<path d="M66.93,65.61C60,76,51.75,84,37.84,91.32" style="fill:none;stroke:black;stroke-width:3;opacity:0">
  <animate attributeType="CSS" attributeName="opacity" from="0" to="1" begin="11s" dur="1s" repeatCount="Indefinite" fill="freeze" />
</path>
<path d="M68.06,66.72c3.42,2.69,19.52,16.18,23.24,18.82c1.26,0.9,2.34,1.28,3.6,1.54" style="fill:none;stroke:black;stroke-width:3;opacity:0">
  <animate attributeType="CSS" attributeName="opacity" from="0" to="1" begin="12s" dur="1s" repeatCount="Indefinite" fill="freeze" />
</path>
</svg>