<svg width="109px" height="109px" viewBox="0 0 px 109px" xmlns="http://www.w3.org/2000/svg" xmlns:xlink="http://www.w3.org/1999/xlink" xml:space="preserve" version="1.1"  baseProfile="full">
<path d="M33.97,21.87c2.28,0.38,4.58,0.19,6.53,0.03c7.44-0.61,17.67-1.76,24.75-2.15c1.73-0.09,3.48-0.24,5.18,0.19" style="fill:none;stroke:black;stroke-width:3;opacity:0">
  <animate attributeType="CSS" attributeName="opacity" from="0" to="1" begin="0s" dur="1s" repeatCount="Indefinite" fill="freeze" />
</path>
<path d="M52.95,9.62c0.72,0.72,1.15,2.26,1.15,3.66c0,8.34-0.1,18.76-0.1,21.6" style="fill:none;stroke:black;stroke-width:3;opacity:0">
  <animate attributeType="CSS" attributeName="opacity" from="0" to="1" begin="1s" dur="1s" repeatCount="Indefinite" fill="freeze" />
</path>
<path d="M15.57,38.6c3.12,0.83,6.48,0.88,9.67,0.46c13.76-1.81,38.63-4.19,56.38-5.45c3.74-0.27,7.51-0.19,11.18,0.78" style="fill:none;stroke:black;stroke-width:3;opacity:0">
  <animate attributeType="CSS" attributeName="opacity" from="0" to="1" begin="2s" dur="1s" repeatCount="Indefinite" fill="freeze" />
</path>
<path d="M80.49,13.67c0.17,1.09-0.05,2.66-1.08,4.12C65.38,37.62,49,47.88,17.97,61.23" style="fill:none;stroke:black;stroke-width:3;opacity:0">
  <animate attributeType="CSS" attributeName="opacity" from="0" to="1" begin="3s" dur="1s" repeatCount="Indefinite" fill="freeze" />
</path>
<path d="M41.41,51.13c0.43,0.64,0.86,1.46,0.86,2.31c0,0.51,0.01,11.56,0.01,19.94c0,1.85,0,3.53,0,4.89" style="fill:none;stroke:black;stroke-width:3;opacity:0">
  <animate attributeType="CSS" attributeName="opacity" from="0" to="1" begin="4s" dur="1s" repeatCount="Indefinite" fill="freeze" />
</path>
<path d="M42.98,50.99c5.49-0.64,21.11-2.26,26.9-2.79c3.16-0.29,4.84,0.41,4.83,3.8c-0.01,4.01-0.05,12.94-0.07,18.88c-0.01,2.72-0.02,4.8-0.02,5.5" style="fill:none;stroke:black;stroke-width:3;opacity:0">
  <animate attributeType="CSS" attributeName="opacity" from="0" to="1" begin="5s" dur="1s" repeatCount="Indefinite" fill="freeze" />
</path>
<path d="M43.66,62.75c5.59-0.62,24.34-2.12,30.24-2.28" style="fill:none;stroke:black;stroke-width:3;opacity:0">
  <animate attributeType="CSS" attributeName="opacity" from="0" to="1" begin="6s" dur="1s" repeatCount="Indefinite" fill="freeze" />
</path>
<path d="M43.51,75.36c6.67-0.46,21.82-1.93,30.13-2.32" style="fill:none;stroke:black;stroke-width:3;opacity:0">
  <animate attributeType="CSS" attributeName="opacity" from="0" to="1" begin="7s" dur="1s" repeatCount="Indefinite" fill="freeze" />
</path>
<path d="M23.12,83.62c0,5.39-5.25,13.34-6.62,14.88" style="fill:none;stroke:black;stroke-width:3;opacity:0">
  <animate attributeType="CSS" attributeName="opacity" from="0" to="1" begin="8s" dur="1s" repeatCount="Indefinite" fill="freeze" />
</path>
<path d="M39.77,82.58c2.47,2.71,4.82,10.17,5.44,14.38" style="fill:none;stroke:black;stroke-width:3;opacity:0">
  <animate attributeType="CSS" attributeName="opacity" from="0" to="1" begin="9s" dur="1s" repeatCount="Indefinite" fill="freeze" />
</path>
<path d="M60.87,82.08c3.33,2.36,8.6,9.71,9.43,13.38" style="fill:none;stroke:black;stroke-width:3;opacity:0">
  <animate attributeType="CSS" attributeName="opacity" from="0" to="1" begin="10s" dur="1s" repeatCount="Indefinite" fill="freeze" />
</path>
<path d="M82,82.88c4.43,2.62,11.45,10.77,12.56,14.84" style="fill:none;stroke:black;stroke-width:3;opacity:0">
  <animate attributeType="CSS" attributeName="opacity" from="0" to="1" begin="11s" dur="1s" repeatCount="Indefinite" fill="freeze" />
</path>
</svg>