<svg width="109px" height="109px" viewBox="0 0 px 109px" xmlns="http://www.w3.org/2000/svg" xmlns:xlink="http://www.w3.org/1999/xlink" xml:space="preserve" version="1.1"  baseProfile="full">
<path d="M13.23,36.53c1.22,2.8,3,10.73,3.33,13.53" style="fill:none;stroke:black;stroke-width:3;opacity:0">
  <animate attributeType="CSS" attributeName="opacity" from="0" to="1" begin="0s" dur="1s" repeatCount="0" fill="freeze" />
</path>
<path d="M36.16,27.96c0,0.91-0.51,2.26-1.04,3.09c-0.53,0.84-3.74,4.7-6.76,7.35" style="fill:none;stroke:black;stroke-width:3;opacity:0">
  <animate attributeType="CSS" attributeName="opacity" from="0" to="1" begin="1s" dur="1s" repeatCount="0" fill="freeze" />
</path>
<path d="M24.81,18c0.78,0.78,1.22,2.36,1.22,3.51c0.09,38.37-2.91,52.74-14.65,67.24" style="fill:none;stroke:black;stroke-width:3;opacity:0">
  <animate attributeType="CSS" attributeName="opacity" from="0" to="1" begin="2s" dur="1s" repeatCount="0" fill="freeze" />
</path>
<path d="M26.25,64.38c2.73,2.24,6.18,9.33,6.9,12.5" style="fill:none;stroke:black;stroke-width:3;opacity:0">
  <animate attributeType="CSS" attributeName="opacity" from="0" to="1" begin="3s" dur="1s" repeatCount="0" fill="freeze" />
</path>
<path d="M47.29,21.5c0.37,0.71,0.51,1.94-0.01,3.32c-2.66,7.06-7.03,15.93-11.85,22.32" style="fill:none;stroke:black;stroke-width:3;opacity:0">
  <animate attributeType="CSS" attributeName="opacity" from="0" to="1" begin="4s" dur="1s" repeatCount="0" fill="freeze" />
</path>
<path d="M49.99,24.95c0.6-0.1,1.73-0.19,3.03-0.62c2.25-0.73,4.77-1.44,6.24-1.78c2.34-0.53,3.32,0.9,2.52,3.42C57.25,40.12,51.5,53.5,40.19,65.03" style="fill:none;stroke:black;stroke-width:3;opacity:0">
  <animate attributeType="CSS" attributeName="opacity" from="0" to="1" begin="5s" dur="1s" repeatCount="0" fill="freeze" />
</path>
<path d="M46.45,34.13c1.07,0.29,5.37,2.05,7.52,3.8" style="fill:none;stroke:black;stroke-width:3;opacity:0">
  <animate attributeType="CSS" attributeName="opacity" from="0" to="1" begin="6s" dur="1s" repeatCount="0" fill="freeze" />
</path>
<path d="M42.34,43.77c3.16,1.36,5.75,4.26,6.95,6.08" style="fill:none;stroke:black;stroke-width:3;opacity:0">
  <animate attributeType="CSS" attributeName="opacity" from="0" to="1" begin="7s" dur="1s" repeatCount="0" fill="freeze" />
</path>
<path d="M63.83,37.61c1.67,0.27,3.19,0.15,4.68-0.09c5.36-0.89,12.2-1.98,15.86-2.31c1.42-0.13,2.81-0.23,4.23,0.04" style="fill:none;stroke:black;stroke-width:3;opacity:0">
  <animate attributeType="CSS" attributeName="opacity" from="0" to="1" begin="8s" dur="1s" repeatCount="0" fill="freeze" />
</path>
<path d="M74.07,17.8c0.81,0.81,1.13,1.95,1.21,3.39C76.25,40.05,71,56.38,56.81,65.21" style="fill:none;stroke:black;stroke-width:3;opacity:0">
  <animate attributeType="CSS" attributeName="opacity" from="0" to="1" begin="9s" dur="1s" repeatCount="0" fill="freeze" />
</path>
<path d="M76.12,38.25c3.53,6.31,9,14.88,14.4,22.36c1.16,1.6,2.35,3.02,3.61,4.13" style="fill:none;stroke:black;stroke-width:3;opacity:0">
  <animate attributeType="CSS" attributeName="opacity" from="0" to="1" begin="10s" dur="1s" repeatCount="0" fill="freeze" />
</path>
<path d="M84.5,20.5c4.55,2.95,5.8,5.21,7.21,7.97" style="fill:none;stroke:black;stroke-width:3;opacity:0">
  <animate attributeType="CSS" attributeName="opacity" from="0" to="1" begin="11s" dur="1s" repeatCount="0" fill="freeze" />
</path>
<path d="M42.37,77.96c0,4.81-5.45,11.92-6.87,13.29" style="fill:none;stroke:black;stroke-width:3;opacity:0">
  <animate attributeType="CSS" attributeName="opacity" from="0" to="1" begin="12s" dur="1s" repeatCount="0" fill="freeze" />
</path>
<path d="M54.45,76.58c1.93,2.75,3.01,10.15,3.02,13.83" style="fill:none;stroke:black;stroke-width:3;opacity:0">
  <animate attributeType="CSS" attributeName="opacity" from="0" to="1" begin="13s" dur="1s" repeatCount="0" fill="freeze" />
</path>
<path d="M69.95,75.86c2.33,2.3,5.34,9.42,5.35,12.95" style="fill:none;stroke:black;stroke-width:3;opacity:0">
  <animate attributeType="CSS" attributeName="opacity" from="0" to="1" begin="14s" dur="1s" repeatCount="0" fill="freeze" />
</path>
<path d="M86.23,75.14c4.02,3.61,7.4,9.36,8.66,14.73" style="fill:none;stroke:black;stroke-width:3;opacity:0">
  <animate attributeType="CSS" attributeName="opacity" from="0" to="1" begin="15s" dur="1s" repeatCount="0" fill="freeze" />
</path>
</svg>