<svg width="109px" height="109px" viewBox="0 0 px 109px" xmlns="http://www.w3.org/2000/svg" xmlns:xlink="http://www.w3.org/1999/xlink" xml:space="preserve" version="1.1"  baseProfile="full">
<path d="M70.76,14.5c0.09,0.38-0.14,1.59-0.69,2.02c-6.8,5.33-16.85,10.73-34.57,15.03" style="fill:none;stroke:black;stroke-width:3;opacity:0">
  <animate attributeType="CSS" attributeName="opacity" from="0" to="1" begin="0s" dur="1s" repeatCount="Indefinite" fill="freeze" />
</path>
<path d="M31.13,30.75c0.62,0.75,1.82,2.06,1.73,4.2C32,55.75,30,82.75,11.56,94.72" style="fill:none;stroke:black;stroke-width:3;opacity:0">
  <animate attributeType="CSS" attributeName="opacity" from="0" to="1" begin="1s" dur="1s" repeatCount="Indefinite" fill="freeze" />
</path>
<path d="M51.12,29.75c1.35,0.62,2.43,2.76,2.43,4.03c0,6.47-0.27,50.97-0.27,61.47" style="fill:none;stroke:black;stroke-width:3;opacity:0">
  <animate attributeType="CSS" attributeName="opacity" from="0" to="1" begin="2s" dur="1s" repeatCount="Indefinite" fill="freeze" />
</path>
<path d="M64,27.75c0.31,0,1.2,0.64,1.68,1.78C72,44.5,81.5,68.75,92.66,86.22c1.71,2.68,4.16,3.98,5.59,4.78" style="fill:none;stroke:black;stroke-width:3;opacity:0">
  <animate attributeType="CSS" attributeName="opacity" from="0" to="1" begin="3s" dur="1s" repeatCount="Indefinite" fill="freeze" />
</path>
</svg>