<svg width="109px" height="109px" viewBox="0 0 px 109px" xmlns="http://www.w3.org/2000/svg" xmlns:xlink="http://www.w3.org/1999/xlink" xml:space="preserve" version="1.1"  baseProfile="full">
<path d="M32.9,17.47c1.07,1.07,1.5,2.75,1.5,4.34c0,50.45-8.15,60.7-19.9,71.45" style="fill:none;stroke:black;stroke-width:3;opacity:0">
  <animate attributeType="CSS" attributeName="opacity" from="0" to="1" begin="0s" dur="1s" repeatCount="0" fill="freeze" />
</path>
<path d="M62.54,12.75c0.92,0.92,1.37,2.12,1.37,4.02c0,3.9-0.04,16.18-0.04,19.73" style="fill:none;stroke:black;stroke-width:3;opacity:0">
  <animate attributeType="CSS" attributeName="opacity" from="0" to="1" begin="1s" dur="1s" repeatCount="0" fill="freeze" />
</path>
<path d="M35.35,41.27c10.77-1.02,30.16-3.55,42.52-5.43c2.69-0.41,5.75-0.84,8.13-0.59" style="fill:none;stroke:black;stroke-width:3;opacity:0">
  <animate attributeType="CSS" attributeName="opacity" from="0" to="1" begin="2s" dur="1s" repeatCount="0" fill="freeze" />
</path>
<path d="M34.94,62.07c2.68,0.18,4.85,0.19,7.41-0.2c10-1.54,22.53-3.81,26.5-4.63c2.39-0.49,4.61,0.76,4.61,3.22c0,5.54-0.15,23.54-0.15,28.29c0,4.48-0.07,5.65-0.07,8.5" style="fill:none;stroke:black;stroke-width:3;opacity:0">
  <animate attributeType="CSS" attributeName="opacity" from="0" to="1" begin="3s" dur="1s" repeatCount="0" fill="freeze" />
</path>
</svg>