<svg width="109px" height="109px" viewBox="0 0 px 109px" xmlns="http://www.w3.org/2000/svg" xmlns:xlink="http://www.w3.org/1999/xlink" xml:space="preserve" version="1.1"  baseProfile="full">
<path d="M51.82,10.85c1.07,0.35,2.6,2.06,2.57,3.06c-0.08,3.17-0.08,8.56-0.08,11.44" style="fill:none;stroke:black;stroke-width:3;opacity:0">
  <animate attributeType="CSS" attributeName="opacity" from="0" to="1" begin="0s" dur="1s" repeatCount="Indefinite" fill="freeze" />
</path>
<path d="M20.91,25.63c0,3.48-3.03,13.05-4.41,15.37" style="fill:none;stroke:black;stroke-width:3;opacity:0">
  <animate attributeType="CSS" attributeName="opacity" from="0" to="1" begin="1s" dur="1s" repeatCount="Indefinite" fill="freeze" />
</path>
<path d="M20.74,28.24c9.51-0.99,56.24-5.03,63.95-5.4c12.05-0.59,2.55,7.16-0.45,9.28" style="fill:none;stroke:black;stroke-width:3;opacity:0">
  <animate attributeType="CSS" attributeName="opacity" from="0" to="1" begin="2s" dur="1s" repeatCount="Indefinite" fill="freeze" />
</path>
<path d="M37.83,39.28c0.04,0.55,0.08,1.42-0.08,2.22c-1,5-6.5,13.5-14.77,21.23" style="fill:none;stroke:black;stroke-width:3;opacity:0">
  <animate attributeType="CSS" attributeName="opacity" from="0" to="1" begin="3s" dur="1s" repeatCount="Indefinite" fill="freeze" />
</path>
<path d="M36.3,51.6c0.91,0.33,2.58,0.41,3.5,0.33c11.19-0.91,24.6-3.88,34.64-5.03c1.51-0.17,2.43,0.16,3.19,0.32" style="fill:none;stroke:black;stroke-width:3;opacity:0">
  <animate attributeType="CSS" attributeName="opacity" from="0" to="1" begin="4s" dur="1s" repeatCount="Indefinite" fill="freeze" />
</path>
<path d="M16.52,71.11c1.47,0.47,4.18,0.54,5.65,0.47c15.34-0.79,45.25-4.58,67.64-4.77c2.46-0.02,3.93,0.22,5.16,0.46" style="fill:none;stroke:black;stroke-width:3;opacity:0">
  <animate attributeType="CSS" attributeName="opacity" from="0" to="1" begin="5s" dur="1s" repeatCount="Indefinite" fill="freeze" />
</path>
<path d="M53.36,30.88c0.74,0.39,2.29,2.91,2.44,3.68c0.15,0.78-0.09,60.33-0.24,65.18" style="fill:none;stroke:black;stroke-width:3;opacity:0">
  <animate attributeType="CSS" attributeName="opacity" from="0" to="1" begin="6s" dur="1s" repeatCount="Indefinite" fill="freeze" />
</path>
</svg>