<svg width="109px" height="109px" viewBox="0 0 px 109px" xmlns="http://www.w3.org/2000/svg" xmlns:xlink="http://www.w3.org/1999/xlink" xml:space="preserve" version="1.1"  baseProfile="full">
<path d="M38.55,18.25c0.07,0.61-0.17,1.55-0.63,2.19C32.12,28.38,24.38,35.5,14,43.04" style="fill:none;stroke:black;stroke-width:3;opacity:0">
  <animate attributeType="CSS" attributeName="opacity" from="0" to="1" begin="0s" dur="1s" repeatCount="0" fill="freeze" />
</path>
<path d="M20.5,22.75c26.28,22.15,16.74,78.88,5.85,66.6" style="fill:none;stroke:black;stroke-width:3;opacity:0">
  <animate attributeType="CSS" attributeName="opacity" from="0" to="1" begin="1s" dur="1s" repeatCount="0" fill="freeze" />
</path>
<path d="M32.07,46.5c0.1,1.2-0.13,2.37-0.7,3.45C26.99,58.33,22.64,64.18,12,73.38" style="fill:none;stroke:black;stroke-width:3;opacity:0">
  <animate attributeType="CSS" attributeName="opacity" from="0" to="1" begin="2s" dur="1s" repeatCount="0" fill="freeze" />
</path>
<path d="M66.46,14.25c0.89,0.89,1.07,1.88,1.07,3.36c0,3.21-0.03,6.21-0.03,9.14" style="fill:none;stroke:black;stroke-width:3;opacity:0">
  <animate attributeType="CSS" attributeName="opacity" from="0" to="1" begin="3s" dur="1s" repeatCount="0" fill="freeze" />
</path>
<path d="M47.88,26.88c0,3.3-2.85,12.38-4.14,14.58" style="fill:none;stroke:black;stroke-width:3;opacity:0">
  <animate attributeType="CSS" attributeName="opacity" from="0" to="1" begin="4s" dur="1s" repeatCount="0" fill="freeze" />
</path>
<path d="M48.3,30.79c10.95-2.04,34.84-5.31,41.53-5.21c8.43,0.14,3.05,5.04-0.35,7.74" style="fill:none;stroke:black;stroke-width:3;opacity:0">
  <animate attributeType="CSS" attributeName="opacity" from="0" to="1" begin="5s" dur="1s" repeatCount="0" fill="freeze" />
</path>
<path d="M43.57,54.83c2.3,0.3,5.02,0.19,7.43-0.15c11.96-1.71,27.8-4.09,37.98-5.33c2.75-0.34,5.52-0.47,8.22,0.08" style="fill:none;stroke:black;stroke-width:3;opacity:0">
  <animate attributeType="CSS" attributeName="opacity" from="0" to="1" begin="6s" dur="1s" repeatCount="0" fill="freeze" />
</path>
<path d="M78.53,37.42c1.15,1.15,1.5,2.95,1.5,5.22c0,15.6-0.03,41.79-0.03,46.48c0,8.27-4,2.62-6.97-0.15" style="fill:none;stroke:black;stroke-width:3;opacity:0">
  <animate attributeType="CSS" attributeName="opacity" from="0" to="1" begin="7s" dur="1s" repeatCount="0" fill="freeze" />
</path>
<path d="M56.55,63.02c2.31,2.01,5.97,8.26,6.54,11.38" style="fill:none;stroke:black;stroke-width:3;opacity:0">
  <animate attributeType="CSS" attributeName="opacity" from="0" to="1" begin="8s" dur="1s" repeatCount="0" fill="freeze" />
</path>
</svg>