<svg width="109px" height="109px" viewBox="0 0 px 109px" xmlns="http://www.w3.org/2000/svg" xmlns:xlink="http://www.w3.org/1999/xlink" xml:space="preserve" version="1.1"  baseProfile="full">
<path d="M38.54,15.25c0.07,0.53,0.32,1.56-0.14,2.13c-5.88,7.32-11.86,12.49-26.15,20.41" style="fill:none;stroke:black;stroke-width:3;opacity:0">
  <animate attributeType="CSS" attributeName="opacity" from="0" to="1" begin="0s" dur="1s" repeatCount="0" fill="freeze" />
</path>
<path d="M16.5,15.25c28.25,23.5,18.75,89.75,5.75,74.5" style="fill:none;stroke:black;stroke-width:3;opacity:0">
  <animate attributeType="CSS" attributeName="opacity" from="0" to="1" begin="1s" dur="1s" repeatCount="0" fill="freeze" />
</path>
<path d="M29.83,43.5c0.05,0.68,0.22,2.01-0.1,2.75c-3.99,9.43-8.05,16.1-17.74,26.3" style="fill:none;stroke:black;stroke-width:3;opacity:0">
  <animate attributeType="CSS" attributeName="opacity" from="0" to="1" begin="2s" dur="1s" repeatCount="0" fill="freeze" />
</path>
<path d="M43.27,23.59c1.6,0.2,3.39,0.11,4.44,0.06C55,23.25,75,22,83.1,21.46c1.31-0.09,3.68,0.46,5.16,0.46" style="fill:none;stroke:black;stroke-width:3;opacity:0">
  <animate attributeType="CSS" attributeName="opacity" from="0" to="1" begin="3s" dur="1s" repeatCount="0" fill="freeze" />
</path>
<path d="M64.12,12c0.3,0.44,0.46,0.95,0.45,1.89C64.25,26.93,57.5,40.75,45.5,44" style="fill:none;stroke:black;stroke-width:3;opacity:0">
  <animate attributeType="CSS" attributeName="opacity" from="0" to="1" begin="4s" dur="1s" repeatCount="0" fill="freeze" />
</path>
<path d="M66,27.5c6.59,3.16,14.22,8.28,18.25,13" style="fill:none;stroke:black;stroke-width:3;opacity:0">
  <animate attributeType="CSS" attributeName="opacity" from="0" to="1" begin="5s" dur="1s" repeatCount="0" fill="freeze" />
</path>
<path d="M39.63,49.27c1.59,0.84,4.52,1.04,6.11,0.84c9.5-1.2,34.62-2.89,47.81-4c2.65-0.22,4.25,0.4,5.58,0.83" style="fill:none;stroke:black;stroke-width:3;opacity:0">
  <animate attributeType="CSS" attributeName="opacity" from="0" to="1" begin="6s" dur="1s" repeatCount="0" fill="freeze" />
</path>
<path d="M47.95,59.99c0.27,0.29,0.55,0.54,0.67,0.9c0.95,2.91,2.58,10.92,3.23,16.14" style="fill:none;stroke:black;stroke-width:3;opacity:0">
  <animate attributeType="CSS" attributeName="opacity" from="0" to="1" begin="7s" dur="1s" repeatCount="0" fill="freeze" />
</path>
<path d="M49.65,60.96c5.6-0.96,15.89-2.69,19.1-3.07c1.17-0.14,2.37,1.83,2.21,2.65c-0.69,3.39-2,7-3.03,11.69" style="fill:none;stroke:black;stroke-width:3;opacity:0">
  <animate attributeType="CSS" attributeName="opacity" from="0" to="1" begin="8s" dur="1s" repeatCount="0" fill="freeze" />
</path>
<path d="M51.98,74.98c3.76-0.43,12.95-1.68,18.11-2.34" style="fill:none;stroke:black;stroke-width:3;opacity:0">
  <animate attributeType="CSS" attributeName="opacity" from="0" to="1" begin="9s" dur="1s" repeatCount="0" fill="freeze" />
</path>
<path d="M82.21,48.47c0.77,1.05,1.66,1.78,1.74,5.2c0.4,16.42-0.25,32.95-0.25,38.54c0,9.59-7.14,1.69-8.63,0.28" style="fill:none;stroke:black;stroke-width:3;opacity:0">
  <animate attributeType="CSS" attributeName="opacity" from="0" to="1" begin="10s" dur="1s" repeatCount="0" fill="freeze" />
</path>
</svg>