<svg width="109px" height="109px" viewBox="0 0 px 109px" xmlns="http://www.w3.org/2000/svg" xmlns:xlink="http://www.w3.org/1999/xlink" xml:space="preserve" version="1.1"  baseProfile="full">
<path d="M39.04,15.75c0.07,0.61,0.32,1.78-0.14,2.44c-5.94,8.37-11.97,14.3-26.4,23.35" style="fill:none;stroke:black;stroke-width:3;opacity:0">
  <animate attributeType="CSS" attributeName="opacity" from="0" to="1" begin="0s" dur="1s" repeatCount="0" fill="freeze" />
</path>
<path d="M17.5,19.25c31.8,22.54,19.65,81.57,6.47,69.07" style="fill:none;stroke:black;stroke-width:3;opacity:0">
  <animate attributeType="CSS" attributeName="opacity" from="0" to="1" begin="1s" dur="1s" repeatCount="0" fill="freeze" />
</path>
<path d="M31.84,43c0.04,0.65,0.2,1.9-0.09,2.61c-3.71,8.94-7.48,15.27-16.5,24.94" style="fill:none;stroke:black;stroke-width:3;opacity:0">
  <animate attributeType="CSS" attributeName="opacity" from="0" to="1" begin="2s" dur="1s" repeatCount="0" fill="freeze" />
</path>
<path d="M66.64,13.5c0.49,0.47,1.3,2.26,1.3,3.19c0,3.41-0.06,6.56-0.06,9.57" style="fill:none;stroke:black;stroke-width:3;opacity:0">
  <animate attributeType="CSS" attributeName="opacity" from="0" to="1" begin="3s" dur="1s" repeatCount="0" fill="freeze" />
</path>
<path d="M43.46,27.94c1.79,0.06,4.4,0.53,5.71,0.42c10.54-0.88,25.98-1.93,39.35-2.16c2.21-0.04,3.34,0.04,4.99,0.54" style="fill:none;stroke:black;stroke-width:3;opacity:0">
  <animate attributeType="CSS" attributeName="opacity" from="0" to="1" begin="4s" dur="1s" repeatCount="0" fill="freeze" />
</path>
<path d="M57.11,32.49c0,0.56,0.03,1-0.08,1.67c-0.58,3.48-6.07,15.07-10.77,20.22" style="fill:none;stroke:black;stroke-width:3;opacity:0">
  <animate attributeType="CSS" attributeName="opacity" from="0" to="1" begin="5s" dur="1s" repeatCount="0" fill="freeze" />
</path>
<path d="M56.8,42.21c3.16,1.42,7.19,5.2,8.73,8.79" style="fill:none;stroke:black;stroke-width:3;opacity:0">
  <animate attributeType="CSS" attributeName="opacity" from="0" to="1" begin="6s" dur="1s" repeatCount="0" fill="freeze" />
</path>
<path d="M80.85,32.49c0,0.47,0.03,0.84-0.08,1.4c-0.57,2.92-5.95,12.66-10.56,16.98" style="fill:none;stroke:black;stroke-width:3;opacity:0">
  <animate attributeType="CSS" attributeName="opacity" from="0" to="1" begin="7s" dur="1s" repeatCount="0" fill="freeze" />
</path>
<path d="M80.36,41.71c3.63,1.62,8.27,5.94,10.04,10.04" style="fill:none;stroke:black;stroke-width:3;opacity:0">
  <animate attributeType="CSS" attributeName="opacity" from="0" to="1" begin="8s" dur="1s" repeatCount="0" fill="freeze" />
</path>
<path d="M43.5,68.93c1.26,0.45,3.57,0.57,4.82,0.45c15.99-1.48,34.49-3.29,45.53-3.47c2.09-0.03,3.35,0.22,4.4,0.45" style="fill:none;stroke:black;stroke-width:3;opacity:0">
  <animate attributeType="CSS" attributeName="opacity" from="0" to="1" begin="9s" dur="1s" repeatCount="0" fill="freeze" />
</path>
<path d="M67.64,58c0.67,0.56,1.71,1.5,1.71,4.3c0,1.13-0.09,28.21-0.22,35.2" style="fill:none;stroke:black;stroke-width:3;opacity:0">
  <animate attributeType="CSS" attributeName="opacity" from="0" to="1" begin="10s" dur="1s" repeatCount="0" fill="freeze" />
</path>
</svg>