<svg width="109px" height="109px" viewBox="0 0 px 109px" xmlns="http://www.w3.org/2000/svg" xmlns:xlink="http://www.w3.org/1999/xlink" xml:space="preserve" version="1.1"  baseProfile="full">
<path d="M12,22.91c3.02,3.35,6.25,9.22,6.69,10.9" style="fill:none;stroke:black;stroke-width:3;opacity:0">
  <animate attributeType="CSS" attributeName="opacity" from="0" to="1" begin="0s" dur="1s" repeatCount="Indefinite" fill="freeze" />
</path>
<path d="M26.62,20.25c1.54,2.17,5.25,7.85,5.87,11.37" style="fill:none;stroke:black;stroke-width:3;opacity:0">
  <animate attributeType="CSS" attributeName="opacity" from="0" to="1" begin="1s" dur="1s" repeatCount="Indefinite" fill="freeze" />
</path>
<path d="M46.16,18.69c0.4,0.68,0.43,1.73-0.15,2.99c-1.01,2.2-4.09,6.76-5.49,8.81" style="fill:none;stroke:black;stroke-width:3;opacity:0">
  <animate attributeType="CSS" attributeName="opacity" from="0" to="1" begin="2s" dur="1s" repeatCount="Indefinite" fill="freeze" />
</path>
<path d="M15.55,41.27c0.72,0.72,1.02,1.59,1.33,2.98c1,4.5,1.67,8.85,2.34,13.97c0.17,1.33,0.32,2.63,0.43,3.86" style="fill:none;stroke:black;stroke-width:3;opacity:0">
  <animate attributeType="CSS" attributeName="opacity" from="0" to="1" begin="3s" dur="1s" repeatCount="Indefinite" fill="freeze" />
</path>
<path d="M17.09,42.48c8.78-1.98,18.01-3.45,24.53-4.51c4.27-0.7,6.5-0.79,5.98,4.16c-0.36,3.49-0.91,8.43-1.83,12.88c-0.25,1.18-0.52,2.33-0.82,3.41" style="fill:none;stroke:black;stroke-width:3;opacity:0">
  <animate attributeType="CSS" attributeName="opacity" from="0" to="1" begin="4s" dur="1s" repeatCount="Indefinite" fill="freeze" />
</path>
<path d="M31.09,41.16c0.75,0.75,0.97,1.74,0.97,3.09C32.08,49.27,32,53.12,32,57.12" style="fill:none;stroke:black;stroke-width:3;opacity:0">
  <animate attributeType="CSS" attributeName="opacity" from="0" to="1" begin="5s" dur="1s" repeatCount="Indefinite" fill="freeze" />
</path>
<path d="M19.26,51.06c7.61-1.31,19.24-2.81,26.39-3.43" style="fill:none;stroke:black;stroke-width:3;opacity:0">
  <animate attributeType="CSS" attributeName="opacity" from="0" to="1" begin="6s" dur="1s" repeatCount="Indefinite" fill="freeze" />
</path>
<path d="M20.8,60.04c5.65-0.65,13.95-1.92,23.22-2.73" style="fill:none;stroke:black;stroke-width:3;opacity:0">
  <animate attributeType="CSS" attributeName="opacity" from="0" to="1" begin="7s" dur="1s" repeatCount="Indefinite" fill="freeze" />
</path>
<path d="M10.25,68.89c1.88,0.76,4.07,0.38,5.99,0.09c8.13-1.23,19.88-3.1,28.63-3.9c2.28-0.21,4.14-0.62,6.38-0.07" style="fill:none;stroke:black;stroke-width:3;opacity:0">
  <animate attributeType="CSS" attributeName="opacity" from="0" to="1" begin="8s" dur="1s" repeatCount="Indefinite" fill="freeze" />
</path>
<path d="M16.9,76.67c0.77,0.55,1.19,1.32,1.27,2.29c0.67,2.34,1.44,6.12,2.26,9.5c0.39,1.6,0.71,3.11,0.92,4.33" style="fill:none;stroke:black;stroke-width:3;opacity:0">
  <animate attributeType="CSS" attributeName="opacity" from="0" to="1" begin="9s" dur="1s" repeatCount="Indefinite" fill="freeze" />
</path>
<path d="M19.05,77.99c7.91-1.51,17.89-3.35,22.85-4.09c2.75-0.41,4.36,0.14,3.55,3.12c-0.72,2.65-1.1,4.23-2.57,8.16" style="fill:none;stroke:black;stroke-width:3;opacity:0">
  <animate attributeType="CSS" attributeName="opacity" from="0" to="1" begin="10s" dur="1s" repeatCount="Indefinite" fill="freeze" />
</path>
<path d="M22.38,89.38c3.43-0.44,13.2-1.99,19.62-2.86c1.48-0.2,2.78-0.37,3.79-0.47" style="fill:none;stroke:black;stroke-width:3;opacity:0">
  <animate attributeType="CSS" attributeName="opacity" from="0" to="1" begin="11s" dur="1s" repeatCount="Indefinite" fill="freeze" />
</path>
<path d="M54.12,47.36c1.9,0.86,4.61,0.63,6.61,0.31c6.03-0.94,14.38-2.74,20.14-3.56c2.27-0.32,3.89-0.22,6.13,0.34" style="fill:none;stroke:black;stroke-width:3;opacity:0">
  <animate attributeType="CSS" attributeName="opacity" from="0" to="1" begin="12s" dur="1s" repeatCount="Indefinite" fill="freeze" />
</path>
<path d="M66.82,19c0.59,1.06,0.95,2.1,1.03,4.2C68.88,50.65,65.25,80.25,47,93.25" style="fill:none;stroke:black;stroke-width:3;opacity:0">
  <animate attributeType="CSS" attributeName="opacity" from="0" to="1" begin="13s" dur="1s" repeatCount="Indefinite" fill="freeze" />
</path>
<path d="M67,48.88c4.75,11.25,12.5,24.38,20.47,34.52c1.76,2.24,4.03,5.36,7.03,7.36" style="fill:none;stroke:black;stroke-width:3;opacity:0">
  <animate attributeType="CSS" attributeName="opacity" from="0" to="1" begin="14s" dur="1s" repeatCount="Indefinite" fill="freeze" />
</path>
<path d="M76.83,23.25c5,3.15,6.37,5.55,7.92,8.5" style="fill:none;stroke:black;stroke-width:3;opacity:0">
  <animate attributeType="CSS" attributeName="opacity" from="0" to="1" begin="15s" dur="1s" repeatCount="Indefinite" fill="freeze" />
</path>
</svg>