<svg width="109px" height="109px" viewBox="0 0 px 109px" xmlns="http://www.w3.org/2000/svg" xmlns:xlink="http://www.w3.org/1999/xlink" xml:space="preserve" version="1.1"  baseProfile="full">
<path d="M35.82,17.75c0,1.12,0.06,2.12-0.61,3.12C29.98,28.65,25.62,33,15,42.04" style="fill:none;stroke:black;stroke-width:3;opacity:0">
  <animate attributeType="CSS" attributeName="opacity" from="0" to="1" begin="0s" dur="1s" repeatCount="0" fill="freeze" />
</path>
<path d="M20.5,20.5c24.72,20.64,18.27,80.33,7,67.75" style="fill:none;stroke:black;stroke-width:3;opacity:0">
  <animate attributeType="CSS" attributeName="opacity" from="0" to="1" begin="1s" dur="1s" repeatCount="0" fill="freeze" />
</path>
<path d="M31.83,43.75c0.05,0.71,0.22,2.08-0.1,2.85c-3.98,9.77-7.46,15.34-17.11,25.9" style="fill:none;stroke:black;stroke-width:3;opacity:0">
  <animate attributeType="CSS" attributeName="opacity" from="0" to="1" begin="2s" dur="1s" repeatCount="0" fill="freeze" />
</path>
<path d="M42.25,22.97c2.25,0.53,4.3,0.26,6.13,0.08c8.92-0.87,24.82-2.84,34.37-3.31c2.09-0.1,4.19-0.2,6.25,0.26" style="fill:none;stroke:black;stroke-width:3;opacity:0">
  <animate attributeType="CSS" attributeName="opacity" from="0" to="1" begin="3s" dur="1s" repeatCount="0" fill="freeze" />
</path>
<path d="M53.83,14.57c0.86,0.86,1.29,1.43,1.59,2.73c1.35,5.86,1.74,8.06,2.01,10.22" style="fill:none;stroke:black;stroke-width:3;opacity:0">
  <animate attributeType="CSS" attributeName="opacity" from="0" to="1" begin="4s" dur="1s" repeatCount="0" fill="freeze" />
</path>
<path d="M74.84,11.89c0.53,0.86,0.62,1.76,0.34,2.84c-0.94,3.64-1.56,6.64-2.81,11.02" style="fill:none;stroke:black;stroke-width:3;opacity:0">
  <animate attributeType="CSS" attributeName="opacity" from="0" to="1" begin="5s" dur="1s" repeatCount="0" fill="freeze" />
</path>
<path d="M53.38,30.59c0.11,0.9-0.03,2.07-0.39,2.84c-2.3,4.9-5.21,9.04-10.47,15" style="fill:none;stroke:black;stroke-width:3;opacity:0">
  <animate attributeType="CSS" attributeName="opacity" from="0" to="1" begin="6s" dur="1s" repeatCount="0" fill="freeze" />
</path>
<path d="M50.98,40.31c0.67,0.67,0.94,1.56,0.94,2.93c0,4.37,0.02,11.96,0.04,17.51c0,1.92,0.01,3.54,0.01,4.59" style="fill:none;stroke:black;stroke-width:3;opacity:0">
  <animate attributeType="CSS" attributeName="opacity" from="0" to="1" begin="7s" dur="1s" repeatCount="0" fill="freeze" />
</path>
<path d="M69.58,29.41c0.03,0.36-0.01,0.84-0.1,1.15c-0.57,1.99-1.3,3.52-2.61,5.94" style="fill:none;stroke:black;stroke-width:3;opacity:0">
  <animate attributeType="CSS" attributeName="opacity" from="0" to="1" begin="8s" dur="1s" repeatCount="0" fill="freeze" />
</path>
<path d="M51.68,39.81c5.44-0.42,20.62-2.21,27.82-3.02c1.69-0.19,2.93-0.33,3.48-0.38" style="fill:none;stroke:black;stroke-width:3;opacity:0">
  <animate attributeType="CSS" attributeName="opacity" from="0" to="1" begin="9s" dur="1s" repeatCount="0" fill="freeze" />
</path>
<path d="M66.35,39.62c0.7,0.7,1.08,1.76,1.08,3.41c0,5.43-0.04,14.23-0.04,17.27" style="fill:none;stroke:black;stroke-width:3;opacity:0">
  <animate attributeType="CSS" attributeName="opacity" from="0" to="1" begin="10s" dur="1s" repeatCount="0" fill="freeze" />
</path>
<path d="M52.63,47.55C57.76,47.2,70.81,45.8,77,45.05c1.51-0.18,2.62-0.31,3.16-0.36" style="fill:none;stroke:black;stroke-width:3;opacity:0">
  <animate attributeType="CSS" attributeName="opacity" from="0" to="1" begin="11s" dur="1s" repeatCount="0" fill="freeze" />
</path>
<path d="M52.98,54.96c5.41-0.29,17.75-1.86,24.28-2.56c1.54-0.17,2.7-0.28,3.29-0.32" style="fill:none;stroke:black;stroke-width:3;opacity:0">
  <animate attributeType="CSS" attributeName="opacity" from="0" to="1" begin="12s" dur="1s" repeatCount="0" fill="freeze" />
</path>
<path d="M53.06,62.88c5.45-0.42,22.64-2.2,30.7-3.3c1.89-0.26,3.25-0.44,3.8-0.49" style="fill:none;stroke:black;stroke-width:3;opacity:0">
  <animate attributeType="CSS" attributeName="opacity" from="0" to="1" begin="13s" dur="1s" repeatCount="0" fill="freeze" />
</path>
<path d="M51.19,70.95c1.73,0.56,3.56,0.34,5.33,0.11c5.17-0.68,17.79-3.13,19.23-3.53c2.38-0.66,3.25,1.71,2.23,3.27C70.24,82.62,59.25,90,42.5,95.75" style="fill:none;stroke:black;stroke-width:3;opacity:0">
  <animate attributeType="CSS" attributeName="opacity" from="0" to="1" begin="14s" dur="1s" repeatCount="0" fill="freeze" />
</path>
<path d="M50.28,75.65c6.56,0.5,21.11,10.14,33.62,15.35c2.78,1.16,5.11,2.37,8.19,2.98" style="fill:none;stroke:black;stroke-width:3;opacity:0">
  <animate attributeType="CSS" attributeName="opacity" from="0" to="1" begin="15s" dur="1s" repeatCount="0" fill="freeze" />
</path>
</svg>