<svg width="109px" height="109px" viewBox="0 0 px 109px" xmlns="http://www.w3.org/2000/svg" xmlns:xlink="http://www.w3.org/1999/xlink" xml:space="preserve" version="1.1"  baseProfile="full">
<path d="M28.5,23.34c0.95,0.51,4.04,0.66,5,0.52C45.75,22,57,20,75.5,18.21c1.46-0.14,2.79,0.1,4,0.52" style="fill:none;stroke:black;stroke-width:3;opacity:0">
  <animate attributeType="CSS" attributeName="opacity" from="0" to="1" begin="0s" dur="1s" repeatCount="Indefinite" fill="freeze" />
</path>
<path d="M28.75,56.12c0.94,0.55,4.04,0.86,5,0.73c9.5-1.34,29.25-4.59,39-5.38c1.17-0.1,3.75-0.22,5.5,0.26" style="fill:none;stroke:black;stroke-width:3;opacity:0">
  <animate attributeType="CSS" attributeName="opacity" from="0" to="1" begin="1s" dur="1s" repeatCount="Indefinite" fill="freeze" />
</path>
<path d="M16,90.51c0.91,0.31,4.41,0.41,5.94,0.25c14.31-1.5,50.81-4.75,67.87-4.85c2.48-0.01,5.45,0.51,6.69,1" style="fill:none;stroke:black;stroke-width:3;opacity:0">
  <animate attributeType="CSS" attributeName="opacity" from="0" to="1" begin="2s" dur="1s" repeatCount="Indefinite" fill="freeze" />
</path>
<path d="M52,24.6c1,1.21,2,2.4,2,4.41c0,6.79,0.5,50.15,0.25,56.94" style="fill:none;stroke:black;stroke-width:3;opacity:0">
  <animate attributeType="CSS" attributeName="opacity" from="0" to="1" begin="3s" dur="1s" repeatCount="Indefinite" fill="freeze" />
</path>
<path d="M72,64c5.43,2.74,10.09,8.57,11.25,12" style="fill:none;stroke:black;stroke-width:3;opacity:0">
  <animate attributeType="CSS" attributeName="opacity" from="0" to="1" begin="4s" dur="1s" repeatCount="Indefinite" fill="freeze" />
</path>
</svg>