<svg width="109px" height="109px" viewBox="0 0 px 109px" xmlns="http://www.w3.org/2000/svg" xmlns:xlink="http://www.w3.org/1999/xlink" xml:space="preserve" version="1.1"  baseProfile="full">
<path d="M29.5,21.22c0.95,0.52,4.04,0.15,5,0.03C45,20,65.25,17.5,76,16.96c1.46-0.07,2.79,0.1,4,0.54" style="fill:none;stroke:black;stroke-width:3;opacity:0">
  <animate attributeType="CSS" attributeName="opacity" from="0" to="1" begin="0s" dur="1s" repeatCount="Indefinite" fill="freeze" />
</path>
<path d="M29.25,55c0.94,0.57,4.04,0.35,5,0.25c10-1,27.75-3,39.5-4.02c1.17-0.1,3.75-0.23,5.5,0.27" style="fill:none;stroke:black;stroke-width:3;opacity:0">
  <animate attributeType="CSS" attributeName="opacity" from="0" to="1" begin="1s" dur="1s" repeatCount="Indefinite" fill="freeze" />
</path>
<path d="M13.75,91.49c0.92,0.32,5.7,0.17,7.25,0.01c21.75-2.25,44.5-5,67.75-5.78c2.5-0.08,5.5,0.53,6.75,1.03" style="fill:none;stroke:black;stroke-width:3;opacity:0">
  <animate attributeType="CSS" attributeName="opacity" from="0" to="1" begin="2s" dur="1s" repeatCount="Indefinite" fill="freeze" />
</path>
<path d="M52.4,22c1.92,2.4,1.92,3.83,1.92,5.75c0,13.41-0.02,38.75-0.02,60.25" style="fill:none;stroke:black;stroke-width:3;opacity:0">
  <animate attributeType="CSS" attributeName="opacity" from="0" to="1" begin="3s" dur="1s" repeatCount="Indefinite" fill="freeze" />
</path>
</svg>