<svg width="109px" height="109px" viewBox="0 0 px 109px" xmlns="http://www.w3.org/2000/svg" xmlns:xlink="http://www.w3.org/1999/xlink" xml:space="preserve" version="1.1"  baseProfile="full">
<path d="M11.27,21.73c0.61,0.4,3.93,0.49,4.55,0.37c2.88-0.54,15.59-2.79,22.51-3.38c0.94-0.08,2.69-0.29,3.47,0.05" style="fill:none;stroke:black;stroke-width:3;opacity:0">
  <animate attributeType="CSS" attributeName="opacity" from="0" to="1" begin="0s" dur="1s" repeatCount="0" fill="freeze" />
</path>
<path d="M11.4,48.1c0.51,0.37,4.1,0.43,4.62,0.34c2.99-0.49,15.54-2.84,19.68-3.36c0.64-0.08,2.96-0.15,3.92,0.18" style="fill:none;stroke:black;stroke-width:3;opacity:0">
  <animate attributeType="CSS" attributeName="opacity" from="0" to="1" begin="1s" dur="1s" repeatCount="0" fill="freeze" />
</path>
<path d="M11.12,82.85c0.88,1.15,2.43,0.61,3.33,0.14c5.74-3.01,13.95-7.38,22.7-12.58" style="fill:none;stroke:black;stroke-width:3;opacity:0">
  <animate attributeType="CSS" attributeName="opacity" from="0" to="1" begin="2s" dur="1s" repeatCount="0" fill="freeze" />
</path>
<path d="M25.29,23.71c0.95,0.97,1.62,3.04,1.62,3.81c0,6.51,0.07,44.16-0.12,48.48" style="fill:none;stroke:black;stroke-width:3;opacity:0">
  <animate attributeType="CSS" attributeName="opacity" from="0" to="1" begin="3s" dur="1s" repeatCount="0" fill="freeze" />
</path>
<path d="M59.75,14.75c0.07,0.91,0.14,2.36-0.13,3.67c-1.62,7.73-8.4,24.7-21.11,35.08" style="fill:none;stroke:black;stroke-width:3;opacity:0">
  <animate attributeType="CSS" attributeName="opacity" from="0" to="1" begin="4s" dur="1s" repeatCount="0" fill="freeze" />
</path>
<path d="M58.25,24.38c1.75,0.37,3.5,0.34,5.5,0.1c4-0.48,10.34-2.55,12.44-2.74c2.56-0.24,3.35,1.25,2.81,2.76c-7.25,20.5-21.25,51-49,69" style="fill:none;stroke:black;stroke-width:3;opacity:0">
  <animate attributeType="CSS" attributeName="opacity" from="0" to="1" begin="5s" dur="1s" repeatCount="0" fill="freeze" />
</path>
<path d="M67.5,53.75c3.69,5.49,19.86,31.46,23.87,36.86c1.36,1.83,2.52,2.62,3.88,3.14" style="fill:none;stroke:black;stroke-width:3;opacity:0">
  <animate attributeType="CSS" attributeName="opacity" from="0" to="1" begin="6s" dur="1s" repeatCount="0" fill="freeze" />
</path>
</svg>