<svg width="109px" height="109px" viewBox="0 0 px 109px" xmlns="http://www.w3.org/2000/svg" xmlns:xlink="http://www.w3.org/1999/xlink" xml:space="preserve" version="1.1"  baseProfile="full">
<path d="M11.75,26.25c0.69,0.37,4.46,0.45,5.16,0.34c3.27-0.5,16.55-2.09,24.4-2.64c1.07-0.07,3.05-0.26,3.94,0.04" style="fill:none;stroke:black;stroke-width:3;opacity:0">
  <animate attributeType="CSS" attributeName="opacity" from="0" to="1" begin="0s" dur="1s" repeatCount="0" fill="freeze" />
</path>
<path d="M27.57,28.52c0.87,0.88,1.48,2.78,1.48,3.48c0,5.95,0.52,44.62,0.35,48.57" style="fill:none;stroke:black;stroke-width:3;opacity:0">
  <animate attributeType="CSS" attributeName="opacity" from="0" to="1" begin="1s" dur="1s" repeatCount="0" fill="freeze" />
</path>
<path d="M13,53.19c0.58,0.22,4.64,0.25,5.23,0.2c3.39-0.28,15.89-1.94,20.58-2.25c0.72-0.05,3.35-0.09,4.43,0.1" style="fill:none;stroke:black;stroke-width:3;opacity:0">
  <animate attributeType="CSS" attributeName="opacity" from="0" to="1" begin="2s" dur="1s" repeatCount="0" fill="freeze" />
</path>
<path d="M12.25,87.75c1.25,0.75,2.65,0.97,4.5,0C22,85,33.5,78.5,41.5,73.75" style="fill:none;stroke:black;stroke-width:3;opacity:0">
  <animate attributeType="CSS" attributeName="opacity" from="0" to="1" begin="3s" dur="1s" repeatCount="0" fill="freeze" />
</path>
<path d="M70.9,13c0.51,0.84,0.69,1.9,0.46,2.59c-1.67,5.08-6.85,14.6-12.42,20.38" style="fill:none;stroke:black;stroke-width:3;opacity:0">
  <animate attributeType="CSS" attributeName="opacity" from="0" to="1" begin="4s" dur="1s" repeatCount="0" fill="freeze" />
</path>
<path d="M51.3,36.76c0.65,1.14,1.3,3.03,1.3,4.55c0,1.51,0.8,47.6,0.8,56.69" style="fill:none;stroke:black;stroke-width:3;opacity:0">
  <animate attributeType="CSS" attributeName="opacity" from="0" to="1" begin="5s" dur="1s" repeatCount="0" fill="freeze" />
</path>
<path d="M52.99,39c3.67-0.19,32.39-3.07,35.72-3.39c2.12-0.21,3.48,1.24,3.48,3.63c-0.01,4.08,0.37,45.12-0.32,57.62" style="fill:none;stroke:black;stroke-width:3;opacity:0">
  <animate attributeType="CSS" attributeName="opacity" from="0" to="1" begin="6s" dur="1s" repeatCount="0" fill="freeze" />
</path>
<path d="M53.49,64.97c7.68-0.57,32.69-3.11,38.29-3.11" style="fill:none;stroke:black;stroke-width:3;opacity:0">
  <animate attributeType="CSS" attributeName="opacity" from="0" to="1" begin="7s" dur="1s" repeatCount="0" fill="freeze" />
</path>
<path d="M54.27,92.53c9.19-0.61,27.08-2.06,36.89-2.34" style="fill:none;stroke:black;stroke-width:3;opacity:0">
  <animate attributeType="CSS" attributeName="opacity" from="0" to="1" begin="8s" dur="1s" repeatCount="0" fill="freeze" />
</path>
</svg>