<svg width="109px" height="109px" viewBox="0 0 px 109px" xmlns="http://www.w3.org/2000/svg" xmlns:xlink="http://www.w3.org/1999/xlink" xml:space="preserve" version="1.1"  baseProfile="full">
<path d="M10.75,28.42c0.56,0.37,3.6,0.45,4.16,0.34c2.63-0.5,15.34-1.59,21.66-2.14c0.86-0.07,2.46-0.26,3.18,0.04" style="fill:none;stroke:black;stroke-width:3;opacity:0">
  <animate attributeType="CSS" attributeName="opacity" from="0" to="1" begin="0s" dur="1s" repeatCount="0" fill="freeze" />
</path>
<path d="M11.5,52.67c0.55,0.4,4.45,0.46,5.01,0.37c3.25-0.53,13.24-2.62,17.73-3.19c0.69-0.09,2.22-0.16,3.25,0.19" style="fill:none;stroke:black;stroke-width:3;opacity:0">
  <animate attributeType="CSS" attributeName="opacity" from="0" to="1" begin="1s" dur="1s" repeatCount="0" fill="freeze" />
</path>
<path d="M11.75,81.02c2,1.23,3.68,0.81,4.5,0.4C21.5,78.85,28,75.61,36,71.17" style="fill:none;stroke:black;stroke-width:3;opacity:0">
  <animate attributeType="CSS" attributeName="opacity" from="0" to="1" begin="2s" dur="1s" repeatCount="0" fill="freeze" />
</path>
<path d="M24.57,30.19c0.87,0.88,1.48,2.78,1.48,3.48c0,5.95,0.52,37.62,0.35,41.57" style="fill:none;stroke:black;stroke-width:3;opacity:0">
  <animate attributeType="CSS" attributeName="opacity" from="0" to="1" begin="3s" dur="1s" repeatCount="0" fill="freeze" />
</path>
<path d="M61.03,14.25c0.05,0.73,0.3,1.96-0.11,2.96C57.65,25.08,51.4,36.64,41.3,45.5" style="fill:none;stroke:black;stroke-width:3;opacity:0">
  <animate attributeType="CSS" attributeName="opacity" from="0" to="1" begin="4s" dur="1s" repeatCount="0" fill="freeze" />
</path>
<path d="M61.84,18.17c4.34,4.73,23.04,20.2,27.82,23.66c1.62,1.18,3.71,1.68,5.33,2.01" style="fill:none;stroke:black;stroke-width:3;opacity:0">
  <animate attributeType="CSS" attributeName="opacity" from="0" to="1" begin="5s" dur="1s" repeatCount="0" fill="freeze" />
</path>
<path d="M68.14,38.65c0.06,0.45-0.21,1.77-0.62,2.3c-3.27,4.3-8.69,9.89-19.81,16.08" style="fill:none;stroke:black;stroke-width:3;opacity:0">
  <animate attributeType="CSS" attributeName="opacity" from="0" to="1" begin="6s" dur="1s" repeatCount="0" fill="freeze" />
</path>
<path d="M73.84,55.74c0.08,0.51-0.16,1.43-0.65,2.04c-4.47,5.5-11.11,13.03-26.26,19.53" style="fill:none;stroke:black;stroke-width:3;opacity:0">
  <animate attributeType="CSS" attributeName="opacity" from="0" to="1" begin="7s" dur="1s" repeatCount="0" fill="freeze" />
</path>
<path d="M82.43,70.96c0.12,0.63-0.04,1.77-0.73,2.52C75.98,79.83,62.5,91.25,41.22,97.6" style="fill:none;stroke:black;stroke-width:3;opacity:0">
  <animate attributeType="CSS" attributeName="opacity" from="0" to="1" begin="8s" dur="1s" repeatCount="0" fill="freeze" />
</path>
</svg>