<svg width="109px" height="109px" viewBox="0 0 px 109px" xmlns="http://www.w3.org/2000/svg" xmlns:xlink="http://www.w3.org/1999/xlink" xml:space="preserve" version="1.1"  baseProfile="full">
<path d="M13.77,27.61c0.63,0.34,2.67,0.08,3.31,0.02C21,27.25,32,25.5,37.85,24.8c0.96-0.12,1.9,0.2,3.15,0.36" style="fill:none;stroke:black;stroke-width:3;opacity:0">
  <animate attributeType="CSS" attributeName="opacity" from="0" to="1" begin="0s" dur="1s" repeatCount="0" fill="freeze" />
</path>
<path d="M13.82,52.55c0.59,0.36,2.55,0.28,3.15,0.16c4.54-0.96,12.54-2.46,18.22-3.53c0.73-0.14,2.36-0.15,3.46,0.17" style="fill:none;stroke:black;stroke-width:3;opacity:0">
  <animate attributeType="CSS" attributeName="opacity" from="0" to="1" begin="1s" dur="1s" repeatCount="0" fill="freeze" />
</path>
<path d="M14.41,80.86c0.84,1.14,2.09,1.64,3.84,0.89c8.09-3.47,12.5-5.75,22.86-9.91" style="fill:none;stroke:black;stroke-width:3;opacity:0">
  <animate attributeType="CSS" attributeName="opacity" from="0" to="1" begin="2s" dur="1s" repeatCount="0" fill="freeze" />
</path>
<path d="M26.81,28.05c1.56,1.95,1.56,3.11,1.56,4.67c0,10.9-0.02,26.49-0.02,43.96" style="fill:none;stroke:black;stroke-width:3;opacity:0">
  <animate attributeType="CSS" attributeName="opacity" from="0" to="1" begin="3s" dur="1s" repeatCount="0" fill="freeze" />
</path>
<path d="M46.27,35.33c0.98,0.92,1.76,1.99,1.76,5.02c0,13.4-0.02,20.19-0.02,25.15" style="fill:none;stroke:black;stroke-width:3;opacity:0">
  <animate attributeType="CSS" attributeName="opacity" from="0" to="1" begin="4s" dur="1s" repeatCount="0" fill="freeze" />
</path>
<path d="M56.6,14.25c0.53,2.19,1.29,3.91,1.29,6.64c0,24.97,2.16,60.97-15.83,73.83" style="fill:none;stroke:black;stroke-width:3;opacity:0">
  <animate attributeType="CSS" attributeName="opacity" from="0" to="1" begin="5s" dur="1s" repeatCount="0" fill="freeze" />
</path>
<path d="M67.85,23.69c0.64,0.46,2.72,0.1,3.37,0.03c6.27-0.72,14.52-1.97,20.31-2.76c0.98-0.13,1.88,0.09,2.7,0.47" style="fill:none;stroke:black;stroke-width:3;opacity:0">
  <animate attributeType="CSS" attributeName="opacity" from="0" to="1" begin="6s" dur="1s" repeatCount="0" fill="freeze" />
</path>
<path d="M68.19,51.79c0.63,0.5,2.72,0.3,3.37,0.22c6.74-0.88,10.04-1.13,17.96-2.02c0.79-0.09,2.53-0.2,3.71,0.24" style="fill:none;stroke:black;stroke-width:3;opacity:0">
  <animate attributeType="CSS" attributeName="opacity" from="0" to="1" begin="7s" dur="1s" repeatCount="0" fill="freeze" />
</path>
<path d="M62.06,85.1c0.45,0.2,2.8,0.1,3.56,0c6.88-0.85,17.85-1.69,29.26-2.19c1.23-0.05,2.7,0.34,3.31,0.66" style="fill:none;stroke:black;stroke-width:3;opacity:0">
  <animate attributeType="CSS" attributeName="opacity" from="0" to="1" begin="8s" dur="1s" repeatCount="0" fill="freeze" />
</path>
<path d="M79.17,25.37c1.68,2.1,1.68,3.36,1.68,5.04c0,11.75-0.02,33.95-0.02,52.79" style="fill:none;stroke:black;stroke-width:3;opacity:0">
  <animate attributeType="CSS" attributeName="opacity" from="0" to="1" begin="9s" dur="1s" repeatCount="0" fill="freeze" />
</path>
</svg>