<svg width="109px" height="109px" viewBox="0 0 px 109px" xmlns="http://www.w3.org/2000/svg" xmlns:xlink="http://www.w3.org/1999/xlink" xml:space="preserve" version="1.1"  baseProfile="full">
<path d="M13.75,29.25c0.56,0.37,3.6,0.45,4.16,0.34c2.63-0.5,13.34-2.09,19.66-2.64c0.86-0.07,2.46-0.26,3.18,0.04" style="fill:none;stroke:black;stroke-width:3;opacity:0">
  <animate attributeType="CSS" attributeName="opacity" from="0" to="1" begin="0s" dur="1s" repeatCount="0" fill="freeze" />
</path>
<path d="M12.5,55c0.55,0.4,4.45,0.46,5.01,0.37c3.25-0.53,15.24-3.62,19.73-4.19c0.69-0.09,3.22-0.16,4.25,0.19" style="fill:none;stroke:black;stroke-width:3;opacity:0">
  <animate attributeType="CSS" attributeName="opacity" from="0" to="1" begin="1s" dur="1s" repeatCount="0" fill="freeze" />
</path>
<path d="M12.25,83.75c0.54,0.23,2.68,1.93,3.5,1.5C21,82.5,28.5,78.5,36.5,73.75" style="fill:none;stroke:black;stroke-width:3;opacity:0">
  <animate attributeType="CSS" attributeName="opacity" from="0" to="1" begin="2s" dur="1s" repeatCount="0" fill="freeze" />
</path>
<path d="M26.57,31.52c0.87,0.88,1.48,2.77,1.48,3.48c0,5.95,0.52,37.62,0.35,41.57" style="fill:none;stroke:black;stroke-width:3;opacity:0">
  <animate attributeType="CSS" attributeName="opacity" from="0" to="1" begin="3s" dur="1s" repeatCount="0" fill="freeze" />
</path>
<path d="M46.14,35.41c0.87,0.34,2.48,0.5,3.34,0.34c3.53-0.66,30.6-3.85,38.9-3.85c1.45,0,2.33,0.16,3.05,0.33" style="fill:none;stroke:black;stroke-width:3;opacity:0">
  <animate attributeType="CSS" attributeName="opacity" from="0" to="1" begin="4s" dur="1s" repeatCount="0" fill="freeze" />
</path>
<path d="M66.96,14.46c0.08,0.44,1.08,2.29,1.16,5.09c0.37,13.41-0.24,65.12-0.24,69.69c0,4.87-1.86,5.79-4.85,2.79c-1.6-1.6-1.79-1.41-3.17-2.56" style="fill:none;stroke:black;stroke-width:3;opacity:0">
  <animate attributeType="CSS" attributeName="opacity" from="0" to="1" begin="5s" dur="1s" repeatCount="0" fill="freeze" />
</path>
<path d="M48.68,46.06c3.41,1.36,8.82,5.61,9.67,7.73" style="fill:none;stroke:black;stroke-width:3;opacity:0">
  <animate attributeType="CSS" attributeName="opacity" from="0" to="1" begin="6s" dur="1s" repeatCount="0" fill="freeze" />
</path>
<path d="M41.25,81.75c1.91,2.88,3.51,1.28,5.42-1.19c1.13-1.45,9.08-11,14.98-18.55" style="fill:none;stroke:black;stroke-width:3;opacity:0">
  <animate attributeType="CSS" attributeName="opacity" from="0" to="1" begin="7s" dur="1s" repeatCount="0" fill="freeze" />
</path>
<path d="M88.28,41.49c0.05,0.33,0.09,0.91-0.11,1.35c-1.9,4.13-5.85,8.83-9.58,11.76" style="fill:none;stroke:black;stroke-width:3;opacity:0">
  <animate attributeType="CSS" attributeName="opacity" from="0" to="1" begin="8s" dur="1s" repeatCount="0" fill="freeze" />
</path>
<path d="M74.32,61.61c5.52,7.76,14.03,18.24,20.2,22.71c1.3,0.94,2.54,1.42,3.73,1.74" style="fill:none;stroke:black;stroke-width:3;opacity:0">
  <animate attributeType="CSS" attributeName="opacity" from="0" to="1" begin="9s" dur="1s" repeatCount="0" fill="freeze" />
</path>
<path d="M80.39,14.46c2.82,1.36,7.29,5.61,7.99,7.73" style="fill:none;stroke:black;stroke-width:3;opacity:0">
  <animate attributeType="CSS" attributeName="opacity" from="0" to="1" begin="10s" dur="1s" repeatCount="0" fill="freeze" />
</path>
</svg>