<svg width="109px" height="109px" viewBox="0 0 px 109px" xmlns="http://www.w3.org/2000/svg" xmlns:xlink="http://www.w3.org/1999/xlink" xml:space="preserve" version="1.1"  baseProfile="full">
<path d="M9.85,23.98c0.6,0.36,3.88,0.44,4.48,0.34c2.84-0.49,14.37-2.06,21.19-2.59c0.93-0.07,2.65-0.26,3.42,0.04" style="fill:none;stroke:black;stroke-width:3;opacity:0">
  <animate attributeType="CSS" attributeName="opacity" from="0" to="1" begin="0s" dur="1s" repeatCount="Indefinite" fill="freeze" />
</path>
<path d="M10.27,52c0.54,0.5,4.36,0.58,4.91,0.46c3.18-0.66,14-2.65,18.41-3.37c0.68-0.11,3.15-0.21,4.16,0.24" style="fill:none;stroke:black;stroke-width:3;opacity:0">
  <animate attributeType="CSS" attributeName="opacity" from="0" to="1" begin="1s" dur="1s" repeatCount="Indefinite" fill="freeze" />
</path>
<path d="M10,86.16c1.2,1.29,3.73,1.34,4.58,0.79c5.4-3.54,13.1-8.84,21.33-14.95" style="fill:none;stroke:black;stroke-width:3;opacity:0">
  <animate attributeType="CSS" attributeName="opacity" from="0" to="1" begin="2s" dur="1s" repeatCount="Indefinite" fill="freeze" />
</path>
<path d="M23.8,25.77c0.93,0.88,1.58,2.78,1.58,3.48c0,5.95,0.55,46.12,0.37,50.07" style="fill:none;stroke:black;stroke-width:3;opacity:0">
  <animate attributeType="CSS" attributeName="opacity" from="0" to="1" begin="3s" dur="1s" repeatCount="Indefinite" fill="freeze" />
</path>
<path d="M50.7,11.58c2.97,1.96,7.68,8.07,8.43,11.12" style="fill:none;stroke:black;stroke-width:3;opacity:0">
  <animate attributeType="CSS" attributeName="opacity" from="0" to="1" begin="4s" dur="1s" repeatCount="Indefinite" fill="freeze" />
</path>
<path d="M80.81,8.77c0.03,0.36,0.06,0.92-0.05,1.43c-0.65,3.02-4.37,9.64-9.46,13.7" style="fill:none;stroke:black;stroke-width:3;opacity:0">
  <animate attributeType="CSS" attributeName="opacity" from="0" to="1" begin="5s" dur="1s" repeatCount="Indefinite" fill="freeze" />
</path>
<path d="M46.13,28.43c0.81,0.34,3.8,0.41,4.61,0.34c6.48-0.52,27.86-3.81,35.17-3.68c1.35,0.02,3.66,0.16,4.34,0.33" style="fill:none;stroke:black;stroke-width:3;opacity:0">
  <animate attributeType="CSS" attributeName="opacity" from="0" to="1" begin="6s" dur="1s" repeatCount="Indefinite" fill="freeze" />
</path>
<path d="M48.59,41.97c0.81,0.34,2.29,0.38,3.11,0.34c6.71-0.31,24.02-2.81,33.22-2.96c1.35-0.02,2.16,0.16,2.84,0.33" style="fill:none;stroke:black;stroke-width:3;opacity:0">
  <animate attributeType="CSS" attributeName="opacity" from="0" to="1" begin="7s" dur="1s" repeatCount="Indefinite" fill="freeze" />
</path>
<path d="M41.27,56.62c1.31,0.48,3.71,0.55,5.02,0.48c7.28-0.35,32.59-3.35,46.37-3.66c2.18-0.05,3.5,0.23,4.59,0.47" style="fill:none;stroke:black;stroke-width:3;opacity:0">
  <animate attributeType="CSS" attributeName="opacity" from="0" to="1" begin="8s" dur="1s" repeatCount="Indefinite" fill="freeze" />
</path>
<path d="M65.32,27.18c1.08,0.45,1.73,2.01,1.94,2.9s0.5,19.36,0.28,24.93" style="fill:none;stroke:black;stroke-width:3;opacity:0">
  <animate attributeType="CSS" attributeName="opacity" from="0" to="1" begin="9s" dur="1s" repeatCount="Indefinite" fill="freeze" />
</path>
<path d="M53.01,59.27c0.05,0.86,0.19,2.3-0.1,3.44C50.75,71,45.25,84.5,35.57,94.9" style="fill:none;stroke:black;stroke-width:3;opacity:0">
  <animate attributeType="CSS" attributeName="opacity" from="0" to="1" begin="10s" dur="1s" repeatCount="Indefinite" fill="freeze" />
</path>
<path d="M54.53,70.11c0.78,0.45,3.34,0.6,4.13,0.46c3.69-0.61,20.49-2.65,26.69-3.12c1.21-0.09,2.31,0.09,3.31,0.47" style="fill:none;stroke:black;stroke-width:3;opacity:0">
  <animate attributeType="CSS" attributeName="opacity" from="0" to="1" begin="11s" dur="1s" repeatCount="Indefinite" fill="freeze" />
</path>
<path d="M68.78,71.29c0.83,1.09,0.83,1.75,0.83,2.62c0,6.11,0,13.3-0.21,19.41" style="fill:none;stroke:black;stroke-width:3;opacity:0">
  <animate attributeType="CSS" attributeName="opacity" from="0" to="1" begin="12s" dur="1s" repeatCount="Indefinite" fill="freeze" />
</path>
<path d="M45.5,94.57c0.76,0.28,3.05,0.62,4.34,0.5c15.41-1.33,29.74-2.07,42.34-2.48c2.07-0.07,4.55,0.46,5.58,0.9" style="fill:none;stroke:black;stroke-width:3;opacity:0">
  <animate attributeType="CSS" attributeName="opacity" from="0" to="1" begin="13s" dur="1s" repeatCount="Indefinite" fill="freeze" />
</path>
</svg>