<svg width="109px" height="109px" viewBox="0 0 px 109px" xmlns="http://www.w3.org/2000/svg" xmlns:xlink="http://www.w3.org/1999/xlink" xml:space="preserve" version="1.1"  baseProfile="full">
<path d="M31.02,27.14c0.03,0.57,0.07,1.47-0.07,2.28C30.13,34.23,25.43,44.79,19,51.25" style="fill:none;stroke:black;stroke-width:3;opacity:0">
  <animate attributeType="CSS" attributeName="opacity" from="0" to="1" begin="0s" dur="1s" repeatCount="Indefinite" fill="freeze" />
</path>
<path d="M30.88,40.92c0.94,0.38,2.66,0.46,3.6,0.38c6.77-0.55,34.52-6.8,40.36-7.38c1.56-0.16,2.21-0.09,3.03-0.02" style="fill:none;stroke:black;stroke-width:3;opacity:0">
  <animate attributeType="CSS" attributeName="opacity" from="0" to="1" begin="1s" dur="1s" repeatCount="Indefinite" fill="freeze" />
</path>
<path d="M30.88,64.53c0.94,0.28,2.66,0.34,3.6,0.28c6.77-0.4,35.52-4.99,41.36-5.42c1.56-0.11,2.21-0.06,3.03-0.02" style="fill:none;stroke:black;stroke-width:3;opacity:0">
  <animate attributeType="CSS" attributeName="opacity" from="0" to="1" begin="2s" dur="1s" repeatCount="Indefinite" fill="freeze" />
</path>
<path d="M17.88,91.25c1.47,0.3,4.15,0.36,5.62,0.3c10.56-0.43,52.41-5.34,61.52-5.8c2.43-0.12,4.48,0.25,6.73,0.98" style="fill:none;stroke:black;stroke-width:3;opacity:0">
  <animate attributeType="CSS" attributeName="opacity" from="0" to="1" begin="3s" dur="1s" repeatCount="Indefinite" fill="freeze" />
</path>
<path d="M51.81,12.88c0.76,0.52,2.36,3.93,2.51,4.98c0.15,1.05-0.1,63.46-0.25,70.02" style="fill:none;stroke:black;stroke-width:3;opacity:0">
  <animate attributeType="CSS" attributeName="opacity" from="0" to="1" begin="4s" dur="1s" repeatCount="Indefinite" fill="freeze" />
</path>
</svg>