<svg width="109px" height="109px" viewBox="0 0 px 109px" xmlns="http://www.w3.org/2000/svg" xmlns:xlink="http://www.w3.org/1999/xlink" xml:space="preserve" version="1.1"  baseProfile="full">
<path d="M20.38,21.8c0.78,0.78,1.24,2.2,1.42,3.56c1.16,8.91,2.8,20.86,3.9,32.39c0.21,2.18,0.4,4.28,0.58,6.25" style="fill:none;stroke:black;stroke-width:3;opacity:0">
  <animate attributeType="CSS" attributeName="opacity" from="0" to="1" begin="0s" dur="1s" repeatCount="Indefinite" fill="freeze" />
</path>
<path d="M22.08,23.65c19.79-2.15,46.08-4.71,58.42-5.42c4.99-0.29,6.87,1.86,6.42,6.76c-0.62,6.67-3.04,20.82-4.36,28.81c-0.51,3.11-0.93,5.39-1.14,6.15" style="fill:none;stroke:black;stroke-width:3;opacity:0">
  <animate attributeType="CSS" attributeName="opacity" from="0" to="1" begin="1s" dur="1s" repeatCount="Indefinite" fill="freeze" />
</path>
<path d="M25.53,41.21c16.97-1.58,47.22-3.71,58.6-3.95" style="fill:none;stroke:black;stroke-width:3;opacity:0">
  <animate attributeType="CSS" attributeName="opacity" from="0" to="1" begin="2s" dur="1s" repeatCount="Indefinite" fill="freeze" />
</path>
<path d="M27.15,59.87C43.62,58.5,64,57.5,81.06,56.81" style="fill:none;stroke:black;stroke-width:3;opacity:0">
  <animate attributeType="CSS" attributeName="opacity" from="0" to="1" begin="3s" dur="1s" repeatCount="Indefinite" fill="freeze" />
</path>
<path d="M52.86,22.69c0.91,0.91,1.19,2.28,1.19,4.06c-0.02,7.05-0.08,43.99,0.01,61c0.02,4.67,0.04,7.84,0.04,8.47" style="fill:none;stroke:black;stroke-width:3;opacity:0">
  <animate attributeType="CSS" attributeName="opacity" from="0" to="1" begin="4s" dur="1s" repeatCount="Indefinite" fill="freeze" />
</path>
</svg>