<svg width="109px" height="109px" viewBox="0 0 px 109px" xmlns="http://www.w3.org/2000/svg" xmlns:xlink="http://www.w3.org/1999/xlink" xml:space="preserve" version="1.1"  baseProfile="full">
<path d="M64.75,10c-0.26,1.6-1.33,2.37-2.17,2.79c-6.78,3.34-17.37,6.5-32.58,9.46" style="fill:none;stroke:black;stroke-width:3;opacity:0">
  <animate attributeType="CSS" attributeName="opacity" from="0" to="1" begin="0s" dur="1s" repeatCount="0" fill="freeze" />
</path>
<path d="M30.89,25.79c2.84,1.6,7.12,6.1,7.83,8.59" style="fill:none;stroke:black;stroke-width:3;opacity:0">
  <animate attributeType="CSS" attributeName="opacity" from="0" to="1" begin="1s" dur="1s" repeatCount="0" fill="freeze" />
</path>
<path d="M73.5,18.5c0.08,1.12-0.09,1.64-0.53,2.72c-1.51,3.69-3.87,7.95-8.25,12.84" style="fill:none;stroke:black;stroke-width:3;opacity:0">
  <animate attributeType="CSS" attributeName="opacity" from="0" to="1" begin="2s" dur="1s" repeatCount="0" fill="freeze" />
</path>
<path d="M18.52,40.91c2.23,0.59,4.63,0.55,7.77,0.22c17.46-1.88,40.76-4.38,53.01-4.97c3.16-0.15,5.95,0.09,7.89,0.5" style="fill:none;stroke:black;stroke-width:3;opacity:0">
  <animate attributeType="CSS" attributeName="opacity" from="0" to="1" begin="3s" dur="1s" repeatCount="0" fill="freeze" />
</path>
<path d="M52.15,20.25c0.99,0.99,1.5,2.25,1.5,3.63c0,4.99-0.15,20.55-0.2,30.12c-0.01,2.16-0.02,4.02-0.02,5.38" style="fill:none;stroke:black;stroke-width:3;opacity:0">
  <animate attributeType="CSS" attributeName="opacity" from="0" to="1" begin="4s" dur="1s" repeatCount="0" fill="freeze" />
</path>
<path d="M48.62,39.38c0,1.24-0.45,2.08-1.07,2.86C40.66,50.82,32.7,59.03,20.5,64.75" style="fill:none;stroke:black;stroke-width:3;opacity:0">
  <animate attributeType="CSS" attributeName="opacity" from="0" to="1" begin="5s" dur="1s" repeatCount="0" fill="freeze" />
</path>
<path d="M55.88,38.6c4.5,3.4,19.87,14.4,28.9,19.63c2.44,1.42,4.6,2.77,7.72,3.65" style="fill:none;stroke:black;stroke-width:3;opacity:0">
  <animate attributeType="CSS" attributeName="opacity" from="0" to="1" begin="6s" dur="1s" repeatCount="0" fill="freeze" />
</path>
<path d="M29.06,65.67c0.88,0.88,1.56,2.08,1.74,3.82c0.87,8.49,1.48,17.69,2.25,26.98c0.09,1.13,0.18,2.23,0.27,3.28" style="fill:none;stroke:black;stroke-width:3;opacity:0">
  <animate attributeType="CSS" attributeName="opacity" from="0" to="1" begin="7s" dur="1s" repeatCount="0" fill="freeze" />
</path>
<path d="M31.27,67.39c15.35-1.64,32.1-3.77,42.13-4.25c3.27-0.16,4.97,1.73,4.75,4.07c-0.55,5.89-2.5,18.49-4.69,28.49c-0.23,1.07-0.47,2.09-0.71,3.05" style="fill:none;stroke:black;stroke-width:3;opacity:0">
  <animate attributeType="CSS" attributeName="opacity" from="0" to="1" begin="8s" dur="1s" repeatCount="0" fill="freeze" />
</path>
<path d="M52.54,66.89C53.25,68,53.5,68.45,53.5,70c-0.02,7.31-0.03,22.09-0.03,24.47" style="fill:none;stroke:black;stroke-width:3;opacity:0">
  <animate attributeType="CSS" attributeName="opacity" from="0" to="1" begin="9s" dur="1s" repeatCount="0" fill="freeze" />
</path>
<path d="M33.28,81.4c5.6-0.77,36.1-3.02,42.22-3.15" style="fill:none;stroke:black;stroke-width:3;opacity:0">
  <animate attributeType="CSS" attributeName="opacity" from="0" to="1" begin="10s" dur="1s" repeatCount="0" fill="freeze" />
</path>
<path d="M34.2,96.97c10.3-0.72,25.93-1.85,38.05-2.22" style="fill:none;stroke:black;stroke-width:3;opacity:0">
  <animate attributeType="CSS" attributeName="opacity" from="0" to="1" begin="11s" dur="1s" repeatCount="0" fill="freeze" />
</path>
</svg>