<svg width="109px" height="109px" viewBox="0 0 px 109px" xmlns="http://www.w3.org/2000/svg" xmlns:xlink="http://www.w3.org/1999/xlink" xml:space="preserve" version="1.1"  baseProfile="full">
<path d="M11.99,31.54c1.04,1.21,1.5,2.58,1.4,4.09c0.44,8.23,0.84,21.13,1.27,32.86c0.1,2.75,0.2,5.43,0.31,7.97" style="fill:none;stroke:black;stroke-width:3;opacity:0">
  <animate attributeType="CSS" attributeName="opacity" from="0" to="1" begin="0s" dur="1s" repeatCount="0" fill="freeze" />
</path>
<path d="M14.22,32.97c6.81-0.56,17.7-1.9,23.54-2.58c2.58-0.3,4.15,1.13,4,3.92c-0.3,6.07-1.3,20.83-2.16,32.82c-0.2,2.76-0.38,5.38-0.56,7.71" style="fill:none;stroke:black;stroke-width:3;opacity:0">
  <animate attributeType="CSS" attributeName="opacity" from="0" to="1" begin="1s" dur="1s" repeatCount="0" fill="freeze" />
</path>
<path d="M26.05,33.74c0.67,0.67,0.79,1.76,0.79,3c0,10.35,0.09,28.34,0.09,34.45" style="fill:none;stroke:black;stroke-width:3;opacity:0">
  <animate attributeType="CSS" attributeName="opacity" from="0" to="1" begin="2s" dur="1s" repeatCount="0" fill="freeze" />
</path>
<path d="M15.07,53.05c7.3-0.92,18.68-1.92,24.6-2.23" style="fill:none;stroke:black;stroke-width:3;opacity:0">
  <animate attributeType="CSS" attributeName="opacity" from="0" to="1" begin="3s" dur="1s" repeatCount="0" fill="freeze" />
</path>
<path d="M15.59,73.25c7.28-0.62,14.28-1.37,22.45-1.76" style="fill:none;stroke:black;stroke-width:3;opacity:0">
  <animate attributeType="CSS" attributeName="opacity" from="0" to="1" begin="4s" dur="1s" repeatCount="0" fill="freeze" />
</path>
<path d="M51.05,33.42c2.43,0.57,4.85,0.45,7.33,0.21c6.5-0.63,11.71-1.17,20.12-2.06c2.37-0.33,4.72-0.23,7.05,0.3" style="fill:none;stroke:black;stroke-width:3;opacity:0">
  <animate attributeType="CSS" attributeName="opacity" from="0" to="1" begin="5s" dur="1s" repeatCount="0" fill="freeze" />
</path>
<path d="M67.2,14.87c0.84,0.84,1.41,2.38,1.41,4.1c0,12.77-0.1,11.69-0.1,28.58" style="fill:none;stroke:black;stroke-width:3;opacity:0">
  <animate attributeType="CSS" attributeName="opacity" from="0" to="1" begin="6s" dur="1s" repeatCount="0" fill="freeze" />
</path>
<path d="M47.2,49.54c3.09,0.61,6.19,0.68,9.31,0.19c8.67-0.83,19.62-1.98,28.37-2.21c2.89-0.11,5.77,0.07,8.62,0.53" style="fill:none;stroke:black;stroke-width:3;opacity:0">
  <animate attributeType="CSS" attributeName="opacity" from="0" to="1" begin="7s" dur="1s" repeatCount="0" fill="freeze" />
</path>
<path d="M51.07,70.04c2.38,0.45,4.74,0.08,7.15-0.12c9.28-0.79,14.34-1.64,22.4-1.99c2.22-0.23,4.43-0.14,6.63,0.25" style="fill:none;stroke:black;stroke-width:3;opacity:0">
  <animate attributeType="CSS" attributeName="opacity" from="0" to="1" begin="8s" dur="1s" repeatCount="0" fill="freeze" />
</path>
<path d="M67.6,53.65c0.81,0.81,1.18,1.92,1.18,3.67c0,11.21-0.04,15.47-0.04,30.3" style="fill:none;stroke:black;stroke-width:3;opacity:0">
  <animate attributeType="CSS" attributeName="opacity" from="0" to="1" begin="9s" dur="1s" repeatCount="0" fill="freeze" />
</path>
<path d="M43.3,89.52c3.14,0.64,6.25,0.34,9.46,0.13c13.36-0.89,22.86-1.77,34.99-1.91c3.39-0.04,6.68-0.32,9.95,0.53" style="fill:none;stroke:black;stroke-width:3;opacity:0">
  <animate attributeType="CSS" attributeName="opacity" from="0" to="1" begin="10s" dur="1s" repeatCount="0" fill="freeze" />
</path>
</svg>