<svg width="109px" height="109px" viewBox="0 0 px 109px" xmlns="http://www.w3.org/2000/svg" xmlns:xlink="http://www.w3.org/1999/xlink" xml:space="preserve" version="1.1"  baseProfile="full">
<path d="M56.41,10.13c0.7,0.36,2.18,2.66,2.32,3.37c0.14,0.71,0.07,5.3-0.07,9.74" style="fill:none;stroke:black;stroke-width:3;opacity:0">
  <animate attributeType="CSS" attributeName="opacity" from="0" to="1" begin="0s" dur="1s" repeatCount="0" fill="freeze" />
</path>
<path d="M26.13,24.23c1.52,0.54,4.3,0.63,5.82,0.54c15.8-0.91,41.55-2.02,55.61-2.73c2.53-0.13,4.05,0.26,5.31,0.53" style="fill:none;stroke:black;stroke-width:3;opacity:0">
  <animate attributeType="CSS" attributeName="opacity" from="0" to="1" begin="1s" dur="1s" repeatCount="0" fill="freeze" />
</path>
<path d="M31.49,25.5c0,1.27,0,2.52-0.01,3.75c-0.17,32.93-2.75,49.03-16.68,63.22" style="fill:none;stroke:black;stroke-width:3;opacity:0">
  <animate attributeType="CSS" attributeName="opacity" from="0" to="1" begin="2s" dur="1s" repeatCount="0" fill="freeze" />
</path>
<path d="M13.75,35.25c3.62,2.12,9.34,8.71,10.25,12" style="fill:none;stroke:black;stroke-width:3;opacity:0">
  <animate attributeType="CSS" attributeName="opacity" from="0" to="1" begin="3s" dur="1s" repeatCount="0" fill="freeze" />
</path>
<path d="M12.17,66.03c1.39,0.68,1.82,0.49,3.04-0.35c4.94-3.37,7.8-5.52,11.54-8.43" style="fill:none;stroke:black;stroke-width:3;opacity:0">
  <animate attributeType="CSS" attributeName="opacity" from="0" to="1" begin="4s" dur="1s" repeatCount="0" fill="freeze" />
</path>
<path d="M36.91,47.59c1.4,0.39,3.96,0.49,5.35,0.39c10.28-0.72,29.84-1.84,46.69-2.79c2.32-0.13,3.72,0.19,4.89,0.38" style="fill:none;stroke:black;stroke-width:3;opacity:0">
  <animate attributeType="CSS" attributeName="opacity" from="0" to="1" begin="5s" dur="1s" repeatCount="0" fill="freeze" />
</path>
<path d="M48.12,32.64c1.16,0.42,1.85,1.88,2.08,2.72c0.23,0.84,0,55.4-0.23,60.64" style="fill:none;stroke:black;stroke-width:3;opacity:0">
  <animate attributeType="CSS" attributeName="opacity" from="0" to="1" begin="6s" dur="1s" repeatCount="0" fill="freeze" />
</path>
<path d="M75.55,29.75c1.16,0.42,1.85,1.88,2.08,2.72s0,57.96-0.23,63.19" style="fill:none;stroke:black;stroke-width:3;opacity:0">
  <animate attributeType="CSS" attributeName="opacity" from="0" to="1" begin="7s" dur="1s" repeatCount="0" fill="freeze" />
</path>
<path d="M50.41,67.53c5.93-0.29,23.89-1.15,27.07-1.15" style="fill:none;stroke:black;stroke-width:3;opacity:0">
  <animate attributeType="CSS" attributeName="opacity" from="0" to="1" begin="8s" dur="1s" repeatCount="0" fill="freeze" />
</path>
<path d="M50.41,90.91c6.91-0.21,20.43-0.97,26.81-1.17" style="fill:none;stroke:black;stroke-width:3;opacity:0">
  <animate attributeType="CSS" attributeName="opacity" from="0" to="1" begin="9s" dur="1s" repeatCount="0" fill="freeze" />
</path>
</svg>