<svg width="109px" height="109px" viewBox="0 0 px 109px" xmlns="http://www.w3.org/2000/svg" xmlns:xlink="http://www.w3.org/1999/xlink" xml:space="preserve" version="1.1"  baseProfile="full">
<path d="M55.56,10.13c1.09,1.09,1.26,2.49,1.26,3.9c0,1.71-0.07,4.09-0.07,6.96" style="fill:none;stroke:black;stroke-width:3;opacity:0">
  <animate attributeType="CSS" attributeName="opacity" from="0" to="1" begin="0s" dur="1s" repeatCount="Indefinite" fill="freeze" />
</path>
<path d="M27.63,23.48c3.41,0.62,6.81,0.32,10.25,0.02c14.38-1.24,30.12-2.6,42.62-3.4c3.56-0.48,7.1-0.41,10.64,0.22" style="fill:none;stroke:black;stroke-width:3;opacity:0">
  <animate attributeType="CSS" attributeName="opacity" from="0" to="1" begin="1s" dur="1s" repeatCount="Indefinite" fill="freeze" />
</path>
<path d="M30.49,24.75c0.94,0.94,1,2.11,0.99,3.25C31,60.25,26.88,76.62,15.06,93.22" style="fill:none;stroke:black;stroke-width:3;opacity:0">
  <animate attributeType="CSS" attributeName="opacity" from="0" to="1" begin="2s" dur="1s" repeatCount="Indefinite" fill="freeze" />
</path>
<path d="M12,35.75c3.71,1.9,9.82,7.8,10.75,10.75" style="fill:none;stroke:black;stroke-width:3;opacity:0">
  <animate attributeType="CSS" attributeName="opacity" from="0" to="1" begin="3s" dur="1s" repeatCount="Indefinite" fill="freeze" />
</path>
<path d="M9.92,65.26c1.58,0.72,2.07,0.51,3.46-0.37c5.62-3.55,8.12-5.57,12.37-8.64" style="fill:none;stroke:black;stroke-width:3;opacity:0">
  <animate attributeType="CSS" attributeName="opacity" from="0" to="1" begin="4s" dur="1s" repeatCount="Indefinite" fill="freeze" />
</path>
<path d="M43.19,38.26c2.27,0.35,4.54,0.38,6.82,0.11c7.19-0.78,16.78-2.06,24.61-2.52c2.12-0.27,4.24-0.24,6.35,0.11" style="fill:none;stroke:black;stroke-width:3;opacity:0">
  <animate attributeType="CSS" attributeName="opacity" from="0" to="1" begin="5s" dur="1s" repeatCount="Indefinite" fill="freeze" />
</path>
<path d="M60.84,27.37c0.64,0.65,0.84,1.82,0.84,3.13c0,6.5,0.03,17.27,0.03,19.41" style="fill:none;stroke:black;stroke-width:3;opacity:0">
  <animate attributeType="CSS" attributeName="opacity" from="0" to="1" begin="6s" dur="1s" repeatCount="Indefinite" fill="freeze" />
</path>
<path d="M37.13,52.3c3.04,0.6,6.04,0.29,9.13-0.05c10.11-1.12,25.61-2.49,37.37-3.43c2.87-0.23,5.68-0.33,8.5,0.19" style="fill:none;stroke:black;stroke-width:3;opacity:0">
  <animate attributeType="CSS" attributeName="opacity" from="0" to="1" begin="7s" dur="1s" repeatCount="Indefinite" fill="freeze" />
</path>
<path d="M34.5,65.49c3.86,0.67,7.72,0.24,11.64-0.2c12.6-1.41,26.48-2.54,38.35-3.29c3.53-0.23,6.96-0.57,10.41,0.07" style="fill:none;stroke:black;stroke-width:3;opacity:0">
  <animate attributeType="CSS" attributeName="opacity" from="0" to="1" begin="8s" dur="1s" repeatCount="Indefinite" fill="freeze" />
</path>
<path d="M73.68,52.82c1,1,1.01,2.18,1.01,3.39c0,10.79-0.07,33.2-0.07,36.92c0,8.92-5.97,1.29-7.27,0.14" style="fill:none;stroke:black;stroke-width:3;opacity:0">
  <animate attributeType="CSS" attributeName="opacity" from="0" to="1" begin="9s" dur="1s" repeatCount="Indefinite" fill="freeze" />
</path>
<path d="M47.75,72.65c3.17,2.16,6.72,7.32,7.52,10.68" style="fill:none;stroke:black;stroke-width:3;opacity:0">
  <animate attributeType="CSS" attributeName="opacity" from="0" to="1" begin="10s" dur="1s" repeatCount="Indefinite" fill="freeze" />
</path>
</svg>