<svg width="109px" height="109px" viewBox="0 0 px 109px" xmlns="http://www.w3.org/2000/svg" xmlns:xlink="http://www.w3.org/1999/xlink" xml:space="preserve" version="1.1"  baseProfile="full">
<path d="M55.06,11.38c0.97,0.97,1.26,2.49,1.26,3.9c0,0.79-0.07,4.59-0.07,7.46" style="fill:none;stroke:black;stroke-width:3;opacity:0">
  <animate attributeType="CSS" attributeName="opacity" from="0" to="1" begin="0s" dur="1s" repeatCount="0" fill="freeze" />
</path>
<path d="M26.13,25.73c2.75,0.65,5.94,0.63,8.74,0.35c15.75-1.58,34.38-3.7,48-4.74c2.76-0.21,5.53-0.35,8.25,0.23" style="fill:none;stroke:black;stroke-width:3;opacity:0">
  <animate attributeType="CSS" attributeName="opacity" from="0" to="1" begin="1s" dur="1s" repeatCount="0" fill="freeze" />
</path>
<path d="M29.24,26.75c1,1,1.43,2.12,1.41,3.63c-0.16,16.74,1.09,47.49-14.1,62.59" style="fill:none;stroke:black;stroke-width:3;opacity:0">
  <animate attributeType="CSS" attributeName="opacity" from="0" to="1" begin="2s" dur="1s" repeatCount="0" fill="freeze" />
</path>
<path d="M14.5,38.5c2.74,1.98,6.75,7.5,7.75,11.25" style="fill:none;stroke:black;stroke-width:3;opacity:0">
  <animate attributeType="CSS" attributeName="opacity" from="0" to="1" begin="3s" dur="1s" repeatCount="0" fill="freeze" />
</path>
<path d="M11.8,67.48c1.2,0.77,2.56,0.49,3.75-0.41c4.15-3.13,5.99-4.91,10.7-9.07" style="fill:none;stroke:black;stroke-width:3;opacity:0">
  <animate attributeType="CSS" attributeName="opacity" from="0" to="1" begin="4s" dur="1s" repeatCount="0" fill="freeze" />
</path>
<path d="M43.12,35.65c1.86,0.72,3.85,0.59,5.77,0.31c5.52-0.81,21.23-3.33,27.57-4.29c3.03-0.46,3.92,1.48,1.94,3.28c-1.08,0.98-9.52,8.42-13.43,11.67" style="fill:none;stroke:black;stroke-width:3;opacity:0">
  <animate attributeType="CSS" attributeName="opacity" from="0" to="1" begin="5s" dur="1s" repeatCount="0" fill="freeze" />
</path>
<path d="M56.62,42c2.46,1.01,8.81,4.89,9.97,7.52" style="fill:none;stroke:black;stroke-width:3;opacity:0">
  <animate attributeType="CSS" attributeName="opacity" from="0" to="1" begin="6s" dur="1s" repeatCount="0" fill="freeze" />
</path>
<path d="M43.69,53.34c0.8,0.8,1.12,2.03,1.12,3.37c0,2.21-0.04,23.03-0.06,34.29c0,2.91-0.01,5.18-0.01,6.33" style="fill:none;stroke:black;stroke-width:3;opacity:0">
  <animate attributeType="CSS" attributeName="opacity" from="0" to="1" begin="7s" dur="1s" repeatCount="0" fill="freeze" />
</path>
<path d="M45.69,54.58c5.56-0.48,28.31-3.66,34.85-4.51c3.28-0.43,5.3,0.81,5.3,3.94c0,5.3-0.2,26.65-0.2,36.7c0,10.54-5.86,1.49-7.05,1.07" style="fill:none;stroke:black;stroke-width:3;opacity:0">
  <animate attributeType="CSS" attributeName="opacity" from="0" to="1" begin="8s" dur="1s" repeatCount="0" fill="freeze" />
</path>
<path d="M45.69,66.9c9.68-1.15,28.18-3.53,39.2-3.96" style="fill:none;stroke:black;stroke-width:3;opacity:0">
  <animate attributeType="CSS" attributeName="opacity" from="0" to="1" begin="9s" dur="1s" repeatCount="0" fill="freeze" />
</path>
<path d="M45.67,80.22c6-0.71,29.58-3.59,38.99-3.91" style="fill:none;stroke:black;stroke-width:3;opacity:0">
  <animate attributeType="CSS" attributeName="opacity" from="0" to="1" begin="10s" dur="1s" repeatCount="0" fill="freeze" />
</path>
<path d="M63.11,55.17c0.92,0.92,1.09,2.2,1.09,3.44c0,5.45-0.11,19.21-0.14,31.39c-0.01,2.1-0.01,4.07-0.01,5.85" style="fill:none;stroke:black;stroke-width:3;opacity:0">
  <animate attributeType="CSS" attributeName="opacity" from="0" to="1" begin="11s" dur="1s" repeatCount="0" fill="freeze" />
</path>
</svg>