<svg width="109px" height="109px" viewBox="0 0 px 109px" xmlns="http://www.w3.org/2000/svg" xmlns:xlink="http://www.w3.org/1999/xlink" xml:space="preserve" version="1.1"  baseProfile="full">
<path d="M58.81,11.38c0.97,0.97,1.01,2.37,1.01,4.15c0,1.96-0.07,4.59-0.07,8.21" style="fill:none;stroke:black;stroke-width:3;opacity:0">
  <animate attributeType="CSS" attributeName="opacity" from="0" to="1" begin="0s" dur="1s" repeatCount="0" fill="freeze" />
</path>
<path d="M29.63,26.73c3.16,0.52,6.24,0.1,9.4-0.2c14.85-1.4,30.85-3.4,44.98-4.43c3.39-0.48,6.76-0.41,10.13,0.22" style="fill:none;stroke:black;stroke-width:3;opacity:0">
  <animate attributeType="CSS" attributeName="opacity" from="0" to="1" begin="1s" dur="1s" repeatCount="0" fill="freeze" />
</path>
<path d="M32.49,27.75c0.82,0.82,1.01,2.02,0.99,3.12c-0.73,30.25-6.11,51.25-17.92,64.09" style="fill:none;stroke:black;stroke-width:3;opacity:0">
  <animate attributeType="CSS" attributeName="opacity" from="0" to="1" begin="2s" dur="1s" repeatCount="0" fill="freeze" />
</path>
<path d="M15,38.75c3.71,2.38,9.57,9.55,10.5,13.25" style="fill:none;stroke:black;stroke-width:3;opacity:0">
  <animate attributeType="CSS" attributeName="opacity" from="0" to="1" begin="3s" dur="1s" repeatCount="0" fill="freeze" />
</path>
<path d="M11.67,70.54c1.49,0.34,2.79,0.11,3.9-0.67c5.12-3.09,8.2-5.14,12.18-7.87" style="fill:none;stroke:black;stroke-width:3;opacity:0">
  <animate attributeType="CSS" attributeName="opacity" from="0" to="1" begin="4s" dur="1s" repeatCount="0" fill="freeze" />
</path>
<path d="M49.85,33.15c0.88,0.88,1.36,1.57,1.53,2.72c0.57,2.56,1.07,4.9,1.58,7.28c0.26,1.23,0.53,2.47,0.81,3.75" style="fill:none;stroke:black;stroke-width:3;opacity:0">
  <animate attributeType="CSS" attributeName="opacity" from="0" to="1" begin="5s" dur="1s" repeatCount="0" fill="freeze" />
</path>
<path d="M51.78,33.89c8.77-1.33,19.72-2.77,24.95-3.41c1.97-0.24,2.84,1,2.3,2.77c-0.85,2.79-1.65,5.12-2.77,9" style="fill:none;stroke:black;stroke-width:3;opacity:0">
  <animate attributeType="CSS" attributeName="opacity" from="0" to="1" begin="6s" dur="1s" repeatCount="0" fill="freeze" />
</path>
<path d="M54.88,45.64c5.11-0.33,12.27-1.43,19.36-2.1c1.09-0.1,2.18-0.2,3.26-0.27" style="fill:none;stroke:black;stroke-width:3;opacity:0">
  <animate attributeType="CSS" attributeName="opacity" from="0" to="1" begin="7s" dur="1s" repeatCount="0" fill="freeze" />
</path>
<path d="M39.58,55.18c0.75,0.75,1.14,1.5,1.36,2.56c0.74,3.56,1.26,5.97,1.77,8.55c0.23,1.14,0.45,2.32,0.68,3.64" style="fill:none;stroke:black;stroke-width:3;opacity:0">
  <animate attributeType="CSS" attributeName="opacity" from="0" to="1" begin="8s" dur="1s" repeatCount="0" fill="freeze" />
</path>
<path d="M41.52,55.93c8.32-1.29,12.89-2.36,16.49-2.8c1.83-0.22,3.29,0.51,2.77,2.47c-0.73,2.8-1.07,6.21-2.1,9.83" style="fill:none;stroke:black;stroke-width:3;opacity:0">
  <animate attributeType="CSS" attributeName="opacity" from="0" to="1" begin="9s" dur="1s" repeatCount="0" fill="freeze" />
</path>
<path d="M44.54,68.16c4.35-0.55,6.64-1.1,11.95-1.59c1.04-0.1,2.21-0.19,3.52-0.28" style="fill:none;stroke:black;stroke-width:3;opacity:0">
  <animate attributeType="CSS" attributeName="opacity" from="0" to="1" begin="10s" dur="1s" repeatCount="0" fill="freeze" />
</path>
<path d="M69.35,53.81c0.76,0.56,1.2,1.33,1.29,2.31c0.74,3.67,1.26,6.13,1.73,8.75c0.16,0.86,0.31,1.75,0.46,2.7" style="fill:none;stroke:black;stroke-width:3;opacity:0">
  <animate attributeType="CSS" attributeName="opacity" from="0" to="1" begin="11s" dur="1s" repeatCount="0" fill="freeze" />
</path>
<path d="M71.3,54.31c7.25-0.86,14.16-1.88,18.08-2.31c1.46-0.16,3.18,0.4,2.76,2.12c-0.67,2.79-1.12,5.14-2.2,8.92" style="fill:none;stroke:black;stroke-width:3;opacity:0">
  <animate attributeType="CSS" attributeName="opacity" from="0" to="1" begin="12s" dur="1s" repeatCount="0" fill="freeze" />
</path>
<path d="M73.32,66.05c5.47-0.65,9.46-1.01,14.78-1.5c1.3-0.12,2.67-0.25,4.17-0.38" style="fill:none;stroke:black;stroke-width:3;opacity:0">
  <animate attributeType="CSS" attributeName="opacity" from="0" to="1" begin="13s" dur="1s" repeatCount="0" fill="freeze" />
</path>
<path d="M64.96,72.69c0.8,0.8,0.87,2.06,0.87,3.17c0,0.68-0.09,12.64-0.09,17.02" style="fill:none;stroke:black;stroke-width:3;opacity:0">
  <animate attributeType="CSS" attributeName="opacity" from="0" to="1" begin="14s" dur="1s" repeatCount="0" fill="freeze" />
</path>
<path d="M42.35,81.23c0.83,0.83,0.9,2.14,0.63,3.42c-0.62,2.94-0.6,3.79-2.11,9.85c-0.05,2.54,0.61,2.78,2.56,2.47c15.08-2.36,30.2-4.36,47.14-4.9" style="fill:none;stroke:black;stroke-width:3;opacity:0">
  <animate attributeType="CSS" attributeName="opacity" from="0" to="1" begin="15s" dur="1s" repeatCount="0" fill="freeze" />
</path>
<path d="M90.92,76.1c0.83,1.15,0.95,2.28,0.88,3.67c-0.22,4.13-0.55,8.48-1.05,17.5" style="fill:none;stroke:black;stroke-width:3;opacity:0">
  <animate attributeType="CSS" attributeName="opacity" from="0" to="1" begin="16s" dur="1s" repeatCount="0" fill="freeze" />
</path>
</svg>