<svg width="109px" height="109px" viewBox="0 0 px 109px" xmlns="http://www.w3.org/2000/svg" xmlns:xlink="http://www.w3.org/1999/xlink" xml:space="preserve" version="1.1"  baseProfile="full">
<path d="M22.5,32c1.5,0.75,2.07,0.61,4.5,0.25c6.31-0.93,8.75-1.75,15.49-2.94C46.48,28.6,47.28,29.95,46,34c-3,9.5-21.25,37.25-35.5,42.25" style="fill:none;stroke:black;stroke-width:3;opacity:0">
  <animate attributeType="CSS" attributeName="opacity" from="0" to="1" begin="0s" dur="1s" repeatCount="Indefinite" fill="freeze" />
</path>
<path d="M19.02,43.33c3.9,2.1,10.07,8.62,11.04,11.88" style="fill:none;stroke:black;stroke-width:3;opacity:0">
  <animate attributeType="CSS" attributeName="opacity" from="0" to="1" begin="1s" dur="1s" repeatCount="Indefinite" fill="freeze" />
</path>
<path d="M75.78,24.64c0.03,0.3,0.06,0.78-0.05,1.21c-0.65,2.56-4.35,8.17-9.42,11.61" style="fill:none;stroke:black;stroke-width:3;opacity:0">
  <animate attributeType="CSS" attributeName="opacity" from="0" to="1" begin="2s" dur="1s" repeatCount="Indefinite" fill="freeze" />
</path>
<path d="M53.25,26.25c2.5,0.25,30.34,38.44,36.27,45.12c2.01,2.27,3.73,3.24,5.73,3.88" style="fill:none;stroke:black;stroke-width:3;opacity:0">
  <animate attributeType="CSS" attributeName="opacity" from="0" to="1" begin="3s" dur="1s" repeatCount="Indefinite" fill="freeze" />
</path>
<path d="M86.27,36.89c0.03,0.28,0.06,0.73-0.06,1.14c-0.75,2.41-5.04,7.7-10.9,10.93" style="fill:none;stroke:black;stroke-width:3;opacity:0">
  <animate attributeType="CSS" attributeName="opacity" from="0" to="1" begin="4s" dur="1s" repeatCount="Indefinite" fill="freeze" />
</path>
</svg>