<svg width="109px" height="109px" viewBox="0 0 px 109px" xmlns="http://www.w3.org/2000/svg" xmlns:xlink="http://www.w3.org/1999/xlink" xml:space="preserve" version="1.1"  baseProfile="full">
<path d="M23.12,18.92c4.25,2.7,9.12,7.45,11.1,11.28" style="fill:none;stroke:black;stroke-width:3;opacity:0">
  <animate attributeType="CSS" attributeName="opacity" from="0" to="1" begin="0s" dur="1s" repeatCount="Indefinite" fill="freeze" />
</path>
<path d="M17.51,58.74c1.66,1.09,2.56,0.67,3.72-0.25c1.13-0.89,8.7-7.7,13.02-12.24" style="fill:none;stroke:black;stroke-width:3;opacity:0">
  <animate attributeType="CSS" attributeName="opacity" from="0" to="1" begin="1s" dur="1s" repeatCount="Indefinite" fill="freeze" />
</path>
<path d="M55.85,12.75c0.03,0.55,0.16,1.43-0.07,2.2C54.25,20.12,50.5,29,44.3,36.2" style="fill:none;stroke:black;stroke-width:3;opacity:0">
  <animate attributeType="CSS" attributeName="opacity" from="0" to="1" begin="2s" dur="1s" repeatCount="Indefinite" fill="freeze" />
</path>
<path d="M53.06,27.94c1.31,0.44,3,0.34,4.56,0.12c5.63-0.8,15.13-2.43,19.49-3.08c4.68-0.71,5.14,2.71-2.53,7.75" style="fill:none;stroke:black;stroke-width:3;opacity:0">
  <animate attributeType="CSS" attributeName="opacity" from="0" to="1" begin="3s" dur="1s" repeatCount="Indefinite" fill="freeze" />
</path>
<path d="M60.41,37.55c0.59,0.82,0.54,1.96,0.38,2.94c-1.01,6.1-6.63,17.91-19.35,23.75" style="fill:none;stroke:black;stroke-width:3;opacity:0">
  <animate attributeType="CSS" attributeName="opacity" from="0" to="1" begin="4s" dur="1s" repeatCount="Indefinite" fill="freeze" />
</path>
<path d="M60.32,44.59c6.43,3.78,17.18,11.16,25.57,16.36C87.44,61.91,90,63,92.75,64" style="fill:none;stroke:black;stroke-width:3;opacity:0">
  <animate attributeType="CSS" attributeName="opacity" from="0" to="1" begin="5s" dur="1s" repeatCount="Indefinite" fill="freeze" />
</path>
<path d="M27.67,73.48c0.92,0.92,1.35,2.11,1.48,2.97c0.99,6.82,1.56,10.55,2.48,17.46" style="fill:none;stroke:black;stroke-width:3;opacity:0">
  <animate attributeType="CSS" attributeName="opacity" from="0" to="1" begin="6s" dur="1s" repeatCount="Indefinite" fill="freeze" />
</path>
<path d="M29.8,74.62c10.09-1.23,36.68-4.24,45.96-4.94c3.74-0.28,5.29,0.91,4.5,5.07c-0.95,4.98-3.06,13.53-4.23,18.18" style="fill:none;stroke:black;stroke-width:3;opacity:0">
  <animate attributeType="CSS" attributeName="opacity" from="0" to="1" begin="7s" dur="1s" repeatCount="Indefinite" fill="freeze" />
</path>
<path d="M45.75,74.42c0.79,0.79,0.91,1.7,0.91,3c0,5.82,0.01,11.07,0.01,16.41" style="fill:none;stroke:black;stroke-width:3;opacity:0">
  <animate attributeType="CSS" attributeName="opacity" from="0" to="1" begin="8s" dur="1s" repeatCount="Indefinite" fill="freeze" />
</path>
<path d="M59.61,73.33c0.78,0.78,0.88,1.92,0.88,3.36c0,5.87-0.54,13.31-0.54,15.96" style="fill:none;stroke:black;stroke-width:3;opacity:0">
  <animate attributeType="CSS" attributeName="opacity" from="0" to="1" begin="9s" dur="1s" repeatCount="Indefinite" fill="freeze" />
</path>
<path d="M15.38,95.29c3.25,1.16,6.77,0.7,10.13,0.52c14.65-0.79,36.75-2.18,60.87-2.81c3.82-0.1,7.06,0.17,10.75,0.96" style="fill:none;stroke:black;stroke-width:3;opacity:0">
  <animate attributeType="CSS" attributeName="opacity" from="0" to="1" begin="10s" dur="1s" repeatCount="Indefinite" fill="freeze" />
</path>
</svg>