<svg width="109px" height="109px" viewBox="0 0 px 109px" xmlns="http://www.w3.org/2000/svg" xmlns:xlink="http://www.w3.org/1999/xlink" xml:space="preserve" version="1.1"  baseProfile="full">
<path d="M74.25,10.25c-0.4,0.87-0.79,1.3-1.63,1.68c-5.43,2.44-21.84,9.15-39.37,11.65" style="fill:none;stroke:black;stroke-width:3;opacity:0">
  <animate attributeType="CSS" attributeName="opacity" from="0" to="1" begin="0s" dur="1s" repeatCount="0" fill="freeze" />
</path>
<path d="M30.47,9.75c1.1,0.73,1.17,1.23,1.54,2.21s0.37,8.11,0.37,11.18c0,7.89,14.66,7.16,27.15,7.16c20.72,0,24.97-1.29,24.97-9.59" style="fill:none;stroke:black;stroke-width:3;opacity:0">
  <animate attributeType="CSS" attributeName="opacity" from="0" to="1" begin="1s" dur="1s" repeatCount="0" fill="freeze" />
</path>
<path d="M39.92,38.02c0.57,0.78,1.41,2.21,1.41,3.25s-0.19,32.95,0,33.99" style="fill:none;stroke:black;stroke-width:3;opacity:0">
  <animate attributeType="CSS" attributeName="opacity" from="0" to="1" begin="2s" dur="1s" repeatCount="0" fill="freeze" />
</path>
<path d="M42.28,40.19c3.24-0.13,29.41-2.49,32.37-2.45c1.35,0.02,2.69,0.52,2.69,2.19c0,1.25,0.05,32.27-0.14,33.04" style="fill:none;stroke:black;stroke-width:3;opacity:0">
  <animate attributeType="CSS" attributeName="opacity" from="0" to="1" begin="3s" dur="1s" repeatCount="0" fill="freeze" />
</path>
<path d="M41.46,50.4c6.39-0.18,29.94-2.15,35.14-2.15" style="fill:none;stroke:black;stroke-width:3;opacity:0">
  <animate attributeType="CSS" attributeName="opacity" from="0" to="1" begin="4s" dur="1s" repeatCount="0" fill="freeze" />
</path>
<path d="M41.23,60.9c8.58-0.44,27.16-2.06,35.49-2.06" style="fill:none;stroke:black;stroke-width:3;opacity:0">
  <animate attributeType="CSS" attributeName="opacity" from="0" to="1" begin="5s" dur="1s" repeatCount="0" fill="freeze" />
</path>
<path d="M41.51,72.07c6.44,0,26.94-2.17,35.26-2.17" style="fill:none;stroke:black;stroke-width:3;opacity:0">
  <animate attributeType="CSS" attributeName="opacity" from="0" to="1" begin="6s" dur="1s" repeatCount="0" fill="freeze" />
</path>
<path d="M23,47.5c0.75,1,1.75,1.75,1.75,3.5S23.5,77,23.5,79.25s0.25,4.5,3,4.25s59.25-4,61.5-4s5-0.25,6.75,0" style="fill:none;stroke:black;stroke-width:3;opacity:0">
  <animate attributeType="CSS" attributeName="opacity" from="0" to="1" begin="7s" dur="1s" repeatCount="0" fill="freeze" />
</path>
<path d="M44.49,88.39c0.06,0.3,0.13,0.78-0.13,1.21c-1.53,2.56-10.3,8.17-22.31,11.61" style="fill:none;stroke:black;stroke-width:3;opacity:0">
  <animate attributeType="CSS" attributeName="opacity" from="0" to="1" begin="8s" dur="1s" repeatCount="0" fill="freeze" />
</path>
<path d="M67.52,87.08c7.6,2.36,19.64,9.71,21.54,13.38" style="fill:none;stroke:black;stroke-width:3;opacity:0">
  <animate attributeType="CSS" attributeName="opacity" from="0" to="1" begin="9s" dur="1s" repeatCount="0" fill="freeze" />
</path>
</svg>