<svg width="109px" height="109px" viewBox="0 0 px 109px" xmlns="http://www.w3.org/2000/svg" xmlns:xlink="http://www.w3.org/1999/xlink" xml:space="preserve" version="1.1"  baseProfile="full">
<path d="M34.82,12.66c1.01,0.46,1.62,2.07,1.82,2.99c0.2,0.92,0.43,16.52,0.43,26.4" style="fill:none;stroke:black;stroke-width:3;opacity:0">
  <animate attributeType="CSS" attributeName="opacity" from="0" to="1" begin="0s" dur="1s" repeatCount="Indefinite" fill="freeze" />
</path>
<path d="M37.15,25.34c4.5-0.38,10.82-1.14,15.24-1.52c1.1-0.09,1.38-0.13,2.06,0" style="fill:none;stroke:black;stroke-width:3;opacity:0">
  <animate attributeType="CSS" attributeName="opacity" from="0" to="1" begin="1s" dur="1s" repeatCount="Indefinite" fill="freeze" />
</path>
<path d="M19.95,24.72c1.01,0.5,1.82,2.23,1.82,3.26c0,5.52,0.26,11.84,0.26,19.11" style="fill:none;stroke:black;stroke-width:3;opacity:0">
  <animate attributeType="CSS" attributeName="opacity" from="0" to="1" begin="2s" dur="1s" repeatCount="Indefinite" fill="freeze" />
</path>
<path d="M15.35,49.02c0.4,0.72,2.3,1.47,3.32,1.04c9.58-4.06,22.8-9.32,31.87-13.45" style="fill:none;stroke:black;stroke-width:3;opacity:0">
  <animate attributeType="CSS" attributeName="opacity" from="0" to="1" begin="3s" dur="1s" repeatCount="Indefinite" fill="freeze" />
</path>
<path d="M86.56,15.54c0.17,0.21,0.28,0.83-0.16,1.16c-2.87,2.12-12.7,7.98-21.96,10.15" style="fill:none;stroke:black;stroke-width:3;opacity:0">
  <animate attributeType="CSS" attributeName="opacity" from="0" to="1" begin="4s" dur="1s" repeatCount="Indefinite" fill="freeze" />
</path>
<path d="M60.46,11.75c1,0.84,1.07,1.4,1.4,2.52c0.33,1.12,0.11,14.92,0.11,22.53c0,6.46,2.86,7.9,15.07,7.9S90.9,42,90.9,35.73" style="fill:none;stroke:black;stroke-width:3;opacity:0">
  <animate attributeType="CSS" attributeName="opacity" from="0" to="1" begin="5s" dur="1s" repeatCount="Indefinite" fill="freeze" />
</path>
<path d="M35.5,52.76c0.45,1.01,1.11,1.77,1.11,3.11c0,1.35-0.3,41.56-0.3,42.24" style="fill:none;stroke:black;stroke-width:3;opacity:0">
  <animate attributeType="CSS" attributeName="opacity" from="0" to="1" begin="6s" dur="1s" repeatCount="Indefinite" fill="freeze" />
</path>
<path d="M36.47,55.07c2.55-0.17,32.41-2.12,34.74-2.33c1.94-0.17,3.47,0.94,3.3,2.19c-0.21,1.59-0.45,36.4-0.45,42.51" style="fill:none;stroke:black;stroke-width:3;opacity:0">
  <animate attributeType="CSS" attributeName="opacity" from="0" to="1" begin="7s" dur="1s" repeatCount="Indefinite" fill="freeze" />
</path>
<path d="M37.32,67.82c5.04-0.23,32.33-1.64,36.43-1.64" style="fill:none;stroke:black;stroke-width:3;opacity:0">
  <animate attributeType="CSS" attributeName="opacity" from="0" to="1" begin="8s" dur="1s" repeatCount="Indefinite" fill="freeze" />
</path>
<path d="M37.53,81.42c6.77-0.57,29.35-1.52,35.92-1.52" style="fill:none;stroke:black;stroke-width:3;opacity:0">
  <animate attributeType="CSS" attributeName="opacity" from="0" to="1" begin="9s" dur="1s" repeatCount="Indefinite" fill="freeze" />
</path>
<path d="M36.84,95.05c5.81-0.3,30.38-1.51,36.94-1.51" style="fill:none;stroke:black;stroke-width:3;opacity:0">
  <animate attributeType="CSS" attributeName="opacity" from="0" to="1" begin="10s" dur="1s" repeatCount="Indefinite" fill="freeze" />
</path>
</svg>