<svg width="109px" height="109px" viewBox="0 0 px 109px" xmlns="http://www.w3.org/2000/svg" xmlns:xlink="http://www.w3.org/1999/xlink" xml:space="preserve" version="1.1"  baseProfile="full">
<path d="M35.88,12.25c2.96,1.71,7.66,7.03,8.4,9.7" style="fill:none;stroke:black;stroke-width:3;opacity:0">
  <animate attributeType="CSS" attributeName="opacity" from="0" to="1" begin="0s" dur="1s" repeatCount="Indefinite" fill="freeze" />
</path>
<path d="M71.06,10.27c0.19,0.86,0.04,1.98-0.26,2.65c-1.3,2.95-3.18,5.58-6.68,9.95" style="fill:none;stroke:black;stroke-width:3;opacity:0">
  <animate attributeType="CSS" attributeName="opacity" from="0" to="1" begin="1s" dur="1s" repeatCount="Indefinite" fill="freeze" />
</path>
<path d="M30.6,28.43c1.46,0.34,4.12,0.43,5.58,0.34c10.07-0.64,25.82-2.64,37.96-3.43c2.42-0.16,4.13-0.09,5.34,0.08" style="fill:none;stroke:black;stroke-width:3;opacity:0">
  <animate attributeType="CSS" attributeName="opacity" from="0" to="1" begin="2s" dur="1s" repeatCount="Indefinite" fill="freeze" />
</path>
<path d="M52.98,29.18c0.73,0.73,1.5,1.98,1.5,2.9c0,3.93,0.03,10.8,0.03,16.93" style="fill:none;stroke:black;stroke-width:3;opacity:0">
  <animate attributeType="CSS" attributeName="opacity" from="0" to="1" begin="3s" dur="1s" repeatCount="Indefinite" fill="freeze" />
</path>
<path d="M31.86,39.49c1.52,0.39,3.61,0.68,4.89,0.57c9.38-0.81,23.88-2.56,34.95-3.71c2.11-0.22,3.9-0.1,4.97,0.06" style="fill:none;stroke:black;stroke-width:3;opacity:0">
  <animate attributeType="CSS" attributeName="opacity" from="0" to="1" begin="4s" dur="1s" repeatCount="Indefinite" fill="freeze" />
</path>
<path d="M17.8,52.62c2.1,0.48,5.96,0.43,8.06,0.23c13.27-1.23,42.52-4.23,62.12-5.41c3.5-0.21,5.61-0.02,7.36,0.22" style="fill:none;stroke:black;stroke-width:3;opacity:0">
  <animate attributeType="CSS" attributeName="opacity" from="0" to="1" begin="5s" dur="1s" repeatCount="Indefinite" fill="freeze" />
</path>
<path d="M40.77,53.77c0.07,0.63-0.17,1.7-0.64,2.52C37,61.75,28.5,72.25,15.57,80.65" style="fill:none;stroke:black;stroke-width:3;opacity:0">
  <animate attributeType="CSS" attributeName="opacity" from="0" to="1" begin="6s" dur="1s" repeatCount="Indefinite" fill="freeze" />
</path>
<path d="M41.79,60.32c0.88,0.88,1.28,2.28,1.28,3.45c0,1.17-0.1,32.39-0.1,32.98c0,0.81,0.1,2.88,0.1,3.75" style="fill:none;stroke:black;stroke-width:3;opacity:0">
  <animate attributeType="CSS" attributeName="opacity" from="0" to="1" begin="7s" dur="1s" repeatCount="Indefinite" fill="freeze" />
</path>
<path d="M43.93,61.93c2.94-0.15,24.57-2.77,27.24-2.94c2.23-0.15,3.8,0.76,3.8,3.15c0,3.49,0.13,20.14,0.14,33c0,1.32,0,3.41-0.17,4.28" style="fill:none;stroke:black;stroke-width:3;opacity:0">
  <animate attributeType="CSS" attributeName="opacity" from="0" to="1" begin="8s" dur="1s" repeatCount="Indefinite" fill="freeze" />
</path>
<path d="M44.13,73.74c5.79-0.2,24.89-2.11,29.6-2.11" style="fill:none;stroke:black;stroke-width:3;opacity:0">
  <animate attributeType="CSS" attributeName="opacity" from="0" to="1" begin="9s" dur="1s" repeatCount="Indefinite" fill="freeze" />
</path>
<path d="M44.37,85.28c7.78-0.49,21.88-1.91,29.26-2.25" style="fill:none;stroke:black;stroke-width:3;opacity:0">
  <animate attributeType="CSS" attributeName="opacity" from="0" to="1" begin="10s" dur="1s" repeatCount="Indefinite" fill="freeze" />
</path>
<path d="M44.29,97.47c6.96-0.34,21.89-1.56,29.45-1.56" style="fill:none;stroke:black;stroke-width:3;opacity:0">
  <animate attributeType="CSS" attributeName="opacity" from="0" to="1" begin="11s" dur="1s" repeatCount="Indefinite" fill="freeze" />
</path>
</svg>