<svg width="109px" height="109px" viewBox="0 0 px 109px" xmlns="http://www.w3.org/2000/svg" xmlns:xlink="http://www.w3.org/1999/xlink" xml:space="preserve" version="1.1"  baseProfile="full">
<path d="M13.37,25.12c0.88,0.88,1.31,2.27,1.31,3.76c0,1.21,0.11,37.28,0.05,51.87c-0.01,3.44-0.02,5.62-0.02,5.76" style="fill:none;stroke:black;stroke-width:3;opacity:0">
  <animate attributeType="CSS" attributeName="opacity" from="0" to="1" begin="0s" dur="1s" repeatCount="Indefinite" fill="freeze" />
</path>
<path d="M15.22,25.95c1.57-0.05,11.5-1.76,15.64-2.36c2.75-0.4,4.06,0.48,4.02,3.41c-0.08,5.85,0.06,34.16-0.01,51.5c-0.01,2.58-0.01,4.92-0.01,6.89" style="fill:none;stroke:black;stroke-width:3;opacity:0">
  <animate attributeType="CSS" attributeName="opacity" from="0" to="1" begin="1s" dur="1s" repeatCount="Indefinite" fill="freeze" />
</path>
<path d="M15.69,43.48c5.63-0.48,12-0.98,17.83-1.46" style="fill:none;stroke:black;stroke-width:3;opacity:0">
  <animate attributeType="CSS" attributeName="opacity" from="0" to="1" begin="2s" dur="1s" repeatCount="Indefinite" fill="freeze" />
</path>
<path d="M15.84,61.5c6-0.5,10.53-1.25,17.98-1.69" style="fill:none;stroke:black;stroke-width:3;opacity:0">
  <animate attributeType="CSS" attributeName="opacity" from="0" to="1" begin="3s" dur="1s" repeatCount="Indefinite" fill="freeze" />
</path>
<path d="M16.08,82.17c5.17-0.27,11.35-0.91,17.68-0.94" style="fill:none;stroke:black;stroke-width:3;opacity:0">
  <animate attributeType="CSS" attributeName="opacity" from="0" to="1" begin="4s" dur="1s" repeatCount="Indefinite" fill="freeze" />
</path>
<path d="M57.29,17.41c1.15,1.15,1.31,2.47,1.39,4.57C60.38,71.38,57.5,81,42.15,93.43" style="fill:none;stroke:black;stroke-width:3;opacity:0">
  <animate attributeType="CSS" attributeName="opacity" from="0" to="1" begin="5s" dur="1s" repeatCount="Indefinite" fill="freeze" />
</path>
<path d="M42.41,38.06c3.69,1.91,8.52,7.35,9.45,10.32" style="fill:none;stroke:black;stroke-width:3;opacity:0">
  <animate attributeType="CSS" attributeName="opacity" from="0" to="1" begin="6s" dur="1s" repeatCount="Indefinite" fill="freeze" />
</path>
<path d="M41.61,69.62c1.05,0.48,2.35,0.4,3.14-0.14c1.1-0.76,7.99-6.06,12.31-9.7" style="fill:none;stroke:black;stroke-width:3;opacity:0">
  <animate attributeType="CSS" attributeName="opacity" from="0" to="1" begin="7s" dur="1s" repeatCount="Indefinite" fill="freeze" />
</path>
<path d="M71.14,16.4c1.21,1.21,1.49,2.32,1.49,3.97c0,9.59,0.12,56,0.12,61.57c0,8.99,1.34,10.79,12.44,10.79c9.9,0,11.81-1.9,11.81-8.18" style="fill:none;stroke:black;stroke-width:3;opacity:0">
  <animate attributeType="CSS" attributeName="opacity" from="0" to="1" begin="8s" dur="1s" repeatCount="Indefinite" fill="freeze" />
</path>
<path d="M90.39,30.25c0.11,1.07-0.01,2.11-0.65,3.01c-2.86,3.99-5.49,6.87-12.55,12.39" style="fill:none;stroke:black;stroke-width:3;opacity:0">
  <animate attributeType="CSS" attributeName="opacity" from="0" to="1" begin="9s" dur="1s" repeatCount="Indefinite" fill="freeze" />
</path>
<path d="M75.7,52.02c5.72,2.84,14.77,11.67,16.2,16.09" style="fill:none;stroke:black;stroke-width:3;opacity:0">
  <animate attributeType="CSS" attributeName="opacity" from="0" to="1" begin="10s" dur="1s" repeatCount="Indefinite" fill="freeze" />
</path>
</svg>