<svg width="109px" height="109px" viewBox="0 0 px 109px" xmlns="http://www.w3.org/2000/svg" xmlns:xlink="http://www.w3.org/1999/xlink" xml:space="preserve" version="1.1"  baseProfile="full">
<path d="M14.88,20.66c0.33,1.54,0.82,2.73,0.82,4.73c0,2.01-0.11,61.32,0,63.34" style="fill:none;stroke:black;stroke-width:3;opacity:0">
  <animate attributeType="CSS" attributeName="opacity" from="0" to="1" begin="0s" dur="1s" repeatCount="Indefinite" fill="freeze" />
</path>
<path d="M16.26,21.45c1.89-0.02,15.7-2,17.43-2.1c1.43-0.08,2.44,1.69,2.44,3.55c0,6.86-0.67,49.23-0.67,64.89" style="fill:none;stroke:black;stroke-width:3;opacity:0">
  <animate attributeType="CSS" attributeName="opacity" from="0" to="1" begin="1s" dur="1s" repeatCount="Indefinite" fill="freeze" />
</path>
<path d="M16.23,42.7c5.22-0.52,14.22-1.66,18.46-1.4" style="fill:none;stroke:black;stroke-width:3;opacity:0">
  <animate attributeType="CSS" attributeName="opacity" from="0" to="1" begin="2s" dur="1s" repeatCount="Indefinite" fill="freeze" />
</path>
<path d="M16.38,62.85c5.01-0.24,12.28-1.59,18.97-1.15" style="fill:none;stroke:black;stroke-width:3;opacity:0">
  <animate attributeType="CSS" attributeName="opacity" from="0" to="1" begin="3s" dur="1s" repeatCount="Indefinite" fill="freeze" />
</path>
<path d="M16.16,86.06c5.14-0.29,12.21-1.53,18.71-1.49" style="fill:none;stroke:black;stroke-width:3;opacity:0">
  <animate attributeType="CSS" attributeName="opacity" from="0" to="1" begin="4s" dur="1s" repeatCount="Indefinite" fill="freeze" />
</path>
<path d="M47.62,20.85c1.29,0.34,3.65,0.41,4.94,0.34c9.29-0.49,24.75-1.52,32.77-2.05c2.14-0.14,3.17,0.1,4.67,0.48" style="fill:none;stroke:black;stroke-width:3;opacity:0">
  <animate attributeType="CSS" attributeName="opacity" from="0" to="1" begin="5s" dur="1s" repeatCount="Indefinite" fill="freeze" />
</path>
<path d="M65.12,10.88c0.8,0.23,2.15,1.87,2.15,4.18c0,5.93,0.37,20.08,0.45,27.41" style="fill:none;stroke:black;stroke-width:3;opacity:0">
  <animate attributeType="CSS" attributeName="opacity" from="0" to="1" begin="6s" dur="1s" repeatCount="Indefinite" fill="freeze" />
</path>
<path d="M48.46,32.82c0.99,0.25,2.8,0.3,3.79,0.25c7.13-0.36,25.11-1.64,31.25-2.03c1.64-0.1,2.85-0.06,3.72-0.02" style="fill:none;stroke:black;stroke-width:3;opacity:0">
  <animate attributeType="CSS" attributeName="opacity" from="0" to="1" begin="7s" dur="1s" repeatCount="Indefinite" fill="freeze" />
</path>
<path d="M42.38,45.14c1.54,0.27,4.37,0.41,5.91,0.27c12.52-1.16,27.71-2.16,41.32-2.68c2.55-0.1,6.29,0.27,8.14,0.93" style="fill:none;stroke:black;stroke-width:3;opacity:0">
  <animate attributeType="CSS" attributeName="opacity" from="0" to="1" begin="8s" dur="1s" repeatCount="Indefinite" fill="freeze" />
</path>
<path d="M52.06,53.78c0.71,0.55,1.18,2.1,1.41,2.65c0.24,0.55,0.13,25.58,0.13,41.32" style="fill:none;stroke:black;stroke-width:3;opacity:0">
  <animate attributeType="CSS" attributeName="opacity" from="0" to="1" begin="9s" dur="1s" repeatCount="Indefinite" fill="freeze" />
</path>
<path d="M53.39,55.33c5.36-0.58,26.28-2.34,28.37-2.61c1.74-0.22,3.21,0.78,3.21,2.61c0,4.18-0.1,21.74-0.21,32.85C84.67,98,80,92,77.97,89.91" style="fill:none;stroke:black;stroke-width:3;opacity:0">
  <animate attributeType="CSS" attributeName="opacity" from="0" to="1" begin="10s" dur="1s" repeatCount="Indefinite" fill="freeze" />
</path>
<path d="M67.39,54.86c1.11,0.45,1,1.94,0.99,3.07c-0.03,5.7-0.13,11.89-0.13,14.57" style="fill:none;stroke:black;stroke-width:3;opacity:0">
  <animate attributeType="CSS" attributeName="opacity" from="0" to="1" begin="11s" dur="1s" repeatCount="Indefinite" fill="freeze" />
</path>
<path d="M54.1,73.74C63.75,73,74.75,72,84.57,71.82" style="fill:none;stroke:black;stroke-width:3;opacity:0">
  <animate attributeType="CSS" attributeName="opacity" from="0" to="1" begin="12s" dur="1s" repeatCount="Indefinite" fill="freeze" />
</path>
</svg>