<svg width="109px" height="109px" viewBox="0 0 px 109px" xmlns="http://www.w3.org/2000/svg" xmlns:xlink="http://www.w3.org/1999/xlink" xml:space="preserve" version="1.1"  baseProfile="full">
<path d="M13.05,24.83c0.67,0.17,1.9,0.22,2.55,0.17c8.35-0.58,15.7-1.32,26.86-2.33c1.11-0.1,1.78,0.08,2.33,0.16" style="fill:none;stroke:black;stroke-width:3;opacity:0">
  <animate attributeType="CSS" attributeName="opacity" from="0" to="1" begin="0s" dur="1s" repeatCount="Indefinite" fill="freeze" />
</path>
<path d="M24.29,27.12c0.04,1.01,0.09,2.61-0.08,4.04C23.23,39.7,17.54,58.4,9.76,69.87" style="fill:none;stroke:black;stroke-width:3;opacity:0">
  <animate attributeType="CSS" attributeName="opacity" from="0" to="1" begin="1s" dur="1s" repeatCount="Indefinite" fill="freeze" />
</path>
<path d="M19.5,53.7c0.2,0.52,0.4,0.96,0.48,1.61c0.68,5.18,2.01,19.96,2.48,29.27" style="fill:none;stroke:black;stroke-width:3;opacity:0">
  <animate attributeType="CSS" attributeName="opacity" from="0" to="1" begin="2s" dur="1s" repeatCount="Indefinite" fill="freeze" />
</path>
<path d="M20.23,55.92c8.52-1.42,15.95-2.47,19.53-3.21c1.31-0.27,2.09,1.6,1.9,3.18c-0.77,6.56-2.28,14.49-3.43,23.55" style="fill:none;stroke:black;stroke-width:3;opacity:0">
  <animate attributeType="CSS" attributeName="opacity" from="0" to="1" begin="3s" dur="1s" repeatCount="Indefinite" fill="freeze" />
</path>
<path d="M22.76,81.12c5.44-0.77,10.88-0.96,18.02-1.93" style="fill:none;stroke:black;stroke-width:3;opacity:0">
  <animate attributeType="CSS" attributeName="opacity" from="0" to="1" begin="4s" dur="1s" repeatCount="Indefinite" fill="freeze" />
</path>
<path d="M53.4,14.62c0.7,1.08,1.17,2.14,1.41,3.19c0.23,1.05,0.52,71.8,0.43,74.13" style="fill:none;stroke:black;stroke-width:3;opacity:0">
  <animate attributeType="CSS" attributeName="opacity" from="0" to="1" begin="5s" dur="1s" repeatCount="Indefinite" fill="freeze" />
</path>
<path d="M55.72,17.14c2.9-0.11,22.16-2.9,24.29-3.23c2.11-0.33,3.88,1.43,3.88,3.58c0,1.52-0.23,50.72-0.37,71.38" style="fill:none;stroke:black;stroke-width:3;opacity:0">
  <animate attributeType="CSS" attributeName="opacity" from="0" to="1" begin="6s" dur="1s" repeatCount="Indefinite" fill="freeze" />
</path>
<path d="M55.82,42.24c10.13-1.02,18.19-1.47,27.09-1.79" style="fill:none;stroke:black;stroke-width:3;opacity:0">
  <animate attributeType="CSS" attributeName="opacity" from="0" to="1" begin="7s" dur="1s" repeatCount="Indefinite" fill="freeze" />
</path>
<path d="M56.42,65c7.91-0.37,16.71-1.79,25.86-1.84" style="fill:none;stroke:black;stroke-width:3;opacity:0">
  <animate attributeType="CSS" attributeName="opacity" from="0" to="1" begin="8s" dur="1s" repeatCount="Indefinite" fill="freeze" />
</path>
<path d="M38.04,94.06c1.49,0.44,4.22,0.51,5.71,0.44c15.51-0.73,22.62-3.84,51.16-3.96c2.48-0.01,3.97,0.21,5.22,0.43" style="fill:none;stroke:black;stroke-width:3;opacity:0">
  <animate attributeType="CSS" attributeName="opacity" from="0" to="1" begin="9s" dur="1s" repeatCount="Indefinite" fill="freeze" />
</path>
</svg>