<svg width="109px" height="109px" viewBox="0 0 px 109px" xmlns="http://www.w3.org/2000/svg" xmlns:xlink="http://www.w3.org/1999/xlink" xml:space="preserve" version="1.1"  baseProfile="full">
<path d="M15.64,32.91c1.11,0.34,3.02,0.22,3.86,0.15c5.59-0.5,12.7-1.79,18.52-2.63C39.6,30.2,41.15,30,42.75,30" style="fill:none;stroke:black;stroke-width:3;opacity:0">
  <animate attributeType="CSS" attributeName="opacity" from="0" to="1" begin="0s" dur="1s" repeatCount="Indefinite" fill="freeze" />
</path>
<path d="M25.94,35.48c0.31,0.89,0.25,2.3-0.09,3.52C23.5,47.5,18.62,62,10.36,72.73" style="fill:none;stroke:black;stroke-width:3;opacity:0">
  <animate attributeType="CSS" attributeName="opacity" from="0" to="1" begin="1s" dur="1s" repeatCount="Indefinite" fill="freeze" />
</path>
<path d="M21.14,59.92c0.72,0.72,1.22,1.79,1.41,3.34c0.42,3.43,1.2,8.77,1.75,13.93c0.17,1.62,0.33,3.21,0.44,4.73" style="fill:none;stroke:black;stroke-width:3;opacity:0">
  <animate attributeType="CSS" attributeName="opacity" from="0" to="1" begin="2s" dur="1s" repeatCount="Indefinite" fill="freeze" />
</path>
<path d="M22.99,61.08c4.44-0.49,12.76-1.84,17.03-2.32c2.77-0.31,4.06,0.38,3.43,3.39c-0.67,3.23-1.4,6.02-2.9,13.09" style="fill:none;stroke:black;stroke-width:3;opacity:0">
  <animate attributeType="CSS" attributeName="opacity" from="0" to="1" begin="3s" dur="1s" repeatCount="Indefinite" fill="freeze" />
</path>
<path d="M25.47,78.19c2.72-0.31,8.46-1.24,13.27-1.79c1.32-0.15,2.51-0.25,3.47-0.28" style="fill:none;stroke:black;stroke-width:3;opacity:0">
  <animate attributeType="CSS" attributeName="opacity" from="0" to="1" begin="4s" dur="1s" repeatCount="Indefinite" fill="freeze" />
</path>
<path d="M51.75,33.37c0.75,0.75,1.25,2.32,1.28,4.6c0.34,24.16-1.53,41.91-13.16,52.67" style="fill:none;stroke:black;stroke-width:3;opacity:0">
  <animate attributeType="CSS" attributeName="opacity" from="0" to="1" begin="5s" dur="1s" repeatCount="Indefinite" fill="freeze" />
</path>
<path d="M53.88,35.26c12.4-2.76,23.62-4.64,33.76-5.43c9.02-0.7,2.1,7.29,0.37,9.28" style="fill:none;stroke:black;stroke-width:3;opacity:0">
  <animate attributeType="CSS" attributeName="opacity" from="0" to="1" begin="6s" dur="1s" repeatCount="Indefinite" fill="freeze" />
</path>
<path d="M69.72,12.5c0.95,0.95,1.44,2.25,1.44,3.5c0,1.04-0.11,27-0.11,37.25" style="fill:none;stroke:black;stroke-width:3;opacity:0">
  <animate attributeType="CSS" attributeName="opacity" from="0" to="1" begin="7s" dur="1s" repeatCount="Indefinite" fill="freeze" />
</path>
<path d="M59.22,55.67c1.17,0.33,2.44,0.62,4.78,0.13c5.01-1.05,13.35-2.83,18.24-4.07c2.39-0.61,3.66,1.16,2.94,2.86c-7.41,17.58-16.8,31.53-34.06,38.79" style="fill:none;stroke:black;stroke-width:3;opacity:0">
  <animate attributeType="CSS" attributeName="opacity" from="0" to="1" begin="8s" dur="1s" repeatCount="Indefinite" fill="freeze" />
</path>
<path d="M59.04,62.37c3.21,0.68,17.17,17.34,28.97,26.38c2.25,1.72,4.6,3.46,7.02,4.94" style="fill:none;stroke:black;stroke-width:3;opacity:0">
  <animate attributeType="CSS" attributeName="opacity" from="0" to="1" begin="9s" dur="1s" repeatCount="Indefinite" fill="freeze" />
</path>
</svg>