<svg width="109px" height="109px" viewBox="0 0 px 109px" xmlns="http://www.w3.org/2000/svg" xmlns:xlink="http://www.w3.org/1999/xlink" xml:space="preserve" version="1.1"  baseProfile="full">
<path d="M14.38,33.51c0.65,0.18,1.83,0.23,2.47,0.18c8.08-0.62,13.73-1.94,24.52-3.02c1.07-0.11,1.72,0.08,2.26,0.17" style="fill:none;stroke:black;stroke-width:3;opacity:0">
  <animate attributeType="CSS" attributeName="opacity" from="0" to="1" begin="0s" dur="1s" repeatCount="Indefinite" fill="freeze" />
</path>
<path d="M26.45,35.18c0.05,0.85,0.11,2.21-0.1,3.44C25.12,45.86,18.1,61.76,8.5,71.5" style="fill:none;stroke:black;stroke-width:3;opacity:0">
  <animate attributeType="CSS" attributeName="opacity" from="0" to="1" begin="1s" dur="1s" repeatCount="Indefinite" fill="freeze" />
</path>
<path d="M21,57.69c0.29,0.39,0.59,0.71,0.72,1.2c1.01,3.85,2.22,14.45,2.91,21.36" style="fill:none;stroke:black;stroke-width:3;opacity:0">
  <animate attributeType="CSS" attributeName="opacity" from="0" to="1" begin="2s" dur="1s" repeatCount="Indefinite" fill="freeze" />
</path>
<path d="M22.82,59.37c7.1-1.49,14.28-2.38,17.69-2.88c1.25-0.19,2,1.09,1.82,2.18c-0.74,4.49-2.65,9.92-3.75,16.13" style="fill:none;stroke:black;stroke-width:3;opacity:0">
  <animate attributeType="CSS" attributeName="opacity" from="0" to="1" begin="3s" dur="1s" repeatCount="Indefinite" fill="freeze" />
</path>
<path d="M24.77,77.8c5.15-0.77,9.34-1.47,16.11-2.44" style="fill:none;stroke:black;stroke-width:3;opacity:0">
  <animate attributeType="CSS" attributeName="opacity" from="0" to="1" begin="4s" dur="1s" repeatCount="Indefinite" fill="freeze" />
</path>
<path d="M59.85,15.98c0.03,0.48,0.07,1.23-0.06,1.92c-0.78,4.04-5.24,12.92-11.35,18.35" style="fill:none;stroke:black;stroke-width:3;opacity:0">
  <animate attributeType="CSS" attributeName="opacity" from="0" to="1" begin="5s" dur="1s" repeatCount="Indefinite" fill="freeze" />
</path>
<path d="M76.52,15.08C82.78,19.39,90.39,27.6,92.54,32" style="fill:none;stroke:black;stroke-width:3;opacity:0">
  <animate attributeType="CSS" attributeName="opacity" from="0" to="1" begin="6s" dur="1s" repeatCount="Indefinite" fill="freeze" />
</path>
<path d="M69.43,30.25c0.06,0.85,0.27,2.28-0.12,3.43c-3.24,9.61-10.59,23.43-20.4,32.82" style="fill:none;stroke:black;stroke-width:3;opacity:0">
  <animate attributeType="CSS" attributeName="opacity" from="0" to="1" begin="7s" dur="1s" repeatCount="Indefinite" fill="freeze" />
</path>
<path d="M69.72,33.83c5.92,9.1,16.94,22.1,22.36,26.93c1.35,1.2,2.9,1.98,4.17,2.38" style="fill:none;stroke:black;stroke-width:3;opacity:0">
  <animate attributeType="CSS" attributeName="opacity" from="0" to="1" begin="8s" dur="1s" repeatCount="Indefinite" fill="freeze" />
</path>
<path d="M53.97,68.27c0.35,0.46,0.7,0.84,0.86,1.41c1.21,4.5,3.15,16.94,3.97,25.03" style="fill:none;stroke:black;stroke-width:3;opacity:0">
  <animate attributeType="CSS" attributeName="opacity" from="0" to="1" begin="9s" dur="1s" repeatCount="Indefinite" fill="freeze" />
</path>
<path d="M55.6,69.65c9.9-1.4,21.62-2.62,27.43-3.52c1.98-0.31,3.2,2.06,2.9,3.41c-1.44,6.44-3.02,12.22-4.36,20.12" style="fill:none;stroke:black;stroke-width:3;opacity:0">
  <animate attributeType="CSS" attributeName="opacity" from="0" to="1" begin="10s" dur="1s" repeatCount="Indefinite" fill="freeze" />
</path>
<path d="M59.73,91.93c7.65-0.62,14.22-1.05,24.18-1.78" style="fill:none;stroke:black;stroke-width:3;opacity:0">
  <animate attributeType="CSS" attributeName="opacity" from="0" to="1" begin="11s" dur="1s" repeatCount="Indefinite" fill="freeze" />
</path>
</svg>