<svg width="109px" height="109px" viewBox="0 0 px 109px" xmlns="http://www.w3.org/2000/svg" xmlns:xlink="http://www.w3.org/1999/xlink" xml:space="preserve" version="1.1"  baseProfile="full">
<path d="M45,7.5c5.8,2.21,12.03,5.51,17,9.38" style="fill:none;stroke:black;stroke-width:3;opacity:0">
  <animate attributeType="CSS" attributeName="opacity" from="0" to="1" begin="0s" dur="1s" repeatCount="0" fill="freeze" />
</path>
<path d="M29,33.22c3.12,1.53,5.62,1.58,8.81,0.98c7.72-1.47,24.61-5.65,27.91-6.52c3.86-1.01,5.65,1.54,3.41,4.61C59.75,45.12,42.5,63,24.91,74.62" style="fill:none;stroke:black;stroke-width:3;opacity:0">
  <animate attributeType="CSS" attributeName="opacity" from="0" to="1" begin="1s" dur="1s" repeatCount="0" fill="freeze" />
</path>
<path d="M53.42,53.37c0.92,0.92,1.02,2.27,1.02,4.14c0,7.13-0.04,24.19-0.06,34.37c-0.01,3.38-0.01,6-0.01,7.25" style="fill:none;stroke:black;stroke-width:3;opacity:0">
  <animate attributeType="CSS" attributeName="opacity" from="0" to="1" begin="2s" dur="1s" repeatCount="0" fill="freeze" />
</path>
<path d="M57.5,53.75C73,61.62,80.62,68,84.88,75.62" style="fill:none;stroke:black;stroke-width:3;opacity:0">
  <animate attributeType="CSS" attributeName="opacity" from="0" to="1" begin="3s" dur="1s" repeatCount="0" fill="freeze" />
</path>
</svg>