<svg width="109px" height="109px" viewBox="0 0 px 109px" xmlns="http://www.w3.org/2000/svg" xmlns:xlink="http://www.w3.org/1999/xlink" xml:space="preserve" version="1.1"  baseProfile="full">
<path d="M18.23,19.25c0.83,0.52,2.35,0.57,3.19,0.52c5.22-0.35,13.06-1.85,18.35-2.33c1.38-0.12,2.22,0.24,2.91,0.5" style="fill:none;stroke:black;stroke-width:3;opacity:0">
  <animate attributeType="CSS" attributeName="opacity" from="0" to="1" begin="0s" dur="1s" repeatCount="0" fill="freeze" />
</path>
<path d="M14.5,36.45c1.06,0.43,3,0.47,4.06,0.43c6.66-0.28,16.82-2.08,24.49-2.55c1.76-0.11,2.82,0.2,3.7,0.42" style="fill:none;stroke:black;stroke-width:3;opacity:0">
  <animate attributeType="CSS" attributeName="opacity" from="0" to="1" begin="1s" dur="1s" repeatCount="0" fill="freeze" />
</path>
<path d="M29.25,37.5c1.5,0.5,2.04,2.5,2.04,3.87c0,0.99,0,47.61-0.44,53.13" style="fill:none;stroke:black;stroke-width:3;opacity:0">
  <animate attributeType="CSS" attributeName="opacity" from="0" to="1" begin="2s" dur="1s" repeatCount="0" fill="freeze" />
</path>
<path d="M19.93,48.75c0.45,1.42,0.44,2.16,0.44,3.36c0,8.81-0.88,20.87-7.62,32.14" style="fill:none;stroke:black;stroke-width:3;opacity:0">
  <animate attributeType="CSS" attributeName="opacity" from="0" to="1" begin="3s" dur="1s" repeatCount="0" fill="freeze" />
</path>
<path d="M40.58,47c1.3,0.39,2.08,1.74,2.34,2.51c0.26,0.77,0,25-0.26,29.82" style="fill:none;stroke:black;stroke-width:3;opacity:0">
  <animate attributeType="CSS" attributeName="opacity" from="0" to="1" begin="4s" dur="1s" repeatCount="0" fill="freeze" />
</path>
<path d="M86.07,12.42c0.09,0.38,0.19,0.97-0.18,1.51C83.66,17.12,73.27,23.4,56,28.75" style="fill:none;stroke:black;stroke-width:3;opacity:0">
  <animate attributeType="CSS" attributeName="opacity" from="0" to="1" begin="5s" dur="1s" repeatCount="0" fill="freeze" />
</path>
<path d="M53.25,27c1.06,1.26,2,3.68,2,6.05c0,2.37-0.17,40.16-0.17,43.85c0,3.69,0.17,4.74,2.32,2.1c2.15-2.63,14.02-10.43,15.35-12" style="fill:none;stroke:black;stroke-width:3;opacity:0">
  <animate attributeType="CSS" attributeName="opacity" from="0" to="1" begin="6s" dur="1s" repeatCount="0" fill="freeze" />
</path>
<path d="M57.28,45.17c0.58,0.11,1.63-0.11,2.21-0.15c12.54-0.92,19.47-2.22,29.46-3.36c0.94-0.11,3.33-0.21,3.81-0.15" style="fill:none;stroke:black;stroke-width:3;opacity:0">
  <animate attributeType="CSS" attributeName="opacity" from="0" to="1" begin="7s" dur="1s" repeatCount="0" fill="freeze" />
</path>
<path d="M72.75,26c0.42,0.48,1.26,2.92,1.31,3.86c1.07,21.1,6.63,49.3,18.63,62.33c4.43,4.81,2.92-3.45,2.92-6.41" style="fill:none;stroke:black;stroke-width:3;opacity:0">
  <animate attributeType="CSS" attributeName="opacity" from="0" to="1" begin="8s" dur="1s" repeatCount="0" fill="freeze" />
</path>
<path d="M51.25,91.67c0.76,0.39,2.15,0.5,2.91,0.39c4.84-0.68,18.71-3.12,23.93-2.98c1.26,0.03,2.02,0.19,2.66,0.38" style="fill:none;stroke:black;stroke-width:3;opacity:0">
  <animate attributeType="CSS" attributeName="opacity" from="0" to="1" begin="9s" dur="1s" repeatCount="0" fill="freeze" />
</path>
</svg>