<svg width="109px" height="109px" viewBox="0 0 px 109px" xmlns="http://www.w3.org/2000/svg" xmlns:xlink="http://www.w3.org/1999/xlink" xml:space="preserve" version="1.1"  baseProfile="full">
<path d="M18.38,28.5c1.5,1.5,1.73,3.25,1.73,5.8c0,6.2,0,48.07,0,58.45" style="fill:none;stroke:black;stroke-width:3;opacity:0">
  <animate attributeType="CSS" attributeName="opacity" from="0" to="1" begin="0s" dur="1s" repeatCount="Indefinite" fill="freeze" />
</path>
<path d="M20.72,31.66c10.15-1.16,45.78-4.16,63.3-5.85c3.73-0.36,5.92,1.94,5.92,4.58c0,8.23-1.07,45.48-2.18,59.64c-0.84,10.7-6.01,3.22-8.6,0.17" style="fill:none;stroke:black;stroke-width:3;opacity:0">
  <animate attributeType="CSS" attributeName="opacity" from="0" to="1" begin="1s" dur="1s" repeatCount="Indefinite" fill="freeze" />
</path>
<path d="M53.94,5.75c0.97,0.97,1.45,2.38,1.45,4.24c0,8.76-0.01,46.18-0.01,48.88" style="fill:none;stroke:black;stroke-width:3;opacity:0">
  <animate attributeType="CSS" attributeName="opacity" from="0" to="1" begin="2s" dur="1s" repeatCount="Indefinite" fill="freeze" />
</path>
<path d="M36.5,61.1c0.88,1.9,1.84,1.98,4.41,1.58c5.09-0.8,19.71-3.42,28.96-5.17" style="fill:none;stroke:black;stroke-width:3;opacity:0">
  <animate attributeType="CSS" attributeName="opacity" from="0" to="1" begin="3s" dur="1s" repeatCount="Indefinite" fill="freeze" />
</path>
<path d="M60.62,46.38c5.8,3.81,14.98,15.68,16.43,21.61" style="fill:none;stroke:black;stroke-width:3;opacity:0">
  <animate attributeType="CSS" attributeName="opacity" from="0" to="1" begin="4s" dur="1s" repeatCount="Indefinite" fill="freeze" />
</path>
</svg>