<svg width="109px" height="109px" viewBox="0 0 px 109px" xmlns="http://www.w3.org/2000/svg" xmlns:xlink="http://www.w3.org/1999/xlink" xml:space="preserve" version="1.1"  baseProfile="full">
<path d="M75,11.5c-0.23,1.22-1.43,2.39-2.48,2.92C63.62,19,52,23.62,28,29.25" style="fill:none;stroke:black;stroke-width:3;opacity:0">
  <animate attributeType="CSS" attributeName="opacity" from="0" to="1" begin="0s" dur="1s" repeatCount="0" fill="freeze" />
</path>
<path d="M16.5,45c3.79,1.15,7.81,0.61,11.65,0.22c17.1-1.72,36.6-3.1,52.23-3.8c3.91-0.18,7.76-0.15,11.62,0.45" style="fill:none;stroke:black;stroke-width:3;opacity:0">
  <animate attributeType="CSS" attributeName="opacity" from="0" to="1" begin="1s" dur="1s" repeatCount="0" fill="freeze" />
</path>
<path d="M53.72,25.75c0.95,0.96,1.1,2.29,1.1,3.22c0,3.65-0.11,39.81-0.16,58.91c-0.01,5.28-0.02,9.25-0.02,10.88" style="fill:none;stroke:black;stroke-width:3;opacity:0">
  <animate attributeType="CSS" attributeName="opacity" from="0" to="1" begin="2s" dur="1s" repeatCount="0" fill="freeze" />
</path>
<path d="M52.5,44.18c0,1.19-1.99,4.17-3,5.57C41.25,61.15,27.06,74.7,15.25,82.5" style="fill:none;stroke:black;stroke-width:3;opacity:0">
  <animate attributeType="CSS" attributeName="opacity" from="0" to="1" begin="3s" dur="1s" repeatCount="0" fill="freeze" />
</path>
<path d="M56,45.46c3.79,3.67,14.84,17,24.44,26.36C84.26,75.55,91.49,82.12,97,83.5" style="fill:none;stroke:black;stroke-width:3;opacity:0">
  <animate attributeType="CSS" attributeName="opacity" from="0" to="1" begin="4s" dur="1s" repeatCount="0" fill="freeze" />
</path>
</svg>