<svg width="109px" height="109px" viewBox="0 0 px 109px" xmlns="http://www.w3.org/2000/svg" xmlns:xlink="http://www.w3.org/1999/xlink" xml:space="preserve" version="1.1"  baseProfile="full">
<path d="M29.23,22.37c2.32,0.74,5.18,0.47,7.54,0.21c10.73-1.2,24.29-1.91,35.86-2.48c2.38-0.12,4.7-0.25,7.05,0.2" style="fill:none;stroke:black;stroke-width:3;opacity:0">
  <animate attributeType="CSS" attributeName="opacity" from="0" to="1" begin="0s" dur="1s" repeatCount="0" fill="freeze" />
</path>
<path d="M30.2,34.49c3.18,0.76,6.21,0.39,8.94,0.21c9.4-0.64,19.79-1.81,30.12-2.53c2.54-0.18,4.95-0.4,7.44,0.24" style="fill:none;stroke:black;stroke-width:3;opacity:0">
  <animate attributeType="CSS" attributeName="opacity" from="0" to="1" begin="1s" dur="1s" repeatCount="0" fill="freeze" />
</path>
<path d="M14.53,48.46c3.27,1.2,7.26,0.58,10.62,0.33c16.07-1.2,39.35-3.53,58.61-3.95c3.62-0.08,7.28-0.23,10.84,0.55" style="fill:none;stroke:black;stroke-width:3;opacity:0">
  <animate attributeType="CSS" attributeName="opacity" from="0" to="1" begin="2s" dur="1s" repeatCount="0" fill="freeze" />
</path>
<path d="M54.91,10c0.49,1.4,0.5,2.64,0.02,4.84C50.62,34.62,38,59.25,14.26,75.39" style="fill:none;stroke:black;stroke-width:3;opacity:0">
  <animate attributeType="CSS" attributeName="opacity" from="0" to="1" begin="3s" dur="1s" repeatCount="0" fill="freeze" />
</path>
<path d="M58.23,39.16c4.53,5.04,19.51,18.83,27.6,26.03c2.18,1.94,4.8,3.81,9.16,5.86" style="fill:none;stroke:black;stroke-width:3;opacity:0">
  <animate attributeType="CSS" attributeName="opacity" from="0" to="1" begin="4s" dur="1s" repeatCount="0" fill="freeze" />
</path>
<path d="M62.89,52.92c-0.39,1.21-1.5,2.1-2.39,2.58c-5.12,2.75-12.44,5.89-24.27,8.49" style="fill:none;stroke:black;stroke-width:3;opacity:0">
  <animate attributeType="CSS" attributeName="opacity" from="0" to="1" begin="5s" dur="1s" repeatCount="0" fill="freeze" />
</path>
<path d="M29.15,71.61c2.38,0.71,4.82,0.46,7.26,0.26c7.73-0.62,22.57-1.89,32.73-2.43c2.5-0.13,4.93-0.23,7.4,0.22" style="fill:none;stroke:black;stroke-width:3;opacity:0">
  <animate attributeType="CSS" attributeName="opacity" from="0" to="1" begin="6s" dur="1s" repeatCount="0" fill="freeze" />
</path>
<path d="M52.56,62c0.84,0.84,0.84,2,0.84,3.04c0,0.39-0.02,19.36-0.02,29.33c0,2.62,0,4.62,0,5.5" style="fill:none;stroke:black;stroke-width:3;opacity:0">
  <animate attributeType="CSS" attributeName="opacity" from="0" to="1" begin="7s" dur="1s" repeatCount="0" fill="freeze" />
</path>
<path d="M50.47,71.48c0,0.9-0.59,2-1.72,3.38c-6.3,7.7-14.34,14.6-24.62,19.92" style="fill:none;stroke:black;stroke-width:3;opacity:0">
  <animate attributeType="CSS" attributeName="opacity" from="0" to="1" begin="8s" dur="1s" repeatCount="0" fill="freeze" />
</path>
<path d="M56.5,76.92c7.13,2.33,19.79,11.57,23.84,17" style="fill:none;stroke:black;stroke-width:3;opacity:0">
  <animate attributeType="CSS" attributeName="opacity" from="0" to="1" begin="9s" dur="1s" repeatCount="0" fill="freeze" />
</path>
</svg>