<svg width="109px" height="109px" viewBox="0 0 px 109px" xmlns="http://www.w3.org/2000/svg" xmlns:xlink="http://www.w3.org/1999/xlink" xml:space="preserve" version="1.1"  baseProfile="full">
<path d="M40.99,15c0.07,0.3,0.16,0.77-0.15,1.21c-1.8,2.54-12.16,8.13-26.34,11.54" style="fill:none;stroke:black;stroke-width:3;opacity:0">
  <animate attributeType="CSS" attributeName="opacity" from="0" to="1" begin="0s" dur="1s" repeatCount="0" fill="freeze" />
</path>
<path d="M13.48,42.07c0.31,0.17,1.15,0.44,1.99,0.5c2.31,0.17,21.19-2.47,26.95-3.3c0.84-0.12,1.05-0.16,1.57,0" style="fill:none;stroke:black;stroke-width:3;opacity:0">
  <animate attributeType="CSS" attributeName="opacity" from="0" to="1" begin="1s" dur="1s" repeatCount="0" fill="freeze" />
</path>
<path d="M31.33,25.5c0.37,0.44,0.58,1.99,0.66,2.88c0.07,0.89,0,62.83-0.07,68.37" style="fill:none;stroke:black;stroke-width:3;opacity:0">
  <animate attributeType="CSS" attributeName="opacity" from="0" to="1" begin="2s" dur="1s" repeatCount="0" fill="freeze" />
</path>
<path d="M31.93,44.47C27.59,55.46,20.34,69.01,10.5,78" style="fill:none;stroke:black;stroke-width:3;opacity:0">
  <animate attributeType="CSS" attributeName="opacity" from="0" to="1" begin="3s" dur="1s" repeatCount="0" fill="freeze" />
</path>
<path d="M35.75,51c2.94,2.98,5.42,8.92,7,12.75" style="fill:none;stroke:black;stroke-width:3;opacity:0">
  <animate attributeType="CSS" attributeName="opacity" from="0" to="1" begin="4s" dur="1s" repeatCount="0" fill="freeze" />
</path>
<path d="M85.5,12c0.1,0.3,0.2,0.78-0.19,1.21C82.96,15.75,69.47,21.33,51,24.75" style="fill:none;stroke:black;stroke-width:3;opacity:0">
  <animate attributeType="CSS" attributeName="opacity" from="0" to="1" begin="5s" dur="1s" repeatCount="0" fill="freeze" />
</path>
<path d="M55.49,32.25c0.03,0.43,0.07,1.11-0.06,1.73C54.65,37.62,50.15,45.61,44,50.5" style="fill:none;stroke:black;stroke-width:3;opacity:0">
  <animate attributeType="CSS" attributeName="opacity" from="0" to="1" begin="6s" dur="1s" repeatCount="0" fill="freeze" />
</path>
<path d="M67,29.75c3.13,2.23,8.08,9.19,8.87,12.67" style="fill:none;stroke:black;stroke-width:3;opacity:0">
  <animate attributeType="CSS" attributeName="opacity" from="0" to="1" begin="7s" dur="1s" repeatCount="0" fill="freeze" />
</path>
<path d="M83,25.5c5.47,3.09,14.13,12.7,15.5,17.5" style="fill:none;stroke:black;stroke-width:3;opacity:0">
  <animate attributeType="CSS" attributeName="opacity" from="0" to="1" begin="8s" dur="1s" repeatCount="0" fill="freeze" />
</path>
<path d="M66.18,47.86c0.04,0.31,0.18,0.9-0.08,1.23c-3.46,4.36-7.5,8.26-15.4,11.73" style="fill:none;stroke:black;stroke-width:3;opacity:0">
  <animate attributeType="CSS" attributeName="opacity" from="0" to="1" begin="9s" dur="1s" repeatCount="0" fill="freeze" />
</path>
<path d="M49.53,59.32c0.77,0.72,1.08,2.33,1.27,3.8c0.69,5.38,2.89,26.42,3.59,33.7" style="fill:none;stroke:black;stroke-width:3;opacity:0">
  <animate attributeType="CSS" attributeName="opacity" from="0" to="1" begin="10s" dur="1s" repeatCount="0" fill="freeze" />
</path>
<path d="M74.55,55.98c0.81,0.16,1.45,0.49,2.58,0.49s13.07-0.98,14.36-1.14c1.29-0.16,2.36,0.82,2.26,1.81c-0.97,9.55-5.09,37.95-5.25,38.61" style="fill:none;stroke:black;stroke-width:3;opacity:0">
  <animate attributeType="CSS" attributeName="opacity" from="0" to="1" begin="11s" dur="1s" repeatCount="0" fill="freeze" />
</path>
<path d="M52.11,75.37c3.21-0.33,11.59-2.14,12.35-2.14s1.84,0,2.45,0" style="fill:none;stroke:black;stroke-width:3;opacity:0">
  <animate attributeType="CSS" attributeName="opacity" from="0" to="1" begin="12s" dur="1s" repeatCount="0" fill="freeze" />
</path>
<path d="M75.85,73.15c0.71,0.12,1.28,0.35,2.27,0.35c0.99,0,11.21-0.93,12.35-1.04" style="fill:none;stroke:black;stroke-width:3;opacity:0">
  <animate attributeType="CSS" attributeName="opacity" from="0" to="1" begin="13s" dur="1s" repeatCount="0" fill="freeze" />
</path>
<path d="M54.05,93.53c1.92,0,32.42-2.13,34.63-2.29" style="fill:none;stroke:black;stroke-width:3;opacity:0">
  <animate attributeType="CSS" attributeName="opacity" from="0" to="1" begin="14s" dur="1s" repeatCount="0" fill="freeze" />
</path>
</svg>