<svg width="109px" height="109px" viewBox="0 0 px 109px" xmlns="http://www.w3.org/2000/svg" xmlns:xlink="http://www.w3.org/1999/xlink" xml:space="preserve" version="1.1"  baseProfile="full">
<path d="M39.51,15.5c-0.06,0.89-0.36,1.67-0.91,2.35c-3.35,3.4-12.22,9.15-21.1,13.4" style="fill:none;stroke:black;stroke-width:3;opacity:0">
  <animate attributeType="CSS" attributeName="opacity" from="0" to="1" begin="0s" dur="1s" repeatCount="0" fill="freeze" />
</path>
<path d="M14.87,43.35c1.88,0.4,3.85,0.29,5.15,0.12c5.69-0.72,15.45-2.3,21.01-3.29c0.8-0.14,2.6-0.3,3.7-0.1" style="fill:none;stroke:black;stroke-width:3;opacity:0">
  <animate attributeType="CSS" attributeName="opacity" from="0" to="1" begin="1s" dur="1s" repeatCount="0" fill="freeze" />
</path>
<path d="M31.95,27.41c1.01,1.01,1.54,2.46,1.54,4.03s0.03,40.61-0.04,57.82c-0.01,3.83-0.03,6.56-0.04,7.5" style="fill:none;stroke:black;stroke-width:3;opacity:0">
  <animate attributeType="CSS" attributeName="opacity" from="0" to="1" begin="2s" dur="1s" repeatCount="0" fill="freeze" />
</path>
<path d="M32.43,43.47c0,1.03-0.67,3.52-1.2,4.87C27.34,58.09,20.53,70,13.5,77.25" style="fill:none;stroke:black;stroke-width:3;opacity:0">
  <animate attributeType="CSS" attributeName="opacity" from="0" to="1" begin="3s" dur="1s" repeatCount="0" fill="freeze" />
</path>
<path d="M36.25,52.62c3.04,1.78,5.61,5.34,7.25,7.62" style="fill:none;stroke:black;stroke-width:3;opacity:0">
  <animate attributeType="CSS" attributeName="opacity" from="0" to="1" begin="4s" dur="1s" repeatCount="0" fill="freeze" />
</path>
<path d="M80.01,12.39c-0.07,0.82-0.44,1.46-1.1,1.93c-3.28,2.77-14.77,7.63-26.62,9.79" style="fill:none;stroke:black;stroke-width:3;opacity:0">
  <animate attributeType="CSS" attributeName="opacity" from="0" to="1" begin="5s" dur="1s" repeatCount="0" fill="freeze" />
</path>
<path d="M51.62,29.25c1.53,1.55,3.95,6.39,4.34,8.81" style="fill:none;stroke:black;stroke-width:3;opacity:0">
  <animate attributeType="CSS" attributeName="opacity" from="0" to="1" begin="6s" dur="1s" repeatCount="0" fill="freeze" />
</path>
<path d="M66.12,25.5c1.83,1.59,4.73,6.54,5.19,9.01" style="fill:none;stroke:black;stroke-width:3;opacity:0">
  <animate attributeType="CSS" attributeName="opacity" from="0" to="1" begin="7s" dur="1s" repeatCount="0" fill="freeze" />
</path>
<path d="M89.15,21.39c0.11,0.72,0,1.39-0.32,2.01c-1.15,2.87-3.17,6.07-7.21,10.22" style="fill:none;stroke:black;stroke-width:3;opacity:0">
  <animate attributeType="CSS" attributeName="opacity" from="0" to="1" begin="8s" dur="1s" repeatCount="0" fill="freeze" />
</path>
<path d="M50.66,43.42c2.36,0.3,4.34,0.46,6.71,0.21c9.19-0.96,19.05-2.8,26.5-3.74c2.28-0.29,3.81,1.12,3.54,3.41c-0.66,5.57-1.45,11.44-2.33,18c-0.22,1.63-0.46,3.27-0.75,4.89" style="fill:none;stroke:black;stroke-width:3;opacity:0">
  <animate attributeType="CSS" attributeName="opacity" from="0" to="1" begin="9s" dur="1s" repeatCount="0" fill="freeze" />
</path>
<path d="M51.38,54.94c2.03,0.23,3.8,0.38,5.85,0.18c13.2-1.3,21.56-2.73,28.82-3.5" style="fill:none;stroke:black;stroke-width:3;opacity:0">
  <animate attributeType="CSS" attributeName="opacity" from="0" to="1" begin="10s" dur="1s" repeatCount="0" fill="freeze" />
</path>
<path d="M51.24,66.49c2.03,0.25,3.84,0.23,5.88,0.01c10.71-1.17,20.2-2.58,27.48-2.96" style="fill:none;stroke:black;stroke-width:3;opacity:0">
  <animate attributeType="CSS" attributeName="opacity" from="0" to="1" begin="11s" dur="1s" repeatCount="0" fill="freeze" />
</path>
<path d="M47.76,79.38c0.26,1.98-2.56,10.71-4.61,14.01" style="fill:none;stroke:black;stroke-width:3;opacity:0">
  <animate attributeType="CSS" attributeName="opacity" from="0" to="1" begin="12s" dur="1s" repeatCount="0" fill="freeze" />
</path>
<path d="M54.18,77.87c8.07,14.88,17.32,17.88,31.1,18.56c6.36,0.31,6.82-3.2,1.6-5.98" style="fill:none;stroke:black;stroke-width:3;opacity:0">
  <animate attributeType="CSS" attributeName="opacity" from="0" to="1" begin="13s" dur="1s" repeatCount="0" fill="freeze" />
</path>
<path d="M67.69,74.44c1.28,2.79,5.06,8.73,6.19,3.56" style="fill:none;stroke:black;stroke-width:3;opacity:0">
  <animate attributeType="CSS" attributeName="opacity" from="0" to="1" begin="14s" dur="1s" repeatCount="0" fill="freeze" />
</path>
<path d="M87.92,74.95c3.16,2.32,6.72,5.75,9.31,10.35" style="fill:none;stroke:black;stroke-width:3;opacity:0">
  <animate attributeType="CSS" attributeName="opacity" from="0" to="1" begin="15s" dur="1s" repeatCount="0" fill="freeze" />
</path>
</svg>