<svg width="109px" height="109px" viewBox="0 0 px 109px" xmlns="http://www.w3.org/2000/svg" xmlns:xlink="http://www.w3.org/1999/xlink" xml:space="preserve" version="1.1"  baseProfile="full">
<path d="M51.73,8c1.19,0.4,2.89,2.39,2.86,3.56c-0.09,3.67-0.09,6.32-0.09,9.66" style="fill:none;stroke:black;stroke-width:3;opacity:0">
  <animate attributeType="CSS" attributeName="opacity" from="0" to="1" begin="0s" dur="1s" repeatCount="Indefinite" fill="freeze" />
</path>
<path d="M19.98,21.26c0,3.85-3.06,14.43-4.46,16.99" style="fill:none;stroke:black;stroke-width:3;opacity:0">
  <animate attributeType="CSS" attributeName="opacity" from="0" to="1" begin="1s" dur="1s" repeatCount="Indefinite" fill="freeze" />
</path>
<path d="M20.1,24.29c13.9-0.79,56.51-4.46,65.44-4.17c11.55,0.36,2.32,7.05-0.59,9.06" style="fill:none;stroke:black;stroke-width:3;opacity:0">
  <animate attributeType="CSS" attributeName="opacity" from="0" to="1" begin="2s" dur="1s" repeatCount="Indefinite" fill="freeze" />
</path>
<path d="M40.76,27c0.04,0.41,0.18,1.1-0.09,1.65c-2.47,5.06-7.64,10.9-15.69,15.77" style="fill:none;stroke:black;stroke-width:3;opacity:0">
  <animate attributeType="CSS" attributeName="opacity" from="0" to="1" begin="3s" dur="1s" repeatCount="Indefinite" fill="freeze" />
</path>
<path d="M62.59,24.37c0.38,0.47,0.71,1.03,0.71,1.77c0,1.95-0.27,5.34-0.27,7.57c0,5.19,5.51,4.6,10.02,4.6c4.75,0,8.82-0.67,9.49-1.05" style="fill:none;stroke:black;stroke-width:3;opacity:0">
  <animate attributeType="CSS" attributeName="opacity" from="0" to="1" begin="4s" dur="1s" repeatCount="Indefinite" fill="freeze" />
</path>
<path d="M26.07,55.89c1.18,0.36,3.28,0.23,4.42,0.16c8.89-0.54,40.27-1.76,52.1-1.97c1.92-0.03,3.16-0.08,4.54,0.66" style="fill:none;stroke:black;stroke-width:3;opacity:0">
  <animate attributeType="CSS" attributeName="opacity" from="0" to="1" begin="5s" dur="1s" repeatCount="Indefinite" fill="freeze" />
</path>
<path d="M15.99,72.72c1.81,0.29,5.14,0.4,6.94,0.33c10.66-0.45,48.5-2.46,64.24-2.74c3.01-0.06,4.83,0.16,6.34,0.31" style="fill:none;stroke:black;stroke-width:3;opacity:0">
  <animate attributeType="CSS" attributeName="opacity" from="0" to="1" begin="6s" dur="1s" repeatCount="Indefinite" fill="freeze" />
</path>
<path d="M40.16,44.67c0.91,0.68,1.51,1.86,1.81,2.54c0.3,0.68-0.2,20.92-0.2,22.45c0,15.13-9.37,25.33-23.27,30.09" style="fill:none;stroke:black;stroke-width:3;opacity:0">
  <animate attributeType="CSS" attributeName="opacity" from="0" to="1" begin="7s" dur="1s" repeatCount="Indefinite" fill="freeze" />
</path>
<path d="M63.06,44.25c1.01,0.32,1.61,1.46,1.81,2.1c0.2,0.65,0,51.6-0.2,55.65" style="fill:none;stroke:black;stroke-width:3;opacity:0">
  <animate attributeType="CSS" attributeName="opacity" from="0" to="1" begin="8s" dur="1s" repeatCount="Indefinite" fill="freeze" />
</path>
</svg>