<svg width="109px" height="109px" viewBox="0 0 px 109px" xmlns="http://www.w3.org/2000/svg" xmlns:xlink="http://www.w3.org/1999/xlink" xml:space="preserve" version="1.1"  baseProfile="full">
<path d="M51.81,7.25c0.81,0.3,1.97,1.8,1.95,2.68c-0.06,2.77-0.06,4.76-0.06,7.29" style="fill:none;stroke:black;stroke-width:3;opacity:0">
  <animate attributeType="CSS" attributeName="opacity" from="0" to="1" begin="0s" dur="1s" repeatCount="Indefinite" fill="freeze" />
</path>
<path d="M20,17.76c0,3.17-2.57,11.88-3.74,13.99" style="fill:none;stroke:black;stroke-width:3;opacity:0">
  <animate attributeType="CSS" attributeName="opacity" from="0" to="1" begin="1s" dur="1s" repeatCount="Indefinite" fill="freeze" />
</path>
<path d="M19.87,20.74c12.8-1.99,58.5-4.49,67.84-4.38c12.09,0.14,2.56,6.41-0.45,8.3" style="fill:none;stroke:black;stroke-width:3;opacity:0">
  <animate attributeType="CSS" attributeName="opacity" from="0" to="1" begin="2s" dur="1s" repeatCount="Indefinite" fill="freeze" />
</path>
<path d="M41.02,22c0.05,0.29,0.21,0.79-0.11,1.18c-2.93,3.63-9.09,7.83-18.66,11.32" style="fill:none;stroke:black;stroke-width:3;opacity:0">
  <animate attributeType="CSS" attributeName="opacity" from="0" to="1" begin="3s" dur="1s" repeatCount="Indefinite" fill="freeze" />
</path>
<path d="M60.84,18.87c0.37,0.38,0.68,0.83,0.68,1.42c0,1.56-0.26,4.29-0.26,6.08c0,4.17,5.31,3.7,9.64,3.7c4.57,0,8.49-0.54,9.13-0.84" style="fill:none;stroke:black;stroke-width:3;opacity:0">
  <animate attributeType="CSS" attributeName="opacity" from="0" to="1" begin="4s" dur="1s" repeatCount="Indefinite" fill="freeze" />
</path>
<path d="M31.12,38.4c0.25,0.21,0.76,1.15,0.9,1.98c0.93,5.47,2.34,12.54,3.06,16.13" style="fill:none;stroke:black;stroke-width:3;opacity:0">
  <animate attributeType="CSS" attributeName="opacity" from="0" to="1" begin="5s" dur="1s" repeatCount="Indefinite" fill="freeze" />
</path>
<path d="M32.61,38.92c12.65-0.82,30.78-2.17,40.79-2.88c3.19-0.23,5.02,1.18,4.61,2.75C76.38,45.05,75.93,50.53,75,54" style="fill:none;stroke:black;stroke-width:3;opacity:0">
  <animate attributeType="CSS" attributeName="opacity" from="0" to="1" begin="6s" dur="1s" repeatCount="Indefinite" fill="freeze" />
</path>
<path d="M15.75,47.03c1.49,0.61,4.22,0.71,5.71,0.61c12.79-0.89,51.54-4.39,67.82-4.21c2.48,0.03,3.97,0.29,5.21,0.6" style="fill:none;stroke:black;stroke-width:3;opacity:0">
  <animate attributeType="CSS" attributeName="opacity" from="0" to="1" begin="7s" dur="1s" repeatCount="Indefinite" fill="freeze" />
</path>
<path d="M35,54.78c3.54-0.17,35.44-2.52,40-2.69" style="fill:none;stroke:black;stroke-width:3;opacity:0">
  <animate attributeType="CSS" attributeName="opacity" from="0" to="1" begin="8s" dur="1s" repeatCount="Indefinite" fill="freeze" />
</path>
<path d="M32.25,60.75c0.31,0.43,0.86,1,1.01,1.94c0.55,3.48,1.35,6.9,1.93,10.12" style="fill:none;stroke:black;stroke-width:3;opacity:0">
  <animate attributeType="CSS" attributeName="opacity" from="0" to="1" begin="9s" dur="1s" repeatCount="Indefinite" fill="freeze" />
</path>
<path d="M34.11,62.31c12.3-0.69,29.44-1.83,39.17-2.43c3.1-0.19,4.89,1,4.48,2.33c-0.48,1.56-1.43,4.56-2.18,6.44" style="fill:none;stroke:black;stroke-width:3;opacity:0">
  <animate attributeType="CSS" attributeName="opacity" from="0" to="1" begin="10s" dur="1s" repeatCount="Indefinite" fill="freeze" />
</path>
<path d="M36.76,70.85c3.21-0.12,36.35-1.73,40.48-1.87" style="fill:none;stroke:black;stroke-width:3;opacity:0">
  <animate attributeType="CSS" attributeName="opacity" from="0" to="1" begin="11s" dur="1s" repeatCount="Indefinite" fill="freeze" />
</path>
<path d="M51.3,28c1.57,0.41,2.5,1.85,2.82,2.68c0.31,0.82,0,34.03-0.31,39.18" style="fill:none;stroke:black;stroke-width:3;opacity:0">
  <animate attributeType="CSS" attributeName="opacity" from="0" to="1" begin="12s" dur="1s" repeatCount="Indefinite" fill="freeze" />
</path>
<path d="M49.98,72.7c0.52,0.54,0.24,1.29-0.08,2.03c-1.59,3.65-6.65,10.1-12.27,14.59c-1.22,0.98-0.19,1.07,0.79,1c13.77-0.97,35.87,5.98,43.33,9.93" style="fill:none;stroke:black;stroke-width:3;opacity:0">
  <animate attributeType="CSS" attributeName="opacity" from="0" to="1" begin="13s" dur="1s" repeatCount="Indefinite" fill="freeze" />
</path>
<path d="M68.5,76.5c0.14,0.63,0.23,2.17-0.28,3.08C64.12,86.99,51.25,98.25,23,103" style="fill:none;stroke:black;stroke-width:3;opacity:0">
  <animate attributeType="CSS" attributeName="opacity" from="0" to="1" begin="14s" dur="1s" repeatCount="Indefinite" fill="freeze" />
</path>
<path d="M13.38,80.64c2.15,0.66,4.45,1.04,5.49,1c16.21-0.63,52.49-4,73.3-4.29c1.72-0.02,4.69,0.4,6.09,1.15" style="fill:none;stroke:black;stroke-width:3;opacity:0">
  <animate attributeType="CSS" attributeName="opacity" from="0" to="1" begin="15s" dur="1s" repeatCount="Indefinite" fill="freeze" />
</path>
</svg>