<svg width="109px" height="109px" viewBox="0 0 px 109px" xmlns="http://www.w3.org/2000/svg" xmlns:xlink="http://www.w3.org/1999/xlink" xml:space="preserve" version="1.1"  baseProfile="full">
<path d="M51.51,15c1.43,1.43,2.24,3.25,2.24,5.81c0,4.06,0,9.56,0,13.69" style="fill:none;stroke:black;stroke-width:3;opacity:0">
  <animate attributeType="CSS" attributeName="opacity" from="0" to="1" begin="0s" dur="1s" repeatCount="0" fill="freeze" />
</path>
<path d="M22,37.86c2.62,0.51,4.75,0.34,7,0.16c11.38-0.9,36.13-3.4,50.65-4.26c2.38-0.14,4.86-0.01,6.86,0.4" style="fill:none;stroke:black;stroke-width:3;opacity:0">
  <animate attributeType="CSS" attributeName="opacity" from="0" to="1" begin="1s" dur="1s" repeatCount="0" fill="freeze" />
</path>
<path d="M32,49c4.75,9.75,8.25,22.5,9.5,31.5" style="fill:none;stroke:black;stroke-width:3;opacity:0">
  <animate attributeType="CSS" attributeName="opacity" from="0" to="1" begin="2s" dur="1s" repeatCount="0" fill="freeze" />
</path>
<path d="M74,39c0.75,1.38,0.81,3.29,0.5,4.5c-2.88,11.12-8.5,30.38-12.75,42" style="fill:none;stroke:black;stroke-width:3;opacity:0">
  <animate attributeType="CSS" attributeName="opacity" from="0" to="1" begin="3s" dur="1s" repeatCount="0" fill="freeze" />
</path>
<path d="M15.25,88.8c2.33,0.45,5.89,0.53,7.82,0.39c18.3-1.32,40.31-1.94,64.83-2.75c3.24-0.11,6.14,0.05,8.47,0.88" style="fill:none;stroke:black;stroke-width:3;opacity:0">
  <animate attributeType="CSS" attributeName="opacity" from="0" to="1" begin="4s" dur="1s" repeatCount="0" fill="freeze" />
</path>
</svg>