<svg width="109px" height="109px" viewBox="0 0 px 109px" xmlns="http://www.w3.org/2000/svg" xmlns:xlink="http://www.w3.org/1999/xlink" xml:space="preserve" version="1.1"  baseProfile="full">
<path d="M52.75,8.75c1,0.75,1.5,1.75,1.5,3.5s0,4.75,0,9.5" style="fill:none;stroke:black;stroke-width:3;opacity:0">
  <animate attributeType="CSS" attributeName="opacity" from="0" to="1" begin="0s" dur="1s" repeatCount="Indefinite" fill="freeze" />
</path>
<path d="M26,24.09c1.55,0.41,3.37,0.47,4.92,0.41c8.77-0.35,34.14-4.41,47.39-4.71c2.59-0.06,4.14,0.2,5.44,0.4" style="fill:none;stroke:black;stroke-width:3;opacity:0">
  <animate attributeType="CSS" attributeName="opacity" from="0" to="1" begin="1s" dur="1s" repeatCount="Indefinite" fill="freeze" />
</path>
<path d="M35.5,29.25c5.18,5.59,7.53,11.31,8,15" style="fill:none;stroke:black;stroke-width:3;opacity:0">
  <animate attributeType="CSS" attributeName="opacity" from="0" to="1" begin="2s" dur="1s" repeatCount="Indefinite" fill="freeze" />
</path>
<path d="M69.94,25c0.82,0.69,0.53,2.58,0.32,3.12c-1.77,4.63-6.12,13.37-7.77,16.38" style="fill:none;stroke:black;stroke-width:3;opacity:0">
  <animate attributeType="CSS" attributeName="opacity" from="0" to="1" begin="3s" dur="1s" repeatCount="Indefinite" fill="freeze" />
</path>
<path d="M14.25,51.21c2.06,0.47,4.48,0.65,6.52,0.47c22.43-2.03,40.79-5.02,66.77-5.98c3.43-0.13,5.49,0.22,7.21,0.46" style="fill:none;stroke:black;stroke-width:3;opacity:0">
  <animate attributeType="CSS" attributeName="opacity" from="0" to="1" begin="4s" dur="1s" repeatCount="Indefinite" fill="freeze" />
</path>
<path d="M31.25,63.81c0.28,0.33,0.57,0.61,0.7,1.03c0.98,3.3,2.99,12.24,3.66,18.17" style="fill:none;stroke:black;stroke-width:3;opacity:0">
  <animate attributeType="CSS" attributeName="opacity" from="0" to="1" begin="5s" dur="1s" repeatCount="Indefinite" fill="freeze" />
</path>
<path d="M33.02,64.77c5.97-1.08,17.73-2.35,21.05-2.79c1.21-0.16,1.94,0.94,1.77,1.87c-0.72,3.85-1.4,8.7-2.46,14.03" style="fill:none;stroke:black;stroke-width:3;opacity:0">
  <animate attributeType="CSS" attributeName="opacity" from="0" to="1" begin="6s" dur="1s" repeatCount="Indefinite" fill="freeze" />
</path>
<path d="M35.74,80.95c3.9-0.49,13.98-1.34,19.34-2.09" style="fill:none;stroke:black;stroke-width:3;opacity:0">
  <animate attributeType="CSS" attributeName="opacity" from="0" to="1" begin="7s" dur="1s" repeatCount="Indefinite" fill="freeze" />
</path>
<path d="M72.52,49.85C73.5,51,74.07,52.6,74.09,54c0.24,18.64,0.17,35.85,0.17,40.46c0,10.39-7.21,1.5-8.71,0.25" style="fill:none;stroke:black;stroke-width:3;opacity:0">
  <animate attributeType="CSS" attributeName="opacity" from="0" to="1" begin="8s" dur="1s" repeatCount="Indefinite" fill="freeze" />
</path>
</svg>