<svg width="109px" height="109px" viewBox="0 0 px 109px" xmlns="http://www.w3.org/2000/svg" xmlns:xlink="http://www.w3.org/1999/xlink" xml:space="preserve" version="1.1"  baseProfile="full">
<path d="M26.96,16c1.04,0.91,1.57,2.12,1.57,3.06c0,2.14,0,13.17,0,18.98" style="fill:none;stroke:black;stroke-width:3;opacity:0">
  <animate attributeType="CSS" attributeName="opacity" from="0" to="1" begin="0s" dur="1s" repeatCount="Indefinite" fill="freeze" />
</path>
<path d="M12,38.41c1.16,0.3,2.53,0.35,3.68,0.3c6.57-0.26,17.07-0.97,25.99-1.58c1.93-0.13,3.1,0.14,4.07,0.3" style="fill:none;stroke:black;stroke-width:3;opacity:0">
  <animate attributeType="CSS" attributeName="opacity" from="0" to="1" begin="1s" dur="1s" repeatCount="Indefinite" fill="freeze" />
</path>
<path d="M15.75,50.4c5.66,10.67,8.23,21.57,8.75,28.6" style="fill:none;stroke:black;stroke-width:3;opacity:0">
  <animate attributeType="CSS" attributeName="opacity" from="0" to="1" begin="2s" dur="1s" repeatCount="Indefinite" fill="freeze" />
</path>
<path d="M39.56,44.48c1.07,1.33,0.6,4.1,0.38,5.15c-2.36,10.89-7.32,28.37-9.43,34.02" style="fill:none;stroke:black;stroke-width:3;opacity:0">
  <animate attributeType="CSS" attributeName="opacity" from="0" to="1" begin="3s" dur="1s" repeatCount="Indefinite" fill="freeze" />
</path>
<path d="M13,93.24c0.9,1.06,2.9,1.04,3.79,0.62c9.78-4.59,17.78-8.83,26.46-12.61" style="fill:none;stroke:black;stroke-width:3;opacity:0">
  <animate attributeType="CSS" attributeName="opacity" from="0" to="1" begin="4s" dur="1s" repeatCount="Indefinite" fill="freeze" />
</path>
<path d="M71.01,12.75c0.99,1,2.49,3.25,2.49,5.81c0,4.07,0,5.64,0,16.69" style="fill:none;stroke:black;stroke-width:3;opacity:0">
  <animate attributeType="CSS" attributeName="opacity" from="0" to="1" begin="5s" dur="1s" repeatCount="Indefinite" fill="freeze" />
</path>
<path d="M53.75,37.18c1.66,0.32,3.34,0.4,4.19,0.35c4.84-0.3,26.88-2.02,34.2-2.28c1.43-0.05,3.39,0.17,4.11,0.34" style="fill:none;stroke:black;stroke-width:3;opacity:0">
  <animate attributeType="CSS" attributeName="opacity" from="0" to="1" begin="6s" dur="1s" repeatCount="Indefinite" fill="freeze" />
</path>
<path d="M58.25,48.25c4.92,11.09,8.05,24.44,8.5,31.75" style="fill:none;stroke:black;stroke-width:3;opacity:0">
  <animate attributeType="CSS" attributeName="opacity" from="0" to="1" begin="7s" dur="1s" repeatCount="Indefinite" fill="freeze" />
</path>
<path d="M88.51,43c0.73,1.21,0.56,3.18,0.25,4.35C86.3,56.54,78.7,80.71,76.25,87" style="fill:none;stroke:black;stroke-width:3;opacity:0">
  <animate attributeType="CSS" attributeName="opacity" from="0" to="1" begin="8s" dur="1s" repeatCount="Indefinite" fill="freeze" />
</path>
<path d="M44.75,91.41c1.5,0.56,4.42,0.55,5.67,0.49c15.09-0.65,27.47-1.65,43.24-2.66c2.08-0.13,4.59,0.07,6.09,1.11" style="fill:none;stroke:black;stroke-width:3;opacity:0">
  <animate attributeType="CSS" attributeName="opacity" from="0" to="1" begin="9s" dur="1s" repeatCount="Indefinite" fill="freeze" />
</path>
</svg>