<svg width="109px" height="109px" viewBox="0 0 px 109px" xmlns="http://www.w3.org/2000/svg" xmlns:xlink="http://www.w3.org/1999/xlink" xml:space="preserve" version="1.1"  baseProfile="full">
<path d="M23.04,16c0.77,0.95,1.17,2.21,1.17,3.2c0,2.24,0,11.27,0,17.35" style="fill:none;stroke:black;stroke-width:3;opacity:0">
  <animate attributeType="CSS" attributeName="opacity" from="0" to="1" begin="0s" dur="1s" repeatCount="Indefinite" fill="freeze" />
</path>
<path d="M7.78,38.38c1.03,0.27,2.24,0.28,3.26,0.21c5.78-0.41,17.21-1.88,25.07-2.68c1.7-0.17,2.74,0.07,3.6,0.19" style="fill:none;stroke:black;stroke-width:3;opacity:0">
  <animate attributeType="CSS" attributeName="opacity" from="0" to="1" begin="1s" dur="1s" repeatCount="Indefinite" fill="freeze" />
</path>
<path d="M12,47.9c5.5,10.76,7,22.26,7.5,29.35" style="fill:none;stroke:black;stroke-width:3;opacity:0">
  <animate attributeType="CSS" attributeName="opacity" from="0" to="1" begin="2s" dur="1s" repeatCount="Indefinite" fill="freeze" />
</path>
<path d="M33.22,44.5c0.85,1.24,0.48,3.84,0.3,4.83C31.64,59.55,27.68,75.95,26,81.25" style="fill:none;stroke:black;stroke-width:3;opacity:0">
  <animate attributeType="CSS" attributeName="opacity" from="0" to="1" begin="3s" dur="1s" repeatCount="Indefinite" fill="freeze" />
</path>
<path d="M9.5,89.74c0.95,1.3,3.07,1.27,4.01,0.76C23.86,84.86,32.32,79.64,41.5,75" style="fill:none;stroke:black;stroke-width:3;opacity:0">
  <animate attributeType="CSS" attributeName="opacity" from="0" to="1" begin="4s" dur="1s" repeatCount="Indefinite" fill="freeze" />
</path>
<path d="M45,25.83c1.13,0.19,3.2,0.28,4.32,0.18c10.93-1,28.29-3.33,38.46-3.55c1.88-0.04,3.01,0.08,3.95,0.17" style="fill:none;stroke:black;stroke-width:3;opacity:0">
  <animate attributeType="CSS" attributeName="opacity" from="0" to="1" begin="5s" dur="1s" repeatCount="Indefinite" fill="freeze" />
</path>
<path d="M46.24,37.45c0.32,0.4,0.64,0.74,0.78,1.24c1.1,3.99,3.47,15.88,4.22,23.06" style="fill:none;stroke:black;stroke-width:3;opacity:0">
  <animate attributeType="CSS" attributeName="opacity" from="0" to="1" begin="6s" dur="1s" repeatCount="Indefinite" fill="freeze" />
</path>
<path d="M47.75,39.25c14.5-1.5,35.21-3.53,38.93-3.91c2.31-0.23,3.77,2.4,3.16,4.54c-1.64,5.74-2.53,11.44-3.83,15.83" style="fill:none;stroke:black;stroke-width:3;opacity:0">
  <animate attributeType="CSS" attributeName="opacity" from="0" to="1" begin="7s" dur="1s" repeatCount="Indefinite" fill="freeze" />
</path>
<path d="M51.16,59.31c8.9-1.12,28.77-3.26,37.09-3.81" style="fill:none;stroke:black;stroke-width:3;opacity:0">
  <animate attributeType="CSS" attributeName="opacity" from="0" to="1" begin="8s" dur="1s" repeatCount="Indefinite" fill="freeze" />
</path>
<path d="M64.84,9.75c1.29,0.51,2.06,2.28,2.31,3.29c0.26,1.01,0,81.14-0.26,87.46" style="fill:none;stroke:black;stroke-width:3;opacity:0">
  <animate attributeType="CSS" attributeName="opacity" from="0" to="1" begin="9s" dur="1s" repeatCount="Indefinite" fill="freeze" />
</path>
<path d="M67.25,58.5C61.57,69.57,46.81,85.24,35,91.5" style="fill:none;stroke:black;stroke-width:3;opacity:0">
  <animate attributeType="CSS" attributeName="opacity" from="0" to="1" begin="10s" dur="1s" repeatCount="Indefinite" fill="freeze" />
</path>
<path d="M67.24,58.6c5.01,7.65,19.05,25.17,24.69,29.36c1.51,1.13,2.49,1.91,3.82,2.29" style="fill:none;stroke:black;stroke-width:3;opacity:0">
  <animate attributeType="CSS" attributeName="opacity" from="0" to="1" begin="11s" dur="1s" repeatCount="Indefinite" fill="freeze" />
</path>
</svg>