<svg width="109px" height="109px" viewBox="0 0 px 109px" xmlns="http://www.w3.org/2000/svg" xmlns:xlink="http://www.w3.org/1999/xlink" xml:space="preserve" version="1.1"  baseProfile="full">
<path d="M30.24,11.5c0.04,0.62,0.09,1.6-0.09,2.48c-1.06,5.23-7.11,16.73-15.41,23.77" style="fill:none;stroke:black;stroke-width:3;opacity:0">
  <animate attributeType="CSS" attributeName="opacity" from="0" to="1" begin="0s" dur="1s" repeatCount="Indefinite" fill="freeze" />
</path>
<path d="M28.98,24.54c3.71,0,18.61-2.79,22.77-2.79" style="fill:none;stroke:black;stroke-width:3;opacity:0">
  <animate attributeType="CSS" attributeName="opacity" from="0" to="1" begin="1s" dur="1s" repeatCount="Indefinite" fill="freeze" />
</path>
<path d="M34.52,27.08c2.22,1.88,5.74,7.72,6.29,10.63" style="fill:none;stroke:black;stroke-width:3;opacity:0">
  <animate attributeType="CSS" attributeName="opacity" from="0" to="1" begin="2s" dur="1s" repeatCount="Indefinite" fill="freeze" />
</path>
<path d="M63.99,11.75c0.03,0.44,0.13,1.15-0.06,1.77c-1.4,4.64-5.29,11.27-10.43,16.98" style="fill:none;stroke:black;stroke-width:3;opacity:0">
  <animate attributeType="CSS" attributeName="opacity" from="0" to="1" begin="3s" dur="1s" repeatCount="Indefinite" fill="freeze" />
</path>
<path d="M63.23,22.41c4.73,0,24.08-3.07,29.4-3.07" style="fill:none;stroke:black;stroke-width:3;opacity:0">
  <animate attributeType="CSS" attributeName="opacity" from="0" to="1" begin="4s" dur="1s" repeatCount="Indefinite" fill="freeze" />
</path>
<path d="M76.52,24.5c0.03,0.27,0.05,0.7-0.05,1.09c-0.63,2.29-4.25,7.33-9.21,10.41" style="fill:none;stroke:black;stroke-width:3;opacity:0">
  <animate attributeType="CSS" attributeName="opacity" from="0" to="1" begin="5s" dur="1s" repeatCount="Indefinite" fill="freeze" />
</path>
<path d="M33.04,41.18c0.05,0.58,0.1,1.51-0.1,2.34c-1.15,4.94-7.79,15.78-16.86,22.42" style="fill:none;stroke:black;stroke-width:3;opacity:0">
  <animate attributeType="CSS" attributeName="opacity" from="0" to="1" begin="6s" dur="1s" repeatCount="Indefinite" fill="freeze" />
</path>
<path d="M31.19,55.32c0.76,0.31,2.15,0.37,2.91,0.31c5.48-0.44,40.94-3,45.67-3.48c1.26-0.13,1.79-0.07,2.46-0.02" style="fill:none;stroke:black;stroke-width:3;opacity:0">
  <animate attributeType="CSS" attributeName="opacity" from="0" to="1" begin="7s" dur="1s" repeatCount="Indefinite" fill="freeze" />
</path>
<path d="M29.69,73.1c1.01,0.3,2.87,0.36,3.89,0.3c7.31-0.43,37.87-2.89,44.18-3.35c1.68-0.12,2.49,0.2,3.78,0.48" style="fill:none;stroke:black;stroke-width:3;opacity:0">
  <animate attributeType="CSS" attributeName="opacity" from="0" to="1" begin="8s" dur="1s" repeatCount="Indefinite" fill="freeze" />
</path>
<path d="M15.03,94.46c1.69,0.35,4.78,0.41,6.47,0.35c12.16-0.5,52.75-3.05,64.85-3.18c2.8-0.03,5.16,0.29,7.75,1.13" style="fill:none;stroke:black;stroke-width:3;opacity:0">
  <animate attributeType="CSS" attributeName="opacity" from="0" to="1" begin="9s" dur="1s" repeatCount="Indefinite" fill="freeze" />
</path>
<path d="M52.13,39.13c0.61,0.42,1.91,3.18,2.03,4.03c0.12,0.85-0.08,43.86-0.2,49.17" style="fill:none;stroke:black;stroke-width:3;opacity:0">
  <animate attributeType="CSS" attributeName="opacity" from="0" to="1" begin="10s" dur="1s" repeatCount="Indefinite" fill="freeze" />
</path>
</svg>