<svg width="109px" height="109px" viewBox="0 0 px 109px" xmlns="http://www.w3.org/2000/svg" xmlns:xlink="http://www.w3.org/1999/xlink" xml:space="preserve" version="1.1"  baseProfile="full">
<path d="M31.24,15c0.13,1.19,0.12,2.39-0.37,3.46c-3,6.54-7.12,13.92-15.62,22.29" style="fill:none;stroke:black;stroke-width:3;opacity:0">
  <animate attributeType="CSS" attributeName="opacity" from="0" to="1" begin="0s" dur="1s" repeatCount="Indefinite" fill="freeze" />
</path>
<path d="M28.73,29.79c0.95,0,2.58-0.22,4.54-0.54c3.6-0.59,8.84-1.29,12.6-1.9c2.16-0.35,4-0.59,5.13-0.59" style="fill:none;stroke:black;stroke-width:3;opacity:0">
  <animate attributeType="CSS" attributeName="opacity" from="0" to="1" begin="1s" dur="1s" repeatCount="Indefinite" fill="freeze" />
</path>
<path d="M34.27,32.33c1.78,2.01,4.6,8.01,5.04,11.13" style="fill:none;stroke:black;stroke-width:3;opacity:0">
  <animate attributeType="CSS" attributeName="opacity" from="0" to="1" begin="2s" dur="1s" repeatCount="Indefinite" fill="freeze" />
</path>
<path d="M66.49,13c0.15,1.38-0.07,2.69-0.66,3.94c-2.46,5.69-6.05,12.26-11.08,18.31" style="fill:none;stroke:black;stroke-width:3;opacity:0">
  <animate attributeType="CSS" attributeName="opacity" from="0" to="1" begin="3s" dur="1s" repeatCount="Indefinite" fill="freeze" />
</path>
<path d="M65.23,26.91c0.81,0,1.95-0.1,3.3-0.26c4.63-0.56,11.78-1.88,17.1-2.59c2.14-0.29,3.99-0.47,5.25-0.47" style="fill:none;stroke:black;stroke-width:3;opacity:0">
  <animate attributeType="CSS" attributeName="opacity" from="0" to="1" begin="4s" dur="1s" repeatCount="Indefinite" fill="freeze" />
</path>
<path d="M75.28,29.5c0.05,0.61-0.03,1.19-0.24,1.76c-0.72,2.24-2.86,5.85-5.29,8.49" style="fill:none;stroke:black;stroke-width:3;opacity:0">
  <animate attributeType="CSS" attributeName="opacity" from="0" to="1" begin="5s" dur="1s" repeatCount="Indefinite" fill="freeze" />
</path>
<path d="M51.48,42c1.07,1.07,1.29,2.76,1.29,4.35c0,2.52,0-0.69,0,6.15" style="fill:none;stroke:black;stroke-width:3;opacity:0">
  <animate attributeType="CSS" attributeName="opacity" from="0" to="1" begin="6s" dur="1s" repeatCount="Indefinite" fill="freeze" />
</path>
<path d="M26.5,55.29c3.17,0.35,6.34,0.33,9.5-0.07c10.25-1.06,27.99-2.57,37.25-3.06c2.83-0.23,5.67-0.2,8.5,0.09" style="fill:none;stroke:black;stroke-width:3;opacity:0">
  <animate attributeType="CSS" attributeName="opacity" from="0" to="1" begin="7s" dur="1s" repeatCount="Indefinite" fill="freeze" />
</path>
<path d="M36.75,59.25C40.8,68.24,42.63,78.57,43,84.5" style="fill:none;stroke:black;stroke-width:3;opacity:0">
  <animate attributeType="CSS" attributeName="opacity" from="0" to="1" begin="8s" dur="1s" repeatCount="Indefinite" fill="freeze" />
</path>
<path d="M69.95,56c0.3,1.12,0.1,2.28-0.1,3.02c-1.54,5.85-6.19,20.36-7.73,24.36" style="fill:none;stroke:black;stroke-width:3;opacity:0">
  <animate attributeType="CSS" attributeName="opacity" from="0" to="1" begin="9s" dur="1s" repeatCount="Indefinite" fill="freeze" />
</path>
<path d="M15.75,88.8c4.17,0.54,8.31,0.28,12.5-0.06c19.77-1.6,39.5-2.62,56.88-3.38c3.73-0.16,7.12,0.13,11.12,0.96" style="fill:none;stroke:black;stroke-width:3;opacity:0">
  <animate attributeType="CSS" attributeName="opacity" from="0" to="1" begin="10s" dur="1s" repeatCount="Indefinite" fill="freeze" />
</path>
</svg>