<svg width="109px" height="109px" viewBox="0 0 px 109px" xmlns="http://www.w3.org/2000/svg" xmlns:xlink="http://www.w3.org/1999/xlink" xml:space="preserve" version="1.1"  baseProfile="full">
<path d="M30.75,14.75c0.08,1.08-0.18,2.45-0.71,3.43C27.38,23.12,23.87,29.16,17,36.25" style="fill:none;stroke:black;stroke-width:3;opacity:0">
  <animate attributeType="CSS" attributeName="opacity" from="0" to="1" begin="0s" dur="1s" repeatCount="Indefinite" fill="freeze" />
</path>
<path d="M28.98,26.54C32.12,26.75,39,25.88,47,24.38c2.11-0.4,3.93-0.12,5-0.12" style="fill:none;stroke:black;stroke-width:3;opacity:0">
  <animate attributeType="CSS" attributeName="opacity" from="0" to="1" begin="1s" dur="1s" repeatCount="Indefinite" fill="freeze" />
</path>
<path d="M35.5,29.38c1.52,1.65,3.93,6.78,4.31,9.34" style="fill:none;stroke:black;stroke-width:3;opacity:0">
  <animate attributeType="CSS" attributeName="opacity" from="0" to="1" begin="2s" dur="1s" repeatCount="Indefinite" fill="freeze" />
</path>
<path d="M63.98,14.25c0.08,1.2-0.07,2.03-0.5,3.17c-1.84,4.91-5.69,11.42-10.98,17.08" style="fill:none;stroke:black;stroke-width:3;opacity:0">
  <animate attributeType="CSS" attributeName="opacity" from="0" to="1" begin="3s" dur="1s" repeatCount="Indefinite" fill="freeze" />
</path>
<path d="M63.73,25.16c3.71,0,15.18-2.45,22.52-3.39c2.02-0.26,3.25-0.39,4.88-0.18" style="fill:none;stroke:black;stroke-width:3;opacity:0">
  <animate attributeType="CSS" attributeName="opacity" from="0" to="1" begin="4s" dur="1s" repeatCount="Indefinite" fill="freeze" />
</path>
<path d="M73.77,27.25c0.06,0.78-0.1,1.51-0.49,2.2c-0.95,2.15-2.91,4.43-5.91,7.43" style="fill:none;stroke:black;stroke-width:3;opacity:0">
  <animate attributeType="CSS" attributeName="opacity" from="0" to="1" begin="5s" dur="1s" repeatCount="Indefinite" fill="freeze" />
</path>
<path d="M15.25,58.2c3.17,1.24,7.37,0.99,10.65,0.74c13.85-1.06,41.16-3.31,58.22-3.97c4.07-0.16,7.44,0.15,11.38,1.07" style="fill:none;stroke:black;stroke-width:3;opacity:0">
  <animate attributeType="CSS" attributeName="opacity" from="0" to="1" begin="6s" dur="1s" repeatCount="Indefinite" fill="freeze" />
</path>
<path d="M53.13,43.25c1.12,1.12,1.29,2.5,1.29,4c0,0.81-0.03,16.6-0.04,26.75c0,2.62,0,4.86,0,6.38" style="fill:none;stroke:black;stroke-width:3;opacity:0">
  <animate attributeType="CSS" attributeName="opacity" from="0" to="1" begin="7s" dur="1s" repeatCount="Indefinite" fill="freeze" />
</path>
<path d="M72.52,41.75c1.11,1.11,1.29,2.25,1.29,4c0,1.02-0.65,19-1.23,29.5" style="fill:none;stroke:black;stroke-width:3;opacity:0">
  <animate attributeType="CSS" attributeName="opacity" from="0" to="1" begin="8s" dur="1s" repeatCount="Indefinite" fill="freeze" />
</path>
<path d="M55.67,77.75c2.51,0,9.08-0.71,14.08-1.15c2.27-0.2,4.06-0.35,4.7-0.35" style="fill:none;stroke:black;stroke-width:3;opacity:0">
  <animate attributeType="CSS" attributeName="opacity" from="0" to="1" begin="9s" dur="1s" repeatCount="Indefinite" fill="freeze" />
</path>
<path d="M32.63,46.25c1.12,1.12,1.29,2.62,1.29,4.25c0,1.02,0.06,25.99,0.06,37.5c0,3.04,0.63,4.32,3.78,4.21c14.53-0.5,29.63-1.33,43.63-2.17c2.76-0.17,6.12-0.29,9.04,0.21" style="fill:none;stroke:black;stroke-width:3;opacity:0">
  <animate attributeType="CSS" attributeName="opacity" from="0" to="1" begin="10s" dur="1s" repeatCount="Indefinite" fill="freeze" />
</path>
</svg>