<svg width="109px" height="109px" viewBox="0 0 px 109px" xmlns="http://www.w3.org/2000/svg" xmlns:xlink="http://www.w3.org/1999/xlink" xml:space="preserve" version="1.1"  baseProfile="full">
<path d="M27.75,10c0.04,0.56,0.08,1.44-0.08,2.25c-0.94,4.74-6.31,15.13-13.67,21.5" style="fill:none;stroke:black;stroke-width:3;opacity:0">
  <animate attributeType="CSS" attributeName="opacity" from="0" to="1" begin="0s" dur="1s" repeatCount="Indefinite" fill="freeze" />
</path>
<path d="M27.5,21.71c4.03,0,18.47-2.83,23-2.83" style="fill:none;stroke:black;stroke-width:3;opacity:0">
  <animate attributeType="CSS" attributeName="opacity" from="0" to="1" begin="1s" dur="1s" repeatCount="Indefinite" fill="freeze" />
</path>
<path d="M33.77,24.08c2.66,1.48,6.88,6.08,7.54,8.38" style="fill:none;stroke:black;stroke-width:3;opacity:0">
  <animate attributeType="CSS" attributeName="opacity" from="0" to="1" begin="2s" dur="1s" repeatCount="Indefinite" fill="freeze" />
</path>
<path d="M61.75,9.25c0.03,0.46,0.13,1.2-0.06,1.84C60.25,15.92,56.27,22.82,51,28.75" style="fill:none;stroke:black;stroke-width:3;opacity:0">
  <animate attributeType="CSS" attributeName="opacity" from="0" to="1" begin="3s" dur="1s" repeatCount="Indefinite" fill="freeze" />
</path>
<path d="M61.25,18.4c5.25,0,25.98-3.47,31.88-3.47" style="fill:none;stroke:black;stroke-width:3;opacity:0">
  <animate attributeType="CSS" attributeName="opacity" from="0" to="1" begin="4s" dur="1s" repeatCount="Indefinite" fill="freeze" />
</path>
<path d="M76.74,20c0.03,0.26,0.06,0.68-0.06,1.06c-0.72,2.24-4.82,7.17-10.43,10.19" style="fill:none;stroke:black;stroke-width:3;opacity:0">
  <animate attributeType="CSS" attributeName="opacity" from="0" to="1" begin="5s" dur="1s" repeatCount="Indefinite" fill="freeze" />
</path>
<path d="M13.74,51.51c2.23,0.15,1.34,0.15,3.75,0.15c4.56,0,18.25-1.52,28.07-2.23" style="fill:none;stroke:black;stroke-width:3;opacity:0">
  <animate attributeType="CSS" attributeName="opacity" from="0" to="1" begin="6s" dur="1s" repeatCount="Indefinite" fill="freeze" />
</path>
<path d="M32.95,34.83c0.43,0.76,1.47,2.08,1.55,4.6c0.35,12.14-0.23,50.19-0.23,54.32c0,8.74-5.47,1.09-6.79,0.04" style="fill:none;stroke:black;stroke-width:3;opacity:0">
  <animate attributeType="CSS" attributeName="opacity" from="0" to="1" begin="7s" dur="1s" repeatCount="Indefinite" fill="freeze" />
</path>
<path d="M13.11,75.57c2.21,1.2,3.13,1.15,5.34,0.12c1.3-0.61,19.78-10.52,25.3-13.44" style="fill:none;stroke:black;stroke-width:3;opacity:0">
  <animate attributeType="CSS" attributeName="opacity" from="0" to="1" begin="8s" dur="1s" repeatCount="Indefinite" fill="freeze" />
</path>
<path d="M47.88,38.85c1.02,0.42,2.9,0.49,3.92,0.42c10.63-0.71,28.47-3.39,40.12-3.39c1.7,0,2.72,0.2,3.58,0.41" style="fill:none;stroke:black;stroke-width:3;opacity:0">
  <animate attributeType="CSS" attributeName="opacity" from="0" to="1" begin="9s" dur="1s" repeatCount="Indefinite" fill="freeze" />
</path>
<path d="M61.78,54.24c0.36,0.24,1.13,1.8,1.21,2.28c0.07,0.48-0.05,20.86-0.12,23.87" style="fill:none;stroke:black;stroke-width:3;opacity:0">
  <animate attributeType="CSS" attributeName="opacity" from="0" to="1" begin="10s" dur="1s" repeatCount="Indefinite" fill="freeze" />
</path>
<path d="M64.01,55.67c2.28-0.17,23.74-3.17,25.44-3.28c2-0.12,2.86,1.11,2.86,3.28c0,6.83,0.21,13.43-0.88,20.13c-1.17,7.2-4,1.55-4.96,0.18" style="fill:none;stroke:black;stroke-width:3;opacity:0">
  <animate attributeType="CSS" attributeName="opacity" from="0" to="1" begin="11s" dur="1s" repeatCount="Indefinite" fill="freeze" />
</path>
<path d="M74.65,42.36c0.6,0.37,1.87,2.78,1.99,3.53c0.12,0.74-0.08,39.12-0.2,43.77" style="fill:none;stroke:black;stroke-width:3;opacity:0">
  <animate attributeType="CSS" attributeName="opacity" from="0" to="1" begin="12s" dur="1s" repeatCount="Indefinite" fill="freeze" />
</path>
<path d="M52.65,39.89c0,3.05-0.7,52.24-0.7,55.09c0,2.42,1.23,2.79,2.47,2.55c12.83-2.53,36.51-4.06,38.84-4.06s4.3,0.19,5.74,0.57" style="fill:none;stroke:black;stroke-width:3;opacity:0">
  <animate attributeType="CSS" attributeName="opacity" from="0" to="1" begin="13s" dur="1s" repeatCount="Indefinite" fill="freeze" />
</path>
</svg>