<svg width="109px" height="109px" viewBox="0 0 px 109px" xmlns="http://www.w3.org/2000/svg" xmlns:xlink="http://www.w3.org/1999/xlink" xml:space="preserve" version="1.1"  baseProfile="full">
<path d="M29.75,8.5c0.04,0.55,0.09,1.41-0.08,2.2c-1.02,4.64-6.89,14.82-14.92,21.05" style="fill:none;stroke:black;stroke-width:3;opacity:0">
  <animate attributeType="CSS" attributeName="opacity" from="0" to="1" begin="0s" dur="1s" repeatCount="0" fill="freeze" />
</path>
<path d="M28.75,19.53c3.89,0,16.38-2.81,20.75-2.81" style="fill:none;stroke:black;stroke-width:3;opacity:0">
  <animate attributeType="CSS" attributeName="opacity" from="0" to="1" begin="1s" dur="1s" repeatCount="0" fill="freeze" />
</path>
<path d="M34.27,20.58c2.29,1.88,5.91,7.74,6.48,10.67" style="fill:none;stroke:black;stroke-width:3;opacity:0">
  <animate attributeType="CSS" attributeName="opacity" from="0" to="1" begin="2s" dur="1s" repeatCount="0" fill="freeze" />
</path>
<path d="M62.21,8.25c0.03,0.48,0.15,1.24-0.07,1.92C60.5,15.18,55.98,22.34,50,28.5" style="fill:none;stroke:black;stroke-width:3;opacity:0">
  <animate attributeType="CSS" attributeName="opacity" from="0" to="1" begin="3s" dur="1s" repeatCount="0" fill="freeze" />
</path>
<path d="M62,16.88c4.73,0,21.07-3.42,26.38-3.42" style="fill:none;stroke:black;stroke-width:3;opacity:0">
  <animate attributeType="CSS" attributeName="opacity" from="0" to="1" begin="4s" dur="1s" repeatCount="0" fill="freeze" />
</path>
<path d="M71.26,19.25c0.02,0.19,0.04,0.5-0.04,0.78c-0.5,1.65-3.33,5.26-7.22,7.47" style="fill:none;stroke:black;stroke-width:3;opacity:0">
  <animate attributeType="CSS" attributeName="opacity" from="0" to="1" begin="5s" dur="1s" repeatCount="0" fill="freeze" />
</path>
<path d="M75.75,28c0.06,1.02-1.2,2.03-1.99,2.31c-4.26,1.48-20.09,4.83-45.51,7.44" style="fill:none;stroke:black;stroke-width:3;opacity:0">
  <animate attributeType="CSS" attributeName="opacity" from="0" to="1" begin="6s" dur="1s" repeatCount="0" fill="freeze" />
</path>
<path d="M29.51,43.25c0.03,0.37,0.07,0.94-0.07,1.47C28.66,47.81,24.16,54.6,18,58.75" style="fill:none;stroke:black;stroke-width:3;opacity:0">
  <animate attributeType="CSS" attributeName="opacity" from="0" to="1" begin="7s" dur="1s" repeatCount="0" fill="freeze" />
</path>
<path d="M46.46,41.05c2.74,1.55,7.09,6.38,7.78,8.79" style="fill:none;stroke:black;stroke-width:3;opacity:0">
  <animate attributeType="CSS" attributeName="opacity" from="0" to="1" begin="8s" dur="1s" repeatCount="0" fill="freeze" />
</path>
<path d="M70.29,37.88c4.93,1.52,12.73,6.25,13.96,8.62" style="fill:none;stroke:black;stroke-width:3;opacity:0">
  <animate attributeType="CSS" attributeName="opacity" from="0" to="1" begin="9s" dur="1s" repeatCount="0" fill="freeze" />
</path>
<path d="M26.2,58.12c2.05,0.38,3.83,0.73,6.17,0.44c14.28-1.79,31.2-4.03,44.72-5.58c3.31-0.38,4.19,1.03,3.81,2.97c-0.98,5.07-3.04,13.74-3.62,19.88" style="fill:none;stroke:black;stroke-width:3;opacity:0">
  <animate attributeType="CSS" attributeName="opacity" from="0" to="1" begin="10s" dur="1s" repeatCount="0" fill="freeze" />
</path>
<path d="M13,69.63c2.25,0.87,4.8,1.43,7.78,1c21.72-3.13,48.34-5.9,68.99-7.39c3.3-0.25,5.98,0,7.48,0.5" style="fill:none;stroke:black;stroke-width:3;opacity:0">
  <animate attributeType="CSS" attributeName="opacity" from="0" to="1" begin="11s" dur="1s" repeatCount="0" fill="freeze" />
</path>
<path d="M26.05,80.54c1.27,0.28,3.58,0.53,5.1,0.38c14.02-1.39,31.76-4.43,44.51-4.99c2.04-0.09,3.32,0,4.84,0.28" style="fill:none;stroke:black;stroke-width:3;opacity:0">
  <animate attributeType="CSS" attributeName="opacity" from="0" to="1" begin="12s" dur="1s" repeatCount="0" fill="freeze" />
</path>
<path d="M53.62,58.4c0.44,0.71,1.25,2.34,1.29,4.72c0.21,11.42-0.13,28.03-0.13,31.91c0,8.23-7.32,0.98-7.9,0.24" style="fill:none;stroke:black;stroke-width:3;opacity:0">
  <animate attributeType="CSS" attributeName="opacity" from="0" to="1" begin="13s" dur="1s" repeatCount="0" fill="freeze" />
</path>
</svg>