<svg width="109px" height="109px" viewBox="0 0 px 109px" xmlns="http://www.w3.org/2000/svg" xmlns:xlink="http://www.w3.org/1999/xlink" xml:space="preserve" version="1.1"  baseProfile="full">
<path d="M30,10.25c0.04,0.58,0.09,1.49-0.09,2.32c-1.06,4.89-7.12,15.61-15.42,22.18" style="fill:none;stroke:black;stroke-width:3;opacity:0">
  <animate attributeType="CSS" attributeName="opacity" from="0" to="1" begin="0s" dur="1s" repeatCount="0" fill="freeze" />
</path>
<path d="M28.48,21.69c3.85,0,16.2-1.85,20.52-1.85" style="fill:none;stroke:black;stroke-width:3;opacity:0">
  <animate attributeType="CSS" attributeName="opacity" from="0" to="1" begin="1s" dur="1s" repeatCount="0" fill="freeze" />
</path>
<path d="M33.25,22.5c2.49,1.63,6.44,6.69,7.06,9.22" style="fill:none;stroke:black;stroke-width:3;opacity:0">
  <animate attributeType="CSS" attributeName="opacity" from="0" to="1" begin="2s" dur="1s" repeatCount="0" fill="freeze" />
</path>
<path d="M64.48,9.5c0.03,0.43,0.14,1.12-0.07,1.73c-1.6,4.52-6.04,10.97-11.91,16.52" style="fill:none;stroke:black;stroke-width:3;opacity:0">
  <animate attributeType="CSS" attributeName="opacity" from="0" to="1" begin="3s" dur="1s" repeatCount="0" fill="freeze" />
</path>
<path d="M62.75,18.73c5.08,0,23.68-2.88,29.38-2.88" style="fill:none;stroke:black;stroke-width:3;opacity:0">
  <animate attributeType="CSS" attributeName="opacity" from="0" to="1" begin="4s" dur="1s" repeatCount="0" fill="freeze" />
</path>
<path d="M77.49,19.5c0.03,0.28,0.06,0.71-0.05,1.11c-0.65,2.34-4.36,7.49-9.44,10.64" style="fill:none;stroke:black;stroke-width:3;opacity:0">
  <animate attributeType="CSS" attributeName="opacity" from="0" to="1" begin="5s" dur="1s" repeatCount="0" fill="freeze" />
</path>
<path d="M18.06,53.86c2.11,0.23,1.28,0.5,3.54,0.23c5.56-0.68,13.14-1.82,22.41-2.88" style="fill:none;stroke:black;stroke-width:3;opacity:0">
  <animate attributeType="CSS" attributeName="opacity" from="0" to="1" begin="6s" dur="1s" repeatCount="0" fill="freeze" />
</path>
<path d="M33.6,36.25c0.47,0.71,1.62,1.93,1.7,4.28c0.39,11.28,0.24,49.95,0.24,53.8c0,11.05-6.12,2.74-7.51,1.55" style="fill:none;stroke:black;stroke-width:3;opacity:0">
  <animate attributeType="CSS" attributeName="opacity" from="0" to="1" begin="7s" dur="1s" repeatCount="0" fill="freeze" />
</path>
<path d="M13.87,77.83c2.45,1.5,4.03,0.81,6.48-0.47c1.44-0.76,20.28-11.84,26.41-15.48" style="fill:none;stroke:black;stroke-width:3;opacity:0">
  <animate attributeType="CSS" attributeName="opacity" from="0" to="1" begin="8s" dur="1s" repeatCount="0" fill="freeze" />
</path>
<path d="M49,50.01c1.31,0.35,3.7,0.43,5.01,0.35c9.62-0.64,24.42-2.58,40.19-3.42c2.17-0.12,3.48,0.17,4.57,0.34" style="fill:none;stroke:black;stroke-width:3;opacity:0">
  <animate attributeType="CSS" attributeName="opacity" from="0" to="1" begin="9s" dur="1s" repeatCount="0" fill="freeze" />
</path>
<path d="M59.48,36.03c0.78,0.38,1.25,1.73,1.4,2.5c0.16,0.77,0,56.15-0.16,60.96" style="fill:none;stroke:black;stroke-width:3;opacity:0">
  <animate attributeType="CSS" attributeName="opacity" from="0" to="1" begin="10s" dur="1s" repeatCount="0" fill="freeze" />
</path>
<path d="M82.79,32.41c1.04,0.4,1.66,1.81,1.87,2.62c0.21,0.81,0,58.71-0.21,63.75" style="fill:none;stroke:black;stroke-width:3;opacity:0">
  <animate attributeType="CSS" attributeName="opacity" from="0" to="1" begin="11s" dur="1s" repeatCount="0" fill="freeze" />
</path>
<path d="M62.38,70.28c5.23-0.3,19.31-1.71,22.12-1.71" style="fill:none;stroke:black;stroke-width:3;opacity:0">
  <animate attributeType="CSS" attributeName="opacity" from="0" to="1" begin="12s" dur="1s" repeatCount="0" fill="freeze" />
</path>
<path d="M62.13,95.84c6.19-0.12,16.52-0.85,22.23-0.97" style="fill:none;stroke:black;stroke-width:3;opacity:0">
  <animate attributeType="CSS" attributeName="opacity" from="0" to="1" begin="13s" dur="1s" repeatCount="0" fill="freeze" />
</path>
</svg>