<svg width="109px" height="109px" viewBox="0 0 px 109px" xmlns="http://www.w3.org/2000/svg" xmlns:xlink="http://www.w3.org/1999/xlink" xml:space="preserve" version="1.1"  baseProfile="full">
<path d="M29.5,10.25c0.04,0.49,0.08,1.26-0.08,1.96C28.45,16.35,22.87,25.44,15.25,31" style="fill:none;stroke:black;stroke-width:3;opacity:0">
  <animate attributeType="CSS" attributeName="opacity" from="0" to="1" begin="0s" dur="1s" repeatCount="Indefinite" fill="freeze" />
</path>
<path d="M27.73,19.79c3.71,0,18.61-2.29,22.77-2.29" style="fill:none;stroke:black;stroke-width:3;opacity:0">
  <animate attributeType="CSS" attributeName="opacity" from="0" to="1" begin="1s" dur="1s" repeatCount="Indefinite" fill="freeze" />
</path>
<path d="M35.27,21.08c1.69,1.21,4.37,4.99,4.79,6.88" style="fill:none;stroke:black;stroke-width:3;opacity:0">
  <animate attributeType="CSS" attributeName="opacity" from="0" to="1" begin="2s" dur="1s" repeatCount="Indefinite" fill="freeze" />
</path>
<path d="M61.25,9c0.02,0.35,0.1,0.92-0.05,1.42c-1.14,3.71-4.28,9.02-8.45,13.58" style="fill:none;stroke:black;stroke-width:3;opacity:0">
  <animate attributeType="CSS" attributeName="opacity" from="0" to="1" begin="3s" dur="1s" repeatCount="Indefinite" fill="freeze" />
</path>
<path d="M61.48,18.16c4.73,0,24.58-3.07,29.9-3.07" style="fill:none;stroke:black;stroke-width:3;opacity:0">
  <animate attributeType="CSS" attributeName="opacity" from="0" to="1" begin="4s" dur="1s" repeatCount="Indefinite" fill="freeze" />
</path>
<path d="M75.77,18.5c0.02,0.19,0.05,0.49-0.04,0.76c-0.53,1.6-3.57,5.1-7.73,7.24" style="fill:none;stroke:black;stroke-width:3;opacity:0">
  <animate attributeType="CSS" attributeName="opacity" from="0" to="1" begin="5s" dur="1s" repeatCount="Indefinite" fill="freeze" />
</path>
<path d="M22.63,39.73c1.21,0.37,3.42,0.44,4.62,0.37C42,39.29,67,35.77,82.91,35.85c2.01,0.01,3.22,0.17,4.22,0.36" style="fill:none;stroke:black;stroke-width:3;opacity:0">
  <animate attributeType="CSS" attributeName="opacity" from="0" to="1" begin="6s" dur="1s" repeatCount="Indefinite" fill="freeze" />
</path>
<path d="M39.53,32.03c0.57,0.25,1.78,1.82,1.8,2.31c0.17,3.33,0.57,8.97,1.17,14.77" style="fill:none;stroke:black;stroke-width:3;opacity:0">
  <animate attributeType="CSS" attributeName="opacity" from="0" to="1" begin="7s" dur="1s" repeatCount="Indefinite" fill="freeze" />
</path>
<path d="M65.6,28.63c0.57,0.29,1.24,2.13,1.14,2.7c-0.57,3.49-1.63,8.37-2.58,14.88" style="fill:none;stroke:black;stroke-width:3;opacity:0">
  <animate attributeType="CSS" attributeName="opacity" from="0" to="1" begin="8s" dur="1s" repeatCount="Indefinite" fill="freeze" />
</path>
<path d="M42.73,47.85c3.71,0,20.61-1.79,24.77-1.79" style="fill:none;stroke:black;stroke-width:3;opacity:0">
  <animate attributeType="CSS" attributeName="opacity" from="0" to="1" begin="9s" dur="1s" repeatCount="Indefinite" fill="freeze" />
</path>
<path d="M15.88,56.79c1.52,0.44,4.31,0.5,5.82,0.44c9.55-0.38,43.55-4.4,66.11-3.74c2.53,0.07,4.05,0.21,5.31,0.43" style="fill:none;stroke:black;stroke-width:3;opacity:0">
  <animate attributeType="CSS" attributeName="opacity" from="0" to="1" begin="10s" dur="1s" repeatCount="Indefinite" fill="freeze" />
</path>
<path d="M27.22,63.9c0.84,0.37,2.01,1.46,2.08,1.95c0.54,3.79,1.91,13.22,2.89,20.54" style="fill:none;stroke:black;stroke-width:3;opacity:0">
  <animate attributeType="CSS" attributeName="opacity" from="0" to="1" begin="11s" dur="1s" repeatCount="Indefinite" fill="freeze" />
</path>
<path d="M30.48,65.01c12.86-0.71,38.17-3.67,46.95-3.54c2.08,0.03,3.46,2.51,3.27,3.58c-0.72,3.91-1.94,12.95-4.2,19.4" style="fill:none;stroke:black;stroke-width:3;opacity:0">
  <animate attributeType="CSS" attributeName="opacity" from="0" to="1" begin="12s" dur="1s" repeatCount="Indefinite" fill="freeze" />
</path>
<path d="M31.08,75.01c4.3-0.19,44.16-3.4,47.71-3.4" style="fill:none;stroke:black;stroke-width:3;opacity:0">
  <animate attributeType="CSS" attributeName="opacity" from="0" to="1" begin="13s" dur="1s" repeatCount="Indefinite" fill="freeze" />
</path>
<path d="M33.38,84.86c12.45-1.36,29.07-2.55,43.73-3.04" style="fill:none;stroke:black;stroke-width:3;opacity:0">
  <animate attributeType="CSS" attributeName="opacity" from="0" to="1" begin="14s" dur="1s" repeatCount="Indefinite" fill="freeze" />
</path>
<path d="M51.66,56.58c0.86,0.33,2.21,1.54,2.21,1.95c0.02,6.8,0.18,21.96,0.18,23.77" style="fill:none;stroke:black;stroke-width:3;opacity:0">
  <animate attributeType="CSS" attributeName="opacity" from="0" to="1" begin="15s" dur="1s" repeatCount="Indefinite" fill="freeze" />
</path>
<path d="M40.82,89.64c0.06,0.32,0.13,0.82-0.12,1.28c-1.5,2.7-10.13,7.7-21.94,11.33" style="fill:none;stroke:black;stroke-width:3;opacity:0">
  <animate attributeType="CSS" attributeName="opacity" from="0" to="1" begin="16s" dur="1s" repeatCount="Indefinite" fill="freeze" />
</path>
<path d="M67.25,89.05c6.53,2.15,16.87,8.85,18.5,12.2" style="fill:none;stroke:black;stroke-width:3;opacity:0">
  <animate attributeType="CSS" attributeName="opacity" from="0" to="1" begin="17s" dur="1s" repeatCount="Indefinite" fill="freeze" />
</path>
</svg>