<svg width="109px" height="109px" viewBox="0 0 px 109px" xmlns="http://www.w3.org/2000/svg" xmlns:xlink="http://www.w3.org/1999/xlink" xml:space="preserve" version="1.1"  baseProfile="full">
<path d="M26.75,9.75c0.04,0.54,0.08,1.38-0.08,2.15c-0.95,4.54-6.43,14.5-13.92,20.6" style="fill:none;stroke:black;stroke-width:3;opacity:0">
  <animate attributeType="CSS" attributeName="opacity" from="0" to="1" begin="0s" dur="1s" repeatCount="Indefinite" fill="freeze" />
</path>
<path d="M25.48,20.37c4.79,0,20.15-2.7,25.52-2.7" style="fill:none;stroke:black;stroke-width:3;opacity:0">
  <animate attributeType="CSS" attributeName="opacity" from="0" to="1" begin="1s" dur="1s" repeatCount="Indefinite" fill="freeze" />
</path>
<path d="M34.25,21.5c1.87,1.49,4.84,6.14,5.31,8.47" style="fill:none;stroke:black;stroke-width:3;opacity:0">
  <animate attributeType="CSS" attributeName="opacity" from="0" to="1" begin="2s" dur="1s" repeatCount="Indefinite" fill="freeze" />
</path>
<path d="M62.74,9.75c0.03,0.34,0.12,0.88-0.06,1.35c-1.3,3.53-4.91,8.57-9.69,12.9" style="fill:none;stroke:black;stroke-width:3;opacity:0">
  <animate attributeType="CSS" attributeName="opacity" from="0" to="1" begin="3s" dur="1s" repeatCount="Indefinite" fill="freeze" />
</path>
<path d="M62.48,18.8c5.53,0,25.81-3.2,32.02-3.2" style="fill:none;stroke:black;stroke-width:3;opacity:0">
  <animate attributeType="CSS" attributeName="opacity" from="0" to="1" begin="4s" dur="1s" repeatCount="Indefinite" fill="freeze" />
</path>
<path d="M79.51,17c0.03,0.28,0.07,0.73-0.07,1.14c-0.8,2.39-5.4,7.65-11.69,10.86" style="fill:none;stroke:black;stroke-width:3;opacity:0">
  <animate attributeType="CSS" attributeName="opacity" from="0" to="1" begin="5s" dur="1s" repeatCount="Indefinite" fill="freeze" />
</path>
<path d="M26.75,35.75c2.54,0.21,3.77,0.54,6.11,0.41c14.25-0.82,35.62-3.57,46.82-3.57c3.31,0,4.58,1.02,4.07,3.07c-1.33,5.36-2.29,8.2-2.54,13.53" style="fill:none;stroke:black;stroke-width:3;opacity:0">
  <animate attributeType="CSS" attributeName="opacity" from="0" to="1" begin="6s" dur="1s" repeatCount="Indefinite" fill="freeze" />
</path>
<path d="M15,44.84c2.43,0.23,4.33,0.67,7.03,0.46c23.51-1.83,51.07-4.13,69.72-4.82c2.98-0.11,5.4,0.46,6.76,0.69" style="fill:none;stroke:black;stroke-width:3;opacity:0">
  <animate attributeType="CSS" attributeName="opacity" from="0" to="1" begin="7s" dur="1s" repeatCount="Indefinite" fill="freeze" />
</path>
<path d="M27,53.11c1.25,0.13,3.51,0.47,5,0.4c13.75-0.66,34.25-3.03,46.75-3.29c2-0.04,3.25,0,4.75,0.13" style="fill:none;stroke:black;stroke-width:3;opacity:0">
  <animate attributeType="CSS" attributeName="opacity" from="0" to="1" begin="8s" dur="1s" repeatCount="Indefinite" fill="freeze" />
</path>
<path d="M52.25,28c1.25,0.42,2,1.89,2.25,2.73s0,64.35-0.25,69.6" style="fill:none;stroke:black;stroke-width:3;opacity:0">
  <animate attributeType="CSS" attributeName="opacity" from="0" to="1" begin="9s" dur="1s" repeatCount="Indefinite" fill="freeze" />
</path>
<path d="M26.1,58.69c0.44,1.15,1.07,2.05,1.07,3.49C27.17,75.32,28,92.5,14,101" style="fill:none;stroke:black;stroke-width:3;opacity:0">
  <animate attributeType="CSS" attributeName="opacity" from="0" to="1" begin="10s" dur="1s" repeatCount="Indefinite" fill="freeze" />
</path>
<path d="M41.64,57.9c0.51,0.34,0.9,0.74,0.9,1.88c0,1.46-0.01,4.37-0.01,6.22" style="fill:none;stroke:black;stroke-width:3;opacity:0">
  <animate attributeType="CSS" attributeName="opacity" from="0" to="1" begin="11s" dur="1s" repeatCount="Indefinite" fill="freeze" />
</path>
<path d="M27.81,68.54c3.5-0.14,13.15-0.98,16.33-0.98" style="fill:none;stroke:black;stroke-width:3;opacity:0">
  <animate attributeType="CSS" attributeName="opacity" from="0" to="1" begin="12s" dur="1s" repeatCount="Indefinite" fill="freeze" />
</path>
<path d="M65.48,56.34c0.87,0.36,1.47,0.78,1.54,1.97c0.11,1.78-0.19,4.91-0.46,6.78c-0.09,0.6,0.15,1.49,1.44,1.39c4.54-0.33,8.91-1.2,14.17-1.46" style="fill:none;stroke:black;stroke-width:3;opacity:0">
  <animate attributeType="CSS" attributeName="opacity" from="0" to="1" begin="13s" dur="1s" repeatCount="Indefinite" fill="freeze" />
</path>
<path d="M82.62,55.79c0.83,0.5,1.41,1.09,1.48,2.75c0.34,7.99-0.02,39.49-0.02,42.21" style="fill:none;stroke:black;stroke-width:3;opacity:0">
  <animate attributeType="CSS" attributeName="opacity" from="0" to="1" begin="14s" dur="1s" repeatCount="Indefinite" fill="freeze" />
</path>
<path d="M29.31,75.9c8.65-0.58,46.96-2.72,53.19-2.72" style="fill:none;stroke:black;stroke-width:3;opacity:0">
  <animate attributeType="CSS" attributeName="opacity" from="0" to="1" begin="15s" dur="1s" repeatCount="Indefinite" fill="freeze" />
</path>
<path d="M27.06,86.53c5.87-1.02,7.94-1.93,11.99-2.69c3.26-0.61,3.92,0.88,3.92,1.76c0,0.88-0.6,13.53-0.6,14.41" style="fill:none;stroke:black;stroke-width:3;opacity:0">
  <animate attributeType="CSS" attributeName="opacity" from="0" to="1" begin="16s" dur="1s" repeatCount="Indefinite" fill="freeze" />
</path>
<path d="M64.8,82.42c0.93,0.06,1.54,0.26,2.62,0.19c4.75-0.3,11.92-0.78,15.16-0.88" style="fill:none;stroke:black;stroke-width:3;opacity:0">
  <animate attributeType="CSS" attributeName="opacity" from="0" to="1" begin="17s" dur="1s" repeatCount="Indefinite" fill="freeze" />
</path>
<path d="M68.86,84.41c0,4.28-0.02,11.8-0.02,14.57" style="fill:none;stroke:black;stroke-width:3;opacity:0">
  <animate attributeType="CSS" attributeName="opacity" from="0" to="1" begin="18s" dur="1s" repeatCount="Indefinite" fill="freeze" />
</path>
</svg>