<svg width="109px" height="109px" viewBox="0 0 px 109px" xmlns="http://www.w3.org/2000/svg" xmlns:xlink="http://www.w3.org/1999/xlink" xml:space="preserve" version="1.1"  baseProfile="full">
<path d="M27,11.25c0.04,0.51,0.08,1.32-0.08,2.06C25.99,17.65,20.61,27.17,13.25,33" style="fill:none;stroke:black;stroke-width:3;opacity:0">
  <animate attributeType="CSS" attributeName="opacity" from="0" to="1" begin="0s" dur="1s" repeatCount="0" fill="freeze" />
</path>
<path d="M27.22,21.19c3.93,0.19,18.69-2.81,23.1-2.6" style="fill:none;stroke:black;stroke-width:3;opacity:0">
  <animate attributeType="CSS" attributeName="opacity" from="0" to="1" begin="1s" dur="1s" repeatCount="0" fill="freeze" />
</path>
<path d="M35.75,23c2.05,1.8,5.3,7.41,5.81,10.22" style="fill:none;stroke:black;stroke-width:3;opacity:0">
  <animate attributeType="CSS" attributeName="opacity" from="0" to="1" begin="2s" dur="1s" repeatCount="0" fill="freeze" />
</path>
<path d="M60.74,9.75c0.03,0.44,0.11,1.15-0.05,1.77c-1.27,4.64-4.79,11.27-9.44,16.98" style="fill:none;stroke:black;stroke-width:3;opacity:0">
  <animate attributeType="CSS" attributeName="opacity" from="0" to="1" begin="3s" dur="1s" repeatCount="0" fill="freeze" />
</path>
<path d="M60.48,20.11c5.23,0,25.9-3.61,31.77-3.61" style="fill:none;stroke:black;stroke-width:3;opacity:0">
  <animate attributeType="CSS" attributeName="opacity" from="0" to="1" begin="4s" dur="1s" repeatCount="0" fill="freeze" />
</path>
<path d="M76.27,21.75c0.02,0.18,0.04,0.47-0.04,0.73c-0.44,1.55-3,4.94-6.49,7.02" style="fill:none;stroke:black;stroke-width:3;opacity:0">
  <animate attributeType="CSS" attributeName="opacity" from="0" to="1" begin="5s" dur="1s" repeatCount="0" fill="freeze" />
</path>
<path d="M14.75,50.27c1.82,0.21,1.09,0.21,3.06,0.21c3.73,0,15.82-1.63,23.85-2.63" style="fill:none;stroke:black;stroke-width:3;opacity:0">
  <animate attributeType="CSS" attributeName="opacity" from="0" to="1" begin="6s" dur="1s" repeatCount="0" fill="freeze" />
</path>
<path d="M28.69,34.58c0.44,0.73,1.52,1.98,1.59,4.39c0.36,11.57-0.23,47.31-0.23,51.25c0,12.03-5.05,5.03-6.49,2.99" style="fill:none;stroke:black;stroke-width:3;opacity:0">
  <animate attributeType="CSS" attributeName="opacity" from="0" to="1" begin="7s" dur="1s" repeatCount="0" fill="freeze" />
</path>
<path d="M13.75,73.82c1,1.18,2.31,1.86,4.94,0.5c1.55-0.8,16-8.96,22.56-12.82" style="fill:none;stroke:black;stroke-width:3;opacity:0">
  <animate attributeType="CSS" attributeName="opacity" from="0" to="1" begin="8s" dur="1s" repeatCount="0" fill="freeze" />
</path>
<path d="M60.76,32.5c0.03,0.17,0.1,0.5-0.05,0.69c-1.9,2.44-4.72,4.68-9.69,6.65" style="fill:none;stroke:black;stroke-width:3;opacity:0">
  <animate attributeType="CSS" attributeName="opacity" from="0" to="1" begin="9s" dur="1s" repeatCount="0" fill="freeze" />
</path>
<path d="M48.25,39.21c0.38,0.31,1.11,1.92,1.18,2.54c0.08,0.63-0.03,15.88-0.12,17.44c-0.08,1.42,0.2,2.66,1.66,1.38c2.63-2.3,10.73-8.49,13.5-10.6" style="fill:none;stroke:black;stroke-width:3;opacity:0">
  <animate attributeType="CSS" attributeName="opacity" from="0" to="1" begin="10s" dur="1s" repeatCount="0" fill="freeze" />
</path>
<path d="M58.7,42.83c4.04,2.82,6.61,7.01,8.16,11.12" style="fill:none;stroke:black;stroke-width:3;opacity:0">
  <animate attributeType="CSS" attributeName="opacity" from="0" to="1" begin="11s" dur="1s" repeatCount="0" fill="freeze" />
</path>
<path d="M70.49,37.05c0.73,0.32,2.04,0.28,2.68,0.17c5.22-0.9,14.08-3.14,16.97-3.48c1.88-0.22,3.35,1.37,3.25,2.88c-0.28,4-4.44,16.9-7.01,21.49c-1.86,3.33-3.95,1.77-5.35-0.4" style="fill:none;stroke:black;stroke-width:3;opacity:0">
  <animate attributeType="CSS" attributeName="opacity" from="0" to="1" begin="12s" dur="1s" repeatCount="0" fill="freeze" />
</path>
<path d="M79.68,38.63c0.04,0.49,0.12,1.29-0.08,1.98c-2.12,7.48-4.02,12.83-12.86,20.14" style="fill:none;stroke:black;stroke-width:3;opacity:0">
  <animate attributeType="CSS" attributeName="opacity" from="0" to="1" begin="13s" dur="1s" repeatCount="0" fill="freeze" />
</path>
<path d="M49.59,69.77c0.32,0.5,0.86,1.27,1.03,1.88c1.44,5.08,2.91,17.74,3.76,27.09" style="fill:none;stroke:black;stroke-width:3;opacity:0">
  <animate attributeType="CSS" attributeName="opacity" from="0" to="1" begin="14s" dur="1s" repeatCount="0" fill="freeze" />
</path>
<path d="M51.3,71.6c10.06-1.2,27.04-3.28,33.66-3.75c2.43-0.17,3.67,0.76,3.54,3.26c-0.26,4.75-2.33,16.1-3.79,24.53" style="fill:none;stroke:black;stroke-width:3;opacity:0">
  <animate attributeType="CSS" attributeName="opacity" from="0" to="1" begin="15s" dur="1s" repeatCount="0" fill="freeze" />
</path>
<path d="M67.79,70.65c0.48,0.43,0.88,1.3,0.88,2.43c-0.02,5.79,0.16,18.82,0.16,20.71" style="fill:none;stroke:black;stroke-width:3;opacity:0">
  <animate attributeType="CSS" attributeName="opacity" from="0" to="1" begin="16s" dur="1s" repeatCount="0" fill="freeze" />
</path>
<path d="M53.25,83.84c2.78-0.33,30.96-3.36,33.26-3.36" style="fill:none;stroke:black;stroke-width:3;opacity:0">
  <animate attributeType="CSS" attributeName="opacity" from="0" to="1" begin="17s" dur="1s" repeatCount="0" fill="freeze" />
</path>
<path d="M54.39,96.6c7.57-0.79,21.18-2.83,29.93-2.99" style="fill:none;stroke:black;stroke-width:3;opacity:0">
  <animate attributeType="CSS" attributeName="opacity" from="0" to="1" begin="18s" dur="1s" repeatCount="0" fill="freeze" />
</path>
</svg>