<svg width="109px" height="109px" viewBox="0 0 px 109px" xmlns="http://www.w3.org/2000/svg" xmlns:xlink="http://www.w3.org/1999/xlink" xml:space="preserve" version="1.1"  baseProfile="full">
<path d="M26.64,25.46c4.03,2.47,10.1,9.45,11.11,13.29" style="fill:none;stroke:black;stroke-width:3;opacity:0">
  <animate attributeType="CSS" attributeName="opacity" from="0" to="1" begin="0s" dur="1s" repeatCount="0" fill="freeze" />
</path>
<path d="M78.52,19.64c0.1,0.85-0.21,2.19-0.63,2.91C75.25,27,72.25,30.5,66.56,35.22" style="fill:none;stroke:black;stroke-width:3;opacity:0">
  <animate attributeType="CSS" attributeName="opacity" from="0" to="1" begin="1s" dur="1s" repeatCount="0" fill="freeze" />
</path>
<path d="M18,49.25c2.25,0.62,4.8,0.83,8.24,0.5c19.67-1.88,38.77-4.5,52.75-5.25c3.46-0.19,6.13-0.12,8.51,0.5" style="fill:none;stroke:black;stroke-width:3;opacity:0">
  <animate attributeType="CSS" attributeName="opacity" from="0" to="1" begin="2s" dur="1s" repeatCount="0" fill="freeze" />
</path>
<path d="M51.75,13.25C53.06,14.56,54,17,54,18.75c0,4.75,0.06,50.93-0.14,70.51c-0.04,3.54-0.07,5.54-0.11,6.49" style="fill:none;stroke:black;stroke-width:3;opacity:0">
  <animate attributeType="CSS" attributeName="opacity" from="0" to="1" begin="3s" dur="1s" repeatCount="0" fill="freeze" />
</path>
<path d="M49.38,48.25c0,1.47-0.81,3.5-1.26,4.29C41,64.89,27.22,78.84,13.5,85.75" style="fill:none;stroke:black;stroke-width:3;opacity:0">
  <animate attributeType="CSS" attributeName="opacity" from="0" to="1" begin="4s" dur="1s" repeatCount="0" fill="freeze" />
</path>
<path d="M55.75,48.25C60,53,75.38,68.74,83.7,76.96c2.8,2.77,5.74,5.16,9.43,6.79" style="fill:none;stroke:black;stroke-width:3;opacity:0">
  <animate attributeType="CSS" attributeName="opacity" from="0" to="1" begin="5s" dur="1s" repeatCount="0" fill="freeze" />
</path>
</svg>