<svg width="109px" height="109px" viewBox="0 0 px 109px" xmlns="http://www.w3.org/2000/svg" xmlns:xlink="http://www.w3.org/1999/xlink" xml:space="preserve" version="1.1"  baseProfile="full">
<path d="M12.69,24.64c3.1,2.34,7.78,8.96,8.56,12.61" style="fill:none;stroke:black;stroke-width:3;opacity:0">
  <animate attributeType="CSS" attributeName="opacity" from="0" to="1" begin="0s" dur="1s" repeatCount="0" fill="freeze" />
</path>
<path d="M44.5,22.5c0.02,0.33,0.04,0.85-0.04,1.33c-0.52,2.8-3.53,8.95-7.64,12.71" style="fill:none;stroke:black;stroke-width:3;opacity:0">
  <animate attributeType="CSS" attributeName="opacity" from="0" to="1" begin="1s" dur="1s" repeatCount="0" fill="freeze" />
</path>
<path d="M11.6,45.86c0.57,0.12,2.1,0.41,3.62,0.35c5.45-0.23,21.11-1.88,27.28-2.25c1.51-0.09,1.9-0.12,2.86,0" style="fill:none;stroke:black;stroke-width:3;opacity:0">
  <animate attributeType="CSS" attributeName="opacity" from="0" to="1" begin="2s" dur="1s" repeatCount="0" fill="freeze" />
</path>
<path d="M28.02,15.46c0.88,0.46,1.41,2.09,1.59,3.02s0,73.21-0.18,79.02" style="fill:none;stroke:black;stroke-width:3;opacity:0">
  <animate attributeType="CSS" attributeName="opacity" from="0" to="1" begin="3s" dur="1s" repeatCount="0" fill="freeze" />
</path>
<path d="M29.52,45.96C25.95,57.29,17.28,73.21,9.25,79.75" style="fill:none;stroke:black;stroke-width:3;opacity:0">
  <animate attributeType="CSS" attributeName="opacity" from="0" to="1" begin="4s" dur="1s" repeatCount="0" fill="freeze" />
</path>
<path d="M31.62,52.82c4.81,3.04,8.34,6.55,10.13,11.68" style="fill:none;stroke:black;stroke-width:3;opacity:0">
  <animate attributeType="CSS" attributeName="opacity" from="0" to="1" begin="5s" dur="1s" repeatCount="0" fill="freeze" />
</path>
<path d="M50.78,27c1.11,0.2,2.39,0.19,3.51,0.14c12.08-0.52,19.04-2.72,40.2-3.28c1.84-0.05,2.95,0.04,3.88,0.13" style="fill:none;stroke:black;stroke-width:3;opacity:0">
  <animate attributeType="CSS" attributeName="opacity" from="0" to="1" begin="6s" dur="1s" repeatCount="0" fill="freeze" />
</path>
<path d="M61.36,13.98c0.74,1.21,0.98,1.57,1.06,2.31c0.74,6.94,1.79,15.43,2,17.95" style="fill:none;stroke:black;stroke-width:3;opacity:0">
  <animate attributeType="CSS" attributeName="opacity" from="0" to="1" begin="7s" dur="1s" repeatCount="0" fill="freeze" />
</path>
<path d="M82.4,12.25c0.23,1.04,0.53,1.82,0.3,3.11c-1.31,7.59-1.4,12.33-2.85,19.48" style="fill:none;stroke:black;stroke-width:3;opacity:0">
  <animate attributeType="CSS" attributeName="opacity" from="0" to="1" begin="8s" dur="1s" repeatCount="0" fill="freeze" />
</path>
<path d="M64.36,41.69c0,1.49-0.72,3.77-1.44,5.05C58.23,55.06,48.94,65.5,42.75,71" style="fill:none;stroke:black;stroke-width:3;opacity:0">
  <animate attributeType="CSS" attributeName="opacity" from="0" to="1" begin="9s" dur="1s" repeatCount="0" fill="freeze" />
</path>
<path d="M57.14,58.74c1.21,1.22,0.97,2.41,1,3.66c0.26,9.34-0.91,30.52-0.2,35.1" style="fill:none;stroke:black;stroke-width:3;opacity:0">
  <animate attributeType="CSS" attributeName="opacity" from="0" to="1" begin="10s" dur="1s" repeatCount="0" fill="freeze" />
</path>
<path d="M93,48c0,1.19,0.03,2.51-0.87,3.47c-4.11,4.35-8.17,8.4-13.63,12.53" style="fill:none;stroke:black;stroke-width:3;opacity:0">
  <animate attributeType="CSS" attributeName="opacity" from="0" to="1" begin="11s" dur="1s" repeatCount="0" fill="freeze" />
</path>
<path d="M75,41.25c0.42,0.83,0.98,3,0.98,4.14c0,4.42-0.42,40.32,0.14,43.63c0.56,3.31,2.24,6.91,4.49,7.18c2.24,0.28,12.06,0.55,13.46-1.93c1.4-2.49,1.54-6.08,1.68-8.56" style="fill:none;stroke:black;stroke-width:3;opacity:0">
  <animate attributeType="CSS" attributeName="opacity" from="0" to="1" begin="12s" dur="1s" repeatCount="0" fill="freeze" />
</path>
</svg>