<svg width="109px" height="109px" viewBox="0 0 px 109px" xmlns="http://www.w3.org/2000/svg" xmlns:xlink="http://www.w3.org/1999/xlink" xml:space="preserve" version="1.1"  baseProfile="full">
<path d="M27.65,13.17c0.36,1.42,0.38,2.47-0.18,4.01C25,24,21,28.75,16.18,34.19c-0.67,0.75-0.72,3.27,0,3.54c3.81,1.42,7.64,2.78,10.91,5.38" style="fill:none;stroke:black;stroke-width:3;opacity:0">
  <animate attributeType="CSS" attributeName="opacity" from="0" to="1" begin="0s" dur="1s" repeatCount="Indefinite" fill="freeze" />
</path>
<path d="M38.55,23.93c0.3,0.58,0.37,2.46,0,3.09c-5.8,9.73-14.99,21.18-22.98,29.44c-1.83,1.89,0.46,2.98,1.65,2.59c5-1.61,15.37-4.99,21.79-6.53" style="fill:none;stroke:black;stroke-width:3;opacity:0">
  <animate attributeType="CSS" attributeName="opacity" from="0" to="1" begin="1s" dur="1s" repeatCount="Indefinite" fill="freeze" />
</path>
<path d="M35.13,45.88c2.34,2.36,6.04,10.69,6.62,14.35" style="fill:none;stroke:black;stroke-width:3;opacity:0">
  <animate attributeType="CSS" attributeName="opacity" from="0" to="1" begin="2s" dur="1s" repeatCount="Indefinite" fill="freeze" />
</path>
<path d="M28.39,58.62c0.07,0.36,0.91,1.85,0.98,4.09c0.31,10.79-0.2,30.29-0.2,33.96" style="fill:none;stroke:black;stroke-width:3;opacity:0">
  <animate attributeType="CSS" attributeName="opacity" from="0" to="1" begin="3s" dur="1s" repeatCount="Indefinite" fill="freeze" />
</path>
<path d="M18.6,68.35c0.16,0.94,0.13,2.79-0.16,3.47c-1.87,4.39-6.55,12.85-9.2,16.62" style="fill:none;stroke:black;stroke-width:3;opacity:0">
  <animate attributeType="CSS" attributeName="opacity" from="0" to="1" begin="4s" dur="1s" repeatCount="Indefinite" fill="freeze" />
</path>
<path d="M36.43,67.04c3.12,3.53,5.52,11.74,6.24,14.94" style="fill:none;stroke:black;stroke-width:3;opacity:0">
  <animate attributeType="CSS" attributeName="opacity" from="0" to="1" begin="5s" dur="1s" repeatCount="Indefinite" fill="freeze" />
</path>
<path d="M59.48,13.25c0.04,0.62,0.08,1.61-0.08,2.5c-0.94,5.27-6.3,16.84-13.65,23.92" style="fill:none;stroke:black;stroke-width:3;opacity:0">
  <animate attributeType="CSS" attributeName="opacity" from="0" to="1" begin="6s" dur="1s" repeatCount="Indefinite" fill="freeze" />
</path>
<path d="M57.62,26.99c0.93,0.77,3.12,0.83,4.65,0.52c3.8-0.77,24.17-2.9,28.76-3.67c3.67-0.62,5.98,0,5.77,4.38c-0.8,16.53-1.92,38.82-7.55,58.53c-4,14-7.5,7-9.75,3.5" style="fill:none;stroke:black;stroke-width:3;opacity:0">
  <animate attributeType="CSS" attributeName="opacity" from="0" to="1" begin="7s" dur="1s" repeatCount="Indefinite" fill="freeze" />
</path>
<path d="M58.94,34.89c0.03,0.4,0.06,1.04-0.05,1.62c-0.65,3.42-4.41,10.92-9.55,15.52" style="fill:none;stroke:black;stroke-width:3;opacity:0">
  <animate attributeType="CSS" attributeName="opacity" from="0" to="1" begin="8s" dur="1s" repeatCount="Indefinite" fill="freeze" />
</path>
<path d="M59.22,42.69c0.51,0.29,1.44,0.35,1.95,0.29c6.23-0.8,11.7-1.19,17.29-2.21c0.84-0.15,1.35,0.14,1.78,0.28" style="fill:none;stroke:black;stroke-width:3;opacity:0">
  <animate attributeType="CSS" attributeName="opacity" from="0" to="1" begin="9s" dur="1s" repeatCount="Indefinite" fill="freeze" />
</path>
<path d="M47.83,59.54c0.98,0.41,2.77,0.47,3.75,0.41c10.18-0.68,15.98-2.65,30.83-2.81c1.63-0.02,2.61,0.19,3.42,0.4" style="fill:none;stroke:black;stroke-width:3;opacity:0">
  <animate attributeType="CSS" attributeName="opacity" from="0" to="1" begin="10s" dur="1s" repeatCount="Indefinite" fill="freeze" />
</path>
<path d="M64.81,43.33c0.46,0.83,0.98,1.44,0.98,2.58c0,4.02-0.05,31.05-0.12,34.45" style="fill:none;stroke:black;stroke-width:3;opacity:0">
  <animate attributeType="CSS" attributeName="opacity" from="0" to="1" begin="11s" dur="1s" repeatCount="Indefinite" fill="freeze" />
</path>
<path d="M51.97,68.92c0.37,0.27,0.85,1.44,0.73,1.97c-1.02,4.79-1.72,7.61-2.35,10.19c-0.29,1.21,0.3,2.55,1.2,2.28c7.69-2.35,17.69-2.85,27.77-3.34" style="fill:none;stroke:black;stroke-width:3;opacity:0">
  <animate attributeType="CSS" attributeName="opacity" from="0" to="1" begin="12s" dur="1s" repeatCount="Indefinite" fill="freeze" />
</path>
<path d="M79.83,65.91c0.41,0.29,0.89,2.16,0.83,2.74c-0.41,3.55-0.82,7.71-1.5,14.32" style="fill:none;stroke:black;stroke-width:3;opacity:0">
  <animate attributeType="CSS" attributeName="opacity" from="0" to="1" begin="13s" dur="1s" repeatCount="Indefinite" fill="freeze" />
</path>
</svg>