<svg width="109px" height="109px" viewBox="0 0 px 109px" xmlns="http://www.w3.org/2000/svg" xmlns:xlink="http://www.w3.org/1999/xlink" xml:space="preserve" version="1.1"  baseProfile="full">
<path d="M28.15,15c0.31,1.21,0.42,2.16-0.16,3.44c-2.74,6.06-5.62,10.4-10.07,16.04c-0.8,1.01-0.67,2.39,0.5,3.04c2.41,1.33,5.84,3.74,8.64,5.97" style="fill:none;stroke:black;stroke-width:3;opacity:0">
  <animate attributeType="CSS" attributeName="opacity" from="0" to="1" begin="0s" dur="1s" repeatCount="0" fill="freeze" />
</path>
<path d="M37.03,26.94c0.34,1.18,0.38,2.37-0.25,3.44c-5.16,8.74-12.03,18.12-18.63,25.73c-1.64,1.89-0.78,3.51,1.32,2.97c4.83-1.26,13.28-3.58,19.98-5.74" style="fill:none;stroke:black;stroke-width:3;opacity:0">
  <animate attributeType="CSS" attributeName="opacity" from="0" to="1" begin="1s" dur="1s" repeatCount="0" fill="freeze" />
</path>
<path d="M36.75,47.62c2.21,2.01,5.7,8.25,6.25,11.38" style="fill:none;stroke:black;stroke-width:3;opacity:0">
  <animate attributeType="CSS" attributeName="opacity" from="0" to="1" begin="2s" dur="1s" repeatCount="0" fill="freeze" />
</path>
<path d="M28.83,59.01c0.77,0.77,1.28,2.12,1.28,3.28c0,7.09-0.09,18.96-0.09,26.71c0,2.96-0.07,5.18-0.07,6" style="fill:none;stroke:black;stroke-width:3;opacity:0">
  <animate attributeType="CSS" attributeName="opacity" from="0" to="1" begin="3s" dur="1s" repeatCount="0" fill="freeze" />
</path>
<path d="M21.5,69.5c0.25,1,0.25,2-0.12,3.05c-1.27,3.62-5.08,10.4-7.13,13.45" style="fill:none;stroke:black;stroke-width:3;opacity:0">
  <animate attributeType="CSS" attributeName="opacity" from="0" to="1" begin="4s" dur="1s" repeatCount="0" fill="freeze" />
</path>
<path d="M37.5,66.25c2.12,3.37,3.76,11.2,4.25,14.25" style="fill:none;stroke:black;stroke-width:3;opacity:0">
  <animate attributeType="CSS" attributeName="opacity" from="0" to="1" begin="5s" dur="1s" repeatCount="0" fill="freeze" />
</path>
<path d="M60.5,17.27c0.21,0.56,0.24,1.72-0.04,2.4c-2.01,4.92-5.81,10.96-11.91,15.71" style="fill:none;stroke:black;stroke-width:3;opacity:0">
  <animate attributeType="CSS" attributeName="opacity" from="0" to="1" begin="6s" dur="1s" repeatCount="0" fill="freeze" />
</path>
<path d="M69.8,12.5c3.45,0.62,12.23,12.03,18.21,16.99c2.03,1.68,3.99,3.26,6.44,4.19" style="fill:none;stroke:black;stroke-width:3;opacity:0">
  <animate attributeType="CSS" attributeName="opacity" from="0" to="1" begin="7s" dur="1s" repeatCount="0" fill="freeze" />
</path>
<path d="M67.4,31.3c0.23,1.08,0.1,2.58-0.51,3.59C62.97,41.34,60,45.62,55.54,51.31c-1.79,2.28-0.86,3.91,1.3,3.31c6.04-1.67,15.66-3.62,24.62-5.41" style="fill:none;stroke:black;stroke-width:3;opacity:0">
  <animate attributeType="CSS" attributeName="opacity" from="0" to="1" begin="8s" dur="1s" repeatCount="0" fill="freeze" />
</path>
<path d="M78,42.88c3.01,2.23,7.78,9.16,8.54,12.62" style="fill:none;stroke:black;stroke-width:3;opacity:0">
  <animate attributeType="CSS" attributeName="opacity" from="0" to="1" begin="9s" dur="1s" repeatCount="0" fill="freeze" />
</path>
<path d="M50.62,75.12c0.22,1.96-2.19,10.59-3.94,13.85" style="fill:none;stroke:black;stroke-width:3;opacity:0">
  <animate attributeType="CSS" attributeName="opacity" from="0" to="1" begin="10s" dur="1s" repeatCount="0" fill="freeze" />
</path>
<path d="M56.61,68.32C64.88,85.25,71.58,91.06,86.6,91.1c7.03,0.02,6.65-2.6,2.03-6.56" style="fill:none;stroke:black;stroke-width:3;opacity:0">
  <animate attributeType="CSS" attributeName="opacity" from="0" to="1" begin="11s" dur="1s" repeatCount="0" fill="freeze" />
</path>
<path d="M70.48,64.5c2.39,5.38,4.36,6.86,5.07,3.11" style="fill:none;stroke:black;stroke-width:3;opacity:0">
  <animate attributeType="CSS" attributeName="opacity" from="0" to="1" begin="12s" dur="1s" repeatCount="0" fill="freeze" />
</path>
<path d="M89.1,65.51c2.85,2.02,5.4,5.37,7.31,10.11" style="fill:none;stroke:black;stroke-width:3;opacity:0">
  <animate attributeType="CSS" attributeName="opacity" from="0" to="1" begin="13s" dur="1s" repeatCount="0" fill="freeze" />
</path>
</svg>