<svg width="109px" height="109px" viewBox="0 0 px 109px" xmlns="http://www.w3.org/2000/svg" xmlns:xlink="http://www.w3.org/1999/xlink" xml:space="preserve" version="1.1"  baseProfile="full">
<path d="M21.83,13.76c0.37,0.29,1.25,1.03,1.41,1.39C24.52,18,26.06,25.87,26.94,31" style="fill:none;stroke:black;stroke-width:3;opacity:0">
  <animate attributeType="CSS" attributeName="opacity" from="0" to="1" begin="0s" dur="1s" repeatCount="0" fill="freeze" />
</path>
<path d="M23.13,15.06C33.5,13.75,73,11.75,83.37,11.23c1.42-0.07,3.34,0.94,2.96,2.49c-0.8,3.25-2.75,8.82-4.86,13.45" style="fill:none;stroke:black;stroke-width:3;opacity:0">
  <animate attributeType="CSS" attributeName="opacity" from="0" to="1" begin="1s" dur="1s" repeatCount="0" fill="freeze" />
</path>
<path d="M43.72,14.1c0.23,1.76,1.84,10.33,2.08,12.31" style="fill:none;stroke:black;stroke-width:3;opacity:0">
  <animate attributeType="CSS" attributeName="opacity" from="0" to="1" begin="2s" dur="1s" repeatCount="0" fill="freeze" />
</path>
<path d="M63.46,12.66c-0.19,2.91-1.12,10.53-1.49,12.32" style="fill:none;stroke:black;stroke-width:3;opacity:0">
  <animate attributeType="CSS" attributeName="opacity" from="0" to="1" begin="3s" dur="1s" repeatCount="0" fill="freeze" />
</path>
<path d="M28.35,27.96c4.54-0.37,47.26-2.68,53.5-3.25" style="fill:none;stroke:black;stroke-width:3;opacity:0">
  <animate attributeType="CSS" attributeName="opacity" from="0" to="1" begin="4s" dur="1s" repeatCount="0" fill="freeze" />
</path>
<path d="M33.77,31.19c0.29,0.28,0.15,2.03-0.02,2.39c-2.11,4.5-5.72,7.56-9.66,10.72c-1.25,1-0.75,2.22,1.08,2c3.83-0.47,18.26-4.02,24.02-4.52" style="fill:none;stroke:black;stroke-width:3;opacity:0">
  <animate attributeType="CSS" attributeName="opacity" from="0" to="1" begin="5s" dur="1s" repeatCount="0" fill="freeze" />
</path>
<path d="M43.75,35.75c3.53,2.21,9.12,9.07,10,12.5" style="fill:none;stroke:black;stroke-width:3;opacity:0">
  <animate attributeType="CSS" attributeName="opacity" from="0" to="1" begin="6s" dur="1s" repeatCount="0" fill="freeze" />
</path>
<path d="M26.15,51.67c0.45,0.36,0.89,0.89,0.91,1.63c0.05,2.08,0.08,26.29,0.15,25.38" style="fill:none;stroke:black;stroke-width:3;opacity:0">
  <animate attributeType="CSS" attributeName="opacity" from="0" to="1" begin="7s" dur="1s" repeatCount="0" fill="freeze" />
</path>
<path d="M28.68,53.24c1.58-0.09,16.07-2.11,17.24-2.21c2.11-0.18,2.9,1.17,2.63,1.71c-0.25,0.52-0.4,16.08-0.4,23.35c0,4.67-3.66,0.11-4.98-0.69" style="fill:none;stroke:black;stroke-width:3;opacity:0">
  <animate attributeType="CSS" attributeName="opacity" from="0" to="1" begin="8s" dur="1s" repeatCount="0" fill="freeze" />
</path>
<path d="M28.68,60.8c5.4-0.39,14.22-1.48,18.95-1.67" style="fill:none;stroke:black;stroke-width:3;opacity:0">
  <animate attributeType="CSS" attributeName="opacity" from="0" to="1" begin="9s" dur="1s" repeatCount="0" fill="freeze" />
</path>
<path d="M28.57,68.05c4.33-0.17,13.79-1.18,18.8-1.29" style="fill:none;stroke:black;stroke-width:3;opacity:0">
  <animate attributeType="CSS" attributeName="opacity" from="0" to="1" begin="10s" dur="1s" repeatCount="0" fill="freeze" />
</path>
<path d="M79.12,32.91c0.13,0.15,0.22,0.58-0.12,0.81c-2.23,1.48-9.53,5.56-16.72,7.08" style="fill:none;stroke:black;stroke-width:3;opacity:0">
  <animate attributeType="CSS" attributeName="opacity" from="0" to="1" begin="11s" dur="1s" repeatCount="0" fill="freeze" />
</path>
<path d="M60.42,31.68c0.52,0.32,1.22,1.8,1.22,2.26c0,2.77,0.17,10.81,0.17,12.15c0,3.82,1.28,4.5,12.91,4.5c4.61,0,8.93-0.18,10.67-1.14c1.74-0.96,1.52-2.08,1.7-3.04" style="fill:none;stroke:black;stroke-width:3;opacity:0">
  <animate attributeType="CSS" attributeName="opacity" from="0" to="1" begin="12s" dur="1s" repeatCount="0" fill="freeze" />
</path>
<path d="M81.76,58c0.15,0.18,0.25,0.71-0.14,0.99c-2.54,1.81-10.88,6.8-19.1,8.65" style="fill:none;stroke:black;stroke-width:3;opacity:0">
  <animate attributeType="CSS" attributeName="opacity" from="0" to="1" begin="13s" dur="1s" repeatCount="0" fill="freeze" />
</path>
<path d="M60.74,55.67c0.54,0.31,1.18,1.58,1.18,2.6c0,3.67,0.18,12.4,0.18,13.68c0,4.44,1.94,5.2,13.22,5.25c4.72,0.02,8.64-0.17,10.42-1.1c1.78-0.92,1.56-2,1.74-2.93" style="fill:none;stroke:black;stroke-width:3;opacity:0">
  <animate attributeType="CSS" attributeName="opacity" from="0" to="1" begin="14s" dur="1s" repeatCount="0" fill="freeze" />
</path>
<path d="M23,84.25c0,5.07-4.56,12.55-5.75,14" style="fill:none;stroke:black;stroke-width:3;opacity:0">
  <animate attributeType="CSS" attributeName="opacity" from="0" to="1" begin="15s" dur="1s" repeatCount="0" fill="freeze" />
</path>
<path d="M41.25,85.75c2.68,2.11,5.23,7.91,5.9,11.19" style="fill:none;stroke:black;stroke-width:3;opacity:0">
  <animate attributeType="CSS" attributeName="opacity" from="0" to="1" begin="16s" dur="1s" repeatCount="0" fill="freeze" />
</path>
<path d="M62,85.25c2.29,2.12,5.93,8.71,6.5,12" style="fill:none;stroke:black;stroke-width:3;opacity:0">
  <animate attributeType="CSS" attributeName="opacity" from="0" to="1" begin="17s" dur="1s" repeatCount="0" fill="freeze" />
</path>
<path d="M81.5,84.25c4.19,2.46,10.82,10.11,11.87,13.94" style="fill:none;stroke:black;stroke-width:3;opacity:0">
  <animate attributeType="CSS" attributeName="opacity" from="0" to="1" begin="18s" dur="1s" repeatCount="0" fill="freeze" />
</path>
</svg>