<svg width="109px" height="109px" viewBox="0 0 px 109px" xmlns="http://www.w3.org/2000/svg" xmlns:xlink="http://www.w3.org/1999/xlink" xml:space="preserve" version="1.1"  baseProfile="full">
<path d="M18.5,25.25c1.75,0.75,3.75,0.75,6.32,0.34c5.22-0.84,14.87-2.97,16.46-3.1c3.58-0.29,4.48,0.39,4.48,3.55c0,3.6-0.17,48.23-0.17,60.15c0,9.08-7.72,1.06-8.61,0.32" style="fill:none;stroke:black;stroke-width:3;opacity:0">
  <animate attributeType="CSS" attributeName="opacity" from="0" to="1" begin="0s" dur="1s" repeatCount="0" fill="freeze" />
</path>
<path d="M21.77,41.08c3.02,1.3,6.48,4.29,8.54,7.38" style="fill:none;stroke:black;stroke-width:3;opacity:0">
  <animate attributeType="CSS" attributeName="opacity" from="0" to="1" begin="1s" dur="1s" repeatCount="0" fill="freeze" />
</path>
<path d="M17,72c2.12,0.62,3.25,0.25,4.75-1.25c0.88-0.88,7.5-7.75,11.25-12" style="fill:none;stroke:black;stroke-width:3;opacity:0">
  <animate attributeType="CSS" attributeName="opacity" from="0" to="1" begin="2s" dur="1s" repeatCount="0" fill="freeze" />
</path>
<path d="M56.75,22.25C58.5,22.88,60,23,62.57,22.59c5.22-0.84,18.89-3.55,20.46-3.85c2.47-0.48,4.48,1.27,4.48,3.55c0,3.85-0.17,51.73-0.17,63.65c0,8.58-7.72,1.06-8.61,0.32" style="fill:none;stroke:black;stroke-width:3;opacity:0">
  <animate attributeType="CSS" attributeName="opacity" from="0" to="1" begin="3s" dur="1s" repeatCount="0" fill="freeze" />
</path>
<path d="M61.77,39.58c3.02,1.3,6.98,4.92,8.54,7.38" style="fill:none;stroke:black;stroke-width:3;opacity:0">
  <animate attributeType="CSS" attributeName="opacity" from="0" to="1" begin="4s" dur="1s" repeatCount="0" fill="freeze" />
</path>
<path d="M56.75,71c1.88,0.5,3.25,0.25,4.75-1.25c1.51-1.51,8.7-9.55,12.25-13.75" style="fill:none;stroke:black;stroke-width:3;opacity:0">
  <animate attributeType="CSS" attributeName="opacity" from="0" to="1" begin="5s" dur="1s" repeatCount="0" fill="freeze" />
</path>
</svg>