<svg width="109px" height="109px" viewBox="0 0 px 109px" xmlns="http://www.w3.org/2000/svg" xmlns:xlink="http://www.w3.org/1999/xlink" xml:space="preserve" version="1.1"  baseProfile="full">
<path d="M31,30.7c2.25,0.42,4.66,0.35,6.64,0.02c8.86-1.47,18.48-2.6,26.86-3.64c1.85-0.23,3.75-0.08,5.63,0.27" style="fill:none;stroke:black;stroke-width:3;opacity:0">
  <animate attributeType="CSS" attributeName="opacity" from="0" to="1" begin="0s" dur="1s" repeatCount="Indefinite" fill="freeze" />
</path>
<path d="M49.67,12.37c0.86,0.85,1.52,2.27,1.52,4.14c0,9.37,0.06,23.25,0.06,28.5" style="fill:none;stroke:black;stroke-width:3;opacity:0">
  <animate attributeType="CSS" attributeName="opacity" from="0" to="1" begin="1s" dur="1s" repeatCount="Indefinite" fill="freeze" />
</path>
<path d="M17,49.03c3.12,0.72,5.75,0.84,8.78,0.44c20.06-2.66,37.22-5.22,60.09-6.43c3.8-0.2,6.11,0.08,8.01,0.43" style="fill:none;stroke:black;stroke-width:3;opacity:0">
  <animate attributeType="CSS" attributeName="opacity" from="0" to="1" begin="2s" dur="1s" repeatCount="Indefinite" fill="freeze" />
</path>
<path d="M79.84,16.98c0.18,1.61-0.3,3.55-1.6,5.45C61.56,46.85,44.5,65.25,16.81,83.97" style="fill:none;stroke:black;stroke-width:3;opacity:0">
  <animate attributeType="CSS" attributeName="opacity" from="0" to="1" begin="3s" dur="1s" repeatCount="Indefinite" fill="freeze" />
</path>
<path d="M80.19,58.64c-0.11,1.45-0.89,2.79-1.93,3.62c-5.62,4.52-13.24,8.82-22.01,12.49" style="fill:none;stroke:black;stroke-width:3;opacity:0">
  <animate attributeType="CSS" attributeName="opacity" from="0" to="1" begin="4s" dur="1s" repeatCount="Indefinite" fill="freeze" />
</path>
<path d="M50.6,62c0.78,0.84,1.35,2.12,1.35,3.51c0,1.15,0.01,15.74,0.01,20.46c0,8.29,1.78,10.07,19.44,10.07c16.34,0,17.88-1.66,17.88-11.92" style="fill:none;stroke:black;stroke-width:3;opacity:0">
  <animate attributeType="CSS" attributeName="opacity" from="0" to="1" begin="5s" dur="1s" repeatCount="Indefinite" fill="freeze" />
</path>
</svg>