<svg width="109px" height="109px" viewBox="0 0 px 109px" xmlns="http://www.w3.org/2000/svg" xmlns:xlink="http://www.w3.org/1999/xlink" xml:space="preserve" version="1.1"  baseProfile="full">
<path d="M13.94,19.79c2.23,1.06,5.87,0.85,8.22,0.58c7.16-0.82,16.35-2,26.09-3.49c2.61-0.4,5.25-0.63,7.75-0.17" style="fill:none;stroke:black;stroke-width:3;opacity:0">
  <animate attributeType="CSS" attributeName="opacity" from="0" to="1" begin="0s" dur="1s" repeatCount="Indefinite" fill="freeze" />
</path>
<path d="M24.68,23.32c0.88,0.88,1.03,2.08,1.03,3.47c0,1.39-0.08,40.1-0.08,45.09" style="fill:none;stroke:black;stroke-width:3;opacity:0">
  <animate attributeType="CSS" attributeName="opacity" from="0" to="1" begin="1s" dur="1s" repeatCount="Indefinite" fill="freeze" />
</path>
<path d="M26.55,37.48c9.2-1.73,11.45-2.23,19.58-3.08" style="fill:none;stroke:black;stroke-width:3;opacity:0">
  <animate attributeType="CSS" attributeName="opacity" from="0" to="1" begin="2s" dur="1s" repeatCount="Indefinite" fill="freeze" />
</path>
<path d="M26.74,51.7c7.51-1.2,10.26-1.95,19.42-2.8" style="fill:none;stroke:black;stroke-width:3;opacity:0">
  <animate attributeType="CSS" attributeName="opacity" from="0" to="1" begin="3s" dur="1s" repeatCount="Indefinite" fill="freeze" />
</path>
<path d="M13.5,76.24c1.5,0.88,2.75,1.13,4.17,0.52c3.39-1.46,21.02-9.81,26.21-12.17" style="fill:none;stroke:black;stroke-width:3;opacity:0">
  <animate attributeType="CSS" attributeName="opacity" from="0" to="1" begin="4s" dur="1s" repeatCount="Indefinite" fill="freeze" />
</path>
<path d="M46,20.25c1.09,1.09,1.1,2.43,1.1,3.88c-0.01,5.94-0.07,43.46-0.09,62.37c0,3.98-0.01,7.14-0.01,9" style="fill:none;stroke:black;stroke-width:3;opacity:0">
  <animate attributeType="CSS" attributeName="opacity" from="0" to="1" begin="5s" dur="1s" repeatCount="Indefinite" fill="freeze" />
</path>
<path d="M63.92,17.42c2.33,0.58,3.92,0.6,6.08,0.21c5.62-1.02,14-3,17.42-4.21c2.98-1.05,5.22,1.48,3.92,3.83c-2.08,3.75-8.21,14-11.83,19" style="fill:none;stroke:black;stroke-width:3;opacity:0">
  <animate attributeType="CSS" attributeName="opacity" from="0" to="1" begin="6s" dur="1s" repeatCount="Indefinite" fill="freeze" />
</path>
<path d="M79.5,36.25c21.62,13.25,16,42.25,2.48,33.66" style="fill:none;stroke:black;stroke-width:3;opacity:0">
  <animate attributeType="CSS" attributeName="opacity" from="0" to="1" begin="7s" dur="1s" repeatCount="Indefinite" fill="freeze" />
</path>
<path d="M66.33,18.5c0.83,0.84,1,2.08,1,3.87c0,11.95,0.02,48.06,0.03,65.5c0,4.04,0,7.1,0,8.63" style="fill:none;stroke:black;stroke-width:3;opacity:0">
  <animate attributeType="CSS" attributeName="opacity" from="0" to="1" begin="8s" dur="1s" repeatCount="Indefinite" fill="freeze" />
</path>
</svg>