<svg width="109px" height="109px" viewBox="0 0 px 109px" xmlns="http://www.w3.org/2000/svg" xmlns:xlink="http://www.w3.org/1999/xlink" xml:space="preserve" version="1.1"  baseProfile="full">
<path d="M11.19,18.41c0.8,0.37,2.25,0.43,3.05,0.37c6.17-0.45,17.45-2.97,28.23-3.4c1.33-0.05,2.12,0.18,2.79,0.36" style="fill:none;stroke:black;stroke-width:3;opacity:0">
  <animate attributeType="CSS" attributeName="opacity" from="0" to="1" begin="0s" dur="1s" repeatCount="0" fill="freeze" />
</path>
<path d="M20,20.5c0.5,0.75,0.88,2.4,0.88,3.83c0,1.43-0.11,44.11-0.11,49.25" style="fill:none;stroke:black;stroke-width:3;opacity:0">
  <animate attributeType="CSS" attributeName="opacity" from="0" to="1" begin="1s" dur="1s" repeatCount="0" fill="freeze" />
</path>
<path d="M21.55,37.15c7.46-1.33,9.48-1.52,16.08-2.16" style="fill:none;stroke:black;stroke-width:3;opacity:0">
  <animate attributeType="CSS" attributeName="opacity" from="0" to="1" begin="2s" dur="1s" repeatCount="0" fill="freeze" />
</path>
<path d="M21.24,53.45c6.27-1.2,8.77-1.7,16.42-2.55" style="fill:none;stroke:black;stroke-width:3;opacity:0">
  <animate attributeType="CSS" attributeName="opacity" from="0" to="1" begin="3s" dur="1s" repeatCount="0" fill="freeze" />
</path>
<path d="M11.5,77.55c0.75,0.45,2.5,0.57,3.14,0.21c2.54-1.43,17.71-8.48,21.61-10.76" style="fill:none;stroke:black;stroke-width:3;opacity:0">
  <animate attributeType="CSS" attributeName="opacity" from="0" to="1" begin="4s" dur="1s" repeatCount="0" fill="freeze" />
</path>
<path d="M36.02,18.75c0.98,1,1.72,2.03,1.72,3.48c0,1.45,0.24,64.38,0.24,76.27" style="fill:none;stroke:black;stroke-width:3;opacity:0">
  <animate attributeType="CSS" attributeName="opacity" from="0" to="1" begin="5s" dur="1s" repeatCount="0" fill="freeze" />
</path>
<path d="M70.4,13.75c0.99,0.57,1.58,2.58,1.78,3.72c0.2,1.15,0,63.87-0.2,71.03" style="fill:none;stroke:black;stroke-width:3;opacity:0">
  <animate attributeType="CSS" attributeName="opacity" from="0" to="1" begin="6s" dur="1s" repeatCount="0" fill="freeze" />
</path>
<path d="M72.5,47.7c6.08-0.8,13.75-1.7,19.47-2.24c1.94-0.18,2.43-0.28,3.65,0" style="fill:none;stroke:black;stroke-width:3;opacity:0">
  <animate attributeType="CSS" attributeName="opacity" from="0" to="1" begin="7s" dur="1s" repeatCount="0" fill="freeze" />
</path>
<path d="M53.17,42.14c1.2,0.69,1.91,3.11,2.15,4.49c0.24,1.38,0.5,35.28,0.26,43.92" style="fill:none;stroke:black;stroke-width:3;opacity:0">
  <animate attributeType="CSS" attributeName="opacity" from="0" to="1" begin="8s" dur="1s" repeatCount="0" fill="freeze" />
</path>
<path d="M43.3,91.56c1.45,0.19,3.13,0.58,4.66,0.45c10.13-0.86,33.59-3.35,44.15-3.35c1.54,0,3.85,0.22,5.35,0.86" style="fill:none;stroke:black;stroke-width:3;opacity:0">
  <animate attributeType="CSS" attributeName="opacity" from="0" to="1" begin="9s" dur="1s" repeatCount="0" fill="freeze" />
</path>
</svg>