<svg width="109px" height="109px" viewBox="0 0 px 109px" xmlns="http://www.w3.org/2000/svg" xmlns:xlink="http://www.w3.org/1999/xlink" xml:space="preserve" version="1.1"  baseProfile="full">
<path d="M12.05,19.3c0.75,0.35,2.13,0.4,2.88,0.35c5.97-0.33,17.83-2.62,26.68-3.23c1.25-0.09,2.01,0.17,2.63,0.35" style="fill:none;stroke:black;stroke-width:3;opacity:0">
  <animate attributeType="CSS" attributeName="opacity" from="0" to="1" begin="0s" dur="1s" repeatCount="0" fill="freeze" />
</path>
<path d="M19.37,21.57c0.63,0.68,0.99,2.33,0.99,3.72c0,1.39-0.12,41.3-0.12,46.29" style="fill:none;stroke:black;stroke-width:3;opacity:0">
  <animate attributeType="CSS" attributeName="opacity" from="0" to="1" begin="1s" dur="1s" repeatCount="0" fill="freeze" />
</path>
<path d="M21.21,36.91c5.29-0.91,9.02-1.38,15.3-2.18" style="fill:none;stroke:black;stroke-width:3;opacity:0">
  <animate attributeType="CSS" attributeName="opacity" from="0" to="1" begin="2s" dur="1s" repeatCount="0" fill="freeze" />
</path>
<path d="M20.96,52.1c5.6-0.73,7.84-1.34,14.68-1.85" style="fill:none;stroke:black;stroke-width:3;opacity:0">
  <animate attributeType="CSS" attributeName="opacity" from="0" to="1" begin="3s" dur="1s" repeatCount="0" fill="freeze" />
</path>
<path d="M12.25,74.93c0.75,0.82,2.38,0.9,2.94,0.67c2.24-0.92,16.62-7.87,20.06-9.35" style="fill:none;stroke:black;stroke-width:3;opacity:0">
  <animate attributeType="CSS" attributeName="opacity" from="0" to="1" begin="4s" dur="1s" repeatCount="0" fill="freeze" />
</path>
<path d="M36.01,20.5c0.77,1.25,0.85,1.46,0.85,2.85s0.12,61.03,0.12,72.4" style="fill:none;stroke:black;stroke-width:3;opacity:0">
  <animate attributeType="CSS" attributeName="opacity" from="0" to="1" begin="5s" dur="1s" repeatCount="0" fill="freeze" />
</path>
<path d="M64.89,11.75c0.07,0.97,0.32,2.56-0.14,3.92c-2.92,8.59-11,26.58-23,36.58" style="fill:none;stroke:black;stroke-width:3;opacity:0">
  <animate attributeType="CSS" attributeName="opacity" from="0" to="1" begin="6s" dur="1s" repeatCount="0" fill="freeze" />
</path>
<path d="M65.67,14.54c4.76,5.28,22.08,26.65,26.1,31.03c1.37,1.49,3.12,2.13,4.48,2.55" style="fill:none;stroke:black;stroke-width:3;opacity:0">
  <animate attributeType="CSS" attributeName="opacity" from="0" to="1" begin="7s" dur="1s" repeatCount="0" fill="freeze" />
</path>
<path d="M 54.533333,45.645833 c 1.76,0.72 3.84,0.36 5.65,0.14 5.4,-0.66 13.08,-1.76 18.48,-2.24 1.88,-0.17 3.54,-0.23 5.37,0.21" style="fill:none;stroke:black;stroke-width:3;opacity:0">
  <animate attributeType="CSS" attributeName="opacity" from="0" to="1" begin="8s" dur="1s" repeatCount="0" fill="freeze" />
</path>
<path d="M 49.129166,57.325 c 0.650143,0.471144 1.410417,0.772917 3.301667,0.415833 5.106666,-0.824166 31.842083,-2.316875 33.362083,-2.466875 1.52,-0.15 4.28,-0.29 3.95,2.89 -0.43,4.17 -4.383125,16.352291 -7.703125,23.385833 -1.89,3.94 -3.18,3.45 -6.23,0.46" style="fill:none;stroke:black;stroke-width:3;opacity:0">
  <animate attributeType="CSS" attributeName="opacity" from="0" to="1" begin="9s" dur="1s" repeatCount="0" fill="freeze" />
</path>
<path d="M  63.804166,57.952084 c 0.87,0.87 1.8,2 1.8,3.5 -0.219826,13.545146 0.202719,25.73739 -0.18,39.277496" style="fill:none;stroke:black;stroke-width:3;opacity:0">
  <animate attributeType="CSS" attributeName="opacity" from="0" to="1" begin="10s" dur="1s" repeatCount="0" fill="freeze" />
</path>
</svg>