<svg width="109px" height="109px" viewBox="0 0 px 109px" xmlns="http://www.w3.org/2000/svg" xmlns:xlink="http://www.w3.org/1999/xlink" xml:space="preserve" version="1.1"  baseProfile="full">
<path d="M19.33,20.98c0.64,0.93,1.28,1.83,1.28,2.79c0,10.23-0.7,29.35-0.79,31.44c-0.43,9.99-3.83,29.43-9.57,36.17" style="fill:none;stroke:black;stroke-width:3;opacity:0">
  <animate attributeType="CSS" attributeName="opacity" from="0" to="1" begin="0s" dur="1s" repeatCount="Indefinite" fill="freeze" />
</path>
<path d="M21.39,21.91c2.55-0.23,11.47-1.65,13.37-1.91c3.4-0.46,4.68,3.02,4.25,4.41c-0.41,1.34-0.64,40.27-0.64,59.09c0,12.08-5.11,4.18-7.23,2.09" style="fill:none;stroke:black;stroke-width:3;opacity:0">
  <animate attributeType="CSS" attributeName="opacity" from="0" to="1" begin="1s" dur="1s" repeatCount="Indefinite" fill="freeze" />
</path>
<path d="M20.89,40.3c4.36-0.3,9.48-1.48,17.14-2.18" style="fill:none;stroke:black;stroke-width:3;opacity:0">
  <animate attributeType="CSS" attributeName="opacity" from="0" to="1" begin="2s" dur="1s" repeatCount="Indefinite" fill="freeze" />
</path>
<path d="M20.03,57.15c6.22-0.65,12.47-1.4,18.07-1.75" style="fill:none;stroke:black;stroke-width:3;opacity:0">
  <animate attributeType="CSS" attributeName="opacity" from="0" to="1" begin="3s" dur="1s" repeatCount="Indefinite" fill="freeze" />
</path>
<path d="M51.41,40.47c1.07,0.68,2.4,0.51,3.36,0.36c8.98-1.33,30.43-4.84,34.71-5.09c4.27-0.24,4.52,2.03,4.37,5.19c-0.4,8.34-7,40.72-12.05,46.59c-4.88,5.67-6.23,0.31-7.34-0.68" style="fill:none;stroke:black;stroke-width:3;opacity:0">
  <animate attributeType="CSS" attributeName="opacity" from="0" to="1" begin="4s" dur="1s" repeatCount="Indefinite" fill="freeze" />
</path>
<path d="M69.93,15.68c0.07,1.79,0.18,4.63-0.14,7.19c-2.38,18.97-8.04,54.39-25.4,68.79" style="fill:none;stroke:black;stroke-width:3;opacity:0">
  <animate attributeType="CSS" attributeName="opacity" from="0" to="1" begin="5s" dur="1s" repeatCount="Indefinite" fill="freeze" />
</path>
</svg>