<svg width="109px" height="109px" viewBox="0 0 px 109px" xmlns="http://www.w3.org/2000/svg" xmlns:xlink="http://www.w3.org/1999/xlink" xml:space="preserve" version="1.1"  baseProfile="full">
<path d="M13.78,42.67c2.35,0.58,4.46,0.42,6.39,0.08c7.84-1.38,20.46-3.65,28.09-4.34c1.64-0.15,4.35-0.15,5.97,0.31" style="fill:none;stroke:black;stroke-width:3;opacity:0">
  <animate attributeType="CSS" attributeName="opacity" from="0" to="1" begin="0s" dur="1s" repeatCount="Indefinite" fill="freeze" />
</path>
<path d="M33.36,16.25c1.07,1.07,1.13,2.38,1.13,4.15c0,15.64-0.12,33.52-0.12,40.72" style="fill:none;stroke:black;stroke-width:3;opacity:0">
  <animate attributeType="CSS" attributeName="opacity" from="0" to="1" begin="1s" dur="1s" repeatCount="Indefinite" fill="freeze" />
</path>
<path d="M19.12,63.12C20,64,20.18,65.2,20.39,66.48c0.67,4.03,1.75,11.03,2.67,17.66c0.26,1.84,0.5,3.66,0.72,5.37" style="fill:none;stroke:black;stroke-width:3;opacity:0">
  <animate attributeType="CSS" attributeName="opacity" from="0" to="1" begin="2s" dur="1s" repeatCount="Indefinite" fill="freeze" />
</path>
<path d="M21.24,64.44c5.52-0.79,16.89-3.25,22.75-3.91c3.44-0.39,5.16,0.54,4.61,4.24c-0.78,5.19-2.63,12.87-3.51,19.11" style="fill:none;stroke:black;stroke-width:3;opacity:0">
  <animate attributeType="CSS" attributeName="opacity" from="0" to="1" begin="3s" dur="1s" repeatCount="Indefinite" fill="freeze" />
</path>
<path d="M23.87,87.2c3.94-0.28,12.21-1.36,18.76-2.08c2.19-0.24,4.18-0.45,5.76-0.57" style="fill:none;stroke:black;stroke-width:3;opacity:0">
  <animate attributeType="CSS" attributeName="opacity" from="0" to="1" begin="4s" dur="1s" repeatCount="Indefinite" fill="freeze" />
</path>
<path d="M61,16.81c0.85,0.85,0.96,2.02,0.99,3.05c1.39,51.89-1.36,61.02-12.23,73.39" style="fill:none;stroke:black;stroke-width:3;opacity:0">
  <animate attributeType="CSS" attributeName="opacity" from="0" to="1" begin="5s" dur="1s" repeatCount="Indefinite" fill="freeze" />
</path>
<path d="M62.97,19.08C66.23,18.28,77.3,16,81.75,15.1c3.64-0.74,5.54-0.3,5.54,3.77c0,8.21,0.01,52.15,0.01,71.04c0,9.83-5.54,2.33-7.59,0.29" style="fill:none;stroke:black;stroke-width:3;opacity:0">
  <animate attributeType="CSS" attributeName="opacity" from="0" to="1" begin="6s" dur="1s" repeatCount="Indefinite" fill="freeze" />
</path>
<path d="M63.55,40.85c6.43-1.2,16.68-2.93,22.32-3.35" style="fill:none;stroke:black;stroke-width:3;opacity:0">
  <animate attributeType="CSS" attributeName="opacity" from="0" to="1" begin="7s" dur="1s" repeatCount="Indefinite" fill="freeze" />
</path>
<path d="M62.46,61.7c6.04-0.7,16.29-1.7,23.5-2.15" style="fill:none;stroke:black;stroke-width:3;opacity:0">
  <animate attributeType="CSS" attributeName="opacity" from="0" to="1" begin="8s" dur="1s" repeatCount="Indefinite" fill="freeze" />
</path>
</svg>