<svg width="109px" height="109px" viewBox="0 0 px 109px" xmlns="http://www.w3.org/2000/svg" xmlns:xlink="http://www.w3.org/1999/xlink" xml:space="preserve" version="1.1"  baseProfile="full">
<path d="M20.47,22.24c0.83,0.83,1.05,1.89,1.05,3.05c-0.02,48.84-3.81,57.62-11.02,67.6" style="fill:none;stroke:black;stroke-width:3;opacity:0">
  <animate attributeType="CSS" attributeName="opacity" from="0" to="1" begin="0s" dur="1s" repeatCount="0" fill="freeze" />
</path>
<path d="M22.07,23.06c2.4-0.44,7.72-1.48,10.69-1.97c3.65-0.59,4.79,0.52,4.76,4.15c-0.08,8.82-0.01,45.6-0.01,62.31c0,12.61-6.16,3.55-7.95,2.04" style="fill:none;stroke:black;stroke-width:3;opacity:0">
  <animate attributeType="CSS" attributeName="opacity" from="0" to="1" begin="1s" dur="1s" repeatCount="0" fill="freeze" />
</path>
<path d="M22.07,41.2c5.43-0.58,9.93-0.95,14.58-1.32" style="fill:none;stroke:black;stroke-width:3;opacity:0">
  <animate attributeType="CSS" attributeName="opacity" from="0" to="1" begin="2s" dur="1s" repeatCount="0" fill="freeze" />
</path>
<path d="M21.5,59.5c4.24-0.27,9.73-0.71,14.88-1.12" style="fill:none;stroke:black;stroke-width:3;opacity:0">
  <animate attributeType="CSS" attributeName="opacity" from="0" to="1" begin="3s" dur="1s" repeatCount="0" fill="freeze" />
</path>
<path d="M63.1,14.25c-0.04,1.04-0.33,1.98-0.88,2.81C57.71,24.76,52,33.38,45.02,39.25" style="fill:none;stroke:black;stroke-width:3;opacity:0">
  <animate attributeType="CSS" attributeName="opacity" from="0" to="1" begin="4s" dur="1s" repeatCount="0" fill="freeze" />
</path>
<path d="M60.92,22.63c0.95,0.24,2.16,0.34,4.2,0.12c4.39-0.49,11.58-1.5,14.12-1.89c2.53-0.38,3.79,1.31,2.34,3.32c-3.58,4.94-5.92,8.44-10.33,14.69" style="fill:none;stroke:black;stroke-width:3;opacity:0">
  <animate attributeType="CSS" attributeName="opacity" from="0" to="1" begin="5s" dur="1s" repeatCount="0" fill="freeze" />
</path>
<path d="M50.58,42.07c3.67,0.43,6.68,0.25,10.32-0.21c9.73-1.24,16.54-1.88,25.1-2.63c2.93-0.4,5.84-0.33,8.72,0.21" style="fill:none;stroke:black;stroke-width:3;opacity:0">
  <animate attributeType="CSS" attributeName="opacity" from="0" to="1" begin="6s" dur="1s" repeatCount="0" fill="freeze" />
</path>
<path d="M52.8,42.92c0.89,0.89,0.96,1.96,0.94,3.25C53.38,65.25,51,81.5,43.06,92.99" style="fill:none;stroke:black;stroke-width:3;opacity:0">
  <animate attributeType="CSS" attributeName="opacity" from="0" to="1" begin="7s" dur="1s" repeatCount="0" fill="freeze" />
</path>
<path d="M62.48,56c2.01,0.41,4.01,0.44,6.02,0.07c5.68-0.96,9.62-1.95,14.58-2.91c2.57-0.5,4.19,1.31,4.09,3.73c-0.16,3.73-1.34,11.51-4.1,17.44c-2.46,5.29-3.58,4.92-5.95,2.11" style="fill:none;stroke:black;stroke-width:3;opacity:0">
  <animate attributeType="CSS" attributeName="opacity" from="0" to="1" begin="8s" dur="1s" repeatCount="0" fill="freeze" />
</path>
<path d="M64.2,57.3c0.94,0.94,0.89,1.95,0.89,3.57c0,9.38,0.18,14.5,0.18,20.88c0,10.82,1.28,12.21,14.68,12.21c13.67,0,15.69-1.21,15.69-10.46" style="fill:none;stroke:black;stroke-width:3;opacity:0">
  <animate attributeType="CSS" attributeName="opacity" from="0" to="1" begin="9s" dur="1s" repeatCount="0" fill="freeze" />
</path>
</svg>