<svg width="109px" height="109px" viewBox="0 0 px 109px" xmlns="http://www.w3.org/2000/svg" xmlns:xlink="http://www.w3.org/1999/xlink" xml:space="preserve" version="1.1"  baseProfile="full">
<path d="M20.57,22.42c0.76,0.76,1,2.03,1.03,2.92c0.98,32.04-1.61,56.32-9.6,65.08" style="fill:none;stroke:black;stroke-width:3;opacity:0">
  <animate attributeType="CSS" attributeName="opacity" from="0" to="1" begin="0s" dur="1s" repeatCount="0" fill="freeze" />
</path>
<path d="M22.38,23.94c2.99-0.57,12.94-2.65,14.47-2.85c1.78-0.22,2.94,1.24,2.94,2.54c0,3.07-0.02,44.25-0.02,61.71c0,10.68-5.8,3.38-7.56,1.94" style="fill:none;stroke:black;stroke-width:3;opacity:0">
  <animate attributeType="CSS" attributeName="opacity" from="0" to="1" begin="1s" dur="1s" repeatCount="0" fill="freeze" />
</path>
<path d="M22.88,40.25c4.53-0.34,11.8-1.73,15.77-1.75" style="fill:none;stroke:black;stroke-width:3;opacity:0">
  <animate attributeType="CSS" attributeName="opacity" from="0" to="1" begin="2s" dur="1s" repeatCount="0" fill="freeze" />
</path>
<path d="M22.33,57.12c3.72-0.08,11.43-0.97,16.48-1.37" style="fill:none;stroke:black;stroke-width:3;opacity:0">
  <animate attributeType="CSS" attributeName="opacity" from="0" to="1" begin="3s" dur="1s" repeatCount="0" fill="freeze" />
</path>
<path d="M47,27.36c3.76,4.43,6.88,10.27,8.08,13.89" style="fill:none;stroke:black;stroke-width:3;opacity:0">
  <animate attributeType="CSS" attributeName="opacity" from="0" to="1" begin="4s" dur="1s" repeatCount="0" fill="freeze" />
</path>
<path d="M63.82,20.25c2.68,3.38,6.43,10.5,7.65,16.25" style="fill:none;stroke:black;stroke-width:3;opacity:0">
  <animate attributeType="CSS" attributeName="opacity" from="0" to="1" begin="5s" dur="1s" repeatCount="0" fill="freeze" />
</path>
<path d="M92.86,17.5c0.51,1.25,0.26,2.75-0.65,4.14c-2.81,4.3-4.84,7.24-10.05,14.33" style="fill:none;stroke:black;stroke-width:3;opacity:0">
  <animate attributeType="CSS" attributeName="opacity" from="0" to="1" begin="6s" dur="1s" repeatCount="0" fill="freeze" />
</path>
<path d="M80.72,46.18c0.37,0.75,0.49,1.85-0.06,3.17c-4.99,11.89-12.41,21.6-23.15,27.82" style="fill:none;stroke:black;stroke-width:3;opacity:0">
  <animate attributeType="CSS" attributeName="opacity" from="0" to="1" begin="7s" dur="1s" repeatCount="0" fill="freeze" />
</path>
<path d="M60.26,54.97c7.18,3.02,17.76,13.08,21.51,20.26" style="fill:none;stroke:black;stroke-width:3;opacity:0">
  <animate attributeType="CSS" attributeName="opacity" from="0" to="1" begin="8s" dur="1s" repeatCount="0" fill="freeze" />
</path>
<path d="M49.56,59.31c0.69,0.69,1.06,1.94,1.04,3.12c-0.08,3.44,0.14,17.3-0.06,22.56c-0.06,1.74-0.36,3.18,1.86,3.04c8.43-0.5,33.96-2.72,38.78-3" style="fill:none;stroke:black;stroke-width:3;opacity:0">
  <animate attributeType="CSS" attributeName="opacity" from="0" to="1" begin="9s" dur="1s" repeatCount="0" fill="freeze" />
</path>
<path d="M93.05,54.56c0.76,0.76,0.95,2.06,0.79,3.87c-0.34,3.67-1.5,16.3-2.25,25.06c-0.21,2.45-0.39,4.52-0.51,5.89" style="fill:none;stroke:black;stroke-width:3;opacity:0">
  <animate attributeType="CSS" attributeName="opacity" from="0" to="1" begin="10s" dur="1s" repeatCount="0" fill="freeze" />
</path>
</svg>