<svg width="109px" height="109px" viewBox="0 0 px 109px" xmlns="http://www.w3.org/2000/svg" xmlns:xlink="http://www.w3.org/1999/xlink" xml:space="preserve" version="1.1"  baseProfile="full">
<path d="M17.92,18.25c0.49,0.97,1.5,1.75,1.5,3.33c0,0.95,0,25.21-0.52,33.1c-0.74,11.23-1.5,22.55-8.48,35.45" style="fill:none;stroke:black;stroke-width:3;opacity:0">
  <animate attributeType="CSS" attributeName="opacity" from="0" to="1" begin="0s" dur="1s" repeatCount="0" fill="freeze" />
</path>
<path d="M20.32,20.83c1.9-0.06,10.97-2.28,12.39-2.4c2.53-0.22,3.16,1.27,3.16,2.6c0,3.15-0.29,44.18-0.29,62.05c0,12.29-4.55,6.14-6.17,4.67" style="fill:none;stroke:black;stroke-width:3;opacity:0">
  <animate attributeType="CSS" attributeName="opacity" from="0" to="1" begin="1s" dur="1s" repeatCount="0" fill="freeze" />
</path>
<path d="M19.82,40.1c3.8-0.32,12.24-1.83,15.58-1.85" style="fill:none;stroke:black;stroke-width:3;opacity:0">
  <animate attributeType="CSS" attributeName="opacity" from="0" to="1" begin="2s" dur="1s" repeatCount="0" fill="freeze" />
</path>
<path d="M19.25,57.58c3.34-0.08,11.46-0.92,16-1.33" style="fill:none;stroke:black;stroke-width:3;opacity:0">
  <animate attributeType="CSS" attributeName="opacity" from="0" to="1" begin="3s" dur="1s" repeatCount="0" fill="freeze" />
</path>
<path d="M66.53,11.23c0.03,0.26,0.05,0.68-0.04,1.06c-0.57,2.23-3.81,7.11-8.26,10.1" style="fill:none;stroke:black;stroke-width:3;opacity:0">
  <animate attributeType="CSS" attributeName="opacity" from="0" to="1" begin="4s" dur="1s" repeatCount="0" fill="freeze" />
</path>
<path d="M46.92,24.08c0.4,0.42,1.84,1.94,1.95,2.5c1.13,5.91,2.94,14.83,4.05,23" style="fill:none;stroke:black;stroke-width:3;opacity:0">
  <animate attributeType="CSS" attributeName="opacity" from="0" to="1" begin="5s" dur="1s" repeatCount="0" fill="freeze" />
</path>
<path d="M49.08,25.75c9.99-1.12,28.38-3.39,35.83-4.33c2.74-0.35,5.24,0.92,4.84,3.25C88.75,30.5,88,39.75,85.75,47.58" style="fill:none;stroke:black;stroke-width:3;opacity:0">
  <animate attributeType="CSS" attributeName="opacity" from="0" to="1" begin="6s" dur="1s" repeatCount="0" fill="freeze" />
</path>
<path d="M51.04,36.65c4.96-0.4,34.37-2.86,37.07-3" style="fill:none;stroke:black;stroke-width:3;opacity:0">
  <animate attributeType="CSS" attributeName="opacity" from="0" to="1" begin="7s" dur="1s" repeatCount="0" fill="freeze" />
</path>
<path d="M53.8,48.05c7.22-0.48,22.28-2,32.25-2.79" style="fill:none;stroke:black;stroke-width:3;opacity:0">
  <animate attributeType="CSS" attributeName="opacity" from="0" to="1" begin="8s" dur="1s" repeatCount="0" fill="freeze" />
</path>
<path d="M67.69,25.68c0.56,0.93,0.52,2.31,0.37,3.56c-1.47,12.46-7.81,28.02-17.3,34.52" style="fill:none;stroke:black;stroke-width:3;opacity:0">
  <animate attributeType="CSS" attributeName="opacity" from="0" to="1" begin="9s" dur="1s" repeatCount="0" fill="freeze" />
</path>
<path d="M44.42,68.08c0.66,0.25,3.92,0.4,5.67,0.17c13.17-1.75,29.43-3.26,40.67-3.5c1.76-0.04,4.57,0.08,5.67,0.33" style="fill:none;stroke:black;stroke-width:3;opacity:0">
  <animate attributeType="CSS" attributeName="opacity" from="0" to="1" begin="10s" dur="1s" repeatCount="0" fill="freeze" />
</path>
<path d="M72.58,49.75c0.95,0.47,1.71,2,1.71,3.81c0,0.96,0.31,36.31,0.12,42.19" style="fill:none;stroke:black;stroke-width:3;opacity:0">
  <animate attributeType="CSS" attributeName="opacity" from="0" to="1" begin="11s" dur="1s" repeatCount="0" fill="freeze" />
</path>
</svg>