<svg width="109px" height="109px" viewBox="0 0 px 109px" xmlns="http://www.w3.org/2000/svg" xmlns:xlink="http://www.w3.org/1999/xlink" xml:space="preserve" version="1.1"  baseProfile="full">
<path d="M16.42,19.58c1.33,0.92,1.34,2.92,1.5,3.83c0.15,0.91,0,24.51-0.49,32.16c-0.7,10.89-1.42,21.87-8.01,34.4" style="fill:none;stroke:black;stroke-width:3;opacity:0">
  <animate attributeType="CSS" attributeName="opacity" from="0" to="1" begin="0s" dur="1s" repeatCount="Indefinite" fill="freeze" />
</path>
<path d="M18.58,20.42c2.02-0.06,11.58-2.53,13.09-2.65c2.69-0.23,3.37,1.3,3.37,2.66c0,3.22-0.51,46.11-0.51,64.4c0,12.58-4.4,5.1-6.12,3.59" style="fill:none;stroke:black;stroke-width:3;opacity:0">
  <animate attributeType="CSS" attributeName="opacity" from="0" to="1" begin="1s" dur="1s" repeatCount="Indefinite" fill="freeze" />
</path>
<path d="M18.32,39.54c4.38-0.24,12.4-1.4,16.25-1.41" style="fill:none;stroke:black;stroke-width:3;opacity:0">
  <animate attributeType="CSS" attributeName="opacity" from="0" to="1" begin="2s" dur="1s" repeatCount="Indefinite" fill="freeze" />
</path>
<path d="M18.43,57.12c3.57-0.06,10.94-0.98,15.79-1.31" style="fill:none;stroke:black;stroke-width:3;opacity:0">
  <animate attributeType="CSS" attributeName="opacity" from="0" to="1" begin="3s" dur="1s" repeatCount="Indefinite" fill="freeze" />
</path>
<path d="M44.42,23.92c0.9,0.46,4.6,0.76,5.5,0.67c8.22-0.84,30.53-3.16,40-3.5c2.23-0.08,4.18,0.32,5.83,0.83" style="fill:none;stroke:black;stroke-width:3;opacity:0">
  <animate attributeType="CSS" attributeName="opacity" from="0" to="1" begin="4s" dur="1s" repeatCount="Indefinite" fill="freeze" />
</path>
<path d="M53.53,14.05c1.72,1.55,2.58,2.07,2.72,3.04c0.98,6.48,0.95,13.2,1.44,16.44" style="fill:none;stroke:black;stroke-width:3;opacity:0">
  <animate attributeType="CSS" attributeName="opacity" from="0" to="1" begin="5s" dur="1s" repeatCount="Indefinite" fill="freeze" />
</path>
<path d="M80.92,12.92c1.27,1.07,1.25,3.09,0.83,4.67c-1.27,4.81-1.48,5.71-3.46,14.8" style="fill:none;stroke:black;stroke-width:3;opacity:0">
  <animate attributeType="CSS" attributeName="opacity" from="0" to="1" begin="6s" dur="1s" repeatCount="Indefinite" fill="freeze" />
</path>
<path d="M66.75,29.42c0.35,0.41,1.83,1.85,1.83,2.67c0,3.02-0.04,6.01,0.03,8.57" style="fill:none;stroke:black;stroke-width:3;opacity:0">
  <animate attributeType="CSS" attributeName="opacity" from="0" to="1" begin="7s" dur="1s" repeatCount="Indefinite" fill="freeze" />
</path>
<path d="M46.92,42.58c1.83,0.42,3.34,0.46,5.5,0.33c7.33-0.42,26.41-2.82,34.33-3c1.31-0.03,3.69-0.07,4.67,0.33" style="fill:none;stroke:black;stroke-width:3;opacity:0">
  <animate attributeType="CSS" attributeName="opacity" from="0" to="1" begin="8s" dur="1s" repeatCount="Indefinite" fill="freeze" />
</path>
<path d="M56.29,46.01c0,0.5,0.03,0.89-0.1,1.49c-0.68,3.11-7.13,13.47-12.65,18.07" style="fill:none;stroke:black;stroke-width:3;opacity:0">
  <animate attributeType="CSS" attributeName="opacity" from="0" to="1" begin="9s" dur="1s" repeatCount="Indefinite" fill="freeze" />
</path>
<path d="M57.74,51.77c3.13,1.13,7.14,4.14,8.66,7" style="fill:none;stroke:black;stroke-width:3;opacity:0">
  <animate attributeType="CSS" attributeName="opacity" from="0" to="1" begin="10s" dur="1s" repeatCount="Indefinite" fill="freeze" />
</path>
<path d="M81.91,43.96c0,0.4,0.03,0.71-0.08,1.19c-0.53,2.48-5.63,10.76-9.99,14.43" style="fill:none;stroke:black;stroke-width:3;opacity:0">
  <animate attributeType="CSS" attributeName="opacity" from="0" to="1" begin="11s" dur="1s" repeatCount="Indefinite" fill="freeze" />
</path>
<path d="M81.67,52.07c3.8,1.48,8.66,5.4,10.5,9.12" style="fill:none;stroke:black;stroke-width:3;opacity:0">
  <animate attributeType="CSS" attributeName="opacity" from="0" to="1" begin="12s" dur="1s" repeatCount="Indefinite" fill="freeze" />
</path>
<path d="M43.75,73.25c0.98,0.64,3.52,1.47,6.67,1c10.08-1.5,33.76-3.25,42.33-3.5c1.63-0.05,4.85,0.51,5.67,0.83" style="fill:none;stroke:black;stroke-width:3;opacity:0">
  <animate attributeType="CSS" attributeName="opacity" from="0" to="1" begin="13s" dur="1s" repeatCount="Indefinite" fill="freeze" />
</path>
<path d="M67.58,63.58c0.92,0.92,1.3,2.21,1.33,3.17c0.04,0.96-0.05,26.66-0.09,32.67" style="fill:none;stroke:black;stroke-width:3;opacity:0">
  <animate attributeType="CSS" attributeName="opacity" from="0" to="1" begin="14s" dur="1s" repeatCount="Indefinite" fill="freeze" />
</path>
</svg>