<svg width="109px" height="109px" viewBox="0 0 px 109px" xmlns="http://www.w3.org/2000/svg" xmlns:xlink="http://www.w3.org/1999/xlink" xml:space="preserve" version="1.1"  baseProfile="full">
<path d="M17.58,19.92c0.51,0.96,1.19,6.58,1.19,3.42c0-0.57,0.25,23.35-0.39,32.68c-0.73,10.68-3.05,25.08-8.8,35.29" style="fill:none;stroke:black;stroke-width:3;opacity:0">
  <animate attributeType="CSS" attributeName="opacity" from="0" to="1" begin="0s" dur="1s" repeatCount="0" fill="freeze" />
</path>
<path d="M19.32,20.82c1.76-0.06,10.15-1.77,11.46-1.89c2.34-0.22,2.93,1.27,2.93,2.59c0,3.13-0.44,45.36-0.44,63.15c0,12.24-4.85,5.88-6.35,4.41" style="fill:none;stroke:black;stroke-width:3;opacity:0">
  <animate attributeType="CSS" attributeName="opacity" from="0" to="1" begin="1s" dur="1s" repeatCount="0" fill="freeze" />
</path>
<path d="M19.65,41.63c3.48-0.19,10.04-1.2,13.1-1.21" style="fill:none;stroke:black;stroke-width:3;opacity:0">
  <animate attributeType="CSS" attributeName="opacity" from="0" to="1" begin="2s" dur="1s" repeatCount="0" fill="freeze" />
</path>
<path d="M18.25,61.42c3.15-0.07,9.55-0.81,13.83-1.17" style="fill:none;stroke:black;stroke-width:3;opacity:0">
  <animate attributeType="CSS" attributeName="opacity" from="0" to="1" begin="3s" dur="1s" repeatCount="0" fill="freeze" />
</path>
<path d="M65.23,13.67c0.07,0.73,0.3,1.97-0.13,2.95c-2.73,6.26-10.44,19.42-23.35,28.26" style="fill:none;stroke:black;stroke-width:3;opacity:0">
  <animate attributeType="CSS" attributeName="opacity" from="0" to="1" begin="4s" dur="1s" repeatCount="0" fill="freeze" />
</path>
<path d="M66.4,15.97c3.9,4.68,20.68,19.96,24.98,23.38c1.46,1.16,3.33,1.66,4.79,1.99" style="fill:none;stroke:black;stroke-width:3;opacity:0">
  <animate attributeType="CSS" attributeName="opacity" from="0" to="1" begin="5s" dur="1s" repeatCount="0" fill="freeze" />
</path>
<path d="M54.25,41.25c0.46,0.17,3.2,0.51,3.67,0.5c3.53-0.05,16.49-2.53,19.33-2.33c0.76,0.05,3.12,0.25,3.5,0.33" style="fill:none;stroke:black;stroke-width:3;opacity:0">
  <animate attributeType="CSS" attributeName="opacity" from="0" to="1" begin="6s" dur="1s" repeatCount="0" fill="freeze" />
</path>
<path d="M45.25,51.25c0.2,0.26,1.1,0.85,1.19,1.17c0.71,2.54,1.5,9.77,1.98,14.33" style="fill:none;stroke:black;stroke-width:3;opacity:0">
  <animate attributeType="CSS" attributeName="opacity" from="0" to="1" begin="7s" dur="1s" repeatCount="0" fill="freeze" />
</path>
<path d="M47.75,52.53c6.75-1.19,11.87-1.42,14.99-1.77c1.14-0.13,1.82,0.75,1.66,1.48c-0.68,3.06-1.47,7.53-2.47,11.76" style="fill:none;stroke:black;stroke-width:3;opacity:0">
  <animate attributeType="CSS" attributeName="opacity" from="0" to="1" begin="8s" dur="1s" repeatCount="0" fill="freeze" />
</path>
<path d="M48.58,66c3.92-0.46,9.77-1.26,15.16-1.98" style="fill:none;stroke:black;stroke-width:3;opacity:0">
  <animate attributeType="CSS" attributeName="opacity" from="0" to="1" begin="9s" dur="1s" repeatCount="0" fill="freeze" />
</path>
<path d="M70.08,49.58c0.2,0.26,1.24,0.67,1.33,1c0.7,2.58,1.54,9.69,2.02,14.32" style="fill:none;stroke:black;stroke-width:3;opacity:0">
  <animate attributeType="CSS" attributeName="opacity" from="0" to="1" begin="10s" dur="1s" repeatCount="0" fill="freeze" />
</path>
<path d="M72.43,51.44c5.78-0.93,12.56-1.48,15.8-1.8c1.18-0.12,1.9,0.69,1.73,1.38c-0.7,2.84-0.83,6.13-1.87,10.06" style="fill:none;stroke:black;stroke-width:3;opacity:0">
  <animate attributeType="CSS" attributeName="opacity" from="0" to="1" begin="11s" dur="1s" repeatCount="0" fill="freeze" />
</path>
<path d="M74.39,63.4c4.14-0.3,9.86-0.82,15.55-1.28" style="fill:none;stroke:black;stroke-width:3;opacity:0">
  <animate attributeType="CSS" attributeName="opacity" from="0" to="1" begin="12s" dur="1s" repeatCount="0" fill="freeze" />
</path>
<path d="M57.07,69.55c0.17,1.09,0.11,2.13-0.12,2.84c-2.01,6.17-6.62,14.34-14.88,21.78" style="fill:none;stroke:black;stroke-width:3;opacity:0">
  <animate attributeType="CSS" attributeName="opacity" from="0" to="1" begin="13s" dur="1s" repeatCount="0" fill="freeze" />
</path>
<path d="M56.71,78.93c2.97,1.6,6.76,5.87,8.21,9.9" style="fill:none;stroke:black;stroke-width:3;opacity:0">
  <animate attributeType="CSS" attributeName="opacity" from="0" to="1" begin="14s" dur="1s" repeatCount="0" fill="freeze" />
</path>
<path d="M80.29,67.91c0.16,1.13,0.1,2.21-0.12,2.94c-1.93,6.4-6.36,14.86-14.28,22.57" style="fill:none;stroke:black;stroke-width:3;opacity:0">
  <animate attributeType="CSS" attributeName="opacity" from="0" to="1" begin="15s" dur="1s" repeatCount="0" fill="freeze" />
</path>
<path d="M81.03,77.86c4.56,2.51,10.39,9.19,12.61,15.51" style="fill:none;stroke:black;stroke-width:3;opacity:0">
  <animate attributeType="CSS" attributeName="opacity" from="0" to="1" begin="16s" dur="1s" repeatCount="0" fill="freeze" />
</path>
</svg>