<svg width="109px" height="109px" viewBox="0 0 px 109px" xmlns="http://www.w3.org/2000/svg" xmlns:xlink="http://www.w3.org/1999/xlink" xml:space="preserve" version="1.1"  baseProfile="full">
<path d="M13,26.69C13.6,27,14.72,27.06,15.32,27c8.34-0.83,21.15-3.33,31.31-3.71c1.01-0.04,1.62,0.15,2.12,0.3" style="fill:none;stroke:black;stroke-width:3;opacity:0">
  <animate attributeType="CSS" attributeName="opacity" from="0" to="1" begin="0s" dur="1s" repeatCount="Indefinite" fill="freeze" />
</path>
<path d="M31.17,27.75c0.36,0.43,0.48,1.78,0.21,2.29c-3.13,5.83-8.16,11.07-12.48,16.69c-1.39,1.81-1.49,3.03,0.74,2.5c5.21-1.25,17.42-4.58,25.64-6.64" style="fill:none;stroke:black;stroke-width:3;opacity:0">
  <animate attributeType="CSS" attributeName="opacity" from="0" to="1" begin="1s" dur="1s" repeatCount="Indefinite" fill="freeze" />
</path>
<path d="M40.4,35.24c3.08,2.17,7.97,8.91,8.74,12.28" style="fill:none;stroke:black;stroke-width:3;opacity:0">
  <animate attributeType="CSS" attributeName="opacity" from="0" to="1" begin="2s" dur="1s" repeatCount="Indefinite" fill="freeze" />
</path>
<path d="M30.69,53.28c0.12,0.33,1.78,1.7,1.78,3.78c0,10.44,0.06,21.44,0.06,24.83" style="fill:none;stroke:black;stroke-width:3;opacity:0">
  <animate attributeType="CSS" attributeName="opacity" from="0" to="1" begin="3s" dur="1s" repeatCount="Indefinite" fill="freeze" />
</path>
<path d="M14.69,66.37c1.06,0.13,3.15,0.29,3.74,0.25c6.82-0.38,17.32-3.13,23.6-3.98c0.97-0.13,3.06,0.12,3.55,0.25" style="fill:none;stroke:black;stroke-width:3;opacity:0">
  <animate attributeType="CSS" attributeName="opacity" from="0" to="1" begin="4s" dur="1s" repeatCount="Indefinite" fill="freeze" />
</path>
<path d="M13.85,89.17C15,90,17,89.77,17.91,89.29C27,84.5,34.75,81.25,47.24,74.62" style="fill:none;stroke:black;stroke-width:3;opacity:0">
  <animate attributeType="CSS" attributeName="opacity" from="0" to="1" begin="5s" dur="1s" repeatCount="Indefinite" fill="freeze" />
</path>
<path d="M64,19.39c0.04,0.82,0.21,2.16-0.08,3.31c-2.13,8.33-6.93,22.45-14.3,32.5" style="fill:none;stroke:black;stroke-width:3;opacity:0">
  <animate attributeType="CSS" attributeName="opacity" from="0" to="1" begin="6s" dur="1s" repeatCount="Indefinite" fill="freeze" />
</path>
<path d="M59.12,41.53c1.35,0.29,3.87,0,4.6-0.04c7.57-0.47,13.53-2.49,21.4-3.76c1.29-0.21,2.1-0.02,2.43,0.08" style="fill:none;stroke:black;stroke-width:3;opacity:0">
  <animate attributeType="CSS" attributeName="opacity" from="0" to="1" begin="7s" dur="1s" repeatCount="Indefinite" fill="freeze" />
</path>
<path d="M74.02,44.71c0.57,1.17,0.88,2,0.28,4.13C68.89,68.21,58,84.75,38.72,92.5" style="fill:none;stroke:black;stroke-width:3;opacity:0">
  <animate attributeType="CSS" attributeName="opacity" from="0" to="1" begin="8s" dur="1s" repeatCount="Indefinite" fill="freeze" />
</path>
<path d="M54.18,54.67c1.47,0,2.34,0.92,3.51,2.18c7.92,8.54,22.48,25.06,33.05,33.15c1.95,1.49,4.01,2.48,5.65,2.63" style="fill:none;stroke:black;stroke-width:3;opacity:0">
  <animate attributeType="CSS" attributeName="opacity" from="0" to="1" begin="9s" dur="1s" repeatCount="Indefinite" fill="freeze" />
</path>
</svg>