<svg width="109px" height="109px" viewBox="0 0 px 109px" xmlns="http://www.w3.org/2000/svg" xmlns:xlink="http://www.w3.org/1999/xlink" xml:space="preserve" version="1.1"  baseProfile="full">
<path d="M40.69,15.83c0.08,0.46-0.62,2.2-1.07,2.69C36.19,22.3,27.5,29.22,12.31,34.46" style="fill:none;stroke:black;stroke-width:3;opacity:0">
  <animate attributeType="CSS" attributeName="opacity" from="0" to="1" begin="0s" dur="1s" repeatCount="Indefinite" fill="freeze" />
</path>
<path d="M9.08,46.42c0.75,0.21,3.67,0.58,5.67,0.5c6.64-0.28,23.52-2.23,28.5-2.5c1.24-0.07,3.25-0.17,4.67,0.33" style="fill:none;stroke:black;stroke-width:3;opacity:0">
  <animate attributeType="CSS" attributeName="opacity" from="0" to="1" begin="1s" dur="1s" repeatCount="Indefinite" fill="freeze" />
</path>
<path d="M27.08,30.08c0.53,0.35,1.9,1.46,2,2.17c0.2,1.31,0.11,28.48,0,33" style="fill:none;stroke:black;stroke-width:3;opacity:0">
  <animate attributeType="CSS" attributeName="opacity" from="0" to="1" begin="2s" dur="1s" repeatCount="Indefinite" fill="freeze" />
</path>
<path d="M13.08,66.25c0.47,0.48,1.72,2.37,1.83,3c1.33,7.25,2.89,16.25,4,24.83" style="fill:none;stroke:black;stroke-width:3;opacity:0">
  <animate attributeType="CSS" attributeName="opacity" from="0" to="1" begin="3s" dur="1s" repeatCount="Indefinite" fill="freeze" />
</path>
<path d="M15.08,68.23c9.1-1.34,20.59-2.37,25.71-2.92c1.87-0.21,2.28,2.03,2.14,3.24c-0.68,5.97-1.68,12.43-3.01,19.37" style="fill:none;stroke:black;stroke-width:3;opacity:0">
  <animate attributeType="CSS" attributeName="opacity" from="0" to="1" begin="4s" dur="1s" repeatCount="Indefinite" fill="freeze" />
</path>
<path d="M18.92,90.58c6.11-0.6,14.28-1.41,22.67-2.33" style="fill:none;stroke:black;stroke-width:3;opacity:0">
  <animate attributeType="CSS" attributeName="opacity" from="0" to="1" begin="5s" dur="1s" repeatCount="Indefinite" fill="freeze" />
</path>
<path d="M83.74,11.5c0.11,0.45,0.23,1.15-0.22,1.8c-2.7,3.79-15.64,10.95-28.86,15.04" style="fill:none;stroke:black;stroke-width:3;opacity:0">
  <animate attributeType="CSS" attributeName="opacity" from="0" to="1" begin="6s" dur="1s" repeatCount="Indefinite" fill="freeze" />
</path>
<path d="M52.08,27.08c2.02,0.84,2.17,3.14,2.17,5.67s-0.39,53.56-0.39,57.5s-0.25,5.06,3.02,2.25c3.28-2.81,11.68-9.56,13.7-11.25" style="fill:none;stroke:black;stroke-width:3;opacity:0">
  <animate attributeType="CSS" attributeName="opacity" from="0" to="1" begin="7s" dur="1s" repeatCount="Indefinite" fill="freeze" />
</path>
<path d="M54.42,49.42c0.96,0.36,5.71-0.3,6.67-0.33c5.47-0.21,22.17-3,29.5-3.5c1.59-0.11,4.54-0.02,5.33,0.17" style="fill:none;stroke:black;stroke-width:3;opacity:0">
  <animate attributeType="CSS" attributeName="opacity" from="0" to="1" begin="8s" dur="1s" repeatCount="Indefinite" fill="freeze" />
</path>
<path d="M71.92,24.58c1.3,19.43,6.69,51.91,18.5,65.33c7.33,8.33,6.83,0.33,6.33-5.67" style="fill:none;stroke:black;stroke-width:3;opacity:0">
  <animate attributeType="CSS" attributeName="opacity" from="0" to="1" begin="9s" dur="1s" repeatCount="Indefinite" fill="freeze" />
</path>
</svg>