<svg width="109px" height="109px" viewBox="0 0 px 109px" xmlns="http://www.w3.org/2000/svg" xmlns:xlink="http://www.w3.org/1999/xlink" xml:space="preserve" version="1.1"  baseProfile="full">
<path d="M67.12,11.5c-0.25,1.12-1,2.25-2.27,3.11c-5.1,3.46-18.98,9.89-37.47,15.41" style="fill:none;stroke:black;stroke-width:3;opacity:0">
  <animate attributeType="CSS" attributeName="opacity" from="0" to="1" begin="0s" dur="1s" repeatCount="0" fill="freeze" />
</path>
<path d="M14.63,48.81c1.8,0.41,6.32,0.64,8.09,0.41c17.66-2.34,47.03-6.22,66.36-6.71c3-0.08,4.8,0.19,6.3,0.4" style="fill:none;stroke:black;stroke-width:3;opacity:0">
  <animate attributeType="CSS" attributeName="opacity" from="0" to="1" begin="1s" dur="1s" repeatCount="0" fill="freeze" />
</path>
<path d="M52.56,25.26c1.21,1.21,1.76,2.99,1.76,4.58c0,4.28,0,29.41,0,38.91" style="fill:none;stroke:black;stroke-width:3;opacity:0">
  <animate attributeType="CSS" attributeName="opacity" from="0" to="1" begin="2s" dur="1s" repeatCount="0" fill="freeze" />
</path>
<path d="M30,70.75c1.5,0.88,2.12,2.25,2.52,3.74c1.31,4.92,3.49,13.03,4.85,20.03c0.32,1.67,0.62,3.26,0.88,4.73" style="fill:none;stroke:black;stroke-width:3;opacity:0">
  <animate attributeType="CSS" attributeName="opacity" from="0" to="1" begin="3s" dur="1s" repeatCount="0" fill="freeze" />
</path>
<path d="M32.66,71.83c13.59-1.45,36.19-3.69,44.96-4.34c3.2-0.24,4.13,2.41,3.67,3.81c-1.9,5.78-5.62,13.76-8.44,21.75" style="fill:none;stroke:black;stroke-width:3;opacity:0">
  <animate attributeType="CSS" attributeName="opacity" from="0" to="1" begin="4s" dur="1s" repeatCount="0" fill="freeze" />
</path>
<path d="M38.42,96.91c9.19-0.66,22.7-1.91,32.12-2.51c1.48-0.1,2.98-0.25,4.51-0.37" style="fill:none;stroke:black;stroke-width:3;opacity:0">
  <animate attributeType="CSS" attributeName="opacity" from="0" to="1" begin="5s" dur="1s" repeatCount="0" fill="freeze" />
</path>
</svg>