<svg width="109px" height="109px" viewBox="0 0 px 109px" xmlns="http://www.w3.org/2000/svg" xmlns:xlink="http://www.w3.org/1999/xlink" xml:space="preserve" version="1.1"  baseProfile="full">
<path d="M34.95,13.75c0.17,1.12-0.09,2.03-0.75,3.47C33,19.88,32.25,21.75,28.5,27.5" style="fill:none;stroke:black;stroke-width:3;opacity:0">
  <animate attributeType="CSS" attributeName="opacity" from="0" to="1" begin="0s" dur="1s" repeatCount="0" fill="freeze" />
</path>
<path d="M20.65,29.22c1.19,1.19,1.2,2.75,1.25,4.34C23,66,21,85.75,14.5,95.5" style="fill:none;stroke:black;stroke-width:3;opacity:0">
  <animate attributeType="CSS" attributeName="opacity" from="0" to="1" begin="1s" dur="1s" repeatCount="0" fill="freeze" />
</path>
<path d="M22.75,31.31c5.75-1.31,15.33-3.23,19.1-4c2.15-0.44,3.6,0.69,3.6,3.75c0,2.22,0.05,55.64,0.05,58.82c0,9.3-5.4,1.94-6.15,1.34" style="fill:none;stroke:black;stroke-width:3;opacity:0">
  <animate attributeType="CSS" attributeName="opacity" from="0" to="1" begin="2s" dur="1s" repeatCount="0" fill="freeze" />
</path>
<path d="M30.5,36.62c1.54,1.78,4.66,5.74,5.75,8.62" style="fill:none;stroke:black;stroke-width:3;opacity:0">
  <animate attributeType="CSS" attributeName="opacity" from="0" to="1" begin="3s" dur="1s" repeatCount="0" fill="freeze" />
</path>
<path d="M33.05,54.64c0.97,0.97,1.2,2.29,1.2,3.56c0,3.3,0.1,9.46,0.1,15.3c0,2.13,0,3.25,0,4.91" style="fill:none;stroke:black;stroke-width:3;opacity:0">
  <animate attributeType="CSS" attributeName="opacity" from="0" to="1" begin="4s" dur="1s" repeatCount="0" fill="freeze" />
</path>
<path d="M11.5,58.5c0.88,1.5,2.15,1.47,3.5,1c5.75-2,28.25-9.38,35.25-11.5" style="fill:none;stroke:black;stroke-width:3;opacity:0">
  <animate attributeType="CSS" attributeName="opacity" from="0" to="1" begin="5s" dur="1s" repeatCount="0" fill="freeze" />
</path>
<path d="M73.75,15c0.13,1.12-0.11,1.92-0.37,2.59c-2.13,5.41-4.5,11.79-9.19,19.12" style="fill:none;stroke:black;stroke-width:3;opacity:0">
  <animate attributeType="CSS" attributeName="opacity" from="0" to="1" begin="6s" dur="1s" repeatCount="0" fill="freeze" />
</path>
<path d="M57.44,38.43c1.12,1.12,1.35,2.47,1.35,4.2c0,1.99,0.47,27.85,0.83,41.62c0.06,2.4,0.1,4.46,0.1,6" style="fill:none;stroke:black;stroke-width:3;opacity:0">
  <animate attributeType="CSS" attributeName="opacity" from="0" to="1" begin="7s" dur="1s" repeatCount="0" fill="freeze" />
</path>
<path d="M59.62,39.99c4.02-0.64,20.64-3.2,26.9-4.1c3.05-0.44,5.28,0.19,5.28,3.87c0,4.09-0.13,27.5-0.61,42.74c-0.07,2.16-0.14,4.17-0.21,5.94" style="fill:none;stroke:black;stroke-width:3;opacity:0">
  <animate attributeType="CSS" attributeName="opacity" from="0" to="1" begin="8s" dur="1s" repeatCount="0" fill="freeze" />
</path>
<path d="M59.84,61.51c7.91-1.01,25.91-3.06,30.66-3.06" style="fill:none;stroke:black;stroke-width:3;opacity:0">
  <animate attributeType="CSS" attributeName="opacity" from="0" to="1" begin="9s" dur="1s" repeatCount="0" fill="freeze" />
</path>
<path d="M60.71,86.68c7.78-0.7,21.04-1.86,29.33-2.18" style="fill:none;stroke:black;stroke-width:3;opacity:0">
  <animate attributeType="CSS" attributeName="opacity" from="0" to="1" begin="10s" dur="1s" repeatCount="0" fill="freeze" />
</path>
</svg>