<svg width="109px" height="109px" viewBox="0 0 px 109px" xmlns="http://www.w3.org/2000/svg" xmlns:xlink="http://www.w3.org/1999/xlink" xml:space="preserve" version="1.1"  baseProfile="full">
<path d="M29.08,11.75c0.42,1.75,0.16,3.01-0.5,4.5c-1.33,3-3.58,6.25-6.92,11" style="fill:none;stroke:black;stroke-width:3;opacity:0">
  <animate attributeType="CSS" attributeName="opacity" from="0" to="1" begin="0s" dur="1s" repeatCount="Indefinite" fill="freeze" />
</path>
<path d="M18.08,28.08c0.9,1.38,1.17,2.94,1.17,4.67c0,1.72,0.08,25.29,0.18,28.39c0.45,13.58-6.54,30.55-11.02,37.44" style="fill:none;stroke:black;stroke-width:3;opacity:0">
  <animate attributeType="CSS" attributeName="opacity" from="0" to="1" begin="1s" dur="1s" repeatCount="Indefinite" fill="freeze" />
</path>
<path d="M19.75,30.58c3.29-0.61,13.27-2.75,16.3-2.94c2.2-0.14,2.82,2.23,2.82,4.38c0,2.15-0.31,53.27-0.31,56.34c0,9.64-4.8,3.14-5.8,1.39" style="fill:none;stroke:black;stroke-width:3;opacity:0">
  <animate attributeType="CSS" attributeName="opacity" from="0" to="1" begin="2s" dur="1s" repeatCount="Indefinite" fill="freeze" />
</path>
<path d="M26.2,38.27c1.43,1.77,4.99,6.49,5.34,8.55" style="fill:none;stroke:black;stroke-width:3;opacity:0">
  <animate attributeType="CSS" attributeName="opacity" from="0" to="1" begin="3s" dur="1s" repeatCount="Indefinite" fill="freeze" />
</path>
<path d="M27.27,58.14c1.06,1.62,1.28,2.6,1.28,3.89c0,1.3,0.28,16.82-0.15,20.05" style="fill:none;stroke:black;stroke-width:3;opacity:0">
  <animate attributeType="CSS" attributeName="opacity" from="0" to="1" begin="4s" dur="1s" repeatCount="Indefinite" fill="freeze" />
</path>
<path d="M10.42,58.92c0.4,1.29,3.16,1.67,4.44,1.32C16.14,59.89,42.5,50.75,46,49.67" style="fill:none;stroke:black;stroke-width:3;opacity:0">
  <animate attributeType="CSS" attributeName="opacity" from="0" to="1" begin="5s" dur="1s" repeatCount="Indefinite" fill="freeze" />
</path>
<path d="M52.58,19.25c0.99,0.15,2.2,0.43,5,0c4.92-0.75,17.13-1.88,25.33-2.5c1.25-0.09,3.85,0.46,5,0.67" style="fill:none;stroke:black;stroke-width:3;opacity:0">
  <animate attributeType="CSS" attributeName="opacity" from="0" to="1" begin="6s" dur="1s" repeatCount="Indefinite" fill="freeze" />
</path>
<path d="M49.24,27.18c-0.19,4.94-1.85,10.36-3.08,15.34" style="fill:none;stroke:black;stroke-width:3;opacity:0">
  <animate attributeType="CSS" attributeName="opacity" from="0" to="1" begin="7s" dur="1s" repeatCount="Indefinite" fill="freeze" />
</path>
<path d="M49.25,31.08C56,30,81.2,25.53,90.86,25.25c8.64-0.25,0.51,6.17-1.37,7.67" style="fill:none;stroke:black;stroke-width:3;opacity:0">
  <animate attributeType="CSS" attributeName="opacity" from="0" to="1" begin="8s" dur="1s" repeatCount="Indefinite" fill="freeze" />
</path>
<path d="M68.08,21.25c0.89,0.63,1.33,1.5,1.33,3.17c0,0.51-0.17,28.94-0.17,30.33" style="fill:none;stroke:black;stroke-width:3;opacity:0">
  <animate attributeType="CSS" attributeName="opacity" from="0" to="1" begin="9s" dur="1s" repeatCount="Indefinite" fill="freeze" />
</path>
<path d="M56.09,36.48c2.13,1.02,5.03,4.07,6.19,5.75" style="fill:none;stroke:black;stroke-width:3;opacity:0">
  <animate attributeType="CSS" attributeName="opacity" from="0" to="1" begin="10s" dur="1s" repeatCount="Indefinite" fill="freeze" />
</path>
<path d="M55.02,47.81c2.31,0.86,5.87,4.02,7.13,5.46" style="fill:none;stroke:black;stroke-width:3;opacity:0">
  <animate attributeType="CSS" attributeName="opacity" from="0" to="1" begin="11s" dur="1s" repeatCount="Indefinite" fill="freeze" />
</path>
<path d="M76.69,34.89c2.66,1.32,5.67,3.95,6.74,5.05" style="fill:none;stroke:black;stroke-width:3;opacity:0">
  <animate attributeType="CSS" attributeName="opacity" from="0" to="1" begin="12s" dur="1s" repeatCount="Indefinite" fill="freeze" />
</path>
<path d="M75.71,46.04c3.27,1.22,7.74,4.89,9.52,6.94" style="fill:none;stroke:black;stroke-width:3;opacity:0">
  <animate attributeType="CSS" attributeName="opacity" from="0" to="1" begin="13s" dur="1s" repeatCount="Indefinite" fill="freeze" />
</path>
<path d="M52.75,63.25c2,0.75,4.27,0.85,5.83,0.67c9.92-1.17,18.54-2.17,26-2.17c2.2,0,3.5,1.5,3.5,3.67c0,12.02-0.67,22.58-0.67,29.17" style="fill:none;stroke:black;stroke-width:3;opacity:0">
  <animate attributeType="CSS" attributeName="opacity" from="0" to="1" begin="14s" dur="1s" repeatCount="Indefinite" fill="freeze" />
</path>
<path d="M46.42,76.08c2.08,0.92,3.82,0.9,5.33,0.83c15-0.67,27.05-1.47,39.67-2c2.02-0.08,6.32-0.1,7.83,0.17" style="fill:none;stroke:black;stroke-width:3;opacity:0">
  <animate attributeType="CSS" attributeName="opacity" from="0" to="1" begin="15s" dur="1s" repeatCount="Indefinite" fill="freeze" />
</path>
<path d="M52.08,91.92c1.17,0.33,2.67,1.33,5,1.17c9.09-0.65,19.19-1.49,27.47-1.68c1.32-0.03,1.54-0.08,2.53,0.01" style="fill:none;stroke:black;stroke-width:3;opacity:0">
  <animate attributeType="CSS" attributeName="opacity" from="0" to="1" begin="16s" dur="1s" repeatCount="Indefinite" fill="freeze" />
</path>
</svg>