<svg width="109px" height="109px" viewBox="0 0 px 109px" xmlns="http://www.w3.org/2000/svg" xmlns:xlink="http://www.w3.org/1999/xlink" xml:space="preserve" version="1.1"  baseProfile="full">
<path d="M27.25,12.92c0.5,1.08,1.28,2.67,0.67,4c-1.42,3.08-2.16,4.72-4.08,9.33" style="fill:none;stroke:black;stroke-width:3;opacity:0">
  <animate attributeType="CSS" attributeName="opacity" from="0" to="1" begin="0s" dur="1s" repeatCount="0" fill="freeze" />
</path>
<path d="M18.42,28.75c0.8,1.27,0.98,3.12,0.98,4.71s0.11,22.01,0.2,24.86C20,70.81,15.5,86.5,9.75,92.75" style="fill:none;stroke:black;stroke-width:3;opacity:0">
  <animate attributeType="CSS" attributeName="opacity" from="0" to="1" begin="1s" dur="1s" repeatCount="0" fill="freeze" />
</path>
<path d="M19.75,29.92c3.51-0.61,11.83-2.39,15-3c3.17-0.61,3,1.38,3,3.5c0,2.12-0.38,52.8-0.38,55.83c0,14.25-5.28,4.11-5.95,3.5" style="fill:none;stroke:black;stroke-width:3;opacity:0">
  <animate attributeType="CSS" attributeName="opacity" from="0" to="1" begin="2s" dur="1s" repeatCount="0" fill="freeze" />
</path>
<path d="M24.36,36.44c1.47,1.74,5.14,6.36,5.51,8.38" style="fill:none;stroke:black;stroke-width:3;opacity:0">
  <animate attributeType="CSS" attributeName="opacity" from="0" to="1" begin="3s" dur="1s" repeatCount="0" fill="freeze" />
</path>
<path d="M26.25,56.47c1.78,1.5,1.83,2.41,1.83,3.61c0,1.2,0.17,15.67,0,18.67" style="fill:none;stroke:black;stroke-width:3;opacity:0">
  <animate attributeType="CSS" attributeName="opacity" from="0" to="1" begin="4s" dur="1s" repeatCount="0" fill="freeze" />
</path>
<path d="M10.75,56.08c1.25,1.17,2.86,1.28,4,1c1.14-0.28,27.33-8.92,28.75-8.92" style="fill:none;stroke:black;stroke-width:3;opacity:0">
  <animate attributeType="CSS" attributeName="opacity" from="0" to="1" begin="5s" dur="1s" repeatCount="0" fill="freeze" />
</path>
<path d="M51.47,13.32c3.07,1.66,7.92,6.81,8.69,9.38" style="fill:none;stroke:black;stroke-width:3;opacity:0">
  <animate attributeType="CSS" attributeName="opacity" from="0" to="1" begin="6s" dur="1s" repeatCount="0" fill="freeze" />
</path>
<path d="M77.92,10.08c0.33,0.92,0.51,1.22,0,2.5c-1.17,2.92-2.5,6.2-5.57,9.46" style="fill:none;stroke:black;stroke-width:3;opacity:0">
  <animate attributeType="CSS" attributeName="opacity" from="0" to="1" begin="7s" dur="1s" repeatCount="0" fill="freeze" />
</path>
<path d="M50.08,26.42c0.51,0.11,3.33,0.72,3.83,0.67c2.07-0.22,21.56-2.37,26.17-2.33c0.85,0.01,5.07-0.06,5.5,0" style="fill:none;stroke:black;stroke-width:3;opacity:0">
  <animate attributeType="CSS" attributeName="opacity" from="0" to="1" begin="8s" dur="1s" repeatCount="0" fill="freeze" />
</path>
<path d="M66.28,28.21c0.68,0.3,1.08,1.36,1.22,1.97c0.14,0.61,0,9.71-0.14,13.5" style="fill:none;stroke:black;stroke-width:3;opacity:0">
  <animate attributeType="CSS" attributeName="opacity" from="0" to="1" begin="9s" dur="1s" repeatCount="0" fill="freeze" />
</path>
<path d="M53.08,35.75c0.48,0.28,3.01,0.03,3.5,0c4.67-0.25,17.04-1.76,21.17-1.67c0.8,0.02,4.43-0.64,4.83-0.5" style="fill:none;stroke:black;stroke-width:3;opacity:0">
  <animate attributeType="CSS" attributeName="opacity" from="0" to="1" begin="10s" dur="1s" repeatCount="0" fill="freeze" />
</path>
<path d="M46.75,44.75c0.82,0.33,4.19,0.82,5,0.67c3.33-0.64,26.8-2.83,35.83-3.5c1.37-0.1,4.48,0.5,5.17,0.67" style="fill:none;stroke:black;stroke-width:3;opacity:0">
  <animate attributeType="CSS" attributeName="opacity" from="0" to="1" begin="11s" dur="1s" repeatCount="0" fill="freeze" />
</path>
<path d="M60.1,49.79c0.04,0.24,0.16,0.66-0.08,0.97c-1.99,2.44-6.66,6.1-15.1,9.26" style="fill:none;stroke:black;stroke-width:3;opacity:0">
  <animate attributeType="CSS" attributeName="opacity" from="0" to="1" begin="12s" dur="1s" repeatCount="0" fill="freeze" />
</path>
<path d="M43.25,64.42c1.15,0.44,3.5,1.08,6.5,0.83c4.71-0.39,26.57-4.02,39.33-5c1.91-0.15,5.21,0.45,6.17,0.67" style="fill:none;stroke:black;stroke-width:3;opacity:0">
  <animate attributeType="CSS" attributeName="opacity" from="0" to="1" begin="13s" dur="1s" repeatCount="0" fill="freeze" />
</path>
<path d="M56.42,57.42c0.08,0.28,1.7,1.42,1.78,3.16c0.35,8.36-0.22,28.32-0.22,31.17c0,8.76-5.55,1.01-7.05-0.49" style="fill:none;stroke:black;stroke-width:3;opacity:0">
  <animate attributeType="CSS" attributeName="opacity" from="0" to="1" begin="14s" dur="1s" repeatCount="0" fill="freeze" />
</path>
<path d="M43.42,82.08c1.83,1.17,2.97,0.96,4.67-0.17c1-0.66,14.74-10.73,18.98-13.92" style="fill:none;stroke:black;stroke-width:3;opacity:0">
  <animate attributeType="CSS" attributeName="opacity" from="0" to="1" begin="15s" dur="1s" repeatCount="0" fill="freeze" />
</path>
<path d="M67.42,47.58c2.33,1.42,3.61,3.1,3.83,5.17c1.88,17.33,8,31.75,19,40.33c9.44,7.36,7-0.58,6.33-7.83" style="fill:none;stroke:black;stroke-width:3;opacity:0">
  <animate attributeType="CSS" attributeName="opacity" from="0" to="1" begin="16s" dur="1s" repeatCount="0" fill="freeze" />
</path>
<path d="M86.11,66.37c0.06,0.54,0.13,1.39-0.12,2.16c-1.48,4.56-8.12,15.06-19.73,21.18" style="fill:none;stroke:black;stroke-width:3;opacity:0">
  <animate attributeType="CSS" attributeName="opacity" from="0" to="1" begin="17s" dur="1s" repeatCount="0" fill="freeze" />
</path>
<path d="M79.19,47.59c2.61,1.41,6.78,4.62,8,7.03" style="fill:none;stroke:black;stroke-width:3;opacity:0">
  <animate attributeType="CSS" attributeName="opacity" from="0" to="1" begin="18s" dur="1s" repeatCount="0" fill="freeze" />
</path>
</svg>