<svg width="109px" height="109px" viewBox="0 0 px 109px" xmlns="http://www.w3.org/2000/svg" xmlns:xlink="http://www.w3.org/1999/xlink" xml:space="preserve" version="1.1"  baseProfile="full">
<path d="M15.75,25.92c3.75,1.33,7,0.83,10.67,0.5c11.89-1.08,44.95-4.76,58.67-4.83c2.56-0.01,5.92,0.42,8,1.67" style="fill:none;stroke:black;stroke-width:3;opacity:0">
  <animate attributeType="CSS" attributeName="opacity" from="0" to="1" begin="0s" dur="1s" repeatCount="Indefinite" fill="freeze" />
</path>
<path d="M35.08,11.42c1.67,0.83,2.97,2.29,3.17,3.17c1.81,8.25,2.65,20,3.17,23" style="fill:none;stroke:black;stroke-width:3;opacity:0">
  <animate attributeType="CSS" attributeName="opacity" from="0" to="1" begin="1s" dur="1s" repeatCount="Indefinite" fill="freeze" />
</path>
<path d="M68.25,9.25c1.12,1,1.04,3.19,0.67,4.67c-1.12,4.5-3.54,14.42-5.17,20.17" style="fill:none;stroke:black;stroke-width:3;opacity:0">
  <animate attributeType="CSS" attributeName="opacity" from="0" to="1" begin="2s" dur="1s" repeatCount="Indefinite" fill="freeze" />
</path>
<path d="M69.73,38.38c0.76,1.53,0.53,3.37-0.48,6.09C59.17,71.63,39.48,89.29,14.76,101.3" style="fill:none;stroke:black;stroke-width:3;opacity:0">
  <animate attributeType="CSS" attributeName="opacity" from="0" to="1" begin="3s" dur="1s" repeatCount="Indefinite" fill="freeze" />
</path>
<path d="M30.25,43.42C34.61,43.63,49.5,75,77.91,93.75c3.24,2.14,7.23,4.71,9.41,5.36" style="fill:none;stroke:black;stroke-width:3;opacity:0">
  <animate attributeType="CSS" attributeName="opacity" from="0" to="1" begin="4s" dur="1s" repeatCount="Indefinite" fill="freeze" />
</path>
</svg>