<svg width="109px" height="109px" viewBox="0 0 px 109px" xmlns="http://www.w3.org/2000/svg" xmlns:xlink="http://www.w3.org/1999/xlink" xml:space="preserve" version="1.1"  baseProfile="full">
<path d="M16.58,21.58c1.29,0.53,6.04,0.44,7.33,0.33c11.9-0.96,46.95-2.93,60.67-3c2.16-0.01,6.75,0.4,7.83,0.67" style="fill:none;stroke:black;stroke-width:3;opacity:0">
  <animate attributeType="CSS" attributeName="opacity" from="0" to="1" begin="0s" dur="1s" repeatCount="Indefinite" fill="freeze" />
</path>
<path d="M37.92,10.08c1.08,0.67,2.06,1.94,2.17,2.83c1.17,10,1.33,13.33,1,16.5" style="fill:none;stroke:black;stroke-width:3;opacity:0">
  <animate attributeType="CSS" attributeName="opacity" from="0" to="1" begin="1s" dur="1s" repeatCount="Indefinite" fill="freeze" />
</path>
<path d="M66.25,8.58c1.12,1,1.51,2.92,1.25,4.42c-0.75,4.25-1.5,8.25-2.75,14.42" style="fill:none;stroke:black;stroke-width:3;opacity:0">
  <animate attributeType="CSS" attributeName="opacity" from="0" to="1" begin="2s" dur="1s" repeatCount="Indefinite" fill="freeze" />
</path>
<path d="M37.42,34.75c0.83,0.75,1.07,2.21,1,3c-1.17,13.25-9.67,21-19,24" style="fill:none;stroke:black;stroke-width:3;opacity:0">
  <animate attributeType="CSS" attributeName="opacity" from="0" to="1" begin="3s" dur="1s" repeatCount="Indefinite" fill="freeze" />
</path>
<path d="M38.92,36.42c6.08-0.17,21.37-2.08,23.51-2.54c3.18-0.68,4.31,1.37,3.99,2.87c-0.64,2.95-0.5,8.01-0.5,10.96c0,4.08,1.67,8.21,12.16,8.21c10.18,0,11.83-2.17,11.83-10.83" style="fill:none;stroke:black;stroke-width:3;opacity:0">
  <animate attributeType="CSS" attributeName="opacity" from="0" to="1" begin="4s" dur="1s" repeatCount="Indefinite" fill="freeze" />
</path>
<path d="M31.75,66.08c2.1,0.32,4.12,0.32,8.33-0.17c4.21-0.49,23.6-3.29,26.5-3.78c2.89-0.49,5.24,1.89,3.94,3.58C57.2,83.09,40.01,91.95,14.75,100.03" style="fill:none;stroke:black;stroke-width:3;opacity:0">
  <animate attributeType="CSS" attributeName="opacity" from="0" to="1" begin="5s" dur="1s" repeatCount="Indefinite" fill="freeze" />
</path>
<path d="M34.58,71.25c5.34,0.65,29.4,19.04,48,26.17c2.89,1.11,7.14,0.8,9.83,1.17" style="fill:none;stroke:black;stroke-width:3;opacity:0">
  <animate attributeType="CSS" attributeName="opacity" from="0" to="1" begin="6s" dur="1s" repeatCount="Indefinite" fill="freeze" />
</path>
</svg>