<svg width="109px" height="109px" viewBox="0 0 px 109px" xmlns="http://www.w3.org/2000/svg" xmlns:xlink="http://www.w3.org/1999/xlink" xml:space="preserve" version="1.1"  baseProfile="full">
<path d="M18.5,27.02c2.4,0.97,5.72,0.96,8.24,0.66c13.13-1.56,35.49-4.17,49.64-4.96c3.42-0.19,7.03-0.02,10.37,0.8" style="fill:none;stroke:black;stroke-width:3;opacity:0">
  <animate attributeType="CSS" attributeName="opacity" from="0" to="1" begin="0s" dur="1s" repeatCount="Indefinite" fill="freeze" />
</path>
<path d="M33.75,16c0.94,0.94,1.31,2.12,1.5,3c1.75,8.25,3,15,3.5,18" style="fill:none;stroke:black;stroke-width:3;opacity:0">
  <animate attributeType="CSS" attributeName="opacity" from="0" to="1" begin="1s" dur="1s" repeatCount="Indefinite" fill="freeze" />
</path>
<path d="M70.5,11.5c0.42,1.18,0.35,2.27,0,3.75C69,21.5,68,27.75,66.5,35" style="fill:none;stroke:black;stroke-width:3;opacity:0">
  <animate attributeType="CSS" attributeName="opacity" from="0" to="1" begin="2s" dur="1s" repeatCount="Indefinite" fill="freeze" />
</path>
<path d="M24.98,51.08c0.97,0.97,1.21,2.36,1.18,3.83c-0.32,13.63-2.03,29.22-12.1,40.45" style="fill:none;stroke:black;stroke-width:3;opacity:0">
  <animate attributeType="CSS" attributeName="opacity" from="0" to="1" begin="3s" dur="1s" repeatCount="Indefinite" fill="freeze" />
</path>
<path d="M25.75,51.53c2.33,0.22,4.7-0.13,7-0.45c12.98-1.81,25.13-3.71,39.13-4.91c3.27-0.28,6.03-0.07,9.39,0.51" style="fill:none;stroke:black;stroke-width:3;opacity:0">
  <animate attributeType="CSS" attributeName="opacity" from="0" to="1" begin="4s" dur="1s" repeatCount="Indefinite" fill="freeze" />
</path>
<path d="M52.92,34.75c1.79,1.37,2.36,3.24,2.65,6.19c2.29,23.05,13.19,45.43,34.21,54.55c6.95,3.01,5.68,1.09,4.79-4.97" style="fill:none;stroke:black;stroke-width:3;opacity:0">
  <animate attributeType="CSS" attributeName="opacity" from="0" to="1" begin="5s" dur="1s" repeatCount="Indefinite" fill="freeze" />
</path>
<path d="M76.98,56.3c0.11,0.83-0.15,1.95-0.72,3.09C72.5,67,61.75,82.12,40.39,92.49" style="fill:none;stroke:black;stroke-width:3;opacity:0">
  <animate attributeType="CSS" attributeName="opacity" from="0" to="1" begin="6s" dur="1s" repeatCount="Indefinite" fill="freeze" />
</path>
<path d="M81.61,33.82c3.26,2.11,8.46,6.94,9.98,10.56" style="fill:none;stroke:black;stroke-width:3;opacity:0">
  <animate attributeType="CSS" attributeName="opacity" from="0" to="1" begin="7s" dur="1s" repeatCount="Indefinite" fill="freeze" />
</path>
</svg>