<svg width="109px" height="109px" viewBox="0 0 px 109px" xmlns="http://www.w3.org/2000/svg" xmlns:xlink="http://www.w3.org/1999/xlink" xml:space="preserve" version="1.1"  baseProfile="full">
<path d="M19,27.77c1.29,0.53,2.8,0.63,4.1,0.53c11.9-0.96,47.4-4.46,61.12-4.53c2.16-0.01,3.45,0.25,4.53,0.51" style="fill:none;stroke:black;stroke-width:3;opacity:0">
  <animate attributeType="CSS" attributeName="opacity" from="0" to="1" begin="0s" dur="1s" repeatCount="Indefinite" fill="freeze" />
</path>
<path d="M35.25,15.5c1.75,1.43,2.37,1.86,2.5,2.75C39,27,40,34.5,40.5,37.5" style="fill:none;stroke:black;stroke-width:3;opacity:0">
  <animate attributeType="CSS" attributeName="opacity" from="0" to="1" begin="1s" dur="1s" repeatCount="Indefinite" fill="freeze" />
</path>
<path d="M70.25,12.25c0.42,1.18,0.82,2.01,0.5,3.5c-1.62,7.45-2.75,12-4.5,19.25" style="fill:none;stroke:black;stroke-width:3;opacity:0">
  <animate attributeType="CSS" attributeName="opacity" from="0" to="1" begin="2s" dur="1s" repeatCount="Indefinite" fill="freeze" />
</path>
<path d="M20.27,46.25c0.85,0.3,1.88,0.58,2.98,0.55c2.25-0.05,5.98-0.55,8.02-0.69C33,46,33.25,46,35,46.25" style="fill:none;stroke:black;stroke-width:3;opacity:0">
  <animate attributeType="CSS" attributeName="opacity" from="0" to="1" begin="3s" dur="1s" repeatCount="Indefinite" fill="freeze" />
</path>
<path d="M17.52,84.61c1.53,1.29,3.52,1.08,4.59,0c1.04-1.05,7.34-9.35,11.32-14.7" style="fill:none;stroke:black;stroke-width:3;opacity:0">
  <animate attributeType="CSS" attributeName="opacity" from="0" to="1" begin="4s" dur="1s" repeatCount="Indefinite" fill="freeze" />
</path>
<path d="M54.33,37.75c0.03,0.59,0.07,1.53-0.07,2.38c-0.78,5.03-5.77,15.56-11.92,22.32" style="fill:none;stroke:black;stroke-width:3;opacity:0">
  <animate attributeType="CSS" attributeName="opacity" from="0" to="1" begin="5s" dur="1s" repeatCount="Indefinite" fill="freeze" />
</path>
<path d="M53.17,51.6c0.9,0.34,2.59,0.87,3.94,0.58c1.65-0.37,19.94-4.42,22.67-4.71c4.08-0.43,4.87,2.3-1.76,10.23" style="fill:none;stroke:black;stroke-width:3;opacity:0">
  <animate attributeType="CSS" attributeName="opacity" from="0" to="1" begin="6s" dur="1s" repeatCount="Indefinite" fill="freeze" />
</path>
<path d="M59.31,62.68c0.07,0.84,0.05,2.13-0.15,3.35c-1.19,7.58-7.83,23.21-22.86,30.47" style="fill:none;stroke:black;stroke-width:3;opacity:0">
  <animate attributeType="CSS" attributeName="opacity" from="0" to="1" begin="7s" dur="1s" repeatCount="Indefinite" fill="freeze" />
</path>
<path d="M58.23,71.42c4.65,4.69,19.91,17.75,28.25,22.76c1.76,1.06,3.09,1.68,4.76,2.02" style="fill:none;stroke:black;stroke-width:3;opacity:0">
  <animate attributeType="CSS" attributeName="opacity" from="0" to="1" begin="8s" dur="1s" repeatCount="Indefinite" fill="freeze" />
</path>
</svg>