<svg width="109px" height="109px" viewBox="0 0 px 109px" xmlns="http://www.w3.org/2000/svg" xmlns:xlink="http://www.w3.org/1999/xlink" xml:space="preserve" version="1.1"  baseProfile="full">
<path d="M20,24.27c1.29,0.53,2.8,0.63,4.1,0.53C36,23.83,72,21.33,85.72,21.26c2.16-0.01,3.45,0.25,4.53,0.51" style="fill:none;stroke:black;stroke-width:3;opacity:0">
  <animate attributeType="CSS" attributeName="opacity" from="0" to="1" begin="0s" dur="1s" repeatCount="Indefinite" fill="freeze" />
</path>
<path d="M38.25,13.5c1.75,1.43,2.39,1.85,2.5,2.75c1,8.5,1.25,11.5,1.25,17.75" style="fill:none;stroke:black;stroke-width:3;opacity:0">
  <animate attributeType="CSS" attributeName="opacity" from="0" to="1" begin="1s" dur="1s" repeatCount="Indefinite" fill="freeze" />
</path>
<path d="M67.75,12.25c0.42,1.18,0.78,2.01,0.5,3.5c-1.5,8-2.25,10.75-3.5,16.25" style="fill:none;stroke:black;stroke-width:3;opacity:0">
  <animate attributeType="CSS" attributeName="opacity" from="0" to="1" begin="2s" dur="1s" repeatCount="Indefinite" fill="freeze" />
</path>
<path d="M51.77,28.75c0.1,0.92,0.5,2.47-0.21,3.72C46.69,41.12,35.5,56,15.23,68.02" style="fill:none;stroke:black;stroke-width:3;opacity:0">
  <animate attributeType="CSS" attributeName="opacity" from="0" to="1" begin="3s" dur="1s" repeatCount="Indefinite" fill="freeze" />
</path>
<path d="M52.87,31.39c5.55,5.89,29.46,25.14,35.59,29.45c2.08,1.46,4.74,2.09,6.82,2.51" style="fill:none;stroke:black;stroke-width:3;opacity:0">
  <animate attributeType="CSS" attributeName="opacity" from="0" to="1" begin="4s" dur="1s" repeatCount="Indefinite" fill="freeze" />
</path>
<path d="M36.84,59.52c0.64,0.19,3.61,0.21,4.25,0.19c6.65-0.21,17.48-1.61,26.98-1.65c1.06,0,2.61,0.09,3.14,0.18" style="fill:none;stroke:black;stroke-width:3;opacity:0">
  <animate attributeType="CSS" attributeName="opacity" from="0" to="1" begin="5s" dur="1s" repeatCount="Indefinite" fill="freeze" />
</path>
<path d="M32.57,71.93c0.64,0.56,1.42,1.91,1.58,2.65c2.16,9.63,3.09,14.67,4.55,22.7" style="fill:none;stroke:black;stroke-width:3;opacity:0">
  <animate attributeType="CSS" attributeName="opacity" from="0" to="1" begin="6s" dur="1s" repeatCount="Indefinite" fill="freeze" />
</path>
<path d="M34,73.75c16.5-1.5,30.76-2.25,38.28-2.98c2.75-0.27,4.4,1.59,4.01,3.16c-1.63,6.51-2.79,10.57-4.45,17.83" style="fill:none;stroke:black;stroke-width:3;opacity:0">
  <animate attributeType="CSS" attributeName="opacity" from="0" to="1" begin="7s" dur="1s" repeatCount="Indefinite" fill="freeze" />
</path>
<path d="M38.53,94.68c10.15-0.63,22.6-1.5,35.55-2.11" style="fill:none;stroke:black;stroke-width:3;opacity:0">
  <animate attributeType="CSS" attributeName="opacity" from="0" to="1" begin="8s" dur="1s" repeatCount="Indefinite" fill="freeze" />
</path>
</svg>