<svg width="109px" height="109px" viewBox="0 0 px 109px" xmlns="http://www.w3.org/2000/svg" xmlns:xlink="http://www.w3.org/1999/xlink" xml:space="preserve" version="1.1"  baseProfile="full">
<path d="M17.67,23.67c1.29,0.53,5.54,0.8,6.83,0.67C37,23,71.12,20.74,84.83,20.67c2.16-0.01,6.92,0.4,8,0.67" style="fill:none;stroke:black;stroke-width:3;opacity:0">
  <animate attributeType="CSS" attributeName="opacity" from="0" to="1" begin="0s" dur="1s" repeatCount="0" fill="freeze" />
</path>
<path d="M36.5,12c2.67,0.83,3.8,2.47,4,3.33c1.86,8.06,2.13,14.4,2.67,17.33" style="fill:none;stroke:black;stroke-width:3;opacity:0">
  <animate attributeType="CSS" attributeName="opacity" from="0" to="1" begin="1s" dur="1s" repeatCount="0" fill="freeze" />
</path>
<path d="M66.17,10.5c1.33,1,2.06,2.4,1.77,3.86c-0.86,4.43-1.36,11.65-2.6,17.31" style="fill:none;stroke:black;stroke-width:3;opacity:0">
  <animate attributeType="CSS" attributeName="opacity" from="0" to="1" begin="2s" dur="1s" repeatCount="0" fill="freeze" />
</path>
<path d="M25.17,38c1.04,0.49,3.58,1,7.17,0.83C43.1,38.33,61,37,79.17,36c1.72-0.09,5.14-0.08,6,0.17" style="fill:none;stroke:black;stroke-width:3;opacity:0">
  <animate attributeType="CSS" attributeName="opacity" from="0" to="1" begin="3s" dur="1s" repeatCount="0" fill="freeze" />
</path>
<path d="M32.33,48.83c0.58,0.34,1.57,2.29,1.68,2.74c0.79,3.28,2.1,9.97,3.15,16.59" style="fill:none;stroke:black;stroke-width:3;opacity:0">
  <animate attributeType="CSS" attributeName="opacity" from="0" to="1" begin="4s" dur="1s" repeatCount="0" fill="freeze" />
</path>
<path d="M34,50.17c7.77-0.65,32.2-2.23,37.5-2.33c2.19-0.04,3.71,1.23,3.51,3.17c-0.34,3.33-2.5,8.49-4.17,13.33" style="fill:none;stroke:black;stroke-width:3;opacity:0">
  <animate attributeType="CSS" attributeName="opacity" from="0" to="1" begin="5s" dur="1s" repeatCount="0" fill="freeze" />
</path>
<path d="M38,66.17c5.82,0,27.47-1.57,35.5-1.67" style="fill:none;stroke:black;stroke-width:3;opacity:0">
  <animate attributeType="CSS" attributeName="opacity" from="0" to="1" begin="6s" dur="1s" repeatCount="0" fill="freeze" />
</path>
<path d="M35,72.8c2.87,2.83,7.42,11.63,8.14,16.03" style="fill:none;stroke:black;stroke-width:3;opacity:0">
  <animate attributeType="CSS" attributeName="opacity" from="0" to="1" begin="7s" dur="1s" repeatCount="0" fill="freeze" />
</path>
<path d="M71.11,68.87c0.02,0.51,0.22,1.86-0.05,2.54c-1.81,4.59-3.93,13.26-8.51,19.06" style="fill:none;stroke:black;stroke-width:3;opacity:0">
  <animate attributeType="CSS" attributeName="opacity" from="0" to="1" begin="8s" dur="1s" repeatCount="0" fill="freeze" />
</path>
<path d="M19.17,94.33c1.47,0.38,4.22,1.31,5.69,1.2c17.25-1.25,45.31-3.03,62.13-2.63c2.45,0.06,4.79,1.07,6.02,1.26" style="fill:none;stroke:black;stroke-width:3;opacity:0">
  <animate attributeType="CSS" attributeName="opacity" from="0" to="1" begin="9s" dur="1s" repeatCount="0" fill="freeze" />
</path>
</svg>