<svg width="109px" height="109px" viewBox="0 0 px 109px" xmlns="http://www.w3.org/2000/svg" xmlns:xlink="http://www.w3.org/1999/xlink" xml:space="preserve" version="1.1"  baseProfile="full">
<path d="M17.17,23c1.29,0.53,5.58,0.75,9.67,0.33C38.71,22.12,69.45,19,83.17,19c3.58,0,8.09,0.24,9.17,0.5" style="fill:none;stroke:black;stroke-width:3;opacity:0">
  <animate attributeType="CSS" attributeName="opacity" from="0" to="1" begin="0s" dur="1s" repeatCount="0" fill="freeze" />
</path>
<path d="M33.33,11.17c1.17,0.58,2.99,2.19,3.17,3c1.68,7.55,3.02,15.26,3.5,18" style="fill:none;stroke:black;stroke-width:3;opacity:0">
  <animate attributeType="CSS" attributeName="opacity" from="0" to="1" begin="1s" dur="1s" repeatCount="0" fill="freeze" />
</path>
<path d="M69.67,9.33c1.18,0.93,1.72,2.63,1.33,4c-1.18,4.19-1.72,10.81-3.42,16.17" style="fill:none;stroke:black;stroke-width:3;opacity:0">
  <animate attributeType="CSS" attributeName="opacity" from="0" to="1" begin="2s" dur="1s" repeatCount="0" fill="freeze" />
</path>
<path d="M51.83,27.5c1.17,0.75,1.97,2.36,1.97,2.98c0,2.52-0.22,2.85-0.22,4.21" style="fill:none;stroke:black;stroke-width:3;opacity:0">
  <animate attributeType="CSS" attributeName="opacity" from="0" to="1" begin="3s" dur="1s" repeatCount="0" fill="freeze" />
</path>
<path d="M35.33,38.5c2.73-0.11,32.03-3.88,34.52-4.02c2.08-0.11,3.5,2.66,3.48,3.35c-0.14,4.89-3.48,21.46-4.67,24.83" style="fill:none;stroke:black;stroke-width:3;opacity:0">
  <animate attributeType="CSS" attributeName="opacity" from="0" to="1" begin="4s" dur="1s" repeatCount="0" fill="freeze" />
</path>
<path d="M36,50.33c6.86-0.63,28.57-3.5,35.17-4" style="fill:none;stroke:black;stroke-width:3;opacity:0">
  <animate attributeType="CSS" attributeName="opacity" from="0" to="1" begin="5s" dur="1s" repeatCount="0" fill="freeze" />
</path>
<path d="M37.17,63.5c9.64-0.87,20.53-2.67,31-3.5" style="fill:none;stroke:black;stroke-width:3;opacity:0">
  <animate attributeType="CSS" attributeName="opacity" from="0" to="1" begin="6s" dur="1s" repeatCount="0" fill="freeze" />
</path>
<path d="M32.67,36.17c1.08,1.08,1.98,2.87,2.33,3.83c0.35,0.96,0.62,49.93,0.23,52.33c-0.35,2.17-1.09,6.2,2.7,3.84c5.05-3.14,9.93-6.16,16.1-10.26" style="fill:none;stroke:black;stroke-width:3;opacity:0">
  <animate attributeType="CSS" attributeName="opacity" from="0" to="1" begin="7s" dur="1s" repeatCount="0" fill="freeze" />
</path>
<path d="M75.95,64.38c0.31,1.33,0.51,1.85-0.54,2.92c-2.05,2.07-8.21,7.36-11.01,9.22" style="fill:none;stroke:black;stroke-width:3;opacity:0">
  <animate attributeType="CSS" attributeName="opacity" from="0" to="1" begin="8s" dur="1s" repeatCount="0" fill="freeze" />
</path>
<path d="M46.59,67.07c6.6,3.27,24.01,18.53,34.06,24.09c5.35,2.97,8.06,3.75,11.01,4.31" style="fill:none;stroke:black;stroke-width:3;opacity:0">
  <animate attributeType="CSS" attributeName="opacity" from="0" to="1" begin="9s" dur="1s" repeatCount="0" fill="freeze" />
</path>
</svg>