<svg width="109px" height="109px" viewBox="0 0 px 109px" xmlns="http://www.w3.org/2000/svg" xmlns:xlink="http://www.w3.org/1999/xlink" xml:space="preserve" version="1.1"  baseProfile="full">
<path d="M20,24.52c3.32,1.35,7.44,0.5,10.88,0.17c13.53-1.27,37.57-3.76,51.38-4.48c3.4-0.18,7.17-0.25,10.49,0.57" style="fill:none;stroke:black;stroke-width:3;opacity:0">
  <animate attributeType="CSS" attributeName="opacity" from="0" to="1" begin="0s" dur="1s" repeatCount="Indefinite" fill="freeze" />
</path>
<path d="M40.88,13.5c1.25,0.62,2.04,1.87,2.25,3.2c1.25,8.05,1.5,9.92,2,13.3" style="fill:none;stroke:black;stroke-width:3;opacity:0">
  <animate attributeType="CSS" attributeName="opacity" from="0" to="1" begin="1s" dur="1s" repeatCount="Indefinite" fill="freeze" />
</path>
<path d="M68.31,10.25c0.44,1.12,0.33,2.2,0.02,3.39c-2.08,8.11-2.44,9.77-4.08,16.36" style="fill:none;stroke:black;stroke-width:3;opacity:0">
  <animate attributeType="CSS" attributeName="opacity" from="0" to="1" begin="2s" dur="1s" repeatCount="Indefinite" fill="freeze" />
</path>
<path d="M39.94,31.5c0.06,0.61-0.01,1.35-0.37,2.19C36.88,39.88,30.75,47.75,19,55.5" style="fill:none;stroke:black;stroke-width:3;opacity:0">
  <animate attributeType="CSS" attributeName="opacity" from="0" to="1" begin="3s" dur="1s" repeatCount="Indefinite" fill="freeze" />
</path>
<path d="M39.55,39.66c2.2,0.47,3.7,0.59,6.81,0.17c8.97-1.22,29.74-3.62,33.34-3.81c4.45-0.23,5.71,1.78,5.17,6.63c-1.01,8.91-3.15,31.84-10.2,48.3c-2.53,5.9-4.43,9.42-9.52,3.84" style="fill:none;stroke:black;stroke-width:3;opacity:0">
  <animate attributeType="CSS" attributeName="opacity" from="0" to="1" begin="4s" dur="1s" repeatCount="Indefinite" fill="freeze" />
</path>
<path d="M29.5,55c2.11,1.45,5.29,5.56,5.82,7.82" style="fill:none;stroke:black;stroke-width:3;opacity:0">
  <animate attributeType="CSS" attributeName="opacity" from="0" to="1" begin="5s" dur="1s" repeatCount="Indefinite" fill="freeze" />
</path>
<path d="M63.5,50.25c0.11,0.72-0.05,1.62-0.47,2.21c-1.35,2.58-3.89,5.45-8.13,8.96" style="fill:none;stroke:black;stroke-width:3;opacity:0">
  <animate attributeType="CSS" attributeName="opacity" from="0" to="1" begin="6s" dur="1s" repeatCount="Indefinite" fill="freeze" />
</path>
<path d="M23.06,68.9c2.29,0.77,4.72,0.49,7.06,0.25c7.69-0.81,24.22-3.01,32.14-3.52c1.82-0.11,4.21-0.19,6.02,0.17" style="fill:none;stroke:black;stroke-width:3;opacity:0">
  <animate attributeType="CSS" attributeName="opacity" from="0" to="1" begin="7s" dur="1s" repeatCount="Indefinite" fill="freeze" />
</path>
<path d="M45.57,47.5c1.03,1.03,1.33,2.38,1.33,3.68c0,4.2-0.02,27.75-0.02,39.57c0,3.16,0,5.48,0,6.37" style="fill:none;stroke:black;stroke-width:3;opacity:0">
  <animate attributeType="CSS" attributeName="opacity" from="0" to="1" begin="8s" dur="1s" repeatCount="Indefinite" fill="freeze" />
</path>
<path d="M44.82,68.25c0,1.37-1.04,3.07-2.37,4.71C36.82,79.88,28.88,86.38,19.5,91" style="fill:none;stroke:black;stroke-width:3;opacity:0">
  <animate attributeType="CSS" attributeName="opacity" from="0" to="1" begin="9s" dur="1s" repeatCount="Indefinite" fill="freeze" />
</path>
<path d="M49.88,72.12c4.97,1.96,13.69,8.66,15.62,13.12" style="fill:none;stroke:black;stroke-width:3;opacity:0">
  <animate attributeType="CSS" attributeName="opacity" from="0" to="1" begin="10s" dur="1s" repeatCount="Indefinite" fill="freeze" />
</path>
</svg>