<svg width="109px" height="109px" viewBox="0 0 px 109px" xmlns="http://www.w3.org/2000/svg" xmlns:xlink="http://www.w3.org/1999/xlink" xml:space="preserve" version="1.1"  baseProfile="full">
<path d="M21.25,25.02c2.4,0.98,5.72,0.65,8.25,0.41c12.55-1.19,36.21-3.65,50.13-4.27c3.2-0.14,6.48-0.39,9.62,0.37" style="fill:none;stroke:black;stroke-width:3;opacity:0">
  <animate attributeType="CSS" attributeName="opacity" from="0" to="1" begin="0s" dur="1s" repeatCount="0" fill="freeze" />
</path>
<path d="M36.5,12.75c1.06,1.06,1.75,2.24,1.95,3.07c1.89,7.7,2.76,14.38,3.3,17.18" style="fill:none;stroke:black;stroke-width:3;opacity:0">
  <animate attributeType="CSS" attributeName="opacity" from="0" to="1" begin="1s" dur="1s" repeatCount="0" fill="freeze" />
</path>
<path d="M68.87,11.5c0.35,0.97,0.55,2.19,0.16,3.39c-2.27,7.01-3.05,9.77-5.53,16.36" style="fill:none;stroke:black;stroke-width:3;opacity:0">
  <animate attributeType="CSS" attributeName="opacity" from="0" to="1" begin="2s" dur="1s" repeatCount="0" fill="freeze" />
</path>
<path d="M24.62,40.06c1.04,1.04,1.36,2.72,1.36,4.08c0,12.67-0.06,31.56-0.09,46.99c0,2.04-0.01,4.01-0.01,5.86" style="fill:none;stroke:black;stroke-width:3;opacity:0">
  <animate attributeType="CSS" attributeName="opacity" from="0" to="1" begin="3s" dur="1s" repeatCount="0" fill="freeze" />
</path>
<path d="M26.88,41.34c17-1.72,35.81-3.73,53.69-4.55c2.99-0.14,4.81,0.82,4.81,3.45c0,10.96,0.07,32.12,0.07,48.25c0,2.27,0.01,4.45,0.01,6.5" style="fill:none;stroke:black;stroke-width:3;opacity:0">
  <animate attributeType="CSS" attributeName="opacity" from="0" to="1" begin="4s" dur="1s" repeatCount="0" fill="freeze" />
</path>
<path d="M62.76,43.5c0.3,0.99-0.99,1.62-1.61,2.01c-3.35,2.05-11.33,5.41-21.59,7.45" style="fill:none;stroke:black;stroke-width:3;opacity:0">
  <animate attributeType="CSS" attributeName="opacity" from="0" to="1" begin="5s" dur="1s" repeatCount="0" fill="freeze" />
</path>
<path d="M35.39,61.4c1.78,0.54,3.66,0.31,5.47,0.12c6.66-0.68,21.67-2.72,29.39-3.53c1.56-0.16,3.39-0.33,4.96-0.05" style="fill:none;stroke:black;stroke-width:3;opacity:0">
  <animate attributeType="CSS" attributeName="opacity" from="0" to="1" begin="6s" dur="1s" repeatCount="0" fill="freeze" />
</path>
<path d="M54.78,51.31c0.7,0.7,0.81,1.81,0.81,3c0,5.06-0.03,14.81-0.03,26.06c0,2.01-0.01,3.84-0.01,5.38" style="fill:none;stroke:black;stroke-width:3;opacity:0">
  <animate attributeType="CSS" attributeName="opacity" from="0" to="1" begin="7s" dur="1s" repeatCount="0" fill="freeze" />
</path>
<path d="M53.54,60.49c0,1.13-1.27,2.64-2.56,4.44c-4.52,6.33-11.05,13.2-16.6,17.37" style="fill:none;stroke:black;stroke-width:3;opacity:0">
  <animate attributeType="CSS" attributeName="opacity" from="0" to="1" begin="8s" dur="1s" repeatCount="0" fill="freeze" />
</path>
<path d="M56.19,64.63C62.5,68,68,71.75,73.01,77.31" style="fill:none;stroke:black;stroke-width:3;opacity:0">
  <animate attributeType="CSS" attributeName="opacity" from="0" to="1" begin="9s" dur="1s" repeatCount="0" fill="freeze" />
</path>
<path d="M27.1,94.44c16.15-1.44,39.28-2.81,57.35-3.59" style="fill:none;stroke:black;stroke-width:3;opacity:0">
  <animate attributeType="CSS" attributeName="opacity" from="0" to="1" begin="10s" dur="1s" repeatCount="0" fill="freeze" />
</path>
</svg>