<svg width="109px" height="109px" viewBox="0 0 px 109px" xmlns="http://www.w3.org/2000/svg" xmlns:xlink="http://www.w3.org/1999/xlink" xml:space="preserve" version="1.1"  baseProfile="full">
<path d="M15.83,23.83c1.29,0.53,7.04,0.27,8.33,0.17c11.9-0.96,48.11-4.43,61.83-4.5c2.16-0.01,6.26,0.57,7.33,0.83" style="fill:none;stroke:black;stroke-width:3;opacity:0">
  <animate attributeType="CSS" attributeName="opacity" from="0" to="1" begin="0s" dur="1s" repeatCount="0" fill="freeze" />
</path>
<path d="M35.17,12c2.33,0.5,2.82,2.15,3,3c1.69,7.99,2.08,13.5,2.33,18.17" style="fill:none;stroke:black;stroke-width:3;opacity:0">
  <animate attributeType="CSS" attributeName="opacity" from="0" to="1" begin="1s" dur="1s" repeatCount="0" fill="freeze" />
</path>
<path d="M67.83,10.5c1.32,0.89,1.35,3.13,1.04,4.49C67.75,20,67.5,22,65.27,29.33" style="fill:none;stroke:black;stroke-width:3;opacity:0">
  <animate attributeType="CSS" attributeName="opacity" from="0" to="1" begin="2s" dur="1s" repeatCount="0" fill="freeze" />
</path>
<path d="M21.93,35.69c3.89,1.68,10.04,5.78,11.01,8.39" style="fill:none;stroke:black;stroke-width:3;opacity:0">
  <animate attributeType="CSS" attributeName="opacity" from="0" to="1" begin="3s" dur="1s" repeatCount="0" fill="freeze" />
</path>
<path d="M16.3,55.82c4.09,1.2,10.57,5.46,11.59,7.32" style="fill:none;stroke:black;stroke-width:3;opacity:0">
  <animate attributeType="CSS" attributeName="opacity" from="0" to="1" begin="4s" dur="1s" repeatCount="0" fill="freeze" />
</path>
<path d="M15.75,94.74c2.75,0.76,3.33,0.75,4.92-1.57c4.63-6.77,10.99-16.33,15.2-24.96" style="fill:none;stroke:black;stroke-width:3;opacity:0">
  <animate attributeType="CSS" attributeName="opacity" from="0" to="1" begin="5s" dur="1s" repeatCount="0" fill="freeze" />
</path>
<path d="M45.33,46c0.6,0.98,0.82,2.46,0.83,4.5c0.19,24.53-4.92,36.75-12.2,47.36" style="fill:none;stroke:black;stroke-width:3;opacity:0">
  <animate attributeType="CSS" attributeName="opacity" from="0" to="1" begin="6s" dur="1s" repeatCount="0" fill="freeze" />
</path>
<path d="M46.83,47c11.67-2,31.21-3.95,36.6-4.04c9.17-0.16,6.75,3.44,1.24,7.54" style="fill:none;stroke:black;stroke-width:3;opacity:0">
  <animate attributeType="CSS" attributeName="opacity" from="0" to="1" begin="7s" dur="1s" repeatCount="0" fill="freeze" />
</path>
<path d="M63.67,33.83c0.93,0.34,1.83,2.67,1.83,4.33c0,0.71-0.08,16.26-0.08,23.23" style="fill:none;stroke:black;stroke-width:3;opacity:0">
  <animate attributeType="CSS" attributeName="opacity" from="0" to="1" begin="8s" dur="1s" repeatCount="0" fill="freeze" />
</path>
<path d="M49.17,64.17c1.27,0.37,2.08,0.39,4.67,0c3.81-0.58,21.85-3.11,23.67-3.5c4.55-0.97,5,1.08,3.04,4.58c-7.93,14.15-25.04,29-41.37,34.75" style="fill:none;stroke:black;stroke-width:3;opacity:0">
  <animate attributeType="CSS" attributeName="opacity" from="0" to="1" begin="9s" dur="1s" repeatCount="0" fill="freeze" />
</path>
<path d="M53.98,68.4c3.32,0.77,19.52,19.85,32.19,27.1c1.93,1.11,5.19,2,6.86,2.43" style="fill:none;stroke:black;stroke-width:3;opacity:0">
  <animate attributeType="CSS" attributeName="opacity" from="0" to="1" begin="10s" dur="1s" repeatCount="0" fill="freeze" />
</path>
</svg>