<svg width="109px" height="109px" viewBox="0 0 px 109px" xmlns="http://www.w3.org/2000/svg" xmlns:xlink="http://www.w3.org/1999/xlink" xml:space="preserve" version="1.1"  baseProfile="full">
<path d="M18.5,24.36c1.34,0.44,2.9,0.53,4.25,0.44c12.33-0.8,48.59-3.73,62.81-3.79c2.24-0.01,3.58,0.21,4.7,0.43" style="fill:none;stroke:black;stroke-width:3;opacity:0">
  <animate attributeType="CSS" attributeName="opacity" from="0" to="1" begin="0s" dur="1s" repeatCount="Indefinite" fill="freeze" />
</path>
<path d="M36.75,13.5c1.75,1.43,2.31,1.87,2.5,2.75C41,24.5,41,30,41.5,33" style="fill:none;stroke:black;stroke-width:3;opacity:0">
  <animate attributeType="CSS" attributeName="opacity" from="0" to="1" begin="1s" dur="1s" repeatCount="Indefinite" fill="freeze" />
</path>
<path d="M68.75,11.75c1.12,1,1.37,2.52,1,4c-1.12,4.5-1.88,10-3.5,15.75" style="fill:none;stroke:black;stroke-width:3;opacity:0">
  <animate attributeType="CSS" attributeName="opacity" from="0" to="1" begin="2s" dur="1s" repeatCount="Indefinite" fill="freeze" />
</path>
<path d="M52.07,30.75c1.31,0.75,1.97,1.75,1.97,3.5s0,4.75,0,7.5" style="fill:none;stroke:black;stroke-width:3;opacity:0">
  <animate attributeType="CSS" attributeName="opacity" from="0" to="1" begin="3s" dur="1s" repeatCount="Indefinite" fill="freeze" />
</path>
<path d="M25.64,43.7c1.53,0.33,3.31,0.38,4.83,0.33c8.61-0.28,33.53-3.03,46.54-3.27c2.54-0.05,4.07,0.16,5.34,0.32" style="fill:none;stroke:black;stroke-width:3;opacity:0">
  <animate attributeType="CSS" attributeName="opacity" from="0" to="1" begin="4s" dur="1s" repeatCount="Indefinite" fill="freeze" />
</path>
<path d="M35.22,47c3.9,5.03,5.67,10.18,6.02,13.5" style="fill:none;stroke:black;stroke-width:3;opacity:0">
  <animate attributeType="CSS" attributeName="opacity" from="0" to="1" begin="5s" dur="1s" repeatCount="Indefinite" fill="freeze" />
</path>
<path d="M69.52,44.5c0.48,0.75,0.53,1.96,0.37,2.46c-1.39,4.54-2.98,9.82-4.72,12.54" style="fill:none;stroke:black;stroke-width:3;opacity:0">
  <animate attributeType="CSS" attributeName="opacity" from="0" to="1" begin="6s" dur="1s" repeatCount="Indefinite" fill="freeze" />
</path>
<path d="M15.75,64.8c1.91,0.39,4.16,0.54,6.05,0.39c20.83-1.69,40.38-4.19,64.5-5c3.19-0.11,5.1,0.19,6.69,0.38" style="fill:none;stroke:black;stroke-width:3;opacity:0">
  <animate attributeType="CSS" attributeName="opacity" from="0" to="1" begin="7s" dur="1s" repeatCount="Indefinite" fill="freeze" />
</path>
<path d="M29.18,75.64c0.55,0.39,1.12,0.72,1.36,1.21c1.92,3.9,2.9,15.65,4.21,22.65" style="fill:none;stroke:black;stroke-width:3;opacity:0">
  <animate attributeType="CSS" attributeName="opacity" from="0" to="1" begin="8s" dur="1s" repeatCount="Indefinite" fill="freeze" />
</path>
<path d="M31.12,77.28C42.76,76,69.22,73.5,75.7,72.99c2.37-0.19,3.3,0.76,2.95,2.71c-0.85,4.69-3.2,12.05-5.28,18.35" style="fill:none;stroke:black;stroke-width:3;opacity:0">
  <animate attributeType="CSS" attributeName="opacity" from="0" to="1" begin="9s" dur="1s" repeatCount="Indefinite" fill="freeze" />
</path>
<path d="M35.01,97.08c7.61-0.58,30.28-1.58,40.72-2.47" style="fill:none;stroke:black;stroke-width:3;opacity:0">
  <animate attributeType="CSS" attributeName="opacity" from="0" to="1" begin="10s" dur="1s" repeatCount="Indefinite" fill="freeze" />
</path>
</svg>