<svg width="109px" height="109px" viewBox="0 0 px 109px" xmlns="http://www.w3.org/2000/svg" xmlns:xlink="http://www.w3.org/1999/xlink" xml:space="preserve" version="1.1"  baseProfile="full">
<path d="M15,22.31c1.46,0.34,3.15,0.41,4.61,0.34c13.39-0.63,52.77-3.89,68.21-3.93c2.43-0.01,3.88,0.16,5.1,0.33" style="fill:none;stroke:black;stroke-width:3;opacity:0">
  <animate attributeType="CSS" attributeName="opacity" from="0" to="1" begin="0s" dur="1s" repeatCount="0" fill="freeze" />
</path>
<path d="M38.69,10.2c1.47,1.25,1.94,1.62,2.09,2.39c1.47,7.17,1.67,13.11,1.88,16.16" style="fill:none;stroke:black;stroke-width:3;opacity:0">
  <animate attributeType="CSS" attributeName="opacity" from="0" to="1" begin="1s" dur="1s" repeatCount="0" fill="freeze" />
</path>
<path d="M67.04,8.92c0.24,1,0.45,1.68,0.29,2.96c-0.58,4.52-1.73,11.43-2.58,15.59" style="fill:none;stroke:black;stroke-width:3;opacity:0">
  <animate attributeType="CSS" attributeName="opacity" from="0" to="1" begin="2s" dur="1s" repeatCount="0" fill="freeze" />
</path>
<path d="M25,37.08c1.11,0.43,3.14,0.55,4.25,0.43c7.06-0.74,44.03-4.87,50.87-4.37c1.84,0.13,2.96,0.2,3.88,0.42" style="fill:none;stroke:black;stroke-width:3;opacity:0">
  <animate attributeType="CSS" attributeName="opacity" from="0" to="1" begin="3s" dur="1s" repeatCount="0" fill="freeze" />
</path>
<path d="M29.25,47.46c0.45,0.29,0.9,0.53,1.1,0.89c1.54,2.86,3.39,10.73,4.45,15.87" style="fill:none;stroke:black;stroke-width:3;opacity:0">
  <animate attributeType="CSS" attributeName="opacity" from="0" to="1" begin="4s" dur="1s" repeatCount="0" fill="freeze" />
</path>
<path d="M31.52,48.94c10.9-1.2,38.46-4.27,44.07-4.68c2.06-0.15,3.22,1.47,3,2.36C77.25,52,76.75,54,74.38,61" style="fill:none;stroke:black;stroke-width:3;opacity:0">
  <animate attributeType="CSS" attributeName="opacity" from="0" to="1" begin="5s" dur="1s" repeatCount="0" fill="freeze" />
</path>
<path d="M35.23,62.32c6.6-0.46,31.82-2.92,40.2-3.37" style="fill:none;stroke:black;stroke-width:3;opacity:0">
  <animate attributeType="CSS" attributeName="opacity" from="0" to="1" begin="6s" dur="1s" repeatCount="0" fill="freeze" />
</path>
<path d="M27.25,73.08c1.11,0.43,3.14,0.55,4.25,0.43c7.06-0.74,40.03-3.87,46.87-3.37c1.84,0.13,2.96,0.21,3.88,0.42" style="fill:none;stroke:black;stroke-width:3;opacity:0">
  <animate attributeType="CSS" attributeName="opacity" from="0" to="1" begin="7s" dur="1s" repeatCount="0" fill="freeze" />
</path>
<path d="M33,84.08c1.11,0.43,3.14,0.55,4.25,0.43c7.06-0.74,28-3.26,34.87-3.37c1.85-0.03,2.96,0.21,3.88,0.42" style="fill:none;stroke:black;stroke-width:3;opacity:0">
  <animate attributeType="CSS" attributeName="opacity" from="0" to="1" begin="8s" dur="1s" repeatCount="0" fill="freeze" />
</path>
<path d="M20.5,97.08c1.32,0.43,3.75,0.55,5.08,0.43c8.44-0.74,54.12-3.87,62.29-3.37c2.2,0.13,3.53,0.21,4.63,0.42" style="fill:none;stroke:black;stroke-width:3;opacity:0">
  <animate attributeType="CSS" attributeName="opacity" from="0" to="1" begin="9s" dur="1s" repeatCount="0" fill="freeze" />
</path>
<path d="M51.62,35c1.09,0.5,1.74,2.25,1.96,3.25c0.22,1,0.5,50.75,0.28,57" style="fill:none;stroke:black;stroke-width:3;opacity:0">
  <animate attributeType="CSS" attributeName="opacity" from="0" to="1" begin="10s" dur="1s" repeatCount="0" fill="freeze" />
</path>
</svg>