<svg width="109px" height="109px" viewBox="0 0 px 109px" xmlns="http://www.w3.org/2000/svg" xmlns:xlink="http://www.w3.org/1999/xlink" xml:space="preserve" version="1.1"  baseProfile="full">
<path d="M24,20.27c1.29,0.53,2.8,0.63,4.1,0.53c11.9-0.96,41.4-3.96,55.12-4.03c2.16-0.01,3.45,0.25,4.53,0.51" style="fill:none;stroke:black;stroke-width:3;opacity:0">
  <animate attributeType="CSS" attributeName="opacity" from="0" to="1" begin="0s" dur="1s" repeatCount="0" fill="freeze" />
</path>
<path d="M39.25,10.5c1.75,1.43,2.43,1.85,2.5,2.75C42.12,18,42.5,25.5,43,28.5" style="fill:none;stroke:black;stroke-width:3;opacity:0">
  <animate attributeType="CSS" attributeName="opacity" from="0" to="1" begin="1s" dur="1s" repeatCount="0" fill="freeze" />
</path>
<path d="M69.75,9.25c0.42,1.18,0.78,2.01,0.5,3.5c-1.38,7.25-1.62,11.5-2,13.25" style="fill:none;stroke:black;stroke-width:3;opacity:0">
  <animate attributeType="CSS" attributeName="opacity" from="0" to="1" begin="2s" dur="1s" repeatCount="0" fill="freeze" />
</path>
<path d="M32.57,36.57c0.9,0.23,2.56,0.29,3.46,0.23c11.61-0.78,28.01-3.44,39.69-3.64c1.51-0.03,2.41,0.11,3.16,0.23" style="fill:none;stroke:black;stroke-width:3;opacity:0">
  <animate attributeType="CSS" attributeName="opacity" from="0" to="1" begin="3s" dur="1s" repeatCount="0" fill="freeze" />
</path>
<path d="M53.45,25.62c0.13,0.2,1.83,1.03,1.83,2.3c0,3.98,0.26,11.77,0.26,17.76" style="fill:none;stroke:black;stroke-width:3;opacity:0">
  <animate attributeType="CSS" attributeName="opacity" from="0" to="1" begin="4s" dur="1s" repeatCount="0" fill="freeze" />
</path>
<path d="M18.64,49.37c1.44,0.54,4.08,0.66,5.52,0.54c17.83-1.5,49.6-4.48,65.55-5.18c2.4-0.11,3.84,0.26,5.04,0.52" style="fill:none;stroke:black;stroke-width:3;opacity:0">
  <animate attributeType="CSS" attributeName="opacity" from="0" to="1" begin="5s" dur="1s" repeatCount="0" fill="freeze" />
</path>
<path d="M41.74,51.39c0.05,0.38,0.1,0.98-0.1,1.53c-1.18,3.23-7.37,10.92-17.16,14.65" style="fill:none;stroke:black;stroke-width:3;opacity:0">
  <animate attributeType="CSS" attributeName="opacity" from="0" to="1" begin="6s" dur="1s" repeatCount="0" fill="freeze" />
</path>
<path d="M64.16,47.49c0.48,0.41,0.86,0.88,0.89,1.51c0.13,2.8-0.34,6.01-0.34,7.91c0,4.44,6.75,3.94,12.41,3.94c5.97,0,10.91-0.57,11.75-0.9" style="fill:none;stroke:black;stroke-width:3;opacity:0">
  <animate attributeType="CSS" attributeName="opacity" from="0" to="1" begin="7s" dur="1s" repeatCount="0" fill="freeze" />
</path>
<path d="M50.61,59.22c0.08,0.6,0.42,1.62-0.16,2.41c-3.79,5.18-11.69,14.74-27.56,23.62" style="fill:none;stroke:black;stroke-width:3;opacity:0">
  <animate attributeType="CSS" attributeName="opacity" from="0" to="1" begin="8s" dur="1s" repeatCount="0" fill="freeze" />
</path>
<path d="M47.19,70.32c0.33,0.02,2.08,0.21,3.01,0.15c4.15-0.27,14.01-3.66,18.36-4.33c2.99-0.46,2.84,1.53,2.07,2.78c-4.18,6.86-26.16,25.79-47.31,30.58" style="fill:none;stroke:black;stroke-width:3;opacity:0">
  <animate attributeType="CSS" attributeName="opacity" from="0" to="1" begin="9s" dur="1s" repeatCount="0" fill="freeze" />
</path>
<path d="M40.07,73.33c6.31,4.21,34.89,20.2,43.39,24.05c2.53,1.15,4.59,1.71,7.06,2.05" style="fill:none;stroke:black;stroke-width:3;opacity:0">
  <animate attributeType="CSS" attributeName="opacity" from="0" to="1" begin="10s" dur="1s" repeatCount="0" fill="freeze" />
</path>
</svg>