<svg width="109px" height="109px" viewBox="0 0 px 109px" xmlns="http://www.w3.org/2000/svg" xmlns:xlink="http://www.w3.org/1999/xlink" xml:space="preserve" version="1.1"  baseProfile="full">
<path d="M20.5,23.77c1.29,0.53,2.8,0.63,4.1,0.53c11.9-0.96,46.9-4.96,60.62-5.03c2.16-0.01,3.45,0.25,4.53,0.51" style="fill:none;stroke:black;stroke-width:3;opacity:0">
  <animate attributeType="CSS" attributeName="opacity" from="0" to="1" begin="0s" dur="1s" repeatCount="0" fill="freeze" />
</path>
<path d="M37.25,11.5c1.75,1.43,2.35,1.86,2.5,2.75c1,6,1.75,12.75,2.25,15.75" style="fill:none;stroke:black;stroke-width:3;opacity:0">
  <animate attributeType="CSS" attributeName="opacity" from="0" to="1" begin="1s" dur="1s" repeatCount="0" fill="freeze" />
</path>
<path d="M67.75,10.25c1.12,1,1.87,2.52,1.5,4c-1.12,4.5-1.25,6.25-3,14.75" style="fill:none;stroke:black;stroke-width:3;opacity:0">
  <animate attributeType="CSS" attributeName="opacity" from="0" to="1" begin="2s" dur="1s" repeatCount="0" fill="freeze" />
</path>
<path d="M51.97,29c0.86,0.47,2.28,2.26,2.28,3.19c0,3.41-0.27,5.69-0.11,8.57" style="fill:none;stroke:black;stroke-width:3;opacity:0">
  <animate attributeType="CSS" attributeName="opacity" from="0" to="1" begin="3s" dur="1s" repeatCount="0" fill="freeze" />
</path>
<path d="M22.95,43.47c1.22,0.09,4.01,0.59,5.2,0.47c9.6-0.99,43.68-5.06,55.86-5.32c2.01-0.04,3.04,0.04,4.54,0.6" style="fill:none;stroke:black;stroke-width:3;opacity:0">
  <animate attributeType="CSS" attributeName="opacity" from="0" to="1" begin="4s" dur="1s" repeatCount="0" fill="freeze" />
</path>
<path d="M39.75,47.99c0,0.52,0.04,0.93-0.12,1.55c-0.83,3.24-7.38,14.7-15.41,18.83" style="fill:none;stroke:black;stroke-width:3;opacity:0">
  <animate attributeType="CSS" attributeName="opacity" from="0" to="1" begin="5s" dur="1s" repeatCount="0" fill="freeze" />
</path>
<path d="M38.39,52.71c4.29,1.66,9.77,6.09,11.86,10.29" style="fill:none;stroke:black;stroke-width:3;opacity:0">
  <animate attributeType="CSS" attributeName="opacity" from="0" to="1" begin="6s" dur="1s" repeatCount="0" fill="freeze" />
</path>
<path d="M69.25,43.99c0,0.46,0.03,0.83-0.09,1.38C68.5,48.25,63,58.5,56.97,62.13" style="fill:none;stroke:black;stroke-width:3;opacity:0">
  <animate attributeType="CSS" attributeName="opacity" from="0" to="1" begin="7s" dur="1s" repeatCount="0" fill="freeze" />
</path>
<path d="M67.64,50.96c5.47,1.91,12.45,6.98,15.11,11.79" style="fill:none;stroke:black;stroke-width:3;opacity:0">
  <animate attributeType="CSS" attributeName="opacity" from="0" to="1" begin="8s" dur="1s" repeatCount="0" fill="freeze" />
</path>
<path d="M15.38,77.03c1.74,0.62,4.94,0.78,6.67,0.62c22.12-2.03,52.48-3.53,67.74-3.77c2.9-0.05,4.64,0.29,6.09,0.61" style="fill:none;stroke:black;stroke-width:3;opacity:0">
  <animate attributeType="CSS" attributeName="opacity" from="0" to="1" begin="9s" dur="1s" repeatCount="0" fill="freeze" />
</path>
<path d="M53.08,67.25c0.38,0.44,1.18,3.28,1.25,4.16c0.08,0.88-0.05,22.12-0.12,27.59" style="fill:none;stroke:black;stroke-width:3;opacity:0">
  <animate attributeType="CSS" attributeName="opacity" from="0" to="1" begin="10s" dur="1s" repeatCount="0" fill="freeze" />
</path>
</svg>