<svg width="109px" height="109px" viewBox="0 0 px 109px" xmlns="http://www.w3.org/2000/svg" xmlns:xlink="http://www.w3.org/1999/xlink" xml:space="preserve" version="1.1"  baseProfile="full">
<path d="M18,20.37c1.37,0.56,2.96,0.67,4.34,0.56c12.59-1.02,51.11-3.72,65.62-3.8c2.28-0.01,3.65,0.26,4.79,0.54" style="fill:none;stroke:black;stroke-width:3;opacity:0">
  <animate attributeType="CSS" attributeName="opacity" from="0" to="1" begin="0s" dur="1s" repeatCount="0" fill="freeze" />
</path>
<path d="M38.25,9.5c1.75,1.43,2.31,1.87,2.5,2.75C42.5,20.5,42.5,24,43,27" style="fill:none;stroke:black;stroke-width:3;opacity:0">
  <animate attributeType="CSS" attributeName="opacity" from="0" to="1" begin="1s" dur="1s" repeatCount="0" fill="freeze" />
</path>
<path d="M67.75,9.25c1.12,1,1.37,2.52,1,4c-1.12,4.5-1.5,7.5-2.5,12.25" style="fill:none;stroke:black;stroke-width:3;opacity:0">
  <animate attributeType="CSS" attributeName="opacity" from="0" to="1" begin="2s" dur="1s" repeatCount="0" fill="freeze" />
</path>
<path d="M40.02,30.92c0.06,0.27,0.13,0.7-0.12,1.08c-1.47,2.29-9.9,7.31-21.44,10.38" style="fill:none;stroke:black;stroke-width:3;opacity:0">
  <animate attributeType="CSS" attributeName="opacity" from="0" to="1" begin="3s" dur="1s" repeatCount="0" fill="freeze" />
</path>
<path d="M12.62,53.24c0.44,0.19,1.61,0.5,2.77,0.57C18.6,54,36.3,51.79,44.32,50.84c1.16-0.14,1.46-0.19,2.19,0" style="fill:none;stroke:black;stroke-width:3;opacity:0">
  <animate attributeType="CSS" attributeName="opacity" from="0" to="1" begin="4s" dur="1s" repeatCount="0" fill="freeze" />
</path>
<path d="M31.92,39.99c0.52,0.53,1.29,2.38,1.4,3.44c0.1,1.06,0,49.82-0.1,54.58" style="fill:none;stroke:black;stroke-width:3;opacity:0">
  <animate attributeType="CSS" attributeName="opacity" from="0" to="1" begin="5s" dur="1s" repeatCount="0" fill="freeze" />
</path>
<path d="M33,53.65c-3.89,10.23-13.13,23.8-20,31.22" style="fill:none;stroke:black;stroke-width:3;opacity:0">
  <animate attributeType="CSS" attributeName="opacity" from="0" to="1" begin="6s" dur="1s" repeatCount="0" fill="freeze" />
</path>
<path d="M35.77,61.2c3.39,1.58,8.74,6.51,9.59,8.97" style="fill:none;stroke:black;stroke-width:3;opacity:0">
  <animate attributeType="CSS" attributeName="opacity" from="0" to="1" begin="7s" dur="1s" repeatCount="0" fill="freeze" />
</path>
<path d="M57.5,35.44c3.53,1.17,9.12,4.83,10,6.65" style="fill:none;stroke:black;stroke-width:3;opacity:0">
  <animate attributeType="CSS" attributeName="opacity" from="0" to="1" begin="8s" dur="1s" repeatCount="0" fill="freeze" />
</path>
<path d="M54,52.07c4.06,1.57,10.48,6.45,11.5,8.89" style="fill:none;stroke:black;stroke-width:3;opacity:0">
  <animate attributeType="CSS" attributeName="opacity" from="0" to="1" begin="9s" dur="1s" repeatCount="0" fill="freeze" />
</path>
<path d="M51.25,75.84c0.65,0.21,2.4,0.79,4.13,0.63c7.12-0.63,26.62-4.05,36.85-4.05c1.74,0,2.18-0.21,3.26,0" style="fill:none;stroke:black;stroke-width:3;opacity:0">
  <animate attributeType="CSS" attributeName="opacity" from="0" to="1" begin="10s" dur="1s" repeatCount="0" fill="freeze" />
</path>
<path d="M77.37,30.5c1.09,0.42,1.74,1.89,1.96,2.74c0.22,0.84,0,59.75-0.22,65.01" style="fill:none;stroke:black;stroke-width:3;opacity:0">
  <animate attributeType="CSS" attributeName="opacity" from="0" to="1" begin="11s" dur="1s" repeatCount="0" fill="freeze" />
</path>
</svg>