<svg width="109px" height="109px" viewBox="0 0 px 109px" xmlns="http://www.w3.org/2000/svg" xmlns:xlink="http://www.w3.org/1999/xlink" xml:space="preserve" version="1.1"  baseProfile="full">
<path d="M16,21.57c1.83,0.74,3.96,0.89,5.8,0.74c16.84-1.36,45.13-2.98,64.54-3.08c3.05-0.02,4.88,0.35,6.41,0.73" style="fill:none;stroke:black;stroke-width:3;opacity:0">
  <animate attributeType="CSS" attributeName="opacity" from="0" to="1" begin="0s" dur="1s" repeatCount="Indefinite" fill="freeze" />
</path>
<path d="M35.25,11.5c1.75,1.43,2.31,1.87,2.5,2.75C39.5,22.5,40,27.5,40.5,30.5" style="fill:none;stroke:black;stroke-width:3;opacity:0">
  <animate attributeType="CSS" attributeName="opacity" from="0" to="1" begin="1s" dur="1s" repeatCount="Indefinite" fill="freeze" />
</path>
<path d="M67.25,10.25c1.12,1,1.37,2.52,1,4c-1.12,4.5-1.88,9-3.5,14.75" style="fill:none;stroke:black;stroke-width:3;opacity:0">
  <animate attributeType="CSS" attributeName="opacity" from="0" to="1" begin="2s" dur="1s" repeatCount="Indefinite" fill="freeze" />
</path>
<path d="M30.6,33.94c0.65,1.05,1.12,2.31,1.3,4.2c0.65,6.94,1.35,13.85,1.5,22.8" style="fill:none;stroke:black;stroke-width:3;opacity:0">
  <animate attributeType="CSS" attributeName="opacity" from="0" to="1" begin="3s" dur="1s" repeatCount="Indefinite" fill="freeze" />
</path>
<path d="M31.9,36.12c8.24-0.84,38.23-1.84,41.91-2.28c1.73-0.21,3.46,0.66,3.04,2.52c-0.87,3.78-2.1,17.6-2.97,23.48" style="fill:none;stroke:black;stroke-width:3;opacity:0">
  <animate attributeType="CSS" attributeName="opacity" from="0" to="1" begin="4s" dur="1s" repeatCount="Indefinite" fill="freeze" />
</path>
<path d="M52.48,44.29c0.94,0.42,1.51,1.89,1.7,2.73c0.19,0.84,0.12,8.62-0.07,13.87" style="fill:none;stroke:black;stroke-width:3;opacity:0">
  <animate attributeType="CSS" attributeName="opacity" from="0" to="1" begin="5s" dur="1s" repeatCount="Indefinite" fill="freeze" />
</path>
<path d="M55.33,46.13c3.04-0.21,15.3-1.18,19.63-1.6" style="fill:none;stroke:black;stroke-width:3;opacity:0">
  <animate attributeType="CSS" attributeName="opacity" from="0" to="1" begin="6s" dur="1s" repeatCount="Indefinite" fill="freeze" />
</path>
<path d="M19.75,61.94c0.65,1.05,1.62,2.73,1.73,4.62C22.25,79,23.25,88.75,23.51,99.9" style="fill:none;stroke:black;stroke-width:3;opacity:0">
  <animate attributeType="CSS" attributeName="opacity" from="0" to="1" begin="7s" dur="1s" repeatCount="Indefinite" fill="freeze" />
</path>
<path d="M20.98,63.55c8.24-0.84,62.31-3.75,63.93-4.04c3.47-0.63,4.46,1.48,4.58,2.52c0.43,3.57-2.25,21.98-4.47,31.34c-2,8.45-4.54,2.99-7.15,0.26" style="fill:none;stroke:black;stroke-width:3;opacity:0">
  <animate attributeType="CSS" attributeName="opacity" from="0" to="1" begin="8s" dur="1s" repeatCount="Indefinite" fill="freeze" />
</path>
<path d="M39.59,71.28c0.37,0.42,0.74,0.78,0.9,1.31c1.27,4.21,2.35,10.24,3.22,17.81" style="fill:none;stroke:black;stroke-width:3;opacity:0">
  <animate attributeType="CSS" attributeName="opacity" from="0" to="1" begin="9s" dur="1s" repeatCount="Indefinite" fill="freeze" />
</path>
<path d="M41.44,73.09c8.56-1.34,19.2-2.4,23.48-2.96c1.56-0.2,2.51,1.2,2.28,2.39c-0.93,4.92-2.27,9.01-3.39,13.37" style="fill:none;stroke:black;stroke-width:3;opacity:0">
  <animate attributeType="CSS" attributeName="opacity" from="0" to="1" begin="10s" dur="1s" repeatCount="Indefinite" fill="freeze" />
</path>
<path d="M43.88,87.88c5.03-0.63,15.2-1.06,22.11-2.03" style="fill:none;stroke:black;stroke-width:3;opacity:0">
  <animate attributeType="CSS" attributeName="opacity" from="0" to="1" begin="11s" dur="1s" repeatCount="Indefinite" fill="freeze" />
</path>
</svg>