<svg width="109px" height="109px" viewBox="0 0 px 109px" xmlns="http://www.w3.org/2000/svg" xmlns:xlink="http://www.w3.org/1999/xlink" xml:space="preserve" version="1.1"  baseProfile="full">
<path d="M19,24.27c1.29,0.53,2.8,0.63,4.1,0.53C35,23.83,70,19.33,83.72,19.26c2.16-0.01,3.45,0.25,4.53,0.51" style="fill:none;stroke:black;stroke-width:3;opacity:0">
  <animate attributeType="CSS" attributeName="opacity" from="0" to="1" begin="0s" dur="1s" repeatCount="Indefinite" fill="freeze" />
</path>
<path d="M34.92,12.25c1.51,1.29,2,1.68,2.16,2.48c1.51,7.42,2.81,15.07,3.24,17.77" style="fill:none;stroke:black;stroke-width:3;opacity:0">
  <animate attributeType="CSS" attributeName="opacity" from="0" to="1" begin="1s" dur="1s" repeatCount="Indefinite" fill="freeze" />
</path>
<path d="M66.39,10.75c0.33,1.01,0.77,1.76,0.4,2.99c-2.17,7.27-3.16,10.91-5.54,17.76" style="fill:none;stroke:black;stroke-width:3;opacity:0">
  <animate attributeType="CSS" attributeName="opacity" from="0" to="1" begin="2s" dur="1s" repeatCount="Indefinite" fill="freeze" />
</path>
<path d="M20.64,37.91c1.1,0.7,1.72,3.91,1.87,5c0,13.16,0,48.88-0.31,55.47" style="fill:none;stroke:black;stroke-width:3;opacity:0">
  <animate attributeType="CSS" attributeName="opacity" from="0" to="1" begin="3s" dur="1s" repeatCount="Indefinite" fill="freeze" />
</path>
<path d="M22.4,40.95c7.24-0.92,16.7-2.64,24.26-3.39c1.9-0.18,3.04,0.85,2.77,1.7c-1.13,3.5-1.89,10.6-2.62,14.49" style="fill:none;stroke:black;stroke-width:3;opacity:0">
  <animate attributeType="CSS" attributeName="opacity" from="0" to="1" begin="4s" dur="1s" repeatCount="Indefinite" fill="freeze" />
</path>
<path d="M22.97,55.99c6.11-0.45,20.39-1.89,26.01-2.31" style="fill:none;stroke:black;stroke-width:3;opacity:0">
  <animate attributeType="CSS" attributeName="opacity" from="0" to="1" begin="5s" dur="1s" repeatCount="Indefinite" fill="freeze" />
</path>
<path d="M22.97,69.48c4.87-0.36,15.42-1.85,21.25-2.45c1.49-0.15,2.85,0.13,3.99,0.04" style="fill:none;stroke:black;stroke-width:3;opacity:0">
  <animate attributeType="CSS" attributeName="opacity" from="0" to="1" begin="6s" dur="1s" repeatCount="Indefinite" fill="freeze" />
</path>
<path d="M22.93,82.87c4.87-0.36,16.42-1.35,22.25-1.95c1.49-0.15,2.85,0.13,3.99,0.04" style="fill:none;stroke:black;stroke-width:3;opacity:0">
  <animate attributeType="CSS" attributeName="opacity" from="0" to="1" begin="7s" dur="1s" repeatCount="Indefinite" fill="freeze" />
</path>
<path d="M55.71,37.59c1.42,0.16,3.44,0.42,4.84,0.32c6.73-0.46,13.75-1.68,20-2.3c1.9-0.18,3.04,0.85,2.77,1.7c-1.13,3.5-2.45,7.18-2.75,13.42" style="fill:none;stroke:black;stroke-width:3;opacity:0">
  <animate attributeType="CSS" attributeName="opacity" from="0" to="1" begin="8s" dur="1s" repeatCount="Indefinite" fill="freeze" />
</path>
<path d="M56.28,53.49c1.62,0.17,2.58,0.21,4.19,0.07c7.05-0.61,18.2-1.54,22.77-1.89" style="fill:none;stroke:black;stroke-width:3;opacity:0">
  <animate attributeType="CSS" attributeName="opacity" from="0" to="1" begin="9s" dur="1s" repeatCount="Indefinite" fill="freeze" />
</path>
<path d="M53.84,64c1.49,0.24,1.69,0.65,4.67,0.24c5.37-0.74,18.74-2.19,20.8-2.55c2.05-0.36,3.54,1.33,2.8,2.66C73.32,80.09,61.32,92.57,44.51,98.5" style="fill:none;stroke:black;stroke-width:3;opacity:0">
  <animate attributeType="CSS" attributeName="opacity" from="0" to="1" begin="10s" dur="1s" repeatCount="Indefinite" fill="freeze" />
</path>
<path d="M53.13,69.5c3.94,0.68,23.16,18.99,36.86,26.49c2.13,1.17,3.69,1.95,5.67,2.34" style="fill:none;stroke:black;stroke-width:3;opacity:0">
  <animate attributeType="CSS" attributeName="opacity" from="0" to="1" begin="11s" dur="1s" repeatCount="Indefinite" fill="freeze" />
</path>
</svg>