<svg width="109px" height="109px" viewBox="0 0 px 109px" xmlns="http://www.w3.org/2000/svg" xmlns:xlink="http://www.w3.org/1999/xlink" xml:space="preserve" version="1.1"  baseProfile="full">
<path d="M20.25,22.69c1.29,0.45,2.79,0.54,4.08,0.45c11.84-0.82,46.67-5.11,60.33-5.18c2.15-0.01,3.44,0.21,4.51,0.44" style="fill:none;stroke:black;stroke-width:3;opacity:0">
  <animate attributeType="CSS" attributeName="opacity" from="0" to="1" begin="0s" dur="1s" repeatCount="0" fill="freeze" />
</path>
<path d="M33.94,11.95c1.74,1.23,2.3,1.6,2.49,2.36c1.74,7.08,2.99,12.44,3.23,15.44" style="fill:none;stroke:black;stroke-width:3;opacity:0">
  <animate attributeType="CSS" attributeName="opacity" from="0" to="1" begin="1s" dur="1s" repeatCount="0" fill="freeze" />
</path>
<path d="M69.75,9.17c0.42,1.01,0.78,1.71,0.5,3c-1,4.58-3,11.58-4.47,15.8" style="fill:none;stroke:black;stroke-width:3;opacity:0">
  <animate attributeType="CSS" attributeName="opacity" from="0" to="1" begin="2s" dur="1s" repeatCount="0" fill="freeze" />
</path>
<path d="M49.98,25.41C52.5,27,54.75,29,56.07,31.92" style="fill:none;stroke:black;stroke-width:3;opacity:0">
  <animate attributeType="CSS" attributeName="opacity" from="0" to="1" begin="3s" dur="1s" repeatCount="0" fill="freeze" />
</path>
<path d="M19.75,36.55c0,3.29-3.44,12.35-5,14.54" style="fill:none;stroke:black;stroke-width:3;opacity:0">
  <animate attributeType="CSS" attributeName="opacity" from="0" to="1" begin="4s" dur="1s" repeatCount="0" fill="freeze" />
</path>
<path d="M21.26,39.36c9.15-0.95,55.98-4.86,63.41-5.22c11.6-0.56,2.46,6.9-0.43,8.93" style="fill:none;stroke:black;stroke-width:3;opacity:0">
  <animate attributeType="CSS" attributeName="opacity" from="0" to="1" begin="5s" dur="1s" repeatCount="0" fill="freeze" />
</path>
<path d="M39.34,44.73c0.04,0.37,0.2,1.01-0.09,1.5c-2.25,3.77-7,9.02-15.58,14.33" style="fill:none;stroke:black;stroke-width:3;opacity:0">
  <animate attributeType="CSS" attributeName="opacity" from="0" to="1" begin="6s" dur="1s" repeatCount="0" fill="freeze" />
</path>
<path d="M63.71,43.26c6.27,2.85,13.92,8.28,16.06,11.2" style="fill:none;stroke:black;stroke-width:3;opacity:0">
  <animate attributeType="CSS" attributeName="opacity" from="0" to="1" begin="7s" dur="1s" repeatCount="0" fill="freeze" />
</path>
<path d="M53.06,50.3c0.1,0.69,0.41,1.87-0.2,2.78c-5.43,8.16-16.55,17.79-35.6,27.53" style="fill:none;stroke:black;stroke-width:3;opacity:0">
  <animate attributeType="CSS" attributeName="opacity" from="0" to="1" begin="8s" dur="1s" repeatCount="0" fill="freeze" />
</path>
<path d="M53.23,53.09c8.68,6.98,24.85,16.95,32.8,20.65c1.97,0.92,4.25,1.52,6.12,1.83" style="fill:none;stroke:black;stroke-width:3;opacity:0">
  <animate attributeType="CSS" attributeName="opacity" from="0" to="1" begin="9s" dur="1s" repeatCount="0" fill="freeze" />
</path>
<path d="M35.02,76.07c0.44,0.39,0.88,0.72,1.07,1.21c1.51,3.9,2.82,14.66,3.85,21.67" style="fill:none;stroke:black;stroke-width:3;opacity:0">
  <animate attributeType="CSS" attributeName="opacity" from="0" to="1" begin="10s" dur="1s" repeatCount="0" fill="freeze" />
</path>
<path d="M37.06,77.7c11.89-1.8,26.39-2.7,33.67-3.48c2.49-0.27,4.01,1.79,3.63,2.95c-1.81,5.57-3.16,11.07-4.83,17.92" style="fill:none;stroke:black;stroke-width:3;opacity:0">
  <animate attributeType="CSS" attributeName="opacity" from="0" to="1" begin="11s" dur="1s" repeatCount="0" fill="freeze" />
</path>
<path d="M41.11,96.97c9.58-0.54,19.22-1.04,30.22-1.88" style="fill:none;stroke:black;stroke-width:3;opacity:0">
  <animate attributeType="CSS" attributeName="opacity" from="0" to="1" begin="12s" dur="1s" repeatCount="0" fill="freeze" />
</path>
</svg>