<svg width="109px" height="109px" viewBox="0 0 px 109px" xmlns="http://www.w3.org/2000/svg" xmlns:xlink="http://www.w3.org/1999/xlink" xml:space="preserve" version="1.1"  baseProfile="full">
<path d="M20.5,22.77c1.29,0.53,2.8,0.63,4.1,0.53c11.9-0.96,44.4-3.96,58.12-4.03c2.16-0.01,3.45,0.25,4.53,0.51" style="fill:none;stroke:black;stroke-width:3;opacity:0">
  <animate attributeType="CSS" attributeName="opacity" from="0" to="1" begin="0s" dur="1s" repeatCount="Indefinite" fill="freeze" />
</path>
<path d="M37.25,12c1.58,1.27,2.09,1.65,2.26,2.43C41.1,21.72,41.55,28.35,42,31" style="fill:none;stroke:black;stroke-width:3;opacity:0">
  <animate attributeType="CSS" attributeName="opacity" from="0" to="1" begin="1s" dur="1s" repeatCount="Indefinite" fill="freeze" />
</path>
<path d="M66.53,9.75c1.27,0.91,2.1,2.29,1.69,3.63c-1.27,4.09-2.11,10.9-3.94,16.12" style="fill:none;stroke:black;stroke-width:3;opacity:0">
  <animate attributeType="CSS" attributeName="opacity" from="0" to="1" begin="2s" dur="1s" repeatCount="Indefinite" fill="freeze" />
</path>
<path d="M33.34,31.5c0.04,0.5,0.15,1.43-0.08,1.99c-2.9,6.99-7.2,13.4-14.76,19.04" style="fill:none;stroke:black;stroke-width:3;opacity:0">
  <animate attributeType="CSS" attributeName="opacity" from="0" to="1" begin="3s" dur="1s" repeatCount="Indefinite" fill="freeze" />
</path>
<path d="M31.25,41.56c9.1-0.3,38.01-4.67,46.73-5.42c2.03-0.17,3.25,0.22,4.27,0.45" style="fill:none;stroke:black;stroke-width:3;opacity:0">
  <animate attributeType="CSS" attributeName="opacity" from="0" to="1" begin="4s" dur="1s" repeatCount="Indefinite" fill="freeze" />
</path>
<path d="M14.75,59.42c1.52,0.44,4.32,0.65,5.82,0.44C26.72,59,71.75,55.8,88.19,55.2c2.53-0.09,4.05,0.21,5.31,0.43" style="fill:none;stroke:black;stroke-width:3;opacity:0">
  <animate attributeType="CSS" attributeName="opacity" from="0" to="1" begin="5s" dur="1s" repeatCount="Indefinite" fill="freeze" />
</path>
<path d="M32.37,43.62c0.78,0.49,1.24,2.22,1.4,3.2c0.15,0.99,1.19,18.04,1.73,29.13" style="fill:none;stroke:black;stroke-width:3;opacity:0">
  <animate attributeType="CSS" attributeName="opacity" from="0" to="1" begin="6s" dur="1s" repeatCount="Indefinite" fill="freeze" />
</path>
<path d="M46.1,41.56c0.65,0.69,1.38,2.29,1.45,3.34c0.45,6.35,0.95,22.35,1.21,30.04" style="fill:none;stroke:black;stroke-width:3;opacity:0">
  <animate attributeType="CSS" attributeName="opacity" from="0" to="1" begin="7s" dur="1s" repeatCount="Indefinite" fill="freeze" />
</path>
<path d="M61.37,40.34c0.38,0.91,1.03,2.81,0.96,3.64c-0.58,6.49-1.08,16.36-1.83,29.15" style="fill:none;stroke:black;stroke-width:3;opacity:0">
  <animate attributeType="CSS" attributeName="opacity" from="0" to="1" begin="8s" dur="1s" repeatCount="Indefinite" fill="freeze" />
</path>
<path d="M74.87,39.25c0.63,1,0.71,2.33,0.46,3.95C74.5,48.5,74,60.75,72,73.13" style="fill:none;stroke:black;stroke-width:3;opacity:0">
  <animate attributeType="CSS" attributeName="opacity" from="0" to="1" begin="9s" dur="1s" repeatCount="Indefinite" fill="freeze" />
</path>
<path d="M19.25,76.53c1.52,0.44,4.31,0.54,5.82,0.44c8.68-0.6,42.68-3.43,59.11-4.03c2.53-0.09,4.05,0.21,5.31,0.43" style="fill:none;stroke:black;stroke-width:3;opacity:0">
  <animate attributeType="CSS" attributeName="opacity" from="0" to="1" begin="10s" dur="1s" repeatCount="Indefinite" fill="freeze" />
</path>
<path d="M23.25,85.98c0,4.72-5.35,11.67-6.75,13.02" style="fill:none;stroke:black;stroke-width:3;opacity:0">
  <animate attributeType="CSS" attributeName="opacity" from="0" to="1" begin="11s" dur="1s" repeatCount="Indefinite" fill="freeze" />
</path>
<path d="M38.27,83.42c2.93,2.79,5.7,10.47,6.44,14.82" style="fill:none;stroke:black;stroke-width:3;opacity:0">
  <animate attributeType="CSS" attributeName="opacity" from="0" to="1" begin="12s" dur="1s" repeatCount="Indefinite" fill="freeze" />
</path>
<path d="M58.62,81.91c3.15,2.75,8.15,11.33,8.93,15.61" style="fill:none;stroke:black;stroke-width:3;opacity:0">
  <animate attributeType="CSS" attributeName="opacity" from="0" to="1" begin="13s" dur="1s" repeatCount="Indefinite" fill="freeze" />
</path>
<path d="M78.52,80.61c4.25,2.97,10.98,12.21,12.04,16.83" style="fill:none;stroke:black;stroke-width:3;opacity:0">
  <animate attributeType="CSS" attributeName="opacity" from="0" to="1" begin="14s" dur="1s" repeatCount="Indefinite" fill="freeze" />
</path>
</svg>