<svg width="109px" height="109px" viewBox="0 0 px 109px" xmlns="http://www.w3.org/2000/svg" xmlns:xlink="http://www.w3.org/1999/xlink" xml:space="preserve" version="1.1"  baseProfile="full">
<path d="M51.77,10.83c0.98,0.92,1.76,1.99,1.76,5.02c0,5.9-0.02,8.19-0.02,13.15" style="fill:none;stroke:black;stroke-width:3;opacity:0">
  <animate attributeType="CSS" attributeName="opacity" from="0" to="1" begin="0s" dur="1s" repeatCount="0" fill="freeze" />
</path>
<path d="M55.1,20.02c4.65-0.77,9.9-1.77,14.61-2.38c1.55-0.2,2.5,0.18,3.29,0.37" style="fill:none;stroke:black;stroke-width:3;opacity:0">
  <animate attributeType="CSS" attributeName="opacity" from="0" to="1" begin="1s" dur="1s" repeatCount="0" fill="freeze" />
</path>
<path d="M31.49,33.99c1.16,0.19,3.76-0.44,5.64-0.72c13.37-2.02,31.37-5.52,42.81-5.68c12.07-0.17,2.55,6.66-0.45,8.78" style="fill:none;stroke:black;stroke-width:3;opacity:0">
  <animate attributeType="CSS" attributeName="opacity" from="0" to="1" begin="2s" dur="1s" repeatCount="0" fill="freeze" />
</path>
<path d="M30,30.93c0.76,0.57,0.84,2.71,0.84,4.78c0,24.04-5.58,47.04-18.33,60.79" style="fill:none;stroke:black;stroke-width:3;opacity:0">
  <animate attributeType="CSS" attributeName="opacity" from="0" to="1" begin="3s" dur="1s" repeatCount="0" fill="freeze" />
</path>
<path d="M38,48.94c0.79,0.37,2.26,0.53,3.05,0.37c7.82-1.65,22.08-5.07,30.67-5.97c1.32-0.14,2.12,0.18,2.78,0.36" style="fill:none;stroke:black;stroke-width:3;opacity:0">
  <animate attributeType="CSS" attributeName="opacity" from="0" to="1" begin="4s" dur="1s" repeatCount="0" fill="freeze" />
</path>
<path d="M50,33.43c0.55,0.45,1.29,2.22,1.29,2.84c0,4.98-0.1,10.64-0.1,12.87c0,6.61,2.57,7.11,10.48,7.11c2.95,0,9.3,0,11.83-0.89" style="fill:none;stroke:black;stroke-width:3;opacity:0">
  <animate attributeType="CSS" attributeName="opacity" from="0" to="1" begin="5s" dur="1s" repeatCount="0" fill="freeze" />
</path>
<path d="M49.47,65.97c0.06,0.73,0.12,1.9-0.11,2.95c-1.34,6.23-8.37,21.07-19.48,28.25" style="fill:none;stroke:black;stroke-width:3;opacity:0">
  <animate attributeType="CSS" attributeName="opacity" from="0" to="1" begin="6s" dur="1s" repeatCount="0" fill="freeze" />
</path>
<path d="M63.71,64c0.59,1.02,1.07,2.22,1.1,3.78c0.16,7-0.42,13.8-0.42,18.55c0,11.11,7.14,9.86,14.16,9.86c7.41,0,12.29-1.44,13.33-2.24c2.21-1.71,1.6-2.56,1.8-5.56" style="fill:none;stroke:black;stroke-width:3;opacity:0">
  <animate attributeType="CSS" attributeName="opacity" from="0" to="1" begin="7s" dur="1s" repeatCount="0" fill="freeze" />
</path>
</svg>