<svg width="109px" height="109px" viewBox="0 0 px 109px" xmlns="http://www.w3.org/2000/svg" xmlns:xlink="http://www.w3.org/1999/xlink" xml:space="preserve" version="1.1"  baseProfile="full">
<path d="M52.52,10.58c0.98,0.92,1.76,1.99,1.76,5.02c0,5.9-0.02,8.19-0.02,13.15" style="fill:none;stroke:black;stroke-width:3;opacity:0">
  <animate attributeType="CSS" attributeName="opacity" from="0" to="1" begin="0s" dur="1s" repeatCount="0" fill="freeze" />
</path>
<path d="M55.85,20.77C60.5,20,66.75,19,71.46,18.39c1.55-0.2,2.5,0.18,3.29,0.37" style="fill:none;stroke:black;stroke-width:3;opacity:0">
  <animate attributeType="CSS" attributeName="opacity" from="0" to="1" begin="1s" dur="1s" repeatCount="0" fill="freeze" />
</path>
<path d="M28.74,32.24c1.16,0.19,2.76,0.06,4.64-0.22C46.75,30,71.75,28,83.2,27.84c12.07-0.17,2.55,6.66-0.45,8.78" style="fill:none;stroke:black;stroke-width:3;opacity:0">
  <animate attributeType="CSS" attributeName="opacity" from="0" to="1" begin="2s" dur="1s" repeatCount="0" fill="freeze" />
</path>
<path d="M27.36,28.68c0.66,0.58,1.21,2.74,1.23,4.82C28.75,56.75,23,82,12.25,94.75" style="fill:none;stroke:black;stroke-width:3;opacity:0">
  <animate attributeType="CSS" attributeName="opacity" from="0" to="1" begin="3s" dur="1s" repeatCount="0" fill="freeze" />
</path>
<path d="M36.25,47.22c1.06,0.49,3.67,0.71,4.72,0.49c10.4-2.2,19.39-4.09,30.83-5.29c1.75-0.18,2.82,0.23,3.7,0.48" style="fill:none;stroke:black;stroke-width:3;opacity:0">
  <animate attributeType="CSS" attributeName="opacity" from="0" to="1" begin="4s" dur="1s" repeatCount="0" fill="freeze" />
</path>
<path d="M52.25,34.68c0.55,0.45,1.29,2.22,1.29,2.84c0,4.98-0.1,9.14-0.1,11.37c0,6.61,3.07,6.11,10.98,6.11c2.95,0,10.8,0,13.33-0.89" style="fill:none;stroke:black;stroke-width:3;opacity:0">
  <animate attributeType="CSS" attributeName="opacity" from="0" to="1" begin="5s" dur="1s" repeatCount="0" fill="freeze" />
</path>
<path d="M50.44,62.33c0.8,0.75,1.36,1.62,1.43,4.08c0.33,11.84-0.21,21.77-0.21,25.8" style="fill:none;stroke:black;stroke-width:3;opacity:0">
  <animate attributeType="CSS" attributeName="opacity" from="0" to="1" begin="6s" dur="1s" repeatCount="0" fill="freeze" />
</path>
<path d="M64.44,61.08c0.8,0.75,1.36,1.62,1.43,4.08c0.33,11.84-0.21,21.77-0.21,25.8" style="fill:none;stroke:black;stroke-width:3;opacity:0">
  <animate attributeType="CSS" attributeName="opacity" from="0" to="1" begin="7s" dur="1s" repeatCount="0" fill="freeze" />
</path>
<path d="M34,71.5c2.58,2.33,6.66,9.59,7.31,13.22" style="fill:none;stroke:black;stroke-width:3;opacity:0">
  <animate attributeType="CSS" attributeName="opacity" from="0" to="1" begin="8s" dur="1s" repeatCount="0" fill="freeze" />
</path>
<path d="M84.78,65.64c0.03,0.43,0.06,1.1-0.05,1.71c-0.65,3.61-4.37,11.54-9.47,16.39" style="fill:none;stroke:black;stroke-width:3;opacity:0">
  <animate attributeType="CSS" attributeName="opacity" from="0" to="1" begin="9s" dur="1s" repeatCount="0" fill="freeze" />
</path>
<path d="M28,94.07c1.57,0.57,4.46,0.73,6.02,0.57C50,93,72.81,91.12,87.75,91.12c2.62,0,4.19,0.27,5.5,0.56" style="fill:none;stroke:black;stroke-width:3;opacity:0">
  <animate attributeType="CSS" attributeName="opacity" from="0" to="1" begin="10s" dur="1s" repeatCount="0" fill="freeze" />
</path>
</svg>