<svg width="109px" height="109px" viewBox="0 0 px 109px" xmlns="http://www.w3.org/2000/svg" xmlns:xlink="http://www.w3.org/1999/xlink" xml:space="preserve" version="1.1"  baseProfile="full">
<path d="M12.81,18.41c0.61,0.4,1.23,0.73,1.49,1.24c2.1,3.97,2.62,10.43,4.06,17.57" style="fill:none;stroke:black;stroke-width:3;opacity:0">
  <animate attributeType="CSS" attributeName="opacity" from="0" to="1" begin="0s" dur="1s" repeatCount="Indefinite" fill="freeze" />
</path>
<path d="M15.09,19.95c7.16-1.2,18.05-3.15,21.45-3.68c1.25-0.19,2.99,1.46,2.81,2.6c-0.74,4.73-1.58,7.32-3.16,14.14" style="fill:none;stroke:black;stroke-width:3;opacity:0">
  <animate attributeType="CSS" attributeName="opacity" from="0" to="1" begin="1s" dur="1s" repeatCount="Indefinite" fill="freeze" />
</path>
<path d="M19.03,35.23c4-0.6,13.83-1.52,18.91-2.13" style="fill:none;stroke:black;stroke-width:3;opacity:0">
  <animate attributeType="CSS" attributeName="opacity" from="0" to="1" begin="2s" dur="1s" repeatCount="Indefinite" fill="freeze" />
</path>
<path d="M10,46.7c0.96,0.54,2.74,0.7,3.7,0.54c8.85-1.49,16.58-2.99,27.18-3.73c1.61-0.11,2.57,0.26,3.38,0.53" style="fill:none;stroke:black;stroke-width:3;opacity:0">
  <animate attributeType="CSS" attributeName="opacity" from="0" to="1" begin="3s" dur="1s" repeatCount="Indefinite" fill="freeze" />
</path>
<path d="M23.12,47c0.64,1,0.79,1.5,0,3c-0.79,1.5-4.87,7.75-6.47,9.75c-1.16,1.45,0,3.25,1.27,3s13.88-4.39,15.33-5c2.38-1,4.63-0.22,4.18,3.5c-1.27,10.5-6.41,26.14-8.76,31.25c-3.33,7.25-8.65,1.25-10.39-1" style="fill:none;stroke:black;stroke-width:3;opacity:0">
  <animate attributeType="CSS" attributeName="opacity" from="0" to="1" begin="4s" dur="1s" repeatCount="Indefinite" fill="freeze" />
</path>
<path d="M65.28,11.08c0.74,1.04,1.33,2.26,1.33,5.71c0,6.71-0.02,9.32-0.02,14.96" style="fill:none;stroke:black;stroke-width:3;opacity:0">
  <animate attributeType="CSS" attributeName="opacity" from="0" to="1" begin="5s" dur="1s" repeatCount="Indefinite" fill="freeze" />
</path>
<path d="M66.8,20.37c5.53-0.68,11.76-1.55,17.36-2.09c1.84-0.18,2.97,0.16,3.9,0.33" style="fill:none;stroke:black;stroke-width:3;opacity:0">
  <animate attributeType="CSS" attributeName="opacity" from="0" to="1" begin="6s" dur="1s" repeatCount="Indefinite" fill="freeze" />
</path>
<path d="M51.18,34.41c1.32,0.09,2.55-0.2,4.03-0.37c6.79-0.79,26.96-3.82,35.93-3.95c9.46-0.14,2,5.34-0.35,7.03" style="fill:none;stroke:black;stroke-width:3;opacity:0">
  <animate attributeType="CSS" attributeName="opacity" from="0" to="1" begin="7s" dur="1s" repeatCount="Indefinite" fill="freeze" />
</path>
<path d="M49.83,32.68c0.48,0.57,0.96,2.73,1.02,4.8C51.5,59.75,49.5,80,38.75,95.5" style="fill:none;stroke:black;stroke-width:3;opacity:0">
  <animate attributeType="CSS" attributeName="opacity" from="0" to="1" begin="8s" dur="1s" repeatCount="Indefinite" fill="freeze" />
</path>
<path d="M56.13,46.35c1,0.31,2.82,0.41,3.81,0.31C66.75,46,77,43.75,83.72,43c1.64-0.18,2.65,0.15,3.48,0.31" style="fill:none;stroke:black;stroke-width:3;opacity:0">
  <animate attributeType="CSS" attributeName="opacity" from="0" to="1" begin="9s" dur="1s" repeatCount="Indefinite" fill="freeze" />
</path>
<path d="M66.7,34.68c0.6,0.38,1.39,1.88,1.39,2.4c0,4.22-0.11,9.01-0.11,10.89c0,5.6,2.78,6.02,11.37,6.02c3.2,0,10.09,0,12.84-0.75" style="fill:none;stroke:black;stroke-width:3;opacity:0">
  <animate attributeType="CSS" attributeName="opacity" from="0" to="1" begin="10s" dur="1s" repeatCount="Indefinite" fill="freeze" />
</path>
<path d="M64.04,61.72c0.46,0.78,0.41,2.08,0.42,3.26c0.04,7.53-1.71,22.53-14.71,31.19" style="fill:none;stroke:black;stroke-width:3;opacity:0">
  <animate attributeType="CSS" attributeName="opacity" from="0" to="1" begin="11s" dur="1s" repeatCount="Indefinite" fill="freeze" />
</path>
<path d="M77.3,59.25c0.36,1.18,0.65,2.58,0.68,4.4c0.1,8.14-0.26,16.04-0.26,21.58c0,9.27,1.54,10.46,9.69,10.46c7.35,0,8.28-0.94,8.28-8.07" style="fill:none;stroke:black;stroke-width:3;opacity:0">
  <animate attributeType="CSS" attributeName="opacity" from="0" to="1" begin="12s" dur="1s" repeatCount="Indefinite" fill="freeze" />
</path>
</svg>