<svg width="109px" height="109px" viewBox="0 0 px 109px" xmlns="http://www.w3.org/2000/svg" xmlns:xlink="http://www.w3.org/1999/xlink" xml:space="preserve" version="1.1"  baseProfile="full">
<path d="M12.01,40.4c0.98,1.09,1.14,2.2,1.35,3.6c0.65,4.31,1.26,8.15,2.46,15.28c0.21,1.26,0.44,2.62,0.68,4.11" style="fill:none;stroke:black;stroke-width:3;opacity:0">
  <animate attributeType="CSS" attributeName="opacity" from="0" to="1" begin="0s" dur="1s" repeatCount="Indefinite" fill="freeze" />
</path>
<path d="M13.72,41.48c6.34-0.89,18.75-2.81,24.65-3.33c3.08-0.27,4.46,0.71,3.88,3.88c-0.81,4.45-1.63,7.33-2.88,14.95" style="fill:none;stroke:black;stroke-width:3;opacity:0">
  <animate attributeType="CSS" attributeName="opacity" from="0" to="1" begin="1s" dur="1s" repeatCount="Indefinite" fill="freeze" />
</path>
<path d="M16.76,61.43c4.62-0.81,13.21-1.73,20.46-2.62c1.51-0.19,2.96-0.36,4.3-0.52" style="fill:none;stroke:black;stroke-width:3;opacity:0">
  <animate attributeType="CSS" attributeName="opacity" from="0" to="1" begin="2s" dur="1s" repeatCount="Indefinite" fill="freeze" />
</path>
<path d="M25.92,20.75c1.1,1.1,1.26,2.75,1.26,4.47c0,4.54,0.05,40.03,0.05,53.66" style="fill:none;stroke:black;stroke-width:3;opacity:0">
  <animate attributeType="CSS" attributeName="opacity" from="0" to="1" begin="3s" dur="1s" repeatCount="Indefinite" fill="freeze" />
</path>
<path d="M11.57,86.52c0.89,0.89,1.81,1.23,3.06,0.57c2.51-1.32,20.5-11.46,25.76-14.22" style="fill:none;stroke:black;stroke-width:3;opacity:0">
  <animate attributeType="CSS" attributeName="opacity" from="0" to="1" begin="4s" dur="1s" repeatCount="Indefinite" fill="freeze" />
</path>
<path d="M37.25,65c2.67,2.98,6.89,12.26,7.56,16.89" style="fill:none;stroke:black;stroke-width:3;opacity:0">
  <animate attributeType="CSS" attributeName="opacity" from="0" to="1" begin="5s" dur="1s" repeatCount="Indefinite" fill="freeze" />
</path>
<path d="M65.38,15c1.19,1.19,1.48,2.75,1.48,4.51c0,4.32-0.1,9.2-0.1,13.61" style="fill:none;stroke:black;stroke-width:3;opacity:0">
  <animate attributeType="CSS" attributeName="opacity" from="0" to="1" begin="6s" dur="1s" repeatCount="Indefinite" fill="freeze" />
</path>
<path d="M48.28,36.1c2.13,0.26,4.06,0.45,6.23,0.15c7.6-1.07,21.54-3.15,29.87-3.88c2.04-0.18,4.65-0.66,6.61,0.19" style="fill:none;stroke:black;stroke-width:3;opacity:0">
  <animate attributeType="CSS" attributeName="opacity" from="0" to="1" begin="7s" dur="1s" repeatCount="Indefinite" fill="freeze" />
</path>
<path d="M78.24,37.87c0.44,1.24,0.34,2.6-0.28,4.88C72.28,63.54,59.38,80.88,42.29,93" style="fill:none;stroke:black;stroke-width:3;opacity:0">
  <animate attributeType="CSS" attributeName="opacity" from="0" to="1" begin="8s" dur="1s" repeatCount="Indefinite" fill="freeze" />
</path>
<path d="M50.75,48.25c3.44,1.5,20.73,22.15,32.74,35.5c3.26,3.62,6.38,6.25,10.24,8.32" style="fill:none;stroke:black;stroke-width:3;opacity:0">
  <animate attributeType="CSS" attributeName="opacity" from="0" to="1" begin="9s" dur="1s" repeatCount="Indefinite" fill="freeze" />
</path>
</svg>