<svg width="109px" height="109px" viewBox="0 0 px 109px" xmlns="http://www.w3.org/2000/svg" xmlns:xlink="http://www.w3.org/1999/xlink" xml:space="preserve" version="1.1"  baseProfile="full">
<path d="M11.26,34.37c0.46,0.62,1.02,1.7,1.12,2.52c0.87,7.06,1.87,16.21,3.12,26.76" style="fill:none;stroke:black;stroke-width:3;opacity:0">
  <animate attributeType="CSS" attributeName="opacity" from="0" to="1" begin="0s" dur="1s" repeatCount="0" fill="freeze" />
</path>
<path d="M12.72,36.4c6.93-1.19,21.11-2.68,26.13-3.13c1.96-0.18,2.86,1.68,2.62,3.46c-0.83,6.07-1.98,12.01-3.33,22.1" style="fill:none;stroke:black;stroke-width:3;opacity:0">
  <animate attributeType="CSS" attributeName="opacity" from="0" to="1" begin="1s" dur="1s" repeatCount="0" fill="freeze" />
</path>
<path d="M15.76,61.25C23,60,30.25,60,40.52,59.11" style="fill:none;stroke:black;stroke-width:3;opacity:0">
  <animate attributeType="CSS" attributeName="opacity" from="0" to="1" begin="2s" dur="1s" repeatCount="0" fill="freeze" />
</path>
<path d="M24.42,15.75c1.08,1,2.26,2.75,2.26,4.47c0,4.78-0.2,50.78-0.2,64.16" style="fill:none;stroke:black;stroke-width:3;opacity:0">
  <animate attributeType="CSS" attributeName="opacity" from="0" to="1" begin="3s" dur="1s" repeatCount="0" fill="freeze" />
</path>
<path d="M12.07,89.77c1.18,0.73,2.96,0.61,3.56,0.32c0.6-0.29,20.54-10.65,24.26-12.97" style="fill:none;stroke:black;stroke-width:3;opacity:0">
  <animate attributeType="CSS" attributeName="opacity" from="0" to="1" begin="4s" dur="1s" repeatCount="0" fill="freeze" />
</path>
<path d="M34.25,68.75c2.93,2.67,7.57,10.99,8.31,15.14" style="fill:none;stroke:black;stroke-width:3;opacity:0">
  <animate attributeType="CSS" attributeName="opacity" from="0" to="1" begin="5s" dur="1s" repeatCount="0" fill="freeze" />
</path>
<path d="M53.19,17.27c0.48,1.09,1.18,1.9,1.18,3.35c0,1.45-0.16,42.42,0,43.88" style="fill:none;stroke:black;stroke-width:3;opacity:0">
  <animate attributeType="CSS" attributeName="opacity" from="0" to="1" begin="6s" dur="1s" repeatCount="0" fill="freeze" />
</path>
<path d="M55.17,18.74c2.71-0.18,23.39-3.03,25.86-3.25c2.06-0.18,3.68,1.02,3.51,2.36c-0.22,1.71-0.96,43.8-0.96,44.89" style="fill:none;stroke:black;stroke-width:3;opacity:0">
  <animate attributeType="CSS" attributeName="opacity" from="0" to="1" begin="7s" dur="1s" repeatCount="0" fill="freeze" />
</path>
<path d="M55.12,33.06c3.88,0,22.99-2.95,27.34-2.95" style="fill:none;stroke:black;stroke-width:3;opacity:0">
  <animate attributeType="CSS" attributeName="opacity" from="0" to="1" begin="8s" dur="1s" repeatCount="0" fill="freeze" />
</path>
<path d="M55.34,46.97c7.87-0.52,20.16-2.22,27.8-2.68" style="fill:none;stroke:black;stroke-width:3;opacity:0">
  <animate attributeType="CSS" attributeName="opacity" from="0" to="1" begin="9s" dur="1s" repeatCount="0" fill="freeze" />
</path>
<path d="M56.04,61.84c5.39,0,19.82-2.18,26.8-2.18" style="fill:none;stroke:black;stroke-width:3;opacity:0">
  <animate attributeType="CSS" attributeName="opacity" from="0" to="1" begin="10s" dur="1s" repeatCount="0" fill="freeze" />
</path>
<path d="M62.24,65.75c0.06,0.74,0.14,1.92-0.13,2.98C60.53,75.01,52.25,90,39,97.25" style="fill:none;stroke:black;stroke-width:3;opacity:0">
  <animate attributeType="CSS" attributeName="opacity" from="0" to="1" begin="11s" dur="1s" repeatCount="0" fill="freeze" />
</path>
<path d="M72.36,61.97c0.43,1.1,0.8,2.4,0.8,4.11c0,5.93,0.18,11.32,0.18,16.69c0,10.99,1.42,12.34,10.66,12.34c10.25,0,11.75-1.36,11.75-9.45" style="fill:none;stroke:black;stroke-width:3;opacity:0">
  <animate attributeType="CSS" attributeName="opacity" from="0" to="1" begin="12s" dur="1s" repeatCount="0" fill="freeze" />
</path>
</svg>