<svg width="109px" height="109px" viewBox="0 0 px 109px" xmlns="http://www.w3.org/2000/svg" xmlns:xlink="http://www.w3.org/1999/xlink" xml:space="preserve" version="1.1"  baseProfile="full">
<path d="M24.75,18.72c1.26-0.09,2.79,0.35,4.5,0.19c13-1.17,35-4.67,42.46-6.17c2.49-0.5,3.14,1.81,2.93,3.76c-1.14,10.24-2.89,26.74,12.89,33.31c7.88,3.28,7.97,1.43,6.47-3.93" style="fill:none;stroke:black;stroke-width:3;opacity:0">
  <animate attributeType="CSS" attributeName="opacity" from="0" to="1" begin="0s" dur="1s" repeatCount="Indefinite" fill="freeze" />
</path>
<path d="M23.25,34.39c1.21,0.38,3.42,0.42,4.63,0.38c9.87-0.27,27.62-3.27,36.14-4.38c1.99-0.26,3.22,0.18,4.23,0.37" style="fill:none;stroke:black;stroke-width:3;opacity:0">
  <animate attributeType="CSS" attributeName="opacity" from="0" to="1" begin="1s" dur="1s" repeatCount="Indefinite" fill="freeze" />
</path>
<path d="M49.25,22.64c0.5,0.61,0.43,1.65,0.38,2.61C49.25,33,42.25,46,28.56,50.22" style="fill:none;stroke:black;stroke-width:3;opacity:0">
  <animate attributeType="CSS" attributeName="opacity" from="0" to="1" begin="2s" dur="1s" repeatCount="Indefinite" fill="freeze" />
</path>
<path d="M18.49,62.8c0.48,0.33,0.83,1.14,0.92,1.58c0.65,3.14,1.82,9.28,2.74,15.23" style="fill:none;stroke:black;stroke-width:3;opacity:0">
  <animate attributeType="CSS" attributeName="opacity" from="0" to="1" begin="3s" dur="1s" repeatCount="Indefinite" fill="freeze" />
</path>
<path d="M19.76,64.07c7.33-0.63,23.38-2.44,28.68-2.68c2.07-0.09,2.16,1,1.96,2.4c-0.48,3.25-0.77,5.12-2.19,10.48" style="fill:none;stroke:black;stroke-width:3;opacity:0">
  <animate attributeType="CSS" attributeName="opacity" from="0" to="1" begin="4s" dur="1s" repeatCount="Indefinite" fill="freeze" />
</path>
<path d="M21.92,76.84c5.9-0.63,18.98-2.11,27.23-2.7" style="fill:none;stroke:black;stroke-width:3;opacity:0">
  <animate attributeType="CSS" attributeName="opacity" from="0" to="1" begin="5s" dur="1s" repeatCount="Indefinite" fill="freeze" />
</path>
<path d="M33.11,53.5c0.68,0.24,1.08,1.09,1.22,1.58c0.14,0.49,0,32.91-0.13,35.95" style="fill:none;stroke:black;stroke-width:3;opacity:0">
  <animate attributeType="CSS" attributeName="opacity" from="0" to="1" begin="6s" dur="1s" repeatCount="Indefinite" fill="freeze" />
</path>
<path d="M17.25,94.62c0.77,0.57,2.24,1.29,3.01,1.15c0.77-0.14,20.24-6.51,26.99-8.38" style="fill:none;stroke:black;stroke-width:3;opacity:0">
  <animate attributeType="CSS" attributeName="opacity" from="0" to="1" begin="7s" dur="1s" repeatCount="Indefinite" fill="freeze" />
</path>
<path d="M43.99,81.22c2.37,2.43,6.13,9.97,6.72,13.75" style="fill:none;stroke:black;stroke-width:3;opacity:0">
  <animate attributeType="CSS" attributeName="opacity" from="0" to="1" begin="8s" dur="1s" repeatCount="Indefinite" fill="freeze" />
</path>
<path d="M56.99,60.82c0.55,0.33,0.95,1.16,1.05,1.6c0.75,3.19,1.02,7.89,2.08,13.93" style="fill:none;stroke:black;stroke-width:3;opacity:0">
  <animate attributeType="CSS" attributeName="opacity" from="0" to="1" begin="9s" dur="1s" repeatCount="Indefinite" fill="freeze" />
</path>
<path d="M58.45,62.11c8.42-0.64,23.35-2.48,29.44-2.72c2.38-0.09,2.48,1.02,2.25,2.44c-0.55,3.29-0.88,5.2-2.52,10.64" style="fill:none;stroke:black;stroke-width:3;opacity:0">
  <animate attributeType="CSS" attributeName="opacity" from="0" to="1" begin="10s" dur="1s" repeatCount="Indefinite" fill="freeze" />
</path>
<path d="M60.43,74.57c6.77-0.64,19.8-1.63,29.28-2.23" style="fill:none;stroke:black;stroke-width:3;opacity:0">
  <animate attributeType="CSS" attributeName="opacity" from="0" to="1" begin="11s" dur="1s" repeatCount="Indefinite" fill="freeze" />
</path>
<path d="M72.11,49c0.68,0.29,1.08,1.31,1.22,1.9c0.14,0.58,0,36.23-0.13,39.89" style="fill:none;stroke:black;stroke-width:3;opacity:0">
  <animate attributeType="CSS" attributeName="opacity" from="0" to="1" begin="12s" dur="1s" repeatCount="Indefinite" fill="freeze" />
</path>
<path d="M57.75,93.12c0.77,0.57,1.74,1.29,2.51,1.15c0.77-0.14,24.19-5.23,28.99-6.38" style="fill:none;stroke:black;stroke-width:3;opacity:0">
  <animate attributeType="CSS" attributeName="opacity" from="0" to="1" begin="13s" dur="1s" repeatCount="Indefinite" fill="freeze" />
</path>
<path d="M83.24,81.47c3.87,2.65,10,10.88,10.97,15" style="fill:none;stroke:black;stroke-width:3;opacity:0">
  <animate attributeType="CSS" attributeName="opacity" from="0" to="1" begin="14s" dur="1s" repeatCount="Indefinite" fill="freeze" />
</path>
</svg>