<svg width="109px" height="109px" viewBox="0 0 px 109px" xmlns="http://www.w3.org/2000/svg" xmlns:xlink="http://www.w3.org/1999/xlink" xml:space="preserve" version="1.1"  baseProfile="full">
<path d="M41.44,9.5c0.62,1.02,0.88,2.65,0.31,4.18c-1.25,3.37-2.62,7.04-4.39,9.86c-0.74,1.18,0.19,1.92,1.71,1.71c6.31-0.88,17.35-1.84,26.73-2.47" style="fill:none;stroke:black;stroke-width:3;opacity:0">
  <animate attributeType="CSS" attributeName="opacity" from="0" to="1" begin="0s" dur="1s" repeatCount="0" fill="freeze" />
</path>
<path d="M40.96,17.14c5.29-0.39,23.77-2.17,25.92-2.36c1.79-0.16,2.53,0.9,2.23,2.02c-1.1,4.17-3.6,7.82-4.99,11.93" style="fill:none;stroke:black;stroke-width:3;opacity:0">
  <animate attributeType="CSS" attributeName="opacity" from="0" to="1" begin="1s" dur="1s" repeatCount="0" fill="freeze" />
</path>
<path d="M17.63,32.73c1.4,0.64,3.97,0.78,5.37,0.64C39.5,31.75,71.25,29,86.72,29c2.33,0,3.74,0.31,4.9,0.63" style="fill:none;stroke:black;stroke-width:3;opacity:0">
  <animate attributeType="CSS" attributeName="opacity" from="0" to="1" begin="2s" dur="1s" repeatCount="0" fill="freeze" />
</path>
<path d="M55.58,33.23c0.07,0.24,0.15,0.62-0.14,0.96c-1.67,2.02-11.28,6.46-24.41,9.18" style="fill:none;stroke:black;stroke-width:3;opacity:0">
  <animate attributeType="CSS" attributeName="opacity" from="0" to="1" begin="3s" dur="1s" repeatCount="0" fill="freeze" />
</path>
<path d="M51.45,37.01c4.8,5.49,7.55,12.74,5.69,22.86c-1.12,6.07-4.38,4.13-6.72,0.03" style="fill:none;stroke:black;stroke-width:3;opacity:0">
  <animate attributeType="CSS" attributeName="opacity" from="0" to="1" begin="4s" dur="1s" repeatCount="0" fill="freeze" />
</path>
<path d="M51.44,40.51c0.07,0.29,0.14,0.75-0.13,1.17c-1.59,2.47-10.74,7.89-23.26,11.21" style="fill:none;stroke:black;stroke-width:3;opacity:0">
  <animate attributeType="CSS" attributeName="opacity" from="0" to="1" begin="5s" dur="1s" repeatCount="0" fill="freeze" />
</path>
<path d="M53.85,47.35c0.08,0.32,0.17,0.83-0.16,1.29c-1.99,2.73-13.44,8.72-29.09,12.39" style="fill:none;stroke:black;stroke-width:3;opacity:0">
  <animate attributeType="CSS" attributeName="opacity" from="0" to="1" begin="6s" dur="1s" repeatCount="0" fill="freeze" />
</path>
<path d="M73.59,33.5c0.04,0.27,0.09,0.69-0.09,1.07c-1.06,2.25-7.17,7.19-15.54,10.22" style="fill:none;stroke:black;stroke-width:3;opacity:0">
  <animate attributeType="CSS" attributeName="opacity" from="0" to="1" begin="7s" dur="1s" repeatCount="0" fill="freeze" />
</path>
<path d="M58.82,45.4c3.84,1.79,20.66,10.28,24.83,12.04c1.41,0.6,2.62,0.85,4.04,1.03" style="fill:none;stroke:black;stroke-width:3;opacity:0">
  <animate attributeType="CSS" attributeName="opacity" from="0" to="1" begin="8s" dur="1s" repeatCount="0" fill="freeze" />
</path>
<path d="M18.34,71.55c0.4,0.27,0.68,0.94,0.75,1.3c0.54,2.58,1.5,7.63,2.25,12.51" style="fill:none;stroke:black;stroke-width:3;opacity:0">
  <animate attributeType="CSS" attributeName="opacity" from="0" to="1" begin="9s" dur="1s" repeatCount="0" fill="freeze" />
</path>
<path d="M19.39,72.59c6.02-0.52,24.21-2,28.57-2.2c1.7-0.08,1.78,0.82,1.61,1.97c-0.39,2.67-1.13,4.21-2.3,8.61" style="fill:none;stroke:black;stroke-width:3;opacity:0">
  <animate attributeType="CSS" attributeName="opacity" from="0" to="1" begin="10s" dur="1s" repeatCount="0" fill="freeze" />
</path>
<path d="M21.16,83.08c4.85-0.52,20.6-1.73,27.38-2.22" style="fill:none;stroke:black;stroke-width:3;opacity:0">
  <animate attributeType="CSS" attributeName="opacity" from="0" to="1" begin="11s" dur="1s" repeatCount="0" fill="freeze" />
</path>
<path d="M33.11,63c0.68,0.4,1.08,1.78,1.22,2.57c0.14,0.79,0,23.52-0.13,28.46" style="fill:none;stroke:black;stroke-width:3;opacity:0">
  <animate attributeType="CSS" attributeName="opacity" from="0" to="1" begin="12s" dur="1s" repeatCount="0" fill="freeze" />
</path>
<path d="M16.75,97.72c0.77,0.52,2.24,1.17,3.01,1.04c0.77-0.13,19.74-5.43,26.49-7.13" style="fill:none;stroke:black;stroke-width:3;opacity:0">
  <animate attributeType="CSS" attributeName="opacity" from="0" to="1" begin="13s" dur="1s" repeatCount="0" fill="freeze" />
</path>
<path d="M42.49,85.97c2.55,2.29,6.58,9.43,7.22,13" style="fill:none;stroke:black;stroke-width:3;opacity:0">
  <animate attributeType="CSS" attributeName="opacity" from="0" to="1" begin="14s" dur="1s" repeatCount="0" fill="freeze" />
</path>
<path d="M56.68,70.34c0.46,0.28,0.79,0.97,0.88,1.34c0.63,2.67,1.36,6.62,2.24,11.68" style="fill:none;stroke:black;stroke-width:3;opacity:0">
  <animate attributeType="CSS" attributeName="opacity" from="0" to="1" begin="15s" dur="1s" repeatCount="0" fill="freeze" />
</path>
<path d="M57.91,71.42c7.05-0.54,24.07-2.58,29.17-2.78c1.99-0.08,2.08,0.85,1.88,2.04c-0.46,2.76-0.74,4.36-2.11,8.92" style="fill:none;stroke:black;stroke-width:3;opacity:0">
  <animate attributeType="CSS" attributeName="opacity" from="0" to="1" begin="16s" dur="1s" repeatCount="0" fill="freeze" />
</path>
<path d="M60.06,81.86c5.68-0.54,21.1-1.87,29.04-2.37" style="fill:none;stroke:black;stroke-width:3;opacity:0">
  <animate attributeType="CSS" attributeName="opacity" from="0" to="1" begin="17s" dur="1s" repeatCount="0" fill="freeze" />
</path>
<path d="M72.11,59c0.68,0.41,1.08,1.82,1.22,2.63c0.14,0.81,0,27.82-0.13,32.87" style="fill:none;stroke:black;stroke-width:3;opacity:0">
  <animate attributeType="CSS" attributeName="opacity" from="0" to="1" begin="18s" dur="1s" repeatCount="0" fill="freeze" />
</path>
<path d="M56.75,97.84c0.79,0.71,1.78,1.59,2.57,1.42c0.79-0.18,24.77-6.46,29.68-7.88" style="fill:none;stroke:black;stroke-width:3;opacity:0">
  <animate attributeType="CSS" attributeName="opacity" from="0" to="1" begin="19s" dur="1s" repeatCount="0" fill="freeze" />
</path>
<path d="M83.24,84.97c3.7,2.56,9.54,10.52,10.47,14.5" style="fill:none;stroke:black;stroke-width:3;opacity:0">
  <animate attributeType="CSS" attributeName="opacity" from="0" to="1" begin="20s" dur="1s" repeatCount="0" fill="freeze" />
</path>
</svg>