<svg width="109px" height="109px" viewBox="0 0 px 109px" xmlns="http://www.w3.org/2000/svg" xmlns:xlink="http://www.w3.org/1999/xlink" xml:space="preserve" version="1.1"  baseProfile="full">
<path d="M20,26.11c3.38,0.51,6.42,0.32,9.63-0.04c12.74-1.44,35.17-3.36,49.86-4.54c3.4-0.27,6.91-0.31,10.26,0.37" style="fill:none;stroke:black;stroke-width:3;opacity:0">
  <animate attributeType="CSS" attributeName="opacity" from="0" to="1" begin="0s" dur="1s" repeatCount="0" fill="freeze" />
</path>
<path d="M29,37.04c0.92,0.92,1.64,2.25,1.74,2.67c1.16,5.03,1.72,7.96,2.39,11.76c0.2,1.14,0.41,2.36,0.65,3.73" style="fill:none;stroke:black;stroke-width:3;opacity:0">
  <animate attributeType="CSS" attributeName="opacity" from="0" to="1" begin="1s" dur="1s" repeatCount="0" fill="freeze" />
</path>
<path d="M31.39,38.32c11.75-1.18,35-3.85,42.73-4.47c3.44-0.28,4.67,0.85,3.86,4.15C77,42,76.33,44.87,75.42,48.31" style="fill:none;stroke:black;stroke-width:3;opacity:0">
  <animate attributeType="CSS" attributeName="opacity" from="0" to="1" begin="2s" dur="1s" repeatCount="0" fill="freeze" />
</path>
<path d="M34.29,52.75c6.19-0.39,25.46-2.59,37.22-3.35c2.46-0.16,4.6-0.29,6.24-0.37" style="fill:none;stroke:black;stroke-width:3;opacity:0">
  <animate attributeType="CSS" attributeName="opacity" from="0" to="1" begin="3s" dur="1s" repeatCount="0" fill="freeze" />
</path>
<path d="M52.75,11.75c1.06,1.06,1.5,2.62,1.5,4c0,10.5,0,25.75,0,34.25" style="fill:none;stroke:black;stroke-width:3;opacity:0">
  <animate attributeType="CSS" attributeName="opacity" from="0" to="1" begin="4s" dur="1s" repeatCount="0" fill="freeze" />
</path>
<path d="M50.97,54.13c0.09,0.69,0.02,1.71-0.68,2.53C45,62.88,36.5,71.75,18.06,83.06" style="fill:none;stroke:black;stroke-width:3;opacity:0">
  <animate attributeType="CSS" attributeName="opacity" from="0" to="1" begin="5s" dur="1s" repeatCount="0" fill="freeze" />
</path>
<path d="M42.62,69.33c0.73,0.73,1,1.45,1,2.67c0,9.85,0.05,19.15,0.05,20.81c0,1.67,1.18,2.61,2.68,1.36c1.5-1.25,10.52-9.3,14.6-12.62" style="fill:none;stroke:black;stroke-width:3;opacity:0">
  <animate attributeType="CSS" attributeName="opacity" from="0" to="1" begin="6s" dur="1s" repeatCount="0" fill="freeze" />
</path>
<path d="M78.63,54.42c0.03,0.3-0.39,1.2-0.59,1.6c-1.27,2.48-5.25,6.02-11.73,10.96" style="fill:none;stroke:black;stroke-width:3;opacity:0">
  <animate attributeType="CSS" attributeName="opacity" from="0" to="1" begin="7s" dur="1s" repeatCount="0" fill="freeze" />
</path>
<path d="M55.25,60.88c1.4,0.7,18.58,15.2,27.53,22.12c2.86,2.21,6.72,4.25,9.22,5.16" style="fill:none;stroke:black;stroke-width:3;opacity:0">
  <animate attributeType="CSS" attributeName="opacity" from="0" to="1" begin="8s" dur="1s" repeatCount="0" fill="freeze" />
</path>
</svg>