<svg width="109px" height="109px" viewBox="0 0 px 109px" xmlns="http://www.w3.org/2000/svg" xmlns:xlink="http://www.w3.org/1999/xlink" xml:space="preserve" version="1.1"  baseProfile="full">
<path d="M23.33,13.25c3.41,2.71,7.07,6.77,10,11.5" style="fill:none;stroke:black;stroke-width:3;opacity:0">
  <animate attributeType="CSS" attributeName="opacity" from="0" to="1" begin="0s" dur="1s" repeatCount="0" fill="freeze" />
</path>
<path d="M14.2,36.36c0.94,0.39,2.36,0.81,3.96,0.61c3.84-0.47,17.87-3.83,20.19-4.49c2.33-0.66,4.58,0.83,3.26,2.85C33.86,47.15,24.4,60.02,13,69" style="fill:none;stroke:black;stroke-width:3;opacity:0">
  <animate attributeType="CSS" attributeName="opacity" from="0" to="1" begin="1s" dur="1s" repeatCount="0" fill="freeze" />
</path>
<path d="M30,52.61c0.12,0.29,1.65,1.53,1.77,3.39c0.57,8.93,0.06,35.7,0.06,38.75" style="fill:none;stroke:black;stroke-width:3;opacity:0">
  <animate attributeType="CSS" attributeName="opacity" from="0" to="1" begin="2s" dur="1s" repeatCount="0" fill="freeze" />
</path>
<path d="M45.31,44.89c0.15,0.91,0.3,1.16,0,1.82c-0.92,2-3.76,6.92-5.61,9.29" style="fill:none;stroke:black;stroke-width:3;opacity:0">
  <animate attributeType="CSS" attributeName="opacity" from="0" to="1" begin="3s" dur="1s" repeatCount="0" fill="freeze" />
</path>
<path d="M35.08,56.75c3.59,2.18,7.43,5.44,10.5,9.25" style="fill:none;stroke:black;stroke-width:3;opacity:0">
  <animate attributeType="CSS" attributeName="opacity" from="0" to="1" begin="4s" dur="1s" repeatCount="0" fill="freeze" />
</path>
<path d="M70.41,16c0.5,1.02,0.68,2.31,0.46,3.15c-1.63,6.18-5.21,17.27-10.68,24.31" style="fill:none;stroke:black;stroke-width:3;opacity:0">
  <animate attributeType="CSS" attributeName="opacity" from="0" to="1" begin="5s" dur="1s" repeatCount="0" fill="freeze" />
</path>
<path d="M53.8,43.87c0.59,1.21,1.19,2.22,1.19,3.83c0,1.61,0.69,35.64,0.69,45.3" style="fill:none;stroke:black;stroke-width:3;opacity:0">
  <animate attributeType="CSS" attributeName="opacity" from="0" to="1" begin="6s" dur="1s" repeatCount="0" fill="freeze" />
</path>
<path d="M54.85,45.74c3.35-0.2,30.57-3.29,33.62-3.64c1.94-0.22,2.73,1.32,2.72,3.86c-0.01,4.34-1.03,32-1.66,45.29" style="fill:none;stroke:black;stroke-width:3;opacity:0">
  <animate attributeType="CSS" attributeName="opacity" from="0" to="1" begin="7s" dur="1s" repeatCount="0" fill="freeze" />
</path>
<path d="M55.31,64.93c7.03-0.61,29.92-3.3,35.05-3.3" style="fill:none;stroke:black;stroke-width:3;opacity:0">
  <animate attributeType="CSS" attributeName="opacity" from="0" to="1" begin="8s" dur="1s" repeatCount="0" fill="freeze" />
</path>
<path d="M56.48,89.35c8.41-0.65,24.38-2.19,33.35-2.49" style="fill:none;stroke:black;stroke-width:3;opacity:0">
  <animate attributeType="CSS" attributeName="opacity" from="0" to="1" begin="9s" dur="1s" repeatCount="0" fill="freeze" />
</path>
</svg>