<svg width="109px" height="109px" viewBox="0 0 px 109px" xmlns="http://www.w3.org/2000/svg" xmlns:xlink="http://www.w3.org/1999/xlink" xml:space="preserve" version="1.1"  baseProfile="full">
<path d="M19.83,14c3.07,2.53,6.37,6.32,9,10.75" style="fill:none;stroke:black;stroke-width:3;opacity:0">
  <animate attributeType="CSS" attributeName="opacity" from="0" to="1" begin="0s" dur="1s" repeatCount="Indefinite" fill="freeze" />
</path>
<path d="M11.2,35.86c0.94,0.39,2.41,1.05,3.96,0.61c1.9-0.54,17.37-4.83,19.69-5.49c2.33-0.66,3.87,0.21,2.76,2.35C31.25,45.5,20.9,60.02,9.5,69" style="fill:none;stroke:black;stroke-width:3;opacity:0">
  <animate attributeType="CSS" attributeName="opacity" from="0" to="1" begin="1s" dur="1s" repeatCount="Indefinite" fill="freeze" />
</path>
<path d="M26.5,51.11c0.12,0.29,1.65,1.53,1.77,3.39c0.57,8.93,0.06,38.2,0.06,41.25" style="fill:none;stroke:black;stroke-width:3;opacity:0">
  <animate attributeType="CSS" attributeName="opacity" from="0" to="1" begin="2s" dur="1s" repeatCount="Indefinite" fill="freeze" />
</path>
<path d="M39.3,45.39c0.16,0.91,0.32,1.16,0,1.82c-0.96,2-3.93,6.92-5.85,9.29" style="fill:none;stroke:black;stroke-width:3;opacity:0">
  <animate attributeType="CSS" attributeName="opacity" from="0" to="1" begin="3s" dur="1s" repeatCount="Indefinite" fill="freeze" />
</path>
<path d="M30.33,56.25c3.16,3,6.54,7.5,9.25,12.75" style="fill:none;stroke:black;stroke-width:3;opacity:0">
  <animate attributeType="CSS" attributeName="opacity" from="0" to="1" begin="4s" dur="1s" repeatCount="Indefinite" fill="freeze" />
</path>
<path d="M59.42,13.52c0.19,2.07-0.05,4.79-0.64,6.56c-3.79,11.32-7.85,22.47-16.53,36.25" style="fill:none;stroke:black;stroke-width:3;opacity:0">
  <animate attributeType="CSS" attributeName="opacity" from="0" to="1" begin="5s" dur="1s" repeatCount="Indefinite" fill="freeze" />
</path>
<path d="M51.6,47.73c0.18,0.99,1.19,2.24,1.19,3.73c0,13.29,0.65,32.29,0.65,42.04" style="fill:none;stroke:black;stroke-width:3;opacity:0">
  <animate attributeType="CSS" attributeName="opacity" from="0" to="1" begin="6s" dur="1s" repeatCount="Indefinite" fill="freeze" />
</path>
<path d="M89.66,13.75c0.07,0.46,0.28,1.32-0.14,1.84c-5.2,6.46-12.89,12.4-26.44,17.61" style="fill:none;stroke:black;stroke-width:3;opacity:0">
  <animate attributeType="CSS" attributeName="opacity" from="0" to="1" begin="7s" dur="1s" repeatCount="Indefinite" fill="freeze" />
</path>
<path d="M56.76,57.03c0.75,0.35,3.13,0.9,3.88,0.85c7.81-0.58,24.35-3.42,33.28-3.4c1.25,0,2,0.17,2.63,0.34" style="fill:none;stroke:black;stroke-width:3;opacity:0">
  <animate attributeType="CSS" attributeName="opacity" from="0" to="1" begin="8s" dur="1s" repeatCount="Indefinite" fill="freeze" />
</path>
<path d="M76.62,31.26c0.56,0.49,0.89,2.19,1,3.16c0.11,0.97,0,48.4-0.11,54.48" style="fill:none;stroke:black;stroke-width:3;opacity:0">
  <animate attributeType="CSS" attributeName="opacity" from="0" to="1" begin="9s" dur="1s" repeatCount="Indefinite" fill="freeze" />
</path>
<path d="M60.52,89.46c0.66,0.42,1.87,0.46,2.53,0.42c8.72-0.5,20.95-1.38,30.56-1.9c1.1-0.06,1.76,0.2,2.31,0.41" style="fill:none;stroke:black;stroke-width:3;opacity:0">
  <animate attributeType="CSS" attributeName="opacity" from="0" to="1" begin="10s" dur="1s" repeatCount="Indefinite" fill="freeze" />
</path>
</svg>