<svg width="109px" height="109px" viewBox="0 0 px 109px" xmlns="http://www.w3.org/2000/svg" xmlns:xlink="http://www.w3.org/1999/xlink" xml:space="preserve" version="1.1"  baseProfile="full">
<path d="M25.62,13.38c3.14,2.09,6.51,5.22,9.2,8.87" style="fill:none;stroke:black;stroke-width:3;opacity:0">
  <animate attributeType="CSS" attributeName="opacity" from="0" to="1" begin="0s" dur="1s" repeatCount="Indefinite" fill="freeze" />
</path>
<path d="M15.2,33.86c1.74,0.73,3.27,0.72,5.11,0.38C27,33,35,31,39.35,29.72c2.32-0.68,3.58,1.08,2.26,3.1C33.86,44.65,24,58,12,69.5" style="fill:none;stroke:black;stroke-width:3;opacity:0">
  <animate attributeType="CSS" attributeName="opacity" from="0" to="1" begin="1s" dur="1s" repeatCount="Indefinite" fill="freeze" />
</path>
<path d="M29.25,52.61c0.94,0.94,1.52,1.89,1.52,3.39c0,5.29,0.04,27.75,0.05,38.25c0,2.42,0,4.2,0,5" style="fill:none;stroke:black;stroke-width:3;opacity:0">
  <animate attributeType="CSS" attributeName="opacity" from="0" to="1" begin="2s" dur="1s" repeatCount="Indefinite" fill="freeze" />
</path>
<path d="M42.5,47.39c0.2,0.85-0.1,1.83-0.5,2.45c-1.2,1.87-4.65,5.45-7.05,7.66" style="fill:none;stroke:black;stroke-width:3;opacity:0">
  <animate attributeType="CSS" attributeName="opacity" from="0" to="1" begin="3s" dur="1s" repeatCount="Indefinite" fill="freeze" />
</path>
<path d="M33.58,59.12c3.16,2.38,6.54,5.95,9.25,10.12" style="fill:none;stroke:black;stroke-width:3;opacity:0">
  <animate attributeType="CSS" attributeName="opacity" from="0" to="1" begin="4s" dur="1s" repeatCount="Indefinite" fill="freeze" />
</path>
<path d="M51,28.45c2.53,0.75,5.3,0.37,7.87,0.1c8.25-0.86,21.18-2.43,30.88-3.03c2.45-0.15,4.86-0.39,7.25,0.28" style="fill:none;stroke:black;stroke-width:3;opacity:0">
  <animate attributeType="CSS" attributeName="opacity" from="0" to="1" begin="5s" dur="1s" repeatCount="Indefinite" fill="freeze" />
</path>
<path d="M51.66,42.86C52.59,43.79,53,45,53,46.31c0,0.6,0.17,26.93,0.08,41.44c-0.02,3.69-0.04,6.53-0.03,7.87" style="fill:none;stroke:black;stroke-width:3;opacity:0">
  <animate attributeType="CSS" attributeName="opacity" from="0" to="1" begin="6s" dur="1s" repeatCount="Indefinite" fill="freeze" />
</path>
<path d="M54.35,45.3c7.6-0.84,29.16-3.27,34.42-3.89c3.17-0.37,4.75,0.82,4.73,3.96c-0.04,4.78-0.11,30.43-0.11,46.34c0,11.98-5.76,3.41-7.79,1.32" style="fill:none;stroke:black;stroke-width:3;opacity:0">
  <animate attributeType="CSS" attributeName="opacity" from="0" to="1" begin="7s" dur="1s" repeatCount="Indefinite" fill="freeze" />
</path>
<path d="M54.35,59.86c9.65-0.98,28.53-2.98,37.63-3.33" style="fill:none;stroke:black;stroke-width:3;opacity:0">
  <animate attributeType="CSS" attributeName="opacity" from="0" to="1" begin="8s" dur="1s" repeatCount="Indefinite" fill="freeze" />
</path>
<path d="M54.27,75.54c5.83-0.55,30.71-2.79,37.46-3.16" style="fill:none;stroke:black;stroke-width:3;opacity:0">
  <animate attributeType="CSS" attributeName="opacity" from="0" to="1" begin="9s" dur="1s" repeatCount="Indefinite" fill="freeze" />
</path>
<path d="M70.2,13.3c1.06,1.06,1.57,2.2,1.57,3.85c0,0.87-0.01,55.1-0.01,74.6c0,3.49,0,5.87,0,6.63" style="fill:none;stroke:black;stroke-width:3;opacity:0">
  <animate attributeType="CSS" attributeName="opacity" from="0" to="1" begin="10s" dur="1s" repeatCount="Indefinite" fill="freeze" />
</path>
<path d="M82.5,10.5c2.75,1.62,6.5,4.75,8,7.5" style="fill:none;stroke:black;stroke-width:3;opacity:0">
  <animate attributeType="CSS" attributeName="opacity" from="0" to="1" begin="11s" dur="1s" repeatCount="Indefinite" fill="freeze" />
</path>
</svg>