<svg width="109px" height="109px" viewBox="0 0 px 109px" xmlns="http://www.w3.org/2000/svg" xmlns:xlink="http://www.w3.org/1999/xlink" xml:space="preserve" version="1.1"  baseProfile="full">
<path d="M22.58,14.5c2.65,2.18,5.48,5.44,7.75,9.25" style="fill:none;stroke:black;stroke-width:3;opacity:0">
  <animate attributeType="CSS" attributeName="opacity" from="0" to="1" begin="0s" dur="1s" repeatCount="Indefinite" fill="freeze" />
</path>
<path d="M13.2,35.86c0.94,0.39,2.41,1.05,3.96,0.61c1.9-0.54,17.37-4.83,19.69-5.49c2.33-0.66,3.92,0.73,2.76,2.85C32.5,46.75,22.4,59.52,11,68.5" style="fill:none;stroke:black;stroke-width:3;opacity:0">
  <animate attributeType="CSS" attributeName="opacity" from="0" to="1" begin="1s" dur="1s" repeatCount="Indefinite" fill="freeze" />
</path>
<path d="M26.5,54.61c0.12,0.29,1.65,1.53,1.77,3.39c0.57,8.93,0.06,37.2,0.06,40.25" style="fill:none;stroke:black;stroke-width:3;opacity:0">
  <animate attributeType="CSS" attributeName="opacity" from="0" to="1" begin="2s" dur="1s" repeatCount="Indefinite" fill="freeze" />
</path>
<path d="M41.75,46.89c0.2,0.85,0.4,1.08,0,1.7c-1.2,1.87-4.9,6.45-7.3,8.66" style="fill:none;stroke:black;stroke-width:3;opacity:0">
  <animate attributeType="CSS" attributeName="opacity" from="0" to="1" begin="3s" dur="1s" repeatCount="Indefinite" fill="freeze" />
</path>
<path d="M31.33,58.75c3.33,2.29,6.9,5.73,9.75,9.75" style="fill:none;stroke:black;stroke-width:3;opacity:0">
  <animate attributeType="CSS" attributeName="opacity" from="0" to="1" begin="4s" dur="1s" repeatCount="Indefinite" fill="freeze" />
</path>
<path d="M48.88,20.5c0.3,0.57,1.31,2.46,1.47,3.17c1.35,5.88,2.6,21.23,3.44,32.19" style="fill:none;stroke:black;stroke-width:3;opacity:0">
  <animate attributeType="CSS" attributeName="opacity" from="0" to="1" begin="5s" dur="1s" repeatCount="Indefinite" fill="freeze" />
</path>
<path d="M50.28,22.29c10.48-1.48,29.97-3.29,38.71-3.73c2.91-0.15,4.35,1.16,4.2,2.77C92.65,27.26,91,44,88.54,54.3" style="fill:none;stroke:black;stroke-width:3;opacity:0">
  <animate attributeType="CSS" attributeName="opacity" from="0" to="1" begin="6s" dur="1s" repeatCount="Indefinite" fill="freeze" />
</path>
<path d="M53.23,37.49c3.42-0.58,34.02-2.49,38.21-2.56" style="fill:none;stroke:black;stroke-width:3;opacity:0">
  <animate attributeType="CSS" attributeName="opacity" from="0" to="1" begin="7s" dur="1s" repeatCount="Indefinite" fill="freeze" />
</path>
<path d="M54.33,53.77c7.55-0.63,21.92-1.77,34.21-2.3" style="fill:none;stroke:black;stroke-width:3;opacity:0">
  <animate attributeType="CSS" attributeName="opacity" from="0" to="1" begin="8s" dur="1s" repeatCount="Indefinite" fill="freeze" />
</path>
<path d="M68.83,21.63c1.17,1.12,1.57,3.35,1.6,4.36c0.39,12.89,0.16,60.35,0.16,65.01" style="fill:none;stroke:black;stroke-width:3;opacity:0">
  <animate attributeType="CSS" attributeName="opacity" from="0" to="1" begin="9s" dur="1s" repeatCount="Indefinite" fill="freeze" />
</path>
<path d="M49.46,72.64c0.8,0.28,2.26,0.31,3.07,0.28c8.32-0.32,27.13-2.82,37.43-2.88c1.33-0.01,2.13,0.14,2.8,0.28" style="fill:none;stroke:black;stroke-width:3;opacity:0">
  <animate attributeType="CSS" attributeName="opacity" from="0" to="1" begin="10s" dur="1s" repeatCount="Indefinite" fill="freeze" />
</path>
<path d="M43.13,92.23c1.24,0.54,3.52,0.63,4.76,0.54c12.91-0.91,30.52-2.77,45.9-2.73c2.07,0,3.31,0.26,4.34,0.53" style="fill:none;stroke:black;stroke-width:3;opacity:0">
  <animate attributeType="CSS" attributeName="opacity" from="0" to="1" begin="11s" dur="1s" repeatCount="Indefinite" fill="freeze" />
</path>
</svg>