<svg width="109px" height="109px" viewBox="0 0 px 109px" xmlns="http://www.w3.org/2000/svg" xmlns:xlink="http://www.w3.org/1999/xlink" xml:space="preserve" version="1.1"  baseProfile="full">
<path d="M22.58,14.25c2.82,2.59,5.84,6.47,8.25,11" style="fill:none;stroke:black;stroke-width:3;opacity:0">
  <animate attributeType="CSS" attributeName="opacity" from="0" to="1" begin="0s" dur="1s" repeatCount="0" fill="freeze" />
</path>
<path d="M13.2,36.86c0.94,0.39,2.37,0.89,3.96,0.61c5.59-0.97,16.37-3.83,18.69-4.49c2.33-0.66,4.58,0.83,3.26,2.85C31.36,47.65,24,59.25,11.5,70" style="fill:none;stroke:black;stroke-width:3;opacity:0">
  <animate attributeType="CSS" attributeName="opacity" from="0" to="1" begin="1s" dur="1s" repeatCount="0" fill="freeze" />
</path>
<path d="M27,54.61c0.12,0.29,1.65,1.53,1.77,3.39c0.57,8.93,0.06,35.2,0.06,38.25" style="fill:none;stroke:black;stroke-width:3;opacity:0">
  <animate attributeType="CSS" attributeName="opacity" from="0" to="1" begin="2s" dur="1s" repeatCount="0" fill="freeze" />
</path>
<path d="M41.01,48.39c0.19,0.77,0.38,0.98,0,1.53c-1.16,1.69-4.74,5.83-7.06,7.83" style="fill:none;stroke:black;stroke-width:3;opacity:0">
  <animate attributeType="CSS" attributeName="opacity" from="0" to="1" begin="3s" dur="1s" repeatCount="0" fill="freeze" />
</path>
<path d="M32.33,58.75c2.99,2.65,6.19,6.62,8.75,11.25" style="fill:none;stroke:black;stroke-width:3;opacity:0">
  <animate attributeType="CSS" attributeName="opacity" from="0" to="1" begin="4s" dur="1s" repeatCount="0" fill="freeze" />
</path>
<path d="M67.28,10.64c0.03,0.33,0.05,0.86-0.05,1.33c-0.61,2.81-4.12,8.97-8.92,12.74" style="fill:none;stroke:black;stroke-width:3;opacity:0">
  <animate attributeType="CSS" attributeName="opacity" from="0" to="1" begin="5s" dur="1s" repeatCount="0" fill="freeze" />
</path>
<path d="M50.99,26.18c0.29,0.44,0.29,0.75,0.45,1.3c1.3,4.58,2.51,16.44,3.32,24.98" style="fill:none;stroke:black;stroke-width:3;opacity:0">
  <animate attributeType="CSS" attributeName="opacity" from="0" to="1" begin="6s" dur="1s" repeatCount="0" fill="freeze" />
</path>
<path d="M52.34,27.31c10.04-1.15,27.05-3.55,34.54-4.52c2.75-0.36,3.82,0.62,3.63,3.04c-0.37,4.63-2.19,16.73-3.45,24.44" style="fill:none;stroke:black;stroke-width:3;opacity:0">
  <animate attributeType="CSS" attributeName="opacity" from="0" to="1" begin="7s" dur="1s" repeatCount="0" fill="freeze" />
</path>
<path d="M54.21,38.63c3.27-0.45,31.01-3.25,33.71-3.44" style="fill:none;stroke:black;stroke-width:3;opacity:0">
  <animate attributeType="CSS" attributeName="opacity" from="0" to="1" begin="8s" dur="1s" repeatCount="0" fill="freeze" />
</path>
<path d="M55.28,50.4c7.23-0.49,21.79-1.53,31.78-2.33" style="fill:none;stroke:black;stroke-width:3;opacity:0">
  <animate attributeType="CSS" attributeName="opacity" from="0" to="1" begin="9s" dur="1s" repeatCount="0" fill="freeze" />
</path>
<path d="M71.45,24.93c0.54,1,0.5,2.49,0.36,3.84C70.38,42.22,66.75,55.75,54.01,65" style="fill:none;stroke:black;stroke-width:3;opacity:0">
  <animate attributeType="CSS" attributeName="opacity" from="0" to="1" begin="10s" dur="1s" repeatCount="0" fill="freeze" />
</path>
<path d="M47.25,70.31c0.81,0.25,3,0.93,5.16,0.75c14.63-1.24,25.34-2.06,39.8-3.56c2.17-0.22,3.93,0.07,5.29,0.32" style="fill:none;stroke:black;stroke-width:3;opacity:0">
  <animate attributeType="CSS" attributeName="opacity" from="0" to="1" begin="11s" dur="1s" repeatCount="0" fill="freeze" />
</path>
<path d="M76.87,54.25c1.09,0.5,1.74,2.25,1.96,3.25c0.22,1,0,33.25-0.22,39.5" style="fill:none;stroke:black;stroke-width:3;opacity:0">
  <animate attributeType="CSS" attributeName="opacity" from="0" to="1" begin="12s" dur="1s" repeatCount="0" fill="freeze" />
</path>
</svg>