<svg width="109px" height="109px" viewBox="0 0 px 109px" xmlns="http://www.w3.org/2000/svg" xmlns:xlink="http://www.w3.org/1999/xlink" xml:space="preserve" version="1.1"  baseProfile="full">
<path d="M22.64,23.13c1.15,0.47,3.27,0.6,4.42,0.47c7.35-0.81,44.01-5.32,51.13-4.77c1.92,0.15,3.08,0.22,4.04,0.46" style="fill:none;stroke:black;stroke-width:3;opacity:0">
  <animate attributeType="CSS" attributeName="opacity" from="0" to="1" begin="0s" dur="1s" repeatCount="Indefinite" fill="freeze" />
</path>
<path d="M17,44.74c0.5,0.84,1.02,1.54,1.24,2.6c1.74,8.35,3.33,31.4,4.52,46.41" style="fill:none;stroke:black;stroke-width:3;opacity:0">
  <animate attributeType="CSS" attributeName="opacity" from="0" to="1" begin="1s" dur="1s" repeatCount="Indefinite" fill="freeze" />
</path>
<path d="M18.13,46.08c12.3-1.63,63.49-5.72,69.83-6.27c2.32-0.2,3.48,1.98,3.38,3.2c-0.59,7.24-2.59,36.99-4.5,49.94" style="fill:none;stroke:black;stroke-width:3;opacity:0">
  <animate attributeType="CSS" attributeName="opacity" from="0" to="1" begin="2s" dur="1s" repeatCount="Indefinite" fill="freeze" />
</path>
<path d="M39.26,25.38c1.34,0.61,2.37,2.74,2.41,3.99C42,39.5,43.25,64.25,44.15,75.98" style="fill:none;stroke:black;stroke-width:3;opacity:0">
  <animate attributeType="CSS" attributeName="opacity" from="0" to="1" begin="3s" dur="1s" repeatCount="Indefinite" fill="freeze" />
</path>
<path d="M63.41,23.08c1.34,0.61,1.9,2.81,1.89,5.64C65.25,40,65.5,55.75,65,73.25" style="fill:none;stroke:black;stroke-width:3;opacity:0">
  <animate attributeType="CSS" attributeName="opacity" from="0" to="1" begin="4s" dur="1s" repeatCount="Indefinite" fill="freeze" />
</path>
<path d="M44.25,74.59c6.75-1.09,11.5-2.09,21.17-3.46" style="fill:none;stroke:black;stroke-width:3;opacity:0">
  <animate attributeType="CSS" attributeName="opacity" from="0" to="1" begin="5s" dur="1s" repeatCount="Indefinite" fill="freeze" />
</path>
</svg>