<svg width="109px" height="109px" viewBox="0 0 px 109px" xmlns="http://www.w3.org/2000/svg" xmlns:xlink="http://www.w3.org/1999/xlink" xml:space="preserve" version="1.1"  baseProfile="full">
<path d="M14.97,21.15c0.99,0.35,2.81,0.41,3.8,0.35c10.33-0.59,18.13-1.7,30.25-2.46c1.65-0.1,2.65,0.17,3.47,0.35" style="fill:none;stroke:black;stroke-width:3;opacity:0">
  <animate attributeType="CSS" attributeName="opacity" from="0" to="1" begin="0s" dur="1s" repeatCount="0" fill="freeze" />
</path>
<path d="M32.3,12.5c0.58,0.33,0.93,1.48,1.05,2.13c0.12,0.66,0,9.16-0.12,13.26" style="fill:none;stroke:black;stroke-width:3;opacity:0">
  <animate attributeType="CSS" attributeName="opacity" from="0" to="1" begin="1s" dur="1s" repeatCount="0" fill="freeze" />
</path>
<path d="M19.9,28.53c0.73,0.24,2.05,0.22,2.78,0.24C29,29,39,27.75,45.6,27.07c1.2-0.12,1.94,0.12,2.54,0.24" style="fill:none;stroke:black;stroke-width:3;opacity:0">
  <animate attributeType="CSS" attributeName="opacity" from="0" to="1" begin="2s" dur="1s" repeatCount="0" fill="freeze" />
</path>
<path d="M14.67,35.31c0.18,0.27,0.37,0.49,0.45,0.82c0.63,2.65,2.14,9.94,2.57,14.69" style="fill:none;stroke:black;stroke-width:3;opacity:0">
  <animate attributeType="CSS" attributeName="opacity" from="0" to="1" begin="3s" dur="1s" repeatCount="0" fill="freeze" />
</path>
<path d="M15.79,37.11c3.98-1.04,33.83-3.33,35.94-3.68c0.77-0.13,1.82,0.89,1.61,2.38c-0.43,3.1-1.69,7.91-2.85,12.34" style="fill:none;stroke:black;stroke-width:3;opacity:0">
  <animate attributeType="CSS" attributeName="opacity" from="0" to="1" begin="4s" dur="1s" repeatCount="0" fill="freeze" />
</path>
<path d="M28.89,38.06c0.04,0.19,0.04,0.49-0.07,0.77c-0.96,2.46-2.18,4.33-6.27,6.71" style="fill:none;stroke:black;stroke-width:3;opacity:0">
  <animate attributeType="CSS" attributeName="opacity" from="0" to="1" begin="5s" dur="1s" repeatCount="0" fill="freeze" />
</path>
<path d="M38.03,36.08c0.41,0.37,0.75,0.81,0.75,1.38c0,0.77-0.12,2.21-0.12,2.76c0,1.5,1.39,2.12,4.03,2.12c2.39,0,4.16,0,5.17-0.48" style="fill:none;stroke:black;stroke-width:3;opacity:0">
  <animate attributeType="CSS" attributeName="opacity" from="0" to="1" begin="6s" dur="1s" repeatCount="0" fill="freeze" />
</path>
<path d="M18.25,49.39c2.49-0.39,29.13-2.9,32.54-3.51" style="fill:none;stroke:black;stroke-width:3;opacity:0">
  <animate attributeType="CSS" attributeName="opacity" from="0" to="1" begin="7s" dur="1s" repeatCount="0" fill="freeze" />
</path>
<path d="M19.79,55.52c0.41,0.97,1.01,1.7,1.01,2.99c0,1.3,0.19,20.2-0.3,25.63" style="fill:none;stroke:black;stroke-width:3;opacity:0">
  <animate attributeType="CSS" attributeName="opacity" from="0" to="1" begin="8s" dur="1s" repeatCount="0" fill="freeze" />
</path>
<path d="M21.5,56.95c2.33-0.16,21.37-2.17,23.5-2.35c1.77-0.16,2.72,0.86,2.72,2.04c0,2.86-0.52,25.2-0.52,26.14" style="fill:none;stroke:black;stroke-width:3;opacity:0">
  <animate attributeType="CSS" attributeName="opacity" from="0" to="1" begin="9s" dur="1s" repeatCount="0" fill="freeze" />
</path>
<path d="M20.85,65.04c4.37-0.36,22.54-2.11,26.28-2.11" style="fill:none;stroke:black;stroke-width:3;opacity:0">
  <animate attributeType="CSS" attributeName="opacity" from="0" to="1" begin="10s" dur="1s" repeatCount="0" fill="freeze" />
</path>
<path d="M21.04,73.91c6.59-0.69,19.13-1.66,26.12-1.8" style="fill:none;stroke:black;stroke-width:3;opacity:0">
  <animate attributeType="CSS" attributeName="opacity" from="0" to="1" begin="11s" dur="1s" repeatCount="0" fill="freeze" />
</path>
<path d="M20.74,82.05c6.59-0.52,20.41-1.45,26.42-1.45" style="fill:none;stroke:black;stroke-width:3;opacity:0">
  <animate attributeType="CSS" attributeName="opacity" from="0" to="1" begin="12s" dur="1s" repeatCount="0" fill="freeze" />
</path>
<path d="M26.52,86.76c0.35,1.04-0.26,2.06-0.95,2.83c-2.07,2.3-7.52,7.19-11.67,9.91" style="fill:none;stroke:black;stroke-width:3;opacity:0">
  <animate attributeType="CSS" attributeName="opacity" from="0" to="1" begin="13s" dur="1s" repeatCount="0" fill="freeze" />
</path>
<path d="M36.54,85.86c5.08,2.58,10.21,8.15,11.48,10.69" style="fill:none;stroke:black;stroke-width:3;opacity:0">
  <animate attributeType="CSS" attributeName="opacity" from="0" to="1" begin="14s" dur="1s" repeatCount="0" fill="freeze" />
</path>
<path d="M61.19,16.92c0.45,1.16,1.09,2.03,1.09,3.57c0,1.55-0.15,45.21,0,46.76" style="fill:none;stroke:black;stroke-width:3;opacity:0">
  <animate attributeType="CSS" attributeName="opacity" from="0" to="1" begin="15s" dur="1s" repeatCount="0" fill="freeze" />
</path>
<path d="M63.02,18.49c2.52-0.19,20.71-1.76,23-1.99c1.91-0.19,3.42,1.08,3.26,2.52c-0.2,1.82,0.11,47.21,0.11,48.37" style="fill:none;stroke:black;stroke-width:3;opacity:0">
  <animate attributeType="CSS" attributeName="opacity" from="0" to="1" begin="16s" dur="1s" repeatCount="0" fill="freeze" />
</path>
<path d="M62.98,34.25c3.6,0,21.34-2.14,25.38-2.14" style="fill:none;stroke:black;stroke-width:3;opacity:0">
  <animate attributeType="CSS" attributeName="opacity" from="0" to="1" begin="17s" dur="1s" repeatCount="0" fill="freeze" />
</path>
<path d="M63.19,48.6c7.3-0.55,18.4-1.82,24.88-1.82" style="fill:none;stroke:black;stroke-width:3;opacity:0">
  <animate attributeType="CSS" attributeName="opacity" from="0" to="1" begin="18s" dur="1s" repeatCount="0" fill="freeze" />
</path>
<path d="M63.84,65.42c5.01,0,18.4-1.82,24.88-1.82" style="fill:none;stroke:black;stroke-width:3;opacity:0">
  <animate attributeType="CSS" attributeName="opacity" from="0" to="1" begin="19s" dur="1s" repeatCount="0" fill="freeze" />
</path>
<path d="M68.76,70.25c0.05,0.67,0.1,1.72-0.09,2.67c-1.16,5.64-7.81,18-16.91,25.58" style="fill:none;stroke:black;stroke-width:3;opacity:0">
  <animate attributeType="CSS" attributeName="opacity" from="0" to="1" begin="20s" dur="1s" repeatCount="0" fill="freeze" />
</path>
<path d="M77.86,66.97c0.43,1.1,0.77,2.4,0.8,4.11c0.07,4.77-0.31,11.72-0.31,17.18c0,8.5,2.15,9.85,9.66,9.85c7.99,0,9.24-2.35,9.24-9.95" style="fill:none;stroke:black;stroke-width:3;opacity:0">
  <animate attributeType="CSS" attributeName="opacity" from="0" to="1" begin="21s" dur="1s" repeatCount="0" fill="freeze" />
</path>
</svg>