<svg width="109px" height="109px" viewBox="0 0 px 109px" xmlns="http://www.w3.org/2000/svg" xmlns:xlink="http://www.w3.org/1999/xlink" xml:space="preserve" version="1.1"  baseProfile="full">
<path d="M23.88,13.25c3.4,1.72,8.78,7.07,9.62,9.75" style="fill:none;stroke:black;stroke-width:3;opacity:0">
  <animate attributeType="CSS" attributeName="opacity" from="0" to="1" begin="0s" dur="1s" repeatCount="0" fill="freeze" />
</path>
<path d="M13.62,31.58c1.52,0.56,3.7,0.24,5.27,0.13c7.06-0.52,16.37-1.97,21.88-2.61c1.54-0.18,3.05-0.51,4.58-0.18" style="fill:none;stroke:black;stroke-width:3;opacity:0">
  <animate attributeType="CSS" attributeName="opacity" from="0" to="1" begin="1s" dur="1s" repeatCount="0" fill="freeze" />
</path>
<path d="M18.98,44.56c1.17,0.37,2.81,0.15,4.02,0.07c3.83-0.25,10.63-1.25,13.93-2.04c1.45-0.34,2.99-0.63,4.46-0.35" style="fill:none;stroke:black;stroke-width:3;opacity:0">
  <animate attributeType="CSS" attributeName="opacity" from="0" to="1" begin="2s" dur="1s" repeatCount="0" fill="freeze" />
</path>
<path d="M19.48,56.08c0.98,0.34,2.36,0.15,3.4,0.08c3.24-0.22,9.07-1.21,12.76-1.49c1.5-0.11,3.24-0.3,4.89-0.21" style="fill:none;stroke:black;stroke-width:3;opacity:0">
  <animate attributeType="CSS" attributeName="opacity" from="0" to="1" begin="3s" dur="1s" repeatCount="0" fill="freeze" />
</path>
<path d="M18.64,69.4c0.72,0.62,1.1,1.4,1.12,2.34c0.74,3.72,1.33,9.34,1.77,15c0.08,1,0.15,2.01,0.22,3" style="fill:none;stroke:black;stroke-width:3;opacity:0">
  <animate attributeType="CSS" attributeName="opacity" from="0" to="1" begin="4s" dur="1s" repeatCount="0" fill="freeze" />
</path>
<path d="M20.56,70.87c5.99-0.83,10.99-1.72,16.44-2.56c2.72-0.42,3.65,0.73,3.17,3.34c-0.71,3.82-1.07,7.68-2.5,14.06" style="fill:none;stroke:black;stroke-width:3;opacity:0">
  <animate attributeType="CSS" attributeName="opacity" from="0" to="1" begin="5s" dur="1s" repeatCount="0" fill="freeze" />
</path>
<path d="M22.47,87.8c4.18-0.47,7.64-0.92,13.78-1.36c0.91-0.07,1.88-0.13,2.91-0.2" style="fill:none;stroke:black;stroke-width:3;opacity:0">
  <animate attributeType="CSS" attributeName="opacity" from="0" to="1" begin="6s" dur="1s" repeatCount="0" fill="freeze" />
</path>
<path d="M54.72,20.18c1.12,1.12,1.69,2.7,1.69,4.62C56.5,70.5,53.5,81.25,41.5,93" style="fill:none;stroke:black;stroke-width:3;opacity:0">
  <animate attributeType="CSS" attributeName="opacity" from="0" to="1" begin="7s" dur="1s" repeatCount="0" fill="freeze" />
</path>
<path d="M71.75,18.88c1.06,1.06,1.41,2.37,1.41,3.65c0,0.58-0.04,31.38-0.09,45.84c-0.01,3.56-0.03,6.12-0.05,7.01" style="fill:none;stroke:black;stroke-width:3;opacity:0">
  <animate attributeType="CSS" attributeName="opacity" from="0" to="1" begin="8s" dur="1s" repeatCount="0" fill="freeze" />
</path>
<path d="M89.81,15.13c1.09,1.09,1.51,2.49,1.51,4c0,0.79,0,50.1,0,69.12c0,2.96,0,5.19,0,6.38" style="fill:none;stroke:black;stroke-width:3;opacity:0">
  <animate attributeType="CSS" attributeName="opacity" from="0" to="1" begin="9s" dur="1s" repeatCount="0" fill="freeze" />
</path>
</svg>