<svg width="109px" height="109px" viewBox="0 0 px 109px" xmlns="http://www.w3.org/2000/svg" xmlns:xlink="http://www.w3.org/1999/xlink" xml:space="preserve" version="1.1"  baseProfile="full">
<path d="M21.63,14.75c3.13,1.85,8.09,7.62,8.87,10.5" style="fill:none;stroke:black;stroke-width:3;opacity:0">
  <animate attributeType="CSS" attributeName="opacity" from="0" to="1" begin="0s" dur="1s" repeatCount="Indefinite" fill="freeze" />
</path>
<path d="M9.87,34.58c0.67,0.23,3.22,0.27,3.89,0.23c8.26-0.42,17.98-2.67,23.99-2.87c1.12-0.04,2.79,0.11,3.35,0.23" style="fill:none;stroke:black;stroke-width:3;opacity:0">
  <animate attributeType="CSS" attributeName="opacity" from="0" to="1" begin="1s" dur="1s" repeatCount="Indefinite" fill="freeze" />
</path>
<path d="M16.48,46.56c0.38,0.12,2.71,0.13,3.1,0.12c3.97-0.14,9.92-1.18,14.21-2.05c0.62-0.13,3.29,0.06,3.61,0.12" style="fill:none;stroke:black;stroke-width:3;opacity:0">
  <animate attributeType="CSS" attributeName="opacity" from="0" to="1" begin="2s" dur="1s" repeatCount="Indefinite" fill="freeze" />
</path>
<path d="M15.98,60.33c0.34,0.12,2.42,0.13,2.77,0.12c3.55-0.13,10-1.2,14.31-2.09c0.56-0.12,2.94,0.06,3.22,0.11" style="fill:none;stroke:black;stroke-width:3;opacity:0">
  <animate attributeType="CSS" attributeName="opacity" from="0" to="1" begin="3s" dur="1s" repeatCount="Indefinite" fill="freeze" />
</path>
<path d="M15.39,72.9c0.35,0.36,0.75,0.65,0.86,1.13C17.24,78.24,19,87.08,20,93.25" style="fill:none;stroke:black;stroke-width:3;opacity:0">
  <animate attributeType="CSS" attributeName="opacity" from="0" to="1" begin="4s" dur="1s" repeatCount="Indefinite" fill="freeze" />
</path>
<path d="M16.56,74.37c6.44-0.89,13.98-2.1,19.92-3c1.49-0.22,2.39,1.04,2.18,2.06c-0.89,4.25-1.66,8.22-3.24,15.28" style="fill:none;stroke:black;stroke-width:3;opacity:0">
  <animate attributeType="CSS" attributeName="opacity" from="0" to="1" begin="5s" dur="1s" repeatCount="Indefinite" fill="freeze" />
</path>
<path d="M20.72,90.55c4.8-0.54,9.6-0.97,16.19-1.81" style="fill:none;stroke:black;stroke-width:3;opacity:0">
  <animate attributeType="CSS" attributeName="opacity" from="0" to="1" begin="6s" dur="1s" repeatCount="Indefinite" fill="freeze" />
</path>
<path d="M61.64,17.25c0.2,1.85-0.06,4.28-0.71,5.87C56.78,33.23,51.52,42.73,42,55.04" style="fill:none;stroke:black;stroke-width:3;opacity:0">
  <animate attributeType="CSS" attributeName="opacity" from="0" to="1" begin="7s" dur="1s" repeatCount="Indefinite" fill="freeze" />
</path>
<path d="M53.4,44.75c0.36,0.44,1.29,1.39,1.29,2.77C54.7,61.5,54.7,86,54.7,95" style="fill:none;stroke:black;stroke-width:3;opacity:0">
  <animate attributeType="CSS" attributeName="opacity" from="0" to="1" begin="8s" dur="1s" repeatCount="Indefinite" fill="freeze" />
</path>
<path d="M93.29,33.25C93.5,34.75,93,36,92.08,37c-6.39,6.92-16.83,18.5-25.42,22.98" style="fill:none;stroke:black;stroke-width:3;opacity:0">
  <animate attributeType="CSS" attributeName="opacity" from="0" to="1" begin="9s" dur="1s" repeatCount="Indefinite" fill="freeze" />
</path>
<path d="M72.3,16.5c0.53,1.15,1.06,1.92,1.24,3.46c0.13,1.15-0.12,42.46-0.12,60.49c0,10.8,1.09,12.37,11.33,12.37c8.01,0,10.76-1.07,10.76-12.07" style="fill:none;stroke:black;stroke-width:3;opacity:0">
  <animate attributeType="CSS" attributeName="opacity" from="0" to="1" begin="10s" dur="1s" repeatCount="Indefinite" fill="freeze" />
</path>
</svg>