<svg width="109px" height="109px" viewBox="0 0 px 109px" xmlns="http://www.w3.org/2000/svg" xmlns:xlink="http://www.w3.org/1999/xlink" xml:space="preserve" version="1.1"  baseProfile="full">
<path d="M24.25,14.25c3.06,1.72,7.92,7.07,8.68,9.75" style="fill:none;stroke:black;stroke-width:3;opacity:0">
  <animate attributeType="CSS" attributeName="opacity" from="0" to="1" begin="0s" dur="1s" repeatCount="0" fill="freeze" />
</path>
<path d="M11.62,33.58c1.67,0.55,3.91,0.26,5.64,0.14c7.77-0.53,15.08-2.16,23.14-3.58c1.52-0.27,3.15-0.53,4.69-0.22" style="fill:none;stroke:black;stroke-width:3;opacity:0">
  <animate attributeType="CSS" attributeName="opacity" from="0" to="1" begin="1s" dur="1s" repeatCount="0" fill="freeze" />
</path>
<path d="M17.68,46.31c1.44,0.41,3.5,0.27,4.96,0.04c4.62-0.73,8.85-1.29,12.91-2.04c1.4-0.26,3.06-0.55,4.48-0.31" style="fill:none;stroke:black;stroke-width:3;opacity:0">
  <animate attributeType="CSS" attributeName="opacity" from="0" to="1" begin="2s" dur="1s" repeatCount="0" fill="freeze" />
</path>
<path d="M17.8,58.83c1.16,0.35,2.75,0.15,3.96,0.07c3.68-0.22,8.69-1.1,13.5-1.89c1.34-0.22,2.97-0.54,4.33-0.3" style="fill:none;stroke:black;stroke-width:3;opacity:0">
  <animate attributeType="CSS" attributeName="opacity" from="0" to="1" begin="3s" dur="1s" repeatCount="0" fill="freeze" />
</path>
<path d="M17.26,72.4c0.7,0.72,0.91,1.75,1.09,2.7c0.68,3.48,1.29,9.2,2.05,14.34c0.24,1.63,0.47,3.18,0.7,4.55" style="fill:none;stroke:black;stroke-width:3;opacity:0">
  <animate attributeType="CSS" attributeName="opacity" from="0" to="1" begin="4s" dur="1s" repeatCount="0" fill="freeze" />
</path>
<path d="M19.55,73.87c6.71-1.33,10.58-1.75,15.47-2.46c2.97-0.43,4.5-0.13,3.89,3.12c-0.71,3.82-1.37,7.62-2.79,13.94" style="fill:none;stroke:black;stroke-width:3;opacity:0">
  <animate attributeType="CSS" attributeName="opacity" from="0" to="1" begin="5s" dur="1s" repeatCount="0" fill="freeze" />
</path>
<path d="M21.88,91.05c3.91-0.44,7.05-0.94,12.12-1.29c1.19-0.08,2.48-0.17,3.88-0.27" style="fill:none;stroke:black;stroke-width:3;opacity:0">
  <animate attributeType="CSS" attributeName="opacity" from="0" to="1" begin="6s" dur="1s" repeatCount="0" fill="freeze" />
</path>
<path d="M59.39,28.97c0.11,0.78-0.09,2.21-0.51,3.09c-2.81,5.95-7.86,14.31-15.78,19.84" style="fill:none;stroke:black;stroke-width:3;opacity:0">
  <animate attributeType="CSS" attributeName="opacity" from="0" to="1" begin="7s" dur="1s" repeatCount="0" fill="freeze" />
</path>
<path d="M64.81,20C70,20.88,79.75,38.88,87.88,46.55c2.56,2.42,3.62,3.07,6.02,4.2" style="fill:none;stroke:black;stroke-width:3;opacity:0">
  <animate attributeType="CSS" attributeName="opacity" from="0" to="1" begin="8s" dur="1s" repeatCount="0" fill="freeze" />
</path>
<path d="M65.77,52.52c0.48,1.23,0.07,2.58-0.51,3.79c-5.5,11.31-7.13,13.94-15.3,27.04c-1.71,2.74-0.74,3.62,2.32,2.73c10.1-2.95,19.73-5.33,31.18-8.27" style="fill:none;stroke:black;stroke-width:3;opacity:0">
  <animate attributeType="CSS" attributeName="opacity" from="0" to="1" begin="9s" dur="1s" repeatCount="0" fill="freeze" />
</path>
<path d="M77.11,66.93c4.65,3.94,12.02,16.2,13.18,22.32" style="fill:none;stroke:black;stroke-width:3;opacity:0">
  <animate attributeType="CSS" attributeName="opacity" from="0" to="1" begin="10s" dur="1s" repeatCount="0" fill="freeze" />
</path>
</svg>