<svg width="109px" height="109px" viewBox="0 0 px 109px" xmlns="http://www.w3.org/2000/svg" xmlns:xlink="http://www.w3.org/1999/xlink" xml:space="preserve" version="1.1"  baseProfile="full">
<path d="M23.55,13.25c2.69,1.41,6.96,5.8,7.63,8" style="fill:none;stroke:black;stroke-width:3;opacity:0">
  <animate attributeType="CSS" attributeName="opacity" from="0" to="1" begin="0s" dur="1s" repeatCount="Indefinite" fill="freeze" />
</path>
<path d="M10.62,31.83c1.7,0.56,4.01,0.55,5.76,0.39c7.62-0.72,15.85-1.79,22.38-2.67c2.14-0.29,4.19-0.54,6.34-0.12" style="fill:none;stroke:black;stroke-width:3;opacity:0">
  <animate attributeType="CSS" attributeName="opacity" from="0" to="1" begin="1s" dur="1s" repeatCount="Indefinite" fill="freeze" />
</path>
<path d="M16.43,44.81c1.28,0.36,3.01,0.25,4.32,0.07c4.27-0.59,9-1.66,13.01-2.35c1.39-0.24,3.11-0.52,4.51-0.28" style="fill:none;stroke:black;stroke-width:3;opacity:0">
  <animate attributeType="CSS" attributeName="opacity" from="0" to="1" begin="2s" dur="1s" repeatCount="Indefinite" fill="freeze" />
</path>
<path d="M17.05,55.83c1.21,0.37,2.98,0.17,4.22,0.03c3.67-0.39,7.21-1.02,12.59-2.09c1.38-0.27,3.07-0.56,4.47-0.31" style="fill:none;stroke:black;stroke-width:3;opacity:0">
  <animate attributeType="CSS" attributeName="opacity" from="0" to="1" begin="3s" dur="1s" repeatCount="Indefinite" fill="freeze" />
</path>
<path d="M14.26,68.4c0.86,0.86,1.39,2.21,1.72,3.95c1.14,6.03,1.83,9.96,2.47,15.63c0.16,1.39,0.3,2.75,0.41,4.02" style="fill:none;stroke:black;stroke-width:3;opacity:0">
  <animate attributeType="CSS" attributeName="opacity" from="0" to="1" begin="4s" dur="1s" repeatCount="Indefinite" fill="freeze" />
</path>
<path d="M16.19,70.12c7.93-1.5,13.03-2.16,19.19-3.03c2.69-0.38,4.35,0.49,3.77,3.54c-1.03,5.37-1.99,9.41-3.59,15.83" style="fill:none;stroke:black;stroke-width:3;opacity:0">
  <animate attributeType="CSS" attributeName="opacity" from="0" to="1" begin="5s" dur="1s" repeatCount="Indefinite" fill="freeze" />
</path>
<path d="M18.92,89.05c4.49-0.45,9.18-0.83,14.81-1.42c1.11-0.12,2.28-0.25,3.49-0.38" style="fill:none;stroke:black;stroke-width:3;opacity:0">
  <animate attributeType="CSS" attributeName="opacity" from="0" to="1" begin="6s" dur="1s" repeatCount="Indefinite" fill="freeze" />
</path>
<path d="M52.89,21.32c1.5,0.77,3.42,1.2,5.02,1.04c10.34-0.99,22.44-2.75,25.88-3.22c2.96-0.4,3.96,1.95,3.46,4.19C85.88,29.5,84.75,33.5,83,41.75" style="fill:none;stroke:black;stroke-width:3;opacity:0">
  <animate attributeType="CSS" attributeName="opacity" from="0" to="1" begin="7s" dur="1s" repeatCount="Indefinite" fill="freeze" />
</path>
<path d="M57.5,45.25c3.43-0.2,16.2-1.73,23.99-2.58c2.02-0.22,3.64-0.38,4.57-0.43" style="fill:none;stroke:black;stroke-width:3;opacity:0">
  <animate attributeType="CSS" attributeName="opacity" from="0" to="1" begin="8s" dur="1s" repeatCount="Indefinite" fill="freeze" />
</path>
<path d="M55.34,22.62c0.9,0.9,1.22,2.43,1.24,3.88c0.55,32.26-2.95,54.88-17.08,69.26" style="fill:none;stroke:black;stroke-width:3;opacity:0">
  <animate attributeType="CSS" attributeName="opacity" from="0" to="1" begin="9s" dur="1s" repeatCount="Indefinite" fill="freeze" />
</path>
<path d="M64.75,44.75c4.75,10.16,14.56,29.82,22.03,40.44c2.04,2.89,4.47,6.06,7.47,8.31" style="fill:none;stroke:black;stroke-width:3;opacity:0">
  <animate attributeType="CSS" attributeName="opacity" from="0" to="1" begin="10s" dur="1s" repeatCount="Indefinite" fill="freeze" />
</path>
</svg>