<svg width="109px" height="109px" viewBox="0 0 px 109px" xmlns="http://www.w3.org/2000/svg" xmlns:xlink="http://www.w3.org/1999/xlink" xml:space="preserve" version="1.1"  baseProfile="full">
<path d="M25.5,14.75c3.15,1.81,8.14,7.44,8.93,10.25" style="fill:none;stroke:black;stroke-width:3;opacity:0">
  <animate attributeType="CSS" attributeName="opacity" from="0" to="1" begin="0s" dur="1s" repeatCount="Indefinite" fill="freeze" />
</path>
<path d="M11.12,36.08c1.93,0.63,4.52,0.23,6.5,0.08c8.25-0.64,19.81-2.52,26.63-3.35c1.47-0.18,3.12-0.43,4.59-0.14" style="fill:none;stroke:black;stroke-width:3;opacity:0">
  <animate attributeType="CSS" attributeName="opacity" from="0" to="1" begin="1s" dur="1s" repeatCount="Indefinite" fill="freeze" />
</path>
<path d="M20.18,48.81c1.18,0.34,2.76,0.23,3.96,0.04c4.53-0.73,8.6-1.5,12.61-2.08c1.34-0.19,2.92-0.5,4.26-0.27" style="fill:none;stroke:black;stroke-width:3;opacity:0">
  <animate attributeType="CSS" attributeName="opacity" from="0" to="1" begin="2s" dur="1s" repeatCount="Indefinite" fill="freeze" />
</path>
<path d="M19.8,61.83c1.19,0.36,2.87,0.16,4.1,0.05c3.79-0.33,9.4-1.74,13.1-2.41c1.19-0.21,2.64-0.47,3.83-0.26" style="fill:none;stroke:black;stroke-width:3;opacity:0">
  <animate attributeType="CSS" attributeName="opacity" from="0" to="1" begin="3s" dur="1s" repeatCount="Indefinite" fill="freeze" />
</path>
<path d="M17.01,75.15c0.73,0.6,0.99,1.48,1.22,2.35c0.8,3.07,1.72,8.4,2.56,12.99c0.28,1.54,0.56,3,0.82,4.26" style="fill:none;stroke:black;stroke-width:3;opacity:0">
  <animate attributeType="CSS" attributeName="opacity" from="0" to="1" begin="4s" dur="1s" repeatCount="Indefinite" fill="freeze" />
</path>
<path d="M18.94,76.94c8.69-1.89,13.23-2.8,18.82-3.99c3.54-0.75,5.71-0.98,4.62,3.3c-0.8,3.16-1.64,6.7-3.08,11.76" style="fill:none;stroke:black;stroke-width:3;opacity:0">
  <animate attributeType="CSS" attributeName="opacity" from="0" to="1" begin="5s" dur="1s" repeatCount="Indefinite" fill="freeze" />
</path>
<path d="M22.42,92.25c6.19-1.27,9.94-2.18,15.85-3.09c1.08-0.17,2.22-0.33,3.46-0.5" style="fill:none;stroke:black;stroke-width:3;opacity:0">
  <animate attributeType="CSS" attributeName="opacity" from="0" to="1" begin="6s" dur="1s" repeatCount="Indefinite" fill="freeze" />
</path>
<path d="M66,13.5c0.05,0.83,0.24,2.16-0.1,3.31C63.75,24.25,57.75,37.25,48.56,48" style="fill:none;stroke:black;stroke-width:3;opacity:0">
  <animate attributeType="CSS" attributeName="opacity" from="0" to="1" begin="7s" dur="1s" repeatCount="Indefinite" fill="freeze" />
</path>
<path d="M62.5,31.72c2.12,0.28,3.89-0.14,5.28-0.32c9.85-1.27,14.22-2.52,21.48-4.26c2.25-0.54,5-0.89,6.96-0.52" style="fill:none;stroke:black;stroke-width:3;opacity:0">
  <animate attributeType="CSS" attributeName="opacity" from="0" to="1" begin="8s" dur="1s" repeatCount="Indefinite" fill="freeze" />
</path>
<path d="M70.16,34.21c0.94,0.94,1.28,2.17,1.28,3.63c0,5.04,0.02,35.54,0.02,51.79c0,3.43-0.06,5.94-0.09,7" style="fill:none;stroke:black;stroke-width:3;opacity:0">
  <animate attributeType="CSS" attributeName="opacity" from="0" to="1" begin="9s" dur="1s" repeatCount="Indefinite" fill="freeze" />
</path>
<path d="M72.82,51.94C78,51,83.62,50.12,89.86,48.81c1.36-0.29,2.89-0.43,4.37-0.07" style="fill:none;stroke:black;stroke-width:3;opacity:0">
  <animate attributeType="CSS" attributeName="opacity" from="0" to="1" begin="10s" dur="1s" repeatCount="Indefinite" fill="freeze" />
</path>
<path d="M72.49,71.69c3.49-0.41,9.26-1.32,17.78-2.67c1.61-0.26,3.35-0.41,4.97-0.04" style="fill:none;stroke:black;stroke-width:3;opacity:0">
  <animate attributeType="CSS" attributeName="opacity" from="0" to="1" begin="11s" dur="1s" repeatCount="Indefinite" fill="freeze" />
</path>
</svg>