<svg width="109px" height="109px" viewBox="0 0 px 109px" xmlns="http://www.w3.org/2000/svg" xmlns:xlink="http://www.w3.org/1999/xlink" xml:space="preserve" version="1.1"  baseProfile="full">
<path d="M19.88,15.5c3.84,1.99,9.91,8.16,10.87,11.25" style="fill:none;stroke:black;stroke-width:3;opacity:0">
  <animate attributeType="CSS" attributeName="opacity" from="0" to="1" begin="0s" dur="1s" repeatCount="Indefinite" fill="freeze" />
</path>
<path d="M9.37,36.58c0.63,0.23,3.04,0.27,3.67,0.23c7.8-0.42,19.47-2.17,25.14-2.37c1.05-0.04,2.64,0.11,3.16,0.23" style="fill:none;stroke:black;stroke-width:3;opacity:0">
  <animate attributeType="CSS" attributeName="opacity" from="0" to="1" begin="1s" dur="1s" repeatCount="Indefinite" fill="freeze" />
</path>
<path d="M15.23,47.56c0.38,0.12,2.71,0.13,3.1,0.12c3.97-0.14,10.8-1.56,14.71-1.55c0.63,0,3.29,0.06,3.61,0.12" style="fill:none;stroke:black;stroke-width:3;opacity:0">
  <animate attributeType="CSS" attributeName="opacity" from="0" to="1" begin="2s" dur="1s" repeatCount="Indefinite" fill="freeze" />
</path>
<path d="M14.73,60.33c0.34,0.12,2.42,0.13,2.77,0.12c3.55-0.13,13.32-1.61,16.81-1.59c0.57,0,2.94,0.06,3.22,0.11" style="fill:none;stroke:black;stroke-width:3;opacity:0">
  <animate attributeType="CSS" attributeName="opacity" from="0" to="1" begin="3s" dur="1s" repeatCount="Indefinite" fill="freeze" />
</path>
<path d="M14.14,73.9c0.35,0.36,0.75,0.65,0.86,1.13c0.99,4.21,2.25,15.04,3.25,21.21" style="fill:none;stroke:black;stroke-width:3;opacity:0">
  <animate attributeType="CSS" attributeName="opacity" from="0" to="1" begin="4s" dur="1s" repeatCount="Indefinite" fill="freeze" />
</path>
<path d="M16.31,75.37c6.44-0.89,13.48-1.6,19.42-2.5c1.49-0.22,2.39,1.04,2.18,2.06c-0.89,4.25-1.66,9.22-3.24,16.28" style="fill:none;stroke:black;stroke-width:3;opacity:0">
  <animate attributeType="CSS" attributeName="opacity" from="0" to="1" begin="5s" dur="1s" repeatCount="Indefinite" fill="freeze" />
</path>
<path d="M17.97,93.05c4.8-0.54,13.1-0.97,19.69-1.81" style="fill:none;stroke:black;stroke-width:3;opacity:0">
  <animate attributeType="CSS" attributeName="opacity" from="0" to="1" begin="6s" dur="1s" repeatCount="Indefinite" fill="freeze" />
</path>
<path d="M46.12,31.65c1.42,0.46,2.02,0.53,3.44,0.46c14.78-0.76,27.69-3.85,40.84-4.06c2.37-0.04,3.79,0.22,4.97,0.45" style="fill:none;stroke:black;stroke-width:3;opacity:0">
  <animate attributeType="CSS" attributeName="opacity" from="0" to="1" begin="7s" dur="1s" repeatCount="Indefinite" fill="freeze" />
</path>
<path d="M58.68,15.48c0.57,1.27,0.58,2.42,0.42,5.03C57.75,42,55.75,65.5,43.06,88.97" style="fill:none;stroke:black;stroke-width:3;opacity:0">
  <animate attributeType="CSS" attributeName="opacity" from="0" to="1" begin="8s" dur="1s" repeatCount="Indefinite" fill="freeze" />
</path>
<path d="M62.57,52.12c1.63,2.53,4.01,9.69,4.46,12.22" style="fill:none;stroke:black;stroke-width:3;opacity:0">
  <animate attributeType="CSS" attributeName="opacity" from="0" to="1" begin="9s" dur="1s" repeatCount="Indefinite" fill="freeze" />
</path>
<path d="M91.89,47.29c0.83,0.75,0.25,2.74-0.5,3.9c-0.75,1.16-5.5,8.76-9.25,11.47" style="fill:none;stroke:black;stroke-width:3;opacity:0">
  <animate attributeType="CSS" attributeName="opacity" from="0" to="1" begin="10s" dur="1s" repeatCount="Indefinite" fill="freeze" />
</path>
<path d="M73.61,36.75c1.04,0.6,1.6,3.97,1.58,4.97C74.75,69,71.75,83.25,49.39,96.75" style="fill:none;stroke:black;stroke-width:3;opacity:0">
  <animate attributeType="CSS" attributeName="opacity" from="0" to="1" begin="11s" dur="1s" repeatCount="Indefinite" fill="freeze" />
</path>
<path d="M74.44,61.87c6.99,12.77,15.47,25.76,20.08,31.08c1.45,1.68,1.79,1.49,2.97,1.92" style="fill:none;stroke:black;stroke-width:3;opacity:0">
  <animate attributeType="CSS" attributeName="opacity" from="0" to="1" begin="12s" dur="1s" repeatCount="Indefinite" fill="freeze" />
</path>
</svg>