<svg width="109px" height="109px" viewBox="0 0 px 109px" xmlns="http://www.w3.org/2000/svg" xmlns:xlink="http://www.w3.org/1999/xlink" xml:space="preserve" version="1.1"  baseProfile="full">
<path d="M20.8,16.25c3.84,1.85,9.92,7.62,10.88,10.5" style="fill:none;stroke:black;stroke-width:3;opacity:0">
  <animate attributeType="CSS" attributeName="opacity" from="0" to="1" begin="0s" dur="1s" repeatCount="Indefinite" fill="freeze" />
</path>
<path d="M9.12,37.16c0.75,0.27,3.61,0.31,4.36,0.27c9.28-0.49,18.6-3.12,25.35-3.36c1.26-0.04,3.14,0.13,3.76,0.27" style="fill:none;stroke:black;stroke-width:3;opacity:0">
  <animate attributeType="CSS" attributeName="opacity" from="0" to="1" begin="1s" dur="1s" repeatCount="Indefinite" fill="freeze" />
</path>
<path d="M16.68,49.06c0.43,0.12,3.04,0.13,3.47,0.12c4.44-0.14,10.36-1.43,14.84-2.05c0.7-0.1,3.68,0.06,4.04,0.12" style="fill:none;stroke:black;stroke-width:3;opacity:0">
  <animate attributeType="CSS" attributeName="opacity" from="0" to="1" begin="2s" dur="1s" repeatCount="Indefinite" fill="freeze" />
</path>
<path d="M15.8,61.33c0.38,0.12,2.71,0.13,3.1,0.12c3.97-0.13,12.36-1.95,16.83-2.59c0.63-0.09,3.29,0.06,3.6,0.11" style="fill:none;stroke:black;stroke-width:3;opacity:0">
  <animate attributeType="CSS" attributeName="opacity" from="0" to="1" begin="3s" dur="1s" repeatCount="Indefinite" fill="freeze" />
</path>
<path d="M16.01,75.9c0.39,0.36,1.33,1.65,1.46,2.13c1.11,4.21,2.52,13.54,3.64,19.71" style="fill:none;stroke:black;stroke-width:3;opacity:0">
  <animate attributeType="CSS" attributeName="opacity" from="0" to="1" begin="4s" dur="1s" repeatCount="Indefinite" fill="freeze" />
</path>
<path d="M17.44,77.37c9.06-1.62,14.4-3.1,21.05-4c1.67-0.22,2.68,1.04,2.44,2.06c-0.99,4.25-1.86,9.22-3.62,16.28" style="fill:none;stroke:black;stroke-width:3;opacity:0">
  <animate attributeType="CSS" attributeName="opacity" from="0" to="1" begin="5s" dur="1s" repeatCount="Indefinite" fill="freeze" />
</path>
<path d="M21.42,94.55C26.8,94,33.1,93.57,40.48,92.74" style="fill:none;stroke:black;stroke-width:3;opacity:0">
  <animate attributeType="CSS" attributeName="opacity" from="0" to="1" begin="6s" dur="1s" repeatCount="Indefinite" fill="freeze" />
</path>
<path d="M69.49,13c0.12,0.36,1.67,1.85,1.67,4.11c0,7.73,0.09,19.9,0.09,23.59" style="fill:none;stroke:black;stroke-width:3;opacity:0">
  <animate attributeType="CSS" attributeName="opacity" from="0" to="1" begin="7s" dur="1s" repeatCount="Indefinite" fill="freeze" />
</path>
<path d="M59.69,19.32c0.05,0.58,0.12,1.5-0.12,2.33c-1.39,4.93-8.1,12.67-15.68,18.1" style="fill:none;stroke:black;stroke-width:3;opacity:0">
  <animate attributeType="CSS" attributeName="opacity" from="0" to="1" begin="8s" dur="1s" repeatCount="Indefinite" fill="freeze" />
</path>
<path d="M79.81,20.1c6.6,3.22,14.92,11,16.57,16.02" style="fill:none;stroke:black;stroke-width:3;opacity:0">
  <animate attributeType="CSS" attributeName="opacity" from="0" to="1" begin="9s" dur="1s" repeatCount="Indefinite" fill="freeze" />
</path>
<path d="M53.86,41.38c0.66,0.89,1.1,1.78,1.32,2.67c0.22,0.89,0.31,49.59,0.22,51.59" style="fill:none;stroke:black;stroke-width:3;opacity:0">
  <animate attributeType="CSS" attributeName="opacity" from="0" to="1" begin="10s" dur="1s" repeatCount="Indefinite" fill="freeze" />
</path>
<path d="M54.99,42.77c5.76-0.77,27.88-3.03,29.84-3.28c3.52-0.44,4.39,2.82,4.39,4.22c0,9.59-0.16,26.25-0.16,44.27c0,10.8-5.93,2.48-7.91,0.92" style="fill:none;stroke:black;stroke-width:3;opacity:0">
  <animate attributeType="CSS" attributeName="opacity" from="0" to="1" begin="11s" dur="1s" repeatCount="Indefinite" fill="freeze" />
</path>
<path d="M56.49,57.55c9.01-1.33,23.72-2,31.63-2.67" style="fill:none;stroke:black;stroke-width:3;opacity:0">
  <animate attributeType="CSS" attributeName="opacity" from="0" to="1" begin="12s" dur="1s" repeatCount="Indefinite" fill="freeze" />
</path>
<path d="M55.83,73.15c7.03-0.67,24.79-1.72,32.92-2.17" style="fill:none;stroke:black;stroke-width:3;opacity:0">
  <animate attributeType="CSS" attributeName="opacity" from="0" to="1" begin="13s" dur="1s" repeatCount="Indefinite" fill="freeze" />
</path>
</svg>