<svg width="109px" height="109px" viewBox="0 0 px 109px" xmlns="http://www.w3.org/2000/svg" xmlns:xlink="http://www.w3.org/1999/xlink" xml:space="preserve" version="1.1"  baseProfile="full">
<path d="M21.88,14.5c3.66,1.81,9.46,7.44,10.37,10.25" style="fill:none;stroke:black;stroke-width:3;opacity:0">
  <animate attributeType="CSS" attributeName="opacity" from="0" to="1" begin="0s" dur="1s" repeatCount="0" fill="freeze" />
</path>
<path d="M12.37,35.08c0.63,0.23,3.04,0.27,3.67,0.23c7.8-0.42,15.97-2.17,21.64-2.37c1.05-0.04,2.64,0.11,3.16,0.23" style="fill:none;stroke:black;stroke-width:3;opacity:0">
  <animate attributeType="CSS" attributeName="opacity" from="0" to="1" begin="1s" dur="1s" repeatCount="0" fill="freeze" />
</path>
<path d="M17.73,47.06c0.38,0.12,2.71,0.13,3.1,0.12c3.97-0.14,9.42-1.18,13.71-1.55c0.63-0.05,3.29,0.06,3.61,0.12" style="fill:none;stroke:black;stroke-width:3;opacity:0">
  <animate attributeType="CSS" attributeName="opacity" from="0" to="1" begin="2s" dur="1s" repeatCount="0" fill="freeze" />
</path>
<path d="M17.73,59.83c0.34,0.12,2.42,0.13,2.77,0.12c3.55-0.13,10-1.7,13.81-2.09c0.56-0.06,2.94,0.06,3.22,0.11" style="fill:none;stroke:black;stroke-width:3;opacity:0">
  <animate attributeType="CSS" attributeName="opacity" from="0" to="1" begin="3s" dur="1s" repeatCount="0" fill="freeze" />
</path>
<path d="M16.14,73.9c0.39,0.43,0.84,0.78,0.96,1.34c1.11,4.98,2.53,15.44,3.65,22.75" style="fill:none;stroke:black;stroke-width:3;opacity:0">
  <animate attributeType="CSS" attributeName="opacity" from="0" to="1" begin="4s" dur="1s" repeatCount="0" fill="freeze" />
</path>
<path d="M17.31,74.87c6.44-0.89,13.48-2.1,19.42-3c1.49-0.22,2.39,1.04,2.18,2.06c-0.89,4.25-2.16,11.07-3.24,18.28" style="fill:none;stroke:black;stroke-width:3;opacity:0">
  <animate attributeType="CSS" attributeName="opacity" from="0" to="1" begin="5s" dur="1s" repeatCount="0" fill="freeze" />
</path>
<path d="M20.47,95.05c4.8-0.54,10.6-1.47,17.19-2.31" style="fill:none;stroke:black;stroke-width:3;opacity:0">
  <animate attributeType="CSS" attributeName="opacity" from="0" to="1" begin="6s" dur="1s" repeatCount="0" fill="freeze" />
</path>
<path d="M65.42,11c-0.17,0.75,0.08,2.01-0.54,3.02C61.5,19.5,54,30.25,44.61,36.7" style="fill:none;stroke:black;stroke-width:3;opacity:0">
  <animate attributeType="CSS" attributeName="opacity" from="0" to="1" begin="7s" dur="1s" repeatCount="0" fill="freeze" />
</path>
<path d="M63.94,20.56c0.31,0.19,1.35,0.9,2.71,0.55C71,20,76.63,18.36,79.61,17.6c2.39-0.6,3.43,0.83,2.17,2.9c-5.53,9-18.53,28.5-39.01,37.33" style="fill:none;stroke:black;stroke-width:3;opacity:0">
  <animate attributeType="CSS" attributeName="opacity" from="0" to="1" begin="8s" dur="1s" repeatCount="0" fill="freeze" />
</path>
<path d="M59.22,28.01c1.09,0.52,5.43,3.62,7.6,6.73" style="fill:none;stroke:black;stroke-width:3;opacity:0">
  <animate attributeType="CSS" attributeName="opacity" from="0" to="1" begin="9s" dur="1s" repeatCount="0" fill="freeze" />
</path>
<path d="M51.01,36.96c1.29,1.03,5.14,5.42,6.21,7.74" style="fill:none;stroke:black;stroke-width:3;opacity:0">
  <animate attributeType="CSS" attributeName="opacity" from="0" to="1" begin="10s" dur="1s" repeatCount="0" fill="freeze" />
</path>
<path d="M61.95,48.64c0.03,0.32,0.13,0.86-0.05,1.3c-1.4,3.31-4.15,7.56-9.09,12.42" style="fill:none;stroke:black;stroke-width:3;opacity:0">
  <animate attributeType="CSS" attributeName="opacity" from="0" to="1" begin="11s" dur="1s" repeatCount="0" fill="freeze" />
</path>
<path d="M61.37,52.44c0.67,0.24,1.89,0.29,2.56,0.24c8.18-0.65,14.11-1.71,21.46-2.54c1.1-0.12,1.78,0.11,2.33,0.23" style="fill:none;stroke:black;stroke-width:3;opacity:0">
  <animate attributeType="CSS" attributeName="opacity" from="0" to="1" begin="12s" dur="1s" repeatCount="0" fill="freeze" />
</path>
<path d="M45.63,69.89c1.31,0.34,3.71,0.47,5.01,0.34C63,69,79.75,66.75,92.55,66.16c2.17-0.1,3.48,0.16,4.57,0.33" style="fill:none;stroke:black;stroke-width:3;opacity:0">
  <animate attributeType="CSS" attributeName="opacity" from="0" to="1" begin="13s" dur="1s" repeatCount="0" fill="freeze" />
</path>
<path d="M68.72,52.88c0.67,0.85,1.43,1.47,1.43,2.65c0,4.12-0.07,32.88-0.18,36.36" style="fill:none;stroke:black;stroke-width:3;opacity:0">
  <animate attributeType="CSS" attributeName="opacity" from="0" to="1" begin="14s" dur="1s" repeatCount="0" fill="freeze" />
</path>
<path d="M53.1,77.5c0.54,0.28,1.08,1.46,1.08,2.03c-0.05,3.5-0.68,6.97-1.5,13.03c-0.17,1.27-0.25,2.64,1.07,2.34c11.51-2.64,28.41-4.65,35.16-4.8" style="fill:none;stroke:black;stroke-width:3;opacity:0">
  <animate attributeType="CSS" attributeName="opacity" from="0" to="1" begin="15s" dur="1s" repeatCount="0" fill="freeze" />
</path>
<path d="M88.17,73.42c0.54,0.28,1.16,2.09,1.08,2.65c-0.53,3.43,0.01,11.93-0.45,19.07" style="fill:none;stroke:black;stroke-width:3;opacity:0">
  <animate attributeType="CSS" attributeName="opacity" from="0" to="1" begin="16s" dur="1s" repeatCount="0" fill="freeze" />
</path>
</svg>