<svg width="109px" height="109px" viewBox="0 0 px 109px" xmlns="http://www.w3.org/2000/svg" xmlns:xlink="http://www.w3.org/1999/xlink" xml:space="preserve" version="1.1"  baseProfile="full">
<path d="M23.55,15.75c2.52,1.5,6.5,6.17,7.13,8.5" style="fill:none;stroke:black;stroke-width:3;opacity:0">
  <animate attributeType="CSS" attributeName="opacity" from="0" to="1" begin="0s" dur="1s" repeatCount="Indefinite" fill="freeze" />
</path>
<path d="M10.62,34.58c0.71,0.23,3.4,0.27,4.1,0.23c8.73-0.42,17.28-2.56,23.83-3.37c1.17-0.15,2.95,0.11,3.54,0.23" style="fill:none;stroke:black;stroke-width:3;opacity:0">
  <animate attributeType="CSS" attributeName="opacity" from="0" to="1" begin="1s" dur="1s" repeatCount="Indefinite" fill="freeze" />
</path>
<path d="M17.68,48.17c0.43,0.11,3.04,0.12,3.47,0.11c4.44-0.12,8.86-1.69,13.34-2.23c0.7-0.08,3.68,0.05,4.04,0.1" style="fill:none;stroke:black;stroke-width:3;opacity:0">
  <animate attributeType="CSS" attributeName="opacity" from="0" to="1" begin="2s" dur="1s" repeatCount="Indefinite" fill="freeze" />
</path>
<path d="M18.3,60.83c0.38,0.12,2.71,0.13,3.1,0.12c3.97-0.13,9.93-2.11,13.83-2.09c0.63,0,3.29,0.06,3.6,0.11" style="fill:none;stroke:black;stroke-width:3;opacity:0">
  <animate attributeType="CSS" attributeName="opacity" from="0" to="1" begin="3s" dur="1s" repeatCount="Indefinite" fill="freeze" />
</path>
<path d="M16.51,73.51c0.38,0.34,0.81,1.07,0.93,1.52c1.08,3.9,2.43,13,3.52,18.73" style="fill:none;stroke:black;stroke-width:3;opacity:0">
  <animate attributeType="CSS" attributeName="opacity" from="0" to="1" begin="4s" dur="1s" repeatCount="Indefinite" fill="freeze" />
</path>
<path d="M17.4,74.87c6.99-0.83,13.97-2.41,20.42-3.25c1.62-0.21,2.6,0.96,2.36,1.91c-0.96,3.94-2.32,9.09-4.03,15.65" style="fill:none;stroke:black;stroke-width:3;opacity:0">
  <animate attributeType="CSS" attributeName="opacity" from="0" to="1" begin="5s" dur="1s" repeatCount="Indefinite" fill="freeze" />
</path>
<path d="M21.26,91.31c5.21-0.5,10.36-1.4,17.51-2.18" style="fill:none;stroke:black;stroke-width:3;opacity:0">
  <animate attributeType="CSS" attributeName="opacity" from="0" to="1" begin="6s" dur="1s" repeatCount="Indefinite" fill="freeze" />
</path>
<path d="M45.75,27.24c0.92,0.51,1.99,0.61,2.91,0.51c8.46-0.94,33.86-3.78,43.61-3.85c1.54-0.01,2.46,0.24,3.22,0.5" style="fill:none;stroke:black;stroke-width:3;opacity:0">
  <animate attributeType="CSS" attributeName="opacity" from="0" to="1" begin="7s" dur="1s" repeatCount="Indefinite" fill="freeze" />
</path>
<path d="M56.56,16.05c0.69,0.49,1.74,1.55,1.84,2.28c0.94,6.84,1.74,15.41,2,17.9" style="fill:none;stroke:black;stroke-width:3;opacity:0">
  <animate attributeType="CSS" attributeName="opacity" from="0" to="1" begin="8s" dur="1s" repeatCount="Indefinite" fill="freeze" />
</path>
<path d="M79.63,13.87c0.12,0.89,0.52,2.72,0.27,3.92c-1.47,7.05-2.14,10.07-3.74,16.7" style="fill:none;stroke:black;stroke-width:3;opacity:0">
  <animate attributeType="CSS" attributeName="opacity" from="0" to="1" begin="9s" dur="1s" repeatCount="Indefinite" fill="freeze" />
</path>
<path d="M50.25,41.45c0.38,0.3,0.77,0.55,0.94,0.93c1.32,2.98,2.4,11.2,3.3,16.55" style="fill:none;stroke:black;stroke-width:3;opacity:0">
  <animate attributeType="CSS" attributeName="opacity" from="0" to="1" begin="10s" dur="1s" repeatCount="Indefinite" fill="freeze" />
</path>
<path d="M52.62,42.98c9.31-1.25,29.38-2.89,34.17-3.31c1.76-0.15,2.81,1.55,2.56,2.46c-1.04,3.75-1.73,6.97-3.96,12.38" style="fill:none;stroke:black;stroke-width:3;opacity:0">
  <animate attributeType="CSS" attributeName="opacity" from="0" to="1" begin="11s" dur="1s" repeatCount="Indefinite" fill="freeze" />
</path>
<path d="M54.86,56.96c5.64-0.47,25.13-2.01,32.29-2.49" style="fill:none;stroke:black;stroke-width:3;opacity:0">
  <animate attributeType="CSS" attributeName="opacity" from="0" to="1" begin="12s" dur="1s" repeatCount="Indefinite" fill="freeze" />
</path>
<path d="M50.88,69.16c0.62,0.19,2.51,0.23,3.14,0.19c5.72-0.35,23.76-2.02,32.39-3.01c1.03-0.12,2.83,0.09,3.35,0.18" style="fill:none;stroke:black;stroke-width:3;opacity:0">
  <animate attributeType="CSS" attributeName="opacity" from="0" to="1" begin="13s" dur="1s" repeatCount="Indefinite" fill="freeze" />
</path>
<path d="M53.5,80.07c0.62,0.19,3.68,0.21,4.31,0.19c8.25-0.24,17.69-2.01,25.64-2.51c1.03-0.07,2.83,0.09,3.35,0.18" style="fill:none;stroke:black;stroke-width:3;opacity:0">
  <animate attributeType="CSS" attributeName="opacity" from="0" to="1" begin="14s" dur="1s" repeatCount="Indefinite" fill="freeze" />
</path>
<path d="M44.88,92.73c0.98,0.3,2.29,0.89,3.26,0.8C63.25,92,79,90.75,92.91,90.51c1.62-0.03,4.44,0.14,5.26,0.29" style="fill:none;stroke:black;stroke-width:3;opacity:0">
  <animate attributeType="CSS" attributeName="opacity" from="0" to="1" begin="15s" dur="1s" repeatCount="Indefinite" fill="freeze" />
</path>
<path d="M67.22,43.98c1.25,0.58,2,2.62,2.25,3.79c0.25,1.17,0,36.87-0.25,44.16" style="fill:none;stroke:black;stroke-width:3;opacity:0">
  <animate attributeType="CSS" attributeName="opacity" from="0" to="1" begin="16s" dur="1s" repeatCount="Indefinite" fill="freeze" />
</path>
</svg>