<svg width="109px" height="109px" viewBox="0 0 px 109px" xmlns="http://www.w3.org/2000/svg" xmlns:xlink="http://www.w3.org/1999/xlink" xml:space="preserve" version="1.1"  baseProfile="full">
<path d="M19.55,13c4.1,1.99,10.6,8.16,11.63,11.25" style="fill:none;stroke:black;stroke-width:3;opacity:0">
  <animate attributeType="CSS" attributeName="opacity" from="0" to="1" begin="0s" dur="1s" repeatCount="0" fill="freeze" />
</path>
<path d="M10.12,35.08c0.71,0.23,3.4,0.27,4.1,0.23c8.73-0.42,17.48-2.17,23.83-2.37c1.18-0.04,2.95,0.11,3.54,0.23" style="fill:none;stroke:black;stroke-width:3;opacity:0">
  <animate attributeType="CSS" attributeName="opacity" from="0" to="1" begin="1s" dur="1s" repeatCount="0" fill="freeze" />
</path>
<path d="M15.18,47.56c0.43,0.12,3.04,0.13,3.47,0.12c4.44-0.14,11.86-1.43,16.34-2.05c0.7-0.1,3.68,0.06,4.04,0.12" style="fill:none;stroke:black;stroke-width:3;opacity:0">
  <animate attributeType="CSS" attributeName="opacity" from="0" to="1" begin="2s" dur="1s" repeatCount="0" fill="freeze" />
</path>
<path d="M15.3,60.83c0.38,0.12,2.71,0.13,3.1,0.12c3.97-0.13,12.43-1.61,16.33-1.59c0.63,0,3.29,0.06,3.6,0.11" style="fill:none;stroke:black;stroke-width:3;opacity:0">
  <animate attributeType="CSS" attributeName="opacity" from="0" to="1" begin="3s" dur="1s" repeatCount="0" fill="freeze" />
</path>
<path d="M15.51,72.4c0.39,0.36,0.83,1.15,0.96,1.63c1.11,4.21,1.53,13.71,2.14,20.71" style="fill:none;stroke:black;stroke-width:3;opacity:0">
  <animate attributeType="CSS" attributeName="opacity" from="0" to="1" begin="4s" dur="1s" repeatCount="0" fill="freeze" />
</path>
<path d="M16.94,73.87c7.28-0.9,12.95-2.11,19.55-3c1.67-0.22,2.68,1.04,2.44,2.06c-0.99,4.25-1.86,10.22-3.62,17.28" style="fill:none;stroke:black;stroke-width:3;opacity:0">
  <animate attributeType="CSS" attributeName="opacity" from="0" to="1" begin="5s" dur="1s" repeatCount="0" fill="freeze" />
</path>
<path d="M18.92,92.05c5.37-0.54,11.18-0.97,18.56-1.81" style="fill:none;stroke:black;stroke-width:3;opacity:0">
  <animate attributeType="CSS" attributeName="opacity" from="0" to="1" begin="6s" dur="1s" repeatCount="0" fill="freeze" />
</path>
<path d="M54.77,14.75c0.25,0.39,0.78,1.66,0.89,2.16c1.1,5.34,1.66,13.87,2.35,21.45" style="fill:none;stroke:black;stroke-width:3;opacity:0">
  <animate attributeType="CSS" attributeName="opacity" from="0" to="1" begin="7s" dur="1s" repeatCount="0" fill="freeze" />
</path>
<path d="M56.01,16.72c6.89-0.91,20.22-1.93,25.36-2.69c1.89-0.28,2.92,0.93,2.76,3.15c-0.27,3.68-1.91,14.18-2.77,20.31" style="fill:none;stroke:black;stroke-width:3;opacity:0">
  <animate attributeType="CSS" attributeName="opacity" from="0" to="1" begin="8s" dur="1s" repeatCount="0" fill="freeze" />
</path>
<path d="M57.8,26.64c5.45-0.39,19.95-2.14,25.17-2.12" style="fill:none;stroke:black;stroke-width:3;opacity:0">
  <animate attributeType="CSS" attributeName="opacity" from="0" to="1" begin="9s" dur="1s" repeatCount="0" fill="freeze" />
</path>
<path d="M58.53,36.41c4.96-0.39,15.98-1.04,22.83-1.68" style="fill:none;stroke:black;stroke-width:3;opacity:0">
  <animate attributeType="CSS" attributeName="opacity" from="0" to="1" begin="10s" dur="1s" repeatCount="0" fill="freeze" />
</path>
<path d="M48.42,44.88c0.24,0.28,0.49,0.5,0.6,0.85c0.84,2.73,2.24,9.75,2.81,14.65" style="fill:none;stroke:black;stroke-width:3;opacity:0">
  <animate attributeType="CSS" attributeName="opacity" from="0" to="1" begin="11s" dur="1s" repeatCount="0" fill="freeze" />
</path>
<path d="M49.59,46.24c5.34-1.07,40.71-3.41,43.55-3.77c1.04-0.13,2.44,0.92,2.17,2.46c-0.58,3.2-2.01,8.2-3.55,12.77" style="fill:none;stroke:black;stroke-width:3;opacity:0">
  <animate attributeType="CSS" attributeName="opacity" from="0" to="1" begin="12s" dur="1s" repeatCount="0" fill="freeze" />
</path>
<path d="M63.6,44.71c0.16,1.82,0.64,9.69,0.8,11.73" style="fill:none;stroke:black;stroke-width:3;opacity:0">
  <animate attributeType="CSS" attributeName="opacity" from="0" to="1" begin="13s" dur="1s" repeatCount="0" fill="freeze" />
</path>
<path d="M78.1,44.08c-0.16,2.96-0.15,8.21-0.47,11.51" style="fill:none;stroke:black;stroke-width:3;opacity:0">
  <animate attributeType="CSS" attributeName="opacity" from="0" to="1" begin="14s" dur="1s" repeatCount="0" fill="freeze" />
</path>
<path d="M52.1,57.92c3.33-0.4,35.47-2.42,40.05-3.05" style="fill:none;stroke:black;stroke-width:3;opacity:0">
  <animate attributeType="CSS" attributeName="opacity" from="0" to="1" begin="15s" dur="1s" repeatCount="0" fill="freeze" />
</path>
<path d="M53.88,67.36c1.24,0.27,1.4,0.68,3.88,0.27c2.49-0.41,22.61-3,24.32-3.41c1.71-0.41,2.92,1.61,1.65,3.45C73.47,82.61,60.2,91.38,45.02,97" style="fill:none;stroke:black;stroke-width:3;opacity:0">
  <animate attributeType="CSS" attributeName="opacity" from="0" to="1" begin="16s" dur="1s" repeatCount="0" fill="freeze" />
</path>
<path d="M55.41,72.91c3.75,0.56,22.09,15.55,35.16,21.69c2.03,0.96,3.52,1.59,5.41,1.91" style="fill:none;stroke:black;stroke-width:3;opacity:0">
  <animate attributeType="CSS" attributeName="opacity" from="0" to="1" begin="17s" dur="1s" repeatCount="0" fill="freeze" />
</path>
</svg>