<svg width="109px" height="109px" viewBox="0 0 px 109px" xmlns="http://www.w3.org/2000/svg" xmlns:xlink="http://www.w3.org/1999/xlink" xml:space="preserve" version="1.1"  baseProfile="full">
<path d="M43.01,11.75c0.06,0.53,0.21,1.4-0.11,2.13C40.62,19,30.38,30.5,19.62,37.25" style="fill:none;stroke:black;stroke-width:3;opacity:0">
  <animate attributeType="CSS" attributeName="opacity" from="0" to="1" begin="0s" dur="1s" repeatCount="Indefinite" fill="freeze" />
</path>
<path d="M42.75,18.38c1.38,0.12,3.12,0.02,4.51-0.14c5.54-0.63,14.33-1.64,16.43-2.25c2.94-0.86,4.69,1.39,2.81,3.76c-4.17,5.28-8,9.75-12.75,16.5" style="fill:none;stroke:black;stroke-width:3;opacity:0">
  <animate attributeType="CSS" attributeName="opacity" from="0" to="1" begin="1s" dur="1s" repeatCount="Indefinite" fill="freeze" />
</path>
<path d="M33.18,37.47c0.67,0.95,1.4,2.4,1.4,3.67c0,1.03,0.04,25.75,0.05,35.24c0,2.17,0,3.54,0,3.65" style="fill:none;stroke:black;stroke-width:3;opacity:0">
  <animate attributeType="CSS" attributeName="opacity" from="0" to="1" begin="2s" dur="1s" repeatCount="Indefinite" fill="freeze" />
</path>
<path d="M35.45,39.11c6.15-0.76,27.6-2.91,34.68-3.71c4.62-0.52,5.87,0.85,5.87,5.48c0,5.23-0.09,20.35-0.11,32.88c0,1.47,0,2.91,0,4.29" style="fill:none;stroke:black;stroke-width:3;opacity:0">
  <animate attributeType="CSS" attributeName="opacity" from="0" to="1" begin="3s" dur="1s" repeatCount="Indefinite" fill="freeze" />
</path>
<path d="M35.63,51.71c10.62-1.08,27.37-2.46,39.22-3.07" style="fill:none;stroke:black;stroke-width:3;opacity:0">
  <animate attributeType="CSS" attributeName="opacity" from="0" to="1" begin="4s" dur="1s" repeatCount="Indefinite" fill="freeze" />
</path>
<path d="M35.69,63.84c9.56-0.96,28.18-2.34,38.96-2.9" style="fill:none;stroke:black;stroke-width:3;opacity:0">
  <animate attributeType="CSS" attributeName="opacity" from="0" to="1" begin="5s" dur="1s" repeatCount="Indefinite" fill="freeze" />
</path>
<path d="M35.92,77c9.83-0.75,29.21-2.39,38.96-2.39" style="fill:none;stroke:black;stroke-width:3;opacity:0">
  <animate attributeType="CSS" attributeName="opacity" from="0" to="1" begin="6s" dur="1s" repeatCount="Indefinite" fill="freeze" />
</path>
<path d="M41.76,82.62c0.37,1.5-0.33,2.79-1.45,3.71c-3.4,2.77-12.91,8.64-19.7,11.92" style="fill:none;stroke:black;stroke-width:3;opacity:0">
  <animate attributeType="CSS" attributeName="opacity" from="0" to="1" begin="7s" dur="1s" repeatCount="Indefinite" fill="freeze" />
</path>
<path d="M67.25,82.88c6.37,4.12,13.9,11.59,15.64,15.2" style="fill:none;stroke:black;stroke-width:3;opacity:0">
  <animate attributeType="CSS" attributeName="opacity" from="0" to="1" begin="8s" dur="1s" repeatCount="Indefinite" fill="freeze" />
</path>
</svg>