<svg width="109px" height="109px" viewBox="0 0 px 109px" xmlns="http://www.w3.org/2000/svg" xmlns:xlink="http://www.w3.org/1999/xlink" xml:space="preserve" version="1.1"  baseProfile="full">
<path d="M16.91,23.17c1.32,0.56,3.74,0.62,5.07,0.56c10.16-0.51,49.55-5.66,66.24-5.9c2.2-0.03,3.52,0.27,4.62,0.55" style="fill:none;stroke:black;stroke-width:3;opacity:0">
  <animate attributeType="CSS" attributeName="opacity" from="0" to="1" begin="0s" dur="1s" repeatCount="0" fill="freeze" />
</path>
<path d="M50.43,11.13c0.89,0.41,1.42,1.83,1.59,2.64c0.18,0.81,0.22,14.98,0.04,20.06" style="fill:none;stroke:black;stroke-width:3;opacity:0">
  <animate attributeType="CSS" attributeName="opacity" from="0" to="1" begin="1s" dur="1s" repeatCount="0" fill="freeze" />
</path>
<path d="M69.85,10.5c0.88,0.41,1.63,1.81,1.59,2.64c-0.19,4.11-0.69,10.11-1.71,17.71" style="fill:none;stroke:black;stroke-width:3;opacity:0">
  <animate attributeType="CSS" attributeName="opacity" from="0" to="1" begin="2s" dur="1s" repeatCount="0" fill="freeze" />
</path>
<path d="M52.59,32.57c3.25,0,17.37-1.63,19.2-1.63" style="fill:none;stroke:black;stroke-width:3;opacity:0">
  <animate attributeType="CSS" attributeName="opacity" from="0" to="1" begin="3s" dur="1s" repeatCount="0" fill="freeze" />
</path>
<path d="M33.53,11.41c0.89,0.41,1.42,1.83,1.59,2.64c0.18,0.81-0.37,10.7-0.78,22.64c-0.1,3.05-0.34,5.31,2.55,5.08c14.27-1.13,28.86-3.77,42.76-3.55c2.65,0.04,4.88,0.81,5.89,1.02" style="fill:none;stroke:black;stroke-width:3;opacity:0">
  <animate attributeType="CSS" attributeName="opacity" from="0" to="1" begin="4s" dur="1s" repeatCount="0" fill="freeze" />
</path>
<path d="M36.24,49.3c0.57,0.75,1.4,1.3,1.4,2.32c0,1.02,0.26,27.28-0.42,31.58" style="fill:none;stroke:black;stroke-width:3;opacity:0">
  <animate attributeType="CSS" attributeName="opacity" from="0" to="1" begin="5s" dur="1s" repeatCount="0" fill="freeze" />
</path>
<path d="M38.59,50.12c3.22-0.22,27.8-3.33,30.71-3.8c1.95-0.32,3.45,0.93,3.75,2.55c0.43,2.3-0.72,31.76-0.72,32.52" style="fill:none;stroke:black;stroke-width:3;opacity:0">
  <animate attributeType="CSS" attributeName="opacity" from="0" to="1" begin="6s" dur="1s" repeatCount="0" fill="freeze" />
</path>
<path d="M37.7,60.43c6.02-0.47,29.38-2.92,34.55-3.07" style="fill:none;stroke:black;stroke-width:3;opacity:0">
  <animate attributeType="CSS" attributeName="opacity" from="0" to="1" begin="7s" dur="1s" repeatCount="0" fill="freeze" />
</path>
<path d="M37.96,70.61c9.09-0.82,24.69-2.42,34.32-2.81" style="fill:none;stroke:black;stroke-width:3;opacity:0">
  <animate attributeType="CSS" attributeName="opacity" from="0" to="1" begin="8s" dur="1s" repeatCount="0" fill="freeze" />
</path>
<path d="M37.55,81.18c9.09-0.68,26.45-2.29,34.74-2.53" style="fill:none;stroke:black;stroke-width:3;opacity:0">
  <animate attributeType="CSS" attributeName="opacity" from="0" to="1" begin="9s" dur="1s" repeatCount="0" fill="freeze" />
</path>
<path d="M42.7,85.9c0.54,1.14-0.41,2.25-1.47,3.07c-3.22,2.5-11.66,7.83-18.1,10.78" style="fill:none;stroke:black;stroke-width:3;opacity:0">
  <animate attributeType="CSS" attributeName="opacity" from="0" to="1" begin="10s" dur="1s" repeatCount="0" fill="freeze" />
</path>
<path d="M64.52,84.98C72,88.8,80.83,95.71,82.87,99.04" style="fill:none;stroke:black;stroke-width:3;opacity:0">
  <animate attributeType="CSS" attributeName="opacity" from="0" to="1" begin="11s" dur="1s" repeatCount="0" fill="freeze" />
</path>
</svg>