<svg width="109px" height="109px" viewBox="0 0 px 109px" xmlns="http://www.w3.org/2000/svg" xmlns:xlink="http://www.w3.org/1999/xlink" xml:space="preserve" version="1.1"  baseProfile="full">
<path d="M76.46,11.25c-0.23,1.14-1.11,1.83-1.87,2.18c-9.47,4.33-22.4,7.37-47.09,10.86" style="fill:none;stroke:black;stroke-width:3;opacity:0">
  <animate attributeType="CSS" attributeName="opacity" from="0" to="1" begin="0s" dur="1s" repeatCount="0" fill="freeze" />
</path>
<path d="M23.5,22c0.5,1.25,0.83,2.4,0.92,4.86C25,42.25,24.5,76.5,11.81,93.97" style="fill:none;stroke:black;stroke-width:3;opacity:0">
  <animate attributeType="CSS" attributeName="opacity" from="0" to="1" begin="1s" dur="1s" repeatCount="0" fill="freeze" />
</path>
<path d="M25.75,33.04c1.75,0.41,3.74,0.48,5.75,0.41c13-0.45,38.25-3.2,54-4.81c1.99-0.2,3.25,0.07,5.25,0.36" style="fill:none;stroke:black;stroke-width:3;opacity:0">
  <animate attributeType="CSS" attributeName="opacity" from="0" to="1" begin="2s" dur="1s" repeatCount="0" fill="freeze" />
</path>
<path d="M54.5,19.75c0.42,0.17,0.76,0.75,0.76,1.09c0,3.53,0,19.81-0.08,21.91" style="fill:none;stroke:black;stroke-width:3;opacity:0">
  <animate attributeType="CSS" attributeName="opacity" from="0" to="1" begin="3s" dur="1s" repeatCount="0" fill="freeze" />
</path>
<path d="M37.67,42.9c0.61,0.84,0.99,2.45,0.99,3.59c0,1.14,0.28,30.47-0.44,35.27" style="fill:none;stroke:black;stroke-width:3;opacity:0">
  <animate attributeType="CSS" attributeName="opacity" from="0" to="1" begin="4s" dur="1s" repeatCount="0" fill="freeze" />
</path>
<path d="M39.17,44.32c3.43-0.25,30.08-2.72,33.17-3.24c2.08-0.35,3.67,1.04,3.99,2.85c0.46,2.56-0.77,35.47-0.77,36.32" style="fill:none;stroke:black;stroke-width:3;opacity:0">
  <animate attributeType="CSS" attributeName="opacity" from="0" to="1" begin="5s" dur="1s" repeatCount="0" fill="freeze" />
</path>
<path d="M38.72,55.84c6.41-0.52,31.26-2.76,36.76-2.93" style="fill:none;stroke:black;stroke-width:3;opacity:0">
  <animate attributeType="CSS" attributeName="opacity" from="0" to="1" begin="6s" dur="1s" repeatCount="0" fill="freeze" />
</path>
<path d="M39,67.21c9.67-0.92,26.26-1.7,36.52-2.13" style="fill:none;stroke:black;stroke-width:3;opacity:0">
  <animate attributeType="CSS" attributeName="opacity" from="0" to="1" begin="7s" dur="1s" repeatCount="0" fill="freeze" />
</path>
<path d="M38.56,79.51c9.67-0.76,28.14-1.56,36.96-1.83" style="fill:none;stroke:black;stroke-width:3;opacity:0">
  <animate attributeType="CSS" attributeName="opacity" from="0" to="1" begin="8s" dur="1s" repeatCount="0" fill="freeze" />
</path>
<path d="M45.04,84.78c0.57,1.27-0.43,2.51-1.57,3.43c-3.42,2.79-12.41,8.74-19.25,12.04" style="fill:none;stroke:black;stroke-width:3;opacity:0">
  <animate attributeType="CSS" attributeName="opacity" from="0" to="1" begin="9s" dur="1s" repeatCount="0" fill="freeze" />
</path>
<path d="M65.01,84.01c7.65,3.92,16.69,11.02,18.77,14.45" style="fill:none;stroke:black;stroke-width:3;opacity:0">
  <animate attributeType="CSS" attributeName="opacity" from="0" to="1" begin="10s" dur="1s" repeatCount="0" fill="freeze" />
</path>
</svg>