<svg width="109px" height="109px" viewBox="0 0 px 109px" xmlns="http://www.w3.org/2000/svg" xmlns:xlink="http://www.w3.org/1999/xlink" xml:space="preserve" version="1.1"  baseProfile="full">
<path d="M30.89,19.67c0.85,0.85,1.31,2.12,1.45,2.58c0.79,2.66,1.22,5.02,2.27,9.67c0.27,1.19,0.55,2.43,0.83,3.72" style="fill:none;stroke:black;stroke-width:3;opacity:0">
  <animate attributeType="CSS" attributeName="opacity" from="0" to="1" begin="0s" dur="1s" repeatCount="Indefinite" fill="freeze" />
</path>
<path d="M32.86,21.49c13.64-1.74,35.33-4.63,43.42-4.89c3.16-0.1,4.53,1.46,3.86,3.96C79.5,23,78.25,26.75,77.31,29" style="fill:none;stroke:black;stroke-width:3;opacity:0">
  <animate attributeType="CSS" attributeName="opacity" from="0" to="1" begin="1s" dur="1s" repeatCount="Indefinite" fill="freeze" />
</path>
<path d="M36.04,32.93c8.11-0.6,26.53-2.13,39.22-2.84c1.4-0.08,2.74-0.15,4-0.21" style="fill:none;stroke:black;stroke-width:3;opacity:0">
  <animate attributeType="CSS" attributeName="opacity" from="0" to="1" begin="2s" dur="1s" repeatCount="Indefinite" fill="freeze" />
</path>
<path d="M53.25,10c0.94,0.94,1.5,2.51,1.5,3.56c0,9.83,0,20.69,0,27.44" style="fill:none;stroke:black;stroke-width:3;opacity:0">
  <animate attributeType="CSS" attributeName="opacity" from="0" to="1" begin="3s" dur="1s" repeatCount="Indefinite" fill="freeze" />
</path>
<path d="M14.75,44.7c2.93,1.05,6.75,0.68,9.77,0.35c14.21-1.56,43.9-4.59,61.6-5.39c3.17-0.14,6.25-0.29,9.38,0.38" style="fill:none;stroke:black;stroke-width:3;opacity:0">
  <animate attributeType="CSS" attributeName="opacity" from="0" to="1" begin="4s" dur="1s" repeatCount="Indefinite" fill="freeze" />
</path>
<path d="M34.55,51.81c0.66,0.75,1.12,2.81,1.12,3.82c0,0.74,0.03,15.61,0.05,23.62c0.01,2.87,0.01,4.86,0.01,4.99" style="fill:none;stroke:black;stroke-width:3;opacity:0">
  <animate attributeType="CSS" attributeName="opacity" from="0" to="1" begin="5s" dur="1s" repeatCount="Indefinite" fill="freeze" />
</path>
<path d="M36.28,53.37c7.72-0.87,33.19-3.65,36.59-3.88c1.63-0.11,3.08,0.75,3.08,3.38c0,3.88-0.03,17.63-0.03,25.13c0,2.83-0.03,4.79-0.03,4.99" style="fill:none;stroke:black;stroke-width:3;opacity:0">
  <animate attributeType="CSS" attributeName="opacity" from="0" to="1" begin="6s" dur="1s" repeatCount="Indefinite" fill="freeze" />
</path>
<path d="M36.71,63.23C43.5,62.5,67.5,60,74.84,59.44" style="fill:none;stroke:black;stroke-width:3;opacity:0">
  <animate attributeType="CSS" attributeName="opacity" from="0" to="1" begin="7s" dur="1s" repeatCount="Indefinite" fill="freeze" />
</path>
<path d="M37.02,71.71c8.86-0.59,26.98-2.09,37.89-2.5" style="fill:none;stroke:black;stroke-width:3;opacity:0">
  <animate attributeType="CSS" attributeName="opacity" from="0" to="1" begin="8s" dur="1s" repeatCount="Indefinite" fill="freeze" />
</path>
<path d="M36.98,81.37c8.14-0.5,27.39-2.5,37.64-2.76" style="fill:none;stroke:black;stroke-width:3;opacity:0">
  <animate attributeType="CSS" attributeName="opacity" from="0" to="1" begin="9s" dur="1s" repeatCount="Indefinite" fill="freeze" />
</path>
<path d="M42.73,85.25c0,1.12-0.47,2.11-1.5,2.88C38.11,90.48,30.12,95.25,23,98" style="fill:none;stroke:black;stroke-width:3;opacity:0">
  <animate attributeType="CSS" attributeName="opacity" from="0" to="1" begin="10s" dur="1s" repeatCount="Indefinite" fill="freeze" />
</path>
<path d="M63.25,84.75c7.84,3.66,17.11,10.3,19.25,13.5" style="fill:none;stroke:black;stroke-width:3;opacity:0">
  <animate attributeType="CSS" attributeName="opacity" from="0" to="1" begin="11s" dur="1s" repeatCount="Indefinite" fill="freeze" />
</path>
</svg>