<svg width="109px" height="109px" viewBox="0 0 px 109px" xmlns="http://www.w3.org/2000/svg" xmlns:xlink="http://www.w3.org/1999/xlink" xml:space="preserve" version="1.1"  baseProfile="full">
<path d="M33.16,10.76c0.34,1.24,0.19,2.36-0.48,3.79C28.4,23.66,24.05,32.3,14.25,43.4" style="fill:none;stroke:black;stroke-width:3;opacity:0">
  <animate attributeType="CSS" attributeName="opacity" from="0" to="1" begin="0s" dur="1s" repeatCount="Indefinite" fill="freeze" />
</path>
<path d="M26.37,29.3c0.66,0.66,1.25,1.97,1.25,2.95c0,7.23,0.01,14.34,0.01,20.25c0,1.41,0,2.74,0,4" style="fill:none;stroke:black;stroke-width:3;opacity:0">
  <animate attributeType="CSS" attributeName="opacity" from="0" to="1" begin="1s" dur="1s" repeatCount="Indefinite" fill="freeze" />
</path>
<path d="M45.64,27.69c2.29,0.58,4.67,0.49,6.96,0.03c7.28-1.47,16.38-3.59,24.64-5.19c2.03-0.4,3.95-0.45,6.01-0.02" style="fill:none;stroke:black;stroke-width:3;opacity:0">
  <animate attributeType="CSS" attributeName="opacity" from="0" to="1" begin="2s" dur="1s" repeatCount="Indefinite" fill="freeze" />
</path>
<path d="M56.7,7.75c1.3,0.88,2.54,2.51,3.21,4.37c4.6,12.76,11.85,26.63,28.68,37.21c5.74,3.61,5.79,0.42,4.29-6.39" style="fill:none;stroke:black;stroke-width:3;opacity:0">
  <animate attributeType="CSS" attributeName="opacity" from="0" to="1" begin="3s" dur="1s" repeatCount="Indefinite" fill="freeze" />
</path>
<path d="M80.16,9.35c3.69,1.71,9.6,5.6,11.33,8.53" style="fill:none;stroke:black;stroke-width:3;opacity:0">
  <animate attributeType="CSS" attributeName="opacity" from="0" to="1" begin="4s" dur="1s" repeatCount="Indefinite" fill="freeze" />
</path>
<path d="M36.02,49.48c0.75,0.75,1.1,2.45,1.1,3.56c0,2.66,0,19.56,0,28.84c0,1.8,0,3.31,0,4.38" style="fill:none;stroke:black;stroke-width:3;opacity:0">
  <animate attributeType="CSS" attributeName="opacity" from="0" to="1" begin="5s" dur="1s" repeatCount="Indefinite" fill="freeze" />
</path>
<path d="M38.04,51.07c3.12-0.14,27.13-2.66,29.97-2.83c2.37-0.14,4.04,0.89,4.04,3.8c0,3.2-0.15,16.02-0.17,27.58c0,1.82,0,3.59,0,5.25" style="fill:none;stroke:black;stroke-width:3;opacity:0">
  <animate attributeType="CSS" attributeName="opacity" from="0" to="1" begin="6s" dur="1s" repeatCount="Indefinite" fill="freeze" />
</path>
<path d="M38.49,61.28c5.88-0.4,25.88-2.28,32.17-2.5" style="fill:none;stroke:black;stroke-width:3;opacity:0">
  <animate attributeType="CSS" attributeName="opacity" from="0" to="1" begin="7s" dur="1s" repeatCount="Indefinite" fill="freeze" />
</path>
<path d="M38.25,71.98c10.5-1.1,23.25-2.1,32.55-2.66" style="fill:none;stroke:black;stroke-width:3;opacity:0">
  <animate attributeType="CSS" attributeName="opacity" from="0" to="1" begin="8s" dur="1s" repeatCount="Indefinite" fill="freeze" />
</path>
<path d="M38.3,83.5c9.2-1,23.95-2,32.3-2.41" style="fill:none;stroke:black;stroke-width:3;opacity:0">
  <animate attributeType="CSS" attributeName="opacity" from="0" to="1" begin="9s" dur="1s" repeatCount="Indefinite" fill="freeze" />
</path>
<path d="M44.73,87.81c0.02,1.32-0.45,2.46-1.5,3.29c-3.17,2.51-11.7,7.69-18.05,10.66" style="fill:none;stroke:black;stroke-width:3;opacity:0">
  <animate attributeType="CSS" attributeName="opacity" from="0" to="1" begin="10s" dur="1s" repeatCount="Indefinite" fill="freeze" />
</path>
<path d="M63.7,87.96c6.46,3.43,14.1,9.64,15.87,12.63" style="fill:none;stroke:black;stroke-width:3;opacity:0">
  <animate attributeType="CSS" attributeName="opacity" from="0" to="1" begin="11s" dur="1s" repeatCount="Indefinite" fill="freeze" />
</path>
</svg>