<svg width="109px" height="109px" viewBox="0 0 px 109px" xmlns="http://www.w3.org/2000/svg" xmlns:xlink="http://www.w3.org/1999/xlink" xml:space="preserve" version="1.1"  baseProfile="full">
<path d="M16.8,19.53c0.3,1.33,0.74,2.32,0.74,4.1c0,1.77-0.33,46.18-0.2,52.04" style="fill:none;stroke:black;stroke-width:3;opacity:0">
  <animate attributeType="CSS" attributeName="opacity" from="0" to="1" begin="0s" dur="1s" repeatCount="Indefinite" fill="freeze" />
</path>
<path d="M18.04,20.57c1.71-0.22,13.7-2.56,15.26-2.83c1.29-0.22,2.82,0.74,2.71,2.38c-0.14,2.09-0.02,41.12-0.35,54.46" style="fill:none;stroke:black;stroke-width:3;opacity:0">
  <animate attributeType="CSS" attributeName="opacity" from="0" to="1" begin="1s" dur="1s" repeatCount="Indefinite" fill="freeze" />
</path>
<path d="M18.01,36.68c5.35-0.7,14.83-1.53,17.56-1.53" style="fill:none;stroke:black;stroke-width:3;opacity:0">
  <animate attributeType="CSS" attributeName="opacity" from="0" to="1" begin="2s" dur="1s" repeatCount="Indefinite" fill="freeze" />
</path>
<path d="M18.15,53.65c6.52-1.08,9.69-1.15,16.85-2.16" style="fill:none;stroke:black;stroke-width:3;opacity:0">
  <animate attributeType="CSS" attributeName="opacity" from="0" to="1" begin="3s" dur="1s" repeatCount="Indefinite" fill="freeze" />
</path>
<path d="M18.59,73.48c3.39,0,12.59-1.16,16.98-1.16" style="fill:none;stroke:black;stroke-width:3;opacity:0">
  <animate attributeType="CSS" attributeName="opacity" from="0" to="1" begin="4s" dur="1s" repeatCount="Indefinite" fill="freeze" />
</path>
<path d="M21.9,79.67c0.27,1.39,0.53,1.76,0,2.77C20.29,85.5,14.4,94.9,11.18,98.5" style="fill:none;stroke:black;stroke-width:3;opacity:0">
  <animate attributeType="CSS" attributeName="opacity" from="0" to="1" begin="5s" dur="1s" repeatCount="Indefinite" fill="freeze" />
</path>
<path d="M29.95,80c2.9,2.77,6.33,7.78,7.12,10.2" style="fill:none;stroke:black;stroke-width:3;opacity:0">
  <animate attributeType="CSS" attributeName="opacity" from="0" to="1" begin="6s" dur="1s" repeatCount="Indefinite" fill="freeze" />
</path>
<path d="M67.06,12.63c0.61,0.31,1.91,2.33,2.03,2.95c0.12,0.62,0.06,8.28-0.06,12.17" style="fill:none;stroke:black;stroke-width:3;opacity:0">
  <animate attributeType="CSS" attributeName="opacity" from="0" to="1" begin="7s" dur="1s" repeatCount="Indefinite" fill="freeze" />
</path>
<path d="M46.78,29.31c1.18,0.47,3.34,0.55,4.52,0.47c12.28-0.79,25.55-3.58,40.95-3.76c1.97-0.02,3.15,0.23,4.13,0.46" style="fill:none;stroke:black;stroke-width:3;opacity:0">
  <animate attributeType="CSS" attributeName="opacity" from="0" to="1" begin="8s" dur="1s" repeatCount="Indefinite" fill="freeze" />
</path>
<path d="M50.17,30c0.03,1.52,0.07,3.93-0.06,6.12c-0.76,12.9-2.85,44.2-11.05,58.1" style="fill:none;stroke:black;stroke-width:3;opacity:0">
  <animate attributeType="CSS" attributeName="opacity" from="0" to="1" begin="9s" dur="1s" repeatCount="Indefinite" fill="freeze" />
</path>
<path d="M56.39,56.2c1.14,0.44,3.22,0.5,4.36,0.44c7.75-0.39,23-3.14,28.5-2.77c1.89,0.13,3.04,0.21,3.99,0.43" style="fill:none;stroke:black;stroke-width:3;opacity:0">
  <animate attributeType="CSS" attributeName="opacity" from="0" to="1" begin="10s" dur="1s" repeatCount="Indefinite" fill="freeze" />
</path>
<path d="M70.42,33.62c0.12,0.29,1.77,1.52,1.77,3.39c0,12,0.14,37.5,0.14,53.36" style="fill:none;stroke:black;stroke-width:3;opacity:0">
  <animate attributeType="CSS" attributeName="opacity" from="0" to="1" begin="11s" dur="1s" repeatCount="Indefinite" fill="freeze" />
</path>
<path d="M48.65,90.93c1.42,0.7,4.02,0.73,5.45,0.7c11.84-0.3,27.28-1.97,38.28-2.08c2.38-0.03,3.79,0.33,4.98,0.68" style="fill:none;stroke:black;stroke-width:3;opacity:0">
  <animate attributeType="CSS" attributeName="opacity" from="0" to="1" begin="12s" dur="1s" repeatCount="Indefinite" fill="freeze" />
</path>
</svg>