<svg width="109px" height="109px" viewBox="0 0 px 109px" xmlns="http://www.w3.org/2000/svg" xmlns:xlink="http://www.w3.org/1999/xlink" xml:space="preserve" version="1.1"  baseProfile="full">
<path d="M18.12,24.12c1.07,1.07,1.27,2.27,1.27,3.76c0,1.14,0.07,24.49,0.07,36.62c0,3.78-0.03,6.33-0.03,6.51" style="fill:none;stroke:black;stroke-width:3;opacity:0">
  <animate attributeType="CSS" attributeName="opacity" from="0" to="1" begin="0s" dur="1s" repeatCount="Indefinite" fill="freeze" />
</path>
<path d="M20.16,25.7c1.41-0.04,10.18-1.87,14.59-2.69c3.15-0.58,4.67-0.02,4.67,3.49c0.01,5.56,0.04,23.44-0.01,38.25c-0.01,1.88-0.01,3.69-0.01,5.39" style="fill:none;stroke:black;stroke-width:3;opacity:0">
  <animate attributeType="CSS" attributeName="opacity" from="0" to="1" begin="1s" dur="1s" repeatCount="Indefinite" fill="freeze" />
</path>
<path d="M20.76,39.73C27,39,31.5,38.25,38.31,37.52" style="fill:none;stroke:black;stroke-width:3;opacity:0">
  <animate attributeType="CSS" attributeName="opacity" from="0" to="1" begin="2s" dur="1s" repeatCount="Indefinite" fill="freeze" />
</path>
<path d="M20.53,53.75c6.85-0.88,10.72-1.63,17.82-2.19" style="fill:none;stroke:black;stroke-width:3;opacity:0">
  <animate attributeType="CSS" attributeName="opacity" from="0" to="1" begin="3s" dur="1s" repeatCount="Indefinite" fill="freeze" />
</path>
<path d="M20.74,68.92c4.51-0.67,10.76-1.79,17.57-2.19" style="fill:none;stroke:black;stroke-width:3;opacity:0">
  <animate attributeType="CSS" attributeName="opacity" from="0" to="1" begin="4s" dur="1s" repeatCount="Indefinite" fill="freeze" />
</path>
<path d="M25.03,76.03c0.29,1.52,0.08,2.7-0.5,3.74c-1.74,3.14-7.73,9.91-11.21,13.51" style="fill:none;stroke:black;stroke-width:3;opacity:0">
  <animate attributeType="CSS" attributeName="opacity" from="0" to="1" begin="5s" dur="1s" repeatCount="Indefinite" fill="freeze" />
</path>
<path d="M34.83,75.75c3,3.39,6.54,9.42,7.36,12.28" style="fill:none;stroke:black;stroke-width:3;opacity:0">
  <animate attributeType="CSS" attributeName="opacity" from="0" to="1" begin="6s" dur="1s" repeatCount="Indefinite" fill="freeze" />
</path>
<path d="M47,37.13c2.5,0.62,4.57,0.25,6.63-0.08c7.65-1.26,22-4.05,30.27-5.1c2.31-0.29,4.54-0.66,6.81,0.02" style="fill:none;stroke:black;stroke-width:3;opacity:0">
  <animate attributeType="CSS" attributeName="opacity" from="0" to="1" begin="7s" dur="1s" repeatCount="Indefinite" fill="freeze" />
</path>
<path d="M45.07,59.29c0.93,0.21,2.56,0.18,3.48,0.1C53.25,59,56.5,58,62.59,57.02c0.73-0.12,1.91-0.27,2.91-0.02" style="fill:none;stroke:black;stroke-width:3;opacity:0">
  <animate attributeType="CSS" attributeName="opacity" from="0" to="1" begin="8s" dur="1s" repeatCount="Indefinite" fill="freeze" />
</path>
<path d="M55.39,45.73c1,1,1.38,2.15,1.38,3.83c0,12.32,0.01,20.06,0.01,28.19c0,1.88-0.03,3.78-0.03,5.75" style="fill:none;stroke:black;stroke-width:3;opacity:0">
  <animate attributeType="CSS" attributeName="opacity" from="0" to="1" begin="9s" dur="1s" repeatCount="Indefinite" fill="freeze" />
</path>
<path d="M63.39,16c1.33,1.63,1.8,3.09,2.08,6.6C67.8,51.98,77.5,77.25,91.91,90.12c4.7,4.2,4.49,0.7,3.82-6.53" style="fill:none;stroke:black;stroke-width:3;opacity:0">
  <animate attributeType="CSS" attributeName="opacity" from="0" to="1" begin="10s" dur="1s" repeatCount="Indefinite" fill="freeze" />
</path>
<path d="M86.99,44.58c0.26,1.04,0.01,2.43-0.38,3.87C83.62,59.5,76.16,77.19,63.98,88.87" style="fill:none;stroke:black;stroke-width:3;opacity:0">
  <animate attributeType="CSS" attributeName="opacity" from="0" to="1" begin="11s" dur="1s" repeatCount="Indefinite" fill="freeze" />
</path>
<path d="M78.08,15.75c2.6,1.77,6.75,5.81,7.97,8.84" style="fill:none;stroke:black;stroke-width:3;opacity:0">
  <animate attributeType="CSS" attributeName="opacity" from="0" to="1" begin="12s" dur="1s" repeatCount="Indefinite" fill="freeze" />
</path>
</svg>