<svg width="109px" height="109px" viewBox="0 0 px 109px" xmlns="http://www.w3.org/2000/svg" xmlns:xlink="http://www.w3.org/1999/xlink" xml:space="preserve" version="1.1"  baseProfile="full">
<path d="M17.55,18.96c1,1,1.05,2.42,1.05,3.49c0,1.27-0.06,27.73-0.05,42.43c0,5.34,0.02,9.13,0.05,9.59" style="fill:none;stroke:black;stroke-width:3;opacity:0">
  <animate attributeType="CSS" attributeName="opacity" from="0" to="1" begin="0s" dur="1s" repeatCount="0" fill="freeze" />
</path>
<path d="M19.14,19.99c3.55-0.79,10.96-2.2,14.75-2.88c2.92-0.52,4.44,0.91,4.43,3.77c0,7.24-0.06,30.98-0.09,44c-0.01,4.98-0.02,8.4-0.02,8.72" style="fill:none;stroke:black;stroke-width:3;opacity:0">
  <animate attributeType="CSS" attributeName="opacity" from="0" to="1" begin="1s" dur="1s" repeatCount="0" fill="freeze" />
</path>
<path d="M19.61,36.25c3.64-0.5,14.64-1.76,17.6-1.76" style="fill:none;stroke:black;stroke-width:3;opacity:0">
  <animate attributeType="CSS" attributeName="opacity" from="0" to="1" begin="2s" dur="1s" repeatCount="0" fill="freeze" />
</path>
<path d="M19.26,53.17c4.74-0.54,13.23-1.84,17.98-1.84" style="fill:none;stroke:black;stroke-width:3;opacity:0">
  <animate attributeType="CSS" attributeName="opacity" from="0" to="1" begin="3s" dur="1s" repeatCount="0" fill="freeze" />
</path>
<path d="M19.74,71.52c4.63-0.27,12.43-1.34,17.23-1.34" style="fill:none;stroke:black;stroke-width:3;opacity:0">
  <animate attributeType="CSS" attributeName="opacity" from="0" to="1" begin="4s" dur="1s" repeatCount="0" fill="freeze" />
</path>
<path d="M23.41,80.52c0.08,1.09-0.14,2.07-0.7,2.92c-2.47,3.81-5.97,8.81-9.47,12.81" style="fill:none;stroke:black;stroke-width:3;opacity:0">
  <animate attributeType="CSS" attributeName="opacity" from="0" to="1" begin="5s" dur="1s" repeatCount="0" fill="freeze" />
</path>
<path d="M32.82,78.76c3.54,3.86,7.43,9.74,8.68,14.25" style="fill:none;stroke:black;stroke-width:3;opacity:0">
  <animate attributeType="CSS" attributeName="opacity" from="0" to="1" begin="6s" dur="1s" repeatCount="0" fill="freeze" />
</path>
<path d="M46.39,32.56c2.86,0.32,5.03,0.28,7.51-0.33c5.84-1.02,15.98-2.85,24.6-3.97c1.91-0.25,3.82-0.04,5.75,0.23" style="fill:none;stroke:black;stroke-width:3;opacity:0">
  <animate attributeType="CSS" attributeName="opacity" from="0" to="1" begin="7s" dur="1s" repeatCount="0" fill="freeze" />
</path>
<path d="M48.82,45.87c3.15,0.64,6.2-0.01,9.34-0.7c5.96-1.3,12.39-2.51,17.6-3.29c2.47-0.44,4.97-0.56,7.49-0.39" style="fill:none;stroke:black;stroke-width:3;opacity:0">
  <animate attributeType="CSS" attributeName="opacity" from="0" to="1" begin="8s" dur="1s" repeatCount="0" fill="freeze" />
</path>
<path d="M44.25,60.45c3.22,0.87,6.37,0.71,9.54-0.04c7.34-1.74,21.46-4.78,30.71-6.07c3.2-0.45,6.32-0.79,9.5-0.34" style="fill:none;stroke:black;stroke-width:3;opacity:0">
  <animate attributeType="CSS" attributeName="opacity" from="0" to="1" begin="9s" dur="1s" repeatCount="0" fill="freeze" />
</path>
<path d="M55.77,11.25c1.64,1.83,2.31,3.33,2.66,7.26C61.88,56.5,72.25,81.5,90.7,94.18c6.21,4.27,5.78,1.03,4.96-7.06" style="fill:none;stroke:black;stroke-width:3;opacity:0">
  <animate attributeType="CSS" attributeName="opacity" from="0" to="1" begin="10s" dur="1s" repeatCount="0" fill="freeze" />
</path>
<path d="M85.95,61.88c0,1.12-0.08,1.89-0.7,2.92C79.75,73.88,70,85.38,49.31,95.11" style="fill:none;stroke:black;stroke-width:3;opacity:0">
  <animate attributeType="CSS" attributeName="opacity" from="0" to="1" begin="11s" dur="1s" repeatCount="0" fill="freeze" />
</path>
<path d="M70.37,13.03c4.12,1.4,9.99,4.12,11.91,6.52" style="fill:none;stroke:black;stroke-width:3;opacity:0">
  <animate attributeType="CSS" attributeName="opacity" from="0" to="1" begin="12s" dur="1s" repeatCount="0" fill="freeze" />
</path>
</svg>