<svg width="109px" height="109px" viewBox="0 0 px 109px" xmlns="http://www.w3.org/2000/svg" xmlns:xlink="http://www.w3.org/1999/xlink" xml:space="preserve" version="1.1"  baseProfile="full">
<path d="M23.13,16.98c3.72,0.74,7.42,0.72,11.12-0.05c14.39-1.43,30.75-2.8,43.25-3.56c3.83-0.23,7.99-0.49,11.62-0.04" style="fill:none;stroke:black;stroke-width:3;opacity:0">
  <animate attributeType="CSS" attributeName="opacity" from="0" to="1" begin="0s" dur="1s" repeatCount="Indefinite" fill="freeze" />
</path>
<path d="M25.22,18c0.95,0.96,1.21,2.38,1.21,3.84c0,19.59-2.61,50.71-14.12,67.38" style="fill:none;stroke:black;stroke-width:3;opacity:0">
  <animate attributeType="CSS" attributeName="opacity" from="0" to="1" begin="1s" dur="1s" repeatCount="Indefinite" fill="freeze" />
</path>
<path d="M43.69,22.23c-0.02,0.94-0.16,1.87-0.59,2.69C40.62,29.62,37.25,35,31.22,40.64" style="fill:none;stroke:black;stroke-width:3;opacity:0">
  <animate attributeType="CSS" attributeName="opacity" from="0" to="1" begin="2s" dur="1s" repeatCount="Indefinite" fill="freeze" />
</path>
<path d="M39.16,36.74c0.62,0.62,0.88,1.76,0.88,2.93c0,3.11,0,6.41,0,9.21c0,1.48,0,2.82,0,3.91" style="fill:none;stroke:black;stroke-width:3;opacity:0">
  <animate attributeType="CSS" attributeName="opacity" from="0" to="1" begin="3s" dur="1s" repeatCount="Indefinite" fill="freeze" />
</path>
<path d="M58.1,20.07c0,0.8-0.28,1.55-0.65,2.22c-2.37,4.25-5.13,7.85-10.56,13.03" style="fill:none;stroke:black;stroke-width:3;opacity:0">
  <animate attributeType="CSS" attributeName="opacity" from="0" to="1" begin="4s" dur="1s" repeatCount="Indefinite" fill="freeze" />
</path>
<path d="M53.25,31.5c0.69,0.69,0.97,1.38,0.97,2.25c0,2.89-0.04,8.72-0.07,13.24c-0.02,2.52-0.03,4.64-0.03,5.63" style="fill:none;stroke:black;stroke-width:3;opacity:0">
  <animate attributeType="CSS" attributeName="opacity" from="0" to="1" begin="5s" dur="1s" repeatCount="Indefinite" fill="freeze" />
</path>
<path d="M72.57,19.5c0.04,0.67-0.06,1.31-0.31,1.92c-0.71,2.05-1.64,3.21-2.77,4.96" style="fill:none;stroke:black;stroke-width:3;opacity:0">
  <animate attributeType="CSS" attributeName="opacity" from="0" to="1" begin="6s" dur="1s" repeatCount="Indefinite" fill="freeze" />
</path>
<path d="M54.08,29.83c4.15-0.32,17.2-1.48,25.05-2.19c3.01-0.27,5.26-0.48,5.94-0.54" style="fill:none;stroke:black;stroke-width:3;opacity:0">
  <animate attributeType="CSS" attributeName="opacity" from="0" to="1" begin="7s" dur="1s" repeatCount="Indefinite" fill="freeze" />
</path>
<path d="M68.49,29.65c0.68,0.68,0.74,1.72,0.74,2.6c0,3.92-0.11,11.09-0.11,15.38" style="fill:none;stroke:black;stroke-width:3;opacity:0">
  <animate attributeType="CSS" attributeName="opacity" from="0" to="1" begin="8s" dur="1s" repeatCount="Indefinite" fill="freeze" />
</path>
<path d="M55.35,36.15c3.87-0.26,15-1.14,21.92-1.7c2.78-0.22,4.88-0.39,5.54-0.45" style="fill:none;stroke:black;stroke-width:3;opacity:0">
  <animate attributeType="CSS" attributeName="opacity" from="0" to="1" begin="9s" dur="1s" repeatCount="Indefinite" fill="freeze" />
</path>
<path d="M55.19,42.48c4.05-0.22,15.18-0.97,22.19-1.45c2.88-0.2,5.06-0.35,5.78-0.4" style="fill:none;stroke:black;stroke-width:3;opacity:0">
  <animate attributeType="CSS" attributeName="opacity" from="0" to="1" begin="10s" dur="1s" repeatCount="Indefinite" fill="freeze" />
</path>
<path d="M55.44,49.64c4.29-0.33,19.33-1.33,27.69-1.92c2.84-0.2,4.91-0.35,5.53-0.41" style="fill:none;stroke:black;stroke-width:3;opacity:0">
  <animate attributeType="CSS" attributeName="opacity" from="0" to="1" begin="11s" dur="1s" repeatCount="Indefinite" fill="freeze" />
</path>
<path d="M40.16,59.35c0.81,0.81,1.13,1.87,1.13,2.72c0,1.81,0.05,11.91,0.08,19.06c0.01,2.45,0.01,4.54,0.01,5.84" style="fill:none;stroke:black;stroke-width:3;opacity:0">
  <animate attributeType="CSS" attributeName="opacity" from="0" to="1" begin="12s" dur="1s" repeatCount="Indefinite" fill="freeze" />
</path>
<path d="M41.72,59.84c3.17-0.11,26.78-1.71,30.19-1.85c2.88-0.12,3.68,1.59,3.68,3.76c0,3.8-0.1,13.6-0.16,19.62c-0.03,2.7-0.05,4.64-0.05,4.93" style="fill:none;stroke:black;stroke-width:3;opacity:0">
  <animate attributeType="CSS" attributeName="opacity" from="0" to="1" begin="13s" dur="1s" repeatCount="Indefinite" fill="freeze" />
</path>
<path d="M42.59,68.11C53,67.38,64.75,66.5,74.56,66.13" style="fill:none;stroke:black;stroke-width:3;opacity:0">
  <animate attributeType="CSS" attributeName="opacity" from="0" to="1" begin="14s" dur="1s" repeatCount="Indefinite" fill="freeze" />
</path>
<path d="M42.35,76.46c10.32-0.71,19.52-1.34,31.74-1.77" style="fill:none;stroke:black;stroke-width:3;opacity:0">
  <animate attributeType="CSS" attributeName="opacity" from="0" to="1" begin="15s" dur="1s" repeatCount="Indefinite" fill="freeze" />
</path>
<path d="M42.44,85.29c8.93-0.35,22.93-1.42,31.9-1.78" style="fill:none;stroke:black;stroke-width:3;opacity:0">
  <animate attributeType="CSS" attributeName="opacity" from="0" to="1" begin="16s" dur="1s" repeatCount="Indefinite" fill="freeze" />
</path>
<path d="M47.99,90.27c-0.24,1.11-0.86,1.7-1.8,2.33c-2.84,1.89-10.06,5.67-15.75,7.91" style="fill:none;stroke:black;stroke-width:3;opacity:0">
  <animate attributeType="CSS" attributeName="opacity" from="0" to="1" begin="17s" dur="1s" repeatCount="Indefinite" fill="freeze" />
</path>
<path d="M67.46,89.28c6.26,2.94,13.65,8.28,15.36,10.85" style="fill:none;stroke:black;stroke-width:3;opacity:0">
  <animate attributeType="CSS" attributeName="opacity" from="0" to="1" begin="18s" dur="1s" repeatCount="Indefinite" fill="freeze" />
</path>
</svg>