<svg width="109px" height="109px" viewBox="0 0 px 109px" xmlns="http://www.w3.org/2000/svg" xmlns:xlink="http://www.w3.org/1999/xlink" xml:space="preserve" version="1.1"  baseProfile="full">
<path d="M33.33,27.84c1.08,0.36,3.06,0.46,4.14,0.36c10.88-0.97,23.29-3.24,35.9-4.16c1.79-0.13,2.88,0.17,3.78,0.35" style="fill:none;stroke:black;stroke-width:3;opacity:0">
  <animate attributeType="CSS" attributeName="opacity" from="0" to="1" begin="0s" dur="1s" repeatCount="0" fill="freeze" />
</path>
<path d="M52.57,11.38c0.13,0.31,1.89,1.63,1.89,3.62c0,12.81,0.12,25,0.12,29.41" style="fill:none;stroke:black;stroke-width:3;opacity:0">
  <animate attributeType="CSS" attributeName="opacity" from="0" to="1" begin="1s" dur="1s" repeatCount="0" fill="freeze" />
</path>
<path d="M17,46.78c1.91,0.57,5.43,0.72,7.33,0.57C42,46,68,43,86.46,41.8c3.18-0.21,5.1,0.27,6.7,0.56" style="fill:none;stroke:black;stroke-width:3;opacity:0">
  <animate attributeType="CSS" attributeName="opacity" from="0" to="1" begin="2s" dur="1s" repeatCount="0" fill="freeze" />
</path>
<path d="M33.69,54.68c3.74,2.49,9.38,9.53,10.31,13.41" style="fill:none;stroke:black;stroke-width:3;opacity:0">
  <animate attributeType="CSS" attributeName="opacity" from="0" to="1" begin="3s" dur="1s" repeatCount="0" fill="freeze" />
</path>
<path d="M71.3,50.68c0.12,0.83,0.53,2.31-0.23,3.33C64.75,62.5,52.75,74.75,31.2,85.9" style="fill:none;stroke:black;stroke-width:3;opacity:0">
  <animate attributeType="CSS" attributeName="opacity" from="0" to="1" begin="4s" dur="1s" repeatCount="0" fill="freeze" />
</path>
<path d="M18.75,88.13C22,87,27.26,86.5,31.52,87.14c4.26,0.65,28.45,4.94,32.63,5.84C77,95.75,85.25,95.5,91.25,95.77" style="fill:none;stroke:black;stroke-width:3;opacity:0">
  <animate attributeType="CSS" attributeName="opacity" from="0" to="1" begin="5s" dur="1s" repeatCount="0" fill="freeze" />
</path>
</svg>