<svg width="109px" height="109px" viewBox="0 0 px 109px" xmlns="http://www.w3.org/2000/svg" xmlns:xlink="http://www.w3.org/1999/xlink" xml:space="preserve" version="1.1"  baseProfile="full">
<path d="M15.28,20.71c0.37,0.32,0.75,0.58,0.91,0.97c1.28,3.13,2.35,13.7,3.23,19.32" style="fill:none;stroke:black;stroke-width:3;opacity:0">
  <animate attributeType="CSS" attributeName="opacity" from="0" to="1" begin="0s" dur="1s" repeatCount="Indefinite" fill="freeze" />
</path>
<path d="M17.11,22.4c8.76-1.68,16.79-2.5,21.13-2.91c1.58-0.15,2.54,0.89,2.31,1.77c-1.04,4.06-2.15,10.85-3.43,15.5" style="fill:none;stroke:black;stroke-width:3;opacity:0">
  <animate attributeType="CSS" attributeName="opacity" from="0" to="1" begin="1s" dur="1s" repeatCount="Indefinite" fill="freeze" />
</path>
<path d="M20.06,39.69c5.09-0.46,11.65-1.34,18.64-2.05" style="fill:none;stroke:black;stroke-width:3;opacity:0">
  <animate attributeType="CSS" attributeName="opacity" from="0" to="1" begin="2s" dur="1s" repeatCount="Indefinite" fill="freeze" />
</path>
<path d="M27.87,39.74c1.09,0.5,1.96,2.23,1.96,3.25c0,5.51,0.28,26.01,0.28,36" style="fill:none;stroke:black;stroke-width:3;opacity:0">
  <animate attributeType="CSS" attributeName="opacity" from="0" to="1" begin="3s" dur="1s" repeatCount="Indefinite" fill="freeze" />
</path>
<path d="M30.38,57.74c3.37-0.49,6.87-1.74,10.35-2c1.74-0.13,2.18-0.25,3.26,0" style="fill:none;stroke:black;stroke-width:3;opacity:0">
  <animate attributeType="CSS" attributeName="opacity" from="0" to="1" begin="4s" dur="1s" repeatCount="Indefinite" fill="freeze" />
</path>
<path d="M16.87,52.99c1.09,0.5,1.74,2.25,1.96,3.25c0.22,1-0.08,18.51-0.08,30.26" style="fill:none;stroke:black;stroke-width:3;opacity:0">
  <animate attributeType="CSS" attributeName="opacity" from="0" to="1" begin="5s" dur="1s" repeatCount="Indefinite" fill="freeze" />
</path>
<path d="M11.5,87.57c1,0.68,2.87,1.35,3.7,0.9C23.41,84,31.44,78.5,40.5,73.49" style="fill:none;stroke:black;stroke-width:3;opacity:0">
  <animate attributeType="CSS" attributeName="opacity" from="0" to="1" begin="6s" dur="1s" repeatCount="Indefinite" fill="freeze" />
</path>
<path d="M68.13,13c1.09,0.38,2.65,2.27,2.63,3.38c-0.08,3.5-0.08,9.02-0.08,12.2" style="fill:none;stroke:black;stroke-width:3;opacity:0">
  <animate attributeType="CSS" attributeName="opacity" from="0" to="1" begin="7s" dur="1s" repeatCount="Indefinite" fill="freeze" />
</path>
<path d="M49.83,27.56c0,3.52-2.45,14.85-3.56,17.2" style="fill:none;stroke:black;stroke-width:3;opacity:0">
  <animate attributeType="CSS" attributeName="opacity" from="0" to="1" begin="8s" dur="1s" repeatCount="Indefinite" fill="freeze" />
</path>
<path d="M49.69,31.19c6.83-0.77,35.74-4.01,41.28-4.3c8.65-0.45,1.83,6.06-0.32,7.7" style="fill:none;stroke:black;stroke-width:3;opacity:0">
  <animate attributeType="CSS" attributeName="opacity" from="0" to="1" begin="9s" dur="1s" repeatCount="Indefinite" fill="freeze" />
</path>
<path d="M55.35,41.99c1.03,0.27,2.92,0.27,3.96,0.27C63.75,42.25,76,40.5,81.26,40c1.71-0.16,2.75,0.13,3.61,0.27" style="fill:none;stroke:black;stroke-width:3;opacity:0">
  <animate attributeType="CSS" attributeName="opacity" from="0" to="1" begin="10s" dur="1s" repeatCount="Indefinite" fill="freeze" />
</path>
<path d="M48.08,55.92c1.08,0.39,3.06,0.46,4.14,0.39c8.14-0.56,27.98-2.65,41.12-2.67c1.8,0,2.88,0.18,3.78,0.38" style="fill:none;stroke:black;stroke-width:3;opacity:0">
  <animate attributeType="CSS" attributeName="opacity" from="0" to="1" begin="11s" dur="1s" repeatCount="Indefinite" fill="freeze" />
</path>
<path d="M69.64,57.09c0.08,0.42,1.54,2.18,1.61,4.85c0.35,12.79,0.29,25.61,0.29,29.96c0,9.25-3.97,3.32-7.65,0.22" style="fill:none;stroke:black;stroke-width:3;opacity:0">
  <animate attributeType="CSS" attributeName="opacity" from="0" to="1" begin="12s" dur="1s" repeatCount="Indefinite" fill="freeze" />
</path>
<path d="M55.49,68.17c0.03,0.52,0.08,1.34-0.07,2.09c-0.87,4.41-7.16,13.01-13.99,18.93" style="fill:none;stroke:black;stroke-width:3;opacity:0">
  <animate attributeType="CSS" attributeName="opacity" from="0" to="1" begin="13s" dur="1s" repeatCount="Indefinite" fill="freeze" />
</path>
<path d="M82.65,69.18c4.68,3.71,12.32,14.83,13.49,20.59" style="fill:none;stroke:black;stroke-width:3;opacity:0">
  <animate attributeType="CSS" attributeName="opacity" from="0" to="1" begin="14s" dur="1s" repeatCount="Indefinite" fill="freeze" />
</path>
</svg>