<svg width="109px" height="109px" viewBox="0 0 px 109px" xmlns="http://www.w3.org/2000/svg" xmlns:xlink="http://www.w3.org/1999/xlink" xml:space="preserve" version="1.1"  baseProfile="full">
<path d="M20.88,14.43c1.13,0.29,3.32,0.55,4.52,0.49c6.46-0.33,15.07-2.05,17.66-2.17c1.28-0.06,2.45,0.75,2.18,1.6c-0.67,2.1-2.04,5.32-3.1,9.98" style="fill:none;stroke:black;stroke-width:3;opacity:0">
  <animate attributeType="CSS" attributeName="opacity" from="0" to="1" begin="0s" dur="1s" repeatCount="0" fill="freeze" />
</path>
<path d="M24.92,26.61c3.24-0.1,11.07-1.31,19.42-1.72" style="fill:none;stroke:black;stroke-width:3;opacity:0">
  <animate attributeType="CSS" attributeName="opacity" from="0" to="1" begin="1s" dur="1s" repeatCount="0" fill="freeze" />
</path>
<path d="M23.65,15.73c0,1.45-0.18,4.11-0.2,5.47c-0.13,9.83-2.86,22.31-8.9,28.62" style="fill:none;stroke:black;stroke-width:3;opacity:0">
  <animate attributeType="CSS" attributeName="opacity" from="0" to="1" begin="2s" dur="1s" repeatCount="0" fill="freeze" />
</path>
<path d="M24.09,36.41c0.14,0.4,0.61,1.3,0.66,1.61c0.35,2.22,1.43,7.73,1.92,11.94" style="fill:none;stroke:black;stroke-width:3;opacity:0">
  <animate attributeType="CSS" attributeName="opacity" from="0" to="1" begin="3s" dur="1s" repeatCount="0" fill="freeze" />
</path>
<path d="M24.8,37.42c3.91-0.45,16.67-2.47,19.34-2.54c1.1-0.03,1.52,0.94,1.37,1.6c-0.6,2.63-2.09,6.34-2.68,9.71" style="fill:none;stroke:black;stroke-width:3;opacity:0">
  <animate attributeType="CSS" attributeName="opacity" from="0" to="1" begin="4s" dur="1s" repeatCount="0" fill="freeze" />
</path>
<path d="M26.88,47.79c3.23-0.19,13.8-1.03,17.68-1.27" style="fill:none;stroke:black;stroke-width:3;opacity:0">
  <animate attributeType="CSS" attributeName="opacity" from="0" to="1" begin="5s" dur="1s" repeatCount="0" fill="freeze" />
</path>
<path d="M69.5,9.09c1.26,0.79,1.88,0.79,1.88,2.62c0,1.83,0,3.4,0,5.81" style="fill:none;stroke:black;stroke-width:3;opacity:0">
  <animate attributeType="CSS" attributeName="opacity" from="0" to="1" begin="6s" dur="1s" repeatCount="0" fill="freeze" />
</path>
<path d="M55.11,18.73c1.19,0.35,2.58,0.4,3.76,0.35c6.7-0.3,16.91-2.19,27.04-2.45c1.98-0.05,3.17,0.17,4.15,0.34" style="fill:none;stroke:black;stroke-width:3;opacity:0">
  <animate attributeType="CSS" attributeName="opacity" from="0" to="1" begin="7s" dur="1s" repeatCount="0" fill="freeze" />
</path>
<path d="M61.08,21.88c2.67,2.45,3.88,4.95,4.12,6.56" style="fill:none;stroke:black;stroke-width:3;opacity:0">
  <animate attributeType="CSS" attributeName="opacity" from="0" to="1" begin="8s" dur="1s" repeatCount="0" fill="freeze" />
</path>
<path d="M81.5,18.32c0.53,0.33,0.18,1.57,0.03,1.82C80,22.67,78.05,26.98,77,28.43" style="fill:none;stroke:black;stroke-width:3;opacity:0">
  <animate attributeType="CSS" attributeName="opacity" from="0" to="1" begin="9s" dur="1s" repeatCount="0" fill="freeze" />
</path>
<path d="M50.97,31.29c1.31,0.39,2.84,0.42,4.16,0.39c8.36-0.22,24.19-2.79,33.99-3.02c2.19-0.05,3.5,0.19,4.6,0.38" style="fill:none;stroke:black;stroke-width:3;opacity:0">
  <animate attributeType="CSS" attributeName="opacity" from="0" to="1" begin="10s" dur="1s" repeatCount="0" fill="freeze" />
</path>
<path d="M53.33,40.49c1.02,0.24,2.88,0.31,3.9,0.24c12.93-0.8,20.19-1.97,32.18-2.48c1.69-0.07,2.71,0.12,3.56,0.24" style="fill:none;stroke:black;stroke-width:3;opacity:0">
  <animate attributeType="CSS" attributeName="opacity" from="0" to="1" begin="11s" dur="1s" repeatCount="0" fill="freeze" />
</path>
<path d="M70.76,31.8c0.44,0.24,1.38,1.79,1.47,2.27c0.51,2.74-0.13,14.52-0.15,15.23" style="fill:none;stroke:black;stroke-width:3;opacity:0">
  <animate attributeType="CSS" attributeName="opacity" from="0" to="1" begin="12s" dur="1s" repeatCount="0" fill="freeze" />
</path>
<path d="M30.37,57.57c0.32,0.3,0.69,1.11,0.8,1.48c0.89,3.12,1.49,7.28,2.56,12.45" style="fill:none;stroke:black;stroke-width:3;opacity:0">
  <animate attributeType="CSS" attributeName="opacity" from="0" to="1" begin="13s" dur="1s" repeatCount="0" fill="freeze" />
</path>
<path d="M31.14,58.55c7.61-0.3,39.17-3.48,42.54-3.56c1.4-0.04,1.92,1.38,1.79,2.23c-0.5,3.09-1.72,5.81-2.68,9.91" style="fill:none;stroke:black;stroke-width:3;opacity:0">
  <animate attributeType="CSS" attributeName="opacity" from="0" to="1" begin="14s" dur="1s" repeatCount="0" fill="freeze" />
</path>
<path d="M33.99,70.06c3.96-0.29,35.69-2.43,41.07-3.18" style="fill:none;stroke:black;stroke-width:3;opacity:0">
  <animate attributeType="CSS" attributeName="opacity" from="0" to="1" begin="15s" dur="1s" repeatCount="0" fill="freeze" />
</path>
<path d="M52.16,70.94c0.54,0.3,1.79,1.62,1.79,2.22c0,4.07-0.01,13.49-0.12,17.21" style="fill:none;stroke:black;stroke-width:3;opacity:0">
  <animate attributeType="CSS" attributeName="opacity" from="0" to="1" begin="16s" dur="1s" repeatCount="0" fill="freeze" />
</path>
<path d="M54.55,80.19C55.84,80.19,64.15,79.09,72.04,78.34C73.71,78.18,75.28,78.17,76.6,78.17" style="fill:none;stroke:black;stroke-width:3;opacity:0">
  <animate attributeType="CSS" attributeName="opacity" from="0" to="1" begin="17s" dur="1s" repeatCount="0" fill="freeze" />
</path>
<path d="M37.39,76.5c0.11,0.58,0.29,1.52-0.22,2.34c-4.71,7.56-8.28,12.91-19.82,20.37" style="fill:none;stroke:black;stroke-width:3;opacity:0">
  <animate attributeType="CSS" attributeName="opacity" from="0" to="1" begin="18s" dur="1s" repeatCount="0" fill="freeze" />
</path>
<path d="M33.93,83.88c4.08,0.13,23.5,9.16,47.5,14.33c2.87,0.62,6.66,0.59,9.48,0.79" style="fill:none;stroke:black;stroke-width:3;opacity:0">
  <animate attributeType="CSS" attributeName="opacity" from="0" to="1" begin="19s" dur="1s" repeatCount="0" fill="freeze" />
</path>
</svg>