<svg width="109px" height="109px" viewBox="0 0 px 109px" xmlns="http://www.w3.org/2000/svg" xmlns:xlink="http://www.w3.org/1999/xlink" xml:space="preserve" version="1.1"  baseProfile="full">
<path d="M30.09,12.14c0.02,0.22,0.31,1.2,0.26,1.51c-0.35,1.84-3.06,6.84-5.79,9.32" style="fill:none;stroke:black;stroke-width:3;opacity:0">
  <animate attributeType="CSS" attributeName="opacity" from="0" to="1" begin="0s" dur="1s" repeatCount="0" fill="freeze" />
</path>
<path d="M16.67,24.25c0.59,0.5,0.95,2.25,1.07,3.25c0.12,1,0.27,29.75,0.15,36" style="fill:none;stroke:black;stroke-width:3;opacity:0">
  <animate attributeType="CSS" attributeName="opacity" from="0" to="1" begin="1s" dur="1s" repeatCount="0" fill="freeze" />
</path>
<path d="M18.14,26.34C21.75,26,31.64,24,33.98,23.98c1.96-0.02,2.44,1.27,2.44,3.02c0,12.39-0.36,51.06-0.36,62.18c0,10.33-3.55,4.83-6.7,1.82" style="fill:none;stroke:black;stroke-width:3;opacity:0">
  <animate attributeType="CSS" attributeName="opacity" from="0" to="1" begin="2s" dur="1s" repeatCount="0" fill="freeze" />
</path>
<path d="M18.38,38.75c4.88-0.5,15.18-1.25,17.08-1.5" style="fill:none;stroke:black;stroke-width:3;opacity:0">
  <animate attributeType="CSS" attributeName="opacity" from="0" to="1" begin="3s" dur="1s" repeatCount="0" fill="freeze" />
</path>
<path d="M19.28,50.25c6.22-0.5,9.83-0.75,15.67-1.25" style="fill:none;stroke:black;stroke-width:3;opacity:0">
  <animate attributeType="CSS" attributeName="opacity" from="0" to="1" begin="4s" dur="1s" repeatCount="0" fill="freeze" />
</path>
<path d="M11.66,64.47c0.64,0.76,1.75,1.02,3.66,0.38c3.88-1.3,12.78-4.2,17.25-5.85" style="fill:none;stroke:black;stroke-width:3;opacity:0">
  <animate attributeType="CSS" attributeName="opacity" from="0" to="1" begin="5s" dur="1s" repeatCount="0" fill="freeze" />
</path>
<path d="M44.82,45.5c-0.07,1.25-0.22,1.76-1,3.42c-5.4,11.44-23.28,32.51-34.79,38.33" style="fill:none;stroke:black;stroke-width:3;opacity:0">
  <animate attributeType="CSS" attributeName="opacity" from="0" to="1" begin="6s" dur="1s" repeatCount="0" fill="freeze" />
</path>
<path d="M46.91,33.68c1.93,0.32,4.15,0.3,5.64,0.21c6-0.39,24.37-1.89,37.2-2.71c1.49-0.1,3.66-0.23,4.59,0" style="fill:none;stroke:black;stroke-width:3;opacity:0">
  <animate attributeType="CSS" attributeName="opacity" from="0" to="1" begin="7s" dur="1s" repeatCount="0" fill="freeze" />
</path>
<path d="M65.92,11.75c1.18,0.47,1.88,2.12,2.12,3.06s0,76.8-0.24,82.69" style="fill:none;stroke:black;stroke-width:3;opacity:0">
  <animate attributeType="CSS" attributeName="opacity" from="0" to="1" begin="8s" dur="1s" repeatCount="0" fill="freeze" />
</path>
<path d="M67.58,33.14C63.08,46.3,52.5,64.75,42,72.39" style="fill:none;stroke:black;stroke-width:3;opacity:0">
  <animate attributeType="CSS" attributeName="opacity" from="0" to="1" begin="9s" dur="1s" repeatCount="0" fill="freeze" />
</path>
<path d="M69.39,36.12c4.36,9.13,17.36,26.38,23.53,32.12c1.52,1.42,2.49,2.28,3.83,2.73" style="fill:none;stroke:black;stroke-width:3;opacity:0">
  <animate attributeType="CSS" attributeName="opacity" from="0" to="1" begin="10s" dur="1s" repeatCount="0" fill="freeze" />
</path>
<path d="M51.67,73.62c0.9,0.28,2.54,0.38,3.44,0.28c6.14-0.65,18.89-1.65,26.56-1.74c1.5-0.02,2.4,0.13,3.14,0.27" style="fill:none;stroke:black;stroke-width:3;opacity:0">
  <animate attributeType="CSS" attributeName="opacity" from="0" to="1" begin="11s" dur="1s" repeatCount="0" fill="freeze" />
</path>
</svg>