<svg width="109px" height="109px" viewBox="0 0 px 109px" xmlns="http://www.w3.org/2000/svg" xmlns:xlink="http://www.w3.org/1999/xlink" xml:space="preserve" version="1.1"  baseProfile="full">
<path d="M53.03,9.64c0.21,1.1,0.09,1.85-0.52,2.87c-1.82,3.01-3.19,5.09-7.77,9.92" style="fill:none;stroke:black;stroke-width:3;opacity:0">
  <animate attributeType="CSS" attributeName="opacity" from="0" to="1" begin="0s" dur="1s" repeatCount="0" fill="freeze" />
</path>
<path d="M34.87,24c1.06,1.06,1.46,2.48,1.46,3.5c0,3.88,0.28,27.25,0.28,36.75" style="fill:none;stroke:black;stroke-width:3;opacity:0">
  <animate attributeType="CSS" attributeName="opacity" from="0" to="1" begin="1s" dur="1s" repeatCount="0" fill="freeze" />
</path>
<path d="M37.07,25.59c5.22-0.84,25.49-3.39,29.71-4.11c2.84-0.48,4.47,1.14,4.47,3.77c0,12.39-0.16,55.81-0.16,66.93c0,11.08-6.59,3.83-8.61,1.82" style="fill:none;stroke:black;stroke-width:3;opacity:0">
  <animate attributeType="CSS" attributeName="opacity" from="0" to="1" begin="2s" dur="1s" repeatCount="0" fill="freeze" />
</path>
<path d="M37.5,37.25c8.62-1.25,27.38-3.62,32.5-4" style="fill:none;stroke:black;stroke-width:3;opacity:0">
  <animate attributeType="CSS" attributeName="opacity" from="0" to="1" begin="3s" dur="1s" repeatCount="0" fill="freeze" />
</path>
<path d="M37.75,49.75c6.75-1,25.74-4.25,32-4.5" style="fill:none;stroke:black;stroke-width:3;opacity:0">
  <animate attributeType="CSS" attributeName="opacity" from="0" to="1" begin="4s" dur="1s" repeatCount="0" fill="freeze" />
</path>
<path d="M18.57,68.07c1.66,1.39,2.8,1.56,5.93,0.68c10.25-2.88,38.88-11.12,45.75-13.25" style="fill:none;stroke:black;stroke-width:3;opacity:0">
  <animate attributeType="CSS" attributeName="opacity" from="0" to="1" begin="5s" dur="1s" repeatCount="0" fill="freeze" />
</path>
<path d="M90.25,37.5c0.12,1.62-0.13,3.19-1.5,5.25C79.25,57,46.5,82,26.25,89.25" style="fill:none;stroke:black;stroke-width:3;opacity:0">
  <animate attributeType="CSS" attributeName="opacity" from="0" to="1" begin="6s" dur="1s" repeatCount="0" fill="freeze" />
</path>
</svg>