<svg width="109px" height="109px" viewBox="0 0 px 109px" xmlns="http://www.w3.org/2000/svg" xmlns:xlink="http://www.w3.org/1999/xlink" xml:space="preserve" version="1.1"  baseProfile="full">
<path d="M9.75,27.5c1.03,0.38,2.92,0.9,3.96,0.88c9.54-0.13,20.54-0.88,29.18-1.88c1.71-0.2,2.75,0.18,3.61,0.37" style="fill:none;stroke:black;stroke-width:3;opacity:0">
  <animate attributeType="CSS" attributeName="opacity" from="0" to="1" begin="0s" dur="1s" repeatCount="Indefinite" fill="freeze" />
</path>
<path d="M11.75,39.69c0.48,0.45,1.08,0.8,1.17,1.39c0.65,4.32,2.43,15.48,3.34,23.66" style="fill:none;stroke:black;stroke-width:3;opacity:0">
  <animate attributeType="CSS" attributeName="opacity" from="0" to="1" begin="1s" dur="1s" repeatCount="Indefinite" fill="freeze" />
</path>
<path d="M13.59,41.33c7.26-0.87,22.1-2.46,27.05-2.59c2.05-0.06,3.47,1.68,3.38,3.04c-0.3,4.66-1.02,14.47-3.17,21.93" style="fill:none;stroke:black;stroke-width:3;opacity:0">
  <animate attributeType="CSS" attributeName="opacity" from="0" to="1" begin="2s" dur="1s" repeatCount="Indefinite" fill="freeze" />
</path>
<path d="M16.3,52.12c7.45-0.62,18.7-1.37,26.03-1.87" style="fill:none;stroke:black;stroke-width:3;opacity:0">
  <animate attributeType="CSS" attributeName="opacity" from="0" to="1" begin="3s" dur="1s" repeatCount="Indefinite" fill="freeze" />
</path>
<path d="M16.3,63.4c6.36-0.9,16.7-1.4,24.55-2.09" style="fill:none;stroke:black;stroke-width:3;opacity:0">
  <animate attributeType="CSS" attributeName="opacity" from="0" to="1" begin="4s" dur="1s" repeatCount="Indefinite" fill="freeze" />
</path>
<path d="M10,75.04c1.47,0.77,4.15,0.83,5.64,0.77C23,75.5,34.15,74.5,42,73.75c2.44-0.23,4.27-0.13,5.5,0.25" style="fill:none;stroke:black;stroke-width:3;opacity:0">
  <animate attributeType="CSS" attributeName="opacity" from="0" to="1" begin="5s" dur="1s" repeatCount="Indefinite" fill="freeze" />
</path>
<path d="M26.56,13.13c0.76,0.6,2.01,3.12,2.01,5.66c0,1.2-0.1,73.13-0.25,80.59" style="fill:none;stroke:black;stroke-width:3;opacity:0">
  <animate attributeType="CSS" attributeName="opacity" from="0" to="1" begin="6s" dur="1s" repeatCount="Indefinite" fill="freeze" />
</path>
<path d="M68.92,9.75c0.06,0.84,0.27,2.24-0.12,3.4c-2.68,7.96-7.56,21.35-20.83,31.97" style="fill:none;stroke:black;stroke-width:3;opacity:0">
  <animate attributeType="CSS" attributeName="opacity" from="0" to="1" begin="7s" dur="1s" repeatCount="Indefinite" fill="freeze" />
</path>
<path d="M68.62,14.35c3.77,5.57,19.61,23.26,23.77,27.34c1.41,1.38,3.22,1.98,4.63,2.37" style="fill:none;stroke:black;stroke-width:3;opacity:0">
  <animate attributeType="CSS" attributeName="opacity" from="0" to="1" begin="8s" dur="1s" repeatCount="Indefinite" fill="freeze" />
</path>
<path d="M75.1,40.08c0.07,0.48,0.25,1.29-0.14,1.92c-2.55,4.1-11.13,12.06-23.75,17.65" style="fill:none;stroke:black;stroke-width:3;opacity:0">
  <animate attributeType="CSS" attributeName="opacity" from="0" to="1" begin="9s" dur="1s" repeatCount="Indefinite" fill="freeze" />
</path>
<path d="M84.13,53.89c0.09,0.58,0.32,1.6-0.17,2.35c-3.39,5.13-14.47,15.38-31.09,22.46" style="fill:none;stroke:black;stroke-width:3;opacity:0">
  <animate attributeType="CSS" attributeName="opacity" from="0" to="1" begin="10s" dur="1s" repeatCount="Indefinite" fill="freeze" />
</path>
<path d="M91.77,69.6c0.13,0.67,0.27,1.73-0.25,2.69C88.44,77.96,70.76,90.39,46.57,98" style="fill:none;stroke:black;stroke-width:3;opacity:0">
  <animate attributeType="CSS" attributeName="opacity" from="0" to="1" begin="11s" dur="1s" repeatCount="Indefinite" fill="freeze" />
</path>
</svg>