<svg width="109px" height="109px" viewBox="0 0 px 109px" xmlns="http://www.w3.org/2000/svg" xmlns:xlink="http://www.w3.org/1999/xlink" xml:space="preserve" version="1.1"  baseProfile="full">
<path d="M10.25,27.5c1.03,0.38,2.93,0.95,3.96,0.88C23.75,27.75,26.75,27,35.39,26c1.71-0.2,2.75,0.18,3.61,0.37" style="fill:none;stroke:black;stroke-width:3;opacity:0">
  <animate attributeType="CSS" attributeName="opacity" from="0" to="1" begin="0s" dur="1s" repeatCount="0" fill="freeze" />
</path>
<path d="M12.25,39.84c0.43,0.49,0.98,0.86,1.06,1.5c0.58,4.65,1.7,16.11,2.52,24.91" style="fill:none;stroke:black;stroke-width:3;opacity:0">
  <animate attributeType="CSS" attributeName="opacity" from="0" to="1" begin="1s" dur="1s" repeatCount="0" fill="freeze" />
</path>
<path d="M13.91,41.6c6.57-0.93,17.96-2.72,22.45-2.86c1.86-0.06,2.24,1.27,2.16,2.73c-0.27,5.01-1.02,13.78-2.82,22.43" style="fill:none;stroke:black;stroke-width:3;opacity:0">
  <animate attributeType="CSS" attributeName="opacity" from="0" to="1" begin="2s" dur="1s" repeatCount="0" fill="freeze" />
</path>
<path d="M14.87,52.21c6.75-0.67,16.44-1.59,23.07-2.12" style="fill:none;stroke:black;stroke-width:3;opacity:0">
  <animate attributeType="CSS" attributeName="opacity" from="0" to="1" begin="3s" dur="1s" repeatCount="0" fill="freeze" />
</path>
<path d="M15.87,63.8c5.76-0.96,12.72-1.62,19.83-2.36" style="fill:none;stroke:black;stroke-width:3;opacity:0">
  <animate attributeType="CSS" attributeName="opacity" from="0" to="1" begin="4s" dur="1s" repeatCount="0" fill="freeze" />
</path>
<path d="M9.5,77.01c1.29,0.67,3.64,1.25,4.95,1.17c7.55-0.43,16.35-1.65,23.23-2.31c2.14-0.2,3.75-0.12,4.82,0.22" style="fill:none;stroke:black;stroke-width:3;opacity:0">
  <animate attributeType="CSS" attributeName="opacity" from="0" to="1" begin="5s" dur="1s" repeatCount="0" fill="freeze" />
</path>
<path d="M23.24,12.88c0.65,0.51,2.03,3.85,2.16,4.87c0.13,1.03-0.08,73.71-0.22,80.13" style="fill:none;stroke:black;stroke-width:3;opacity:0">
  <animate attributeType="CSS" attributeName="opacity" from="0" to="1" begin="6s" dur="1s" repeatCount="0" fill="freeze" />
</path>
<path d="M43.46,18.39c1.52,0.36,4.32,0.42,5.85,0.36c8.22-0.33,27.19-2.5,40.25-3.49c2.53-0.19,4.07,0.17,5.34,0.35" style="fill:none;stroke:black;stroke-width:3;opacity:0">
  <animate attributeType="CSS" attributeName="opacity" from="0" to="1" begin="7s" dur="1s" repeatCount="0" fill="freeze" />
</path>
<path d="M47.27,36.65c0.96,0.85,1.28,2.17,1.28,3.74c0,11.86,0.24,51.56,0.24,54.11" style="fill:none;stroke:black;stroke-width:3;opacity:0">
  <animate attributeType="CSS" attributeName="opacity" from="0" to="1" begin="8s" dur="1s" repeatCount="0" fill="freeze" />
</path>
<path d="M49.1,38.25c5.82-0.78,38.41-3.17,39.58-3.27c2.57-0.23,3.59,1.02,3.59,4.55c0,4.05-0.13,35.22-0.13,46.41C92.14,99,86,91,84.43,89.3" style="fill:none;stroke:black;stroke-width:3;opacity:0">
  <animate attributeType="CSS" attributeName="opacity" from="0" to="1" begin="9s" dur="1s" repeatCount="0" fill="freeze" />
</path>
<path d="M67.79,17c0.33,0.45,1.03,3.35,1.09,4.25c0.07,0.9,0.96,47.15,0.89,52.75" style="fill:none;stroke:black;stroke-width:3;opacity:0">
  <animate attributeType="CSS" attributeName="opacity" from="0" to="1" begin="10s" dur="1s" repeatCount="0" fill="freeze" />
</path>
<path d="M58.23,50.5c0.51,0.45,1.09,2.35,1.01,3.25c-0.33,4,0.15,11.25-0.6,19.5c-0.38,4.25,0.9,4.14,2.25,3.75c5.27-1.5,12.12-2.75,19.67-3.5" style="fill:none;stroke:black;stroke-width:3;opacity:0">
  <animate attributeType="CSS" attributeName="opacity" from="0" to="1" begin="11s" dur="1s" repeatCount="0" fill="freeze" />
</path>
<path d="M80.47,49.25c0.35,0.45,0.7,3.34,0.7,4.25c0,6.75-0.07,16.25-0.48,23" style="fill:none;stroke:black;stroke-width:3;opacity:0">
  <animate attributeType="CSS" attributeName="opacity" from="0" to="1" begin="12s" dur="1s" repeatCount="0" fill="freeze" />
</path>
</svg>