<svg width="109px" height="109px" viewBox="0 0 px 109px" xmlns="http://www.w3.org/2000/svg" xmlns:xlink="http://www.w3.org/1999/xlink" xml:space="preserve" version="1.1"  baseProfile="full">
<path d="M27.62,13.75c1.01,1.31,1.51,1.31,1.51,4.35c0,3.05,0,5.65,0,9.65" style="fill:none;stroke:black;stroke-width:3;opacity:0">
  <animate attributeType="CSS" attributeName="opacity" from="0" to="1" begin="0s" dur="1s" repeatCount="0" fill="freeze" />
</path>
<path d="M13.1,29.58c0.83,0.27,1.81,0.31,2.64,0.27c4.71-0.23,17.89-2.46,25.01-2.66c1.39-0.04,2.23,0.13,2.92,0.26" style="fill:none;stroke:black;stroke-width:3;opacity:0">
  <animate attributeType="CSS" attributeName="opacity" from="0" to="1" begin="1s" dur="1s" repeatCount="0" fill="freeze" />
</path>
<path d="M19.45,35.25c2.4,4.66,3.49,9.43,3.71,12.5" style="fill:none;stroke:black;stroke-width:3;opacity:0">
  <animate attributeType="CSS" attributeName="opacity" from="0" to="1" begin="2s" dur="1s" repeatCount="0" fill="freeze" />
</path>
<path d="M37.26,30.75c0.54,0.54,0.61,1.82,0.54,2.27c-0.43,3.08-4.09,11.87-5.17,14.23" style="fill:none;stroke:black;stroke-width:3;opacity:0">
  <animate attributeType="CSS" attributeName="opacity" from="0" to="1" begin="3s" dur="1s" repeatCount="0" fill="freeze" />
</path>
<path d="M11,51.8c1.11,0.39,2.42,0.53,3.52,0.39C20.11,51.5,34.3,49,40.86,48.7c1.85-0.09,2.96,0.19,3.89,0.38" style="fill:none;stroke:black;stroke-width:3;opacity:0">
  <animate attributeType="CSS" attributeName="opacity" from="0" to="1" begin="4s" dur="1s" repeatCount="0" fill="freeze" />
</path>
<path d="M12.68,70.75c0.73,0.88,2.06,1.1,2.79,0.88c9.25-2.87,20.64-7.44,27.68-10.11" style="fill:none;stroke:black;stroke-width:3;opacity:0">
  <animate attributeType="CSS" attributeName="opacity" from="0" to="1" begin="5s" dur="1s" repeatCount="0" fill="freeze" />
</path>
<path d="M27.23,53.13c0.83,0.58,1.83,2.14,1.86,3.31c0.23,9.11,0.68,26.72-16.59,41.8" style="fill:none;stroke:black;stroke-width:3;opacity:0">
  <animate attributeType="CSS" attributeName="opacity" from="0" to="1" begin="6s" dur="1s" repeatCount="0" fill="freeze" />
</path>
<path d="M48.97,26.61c1.06,0.32,3,0.38,4.06,0.32c8.91-0.44,25.19-2.75,34.74-3.05c1.76-0.06,2.83,0.15,3.71,0.32" style="fill:none;stroke:black;stroke-width:3;opacity:0">
  <animate attributeType="CSS" attributeName="opacity" from="0" to="1" begin="7s" dur="1s" repeatCount="0" fill="freeze" />
</path>
<path d="M48.74,39.45c0.3,0.32,0.61,0.59,0.75,0.99c1.05,3.2,2.81,12.01,3.52,17.75" style="fill:none;stroke:black;stroke-width:3;opacity:0">
  <animate attributeType="CSS" attributeName="opacity" from="0" to="1" begin="8s" dur="1s" repeatCount="0" fill="freeze" />
</path>
<path d="M50.63,41.19c12.12-1.69,31.89-4.03,35.44-4.35c2.21-0.2,3.61,2.07,3.02,3.92c-1.57,4.96-1.95,8.15-3.18,11.95" style="fill:none;stroke:black;stroke-width:3;opacity:0">
  <animate attributeType="CSS" attributeName="opacity" from="0" to="1" begin="9s" dur="1s" repeatCount="0" fill="freeze" />
</path>
<path d="M53.16,56.81c8.76-1.21,26.86-2.54,35.05-3.14" style="fill:none;stroke:black;stroke-width:3;opacity:0">
  <animate attributeType="CSS" attributeName="opacity" from="0" to="1" begin="10s" dur="1s" repeatCount="0" fill="freeze" />
</path>
<path d="M65.75,12.25c1.25,0.5,2,2.25,2.25,3.25s0,77.75-0.25,84" style="fill:none;stroke:black;stroke-width:3;opacity:0">
  <animate attributeType="CSS" attributeName="opacity" from="0" to="1" begin="11s" dur="1s" repeatCount="0" fill="freeze" />
</path>
<path d="M67.42,57.07C62.74,67.11,50.58,81.32,40.86,87" style="fill:none;stroke:black;stroke-width:3;opacity:0">
  <animate attributeType="CSS" attributeName="opacity" from="0" to="1" begin="12s" dur="1s" repeatCount="0" fill="freeze" />
</path>
<path d="M67.99,57.6c4.12,6.15,17.47,21.9,24.38,26.35c1.61,1.04,2.61,1.84,4.02,2.2" style="fill:none;stroke:black;stroke-width:3;opacity:0">
  <animate attributeType="CSS" attributeName="opacity" from="0" to="1" begin="13s" dur="1s" repeatCount="0" fill="freeze" />
</path>
</svg>