<svg width="109px" height="109px" viewBox="0 0 px 109px" xmlns="http://www.w3.org/2000/svg" xmlns:xlink="http://www.w3.org/1999/xlink" xml:space="preserve" version="1.1"  baseProfile="full">
<path d="M19.38,16c4.19,1.74,10.83,7.17,11.88,9.88" style="fill:none;stroke:black;stroke-width:3;opacity:0">
  <animate attributeType="CSS" attributeName="opacity" from="0" to="1" begin="0s" dur="1s" repeatCount="Indefinite" fill="freeze" />
</path>
<path d="M13.38,35.75c4.46,1.52,11.51,6.26,12.62,8.63" style="fill:none;stroke:black;stroke-width:3;opacity:0">
  <animate attributeType="CSS" attributeName="opacity" from="0" to="1" begin="1s" dur="1s" repeatCount="Indefinite" fill="freeze" />
</path>
<path d="M11.5,58.19c2.25,0.85,3.78,0.54,4.75,0.21C20.38,57,26,55.16,27.5,54.74c1.5-0.43,2.83,1.2,2,2.6c-7.88,13.29-8.62,7.79-0.5,16.98c0.98,1.11,0.75,2.1-0.75,3.17c-1.5,1.07-6.5,3.65-11.12,6.02" style="fill:none;stroke:black;stroke-width:3;opacity:0">
  <animate attributeType="CSS" attributeName="opacity" from="0" to="1" begin="2s" dur="1s" repeatCount="Indefinite" fill="freeze" />
</path>
<path d="M11.25,85.38c3.05-0.38,9.08-0.74,13.72-0.58c8.91,0.32,31.59,5.75,36.05,6.91C73.25,94.88,79,95.62,89.5,95.57" style="fill:none;stroke:black;stroke-width:3;opacity:0">
  <animate attributeType="CSS" attributeName="opacity" from="0" to="1" begin="3s" dur="1s" repeatCount="Indefinite" fill="freeze" />
</path>
</svg>