<svg width="109px" height="109px" viewBox="0 0 px 109px" xmlns="http://www.w3.org/2000/svg" xmlns:xlink="http://www.w3.org/1999/xlink" xml:space="preserve" version="1.1"  baseProfile="full">
<path d="M77.75,13.25c-0.25,1.5-1.74,2.71-2.86,3.4C70.25,19.5,62.5,23,51.81,26.72" style="fill:none;stroke:black;stroke-width:3;opacity:0">
  <animate attributeType="CSS" attributeName="opacity" from="0" to="1" begin="0s" dur="1s" repeatCount="0" fill="freeze" />
</path>
<path d="M48.54,25.5c0.96,1.25,1.45,2.93,1.45,4.56c0,18.44,0.14,31.94-9.18,44.15" style="fill:none;stroke:black;stroke-width:3;opacity:0">
  <animate attributeType="CSS" attributeName="opacity" from="0" to="1" begin="1s" dur="1s" repeatCount="0" fill="freeze" />
</path>
<path d="M52.75,40.9c0.58,0.12,3.06,0.31,4.6,0.12C65.62,40,78.72,37.99,87.9,37.2c1.54-0.13,4.25-0.12,5.22,0" style="fill:none;stroke:black;stroke-width:3;opacity:0">
  <animate attributeType="CSS" attributeName="opacity" from="0" to="1" begin="2s" dur="1s" repeatCount="0" fill="freeze" />
</path>
<path d="M72.87,41.75c1.19,1.19,1.71,2.38,1.71,3.75c0,2.08-0.07,22.38-0.09,35c0,1.75,0,3.36,0,4.75" style="fill:none;stroke:black;stroke-width:3;opacity:0">
  <animate attributeType="CSS" attributeName="opacity" from="0" to="1" begin="3s" dur="1s" repeatCount="0" fill="freeze" />
</path>
<path d="M20.96,19.25c3.63,1.74,9.38,7.17,10.29,9.88" style="fill:none;stroke:black;stroke-width:3;opacity:0">
  <animate attributeType="CSS" attributeName="opacity" from="0" to="1" begin="4s" dur="1s" repeatCount="0" fill="freeze" />
</path>
<path d="M13.11,50.5c2.25,1,3.75,0.5,4.75,0.25S26.61,47.5,28.11,47c3-1,4.83,0.21,1.75,4.75c-6.11,9-5.86,9.25,0.25,15.5c3.04,3.11,1.64,4.5-0.75,6.5c-1.5,1.25-8.5,7.25-10,7.75" style="fill:none;stroke:black;stroke-width:3;opacity:0">
  <animate attributeType="CSS" attributeName="opacity" from="0" to="1" begin="5s" dur="1s" repeatCount="0" fill="freeze" />
</path>
<path d="M15.25,83c3-0.5,9-1.75,13.5-0.75s30.07,7.71,34.5,9c12,3.5,21.25,4.5,30.25,2.75" style="fill:none;stroke:black;stroke-width:3;opacity:0">
  <animate attributeType="CSS" attributeName="opacity" from="0" to="1" begin="6s" dur="1s" repeatCount="0" fill="freeze" />
</path>
</svg>