<svg width="109px" height="109px" viewBox="0 0 px 109px" xmlns="http://www.w3.org/2000/svg" xmlns:xlink="http://www.w3.org/1999/xlink" xml:space="preserve" version="1.1"  baseProfile="full">
<path d="M41.27,31.56c1.24,0.32,3.51,0.43,4.75,0.32c13.23-1.13,30.29-3.45,42.07-3.45c2.07,0,3.31,0.15,4.34,0.31" style="fill:none;stroke:black;stroke-width:3;opacity:0">
  <animate attributeType="CSS" attributeName="opacity" from="0" to="1" begin="0s" dur="1s" repeatCount="Indefinite" fill="freeze" />
</path>
<path d="M64.01,10.08c0.06,0.41,0.82,2.14,0.88,4.74c0.28,12.51-0.18,60.75-0.18,65.01c0,7.34-4.03,2.18-6.09,0.21" style="fill:none;stroke:black;stroke-width:3;opacity:0">
  <animate attributeType="CSS" attributeName="opacity" from="0" to="1" begin="1s" dur="1s" repeatCount="Indefinite" fill="freeze" />
</path>
<path d="M46.48,43.15c3.49,1.4,9.02,5.77,9.9,7.96" style="fill:none;stroke:black;stroke-width:3;opacity:0">
  <animate attributeType="CSS" attributeName="opacity" from="0" to="1" begin="2s" dur="1s" repeatCount="Indefinite" fill="freeze" />
</path>
<path d="M40.5,73.12c1.75,0.38,3.03,0.41,4.4-0.86c4.6-4.27,8.2-7.95,13.54-13.41" style="fill:none;stroke:black;stroke-width:3;opacity:0">
  <animate attributeType="CSS" attributeName="opacity" from="0" to="1" begin="3s" dur="1s" repeatCount="Indefinite" fill="freeze" />
</path>
<path d="M85.92,36.73c0.08,0.39,0.14,1.06-0.16,1.56C83,43.09,77.24,48.54,71.82,51.95" style="fill:none;stroke:black;stroke-width:3;opacity:0">
  <animate attributeType="CSS" attributeName="opacity" from="0" to="1" begin="4s" dur="1s" repeatCount="Indefinite" fill="freeze" />
</path>
<path d="M72.3,59.07c6.45,3.18,14.95,10.43,19.24,16.37" style="fill:none;stroke:black;stroke-width:3;opacity:0">
  <animate attributeType="CSS" attributeName="opacity" from="0" to="1" begin="5s" dur="1s" repeatCount="Indefinite" fill="freeze" />
</path>
<path d="M75.08,10.83c4.16,1.49,10.76,6.14,11.8,8.46" style="fill:none;stroke:black;stroke-width:3;opacity:0">
  <animate attributeType="CSS" attributeName="opacity" from="0" to="1" begin="6s" dur="1s" repeatCount="Indefinite" fill="freeze" />
</path>
<path d="M16.96,14.25c4.07,1.44,10.52,5.9,11.54,8.13" style="fill:none;stroke:black;stroke-width:3;opacity:0">
  <animate attributeType="CSS" attributeName="opacity" from="0" to="1" begin="7s" dur="1s" repeatCount="Indefinite" fill="freeze" />
</path>
<path d="M13.21,33.5c4.25,1.52,10.98,6.26,12.04,8.63" style="fill:none;stroke:black;stroke-width:3;opacity:0">
  <animate attributeType="CSS" attributeName="opacity" from="0" to="1" begin="8s" dur="1s" repeatCount="Indefinite" fill="freeze" />
</path>
<path d="M10.5,55.94c2.25,0.85,3.75,0.43,4.75,0.21c1-0.21,8.5-2.99,10-3.42c1.5-0.43,3.75,1.07,2.75,2.35s-4.5,7.19-5.25,8.26c-0.75,1.07-0.5,2.99,1,4.48s2.75,3.2,3.5,4.48C28,73.59,28,74.66,26.5,75.73c-1.5,1.07-9,7.04-10.5,7.47" style="fill:none;stroke:black;stroke-width:3;opacity:0">
  <animate attributeType="CSS" attributeName="opacity" from="0" to="1" begin="9s" dur="1s" repeatCount="Indefinite" fill="freeze" />
</path>
<path d="M12.25,85.09c2.99-0.48,8.89-1.59,13.46-1.21c7.54,0.62,29.98,7.83,34.39,9.05c11.96,3.33,21.18,4.28,30.15,2.61" style="fill:none;stroke:black;stroke-width:3;opacity:0">
  <animate attributeType="CSS" attributeName="opacity" from="0" to="1" begin="10s" dur="1s" repeatCount="Indefinite" fill="freeze" />
</path>
</svg>