<svg width="109px" height="109px" viewBox="0 0 px 109px" xmlns="http://www.w3.org/2000/svg" xmlns:xlink="http://www.w3.org/1999/xlink" xml:space="preserve" version="1.1"  baseProfile="full">
<path d="M55.44,13.3c0.06,0.46,0.12,1.19-0.11,1.86c-1.36,3.92-9.19,12.51-19.9,17.77" style="fill:none;stroke:black;stroke-width:3;opacity:0">
  <animate attributeType="CSS" attributeName="opacity" from="0" to="1" begin="0s" dur="1s" repeatCount="0" fill="freeze" />
</path>
<path d="M66.44,11.5c5.43,1.14,22.22,18.87,26.46,21.96c1.44,1.05,2.67,1.49,4.1,1.79" style="fill:none;stroke:black;stroke-width:3;opacity:0">
  <animate attributeType="CSS" attributeName="opacity" from="0" to="1" begin="1s" dur="1s" repeatCount="0" fill="freeze" />
</path>
<path d="M46.63,30.32c1.12,0.63,3.14,0.7,4.27,0.63c7.39-0.45,19.43-1.42,25.56-1.77c1.85-0.1,2.97,0.3,3.9,0.62" style="fill:none;stroke:black;stroke-width:3;opacity:0">
  <animate attributeType="CSS" attributeName="opacity" from="0" to="1" begin="2s" dur="1s" repeatCount="0" fill="freeze" />
</path>
<path d="M43.42,40.75c0.54,0.93,0.75,3.18,0.75,4.42c0,1.24,0.03,36.81,0.03,37.17" style="fill:none;stroke:black;stroke-width:3;opacity:0">
  <animate attributeType="CSS" attributeName="opacity" from="0" to="1" begin="3s" dur="1s" repeatCount="0" fill="freeze" />
</path>
<path d="M44.2,42.17c3.06-0.15,33.47-2.52,36.07-2.63c2.17-0.09,3.29,1.54,3.29,3.59c0,1.15-0.87,31.64-0.86,39.58" style="fill:none;stroke:black;stroke-width:3;opacity:0">
  <animate attributeType="CSS" attributeName="opacity" from="0" to="1" begin="4s" dur="1s" repeatCount="0" fill="freeze" />
</path>
<path d="M56.65,34.11c0.34,1.01,0.8,1.9,0.78,2.99C57.25,47.5,56,55.5,49.17,61.53" style="fill:none;stroke:black;stroke-width:3;opacity:0">
  <animate attributeType="CSS" attributeName="opacity" from="0" to="1" begin="5s" dur="1s" repeatCount="0" fill="freeze" />
</path>
<path d="M67.82,32.35c0.47,0.9,0.84,1.96,0.87,3.34c0.09,4.39-0.21,11.5-0.25,16.92c-0.04,4.71,1.31,5.29,5.77,5.29c2.83,0,5.63-0.59,5.96-1.12" style="fill:none;stroke:black;stroke-width:3;opacity:0">
  <animate attributeType="CSS" attributeName="opacity" from="0" to="1" begin="6s" dur="1s" repeatCount="0" fill="freeze" />
</path>
<path d="M44.68,70.14c3.86,0,33.28-2.05,37.64-2.05" style="fill:none;stroke:black;stroke-width:3;opacity:0">
  <animate attributeType="CSS" attributeName="opacity" from="0" to="1" begin="7s" dur="1s" repeatCount="0" fill="freeze" />
</path>
<path d="M44.81,80.49c7.87-0.39,27.94-1.38,37.74-1.71" style="fill:none;stroke:black;stroke-width:3;opacity:0">
  <animate attributeType="CSS" attributeName="opacity" from="0" to="1" begin="8s" dur="1s" repeatCount="0" fill="freeze" />
</path>
<path d="M17.46,15.25c4.07,1.74,10.52,7.17,11.54,9.88" style="fill:none;stroke:black;stroke-width:3;opacity:0">
  <animate attributeType="CSS" attributeName="opacity" from="0" to="1" begin="9s" dur="1s" repeatCount="0" fill="freeze" />
</path>
<path d="M12.96,34.5c4.52,1.57,11.67,6.45,12.79,8.88" style="fill:none;stroke:black;stroke-width:3;opacity:0">
  <animate attributeType="CSS" attributeName="opacity" from="0" to="1" begin="10s" dur="1s" repeatCount="0" fill="freeze" />
</path>
<path d="M10.5,56.63c2.25,0.84,3.75,0.42,4.75,0.21c1-0.21,9-2.94,10.5-3.36c1.5-0.42,3.75,1.05,2.75,2.31s-5,6.58-5.75,7.64c-0.75,1.05-0.5,2.94,1,4.41c1.5,1.47,3.25,2.15,4,3.41S28.5,73.55,27,74.6c-1.5,1.05-10,7.43-11.5,7.85" style="fill:none;stroke:black;stroke-width:3;opacity:0">
  <animate attributeType="CSS" attributeName="opacity" from="0" to="1" begin="11s" dur="1s" repeatCount="0" fill="freeze" />
</path>
<path d="M11.25,83.86c4-1.36,10.64-1.31,17.37-0.23c5.38,0.87,25.79,6.97,30.17,8.23c11.88,3.39,21.05,4.36,29.96,2.67" style="fill:none;stroke:black;stroke-width:3;opacity:0">
  <animate attributeType="CSS" attributeName="opacity" from="0" to="1" begin="12s" dur="1s" repeatCount="0" fill="freeze" />
</path>
</svg>