<svg width="109px" height="109px" viewBox="0 0 px 109px" xmlns="http://www.w3.org/2000/svg" xmlns:xlink="http://www.w3.org/1999/xlink" xml:space="preserve" version="1.1"  baseProfile="full">
<path d="M61.71,9.01c0.72,0.31,1.79,1.9,1.8,2.86c0.05,3.01,0.13,5.18,0.22,7.92" style="fill:none;stroke:black;stroke-width:3;opacity:0">
  <animate attributeType="CSS" attributeName="opacity" from="0" to="1" begin="0s" dur="1s" repeatCount="Indefinite" fill="freeze" />
</path>
<path d="M39.37,18.87c0.11,3.33-2.49,12.6-3.74,14.87" style="fill:none;stroke:black;stroke-width:3;opacity:0">
  <animate attributeType="CSS" attributeName="opacity" from="0" to="1" begin="1s" dur="1s" repeatCount="Indefinite" fill="freeze" />
</path>
<path d="M39.85,22.68c9.41-1.76,42.11-5.07,49.02-5.23c8.94-0.21,4.39,4.31,0.37,7.95" style="fill:none;stroke:black;stroke-width:3;opacity:0">
  <animate attributeType="CSS" attributeName="opacity" from="0" to="1" begin="2s" dur="1s" repeatCount="Indefinite" fill="freeze" />
</path>
<path d="M54.29,22.97c0.05,0.31,0.17,0.84-0.03,1.27c-1.78,3.95-5.65,8.57-11.77,12.51" style="fill:none;stroke:black;stroke-width:3;opacity:0">
  <animate attributeType="CSS" attributeName="opacity" from="0" to="1" begin="3s" dur="1s" repeatCount="Indefinite" fill="freeze" />
</path>
<path d="M70.08,20.75c0.23,0.3,0.44,0.66,0.45,1.14c0.04,1.27-0.04,3.49,0.01,4.93c0.12,3.38,3.33,2.89,5.97,2.8c2.78-0.1,5.15-0.62,5.53-0.88" style="fill:none;stroke:black;stroke-width:3;opacity:0">
  <animate attributeType="CSS" attributeName="opacity" from="0" to="1" begin="4s" dur="1s" repeatCount="Indefinite" fill="freeze" />
</path>
<path d="M51.27,34.5c1.75,1.37,4.52,5.62,4.95,7.75" style="fill:none;stroke:black;stroke-width:3;opacity:0">
  <animate attributeType="CSS" attributeName="opacity" from="0" to="1" begin="5s" dur="1s" repeatCount="Indefinite" fill="freeze" />
</path>
<path d="M70.75,35.25c0.01,0.19,0.03,0.5-0.03,0.78c-0.34,1.63-2.32,5.22-5.02,7.42" style="fill:none;stroke:black;stroke-width:3;opacity:0">
  <animate attributeType="CSS" attributeName="opacity" from="0" to="1" begin="6s" dur="1s" repeatCount="Indefinite" fill="freeze" />
</path>
<path d="M41.46,46.97c0.8,0.25,2.26,0.3,3.06,0.25c5.73-0.39,27.9-2.64,36.9-2.74c1.33-0.02,2.13,0.12,2.8,0.24" style="fill:none;stroke:black;stroke-width:3;opacity:0">
  <animate attributeType="CSS" attributeName="opacity" from="0" to="1" begin="7s" dur="1s" repeatCount="Indefinite" fill="freeze" />
</path>
<path d="M62.24,48.5c0.06,0.32,0.14,0.84-0.13,1.3c-1.58,2.74-10.67,8.76-23.1,12.45" style="fill:none;stroke:black;stroke-width:3;opacity:0">
  <animate attributeType="CSS" attributeName="opacity" from="0" to="1" begin="8s" dur="1s" repeatCount="Indefinite" fill="freeze" />
</path>
<path d="M58.25,53.5c5.78,2.67,12.06,17.87,6.98,28.36c-2.73,5.64-6.07,0.04-6.79-0.47" style="fill:none;stroke:black;stroke-width:3;opacity:0">
  <animate attributeType="CSS" attributeName="opacity" from="0" to="1" begin="9s" dur="1s" repeatCount="Indefinite" fill="freeze" />
</path>
<path d="M61.26,57c0.06,0.32,0.12,0.83-0.12,1.28c-1.44,2.71-9.69,8.64-20.98,12.28" style="fill:none;stroke:black;stroke-width:3;opacity:0">
  <animate attributeType="CSS" attributeName="opacity" from="0" to="1" begin="10s" dur="1s" repeatCount="Indefinite" fill="freeze" />
</path>
<path d="M63.76,64.75c0.06,0.37,0.13,0.96-0.13,1.5c-1.52,3.15-10.26,10.07-22.22,14.31" style="fill:none;stroke:black;stroke-width:3;opacity:0">
  <animate attributeType="CSS" attributeName="opacity" from="0" to="1" begin="11s" dur="1s" repeatCount="Indefinite" fill="freeze" />
</path>
<path d="M81.48,51.26c0.04,0.23,0.09,0.6-0.08,0.94c-0.99,1.98-6.7,6.32-14.52,8.98" style="fill:none;stroke:black;stroke-width:3;opacity:0">
  <animate attributeType="CSS" attributeName="opacity" from="0" to="1" begin="12s" dur="1s" repeatCount="Indefinite" fill="freeze" />
</path>
<path d="M67.16,62.78C75.22,65.75,83.44,74.09,87,81.5" style="fill:none;stroke:black;stroke-width:3;opacity:0">
  <animate attributeType="CSS" attributeName="opacity" from="0" to="1" begin="13s" dur="1s" repeatCount="Indefinite" fill="freeze" />
</path>
<path d="M16,16.75c4.06,1.54,10.49,6.35,11.5,8.75" style="fill:none;stroke:black;stroke-width:3;opacity:0">
  <animate attributeType="CSS" attributeName="opacity" from="0" to="1" begin="14s" dur="1s" repeatCount="Indefinite" fill="freeze" />
</path>
<path d="M14.96,37.5c3.63,1.48,9.38,6.08,10.29,8.38" style="fill:none;stroke:black;stroke-width:3;opacity:0">
  <animate attributeType="CSS" attributeName="opacity" from="0" to="1" begin="15s" dur="1s" repeatCount="Indefinite" fill="freeze" />
</path>
<path d="M12.25,59c2.77,0.92,4.02,0.98,5.25,0.75c1.23-0.23,6.96-3.55,8.8-4.01c1.85-0.46,3.24,0.38,2.39,2.01c-1.44,2.75-2.44,5.5-3.44,8c-0.55,1.36-1.35,2.15,0.5,3.75c1.85,1.6,2.71,4.24,3.63,5.61c0.92,1.37,0.46,1.75-1.38,2.89c-1.85,1.14-13.4,7.54-15.25,8" style="fill:none;stroke:black;stroke-width:3;opacity:0">
  <animate attributeType="CSS" attributeName="opacity" from="0" to="1" begin="16s" dur="1s" repeatCount="Indefinite" fill="freeze" />
</path>
<path d="M12.5,86.78c3.13-0.4,9.4-1.41,14.1-0.6c4.7,0.8,31.42,6.21,36.04,7.26c12.54,2.82,22.2,3.63,31.6,2.22" style="fill:none;stroke:black;stroke-width:3;opacity:0">
  <animate attributeType="CSS" attributeName="opacity" from="0" to="1" begin="17s" dur="1s" repeatCount="Indefinite" fill="freeze" />
</path>
</svg>