<svg width="109px" height="109px" viewBox="0 0 px 109px" xmlns="http://www.w3.org/2000/svg" xmlns:xlink="http://www.w3.org/1999/xlink" xml:space="preserve" version="1.1"  baseProfile="full">
<path d="M14.75,22.25c2.11,1.07,5.63,0.54,7.89,0.22c8.42-1.17,18.14-2.8,23.61-3.57c4.26-0.6,5.62,0.72,5.75,5.6c0.29,11-1.64,48.05-7.03,60.5c-4.22,9.75-8.33,0.34-9.87-0.75" style="fill:none;stroke:black;stroke-width:3;opacity:0">
  <animate attributeType="CSS" attributeName="opacity" from="0" to="1" begin="0s" dur="1s" repeatCount="Indefinite" fill="freeze" />
</path>
<path d="M15,42.14c1.88,0.76,4.71,0.52,6.66,0.23c5.42-0.79,12.98-2.38,18.1-3.16c2.01-0.3,3.75-0.44,5.74,0.05" style="fill:none;stroke:black;stroke-width:3;opacity:0">
  <animate attributeType="CSS" attributeName="opacity" from="0" to="1" begin="1s" dur="1s" repeatCount="Indefinite" fill="freeze" />
</path>
<path d="M13,58.89c1.91,0.78,4.79,0.5,6.77,0.21c5.35-0.78,13.61-2.51,18.98-3.35c2.1-0.33,3.92-0.5,6,0" style="fill:none;stroke:black;stroke-width:3;opacity:0">
  <animate attributeType="CSS" attributeName="opacity" from="0" to="1" begin="2s" dur="1s" repeatCount="Indefinite" fill="freeze" />
</path>
<path d="M30.77,25.28c1.22,1.22,1.36,2.64,1.33,4.84c-0.35,28-3.98,48.63-22.54,59.63" style="fill:none;stroke:black;stroke-width:3;opacity:0">
  <animate attributeType="CSS" attributeName="opacity" from="0" to="1" begin="3s" dur="1s" repeatCount="Indefinite" fill="freeze" />
</path>
<path d="M65.42,22.42c1.08,0.46,2.58,0.56,3.9,0.44c6.19-0.6,12.56-2.1,16.35-2.94c3.09-0.68,4.98,1.62,3.92,4.08c-0.77,1.79-5.21,9.38-9.33,17.25" style="fill:none;stroke:black;stroke-width:3;opacity:0">
  <animate attributeType="CSS" attributeName="opacity" from="0" to="1" begin="4s" dur="1s" repeatCount="Indefinite" fill="freeze" />
</path>
<path d="M80.25,41.25c22.5,12,16.25,42.5,1.23,32.16" style="fill:none;stroke:black;stroke-width:3;opacity:0">
  <animate attributeType="CSS" attributeName="opacity" from="0" to="1" begin="5s" dur="1s" repeatCount="Indefinite" fill="freeze" />
</path>
<path d="M67.33,23.25c0.71,0.71,0.75,2.08,0.75,3.37c0,11.99,0.02,45.21,0.03,63.01c0,3.84,0,7,0,9.12" style="fill:none;stroke:black;stroke-width:3;opacity:0">
  <animate attributeType="CSS" attributeName="opacity" from="0" to="1" begin="6s" dur="1s" repeatCount="Indefinite" fill="freeze" />
</path>
</svg>