<svg width="109px" height="109px" viewBox="0 0 px 109px" xmlns="http://www.w3.org/2000/svg" xmlns:xlink="http://www.w3.org/1999/xlink" xml:space="preserve" version="1.1"  baseProfile="full">
<path d="M16.76,31.2c2.16,0.87,4.82,0.96,7.12,0.69c9.61-1.11,16.62-2.54,24.39-3.56c1.71-0.22,3.51-0.5,5.21-0.03" style="fill:none;stroke:black;stroke-width:3;opacity:0">
  <animate attributeType="CSS" attributeName="opacity" from="0" to="1" begin="0s" dur="1s" repeatCount="0" fill="freeze" />
</path>
<path d="M18.61,46.71c2.34,0.69,4.51,1.05,6.89,0.67c9.67-1.54,14.43-2.67,21.89-3.67c1.51-0.2,3.36-0.68,4.87-0.27" style="fill:none;stroke:black;stroke-width:3;opacity:0">
  <animate attributeType="CSS" attributeName="opacity" from="0" to="1" begin="1s" dur="1s" repeatCount="0" fill="freeze" />
</path>
<path d="M13.09,65.81c2.51,1.15,6.3,0.76,8.91,0.18c9.5-2.12,17.38-3.74,28.24-4.94c2.56-0.28,4.12-0.16,5.41,0.19" style="fill:none;stroke:black;stroke-width:3;opacity:0">
  <animate attributeType="CSS" attributeName="opacity" from="0" to="1" begin="2s" dur="1s" repeatCount="0" fill="freeze" />
</path>
<path d="M35.69,12c0.97,0.97,1.17,2.5,1.17,4.72c0,27.15,3.51,64.78-20.55,82.5" style="fill:none;stroke:black;stroke-width:3;opacity:0">
  <animate attributeType="CSS" attributeName="opacity" from="0" to="1" begin="3s" dur="1s" repeatCount="0" fill="freeze" />
</path>
<path d="M63.92,20.81c1.96,0.94,3.48,0.97,5.46,0.59c5.45-1.06,14.09-3.3,16.39-4.07c3.24-1.08,6.06,1.49,4.78,4.1C88.5,25.62,84,34.5,80.7,39.87" style="fill:none;stroke:black;stroke-width:3;opacity:0">
  <animate attributeType="CSS" attributeName="opacity" from="0" to="1" begin="4s" dur="1s" repeatCount="0" fill="freeze" />
</path>
<path d="M81,40c18.38,12.38,11.62,38.38-0.06,28.82" style="fill:none;stroke:black;stroke-width:3;opacity:0">
  <animate attributeType="CSS" attributeName="opacity" from="0" to="1" begin="5s" dur="1s" repeatCount="0" fill="freeze" />
</path>
<path d="M66.08,22.25c0.9,0.9,1.07,2,1.07,3.75c0,12.2,0.06,52.5,0.06,64.75c0,4.05-0.05,7.31-0.09,8.38" style="fill:none;stroke:black;stroke-width:3;opacity:0">
  <animate attributeType="CSS" attributeName="opacity" from="0" to="1" begin="6s" dur="1s" repeatCount="0" fill="freeze" />
</path>
</svg>