<svg width="109px" height="109px" viewBox="0 0 px 109px" xmlns="http://www.w3.org/2000/svg" xmlns:xlink="http://www.w3.org/1999/xlink" xml:space="preserve" version="1.1"  baseProfile="full">
<path d="M48.92,11.54c0.08,0.21,0.17,0.54-0.17,0.85c-2.01,1.78-14.16,6.5-29.39,8.09" style="fill:none;stroke:black;stroke-width:3;opacity:0">
  <animate attributeType="CSS" attributeName="opacity" from="0" to="1" begin="0s" dur="1s" repeatCount="0" fill="freeze" />
</path>
<path d="M20.67,26.34c0.03,0.37,0.06,0.94-0.06,1.47c-0.68,3.09-4.6,9.88-9.96,14.03" style="fill:none;stroke:black;stroke-width:3;opacity:0">
  <animate attributeType="CSS" attributeName="opacity" from="0" to="1" begin="1s" dur="1s" repeatCount="0" fill="freeze" />
</path>
<path d="M30.77,25.49c2.79,1.73,7.21,7.14,7.91,9.84" style="fill:none;stroke:black;stroke-width:3;opacity:0">
  <animate attributeType="CSS" attributeName="opacity" from="0" to="1" begin="2s" dur="1s" repeatCount="0" fill="freeze" />
</path>
<path d="M45.86,22.01c4.39,2.48,11.34,10.22,12.43,14.09" style="fill:none;stroke:black;stroke-width:3;opacity:0">
  <animate attributeType="CSS" attributeName="opacity" from="0" to="1" begin="3s" dur="1s" repeatCount="0" fill="freeze" />
</path>
<path d="M19.17,44.62c0.85,0.26,2.45,0.67,3.73,0.44c1.56-0.28,24.95-3.81,26.41-4.06c2.94-0.5,3.69,1.5,1.7,3.84c-1.39,1.64-11.81,10.99-15.57,13.82" style="fill:none;stroke:black;stroke-width:3;opacity:0">
  <animate attributeType="CSS" attributeName="opacity" from="0" to="1" begin="4s" dur="1s" repeatCount="0" fill="freeze" />
</path>
<path d="M34.14,59.16C48.5,69,42,108,31.4,90.92" style="fill:none;stroke:black;stroke-width:3;opacity:0">
  <animate attributeType="CSS" attributeName="opacity" from="0" to="1" begin="5s" dur="1s" repeatCount="0" fill="freeze" />
</path>
<path d="M16,73.19c0.78,1.5,3.25,1.32,4,1c8-3.44,25.75-11.44,33.82-14.27" style="fill:none;stroke:black;stroke-width:3;opacity:0">
  <animate attributeType="CSS" attributeName="opacity" from="0" to="1" begin="6s" dur="1s" repeatCount="0" fill="freeze" />
</path>
<path d="M62.92,17.17c0.83,0.08,2.31,1,3.4,0.94c5.94-0.35,18.19-2.1,22.1-2.94c3.09-0.66,5,1.5,3.67,3.83c-1.33,2.33-8.83,16.5-11.33,21" style="fill:none;stroke:black;stroke-width:3;opacity:0">
  <animate attributeType="CSS" attributeName="opacity" from="0" to="1" begin="7s" dur="1s" repeatCount="0" fill="freeze" />
</path>
<path d="M80.75,41C100,54.5,93.5,92.5,78.48,76.66" style="fill:none;stroke:black;stroke-width:3;opacity:0">
  <animate attributeType="CSS" attributeName="opacity" from="0" to="1" begin="8s" dur="1s" repeatCount="0" fill="freeze" />
</path>
<path d="M66.08,18.5c0.02,0.1,0.04,0.99,0.05,2.5c0.12,13.01-0.08,72.4-0.27,78" style="fill:none;stroke:black;stroke-width:3;opacity:0">
  <animate attributeType="CSS" attributeName="opacity" from="0" to="1" begin="9s" dur="1s" repeatCount="0" fill="freeze" />
</path>
</svg>