<svg width="109px" height="109px" viewBox="0 0 px 109px" xmlns="http://www.w3.org/2000/svg" xmlns:xlink="http://www.w3.org/1999/xlink" xml:space="preserve" version="1.1"  baseProfile="full">
<path d="M9.24,21.67c0.6,0.41,3.6,1.02,4.21,0.96c6.29-0.59,22.05-1.62,26.06-1.6c1.51,0.01,3.24-0.03,4.49,0.35" style="fill:none;stroke:black;stroke-width:3;opacity:0">
  <animate attributeType="CSS" attributeName="opacity" from="0" to="1" begin="0s" dur="1s" repeatCount="Indefinite" fill="freeze" />
</path>
<path d="M12.29,36.52c0.4,0.75,0.56,2.55,0.56,3.55c0,1-0.13,51.94,0,52.93" style="fill:none;stroke:black;stroke-width:3;opacity:0">
  <animate attributeType="CSS" attributeName="opacity" from="0" to="1" begin="1s" dur="1s" repeatCount="Indefinite" fill="freeze" />
</path>
<path d="M13.04,38.58c2.28-0.12,23.42-2.3,25.49-2.61c2.15-0.32,3.92,1.2,3.92,4.03c0,1.58-0.33,51.18-0.33,51.92" style="fill:none;stroke:black;stroke-width:3;opacity:0">
  <animate attributeType="CSS" attributeName="opacity" from="0" to="1" begin="2s" dur="1s" repeatCount="Indefinite" fill="freeze" />
</path>
<path d="M21.29,24.78c0.56,1.15,0.9,2.73,0.82,4.31c-0.75,14.6-2.3,23.1-5.62,30.18" style="fill:none;stroke:black;stroke-width:3;opacity:0">
  <animate attributeType="CSS" attributeName="opacity" from="0" to="1" begin="3s" dur="1s" repeatCount="Indefinite" fill="freeze" />
</path>
<path d="M30.47,23.58c0.41,1.19,0.73,2.59,0.75,4.43c0.08,5.83-0.18,13.23-0.22,20.42c-0.03,6.25,1.75,7.53,4.62,7.53c2.89,0,4.89-0.21,5.17-0.92" style="fill:none;stroke:black;stroke-width:3;opacity:0">
  <animate attributeType="CSS" attributeName="opacity" from="0" to="1" begin="4s" dur="1s" repeatCount="Indefinite" fill="freeze" />
</path>
<path d="M12.94,71.55c3.09,0,24.75-1.71,28.24-1.71" style="fill:none;stroke:black;stroke-width:3;opacity:0">
  <animate attributeType="CSS" attributeName="opacity" from="0" to="1" begin="5s" dur="1s" repeatCount="Indefinite" fill="freeze" />
</path>
<path d="M13.3,89.66c6.28-0.54,20.55-1.46,28.37-1.92" style="fill:none;stroke:black;stroke-width:3;opacity:0">
  <animate attributeType="CSS" attributeName="opacity" from="0" to="1" begin="6s" dur="1s" repeatCount="Indefinite" fill="freeze" />
</path>
<path d="M86.08,12c0.09,0.37,0.2,0.96-0.19,1.49c-2.31,3.14-15.54,10.04-33.64,14.26" style="fill:none;stroke:black;stroke-width:3;opacity:0">
  <animate attributeType="CSS" attributeName="opacity" from="0" to="1" begin="7s" dur="1s" repeatCount="Indefinite" fill="freeze" />
</path>
<path d="M48.68,45c0.59,0.23,2.95,0.84,4.51,0.68c7.06-0.68,27.95-2.43,39.9-3.07c1.57-0.08,3.53,0.27,4.51,0.5" style="fill:none;stroke:black;stroke-width:3;opacity:0">
  <animate attributeType="CSS" attributeName="opacity" from="0" to="1" begin="8s" dur="1s" repeatCount="Indefinite" fill="freeze" />
</path>
<path d="M70.27,25.5c0.7,0.46,1.12,2.05,1.25,2.97c0.14,0.91,0,63.58-0.14,69.28" style="fill:none;stroke:black;stroke-width:3;opacity:0">
  <animate attributeType="CSS" attributeName="opacity" from="0" to="1" begin="9s" dur="1s" repeatCount="Indefinite" fill="freeze" />
</path>
<path d="M71.52,45.18C66.6,56.92,58.25,72.5,47.25,81" style="fill:none;stroke:black;stroke-width:3;opacity:0">
  <animate attributeType="CSS" attributeName="opacity" from="0" to="1" begin="10s" dur="1s" repeatCount="Indefinite" fill="freeze" />
</path>
<path d="M71.46,44.96c3.15,5.02,17.55,28.74,20.98,33.68c1.16,1.67,2.15,2.39,3.31,2.87" style="fill:none;stroke:black;stroke-width:3;opacity:0">
  <animate attributeType="CSS" attributeName="opacity" from="0" to="1" begin="11s" dur="1s" repeatCount="Indefinite" fill="freeze" />
</path>
</svg>