<svg width="109px" height="109px" viewBox="0 0 px 109px" xmlns="http://www.w3.org/2000/svg" xmlns:xlink="http://www.w3.org/1999/xlink" xml:space="preserve" version="1.1"  baseProfile="full">
<path d="M43,16.18c0.41,0.44-0.09,1.92-0.8,2.68c-6.36,6.89-12.3,10.12-20.46,14.01" style="fill:none;stroke:black;stroke-width:3;opacity:0">
  <animate attributeType="CSS" attributeName="opacity" from="0" to="1" begin="0s" dur="1s" repeatCount="Indefinite" fill="freeze" />
</path>
<path d="M67.75,15.86c8.28,4.2,13.11,8.7,17.25,13.81" style="fill:none;stroke:black;stroke-width:3;opacity:0">
  <animate attributeType="CSS" attributeName="opacity" from="0" to="1" begin="1s" dur="1s" repeatCount="Indefinite" fill="freeze" />
</path>
<path d="M66.29,24.18c0.21,0.82,0.19,2.21-1.07,3.48C54.5,38.5,37.75,50,13.75,58.47" style="fill:none;stroke:black;stroke-width:3;opacity:0">
  <animate attributeType="CSS" attributeName="opacity" from="0" to="1" begin="2s" dur="1s" repeatCount="Indefinite" fill="freeze" />
</path>
<path d="M 41.75,28.97 c 7.843307,3.534025 32.423148,19.365139 46.063148,25.285139 2.56,1.11 2.695418,1.10514 6.686852,2.794861" style="fill:none;stroke:black;stroke-width:3;opacity:0">
  <animate attributeType="CSS" attributeName="opacity" from="0" to="1" begin="3s" dur="1s" repeatCount="Indefinite" fill="freeze" />
</path>
<path d="M38.77,55.33c0.67,0.31,2.85,0.35,3.53,0.32c7.7-0.4,16.95-1.15,26.88-2.46c1.02-0.13,1.97,0.06,2.83,0.32" style="fill:none;stroke:black;stroke-width:3;opacity:0">
  <animate attributeType="CSS" attributeName="opacity" from="0" to="1" begin="4s" dur="1s" repeatCount="Indefinite" fill="freeze" />
</path>
<path d="M26.55,69.04c1.09,0.48,4.71,0.74,5.82,0.63c6.4-0.63,25.61-3.56,46.43-4.65c1.37-0.07,4.37-0.2,6.41,0.22" style="fill:none;stroke:black;stroke-width:3;opacity:0">
  <animate attributeType="CSS" attributeName="opacity" from="0" to="1" begin="5s" dur="1s" repeatCount="Indefinite" fill="freeze" />
</path>
<path d="M52.97,57.82c0.89,0.85,0.89,2.76,0.89,3.43c0,4.75,0.44,27.57,0.22,32.32" style="fill:none;stroke:black;stroke-width:3;opacity:0">
  <animate attributeType="CSS" attributeName="opacity" from="0" to="1" begin="6s" dur="1s" repeatCount="Indefinite" fill="freeze" />
</path>
<path d="M32.75,76.25c5.17,4.88,7.7,10.16,8.75,13" style="fill:none;stroke:black;stroke-width:3;opacity:0">
  <animate attributeType="CSS" attributeName="opacity" from="0" to="1" begin="7s" dur="1s" repeatCount="Indefinite" fill="freeze" />
</path>
<path d="M76.84,73.11c0.54,1.12-0.27,3.44-0.89,4.19C72.25,81.75,69,86,64.75,90.75" style="fill:none;stroke:black;stroke-width:3;opacity:0">
  <animate attributeType="CSS" attributeName="opacity" from="0" to="1" begin="8s" dur="1s" repeatCount="Indefinite" fill="freeze" />
</path>
<path d="M23.5,94.61c0.73,0.28,4.38,0.92,6,0.89c12.75-0.25,32.81-2.61,55.82-2.61c2.19,0,4.83,0.36,5.93,0.7" style="fill:none;stroke:black;stroke-width:3;opacity:0">
  <animate attributeType="CSS" attributeName="opacity" from="0" to="1" begin="9s" dur="1s" repeatCount="Indefinite" fill="freeze" />
</path>
</svg>