<svg width="109px" height="109px" viewBox="0 0 px 109px" xmlns="http://www.w3.org/2000/svg" xmlns:xlink="http://www.w3.org/1999/xlink" xml:space="preserve" version="1.1"  baseProfile="full">
<path d="M31.5,17.24c0.1,1.22-0.35,2.64-0.85,3.74c-2.33,5.65-11.76,18.96-19.93,25.15" style="fill:none;stroke:black;stroke-width:3;opacity:0">
  <animate attributeType="CSS" attributeName="opacity" from="0" to="1" begin="0s" dur="1s" repeatCount="0" fill="freeze" />
</path>
<path d="M34.89,21.96c4.48,2.54,7.98,5.29,10.86,9.54" style="fill:none;stroke:black;stroke-width:3;opacity:0">
  <animate attributeType="CSS" attributeName="opacity" from="0" to="1" begin="1s" dur="1s" repeatCount="0" fill="freeze" />
</path>
<path d="M21.25,43c1.31,0.12,2.61,0.1,3.91-0.05c4.09-0.57,7.46-1.17,11.59-2c1.31-0.26,2.66-0.2,3.99-0.19" style="fill:none;stroke:black;stroke-width:3;opacity:0">
  <animate attributeType="CSS" attributeName="opacity" from="0" to="1" begin="2s" dur="1s" repeatCount="0" fill="freeze" />
</path>
<path d="M15.59,58.31c2.23,0.59,4.41,0.38,6.68-0.08c5.73-1.14,13.3-3.01,18.86-4.33c1.59-0.48,3.22-0.62,4.89-0.43" style="fill:none;stroke:black;stroke-width:3;opacity:0">
  <animate attributeType="CSS" attributeName="opacity" from="0" to="1" begin="3s" dur="1s" repeatCount="0" fill="freeze" />
</path>
<path d="M31.2,45.69c0.99,0.99,1.24,1.81,1.24,3.14c0,4.35,0.06,28.67,0.06,34.23" style="fill:none;stroke:black;stroke-width:3;opacity:0">
  <animate attributeType="CSS" attributeName="opacity" from="0" to="1" begin="4s" dur="1s" repeatCount="0" fill="freeze" />
</path>
<path d="M15.64,68.76c4.37,4.57,6.26,9.27,7.15,11.94" style="fill:none;stroke:black;stroke-width:3;opacity:0">
  <animate attributeType="CSS" attributeName="opacity" from="0" to="1" begin="5s" dur="1s" repeatCount="0" fill="freeze" />
</path>
<path d="M43.53,60.8c0.24,0.84,0.27,1.84,0.02,2.51c-1.3,3.56-2.16,4.63-4.88,9.97" style="fill:none;stroke:black;stroke-width:3;opacity:0">
  <animate attributeType="CSS" attributeName="opacity" from="0" to="1" begin="6s" dur="1s" repeatCount="0" fill="freeze" />
</path>
<path d="M15.25,90.5c0.75,1,2.38,1.52,4.75,0.25c5.12-2.75,9.62-5.12,24.25-13" style="fill:none;stroke:black;stroke-width:3;opacity:0">
  <animate attributeType="CSS" attributeName="opacity" from="0" to="1" begin="7s" dur="1s" repeatCount="0" fill="freeze" />
</path>
<path d="M56,22.43c1.04,1.04,1.13,2.62,1.16,4.4c0.59,40.92-0.78,52.05-10.66,62.92" style="fill:none;stroke:black;stroke-width:3;opacity:0">
  <animate attributeType="CSS" attributeName="opacity" from="0" to="1" begin="8s" dur="1s" repeatCount="0" fill="freeze" />
</path>
<path d="M72.5,20.63c0.87,0.87,1.16,2.12,1.16,3.4c0,0.53,0.05,25.89,0.07,41.34c0.01,5.61,0.02,9.67,0.02,11" style="fill:none;stroke:black;stroke-width:3;opacity:0">
  <animate attributeType="CSS" attributeName="opacity" from="0" to="1" begin="9s" dur="1s" repeatCount="0" fill="freeze" />
</path>
<path d="M90.56,14.88c1.09,1.09,1.51,2.74,1.51,4.25c0,0.68,0,38.99,0,60.74c0,7.31,0,12.75,0,14.26" style="fill:none;stroke:black;stroke-width:3;opacity:0">
  <animate attributeType="CSS" attributeName="opacity" from="0" to="1" begin="10s" dur="1s" repeatCount="0" fill="freeze" />
</path>
</svg>