<svg width="109px" height="109px" viewBox="0 0 px 109px" xmlns="http://www.w3.org/2000/svg" xmlns:xlink="http://www.w3.org/1999/xlink" xml:space="preserve" version="1.1"  baseProfile="full">
<path d="M28.75,13.24c0,0.83,0.05,1.49-0.15,2.49c-1.05,5.18-11.06,22.48-19.63,30.15" style="fill:none;stroke:black;stroke-width:3;opacity:0">
  <animate attributeType="CSS" attributeName="opacity" from="0" to="1" begin="0s" dur="1s" repeatCount="0" fill="freeze" />
</path>
<path d="M31.14,19.71c4.02,1.91,9.15,6.98,11.11,11.79" style="fill:none;stroke:black;stroke-width:3;opacity:0">
  <animate attributeType="CSS" attributeName="opacity" from="0" to="1" begin="1s" dur="1s" repeatCount="0" fill="freeze" />
</path>
<path d="M19,39c1.5,0,2.18,0.09,2.67,0.06C26,38.74,31,38.53,36.1,38.3c0.74-0.03,0.9-0.05,2.15-0.05" style="fill:none;stroke:black;stroke-width:3;opacity:0">
  <animate attributeType="CSS" attributeName="opacity" from="0" to="1" begin="2s" dur="1s" repeatCount="0" fill="freeze" />
</path>
<path d="M12.09,53.81c0.59,0.33,2.56,0.48,3.17,0.43c5.49-0.49,16.99-1.99,23.28-3.17c0.73-0.14,2.38-0.13,3.49,0.15" style="fill:none;stroke:black;stroke-width:3;opacity:0">
  <animate attributeType="CSS" attributeName="opacity" from="0" to="1" begin="3s" dur="1s" repeatCount="0" fill="freeze" />
</path>
<path d="M25.45,40.69c1.24,0.78,1.24,2.52,1.24,3.14c0,4.35,0.62,36.63,0.31,40.98" style="fill:none;stroke:black;stroke-width:3;opacity:0">
  <animate attributeType="CSS" attributeName="opacity" from="0" to="1" begin="4s" dur="1s" repeatCount="0" fill="freeze" />
</path>
<path d="M12.39,63.76c4.08,4.85,6.07,10.11,6.9,12.94" style="fill:none;stroke:black;stroke-width:3;opacity:0">
  <animate attributeType="CSS" attributeName="opacity" from="0" to="1" begin="5s" dur="1s" repeatCount="0" fill="freeze" />
</path>
<path d="M38.2,58.55c0.3,0.84,0.46,2.06,0.34,2.76c-0.3,1.81-2.71,5.13-6.12,10.47" style="fill:none;stroke:black;stroke-width:3;opacity:0">
  <animate attributeType="CSS" attributeName="opacity" from="0" to="1" begin="6s" dur="1s" repeatCount="0" fill="freeze" />
</path>
<path d="M11.5,90.25c1.25,1,2.75,0.75,4.5,0.25c1.29-0.37,11.25-5.75,24.25-11.75" style="fill:none;stroke:black;stroke-width:3;opacity:0">
  <animate attributeType="CSS" attributeName="opacity" from="0" to="1" begin="7s" dur="1s" repeatCount="0" fill="freeze" />
</path>
<path d="M71.48,17.93c0.2,0.47,0,1.03-0.28,1.59c-1.68,3.31-6.55,10.7-11.45,14.23" style="fill:none;stroke:black;stroke-width:3;opacity:0">
  <animate attributeType="CSS" attributeName="opacity" from="0" to="1" begin="8s" dur="1s" repeatCount="0" fill="freeze" />
</path>
<path d="M77.95,11.75c0.72,0.18,1.4,0.42,1.85,0.9c4.19,4.38,9.24,13.46,13.21,16.21c1.71,1.18,2.33,1.82,3.99,2.2" style="fill:none;stroke:black;stroke-width:3;opacity:0">
  <animate attributeType="CSS" attributeName="opacity" from="0" to="1" begin="9s" dur="1s" repeatCount="0" fill="freeze" />
</path>
<path d="M66.31,37.69c0.82,0.31,2.33,0.38,3.15,0.31c5.54-0.46,11.04-2.25,15.57-2.71c1.36-0.14,2.19,0.15,2.87,0.31" style="fill:none;stroke:black;stroke-width:3;opacity:0">
  <animate attributeType="CSS" attributeName="opacity" from="0" to="1" begin="10s" dur="1s" repeatCount="0" fill="freeze" />
</path>
<path d="M62.13,52.42c0.59,0.24,2.12,0.39,2.76,0.33c5.85-0.5,20.35-2.5,27.1-3.25c0.82-0.09,1.99,0.09,3.83,0.5" style="fill:none;stroke:black;stroke-width:3;opacity:0">
  <animate attributeType="CSS" attributeName="opacity" from="0" to="1" begin="11s" dur="1s" repeatCount="0" fill="freeze" />
</path>
<path d="M76.48,39.45c0.31,0.61,0.65,2.09,0.6,3.26c-0.79,18.52-6.02,31.1-15.73,37.35" style="fill:none;stroke:black;stroke-width:3;opacity:0">
  <animate attributeType="CSS" attributeName="opacity" from="0" to="1" begin="12s" dur="1s" repeatCount="0" fill="freeze" />
</path>
<path d="M76.03,60.57c6.18,3.96,13.23,12.61,16.28,18.93" style="fill:none;stroke:black;stroke-width:3;opacity:0">
  <animate attributeType="CSS" attributeName="opacity" from="0" to="1" begin="13s" dur="1s" repeatCount="0" fill="freeze" />
</path>
<path d="M46.93,15c2.85,1.74,7.35,7.17,8.06,9.88" style="fill:none;stroke:black;stroke-width:3;opacity:0">
  <animate attributeType="CSS" attributeName="opacity" from="0" to="1" begin="14s" dur="1s" repeatCount="0" fill="freeze" />
</path>
<path d="M44.64,38c3.05,1.26,7.87,5.18,8.63,7.13" style="fill:none;stroke:black;stroke-width:3;opacity:0">
  <animate attributeType="CSS" attributeName="opacity" from="0" to="1" begin="15s" dur="1s" repeatCount="0" fill="freeze" />
</path>
<path d="M44,58.44c1.76,0.85,2.94,0.43,3.72,0.21c0.78-0.21,6.27-2.49,7.44-2.92c1.18-0.43,2.94,1.07,2.15,2.35s-3.63,6.19-4.22,7.26c-0.59,1.07-0.39,2.99,0.78,4.48c1.18,1.49,2.65,1.7,3.24,2.98c0.59,1.28,0.59,2.35-0.59,3.42c-1.18,1.07-8.55,7.04-9.73,7.47" style="fill:none;stroke:black;stroke-width:3;opacity:0">
  <animate attributeType="CSS" attributeName="opacity" from="0" to="1" begin="16s" dur="1s" repeatCount="0" fill="freeze" />
</path>
<path d="M41.98,85.42c2-0.4,5.94-0.06,9.02,0.4c4.5,0.68,19.98,5.01,23.05,5.67C80,92.75,85,93.83,91.75,95.5" style="fill:none;stroke:black;stroke-width:3;opacity:0">
  <animate attributeType="CSS" attributeName="opacity" from="0" to="1" begin="17s" dur="1s" repeatCount="0" fill="freeze" />
</path>
</svg>