<svg width="109px" height="109px" viewBox="0 0 px 109px" xmlns="http://www.w3.org/2000/svg" xmlns:xlink="http://www.w3.org/1999/xlink" xml:space="preserve" version="1.1"  baseProfile="full">
<path d="M19.14,19.29c1.03,1.03,1.21,2.46,1.21,4.45c0,0.75,0.1,45.48-0.03,64c-0.02,3.66-0.05,6.22-0.07,7.13" style="fill:none;stroke:black;stroke-width:3;opacity:0">
  <animate attributeType="CSS" attributeName="opacity" from="0" to="1" begin="0s" dur="1s" repeatCount="0" fill="freeze" />
</path>
<path d="M21.28,20.95c2.92-0.67,12.32-2.44,16.81-3.14c2.7-0.42,4.74,0.24,4.46,3.57c-0.32,3.84-0.7,11-1.66,18.31c-0.11,0.86-0.15,1.43-0.38,2.57" style="fill:none;stroke:black;stroke-width:3;opacity:0">
  <animate attributeType="CSS" attributeName="opacity" from="0" to="1" begin="1s" dur="1s" repeatCount="0" fill="freeze" />
</path>
<path d="M21.42,31.26c6.83-1.26,14.33-2.27,19.56-2.88" style="fill:none;stroke:black;stroke-width:3;opacity:0">
  <animate attributeType="CSS" attributeName="opacity" from="0" to="1" begin="2s" dur="1s" repeatCount="0" fill="freeze" />
</path>
<path d="M21.78,42.76c5.35-1.01,11.1-2.26,18.07-2.94" style="fill:none;stroke:black;stroke-width:3;opacity:0">
  <animate attributeType="CSS" attributeName="opacity" from="0" to="1" begin="3s" dur="1s" repeatCount="0" fill="freeze" />
</path>
<path d="M64.19,15.26c0.9,0.9,1.13,1.86,1.13,3.23c0,0.55,0.09,10.85,0.01,17.01c-0.03,2.12-0.15,4.03-0.01,4.77" style="fill:none;stroke:black;stroke-width:3;opacity:0">
  <animate attributeType="CSS" attributeName="opacity" from="0" to="1" begin="4s" dur="1s" repeatCount="0" fill="freeze" />
</path>
<path d="M66.05,16.66c3.57-0.58,15.79-2.67,20.34-3.26c2.89-0.38,4.33,0.27,4.33,3.23c0,7.13-0.09,59.26-0.09,73c0,9.62-4.82,2.72-6.27,1.43" style="fill:none;stroke:black;stroke-width:3;opacity:0">
  <animate attributeType="CSS" attributeName="opacity" from="0" to="1" begin="5s" dur="1s" repeatCount="0" fill="freeze" />
</path>
<path d="M66.49,26.72c5.63-0.72,18.01-2.47,23.15-2.74" style="fill:none;stroke:black;stroke-width:3;opacity:0">
  <animate attributeType="CSS" attributeName="opacity" from="0" to="1" begin="6s" dur="1s" repeatCount="0" fill="freeze" />
</path>
<path d="M66.3,37.26c6.82-0.76,17.45-1.88,22.8-2.06" style="fill:none;stroke:black;stroke-width:3;opacity:0">
  <animate attributeType="CSS" attributeName="opacity" from="0" to="1" begin="7s" dur="1s" repeatCount="0" fill="freeze" />
</path>
<path d="M42.41,49.4c0.1,0.65,0.17,1.46-0.09,2.25c-1.63,5.02-7.94,14.73-15.54,21.53" style="fill:none;stroke:black;stroke-width:3;opacity:0">
  <animate attributeType="CSS" attributeName="opacity" from="0" to="1" begin="8s" dur="1s" repeatCount="0" fill="freeze" />
</path>
<path d="M37.68,63.46c0.86,0.86,0.97,2.03,0.97,2.91c0.02,6.1,0.14,15.46,0.1,22.38c-0.02,2.36-0.03,4.33-0.03,5.64" style="fill:none;stroke:black;stroke-width:3;opacity:0">
  <animate attributeType="CSS" attributeName="opacity" from="0" to="1" begin="9s" dur="1s" repeatCount="0" fill="freeze" />
</path>
<path d="M46.36,61.02c1.52,0.23,2.62,0.21,4.15-0.12c4.72-1.02,16.97-4.68,22.38-5.27c1-0.11,2.16-0.04,2.66,0.18" style="fill:none;stroke:black;stroke-width:3;opacity:0">
  <animate attributeType="CSS" attributeName="opacity" from="0" to="1" begin="10s" dur="1s" repeatCount="0" fill="freeze" />
</path>
<path d="M57.22,46c0.84,0.99,1.23,2.01,1.4,4.14c1.47,17.77,6.95,32.29,16.08,40.51c2.94,2.65,2.83,0.42,2.41-3.95" style="fill:none;stroke:black;stroke-width:3;opacity:0">
  <animate attributeType="CSS" attributeName="opacity" from="0" to="1" begin="11s" dur="1s" repeatCount="0" fill="freeze" />
</path>
<path d="M74.09,64.37c0.11,0.9-0.17,1.65-0.64,2.39c-3.37,5.27-11.41,12.95-24.16,20.68" style="fill:none;stroke:black;stroke-width:3;opacity:0">
  <animate attributeType="CSS" attributeName="opacity" from="0" to="1" begin="12s" dur="1s" repeatCount="0" fill="freeze" />
</path>
<path d="M71.58,44.1c3.53,1.74,6.55,3.77,8.02,6.42" style="fill:none;stroke:black;stroke-width:3;opacity:0">
  <animate attributeType="CSS" attributeName="opacity" from="0" to="1" begin="13s" dur="1s" repeatCount="0" fill="freeze" />
</path>
</svg>