<svg width="109px" height="109px" viewBox="0 0 px 109px" xmlns="http://www.w3.org/2000/svg" xmlns:xlink="http://www.w3.org/1999/xlink" xml:space="preserve" version="1.1"  baseProfile="full">
<path d="M17.89,14.79c0.7,0.44,1.68,3.32,1.82,4.2c0.14,0.89-0.09,72.86-0.23,78.4" style="fill:none;stroke:black;stroke-width:3;opacity:0">
  <animate attributeType="CSS" attributeName="opacity" from="0" to="1" begin="0s" dur="1s" repeatCount="Indefinite" fill="freeze" />
</path>
<path d="M19.9,17.45c2.32-0.1,18.88-2.56,21-2.68c1.76-0.1,2.68,0.87,2.76,1.63c0.13,1.17-1.01,12.17-1.33,20.04" style="fill:none;stroke:black;stroke-width:3;opacity:0">
  <animate attributeType="CSS" attributeName="opacity" from="0" to="1" begin="1s" dur="1s" repeatCount="Indefinite" fill="freeze" />
</path>
<path d="M20.31,26.76c5.71-0.56,16.85-1.52,22.35-2.13" style="fill:none;stroke:black;stroke-width:3;opacity:0">
  <animate attributeType="CSS" attributeName="opacity" from="0" to="1" begin="2s" dur="1s" repeatCount="Indefinite" fill="freeze" />
</path>
<path d="M19.9,36.76c7.73-1.1,14.72-1.93,21.56-2.44" style="fill:none;stroke:black;stroke-width:3;opacity:0">
  <animate attributeType="CSS" attributeName="opacity" from="0" to="1" begin="3s" dur="1s" repeatCount="Indefinite" fill="freeze" />
</path>
<path d="M64.44,14.01c0.44,0.55,0.88,1.74,0.88,2.48c0,0.74,0.21,18.31,0.21,18.67" style="fill:none;stroke:black;stroke-width:3;opacity:0">
  <animate attributeType="CSS" attributeName="opacity" from="0" to="1" begin="4s" dur="1s" repeatCount="Indefinite" fill="freeze" />
</path>
<path d="M66.05,15.66c2.49-0.11,19.71-2.79,21.99-2.92c1.9-0.11,2.98,1.15,2.97,1.8c-0.49,19.46-0.5,64.29-0.5,78.4c0,10.56-6.95,1.66-8.4,0.36" style="fill:none;stroke:black;stroke-width:3;opacity:0">
  <animate attributeType="CSS" attributeName="opacity" from="0" to="1" begin="5s" dur="1s" repeatCount="Indefinite" fill="freeze" />
</path>
<path d="M65.49,24.72c3.38,0,21.09-1.74,24.9-1.74" style="fill:none;stroke:black;stroke-width:3;opacity:0">
  <animate attributeType="CSS" attributeName="opacity" from="0" to="1" begin="6s" dur="1s" repeatCount="Indefinite" fill="freeze" />
</path>
<path d="M66.05,34.26c4.99,0,18.09-1.06,24.55-1.06" style="fill:none;stroke:black;stroke-width:3;opacity:0">
  <animate attributeType="CSS" attributeName="opacity" from="0" to="1" begin="7s" dur="1s" repeatCount="Indefinite" fill="freeze" />
</path>
<path d="M33.64,42.45c0.26,0.2,0.56,0.35,0.64,0.61c0.74,2.27,2.11,6.12,2.86,9.45" style="fill:none;stroke:black;stroke-width:3;opacity:0">
  <animate attributeType="CSS" attributeName="opacity" from="0" to="1" begin="8s" dur="1s" repeatCount="Indefinite" fill="freeze" />
</path>
<path d="M35.27,43.17c4.83-0.48,8.99-0.83,13.44-1.31c1.12-0.12,1.79,0.56,1.63,1.11c-0.67,2.29-0.92,3.34-2.1,7.15" style="fill:none;stroke:black;stroke-width:3;opacity:0">
  <animate attributeType="CSS" attributeName="opacity" from="0" to="1" begin="9s" dur="1s" repeatCount="Indefinite" fill="freeze" />
</path>
<path d="M37.69,51.62c3.6-0.29,7.07-0.78,12.02-1.23" style="fill:none;stroke:black;stroke-width:3;opacity:0">
  <animate attributeType="CSS" attributeName="opacity" from="0" to="1" begin="10s" dur="1s" repeatCount="Indefinite" fill="freeze" />
</path>
<path d="M56.24,41.41c0.23,0.21,0.92,0.99,0.99,1.27c0.66,2.44,1.33,4.69,2,8.28" style="fill:none;stroke:black;stroke-width:3;opacity:0">
  <animate attributeType="CSS" attributeName="opacity" from="0" to="1" begin="11s" dur="1s" repeatCount="Indefinite" fill="freeze" />
</path>
<path d="M57.44,41.96c5.48-0.57,10.72-1.09,14.68-1.61c0.99-0.13,1.59,0.6,1.45,1.2c-0.59,2.46-1.71,4.41-2.49,7.08" style="fill:none;stroke:black;stroke-width:3;opacity:0">
  <animate attributeType="CSS" attributeName="opacity" from="0" to="1" begin="12s" dur="1s" repeatCount="Indefinite" fill="freeze" />
</path>
<path d="M59.05,49.68c4.21-0.2,7.57-0.66,13.78-0.74" style="fill:none;stroke:black;stroke-width:3;opacity:0">
  <animate attributeType="CSS" attributeName="opacity" from="0" to="1" begin="13s" dur="1s" repeatCount="Indefinite" fill="freeze" />
</path>
<path d="M36.65,57.48c0.26,0.34,0.74,0.93,0.88,1.35c1.17,3.47,1.65,10.45,2.39,16.89" style="fill:none;stroke:black;stroke-width:3;opacity:0">
  <animate attributeType="CSS" attributeName="opacity" from="0" to="1" begin="14s" dur="1s" repeatCount="Indefinite" fill="freeze" />
</path>
<path d="M38.33,58.3c9.74-1.16,23.83-2.38,30.53-2.98c2.46-0.22,3.95,1.47,3.88,2.93c-0.17,3.47-2.81,14.24-3.25,15.69" style="fill:none;stroke:black;stroke-width:3;opacity:0">
  <animate attributeType="CSS" attributeName="opacity" from="0" to="1" begin="15s" dur="1s" repeatCount="Indefinite" fill="freeze" />
</path>
<path d="M39.81,66.21c2.93-0.28,27.48-2.25,31.55-2.06" style="fill:none;stroke:black;stroke-width:3;opacity:0">
  <animate attributeType="CSS" attributeName="opacity" from="0" to="1" begin="16s" dur="1s" repeatCount="Indefinite" fill="freeze" />
</path>
<path d="M40.27,74.07c10.05-0.93,20.01-1.33,29.29-2" style="fill:none;stroke:black;stroke-width:3;opacity:0">
  <animate attributeType="CSS" attributeName="opacity" from="0" to="1" begin="17s" dur="1s" repeatCount="Indefinite" fill="freeze" />
</path>
<path d="M29.44,83.33c1.4,0.49,3.98,0.57,5.38,0.49c7.79-0.45,23.82-2.66,41.33-3.34c2.34-0.09,3.74,0.24,4.91,0.48" style="fill:none;stroke:black;stroke-width:3;opacity:0">
  <animate attributeType="CSS" attributeName="opacity" from="0" to="1" begin="18s" dur="1s" repeatCount="Indefinite" fill="freeze" />
</path>
<path d="M53.5,58.19c0.5,0.26,0.82,0.98,0.82,1.86c0.03,4.46,0.15,36.46,0.16,37.91" style="fill:none;stroke:black;stroke-width:3;opacity:0">
  <animate attributeType="CSS" attributeName="opacity" from="0" to="1" begin="19s" dur="1s" repeatCount="Indefinite" fill="freeze" />
</path>
</svg>