<svg width="109px" height="109px" viewBox="0 0 px 109px" xmlns="http://www.w3.org/2000/svg" xmlns:xlink="http://www.w3.org/1999/xlink" xml:space="preserve" version="1.1"  baseProfile="full">
<path d="M16,19.05c0.94,0.14,1.95,0.15,3,0.08c4.25-0.29,13.01-2.04,15.19-2.94c2.72-1.12,5.44,1.12,4.23,3.73c-1.21,2.61-9.35,15.78-11.46,19.51" style="fill:none;stroke:black;stroke-width:3;opacity:0">
  <animate attributeType="CSS" attributeName="opacity" from="0" to="1" begin="0s" dur="1s" repeatCount="Indefinite" fill="freeze" />
</path>
<path d="M26.96,40c13.79,11,11.54,39,1.51,32.43" style="fill:none;stroke:black;stroke-width:3;opacity:0">
  <animate attributeType="CSS" attributeName="opacity" from="0" to="1" begin="1s" dur="1s" repeatCount="Indefinite" fill="freeze" />
</path>
<path d="M16.87,20.47c0.38,0.78,0.58,2.52,0.78,3.63c0.2,1.12,0,65.91-0.2,72.9" style="fill:none;stroke:black;stroke-width:3;opacity:0">
  <animate attributeType="CSS" attributeName="opacity" from="0" to="1" begin="2s" dur="1s" repeatCount="Indefinite" fill="freeze" />
</path>
<path d="M68.82,13.5c1.25,0.57,1.99,2.58,2.24,3.72c0.25,1.15,0,67.33-0.25,74.48" style="fill:none;stroke:black;stroke-width:3;opacity:0">
  <animate attributeType="CSS" attributeName="opacity" from="0" to="1" begin="3s" dur="1s" repeatCount="Indefinite" fill="freeze" />
</path>
<path d="M71.2,49.64c5.86-1.14,13.15-2,18.14-2.29c1.92-0.11,2.4-0.29,3.6,0" style="fill:none;stroke:black;stroke-width:3;opacity:0">
  <animate attributeType="CSS" attributeName="opacity" from="0" to="1" begin="4s" dur="1s" repeatCount="Indefinite" fill="freeze" />
</path>
<path d="M49.64,45.85c1.25,0.57,1.99,2.58,2.24,3.72c0.25,1.15,0,36.05-0.25,43.21" style="fill:none;stroke:black;stroke-width:3;opacity:0">
  <animate attributeType="CSS" attributeName="opacity" from="0" to="1" begin="5s" dur="1s" repeatCount="Indefinite" fill="freeze" />
</path>
<path d="M34.41,93.4c0.72,0.2,2.64,0.67,4.56,0.6c13.81-0.5,41.82-2.66,54.96-2.66c1.92,0,4.79,0.29,6.66,1.15" style="fill:none;stroke:black;stroke-width:3;opacity:0">
  <animate attributeType="CSS" attributeName="opacity" from="0" to="1" begin="6s" dur="1s" repeatCount="Indefinite" fill="freeze" />
</path>
</svg>