<svg width="109px" height="109px" viewBox="0 0 px 109px" xmlns="http://www.w3.org/2000/svg" xmlns:xlink="http://www.w3.org/1999/xlink" xml:space="preserve" version="1.1"  baseProfile="full">
<path d="M16.25,18.25c1.02,0.36,2.35,0.64,3.76,0.4c5.49-0.9,9.8-1.58,12.12-2.45c3.06-1.15,5.62,1.15,4.26,3.83c-1.36,2.68-6.63,16.71-9.01,20.55" style="fill:none;stroke:black;stroke-width:3;opacity:0">
  <animate attributeType="CSS" attributeName="opacity" from="0" to="1" begin="0s" dur="1s" repeatCount="Indefinite" fill="freeze" />
</path>
<path d="M27.38,40.59C42,49.5,41,80.5,29.58,72.43" style="fill:none;stroke:black;stroke-width:3;opacity:0">
  <animate attributeType="CSS" attributeName="opacity" from="0" to="1" begin="1s" dur="1s" repeatCount="Indefinite" fill="freeze" />
</path>
<path d="M18.04,19.53c0.46,0.97,0.28,2.59,0.5,3.74c0.22,1.15,0,67.8-0.22,74.99" style="fill:none;stroke:black;stroke-width:3;opacity:0">
  <animate attributeType="CSS" attributeName="opacity" from="0" to="1" begin="2s" dur="1s" repeatCount="Indefinite" fill="freeze" />
</path>
<path d="M46.96,18.92c1.15,0.47,3.26,0.59,4.41,0.47c10.63-1.14,22.79-2.56,37.64-3.52c1.91-0.12,3.07,0.22,4.03,0.46" style="fill:none;stroke:black;stroke-width:3;opacity:0">
  <animate attributeType="CSS" attributeName="opacity" from="0" to="1" begin="3s" dur="1s" repeatCount="Indefinite" fill="freeze" />
</path>
<path d="M67.98,20.88c0.21,0.65,0.25,1.45,0.19,2.02c-0.3,3.36-2.88,12.46-5.23,16.97" style="fill:none;stroke:black;stroke-width:3;opacity:0">
  <animate attributeType="CSS" attributeName="opacity" from="0" to="1" begin="4s" dur="1s" repeatCount="Indefinite" fill="freeze" />
</path>
<path d="M50.76,41.32c0.61,1.3,1.04,1.96,1.22,3.69c1.06,10.49,0.23,41.69,0.48,50.24" style="fill:none;stroke:black;stroke-width:3;opacity:0">
  <animate attributeType="CSS" attributeName="opacity" from="0" to="1" begin="5s" dur="1s" repeatCount="Indefinite" fill="freeze" />
</path>
<path d="M52.34,43.39c3.44-0.22,28.89-2.68,32.02-2.94c2.61-0.22,4.29,1.45,4.08,2.74c-0.41,2.6-1.95,35.94-2.27,49.79" style="fill:none;stroke:black;stroke-width:3;opacity:0">
  <animate attributeType="CSS" attributeName="opacity" from="0" to="1" begin="6s" dur="1s" repeatCount="Indefinite" fill="freeze" />
</path>
<path d="M52.78,65.2c6.15-0.63,12.3-1.11,18.47-1.44c1.36-0.07,2.68-0.14,3.99-0.19" style="fill:none;stroke:black;stroke-width:3;opacity:0">
  <animate attributeType="CSS" attributeName="opacity" from="0" to="1" begin="7s" dur="1s" repeatCount="Indefinite" fill="freeze" />
</path>
<path d="M53.47,92.37c11.28-0.87,22.28-1.62,32.89-1.64" style="fill:none;stroke:black;stroke-width:3;opacity:0">
  <animate attributeType="CSS" attributeName="opacity" from="0" to="1" begin="8s" dur="1s" repeatCount="Indefinite" fill="freeze" />
</path>
</svg>