<svg width="109px" height="109px" viewBox="0 0 px 109px" xmlns="http://www.w3.org/2000/svg" xmlns:xlink="http://www.w3.org/1999/xlink" xml:space="preserve" version="1.1"  baseProfile="full">
<path d="M16.92,19.67c1.35,0.65,3.16,0.72,4.64,0.43c4.94-0.97,8.31-1.97,12.61-2.93c3.09-0.69,4.41,1.08,3.42,3.58c-1.33,3.38-5.33,11.38-8.33,16.5" style="fill:none;stroke:black;stroke-width:3;opacity:0">
  <animate attributeType="CSS" attributeName="opacity" from="0" to="1" begin="0s" dur="1s" repeatCount="Indefinite" fill="freeze" />
</path>
<path d="M29.48,37.5c12.09,7.56,7.89,32.88-1.24,25.3" style="fill:none;stroke:black;stroke-width:3;opacity:0">
  <animate attributeType="CSS" attributeName="opacity" from="0" to="1" begin="1s" dur="1s" repeatCount="Indefinite" fill="freeze" />
</path>
<path d="M18.37,21c1.06,1.06,1.21,2.25,1.21,3.75c0,6.87,0.03,49.25,0.03,61c0,4.42,0,7.88,0,9.75" style="fill:none;stroke:black;stroke-width:3;opacity:0">
  <animate attributeType="CSS" attributeName="opacity" from="0" to="1" begin="2s" dur="1s" repeatCount="Indefinite" fill="freeze" />
</path>
<path d="M51.19,23.59c2.18,0.53,3.59,0.35,5.2,0.16c6.71-0.8,14.91-2.08,21.61-2.51c1.6-0.1,3.24-0.27,4.82,0.1" style="fill:none;stroke:black;stroke-width:3;opacity:0">
  <animate attributeType="CSS" attributeName="opacity" from="0" to="1" begin="3s" dur="1s" repeatCount="Indefinite" fill="freeze" />
</path>
<path d="M65.93,11.62c0.79,0.79,1.19,1.74,1.19,3.26c0,4.77-0.04,12.87-0.04,20.56" style="fill:none;stroke:black;stroke-width:3;opacity:0">
  <animate attributeType="CSS" attributeName="opacity" from="0" to="1" begin="4s" dur="1s" repeatCount="Indefinite" fill="freeze" />
</path>
<path d="M43.26,37.71c3.04,0.57,5.95,0.22,8.99-0.13c10.54-1.2,24.87-3.11,34.5-3.89c2.67-0.21,5.4-0.6,8,0.17" style="fill:none;stroke:black;stroke-width:3;opacity:0">
  <animate attributeType="CSS" attributeName="opacity" from="0" to="1" begin="5s" dur="1s" repeatCount="Indefinite" fill="freeze" />
</path>
<path d="M58.14,41.25c0.11,1.03,0.04,2.05-0.41,2.96c-2.1,4.17-6.01,9.87-13.94,15.71" style="fill:none;stroke:black;stroke-width:3;opacity:0">
  <animate attributeType="CSS" attributeName="opacity" from="0" to="1" begin="6s" dur="1s" repeatCount="Indefinite" fill="freeze" />
</path>
<path d="M75.35,37.12c0.7,0.7,0.95,1.63,0.95,2.81c0,3.36-0.02,6.11-0.02,8.4c0,3.54,1.47,4.73,9,4.73c4.71,0,7.81-0.69,8.47-1.08" style="fill:none;stroke:black;stroke-width:3;opacity:0">
  <animate attributeType="CSS" attributeName="opacity" from="0" to="1" begin="7s" dur="1s" repeatCount="Indefinite" fill="freeze" />
</path>
<path d="M62,53.5c0.1,0.97-0.25,1.97-0.69,2.78C58.75,61.01,53.3,69.1,43.7,76.65" style="fill:none;stroke:black;stroke-width:3;opacity:0">
  <animate attributeType="CSS" attributeName="opacity" from="0" to="1" begin="8s" dur="1s" repeatCount="Indefinite" fill="freeze" />
</path>
<path d="M61.5,62.88c1.63,0.18,3.07,0.28,4.65-0.16c3.48-0.97,5.6-1.47,8.49-2.44c3.12-1.06,4.49,0.15,2.91,3.3c-4.4,8.83-19.7,26.24-35.47,31.68" style="fill:none;stroke:black;stroke-width:3;opacity:0">
  <animate attributeType="CSS" attributeName="opacity" from="0" to="1" begin="9s" dur="1s" repeatCount="Indefinite" fill="freeze" />
</path>
<path d="M55.26,66.89c3.73,3.76,19.65,16.99,27.82,23.29c2.48,1.92,4.93,3.44,8.1,5.03" style="fill:none;stroke:black;stroke-width:3;opacity:0">
  <animate attributeType="CSS" attributeName="opacity" from="0" to="1" begin="10s" dur="1s" repeatCount="Indefinite" fill="freeze" />
</path>
</svg>