<svg width="109px" height="109px" viewBox="0 0 px 109px" xmlns="http://www.w3.org/2000/svg" xmlns:xlink="http://www.w3.org/1999/xlink" xml:space="preserve" version="1.1"  baseProfile="full">
<path d="M23.87,23c1.09,0.5,1.74,2.25,1.96,3.25c0.22,1-0.08,43-0.08,53.75" style="fill:none;stroke:black;stroke-width:3;opacity:0">
  <animate attributeType="CSS" attributeName="opacity" from="0" to="1" begin="0s" dur="1s" repeatCount="Indefinite" fill="freeze" />
</path>
<path d="M26.38,50.2c2.5-0.4,6.02-1.19,8.47-1.59c0.61-0.1,0.76-0.13,1.15,0" style="fill:none;stroke:black;stroke-width:3;opacity:0">
  <animate attributeType="CSS" attributeName="opacity" from="0" to="1" begin="1s" dur="1s" repeatCount="Indefinite" fill="freeze" />
</path>
<path d="M14.37,45.75c1.09,0.5,1.96,2.23,1.96,3.25c0,5.5,0.28,28.75,0.28,36" style="fill:none;stroke:black;stroke-width:3;opacity:0">
  <animate attributeType="CSS" attributeName="opacity" from="0" to="1" begin="2s" dur="1s" repeatCount="Indefinite" fill="freeze" />
</path>
<path d="M10.5,86.6c0.28,0.64,1.56,0.71,2.31,0.47c4.04-1.28,15.87-8.2,22.19-11.82" style="fill:none;stroke:black;stroke-width:3;opacity:0">
  <animate attributeType="CSS" attributeName="opacity" from="0" to="1" begin="3s" dur="1s" repeatCount="Indefinite" fill="freeze" />
</path>
<path d="M40.75,45c2.42-0.17,5.43-0.7,8.06-1.18c1.17-0.21,2.27-0.42,3.19-0.57" style="fill:none;stroke:black;stroke-width:3;opacity:0">
  <animate attributeType="CSS" attributeName="opacity" from="0" to="1" begin="4s" dur="1s" repeatCount="Indefinite" fill="freeze" />
</path>
<path d="M39,19.25c1.07,1.19,1.15,1.99,1.51,3.57c0.36,1.59,0.06,53.71,0.06,59.57s2.02,5.91,6.48,5.91c5.71,0,5.96-1.96,5.96-6.9" style="fill:none;stroke:black;stroke-width:3;opacity:0">
  <animate attributeType="CSS" attributeName="opacity" from="0" to="1" begin="5s" dur="1s" repeatCount="Indefinite" fill="freeze" />
</path>
<path d="M66.42,16.93c0.13,1.85-0.05,4.25-0.52,5.8c-2.93,9.84-6.63,18.07-13.31,29.8" style="fill:none;stroke:black;stroke-width:3;opacity:0">
  <animate attributeType="CSS" attributeName="opacity" from="0" to="1" begin="6s" dur="1s" repeatCount="Indefinite" fill="freeze" />
</path>
<path d="M61.67,39.64c0.62,8.43-0.52,50.06-0.25,57.44" style="fill:none;stroke:black;stroke-width:3;opacity:0">
  <animate attributeType="CSS" attributeName="opacity" from="0" to="1" begin="7s" dur="1s" repeatCount="Indefinite" fill="freeze" />
</path>
<path d="M83.72,17.32c0.06,0.98-0.03,2.25-0.24,3.08c-1.33,5.26-3.01,9.3-6.03,15.63" style="fill:none;stroke:black;stroke-width:3;opacity:0">
  <animate attributeType="CSS" attributeName="opacity" from="0" to="1" begin="8s" dur="1s" repeatCount="Indefinite" fill="freeze" />
</path>
<path d="M61.68,38.54c6.26-0.79,30.09-2.71,32.78-3.19" style="fill:none;stroke:black;stroke-width:3;opacity:0">
  <animate attributeType="CSS" attributeName="opacity" from="0" to="1" begin="9s" dur="1s" repeatCount="Indefinite" fill="freeze" />
</path>
<path d="M62.45,54.75c5.91-0.6,26.87-2.05,29.4-2.42" style="fill:none;stroke:black;stroke-width:3;opacity:0">
  <animate attributeType="CSS" attributeName="opacity" from="0" to="1" begin="10s" dur="1s" repeatCount="Indefinite" fill="freeze" />
</path>
<path d="M61.66,71.96c6.23-0.43,27.28-2.61,29.95-2.89" style="fill:none;stroke:black;stroke-width:3;opacity:0">
  <animate attributeType="CSS" attributeName="opacity" from="0" to="1" begin="11s" dur="1s" repeatCount="Indefinite" fill="freeze" />
</path>
<path d="M61.57,92.37c6.26-0.79,32.78-2.4,35.46-2.88" style="fill:none;stroke:black;stroke-width:3;opacity:0">
  <animate attributeType="CSS" attributeName="opacity" from="0" to="1" begin="12s" dur="1s" repeatCount="Indefinite" fill="freeze" />
</path>
<path d="M77.38,37.91c0.3,0.49,0.54,1.15,0.54,1.96c-0.04,8.25-0.12,37.8-0.36,50.79" style="fill:none;stroke:black;stroke-width:3;opacity:0">
  <animate attributeType="CSS" attributeName="opacity" from="0" to="1" begin="13s" dur="1s" repeatCount="Indefinite" fill="freeze" />
</path>
</svg>