<svg width="109px" height="109px" viewBox="0 0 px 109px" xmlns="http://www.w3.org/2000/svg" xmlns:xlink="http://www.w3.org/1999/xlink" xml:space="preserve" version="1.1"  baseProfile="full">
<path d="M25.75,22.37c1.87,0.4,4.47,0.62,6.32,0.4c11.68-1.39,28.28-3.77,41.25-4.64c2.49-0.17,4.37-0.12,7.18,0.28" style="fill:none;stroke:black;stroke-width:3;opacity:0">
  <animate attributeType="CSS" attributeName="opacity" from="0" to="1" begin="0s" dur="1s" repeatCount="Indefinite" fill="freeze" />
</path>
<path d="M15.5,41.25c1.25,1.5,1.66,3.26,1.89,5.19c1.24,10.69,2.19,26.61,2.66,36.31c0.13,2.7,0.2,5,0.2,6" style="fill:none;stroke:black;stroke-width:3;opacity:0">
  <animate attributeType="CSS" attributeName="opacity" from="0" to="1" begin="1s" dur="1s" repeatCount="Indefinite" fill="freeze" />
</path>
<path d="M18.25,44.25c1.42-0.09,62.76-5.33,69.5-6c2.5-0.25,4.61,1,4.5,3.75c-0.5,12.75-1.77,28.11-6,44.75c-1.88,7.38-5.38,1.88-8.5-1.25" style="fill:none;stroke:black;stroke-width:3;opacity:0">
  <animate attributeType="CSS" attributeName="opacity" from="0" to="1" begin="2s" dur="1s" repeatCount="Indefinite" fill="freeze" />
</path>
<path d="M52.25,23.5C53.31,24.56,54,26.25,54,28c0,0.82-0.25,37.8-0.43,53c-0.04,3.43-0.07,5.74-0.07,6.25" style="fill:none;stroke:black;stroke-width:3;opacity:0">
  <animate attributeType="CSS" attributeName="opacity" from="0" to="1" begin="3s" dur="1s" repeatCount="Indefinite" fill="freeze" />
</path>
<path d="M31,53.5c4.21,1.24,8.95,3.94,11.25,6" style="fill:none;stroke:black;stroke-width:3;opacity:0">
  <animate attributeType="CSS" attributeName="opacity" from="0" to="1" begin="4s" dur="1s" repeatCount="Indefinite" fill="freeze" />
</path>
<path d="M30.5,68.75c3.8,1.26,9.68,5.89,11.75,8" style="fill:none;stroke:black;stroke-width:3;opacity:0">
  <animate attributeType="CSS" attributeName="opacity" from="0" to="1" begin="5s" dur="1s" repeatCount="Indefinite" fill="freeze" />
</path>
<path d="M66.88,48.88c4.98,1.99,10.63,5.97,12.62,7.62" style="fill:none;stroke:black;stroke-width:3;opacity:0">
  <animate attributeType="CSS" attributeName="opacity" from="0" to="1" begin="6s" dur="1s" repeatCount="Indefinite" fill="freeze" />
</path>
<path d="M67.25,66.5c2.75,1,9,5.5,11,7.75" style="fill:none;stroke:black;stroke-width:3;opacity:0">
  <animate attributeType="CSS" attributeName="opacity" from="0" to="1" begin="7s" dur="1s" repeatCount="Indefinite" fill="freeze" />
</path>
</svg>