<svg width="109px" height="109px" viewBox="0 0 px 109px" xmlns="http://www.w3.org/2000/svg" xmlns:xlink="http://www.w3.org/1999/xlink" xml:space="preserve" version="1.1"  baseProfile="full">
<path d="M33.21,16.07c2.36,0.32,4.67,0.13,7.03-0.08c7-0.64,17.79-1.78,26.14-2.39c2.44-0.18,4.94-0.51,7.37-0.1" style="fill:none;stroke:black;stroke-width:3;opacity:0">
  <animate attributeType="CSS" attributeName="opacity" from="0" to="1" begin="0s" dur="1s" repeatCount="Indefinite" fill="freeze" />
</path>
<path d="M20.29,26.75c-0.2,4.96-1.94,10.46-3.23,15.47" style="fill:none;stroke:black;stroke-width:3;opacity:0">
  <animate attributeType="CSS" attributeName="opacity" from="0" to="1" begin="1s" dur="1s" repeatCount="Indefinite" fill="freeze" />
</path>
<path d="M21.02,29.53c23.36-2.4,47.23-5.28,65.79-5.71c8.03-0.19,3.38,4.46-0.78,8.61" style="fill:none;stroke:black;stroke-width:3;opacity:0">
  <animate attributeType="CSS" attributeName="opacity" from="0" to="1" begin="2s" dur="1s" repeatCount="Indefinite" fill="freeze" />
</path>
<path d="M52.98,17.84c0.97,0.97,1.07,2.04,1.07,3.32c0,0.24,0.03,9.92,0.04,16.34c0.01,3.11,0.01,5.45,0.01,5.59" style="fill:none;stroke:black;stroke-width:3;opacity:0">
  <animate attributeType="CSS" attributeName="opacity" from="0" to="1" begin="3s" dur="1s" repeatCount="Indefinite" fill="freeze" />
</path>
<path d="M33.88,34.88c2.8,0.75,6.61,3.01,8.13,4.26" style="fill:none;stroke:black;stroke-width:3;opacity:0">
  <animate attributeType="CSS" attributeName="opacity" from="0" to="1" begin="4s" dur="1s" repeatCount="Indefinite" fill="freeze" />
</path>
<path d="M28.6,44.26c3.52,0.89,8.95,4.15,10.86,5.63" style="fill:none;stroke:black;stroke-width:3;opacity:0">
  <animate attributeType="CSS" attributeName="opacity" from="0" to="1" begin="5s" dur="1s" repeatCount="Indefinite" fill="freeze" />
</path>
<path d="M66.68,33.27c3.41,1.4,7.28,4.19,8.65,5.36" style="fill:none;stroke:black;stroke-width:3;opacity:0">
  <animate attributeType="CSS" attributeName="opacity" from="0" to="1" begin="6s" dur="1s" repeatCount="Indefinite" fill="freeze" />
</path>
<path d="M65.88,44.88c3.13,0.99,7.41,3.97,9.11,5.62" style="fill:none;stroke:black;stroke-width:3;opacity:0">
  <animate attributeType="CSS" attributeName="opacity" from="0" to="1" begin="7s" dur="1s" repeatCount="Indefinite" fill="freeze" />
</path>
<path d="M51.87,46.75c0,1.44-0.65,2.54-1.47,3.65c-5.17,7.05-16.3,16.71-35.15,27.28" style="fill:none;stroke:black;stroke-width:3;opacity:0">
  <animate attributeType="CSS" attributeName="opacity" from="0" to="1" begin="8s" dur="1s" repeatCount="Indefinite" fill="freeze" />
</path>
<path d="M53.04,49.32c5.89,3.64,21.19,14.05,29.63,19.18c2.79,1.7,5.66,3.56,8.83,4.43" style="fill:none;stroke:black;stroke-width:3;opacity:0">
  <animate attributeType="CSS" attributeName="opacity" from="0" to="1" begin="9s" dur="1s" repeatCount="Indefinite" fill="freeze" />
</path>
<path d="M 36.18875,70.596875 c 1.76,0.72 3.84,0.36 5.65,0.14 4.71875,-0.319375 21.822708,-0.851667 27.222708,-1.331667 1.88,-0.17 3.54,-0.23 5.37,0.21" style="fill:none;stroke:black;stroke-width:3;opacity:0">
  <animate attributeType="CSS" attributeName="opacity" from="0" to="1" begin="10s" dur="1s" repeatCount="Indefinite" fill="freeze" />
</path>
<path d="M 25.763074,78.93276 c 1.064167,0.604166 1.864582,0.716146 3.046197,0.586146 12.068026,-0.908399 36.172168,-0.834537 49.371459,-1.445002 1.525752,-0.07057 4.28,-0.29 3.95,2.89 -0.0042,2.552031 -0.263024,7.776431 -1.458333,10.867867 -1.375113,3.556466 -8.289374,2.76875 -12.701875,-1.356667" style="fill:none;stroke:black;stroke-width:3;opacity:0">
  <animate attributeType="CSS" attributeName="opacity" from="0" to="1" begin="11s" dur="1s" repeatCount="Indefinite" fill="freeze" />
</path>
<path d="M 49.254967,79.830826 c 0.588999,0.588999 0.675995,0.715423 0.675995,2.215423 0.05897,3.510916 -0.228537,15.047044 -0.09283,19.610961" style="fill:none;stroke:black;stroke-width:3;opacity:0">
  <animate attributeType="CSS" attributeName="opacity" from="0" to="1" begin="12s" dur="1s" repeatCount="Indefinite" fill="freeze" />
</path>
</svg>