<svg width="109px" height="109px" viewBox="0 0 px 109px" xmlns="http://www.w3.org/2000/svg" xmlns:xlink="http://www.w3.org/1999/xlink" xml:space="preserve" version="1.1"  baseProfile="full">
<path d="M35.69,14.53c1.39,0.16,3.21,0.36,4.46,0.18c4.57-0.66,16.46-1.67,28.01-2.32c1.77-0.1,3.23-0.13,4.86,0.09" style="fill:none;stroke:black;stroke-width:3;opacity:0">
  <animate attributeType="CSS" attributeName="opacity" from="0" to="1" begin="0s" dur="1s" repeatCount="0" fill="freeze" />
</path>
<path d="M21.4,24.6c-0.19,4.39-1.86,9.76-3.09,14.19" style="fill:none;stroke:black;stroke-width:3;opacity:0">
  <animate attributeType="CSS" attributeName="opacity" from="0" to="1" begin="1s" dur="1s" repeatCount="0" fill="freeze" />
</path>
<path d="M21.63,26.98c20.27-2.55,50.12-5.76,65.28-5.76c7.84,0,3.79,3.76-0.27,7.08" style="fill:none;stroke:black;stroke-width:3;opacity:0">
  <animate attributeType="CSS" attributeName="opacity" from="0" to="1" begin="2s" dur="1s" repeatCount="0" fill="freeze" />
</path>
<path d="M52.22,14.99c0.53,0.76,1.74,2.6,1.74,3.06s-0.25,22.74-0.25,24" style="fill:none;stroke:black;stroke-width:3;opacity:0">
  <animate attributeType="CSS" attributeName="opacity" from="0" to="1" begin="3s" dur="1s" repeatCount="0" fill="freeze" />
</path>
<path d="M33.78,30.38c2.71,0.53,6.4,2.13,7.88,3.02" style="fill:none;stroke:black;stroke-width:3;opacity:0">
  <animate attributeType="CSS" attributeName="opacity" from="0" to="1" begin="4s" dur="1s" repeatCount="0" fill="freeze" />
</path>
<path d="M31.12,37.93c2.71,0.66,6.9,3.11,8.37,4.21" style="fill:none;stroke:black;stroke-width:3;opacity:0">
  <animate attributeType="CSS" attributeName="opacity" from="0" to="1" begin="5s" dur="1s" repeatCount="0" fill="freeze" />
</path>
<path d="M67.57,27.79c3.2,0.87,6.83,2.61,8.11,3.33" style="fill:none;stroke:black;stroke-width:3;opacity:0">
  <animate attributeType="CSS" attributeName="opacity" from="0" to="1" begin="6s" dur="1s" repeatCount="0" fill="freeze" />
</path>
<path d="M65.8,36.43c2.8,0.6,6.62,2.4,8.15,3.39" style="fill:none;stroke:black;stroke-width:3;opacity:0">
  <animate attributeType="CSS" attributeName="opacity" from="0" to="1" begin="7s" dur="1s" repeatCount="0" fill="freeze" />
</path>
<path d="M22.39,48.98c1,0.57,1.52,2.05,1.65,2.94c0,10.72,0,41.45-0.28,46.82" style="fill:none;stroke:black;stroke-width:3;opacity:0">
  <animate attributeType="CSS" attributeName="opacity" from="0" to="1" begin="8s" dur="1s" repeatCount="0" fill="freeze" />
</path>
<path d="M24.4,51.14c6.58-0.75,14.55-2.75,21.43-3.35c1.72-0.15,2.77,0.7,2.52,1.38c-1.03,2.85-3.08,8.45-3.75,11.62" style="fill:none;stroke:black;stroke-width:3;opacity:0">
  <animate attributeType="CSS" attributeName="opacity" from="0" to="1" begin="9s" dur="1s" repeatCount="0" fill="freeze" />
</path>
<path d="M24.01,63.03c5.56-0.36,17.86-1.54,22.98-1.88" style="fill:none;stroke:black;stroke-width:3;opacity:0">
  <animate attributeType="CSS" attributeName="opacity" from="0" to="1" begin="10s" dur="1s" repeatCount="0" fill="freeze" />
</path>
<path d="M24.01,74.1c4.43-0.29,11.89-1.6,17.19-2.09c1.35-0.13,2.59,0.11,3.63,0.04" style="fill:none;stroke:black;stroke-width:3;opacity:0">
  <animate attributeType="CSS" attributeName="opacity" from="0" to="1" begin="11s" dur="1s" repeatCount="0" fill="freeze" />
</path>
<path d="M24.88,86.52c4.43-0.29,12.89-1.1,18.19-1.59c1.35-0.12,2.59,0.11,3.63,0.04" style="fill:none;stroke:black;stroke-width:3;opacity:0">
  <animate attributeType="CSS" attributeName="opacity" from="0" to="1" begin="12s" dur="1s" repeatCount="0" fill="freeze" />
</path>
<path d="M57.84,47.13c1.41,0.12,3.58,0.93,4.86,0.86c6.13-0.37,15.51-2.37,21.2-2.87c1.72-0.15,2.77,0.7,2.52,1.38c-1.03,2.85-1.67,6-2.83,10.44" style="fill:none;stroke:black;stroke-width:3;opacity:0">
  <animate attributeType="CSS" attributeName="opacity" from="0" to="1" begin="13s" dur="1s" repeatCount="0" fill="freeze" />
</path>
<path d="M57.45,59.17c1.3,0.58,2.34,0.67,3.81,0.56c6.42-0.5,21.05-2.17,25.21-2.44" style="fill:none;stroke:black;stroke-width:3;opacity:0">
  <animate attributeType="CSS" attributeName="opacity" from="0" to="1" begin="14s" dur="1s" repeatCount="0" fill="freeze" />
</path>
<path d="M57.27,68.96c1.36,0.2,1.53,0.49,4.25,0.2c2.72-0.3,17.05-3.19,18.92-3.48c1.87-0.3,3.22,1.08,2.55,2.17C75,80.66,66.75,89.75,50.1,96.25" style="fill:none;stroke:black;stroke-width:3;opacity:0">
  <animate attributeType="CSS" attributeName="opacity" from="0" to="1" begin="15s" dur="1s" repeatCount="0" fill="freeze" />
</path>
<path d="M56.9,74.25c3.52,0.51,20.7,14.09,32.94,19.65c1.91,0.87,3.3,1.44,5.07,1.73" style="fill:none;stroke:black;stroke-width:3;opacity:0">
  <animate attributeType="CSS" attributeName="opacity" from="0" to="1" begin="16s" dur="1s" repeatCount="0" fill="freeze" />
</path>
</svg>