<svg width="109px" height="109px" viewBox="0 0 px 109px" xmlns="http://www.w3.org/2000/svg" xmlns:xlink="http://www.w3.org/1999/xlink" xml:space="preserve" version="1.1"  baseProfile="full">
<path d="M32.13,21.42c1.62,0.38,4.59,0.54,6.21,0.38c9.16-0.92,21.57-2.3,34.18-3.13c2.69-0.18,3.81-0.09,5.23-0.02" style="fill:none;stroke:black;stroke-width:3;opacity:0">
  <animate attributeType="CSS" attributeName="opacity" from="0" to="1" begin="0s" dur="1s" repeatCount="0" fill="freeze" />
</path>
<path d="M52.81,8.63c1.15,1.15,1.76,2.62,1.76,4.42c0,0.43-0.09,28.62-0.07,30.19" style="fill:none;stroke:black;stroke-width:3;opacity:0">
  <animate attributeType="CSS" attributeName="opacity" from="0" to="1" begin="1s" dur="1s" repeatCount="0" fill="freeze" />
</path>
<path d="M34,33.37c2.39,0.62,4.73,0.4,7.13,0.05c9.07-1.31,22.36-2.96,28.71-3.46c2.21-0.17,3.85-0.08,5.03-0.02" style="fill:none;stroke:black;stroke-width:3;opacity:0">
  <animate attributeType="CSS" attributeName="opacity" from="0" to="1" begin="2s" dur="1s" repeatCount="0" fill="freeze" />
</path>
<path d="M13.5,47c2.5,0.75,5.8,0.86,8.88,0.55c19.41-1.93,51.54-5.05,65.69-5.8c3.1-0.16,7.07,0,9.3,0.73" style="fill:none;stroke:black;stroke-width:3;opacity:0">
  <animate attributeType="CSS" attributeName="opacity" from="0" to="1" begin="3s" dur="1s" repeatCount="0" fill="freeze" />
</path>
<path d="M36.26,54.19c1.09,1.09,1.59,2.89,1.59,3.52c0,4.92,0,20.42,0,34.56c0,2.23-0.1,4.11-0.1,6.24" style="fill:none;stroke:black;stroke-width:3;opacity:0">
  <animate attributeType="CSS" attributeName="opacity" from="0" to="1" begin="4s" dur="1s" repeatCount="0" fill="freeze" />
</path>
<path d="M38.2,55.78c0.59-0.03,29.02-2.73,30.58-2.8c2.47-0.11,3.73,0.89,3.73,3.05c0,3.72,0.08,26.23,0.08,38.15c0,10.58-6.97,1.31-7.86,0.57" style="fill:none;stroke:black;stroke-width:3;opacity:0">
  <animate attributeType="CSS" attributeName="opacity" from="0" to="1" begin="5s" dur="1s" repeatCount="0" fill="freeze" />
</path>
<path d="M39.2,67.61c5.93-0.23,24.72-2.4,32.25-2.4" style="fill:none;stroke:black;stroke-width:3;opacity:0">
  <animate attributeType="CSS" attributeName="opacity" from="0" to="1" begin="6s" dur="1s" repeatCount="0" fill="freeze" />
</path>
<path d="M39.12,79.23c5.88-0.35,24.26-1.98,32.13-2.31" style="fill:none;stroke:black;stroke-width:3;opacity:0">
  <animate attributeType="CSS" attributeName="opacity" from="0" to="1" begin="7s" dur="1s" repeatCount="0" fill="freeze" />
</path>
</svg>