<svg width="109px" height="109px" viewBox="0 0 px 109px" xmlns="http://www.w3.org/2000/svg" xmlns:xlink="http://www.w3.org/1999/xlink" xml:space="preserve" version="1.1"  baseProfile="full">
<path d="M8.9,25.02c0.87,0.37,2.97,0.89,3.84,0.87c6.76-0.14,26.51-3.14,33.92-4.83c1.42-0.32,2.33,0.18,3.05,0.36" style="fill:none;stroke:black;stroke-width:3;opacity:0">
  <animate attributeType="CSS" attributeName="opacity" from="0" to="1" begin="0s" dur="1s" repeatCount="Indefinite" fill="freeze" />
</path>
<path d="M19.39,14.96c0.55,0.39,0.89,1.76,1,2.54c0.96,7,1.15,13.59,1.74,22.44" style="fill:none;stroke:black;stroke-width:3;opacity:0">
  <animate attributeType="CSS" attributeName="opacity" from="0" to="1" begin="1s" dur="1s" repeatCount="Indefinite" fill="freeze" />
</path>
<path d="M37.55,12.5c0.52,0.37,1,1.63,0.93,2.37c-0.72,7.6-0.36,10.44-1.73,20.65" style="fill:none;stroke:black;stroke-width:3;opacity:0">
  <animate attributeType="CSS" attributeName="opacity" from="0" to="1" begin="2s" dur="1s" repeatCount="Indefinite" fill="freeze" />
</path>
<path d="M21.83,37.25c1.77,0,15.18-1.23,16.77-1.37" style="fill:none;stroke:black;stroke-width:3;opacity:0">
  <animate attributeType="CSS" attributeName="opacity" from="0" to="1" begin="3s" dur="1s" repeatCount="Indefinite" fill="freeze" />
</path>
<path d="M14.26,48.6c0.29,0.47,0.58,0.86,0.7,1.45c0.99,4.66,1.83,7.53,2.5,15.91" style="fill:none;stroke:black;stroke-width:3;opacity:0">
  <animate attributeType="CSS" attributeName="opacity" from="0" to="1" begin="4s" dur="1s" repeatCount="Indefinite" fill="freeze" />
</path>
<path d="M15.48,49.71c8.4-1.71,25.42-3.53,29.02-4.19c1.32-0.24,2.43,1.45,2.2,2.85c-0.47,2.88-1.75,6.38-2.78,11.4" style="fill:none;stroke:black;stroke-width:3;opacity:0">
  <animate attributeType="CSS" attributeName="opacity" from="0" to="1" begin="5s" dur="1s" repeatCount="Indefinite" fill="freeze" />
</path>
<path d="M17.25,63.88c4.23-0.75,21-2.88,27.98-3.38" style="fill:none;stroke:black;stroke-width:3;opacity:0">
  <animate attributeType="CSS" attributeName="opacity" from="0" to="1" begin="6s" dur="1s" repeatCount="Indefinite" fill="freeze" />
</path>
<path d="M9.25,75.28c1.24,0.78,3.49,0.82,4.74,0.78c9.26-0.31,20.96-2.45,30.68-3.87c2.04-0.3,3.3-0.13,4.33,0.26" style="fill:none;stroke:black;stroke-width:3;opacity:0">
  <animate attributeType="CSS" attributeName="opacity" from="0" to="1" begin="7s" dur="1s" repeatCount="Indefinite" fill="freeze" />
</path>
<path d="M29.46,38.25c0.36,1,0.54,2.23,0.54,3.25c0,8.5,0,50.75-0.12,57" style="fill:none;stroke:black;stroke-width:3;opacity:0">
  <animate attributeType="CSS" attributeName="opacity" from="0" to="1" begin="8s" dur="1s" repeatCount="Indefinite" fill="freeze" />
</path>
<path d="M54.46,33.82c0.99,1.27,1.48,2.28,1.73,3.81c0.25,1.52,1.77,22.67,2.02,24.44" style="fill:none;stroke:black;stroke-width:3;opacity:0">
  <animate attributeType="CSS" attributeName="opacity" from="0" to="1" begin="9s" dur="1s" repeatCount="Indefinite" fill="freeze" />
</path>
<path d="M56.36,36.38c3.15-0.48,26.42-3.16,30.71-3.72c3.17-0.41,5.01,1.96,4.64,4.12c-0.37,2.16-2.78,17.99-3.15,20.63" style="fill:none;stroke:black;stroke-width:3;opacity:0">
  <animate attributeType="CSS" attributeName="opacity" from="0" to="1" begin="10s" dur="1s" repeatCount="Indefinite" fill="freeze" />
</path>
<path d="M51.77,61.77c0.72,0.42,2.56,0.69,3.35,0.59c10.85-1.41,20.41-2.23,37.86-3.84c1-0.09,2.41,0.17,4.64,0.88" style="fill:none;stroke:black;stroke-width:3;opacity:0">
  <animate attributeType="CSS" attributeName="opacity" from="0" to="1" begin="11s" dur="1s" repeatCount="Indefinite" fill="freeze" />
</path>
<path d="M70.69,13.5c0.56,1,1.02,2.53,1.05,5.06C72.18,71.52,69.5,82.5,48.17,98.5" style="fill:none;stroke:black;stroke-width:3;opacity:0">
  <animate attributeType="CSS" attributeName="opacity" from="0" to="1" begin="12s" dur="1s" repeatCount="Indefinite" fill="freeze" />
</path>
<path d="M70.85,60.57c5.53,10.53,14.4,25.68,22.42,33.11c2.23,2.07,2.53,2.75,3.39,2.98" style="fill:none;stroke:black;stroke-width:3;opacity:0">
  <animate attributeType="CSS" attributeName="opacity" from="0" to="1" begin="13s" dur="1s" repeatCount="Indefinite" fill="freeze" />
</path>
</svg>