<svg width="109px" height="109px" viewBox="0 0 px 109px" xmlns="http://www.w3.org/2000/svg" xmlns:xlink="http://www.w3.org/1999/xlink" xml:space="preserve" version="1.1"  baseProfile="full">
<path d="M34.25,13.47c0.58,0.58,1.21,1.78,1.21,3.03c0,1.25,0,3.96,0,7.34" style="fill:none;stroke:black;stroke-width:3;opacity:0">
  <animate attributeType="CSS" attributeName="opacity" from="0" to="1" begin="0s" dur="1s" repeatCount="0" fill="freeze" />
</path>
<path d="M19.08,25.79c1.15,0.29,2.48,0.43,3.63,0.29c7.04-0.83,18.17-2.58,23.81-3.13c1.9-0.19,3.06,0.14,4.01,0.29" style="fill:none;stroke:black;stroke-width:3;opacity:0">
  <animate attributeType="CSS" attributeName="opacity" from="0" to="1" begin="1s" dur="1s" repeatCount="0" fill="freeze" />
</path>
<path d="M25.43,29.98C28.22,34.75,29.75,39.85,30,43" style="fill:none;stroke:black;stroke-width:3;opacity:0">
  <animate attributeType="CSS" attributeName="opacity" from="0" to="1" begin="2s" dur="1s" repeatCount="0" fill="freeze" />
</path>
<path d="M45.02,26.88c0.35,0.88,0.4,2,0.06,3.08c-1.33,4.29-3.64,8.72-5.46,11.67" style="fill:none;stroke:black;stroke-width:3;opacity:0">
  <animate attributeType="CSS" attributeName="opacity" from="0" to="1" begin="3s" dur="1s" repeatCount="0" fill="freeze" />
</path>
<path d="M17.9,46.27c0.85,0.23,4.62,0.32,5.46,0.23c10.28-1,13.4-1.75,25.42-2.98c1.39-0.14,3.64,0.11,4.35,0.23" style="fill:none;stroke:black;stroke-width:3;opacity:0">
  <animate attributeType="CSS" attributeName="opacity" from="0" to="1" begin="4s" dur="1s" repeatCount="0" fill="freeze" />
</path>
<path d="M20,47c0.56,0.56,0.83,1.88,0.83,3.59c0,17.91-4.22,36.21-10.08,41.91" style="fill:none;stroke:black;stroke-width:3;opacity:0">
  <animate attributeType="CSS" attributeName="opacity" from="0" to="1" begin="5s" dur="1s" repeatCount="0" fill="freeze" />
</path>
<path d="M44.38,51.38c0.11,0.81-0.11,1.77-0.66,2.38c-1.97,2.73-7.7,7.31-15.21,10.25" style="fill:none;stroke:black;stroke-width:3;opacity:0">
  <animate attributeType="CSS" attributeName="opacity" from="0" to="1" begin="6s" dur="1s" repeatCount="0" fill="freeze" />
</path>
<path d="M46.32,63.76c-0.07,0.86-0.17,1.86-0.88,2.58c-2.35,3.1-8.8,8.15-17.21,11.41" style="fill:none;stroke:black;stroke-width:3;opacity:0">
  <animate attributeType="CSS" attributeName="opacity" from="0" to="1" begin="7s" dur="1s" repeatCount="0" fill="freeze" />
</path>
<path d="M48.75,76.12c0,1.09-0.28,2.24-1.09,3.04C43.75,83,35.62,88.88,25.75,93.25" style="fill:none;stroke:black;stroke-width:3;opacity:0">
  <animate attributeType="CSS" attributeName="opacity" from="0" to="1" begin="8s" dur="1s" repeatCount="0" fill="freeze" />
</path>
<path d="M57.88,20.23c1.28,0.31,3.62,0.44,4.89,0.31c8.85-0.86,18.73-2.4,26.14-2.9c2.12-0.14,3.4,0.15,4.47,0.31" style="fill:none;stroke:black;stroke-width:3;opacity:0">
  <animate attributeType="CSS" attributeName="opacity" from="0" to="1" begin="9s" dur="1s" repeatCount="0" fill="freeze" />
</path>
<path d="M74.37,21.62c0.13,0.75-0.07,2.09-0.41,2.86c-0.92,2.36-2.62,5.14-4.8,7.71" style="fill:none;stroke:black;stroke-width:3;opacity:0">
  <animate attributeType="CSS" attributeName="opacity" from="0" to="1" begin="10s" dur="1s" repeatCount="0" fill="freeze" />
</path>
<path d="M61.78,33.8c0.41,0.99,1.02,1.72,1.02,3.04c0,1.13,0,25.27,0,34.92c0,1.56,0,2.74,0,3.38" style="fill:none;stroke:black;stroke-width:3;opacity:0">
  <animate attributeType="CSS" attributeName="opacity" from="0" to="1" begin="11s" dur="1s" repeatCount="0" fill="freeze" />
</path>
<path d="M63.54,35.19c6.07-0.85,20.97-2.96,22.66-3.11c1.78-0.16,3.28,0.92,3.28,3.04c0,1.44-0.17,19.7-0.19,33.88c0,1.16,0,2.29,0,3.38" style="fill:none;stroke:black;stroke-width:3;opacity:0">
  <animate attributeType="CSS" attributeName="opacity" from="0" to="1" begin="12s" dur="1s" repeatCount="0" fill="freeze" />
</path>
<path d="M64.2,46.59c6.3-0.84,19.08-2.22,24.1-2.58" style="fill:none;stroke:black;stroke-width:3;opacity:0">
  <animate attributeType="CSS" attributeName="opacity" from="0" to="1" begin="13s" dur="1s" repeatCount="0" fill="freeze" />
</path>
<path d="M64.14,58.44c8.11-1.19,17.37-1.67,23.77-2.13" style="fill:none;stroke:black;stroke-width:3;opacity:0">
  <animate attributeType="CSS" attributeName="opacity" from="0" to="1" begin="14s" dur="1s" repeatCount="0" fill="freeze" />
</path>
<path d="M64.24,72c6.01-0.62,16.7-1.79,23.52-2.29" style="fill:none;stroke:black;stroke-width:3;opacity:0">
  <animate attributeType="CSS" attributeName="opacity" from="0" to="1" begin="15s" dur="1s" repeatCount="0" fill="freeze" />
</path>
<path d="M68.87,78c0.25,1.5-0.15,2.55-0.91,3.6c-2.59,3.52-9.55,8.96-13.46,11.9" style="fill:none;stroke:black;stroke-width:3;opacity:0">
  <animate attributeType="CSS" attributeName="opacity" from="0" to="1" begin="16s" dur="1s" repeatCount="0" fill="freeze" />
</path>
<path d="M82.5,78.25c4.28,4.02,9.35,11.31,10.52,14.83" style="fill:none;stroke:black;stroke-width:3;opacity:0">
  <animate attributeType="CSS" attributeName="opacity" from="0" to="1" begin="17s" dur="1s" repeatCount="0" fill="freeze" />
</path>
</svg>