<svg width="109px" height="109px" viewBox="0 0 px 109px" xmlns="http://www.w3.org/2000/svg" xmlns:xlink="http://www.w3.org/1999/xlink" xml:space="preserve" version="1.1"  baseProfile="full">
<path d="M32.16,11.72c0.83,0.94,1.25,0.94,1.25,3.12c0,2.19,0,2.51,0,8.44" style="fill:none;stroke:black;stroke-width:3;opacity:0">
  <animate attributeType="CSS" attributeName="opacity" from="0" to="1" begin="0s" dur="1s" repeatCount="0" fill="freeze" />
</path>
<path d="M15.5,25.03c0.98,0.5,2.12,0.56,3.11,0.5c9.56-0.57,22.13-2.29,29.82-3.15c1.63-0.18,2.62,0.24,3.44,0.49" style="fill:none;stroke:black;stroke-width:3;opacity:0">
  <animate attributeType="CSS" attributeName="opacity" from="0" to="1" begin="1s" dur="1s" repeatCount="0" fill="freeze" />
</path>
<path d="M41.69,27.2c0.07,1.02-1.07,2.2-1.29,2.6c-1.47,2.79-12.15,10.94-18.68,13.62" style="fill:none;stroke:black;stroke-width:3;opacity:0">
  <animate attributeType="CSS" attributeName="opacity" from="0" to="1" begin="2s" dur="1s" repeatCount="0" fill="freeze" />
</path>
<path d="M26.4,30.36c11.03,3.73,17.04,7.72,18.05,10.17" style="fill:none;stroke:black;stroke-width:3;opacity:0">
  <animate attributeType="CSS" attributeName="opacity" from="0" to="1" begin="3s" dur="1s" repeatCount="0" fill="freeze" />
</path>
<path d="M14.99,48.69c0.67,0.23,3.66,0.33,4.32,0.23c9.34-1.44,20.04-2.22,29.54-3.43c1.1-0.14,2.88,0.11,3.44,0.23" style="fill:none;stroke:black;stroke-width:3;opacity:0">
  <animate attributeType="CSS" attributeName="opacity" from="0" to="1" begin="4s" dur="1s" repeatCount="0" fill="freeze" />
</path>
<path d="M19.4,48.97c0.34,0.38,0.39,3.09,0.4,4.29c0.18,18.03-3.55,31.99-9.59,41.2" style="fill:none;stroke:black;stroke-width:3;opacity:0">
  <animate attributeType="CSS" attributeName="opacity" from="0" to="1" begin="5s" dur="1s" repeatCount="0" fill="freeze" />
</path>
<path d="M42.66,50.37c0.04,0.37,0.09,0.97-0.08,1.51c-1.01,3.18-6.79,10.14-14.7,14.4" style="fill:none;stroke:black;stroke-width:3;opacity:0">
  <animate attributeType="CSS" attributeName="opacity" from="0" to="1" begin="6s" dur="1s" repeatCount="0" fill="freeze" />
</path>
<path d="M46.58,63.78c0.06,0.44,0.13,1.15-0.12,1.79c-1.48,3.78-9.98,12.07-21.62,17.15" style="fill:none;stroke:black;stroke-width:3;opacity:0">
  <animate attributeType="CSS" attributeName="opacity" from="0" to="1" begin="7s" dur="1s" repeatCount="0" fill="freeze" />
</path>
<path d="M49.3,75.92c0.08,0.56,0.18,1.44-0.16,2.23c-2,4.71-13.46,15.03-29.15,21.35" style="fill:none;stroke:black;stroke-width:3;opacity:0">
  <animate attributeType="CSS" attributeName="opacity" from="0" to="1" begin="8s" dur="1s" repeatCount="0" fill="freeze" />
</path>
<path d="M54.95,16.54c1.12,0.34,3.18,0.39,4.31,0.34c9.28-0.4,26.99-2.46,34.21-2.63c1.87-0.04,2.99,0.17,3.93,0.34" style="fill:none;stroke:black;stroke-width:3;opacity:0">
  <animate attributeType="CSS" attributeName="opacity" from="0" to="1" begin="9s" dur="1s" repeatCount="0" fill="freeze" />
</path>
<path d="M75.23,18.93c0.01,0.31,0.03,0.8-0.03,1.24c-0.34,2.62-3.71,8.36-6.38,11.87" style="fill:none;stroke:black;stroke-width:3;opacity:0">
  <animate attributeType="CSS" attributeName="opacity" from="0" to="1" begin="10s" dur="1s" repeatCount="0" fill="freeze" />
</path>
<path d="M59.66,33.8c0.45,1.08,1.11,1.88,1.11,3.32c0,1.44-0.15,41.84,0,43.28" style="fill:none;stroke:black;stroke-width:3;opacity:0">
  <animate attributeType="CSS" attributeName="opacity" from="0" to="1" begin="11s" dur="1s" repeatCount="0" fill="freeze" />
</path>
<path d="M61.53,35.23c2.56-0.18,24.24-2.36,26.58-2.58c1.94-0.18,3.48,1.99,3.31,3.32c-0.21,1.69-0.9,42.25-0.9,43.33" style="fill:none;stroke:black;stroke-width:3;opacity:0">
  <animate attributeType="CSS" attributeName="opacity" from="0" to="1" begin="12s" dur="1s" repeatCount="0" fill="freeze" />
</path>
<path d="M61.49,48.32c3.66,0,23.15-1.42,28.64-1.81" style="fill:none;stroke:black;stroke-width:3;opacity:0">
  <animate attributeType="CSS" attributeName="opacity" from="0" to="1" begin="13s" dur="1s" repeatCount="0" fill="freeze" />
</path>
<path d="M60.69,61.94c9.13-0.48,22.47-1.05,29.47-1.55" style="fill:none;stroke:black;stroke-width:3;opacity:0">
  <animate attributeType="CSS" attributeName="opacity" from="0" to="1" begin="14s" dur="1s" repeatCount="0" fill="freeze" />
</path>
<path d="M62.36,77.79c6.64-0.29,20.01-1,27.46-1.54" style="fill:none;stroke:black;stroke-width:3;opacity:0">
  <animate attributeType="CSS" attributeName="opacity" from="0" to="1" begin="15s" dur="1s" repeatCount="0" fill="freeze" />
</path>
<path d="M66.16,83.98c0.39,1.31,0.28,2.17-0.5,3.13C63.3,89.99,55.5,94.25,49.71,97" style="fill:none;stroke:black;stroke-width:3;opacity:0">
  <animate attributeType="CSS" attributeName="opacity" from="0" to="1" begin="16s" dur="1s" repeatCount="0" fill="freeze" />
</path>
<path d="M80.57,83.12c6.1,4.46,13.32,12.56,14.98,16.46" style="fill:none;stroke:black;stroke-width:3;opacity:0">
  <animate attributeType="CSS" attributeName="opacity" from="0" to="1" begin="17s" dur="1s" repeatCount="0" fill="freeze" />
</path>
</svg>