<svg width="109px" height="109px" viewBox="0 0 px 109px" xmlns="http://www.w3.org/2000/svg" xmlns:xlink="http://www.w3.org/1999/xlink" xml:space="preserve" version="1.1"  baseProfile="full">
<path d="M52.75,10.5c0.11,0.98-0.19,2.67-0.97,3.93C45,25.34,31.75,41.19,14,51.5" style="fill:none;stroke:black;stroke-width:3;opacity:0">
  <animate attributeType="CSS" attributeName="opacity" from="0" to="1" begin="0s" dur="1s" repeatCount="0" fill="freeze" />
</path>
<path d="M52.75,16.25c5.09,4.8,25.71,19.61,33.7,24.9c2.68,1.78,5.37,2.79,8.55,3.35" style="fill:none;stroke:black;stroke-width:3;opacity:0">
  <animate attributeType="CSS" attributeName="opacity" from="0" to="1" begin="1s" dur="1s" repeatCount="0" fill="freeze" />
</path>
<path d="M52.25,29.25c1,1,1.5,2.25,1.5,3.5c0,2,0,3,0,5.5" style="fill:none;stroke:black;stroke-width:3;opacity:0">
  <animate attributeType="CSS" attributeName="opacity" from="0" to="1" begin="2s" dur="1s" repeatCount="0" fill="freeze" />
</path>
<path d="M38,40c0.83,0.47,2.19,1,3.86,0.83c9.39-0.96,21.95-2.76,23.25-2.84c1.67-0.1,3.14,0.88,3.11,2.53C68.2,41.8,67,53.25,66.34,62.4c-0.07,0.94-0.13,1.36-0.13,1.99" style="fill:none;stroke:black;stroke-width:3;opacity:0">
  <animate attributeType="CSS" attributeName="opacity" from="0" to="1" begin="3s" dur="1s" repeatCount="0" fill="freeze" />
</path>
<path d="M40.83,51.73C47.25,51.25,59.5,50,66,49.75" style="fill:none;stroke:black;stroke-width:3;opacity:0">
  <animate attributeType="CSS" attributeName="opacity" from="0" to="1" begin="4s" dur="1s" repeatCount="0" fill="freeze" />
</path>
<path d="M40.69,63.9c7.04-0.52,16.55-1.62,24.6-2.04" style="fill:none;stroke:black;stroke-width:3;opacity:0">
  <animate attributeType="CSS" attributeName="opacity" from="0" to="1" begin="5s" dur="1s" repeatCount="0" fill="freeze" />
</path>
<path d="M38.25,40.25c1.12,1.12,1.5,2.62,1.5,4c0,9.12,0,43.62,0,47.25c0,4,1,4.88,4.12,2.88c2.93-1.87,6.75-5.25,10.88-8.38" style="fill:none;stroke:black;stroke-width:3;opacity:0">
  <animate attributeType="CSS" attributeName="opacity" from="0" to="1" begin="6s" dur="1s" repeatCount="0" fill="freeze" />
</path>
<path d="M74,64c0.25,1.25,0.09,2.57-0.75,3.5c-3.5,3.88-4.5,4.88-7.25,7.5" style="fill:none;stroke:black;stroke-width:3;opacity:0">
  <animate attributeType="CSS" attributeName="opacity" from="0" to="1" begin="7s" dur="1s" repeatCount="0" fill="freeze" />
</path>
<path d="M51.5,71C55.75,71,77,90,81,92.75c2.49,1.71,4.62,2.62,7.5,3.5" style="fill:none;stroke:black;stroke-width:3;opacity:0">
  <animate attributeType="CSS" attributeName="opacity" from="0" to="1" begin="8s" dur="1s" repeatCount="0" fill="freeze" />
</path>
</svg>