<svg width="109px" height="109px" viewBox="0 0 px 109px" xmlns="http://www.w3.org/2000/svg" xmlns:xlink="http://www.w3.org/1999/xlink" xml:space="preserve" version="1.1"  baseProfile="full">
<path d="M31.25,11.14c0.06,0.67,0.29,1.8-0.12,2.71c-2.68,5.95-10.39,17.6-21.33,26.37" style="fill:none;stroke:black;stroke-width:3;opacity:0">
  <animate attributeType="CSS" attributeName="opacity" from="0" to="1" begin="0s" dur="1s" repeatCount="Indefinite" fill="freeze" />
</path>
<path d="M34.02,17.58c4.69,1.79,12.12,7.35,13.29,10.13" style="fill:none;stroke:black;stroke-width:3;opacity:0">
  <animate attributeType="CSS" attributeName="opacity" from="0" to="1" begin="1s" dur="1s" repeatCount="Indefinite" fill="freeze" />
</path>
<path d="M23.75,31.66c0.36,0.15,1.02,0.19,1.39,0.15c2.3-0.25,10.37-2.17,12.6-2c0.6,0.05,0.96,0.07,1.27,0.14" style="fill:none;stroke:black;stroke-width:3;opacity:0">
  <animate attributeType="CSS" attributeName="opacity" from="0" to="1" begin="2s" dur="1s" repeatCount="Indefinite" fill="freeze" />
</path>
<path d="M19.27,40.44c0.39,0.78,0.78,1.68,0.78,2.72c0,1.04-0.13,55.79,0,56.84" style="fill:none;stroke:black;stroke-width:3;opacity:0">
  <animate attributeType="CSS" attributeName="opacity" from="0" to="1" begin="3s" dur="1s" repeatCount="Indefinite" fill="freeze" />
</path>
<path d="M20.19,42.07c2.2-0.13,18.91-2.17,20.92-2.33c1.67-0.13,2.74,1.45,2.61,2.22c-0.26,1.57-2.97,18.54-3.52,22.01" style="fill:none;stroke:black;stroke-width:3;opacity:0">
  <animate attributeType="CSS" attributeName="opacity" from="0" to="1" begin="4s" dur="1s" repeatCount="Indefinite" fill="freeze" />
</path>
<path d="M20.58,52.23c2.97,0,18.36-2.31,21.72-2.31" style="fill:none;stroke:black;stroke-width:3;opacity:0">
  <animate attributeType="CSS" attributeName="opacity" from="0" to="1" begin="5s" dur="1s" repeatCount="Indefinite" fill="freeze" />
</path>
<path d="M20.44,64.06c6.06-0.56,12.31-1.56,19.85-2.04" style="fill:none;stroke:black;stroke-width:3;opacity:0">
  <animate attributeType="CSS" attributeName="opacity" from="0" to="1" begin="6s" dur="1s" repeatCount="Indefinite" fill="freeze" />
</path>
<path d="M20.39,77.06c3.73-0.25,15.96-2.67,19.57-2.49c0.97,0.04,1.56,0.07,2.05,0.14" style="fill:none;stroke:black;stroke-width:3;opacity:0">
  <animate attributeType="CSS" attributeName="opacity" from="0" to="1" begin="7s" dur="1s" repeatCount="Indefinite" fill="freeze" />
</path>
<path d="M20.39,90.81c4.73-0.25,16.44-2.17,21.02-1.99c1.23,0.04,1.98,0.07,2.6,0.14" style="fill:none;stroke:black;stroke-width:3;opacity:0">
  <animate attributeType="CSS" attributeName="opacity" from="0" to="1" begin="8s" dur="1s" repeatCount="Indefinite" fill="freeze" />
</path>
<path d="M72.77,14.64c0.04,0.53,0.08,1.37-0.07,2.14c-0.88,4.5-5.9,11.15-13.8,20.44" style="fill:none;stroke:black;stroke-width:3;opacity:0">
  <animate attributeType="CSS" attributeName="opacity" from="0" to="1" begin="9s" dur="1s" repeatCount="Indefinite" fill="freeze" />
</path>
<path d="M52.25,38.25c0.47,0.75,0.87,2.03,0.94,3.39c0.29,5.61-0.14,41.86,0.06,53.61" style="fill:none;stroke:black;stroke-width:3;opacity:0">
  <animate attributeType="CSS" attributeName="opacity" from="0" to="1" begin="10s" dur="1s" repeatCount="Indefinite" fill="freeze" />
</path>
<path d="M53.54,40.35c5.99-0.6,36.59-4.92,37.71-5.18c1.8-0.42,4.02,0.05,3.97,3.83c-0.14,9.76-0.8,44.28-2.75,53.03c-1.22,5.48-5.47,1.23-7.09-1.52" style="fill:none;stroke:black;stroke-width:3;opacity:0">
  <animate attributeType="CSS" attributeName="opacity" from="0" to="1" begin="11s" dur="1s" repeatCount="Indefinite" fill="freeze" />
</path>
<path d="M62.76,55.28c0.31,0.44,0.72,1.93,0.76,2.52c0.45,7.11,2.37,12.17,2.72,20.96" style="fill:none;stroke:black;stroke-width:3;opacity:0">
  <animate attributeType="CSS" attributeName="opacity" from="0" to="1" begin="12s" dur="1s" repeatCount="Indefinite" fill="freeze" />
</path>
<path d="M63.88,56.28C70,55,75.41,54.25,80.03,53.24c1.17-0.26,2.88,0.97,2.71,2.01c-0.7,4.32-1.88,12.25-2.54,18.13" style="fill:none;stroke:black;stroke-width:3;opacity:0">
  <animate attributeType="CSS" attributeName="opacity" from="0" to="1" begin="13s" dur="1s" repeatCount="Indefinite" fill="freeze" />
</path>
<path d="M66.72,75.76c3.77-0.55,9.59-1,14.77-1.84" style="fill:none;stroke:black;stroke-width:3;opacity:0">
  <animate attributeType="CSS" attributeName="opacity" from="0" to="1" begin="14s" dur="1s" repeatCount="Indefinite" fill="freeze" />
</path>
</svg>