<svg width="109px" height="109px" viewBox="0 0 px 109px" xmlns="http://www.w3.org/2000/svg" xmlns:xlink="http://www.w3.org/1999/xlink" xml:space="preserve" version="1.1"  baseProfile="full">
<path d="M16.24,16.62c1.01,0.63,1.02,1.81,1.05,3.13c0.19,7.84-0.26,37.5-1.04,40.5" style="fill:none;stroke:black;stroke-width:3;opacity:0">
  <animate attributeType="CSS" attributeName="opacity" from="0" to="1" begin="0s" dur="1s" repeatCount="0" fill="freeze" />
</path>
<path d="M18.27,18.26c7.82-0.52,20.9-2.83,23.26-3.17c0.94-0.14,2.53-0.25,3-0.02" style="fill:none;stroke:black;stroke-width:3;opacity:0">
  <animate attributeType="CSS" attributeName="opacity" from="0" to="1" begin="1s" dur="1s" repeatCount="0" fill="freeze" />
</path>
<path d="M17.66,31.59c6.26-0.58,19.75-1.6,22.44-1.99c0.94-0.14,2.53-0.24,3-0.02" style="fill:none;stroke:black;stroke-width:3;opacity:0">
  <animate attributeType="CSS" attributeName="opacity" from="0" to="1" begin="2s" dur="1s" repeatCount="0" fill="freeze" />
</path>
<path d="M17.76,44.62c6.26-0.59,19.75-1.6,22.44-1.99c0.94-0.14,2.53-0.25,3-0.03" style="fill:none;stroke:black;stroke-width:3;opacity:0">
  <animate attributeType="CSS" attributeName="opacity" from="0" to="1" begin="3s" dur="1s" repeatCount="0" fill="freeze" />
</path>
<path d="M16.99,59.65c6.17-1.41,21.04-4.04,24.43-4.63c4.33-0.76,4.19,2.81,3.95,6.45C44.7,71.81,42.55,83.12,39.75,90c-0.9,2.22-2.03,5.75-4,2.86c-1.73-2.54-1.32-2.45-2.22-3.72" style="fill:none;stroke:black;stroke-width:3;opacity:0">
  <animate attributeType="CSS" attributeName="opacity" from="0" to="1" begin="4s" dur="1s" repeatCount="0" fill="freeze" />
</path>
<path d="M30.31,16.82c0.25,0.38,0.46,0.88,0.45,1.49c-0.02,6.17-0.06,28.96-0.25,38.66" style="fill:none;stroke:black;stroke-width:3;opacity:0">
  <animate attributeType="CSS" attributeName="opacity" from="0" to="1" begin="5s" dur="1s" repeatCount="0" fill="freeze" />
</path>
<path d="M9.79,73.5c0.28,6.41-0.57,12.04-0.87,13.32" style="fill:none;stroke:black;stroke-width:3;opacity:0">
  <animate attributeType="CSS" attributeName="opacity" from="0" to="1" begin="6s" dur="1s" repeatCount="0" fill="freeze" />
</path>
<path d="M17.5,71.5c1.08,2.1,2,4.75,2.25,8.5" style="fill:none;stroke:black;stroke-width:3;opacity:0">
  <animate attributeType="CSS" attributeName="opacity" from="0" to="1" begin="7s" dur="1s" repeatCount="0" fill="freeze" />
</path>
<path d="M25.44,68.22C26,69.25,28,72.64,28.25,76" style="fill:none;stroke:black;stroke-width:3;opacity:0">
  <animate attributeType="CSS" attributeName="opacity" from="0" to="1" begin="8s" dur="1s" repeatCount="0" fill="freeze" />
</path>
<path d="M32.75,65.25c1.25,2.01,3.3,4.09,3.75,6.75" style="fill:none;stroke:black;stroke-width:3;opacity:0">
  <animate attributeType="CSS" attributeName="opacity" from="0" to="1" begin="9s" dur="1s" repeatCount="0" fill="freeze" />
</path>
<path d="M54.72,19.82c1.16,0.77,3.41,1.45,4.64,1.29c6.64-0.85,20.95-2.5,23.6-2.97c2.28-0.4,3.02,1.94,2.67,4.19c-0.77,4.91-2.23,11.18-4.35,18.91" style="fill:none;stroke:black;stroke-width:3;opacity:0">
  <animate attributeType="CSS" attributeName="opacity" from="0" to="1" begin="10s" dur="1s" repeatCount="0" fill="freeze" />
</path>
<path d="M57.61,44.75c3.33-0.26,22.31-3.01,25.78-3.26" style="fill:none;stroke:black;stroke-width:3;opacity:0">
  <animate attributeType="CSS" attributeName="opacity" from="0" to="1" begin="11s" dur="1s" repeatCount="0" fill="freeze" />
</path>
<path d="M57.84,22.62c0,4.26-0.31,12.93-0.74,22.03c-1.16,24.5-2.6,32.1-9.35,46.35" style="fill:none;stroke:black;stroke-width:3;opacity:0">
  <animate attributeType="CSS" attributeName="opacity" from="0" to="1" begin="12s" dur="1s" repeatCount="0" fill="freeze" />
</path>
<path d="M64.03,44.75c6.3,7.71,18.72,35.5,28.33,43.43c1.92,1.58,3.58,2.98,5.14,3.57" style="fill:none;stroke:black;stroke-width:3;opacity:0">
  <animate attributeType="CSS" attributeName="opacity" from="0" to="1" begin="13s" dur="1s" repeatCount="0" fill="freeze" />
</path>
</svg>