<svg width="109px" height="109px" viewBox="0 0 px 109px" xmlns="http://www.w3.org/2000/svg" xmlns:xlink="http://www.w3.org/1999/xlink" xml:space="preserve" version="1.1"  baseProfile="full">
<path d="M18.94,23.48c0.88,0.26,2.49,0.23,3.27,0.14c6.29-0.73,23.08-3.6,26.57-3.87c2.27-0.18,2.78,0.79,2.77,2.03c-0.04,4.78-2.34,12.61-6.1,17.23c-3.51,4.31-5.13,0.12-6.05-0.27" style="fill:none;stroke:black;stroke-width:3;opacity:0">
  <animate attributeType="CSS" attributeName="opacity" from="0" to="1" begin="0s" dur="1s" repeatCount="Indefinite" fill="freeze" />
</path>
<path d="M36.12,10.93c0.2,0.19,0.23,1.04,0.13,2c-0.92,8.96-6.42,24.8-19.42,32.6" style="fill:none;stroke:black;stroke-width:3;opacity:0">
  <animate attributeType="CSS" attributeName="opacity" from="0" to="1" begin="1s" dur="1s" repeatCount="Indefinite" fill="freeze" />
</path>
<path d="M60.25,17.53c0.32,0.35,1.22,2.62,1.29,3.07c0.71,4.14,2.45,10.93,3.21,17.11" style="fill:none;stroke:black;stroke-width:3;opacity:0">
  <animate attributeType="CSS" attributeName="opacity" from="0" to="1" begin="2s" dur="1s" repeatCount="Indefinite" fill="freeze" />
</path>
<path d="M61.83,19.72c8.67-1.22,15.46-2.9,21.59-3.83c2.58-0.39,4.02,1.34,3.01,4.59c-0.93,3.02-1.18,6.27-3.27,12.56" style="fill:none;stroke:black;stroke-width:3;opacity:0">
  <animate attributeType="CSS" attributeName="opacity" from="0" to="1" begin="3s" dur="1s" repeatCount="Indefinite" fill="freeze" />
</path>
<path d="M65.07,35.19c4.68-0.44,13.43-1.69,19.57-2.11" style="fill:none;stroke:black;stroke-width:3;opacity:0">
  <animate attributeType="CSS" attributeName="opacity" from="0" to="1" begin="4s" dur="1s" repeatCount="Indefinite" fill="freeze" />
</path>
<path d="M35.3,46.75c0.39,0.26,0.81,1.68,0.81,2.13c0,4.53-1.46,23.97-1.69,31.11" style="fill:none;stroke:black;stroke-width:3;opacity:0">
  <animate attributeType="CSS" attributeName="opacity" from="0" to="1" begin="5s" dur="1s" repeatCount="Indefinite" fill="freeze" />
</path>
<path d="M37.25,48.66c9.59-0.89,31.99-3.3,36.1-3.79c1.44-0.17,3.87-0.37,4.6-0.24" style="fill:none;stroke:black;stroke-width:3;opacity:0">
  <animate attributeType="CSS" attributeName="opacity" from="0" to="1" begin="6s" dur="1s" repeatCount="Indefinite" fill="freeze" />
</path>
<path d="M35.82,58.72c9.59-0.89,31.28-2.62,35.39-3.11c1.44-0.17,3.87-0.37,4.6-0.24" style="fill:none;stroke:black;stroke-width:3;opacity:0">
  <animate attributeType="CSS" attributeName="opacity" from="0" to="1" begin="7s" dur="1s" repeatCount="Indefinite" fill="freeze" />
</path>
<path d="M35.54,68.28c9.59-0.89,31.78-2.62,35.9-3.1c1.44-0.17,3.87-0.37,4.6-0.24" style="fill:none;stroke:black;stroke-width:3;opacity:0">
  <animate attributeType="CSS" attributeName="opacity" from="0" to="1" begin="8s" dur="1s" repeatCount="Indefinite" fill="freeze" />
</path>
<path d="M34.43,79.35c12.14-1.62,42.81-4.37,49.54-4.96c4.38-0.39,6.28,1.76,5.84,4.45c-1.27,7.65-3.05,13.66-5.11,17.73c-3.67,7.27-5.19,1.18-6.65-1.53" style="fill:none;stroke:black;stroke-width:3;opacity:0">
  <animate attributeType="CSS" attributeName="opacity" from="0" to="1" begin="9s" dur="1s" repeatCount="Indefinite" fill="freeze" />
</path>
<path d="M55.65,48.96c0.39,0.26,0.7,0.61,0.7,1.06c0,4.53,0.04,19.24-0.19,26.38" style="fill:none;stroke:black;stroke-width:3;opacity:0">
  <animate attributeType="CSS" attributeName="opacity" from="0" to="1" begin="10s" dur="1s" repeatCount="Indefinite" fill="freeze" />
</path>
<path d="M26.65,86.27c-0.4,3.98-1.54,8.85-3.74,11.35" style="fill:none;stroke:black;stroke-width:3;opacity:0">
  <animate attributeType="CSS" attributeName="opacity" from="0" to="1" begin="11s" dur="1s" repeatCount="Indefinite" fill="freeze" />
</path>
<path d="M36.36,85.41c1.96,1.95,3.81,7.31,4.3,10.34" style="fill:none;stroke:black;stroke-width:3;opacity:0">
  <animate attributeType="CSS" attributeName="opacity" from="0" to="1" begin="12s" dur="1s" repeatCount="Indefinite" fill="freeze" />
</path>
<path d="M51.33,84.19c1.91,1.65,4.94,6.77,5.42,9.33" style="fill:none;stroke:black;stroke-width:3;opacity:0">
  <animate attributeType="CSS" attributeName="opacity" from="0" to="1" begin="13s" dur="1s" repeatCount="Indefinite" fill="freeze" />
</path>
<path d="M65.08,81.47c2.16,1.5,5.59,6.17,6.13,8.51" style="fill:none;stroke:black;stroke-width:3;opacity:0">
  <animate attributeType="CSS" attributeName="opacity" from="0" to="1" begin="14s" dur="1s" repeatCount="Indefinite" fill="freeze" />
</path>
</svg>