<svg width="109px" height="109px" viewBox="0 0 px 109px" xmlns="http://www.w3.org/2000/svg" xmlns:xlink="http://www.w3.org/1999/xlink" xml:space="preserve" version="1.1"  baseProfile="full">
<path d="M15.24,16.34c0.26,0.66,0.99,1.62,0.99,2.91c-0.05,10.24-0.29,41.35-0.98,44.21" style="fill:none;stroke:black;stroke-width:3;opacity:0">
  <animate attributeType="CSS" attributeName="opacity" from="0" to="1" begin="0s" dur="1s" repeatCount="0" fill="freeze" />
</path>
<path d="M17.77,18.46c7.82-0.56,20.4-2.99,22.76-3.36c0.94-0.15,2.53-0.26,3-0.03" style="fill:none;stroke:black;stroke-width:3;opacity:0">
  <animate attributeType="CSS" attributeName="opacity" from="0" to="1" begin="1s" dur="1s" repeatCount="0" fill="freeze" />
</path>
<path d="M16.66,33.77c6.26-0.63,19.75-3.21,22.44-3.63c0.94-0.15,2.53-0.26,3-0.03" style="fill:none;stroke:black;stroke-width:3;opacity:0">
  <animate attributeType="CSS" attributeName="opacity" from="0" to="1" begin="2s" dur="1s" repeatCount="0" fill="freeze" />
</path>
<path d="M16.76,46.23c6.26-0.63,19.75-2.25,22.44-2.67c0.94-0.15,2.53-0.26,3-0.03" style="fill:none;stroke:black;stroke-width:3;opacity:0">
  <animate attributeType="CSS" attributeName="opacity" from="0" to="1" begin="3s" dur="1s" repeatCount="0" fill="freeze" />
</path>
<path d="M15.99,62.81c6.17-1.51,20.56-3.75,23.93-4.46c2.83-0.6,5.55,1.05,4.95,4.91C43,75.25,40.75,86.5,36.25,94.82c-3.21,5.93-6.32,0.44-7.21-0.92" style="fill:none;stroke:black;stroke-width:3;opacity:0">
  <animate attributeType="CSS" attributeName="opacity" from="0" to="1" begin="4s" dur="1s" repeatCount="0" fill="freeze" />
</path>
<path d="M28.81,18.03c0.25,0.4,0.96,0.94,0.95,1.59c-0.02,6.61-0.06,29.94-0.25,40.33" style="fill:none;stroke:black;stroke-width:3;opacity:0">
  <animate attributeType="CSS" attributeName="opacity" from="0" to="1" begin="5s" dur="1s" repeatCount="0" fill="freeze" />
</path>
<path d="M11.39,73.12c0.37,6.15-0.75,11.56-1.13,12.79" style="fill:none;stroke:black;stroke-width:3;opacity:0">
  <animate attributeType="CSS" attributeName="opacity" from="0" to="1" begin="6s" dur="1s" repeatCount="0" fill="freeze" />
</path>
<path d="M17.39,72.02c1.15,2.54,2.63,5.73,2.9,10.25" style="fill:none;stroke:black;stroke-width:3;opacity:0">
  <animate attributeType="CSS" attributeName="opacity" from="0" to="1" begin="7s" dur="1s" repeatCount="0" fill="freeze" />
</path>
<path d="M25.15,69.25c0.63,1.15,2.88,4.95,3.16,8.72" style="fill:none;stroke:black;stroke-width:3;opacity:0">
  <animate attributeType="CSS" attributeName="opacity" from="0" to="1" begin="8s" dur="1s" repeatCount="0" fill="freeze" />
</path>
<path d="M32.75,67.56c1.48,2.07,3.91,4.21,4.44,6.96" style="fill:none;stroke:black;stroke-width:3;opacity:0">
  <animate attributeType="CSS" attributeName="opacity" from="0" to="1" begin="9s" dur="1s" repeatCount="0" fill="freeze" />
</path>
<path d="M52.77,31.86c0.32,0.46,0.64,0.84,0.78,1.42c1.1,4.56,2.42,15.64,3.18,23.83" style="fill:none;stroke:black;stroke-width:3;opacity:0">
  <animate attributeType="CSS" attributeName="opacity" from="0" to="1" begin="10s" dur="1s" repeatCount="0" fill="freeze" />
</path>
<path d="M53.74,33.44c12.23-1.84,31.22-3.33,37.53-3.95c2.31-0.23,3.69,2.28,3.36,3.62c-1.37,5.52-2.32,8.17-4.62,18.22" style="fill:none;stroke:black;stroke-width:3;opacity:0">
  <animate attributeType="CSS" attributeName="opacity" from="0" to="1" begin="11s" dur="1s" repeatCount="0" fill="freeze" />
</path>
<path d="M57.11,54.63c7.41-0.7,26.79-2.41,36.2-3.12" style="fill:none;stroke:black;stroke-width:3;opacity:0">
  <animate attributeType="CSS" attributeName="opacity" from="0" to="1" begin="12s" dur="1s" repeatCount="0" fill="freeze" />
</path>
<path d="M72.75,10.68c0.69,1.13,1.07,2.13,1.07,5.01c0,37.98-0.82,67.81-31.68,83.71" style="fill:none;stroke:black;stroke-width:3;opacity:0">
  <animate attributeType="CSS" attributeName="opacity" from="0" to="1" begin="13s" dur="1s" repeatCount="0" fill="freeze" />
</path>
<path d="M55.52,61.61c5.94,1.97,25.33,26.38,31.5,32.15c1.83,1.72,4.9,3.97,6.73,4.46" style="fill:none;stroke:black;stroke-width:3;opacity:0">
  <animate attributeType="CSS" attributeName="opacity" from="0" to="1" begin="14s" dur="1s" repeatCount="0" fill="freeze" />
</path>
</svg>