<svg width="109px" height="109px" viewBox="0 0 px 109px" xmlns="http://www.w3.org/2000/svg" xmlns:xlink="http://www.w3.org/1999/xlink" xml:space="preserve" version="1.1"  baseProfile="full">
<path d="M17.74,18.62c1.01,0.88,1.02,2.46,1.06,3.88c0.2,7.65-0.27,34.75-1.04,37.75" style="fill:none;stroke:black;stroke-width:3;opacity:0">
  <animate attributeType="CSS" attributeName="opacity" from="0" to="1" begin="0s" dur="1s" repeatCount="Indefinite" fill="freeze" />
</path>
<path d="M19.77,19.76c7.82-0.52,20.4-2.83,22.76-3.17c0.94-0.14,2.53-0.25,3-0.03" style="fill:none;stroke:black;stroke-width:3;opacity:0">
  <animate attributeType="CSS" attributeName="opacity" from="0" to="1" begin="1s" dur="1s" repeatCount="Indefinite" fill="freeze" />
</path>
<path d="M19.16,33.09c6.26-0.58,18.25-2.1,20.94-2.49c0.94-0.14,2.53-0.24,3-0.02" style="fill:none;stroke:black;stroke-width:3;opacity:0">
  <animate attributeType="CSS" attributeName="opacity" from="0" to="1" begin="2s" dur="1s" repeatCount="Indefinite" fill="freeze" />
</path>
<path d="M19.26,45.62c6.26-0.59,17.75-2.6,20.44-2.99c0.94-0.14,2.53-0.25,3-0.03" style="fill:none;stroke:black;stroke-width:3;opacity:0">
  <animate attributeType="CSS" attributeName="opacity" from="0" to="1" begin="3s" dur="1s" repeatCount="Indefinite" fill="freeze" />
</path>
<path d="M18.49,60.65c6.17-1.41,19.54-4.04,22.93-4.63c4.33-0.76,4.19,0.81,3.95,4.45C44.7,70.81,42.76,82.45,39.25,89c-3.75,7-5.32,0.41-6.21-0.86" style="fill:none;stroke:black;stroke-width:3;opacity:0">
  <animate attributeType="CSS" attributeName="opacity" from="0" to="1" begin="4s" dur="1s" repeatCount="Indefinite" fill="freeze" />
</path>
<path d="M31.31,19.82c0.25,0.38,0.96,2.38,0.95,2.99c-0.02,6.17-0.06,25.46-0.25,35.16" style="fill:none;stroke:black;stroke-width:3;opacity:0">
  <animate attributeType="CSS" attributeName="opacity" from="0" to="1" begin="5s" dur="1s" repeatCount="Indefinite" fill="freeze" />
</path>
<path d="M13.29,72.5c0.28,6.41-0.57,12.04-0.87,13.32" style="fill:none;stroke:black;stroke-width:3;opacity:0">
  <animate attributeType="CSS" attributeName="opacity" from="0" to="1" begin="6s" dur="1s" repeatCount="Indefinite" fill="freeze" />
</path>
<path d="M20,72c1.08,2.1,2,5.25,2.25,9" style="fill:none;stroke:black;stroke-width:3;opacity:0">
  <animate attributeType="CSS" attributeName="opacity" from="0" to="1" begin="7s" dur="1s" repeatCount="Indefinite" fill="freeze" />
</path>
<path d="M26.94,69.22c0.56,1.03,2.56,4.92,2.81,8.28" style="fill:none;stroke:black;stroke-width:3;opacity:0">
  <animate attributeType="CSS" attributeName="opacity" from="0" to="1" begin="8s" dur="1s" repeatCount="Indefinite" fill="freeze" />
</path>
<path d="M33.75,66.25c1.25,2.01,3.3,4.09,3.75,6.75" style="fill:none;stroke:black;stroke-width:3;opacity:0">
  <animate attributeType="CSS" attributeName="opacity" from="0" to="1" begin="9s" dur="1s" repeatCount="Indefinite" fill="freeze" />
</path>
<path d="M52.27,24.76c0.89,0.27,1.88,0.12,2.46,0.08c7.76-0.59,22-3,29.65-3.82c0.73-0.08,2.05-0.06,2.86-0.06" style="fill:none;stroke:black;stroke-width:3;opacity:0">
  <animate attributeType="CSS" attributeName="opacity" from="0" to="1" begin="10s" dur="1s" repeatCount="Indefinite" fill="freeze" />
</path>
<path d="M68.27,11.5c0.2,0.41,0.31,0.89,0.3,1.79c-0.21,12.32-6.93,25.79-12.82,28.46" style="fill:none;stroke:black;stroke-width:3;opacity:0">
  <animate attributeType="CSS" attributeName="opacity" from="0" to="1" begin="11s" dur="1s" repeatCount="Indefinite" fill="freeze" />
</path>
<path d="M68.25,27c5.05,2.55,10.91,6.69,14,10.5" style="fill:none;stroke:black;stroke-width:3;opacity:0">
  <animate attributeType="CSS" attributeName="opacity" from="0" to="1" begin="12s" dur="1s" repeatCount="Indefinite" fill="freeze" />
</path>
<path d="M48.13,47.01c0.96,0.51,2.71,0.63,3.67,0.51c5.7-0.72,34.57-4.13,42.49-4.8c1.59-0.13,2.55,0.24,3.35,0.5" style="fill:none;stroke:black;stroke-width:3;opacity:0">
  <animate attributeType="CSS" attributeName="opacity" from="0" to="1" begin="13s" dur="1s" repeatCount="Indefinite" fill="freeze" />
</path>
<path d="M53.45,57.99c0.27,0.29,0.55,0.54,0.67,0.9c0.95,2.91,2.08,10.42,2.73,15.64" style="fill:none;stroke:black;stroke-width:3;opacity:0">
  <animate attributeType="CSS" attributeName="opacity" from="0" to="1" begin="14s" dur="1s" repeatCount="Indefinite" fill="freeze" />
</path>
<path d="M55.15,58.96c5.6-0.96,12.39-1.69,15.6-2.07c1.17-0.14,1.87,0.83,1.71,1.65c-0.69,3.39-1.5,7-2.53,11.69" style="fill:none;stroke:black;stroke-width:3;opacity:0">
  <animate attributeType="CSS" attributeName="opacity" from="0" to="1" begin="15s" dur="1s" repeatCount="Indefinite" fill="freeze" />
</path>
<path d="M56.98,72.48c3.76-0.43,8.95-1.18,14.11-1.84" style="fill:none;stroke:black;stroke-width:3;opacity:0">
  <animate attributeType="CSS" attributeName="opacity" from="0" to="1" begin="16s" dur="1s" repeatCount="Indefinite" fill="freeze" />
</path>
<path d="M84.17,46.47c0.06,0.53,1.24,2.75,1.31,6.1c0.3,16.08-0.19,32.27-0.19,37.75c0,9.39-5.36,1.66-6.47,0.28" style="fill:none;stroke:black;stroke-width:3;opacity:0">
  <animate attributeType="CSS" attributeName="opacity" from="0" to="1" begin="17s" dur="1s" repeatCount="Indefinite" fill="freeze" />
</path>
</svg>