<svg width="109px" height="109px" viewBox="0 0 px 109px" xmlns="http://www.w3.org/2000/svg" xmlns:xlink="http://www.w3.org/1999/xlink" xml:space="preserve" version="1.1"  baseProfile="full">
<path d="M16.24,18.09c0.51,0.91,0.99,1.82,0.99,3.17c-0.02,7.99-0.07,25.29-0.17,35.37c-0.02,2.32-0.03,2.72-0.81,5.69" style="fill:none;stroke:black;stroke-width:3;opacity:0">
  <animate attributeType="CSS" attributeName="opacity" from="0" to="1" begin="0s" dur="1s" repeatCount="0" fill="freeze" />
</path>
<path d="M17.27,20.74c7.82-0.52,21.9-2.8,24.26-3.15c0.94-0.14,2.53-0.24,3-0.03" style="fill:none;stroke:black;stroke-width:3;opacity:0">
  <animate attributeType="CSS" attributeName="opacity" from="0" to="1" begin="1s" dur="1s" repeatCount="0" fill="freeze" />
</path>
<path d="M17.66,33.93c6.26-0.58,19.25-2.58,21.94-2.97c0.94-0.14,2.53-0.24,3-0.02" style="fill:none;stroke:black;stroke-width:3;opacity:0">
  <animate attributeType="CSS" attributeName="opacity" from="0" to="1" begin="2s" dur="1s" repeatCount="0" fill="freeze" />
</path>
<path d="M17.76,46.84c6.26-0.58,19.75-2.58,22.44-2.97c0.94-0.14,2.53-0.24,3-0.03" style="fill:none;stroke:black;stroke-width:3;opacity:0">
  <animate attributeType="CSS" attributeName="opacity" from="0" to="1" begin="3s" dur="1s" repeatCount="0" fill="freeze" />
</path>
<path d="M16.99,62.22c6.17-1.4,21.04-4,24.43-4.59c4.33-0.75,4.19,2.78,3.95,6.39c-0.67,10.25-3.17,21.31-5.62,28.26c-1.75,4.96-5.32,0.4-6.21-0.85" style="fill:none;stroke:black;stroke-width:3;opacity:0">
  <animate attributeType="CSS" attributeName="opacity" from="0" to="1" begin="4s" dur="1s" repeatCount="0" fill="freeze" />
</path>
<path d="M29.81,20.29c0.25,0.37,0.96,0.87,0.95,1.47c-0.02,6.11-0.06,27.69-0.25,37.31" style="fill:none;stroke:black;stroke-width:3;opacity:0">
  <animate attributeType="CSS" attributeName="opacity" from="0" to="1" begin="5s" dur="1s" repeatCount="0" fill="freeze" />
</path>
<path d="M13.7,75.89c0.25,5.53-0.51,10.39-0.78,11.5" style="fill:none;stroke:black;stroke-width:3;opacity:0">
  <animate attributeType="CSS" attributeName="opacity" from="0" to="1" begin="6s" dur="1s" repeatCount="0" fill="freeze" />
</path>
<path d="M21.07,75.02c0.91,1.85,1.68,4.18,1.89,7.48" style="fill:none;stroke:black;stroke-width:3;opacity:0">
  <animate attributeType="CSS" attributeName="opacity" from="0" to="1" begin="7s" dur="1s" repeatCount="0" fill="freeze" />
</path>
<path d="M28.23,72.14c0.47,0.91,2.15,3.89,2.35,6.85" style="fill:none;stroke:black;stroke-width:3;opacity:0">
  <animate attributeType="CSS" attributeName="opacity" from="0" to="1" begin="8s" dur="1s" repeatCount="0" fill="freeze" />
</path>
<path d="M33.85,69.52c1.05,1.77,2.77,3.6,3.15,5.94" style="fill:none;stroke:black;stroke-width:3;opacity:0">
  <animate attributeType="CSS" attributeName="opacity" from="0" to="1" begin="9s" dur="1s" repeatCount="0" fill="freeze" />
</path>
<path d="M54.94,20.02c1.12,0.24,1.25,0.61,3.48,0.24s19.75-3.52,21.28-3.89c1.53-0.36,2.8,1.41,2.09,2.67C73,34.5,62,44.75,50.15,52.82" style="fill:none;stroke:black;stroke-width:3;opacity:0">
  <animate attributeType="CSS" attributeName="opacity" from="0" to="1" begin="10s" dur="1s" repeatCount="0" fill="freeze" />
</path>
<path d="M55.73,27.19c3.71,0.56,21.85,15.61,34.78,21.77c2.01,0.96,3.48,1.6,5.35,1.92" style="fill:none;stroke:black;stroke-width:3;opacity:0">
  <animate attributeType="CSS" attributeName="opacity" from="0" to="1" begin="11s" dur="1s" repeatCount="0" fill="freeze" />
</path>
<path d="M54.37,60.04c0.54,0.38,1.22,1.17,1.32,1.67c0.73,3.64,1.47,8.94,2.5,15.83" style="fill:none;stroke:black;stroke-width:3;opacity:0">
  <animate attributeType="CSS" attributeName="opacity" from="0" to="1" begin="12s" dur="1s" repeatCount="0" fill="freeze" />
</path>
<path d="M56.08,60.85c8.16-0.73,25.42-3,31.32-3.28c2.3-0.11,3.83,0.79,3.08,3.13c-1.23,3.81-1.15,5.26-2.74,11.46" style="fill:none;stroke:black;stroke-width:3;opacity:0">
  <animate attributeType="CSS" attributeName="opacity" from="0" to="1" begin="13s" dur="1s" repeatCount="0" fill="freeze" />
</path>
<path d="M58.48,75.06c6.56-0.73,21.13-2.36,30.31-3.04" style="fill:none;stroke:black;stroke-width:3;opacity:0">
  <animate attributeType="CSS" attributeName="opacity" from="0" to="1" begin="14s" dur="1s" repeatCount="0" fill="freeze" />
</path>
<path d="M69.17,48.5c1.27,0.49,2.28,2.15,2.28,3.16c0,6.09,0.25,28.09,0.25,38.82" style="fill:none;stroke:black;stroke-width:3;opacity:0">
  <animate attributeType="CSS" attributeName="opacity" from="0" to="1" begin="15s" dur="1s" repeatCount="0" fill="freeze" />
</path>
<path d="M52.94,93.29c0.77,0.61,2.25,1.43,3,1.22c4.56-1.26,28.57-7.16,33.35-8.38" style="fill:none;stroke:black;stroke-width:3;opacity:0">
  <animate attributeType="CSS" attributeName="opacity" from="0" to="1" begin="16s" dur="1s" repeatCount="0" fill="freeze" />
</path>
<path d="M83.79,79.93c3.68,2.69,9.51,11.06,10.43,15.24" style="fill:none;stroke:black;stroke-width:3;opacity:0">
  <animate attributeType="CSS" attributeName="opacity" from="0" to="1" begin="17s" dur="1s" repeatCount="0" fill="freeze" />
</path>
</svg>