<svg width="109px" height="109px" viewBox="0 0 px 109px" xmlns="http://www.w3.org/2000/svg" xmlns:xlink="http://www.w3.org/1999/xlink" xml:space="preserve" version="1.1"  baseProfile="full">
<path d="M16.24,18.12c1.01,0.88,1.53,1.81,1.58,3.13c0.3,7.75-0.29,37-1.06,40" style="fill:none;stroke:black;stroke-width:3;opacity:0">
  <animate attributeType="CSS" attributeName="opacity" from="0" to="1" begin="0s" dur="1s" repeatCount="Indefinite" fill="freeze" />
</path>
<path d="M18.27,19.26c7.82-0.52,20.4-2.83,22.76-3.17c0.94-0.14,2.53-0.25,3-0.03" style="fill:none;stroke:black;stroke-width:3;opacity:0">
  <animate attributeType="CSS" attributeName="opacity" from="0" to="1" begin="1s" dur="1s" repeatCount="Indefinite" fill="freeze" />
</path>
<path d="M18.16,33.09c6.26-0.58,16.75-2.1,19.44-2.49c0.94-0.14,2.53-0.24,3-0.02" style="fill:none;stroke:black;stroke-width:3;opacity:0">
  <animate attributeType="CSS" attributeName="opacity" from="0" to="1" begin="2s" dur="1s" repeatCount="Indefinite" fill="freeze" />
</path>
<path d="M18.26,45.62c6.26-0.59,15.25-2.1,17.94-2.49c0.94-0.14,2.53-0.25,3-0.03" style="fill:none;stroke:black;stroke-width:3;opacity:0">
  <animate attributeType="CSS" attributeName="opacity" from="0" to="1" begin="3s" dur="1s" repeatCount="Indefinite" fill="freeze" />
</path>
<path d="M17.49,60.65c6.17-1.41,19.04-4.04,22.43-4.63c4.33-0.76,4.19,2.81,3.95,6.45C43.2,72.81,41.05,84.12,38.25,91c-0.9,2.22-2.03,5.75-4,2.86c-1.73-2.54-1.32-2.45-2.22-3.72" style="fill:none;stroke:black;stroke-width:3;opacity:0">
  <animate attributeType="CSS" attributeName="opacity" from="0" to="1" begin="4s" dur="1s" repeatCount="Indefinite" fill="freeze" />
</path>
<path d="M28.81,19.32c0.94,0.43,1.45,2.18,1.45,3.49c0,6.17-0.06,25.46-0.25,35.16" style="fill:none;stroke:black;stroke-width:3;opacity:0">
  <animate attributeType="CSS" attributeName="opacity" from="0" to="1" begin="5s" dur="1s" repeatCount="Indefinite" fill="freeze" />
</path>
<path d="M10.04,74.25c0.37,6.53-0.75,12.27-1.14,13.57" style="fill:none;stroke:black;stroke-width:3;opacity:0">
  <animate attributeType="CSS" attributeName="opacity" from="0" to="1" begin="6s" dur="1s" repeatCount="Indefinite" fill="freeze" />
</path>
<path d="M17,72.5c1.08,2.1,2,4.75,2.25,8.5" style="fill:none;stroke:black;stroke-width:3;opacity:0">
  <animate attributeType="CSS" attributeName="opacity" from="0" to="1" begin="7s" dur="1s" repeatCount="Indefinite" fill="freeze" />
</path>
<path d="M24.3,68.97c0.66,1.06,3.04,4.56,3.33,8.03" style="fill:none;stroke:black;stroke-width:3;opacity:0">
  <animate attributeType="CSS" attributeName="opacity" from="0" to="1" begin="8s" dur="1s" repeatCount="Indefinite" fill="freeze" />
</path>
<path d="M31.54,65.5c1.3,1.79,3.45,3.63,3.91,6" style="fill:none;stroke:black;stroke-width:3;opacity:0">
  <animate attributeType="CSS" attributeName="opacity" from="0" to="1" begin="9s" dur="1s" repeatCount="Indefinite" fill="freeze" />
</path>
<path d="M65.99,11.25c0.06,0.71,0.26,1.88-0.11,2.86C63.25,21,56.5,33,46.15,41.5" style="fill:none;stroke:black;stroke-width:3;opacity:0">
  <animate attributeType="CSS" attributeName="opacity" from="0" to="1" begin="10s" dur="1s" repeatCount="Indefinite" fill="freeze" />
</path>
<path d="M66.9,14.12c3.23,4.66,20.16,19.87,23.73,23.28c1.21,1.16,2.76,1.65,3.97,1.98" style="fill:none;stroke:black;stroke-width:3;opacity:0">
  <animate attributeType="CSS" attributeName="opacity" from="0" to="1" begin="11s" dur="1s" repeatCount="Indefinite" fill="freeze" />
</path>
<path d="M55.48,40.4c0.8-0.02,2.74-0.06,3.79-0.13c7.82-0.52,14.9-1.83,17.26-2.17c0.94-0.14,2.53-0.25,3-0.03" style="fill:none;stroke:black;stroke-width:3;opacity:0">
  <animate attributeType="CSS" attributeName="opacity" from="0" to="1" begin="12s" dur="1s" repeatCount="Indefinite" fill="freeze" />
</path>
<path d="M50.14,52.87c0.38,0.34,0.77,0.62,0.94,1.05C52.41,57.3,54,66.63,54.9,72.71" style="fill:none;stroke:black;stroke-width:3;opacity:0">
  <animate attributeType="CSS" attributeName="opacity" from="0" to="1" begin="13s" dur="1s" repeatCount="Indefinite" fill="freeze" />
</path>
<path d="M52.52,54.53c9.36-1.42,27.03-3.28,31.86-3.76c1.77-0.17,2.83,1.76,2.57,2.79c-1.05,4.26-1.71,5.44-3.48,13.57" style="fill:none;stroke:black;stroke-width:3;opacity:0">
  <animate attributeType="CSS" attributeName="opacity" from="0" to="1" begin="14s" dur="1s" repeatCount="Indefinite" fill="freeze" />
</path>
<path d="M55.28,69.97c5.67-0.54,23.76-2.27,30.96-2.81" style="fill:none;stroke:black;stroke-width:3;opacity:0">
  <animate attributeType="CSS" attributeName="opacity" from="0" to="1" begin="15s" dur="1s" repeatCount="Indefinite" fill="freeze" />
</path>
<path d="M66.72,42.5c0.53,1,1.37,2.33,1.37,4.13c0,27.37-4.84,40.12-23.95,50.12" style="fill:none;stroke:black;stroke-width:3;opacity:0">
  <animate attributeType="CSS" attributeName="opacity" from="0" to="1" begin="16s" dur="1s" repeatCount="Indefinite" fill="freeze" />
</path>
<path d="M68.15,69.87c3.23,4.66,20.66,19.87,24.23,23.28c1.21,1.16,2.76,1.65,3.97,1.98" style="fill:none;stroke:black;stroke-width:3;opacity:0">
  <animate attributeType="CSS" attributeName="opacity" from="0" to="1" begin="17s" dur="1s" repeatCount="Indefinite" fill="freeze" />
</path>
</svg>