<svg width="109px" height="109px" viewBox="0 0 px 109px" xmlns="http://www.w3.org/2000/svg" xmlns:xlink="http://www.w3.org/1999/xlink" xml:space="preserve" version="1.1"  baseProfile="full">
<path d="M37.04,11.99c0.31,0.2,0.64,1.29,0.64,1.63c0,3.46,0.03,17.34-0.15,22.8" style="fill:none;stroke:black;stroke-width:3;opacity:0">
  <animate attributeType="CSS" attributeName="opacity" from="0" to="1" begin="0s" dur="1s" repeatCount="Indefinite" fill="freeze" />
</path>
<path d="M38.58,13.45C46.13,12.77,72,11,75.5,11.05c1.14,0.02,3.05,0.22,3.62,0.32" style="fill:none;stroke:black;stroke-width:3;opacity:0">
  <animate attributeType="CSS" attributeName="opacity" from="0" to="1" begin="1s" dur="1s" repeatCount="Indefinite" fill="freeze" />
</path>
<path d="M38.24,20.65c7.55-0.68,30.34-2,33.58-2.38c1.13-0.13,3.05,0.22,3.62,0.32" style="fill:none;stroke:black;stroke-width:3;opacity:0">
  <animate attributeType="CSS" attributeName="opacity" from="0" to="1" begin="2s" dur="1s" repeatCount="Indefinite" fill="freeze" />
</path>
<path d="M38.41,27.46c7.55-0.68,30.34-2,33.58-2.38c1.13-0.13,3.05,0.22,3.62,0.32" style="fill:none;stroke:black;stroke-width:3;opacity:0">
  <animate attributeType="CSS" attributeName="opacity" from="0" to="1" begin="3s" dur="1s" repeatCount="Indefinite" fill="freeze" />
</path>
<path d="M37.54,35.94c9.56-1.24,33.52-2.34,38.82-2.8c3.45-0.3,4.95,1.35,4.59,3.41c-1,5.86-1.95,8.95-4.2,12.45c-3.41,5.29-4.75,3.51-7.38-0.03" style="fill:none;stroke:black;stroke-width:3;opacity:0">
  <animate attributeType="CSS" attributeName="opacity" from="0" to="1" begin="4s" dur="1s" repeatCount="Indefinite" fill="freeze" />
</path>
<path d="M55.46,13.16c0.31,0.2,0.55,0.47,0.55,0.81c0,3.46,0.03,14.25-0.15,19.71" style="fill:none;stroke:black;stroke-width:3;opacity:0">
  <animate attributeType="CSS" attributeName="opacity" from="0" to="1" begin="5s" dur="1s" repeatCount="Indefinite" fill="freeze" />
</path>
<path d="M31.72,41.94c-0.72,3.81-1.97,7.31-4.38,9.63" style="fill:none;stroke:black;stroke-width:3;opacity:0">
  <animate attributeType="CSS" attributeName="opacity" from="0" to="1" begin="6s" dur="1s" repeatCount="Indefinite" fill="freeze" />
</path>
<path d="M40.98,41.39c1.61,1.24,3.14,4.65,3.55,6.59" style="fill:none;stroke:black;stroke-width:3;opacity:0">
  <animate attributeType="CSS" attributeName="opacity" from="0" to="1" begin="7s" dur="1s" repeatCount="Indefinite" fill="freeze" />
</path>
<path d="M52.26,39.69c1.11,1.11,2.87,4.58,3.15,6.32" style="fill:none;stroke:black;stroke-width:3;opacity:0">
  <animate attributeType="CSS" attributeName="opacity" from="0" to="1" begin="8s" dur="1s" repeatCount="Indefinite" fill="freeze" />
</path>
<path d="M64.64,38.75c1.14,0.76,2.94,3.13,3.22,4.32" style="fill:none;stroke:black;stroke-width:3;opacity:0">
  <animate attributeType="CSS" attributeName="opacity" from="0" to="1" begin="9s" dur="1s" repeatCount="Indefinite" fill="freeze" />
</path>
<path d="M16.81,58.49c0.26,0.2,0.53,1.29,0.53,1.63c0,3.46,0.03,18.34-0.13,23.8" style="fill:none;stroke:black;stroke-width:3;opacity:0">
  <animate attributeType="CSS" attributeName="opacity" from="0" to="1" begin="10s" dur="1s" repeatCount="Indefinite" fill="freeze" />
</path>
<path d="M18.09,59.95c6.28-0.68,22.93-3.03,25.62-3.4c0.94-0.13,2.53-0.28,3.01-0.18" style="fill:none;stroke:black;stroke-width:3;opacity:0">
  <animate attributeType="CSS" attributeName="opacity" from="0" to="1" begin="11s" dur="1s" repeatCount="Indefinite" fill="freeze" />
</path>
<path d="M31.45,59.66c0.26,0.2,0.46,0.47,0.46,0.81c0,3.46,0.03,15.25-0.13,20.71" style="fill:none;stroke:black;stroke-width:3;opacity:0">
  <animate attributeType="CSS" attributeName="opacity" from="0" to="1" begin="12s" dur="1s" repeatCount="Indefinite" fill="freeze" />
</path>
<path d="M17.81,67.65c6.28-0.68,20.81-2.5,23.5-2.88c0.94-0.13,2.53-0.28,3.01-0.18" style="fill:none;stroke:black;stroke-width:3;opacity:0">
  <animate attributeType="CSS" attributeName="opacity" from="0" to="1" begin="13s" dur="1s" repeatCount="Indefinite" fill="freeze" />
</path>
<path d="M17.45,75.46c6.28-0.68,21.31-2.5,24-2.88c0.94-0.13,2.53-0.28,3.01-0.18" style="fill:none;stroke:black;stroke-width:3;opacity:0">
  <animate attributeType="CSS" attributeName="opacity" from="0" to="1" begin="14s" dur="1s" repeatCount="Indefinite" fill="freeze" />
</path>
<path d="M17.22,83.94c7.94-1.24,23.52-3.34,27.92-3.8c2.86-0.3,4.02,1.33,3.82,3.41c-0.46,4.7-1.96,8.95-3.32,12.45c-2.16,5.54-3.56,2.74-6.47-0.03" style="fill:none;stroke:black;stroke-width:3;opacity:0">
  <animate attributeType="CSS" attributeName="opacity" from="0" to="1" begin="15s" dur="1s" repeatCount="Indefinite" fill="freeze" />
</path>
<path d="M12.82,88.69c0.33,3.13-1.24,6.42-2.23,8.38" style="fill:none;stroke:black;stroke-width:3;opacity:0">
  <animate attributeType="CSS" attributeName="opacity" from="0" to="1" begin="16s" dur="1s" repeatCount="Indefinite" fill="freeze" />
</path>
<path d="M19.86,89.39c1.07,1.24,2.09,4.66,2.36,6.59" style="fill:none;stroke:black;stroke-width:3;opacity:0">
  <animate attributeType="CSS" attributeName="opacity" from="0" to="1" begin="17s" dur="1s" repeatCount="Indefinite" fill="freeze" />
</path>
<path d="M28.16,87.19c0.85,1.03,2.2,4.22,2.42,5.82" style="fill:none;stroke:black;stroke-width:3;opacity:0">
  <animate attributeType="CSS" attributeName="opacity" from="0" to="1" begin="18s" dur="1s" repeatCount="Indefinite" fill="freeze" />
</path>
<path d="M37.55,85.75c0.81,0.76,2.1,3.13,2.3,4.32" style="fill:none;stroke:black;stroke-width:3;opacity:0">
  <animate attributeType="CSS" attributeName="opacity" from="0" to="1" begin="19s" dur="1s" repeatCount="Indefinite" fill="freeze" />
</path>
<path d="M60.81,56.99c0.25,0.2,0.53,1.29,0.53,1.63c0,3.46,0.03,19.84-0.13,25.3" style="fill:none;stroke:black;stroke-width:3;opacity:0">
  <animate attributeType="CSS" attributeName="opacity" from="0" to="1" begin="20s" dur="1s" repeatCount="Indefinite" fill="freeze" />
</path>
<path d="M62.09,58.45c6.28-0.68,23.42-3.03,26.12-3.4c0.94-0.13,2.53-0.28,3.01-0.18" style="fill:none;stroke:black;stroke-width:3;opacity:0">
  <animate attributeType="CSS" attributeName="opacity" from="0" to="1" begin="21s" dur="1s" repeatCount="Indefinite" fill="freeze" />
</path>
<path d="M74.45,58.66c0.25,0.2,0.46,0.47,0.46,0.81c0,3.46,0.03,16.25-0.13,21.71" style="fill:none;stroke:black;stroke-width:3;opacity:0">
  <animate attributeType="CSS" attributeName="opacity" from="0" to="1" begin="22s" dur="1s" repeatCount="Indefinite" fill="freeze" />
</path>
<path d="M61.8,67.65c6.28-0.68,21.31-2.5,24-2.88c0.94-0.13,2.53-0.28,3.01-0.18" style="fill:none;stroke:black;stroke-width:3;opacity:0">
  <animate attributeType="CSS" attributeName="opacity" from="0" to="1" begin="23s" dur="1s" repeatCount="Indefinite" fill="freeze" />
</path>
<path d="M61.95,74.96c6.28-0.68,21.31-2,24-2.38c0.94-0.13,2.53-0.28,3.01-0.18" style="fill:none;stroke:black;stroke-width:3;opacity:0">
  <animate attributeType="CSS" attributeName="opacity" from="0" to="1" begin="24s" dur="1s" repeatCount="Indefinite" fill="freeze" />
</path>
<path d="M61.22,83.94c7.94-1.24,26.02-3.34,30.42-3.8c2.86-0.3,4.11,1.35,3.82,3.41c-0.83,5.86-2.12,10.29-4.32,13.95c-3.08,5.09-4.89,1.26-5.96-1.03" style="fill:none;stroke:black;stroke-width:3;opacity:0">
  <animate attributeType="CSS" attributeName="opacity" from="0" to="1" begin="25s" dur="1s" repeatCount="Indefinite" fill="freeze" />
</path>
<path d="M56.22,89.69c-0.22,2.06-1.75,6.53-2.79,8.38" style="fill:none;stroke:black;stroke-width:3;opacity:0">
  <animate attributeType="CSS" attributeName="opacity" from="0" to="1" begin="26s" dur="1s" repeatCount="Indefinite" fill="freeze" />
</path>
<path d="M63.86,88.64c1.07,1.19,2.09,4.48,2.36,6.34" style="fill:none;stroke:black;stroke-width:3;opacity:0">
  <animate attributeType="CSS" attributeName="opacity" from="0" to="1" begin="27s" dur="1s" repeatCount="Indefinite" fill="freeze" />
</path>
<path d="M72.88,87.19c0.78,1.03,2.02,4.22,2.22,5.82" style="fill:none;stroke:black;stroke-width:3;opacity:0">
  <animate attributeType="CSS" attributeName="opacity" from="0" to="1" begin="28s" dur="1s" repeatCount="Indefinite" fill="freeze" />
</path>
<path d="M82.02,86c0.83,0.72,2.14,2.95,2.35,4.07" style="fill:none;stroke:black;stroke-width:3;opacity:0">
  <animate attributeType="CSS" attributeName="opacity" from="0" to="1" begin="29s" dur="1s" repeatCount="Indefinite" fill="freeze" />
</path>
</svg>