<svg width="109px" height="109px" viewBox="0 0 px 109px" xmlns="http://www.w3.org/2000/svg" xmlns:xlink="http://www.w3.org/1999/xlink" xml:space="preserve" version="1.1"  baseProfile="full">
<path d="M15.62,14.2c0.25,0.48,0.96,2.54,0.99,3.17c0.14,2.88,2.09,18.34,2.09,18.66" style="fill:none;stroke:black;stroke-width:3;opacity:0">
  <animate attributeType="CSS" attributeName="opacity" from="0" to="1" begin="0s" dur="1s" repeatCount="0" fill="freeze" />
</path>
<path d="M16.81,16.13C18.22,16.1,32.5,14,39.09,12.56c1.41-0.31,2.91,1.19,2.68,2.39c-0.66,3.41-2.25,11.52-2.91,19.72" style="fill:none;stroke:black;stroke-width:3;opacity:0">
  <animate attributeType="CSS" attributeName="opacity" from="0" to="1" begin="1s" dur="1s" repeatCount="0" fill="freeze" />
</path>
<path d="M28.07,24.12c0.25,0.48,0.46,1.54,0.49,2.17c0.15,2.81,0.32,8.98,0.31,9.29" style="fill:none;stroke:black;stroke-width:3;opacity:0">
  <animate attributeType="CSS" attributeName="opacity" from="0" to="1" begin="2s" dur="1s" repeatCount="0" fill="freeze" />
</path>
<path d="M28.98,24.91c1.41-0.03,9.45-1.47,10.73-1.64" style="fill:none;stroke:black;stroke-width:3;opacity:0">
  <animate attributeType="CSS" attributeName="opacity" from="0" to="1" begin="3s" dur="1s" repeatCount="0" fill="freeze" />
</path>
<path d="M12.04,36.62c-0.02,3.61-1.85,9-2.31,11.38" style="fill:none;stroke:black;stroke-width:3;opacity:0">
  <animate attributeType="CSS" attributeName="opacity" from="0" to="1" begin="4s" dur="1s" repeatCount="0" fill="freeze" />
</path>
<path d="M12.19,38.26c5.8-1.18,30.14-4.09,33.94-4.29c5.94-0.32,0.23,5.3-1.25,7.24" style="fill:none;stroke:black;stroke-width:3;opacity:0">
  <animate attributeType="CSS" attributeName="opacity" from="0" to="1" begin="5s" dur="1s" repeatCount="0" fill="freeze" />
</path>
<path d="M18.81,44.12c0.37,0.7,0.62,1.4,0.74,2.1c0.12,0.7,0.18,50.51,0.12,52.08" style="fill:none;stroke:black;stroke-width:3;opacity:0">
  <animate attributeType="CSS" attributeName="opacity" from="0" to="1" begin="6s" dur="1s" repeatCount="0" fill="freeze" />
</path>
<path d="M20.29,45.82c1.49-0.17,15.14-2.65,16.25-2.85c1.98-0.35,2.73,2.27,2.48,3.32c-0.24,1.01-0.37,29.87-0.37,44.04c0,9.09-4.98,3.15-6.22,1.57" style="fill:none;stroke:black;stroke-width:3;opacity:0">
  <animate attributeType="CSS" attributeName="opacity" from="0" to="1" begin="7s" dur="1s" repeatCount="0" fill="freeze" />
</path>
<path d="M20.29,59.31c6.46-0.81,13.73-1.64,18.2-2.17" style="fill:none;stroke:black;stroke-width:3;opacity:0">
  <animate attributeType="CSS" attributeName="opacity" from="0" to="1" begin="8s" dur="1s" repeatCount="0" fill="freeze" />
</path>
<path d="M19.99,72.67c3.97-0.53,13.67-1.62,18.26-1.97" style="fill:none;stroke:black;stroke-width:3;opacity:0">
  <animate attributeType="CSS" attributeName="opacity" from="0" to="1" begin="9s" dur="1s" repeatCount="0" fill="freeze" />
</path>
<path d="M55.17,16.12c0.8,0.43,3.56,0.46,4.36,0.38c5.54-0.5,20.84-2.16,30.29-3c1.33-0.12,4.13,0.37,4.79,0.58" style="fill:none;stroke:black;stroke-width:3;opacity:0">
  <animate attributeType="CSS" attributeName="opacity" from="0" to="1" begin="10s" dur="1s" repeatCount="0" fill="freeze" />
</path>
<path d="M49.38,46.28c1.29,0.46,3.67,0.59,4.96,0.46c12.16-1.24,25.65-2.99,39.76-3.41c2.16-0.06,3.45,0.22,4.53,0.45" style="fill:none;stroke:black;stroke-width:3;opacity:0">
  <animate attributeType="CSS" attributeName="opacity" from="0" to="1" begin="11s" dur="1s" repeatCount="0" fill="freeze" />
</path>
<path d="M72.45,16.63c0.47,0.45,2,1.85,2,4.23c0,4.62-0.06,72.71-0.16,78.27" style="fill:none;stroke:black;stroke-width:3;opacity:0">
  <animate attributeType="CSS" attributeName="opacity" from="0" to="1" begin="12s" dur="1s" repeatCount="0" fill="freeze" />
</path>
</svg>