<svg width="109px" height="109px" viewBox="0 0 px 109px" xmlns="http://www.w3.org/2000/svg" xmlns:xlink="http://www.w3.org/1999/xlink" xml:space="preserve" version="1.1"  baseProfile="full">
<path d="M70.2,12.39c0.11,0.77,0.23,2-0.21,3.11c-2.62,6.55-17.63,20.92-38.18,29.72" style="fill:none;stroke:black;stroke-width:3;opacity:0">
  <animate attributeType="CSS" attributeName="opacity" from="0" to="1" begin="0s" dur="1s" repeatCount="0" fill="freeze" />
</path>
<path d="M34.27,18.33c13.25,5.01,34.23,20.59,37.54,28.38" style="fill:none;stroke:black;stroke-width:3;opacity:0">
  <animate attributeType="CSS" attributeName="opacity" from="0" to="1" begin="1s" dur="1s" repeatCount="0" fill="freeze" />
</path>
<path d="M46.77,11.08c3.54,1.74,9.16,7.17,10.04,9.88" style="fill:none;stroke:black;stroke-width:3;opacity:0">
  <animate attributeType="CSS" attributeName="opacity" from="0" to="1" begin="2s" dur="1s" repeatCount="0" fill="freeze" />
</path>
<path d="M29.52,26.33c3.54,1.74,9.16,7.17,10.04,9.88" style="fill:none;stroke:black;stroke-width:3;opacity:0">
  <animate attributeType="CSS" attributeName="opacity" from="0" to="1" begin="3s" dur="1s" repeatCount="0" fill="freeze" />
</path>
<path d="M68.27,27.58c3.54,1.74,9.16,7.17,10.04,9.88" style="fill:none;stroke:black;stroke-width:3;opacity:0">
  <animate attributeType="CSS" attributeName="opacity" from="0" to="1" begin="4s" dur="1s" repeatCount="0" fill="freeze" />
</path>
<path d="M50.77,41.33c2.93,1.21,7.56,4.99,8.29,6.88" style="fill:none;stroke:black;stroke-width:3;opacity:0">
  <animate attributeType="CSS" attributeName="opacity" from="0" to="1" begin="5s" dur="1s" repeatCount="0" fill="freeze" />
</path>
<path d="M21.96,17.55c0.65,0.39,1.74,1.83,1.74,3.67c0,0.78,1.35,28.3,1.28,30.13c-0.06,1.83,0.58,3.12,2.72,2.93c11.87-1.09,46.92-2.8,53.72-3.19" style="fill:none;stroke:black;stroke-width:3;opacity:0">
  <animate attributeType="CSS" attributeName="opacity" from="0" to="1" begin="6s" dur="1s" repeatCount="0" fill="freeze" />
</path>
<path d="M82.75,11.38c1.24,0.53,2.17,1.61,2.17,3.67c0,4.13-1.42,20.7-2.92,39.2" style="fill:none;stroke:black;stroke-width:3;opacity:0">
  <animate attributeType="CSS" attributeName="opacity" from="0" to="1" begin="7s" dur="1s" repeatCount="0" fill="freeze" />
</path>
<path d="M74.89,59.56c0.35,0.35,0.57,1.36-0.33,1.9c-5.85,3.46-25.91,13-44.81,16.54" style="fill:none;stroke:black;stroke-width:3;opacity:0">
  <animate attributeType="CSS" attributeName="opacity" from="0" to="1" begin="8s" dur="1s" repeatCount="0" fill="freeze" />
</path>
<path d="M27,61.25c1.24,1.09,1.32,1.81,1.73,3.26c0.41,1.45-0.09,17.37-0.09,21.91c0,11.66,16.56,9.84,30.66,9.84c10.93,0,20.05-0.62,24.17-3.88s3.62-7.05,4.03-10.31" style="fill:none;stroke:black;stroke-width:3;opacity:0">
  <animate attributeType="CSS" attributeName="opacity" from="0" to="1" begin="9s" dur="1s" repeatCount="0" fill="freeze" />
</path>
</svg>