<svg width="109px" height="109px" viewBox="0 0 px 109px" xmlns="http://www.w3.org/2000/svg" xmlns:xlink="http://www.w3.org/1999/xlink" xml:space="preserve" version="1.1"  baseProfile="full">
<path d="M25.99,14.25c0.04,0.56,0.26,1.51-0.08,2.26c-2.66,5.74-7.66,15.99-15.67,23.61" style="fill:none;stroke:black;stroke-width:3;opacity:0">
  <animate attributeType="CSS" attributeName="opacity" from="0" to="1" begin="0s" dur="1s" repeatCount="Indefinite" fill="freeze" />
</path>
<path d="M23.89,22.88c1.93,0,14.32-2.94,16.35-3.23c1.74-0.25,2.63,2.17,1.91,3.4c-3.05,5.19-6.48,10.16-11.45,18.4" style="fill:none;stroke:black;stroke-width:3;opacity:0">
  <animate attributeType="CSS" attributeName="opacity" from="0" to="1" begin="1s" dur="1s" repeatCount="Indefinite" fill="freeze" />
</path>
<path d="M13.7,44.48c0.31,0.49,0.31,0.83,0.48,1.44c1.39,5.05,2.87,18.34,3.73,27.77" style="fill:none;stroke:black;stroke-width:3;opacity:0">
  <animate attributeType="CSS" attributeName="opacity" from="0" to="1" begin="2s" dur="1s" repeatCount="Indefinite" fill="freeze" />
</path>
<path d="M14.72,46.9c7.49-1.22,21.31-3.81,26.91-4.83c2.05-0.38,3.11,0.95,3,2.28c-0.39,4.88-1.19,17.68-2.84,26.81" style="fill:none;stroke:black;stroke-width:3;opacity:0">
  <animate attributeType="CSS" attributeName="opacity" from="0" to="1" begin="3s" dur="1s" repeatCount="Indefinite" fill="freeze" />
</path>
<path d="M28.25,45.55c0.85,0.61,1.5,2.57,1.52,4.13c0.11,6.9,0.02,16.66,0.02,20.08" style="fill:none;stroke:black;stroke-width:3;opacity:0">
  <animate attributeType="CSS" attributeName="opacity" from="0" to="1" begin="4s" dur="1s" repeatCount="Indefinite" fill="freeze" />
</path>
<path d="M17.59,58.88c2.44-0.47,21.91-3.63,25.9-4.16" style="fill:none;stroke:black;stroke-width:3;opacity:0">
  <animate attributeType="CSS" attributeName="opacity" from="0" to="1" begin="5s" dur="1s" repeatCount="Indefinite" fill="freeze" />
</path>
<path d="M18.04,71.85c5.39-0.52,16.65-2.69,24.1-3.53" style="fill:none;stroke:black;stroke-width:3;opacity:0">
  <animate attributeType="CSS" attributeName="opacity" from="0" to="1" begin="6s" dur="1s" repeatCount="Indefinite" fill="freeze" />
</path>
<path d="M15.36,82.32c0,5.32-1.83,12.66-2.17,14.18" style="fill:none;stroke:black;stroke-width:3;opacity:0">
  <animate attributeType="CSS" attributeName="opacity" from="0" to="1" begin="7s" dur="1s" repeatCount="Indefinite" fill="freeze" />
</path>
<path d="M22.4,81.83c1.4,2.55,2.73,9.57,3.08,13.54" style="fill:none;stroke:black;stroke-width:3;opacity:0">
  <animate attributeType="CSS" attributeName="opacity" from="0" to="1" begin="8s" dur="1s" repeatCount="Indefinite" fill="freeze" />
</path>
<path d="M30.61,79.44c2.15,2.07,5.56,8.5,6.11,11.71" style="fill:none;stroke:black;stroke-width:3;opacity:0">
  <animate attributeType="CSS" attributeName="opacity" from="0" to="1" begin="9s" dur="1s" repeatCount="Indefinite" fill="freeze" />
</path>
<path d="M38.8,76.62c2.19,2.12,5.65,8.73,6.2,12.03" style="fill:none;stroke:black;stroke-width:3;opacity:0">
  <animate attributeType="CSS" attributeName="opacity" from="0" to="1" begin="10s" dur="1s" repeatCount="Indefinite" fill="freeze" />
</path>
<path d="M66.85,12.5c0.05,0.58,0.1,1.5-0.09,2.34c-1.12,4.92-8.61,16.44-16.74,23.41" style="fill:none;stroke:black;stroke-width:3;opacity:0">
  <animate attributeType="CSS" attributeName="opacity" from="0" to="1" begin="11s" dur="1s" repeatCount="Indefinite" fill="freeze" />
</path>
<path d="M63.67,22.38c1.93,0,16.58-2.63,20.68-4.15c1.65-0.61,2.78,1.67,1.91,2.76c-4.01,5-7.96,11-11.18,17.75" style="fill:none;stroke:black;stroke-width:3;opacity:0">
  <animate attributeType="CSS" attributeName="opacity" from="0" to="1" begin="12s" dur="1s" repeatCount="Indefinite" fill="freeze" />
</path>
<path d="M53.58,42.57c0.91,0.41,2.57,0.5,3.47,0.41c9.45-0.98,25.45-4.23,36-5.69c1.51-0.21,2.42,0.2,3.17,0.4" style="fill:none;stroke:black;stroke-width:3;opacity:0">
  <animate attributeType="CSS" attributeName="opacity" from="0" to="1" begin="13s" dur="1s" repeatCount="Indefinite" fill="freeze" />
</path>
<path d="M56.3,43.67c0.03,1.21-0.05,2.61-0.05,4.35c0,11.48,0,34.73-9.19,46.22" style="fill:none;stroke:black;stroke-width:3;opacity:0">
  <animate attributeType="CSS" attributeName="opacity" from="0" to="1" begin="14s" dur="1s" repeatCount="Indefinite" fill="freeze" />
</path>
<path d="M64.48,54c0.63,0.12,1.89,0.57,3.15,0.33c4.37-0.83,16.41-2.55,17.96-2.92c2.54-0.6,4.66,1.12,4.09,3.48C88.5,59.75,88,65.5,85.21,71.6c-3.3,7.23-5.96,2.65-7.08,0.34" style="fill:none;stroke:black;stroke-width:3;opacity:0">
  <animate attributeType="CSS" attributeName="opacity" from="0" to="1" begin="15s" dur="1s" repeatCount="Indefinite" fill="freeze" />
</path>
<path d="M65.95,54.3c0.62,1.36,0.61,2.97,0.64,5.07c0.17,9.38,0.18,18.5,0.18,24.88c0,10.5,0.97,11.71,17.18,11.71c12.3,0,13.69-2.46,13.69-11.46" style="fill:none;stroke:black;stroke-width:3;opacity:0">
  <animate attributeType="CSS" attributeName="opacity" from="0" to="1" begin="16s" dur="1s" repeatCount="Indefinite" fill="freeze" />
</path>
</svg>