<svg width="109px" height="109px" viewBox="0 0 px 109px" xmlns="http://www.w3.org/2000/svg" xmlns:xlink="http://www.w3.org/1999/xlink" xml:space="preserve" version="1.1"  baseProfile="full">
<path d="M26.49,11.75c0.04,0.57,0.19,1.51-0.08,2.31C24.75,19,20,27.25,11.99,36.12" style="fill:none;stroke:black;stroke-width:3;opacity:0">
  <animate attributeType="CSS" attributeName="opacity" from="0" to="1" begin="0s" dur="1s" repeatCount="0" fill="freeze" />
</path>
<path d="M23.89,20.38c1.93,0,15.32-2.44,17.35-2.73c1.74-0.25,2.63,1.17,1.91,2.4c-3.05,5.19-6.98,11.16-11.95,19.4" style="fill:none;stroke:black;stroke-width:3;opacity:0">
  <animate attributeType="CSS" attributeName="opacity" from="0" to="1" begin="1s" dur="1s" repeatCount="0" fill="freeze" />
</path>
<path d="M15.22,40.89c0.23,0.46,0.73,1.77,0.86,2.35c1.02,4.72,2.61,17.64,3.25,26.45" style="fill:none;stroke:black;stroke-width:3;opacity:0">
  <animate attributeType="CSS" attributeName="opacity" from="0" to="1" begin="2s" dur="1s" repeatCount="0" fill="freeze" />
</path>
<path d="M16.28,43.02c7.92-1.19,22.01-2.21,27.92-3.21c2.17-0.37,3.29,0.93,3.17,2.23c-0.41,4.76-0.79,16.26-2.53,25.17" style="fill:none;stroke:black;stroke-width:3;opacity:0">
  <animate attributeType="CSS" attributeName="opacity" from="0" to="1" begin="3s" dur="1s" repeatCount="0" fill="freeze" />
</path>
<path d="M30.56,42.73c0.9,0.59,1.58,2.51,1.61,4.04c0.12,6.73,0.03,16.27,0.03,19.6" style="fill:none;stroke:black;stroke-width:3;opacity:0">
  <animate attributeType="CSS" attributeName="opacity" from="0" to="1" begin="4s" dur="1s" repeatCount="0" fill="freeze" />
</path>
<path d="M18.76,54.73c2.58-0.46,25.26-2.87,27.39-3.06" style="fill:none;stroke:black;stroke-width:3;opacity:0">
  <animate attributeType="CSS" attributeName="opacity" from="0" to="1" begin="5s" dur="1s" repeatCount="0" fill="freeze" />
</path>
<path d="M19.73,67.9c5.71-0.51,17.61-1.62,25.49-2.45" style="fill:none;stroke:black;stroke-width:3;opacity:0">
  <animate attributeType="CSS" attributeName="opacity" from="0" to="1" begin="6s" dur="1s" repeatCount="0" fill="freeze" />
</path>
<path d="M15.89,80.32c0,5.14-2.36,12.71-2.98,14.18" style="fill:none;stroke:black;stroke-width:3;opacity:0">
  <animate attributeType="CSS" attributeName="opacity" from="0" to="1" begin="7s" dur="1s" repeatCount="0" fill="freeze" />
</path>
<path d="M23.26,78.33c1.42,2.74,2.76,10.28,3.11,14.54" style="fill:none;stroke:black;stroke-width:3;opacity:0">
  <animate attributeType="CSS" attributeName="opacity" from="0" to="1" begin="8s" dur="1s" repeatCount="0" fill="freeze" />
</path>
<path d="M32.84,76.94c1.9,2.33,4.92,9.59,5.4,13.21" style="fill:none;stroke:black;stroke-width:3;opacity:0">
  <animate attributeType="CSS" attributeName="opacity" from="0" to="1" begin="9s" dur="1s" repeatCount="0" fill="freeze" />
</path>
<path d="M43.55,75.87c2.28,2.25,5.88,9.27,6.45,12.78" style="fill:none;stroke:black;stroke-width:3;opacity:0">
  <animate attributeType="CSS" attributeName="opacity" from="0" to="1" begin="10s" dur="1s" repeatCount="0" fill="freeze" />
</path>
<path d="M62.2,12.6c0.13,1.12,0.01,1.93-0.31,2.84c-2.14,6.1-3.89,10.3-8.75,17.9c-0.74,1.15-0.35,0.82,0,1.18c3.86,3.97,7.52,8.46,10.58,16.58" style="fill:none;stroke:black;stroke-width:3;opacity:0">
  <animate attributeType="CSS" attributeName="opacity" from="0" to="1" begin="11s" dur="1s" repeatCount="0" fill="freeze" />
</path>
<path d="M76.97,12.97c0.42,1.2-0.03,2.86-0.38,3.66c-1.85,4.17-4.62,8.88-9.84,15.04c-0.5,0.6-0.24,0.82,0.23,1.17c5.52,4.06,8.54,9.91,11.07,16.97" style="fill:none;stroke:black;stroke-width:3;opacity:0">
  <animate attributeType="CSS" attributeName="opacity" from="0" to="1" begin="12s" dur="1s" repeatCount="0" fill="freeze" />
</path>
<path d="M92.28,13.03c0.35,0.84,0.31,1.76,0.16,2.6c-0.87,4.6-3.62,8.42-9.33,15.48c-0.49,0.61-0.16,0.73,0.23,1.17C89,38.75,91.62,43.73,93.93,50" style="fill:none;stroke:black;stroke-width:3;opacity:0">
  <animate attributeType="CSS" attributeName="opacity" from="0" to="1" begin="13s" dur="1s" repeatCount="0" fill="freeze" />
</path>
<path d="M55.38,61.61c0.3,0.57,0.31,0.95,0.47,1.65c1.34,5.76,2.97,21.82,3.75,32.42" style="fill:none;stroke:black;stroke-width:3;opacity:0">
  <animate attributeType="CSS" attributeName="opacity" from="0" to="1" begin="14s" dur="1s" repeatCount="0" fill="freeze" />
</path>
<path d="M56.15,64.04c8.64-1.2,26.29-3.03,32.98-3.56c2.46-0.19,3.7,1.37,3.57,2.83c-0.49,5.32-1.21,20.76-3.28,30.02" style="fill:none;stroke:black;stroke-width:3;opacity:0">
  <animate attributeType="CSS" attributeName="opacity" from="0" to="1" begin="15s" dur="1s" repeatCount="0" fill="freeze" />
</path>
<path d="M72.52,64.17c0.23,0.73,0.69,1.14,0.68,2.1c-0.03,6.28,0.16,22.68,0.16,24.96" style="fill:none;stroke:black;stroke-width:3;opacity:0">
  <animate attributeType="CSS" attributeName="opacity" from="0" to="1" begin="16s" dur="1s" repeatCount="0" fill="freeze" />
</path>
<path d="M58.03,77.41c2.92-0.26,29.59-2.82,32-2.82" style="fill:none;stroke:black;stroke-width:3;opacity:0">
  <animate attributeType="CSS" attributeName="opacity" from="0" to="1" begin="17s" dur="1s" repeatCount="0" fill="freeze" />
</path>
<path d="M59.4,92.3c6.44,0,21.65-1.28,30.55-1.42" style="fill:none;stroke:black;stroke-width:3;opacity:0">
  <animate attributeType="CSS" attributeName="opacity" from="0" to="1" begin="18s" dur="1s" repeatCount="0" fill="freeze" />
</path>
</svg>