<svg width="109px" height="109px" viewBox="0 0 px 109px" xmlns="http://www.w3.org/2000/svg" xmlns:xlink="http://www.w3.org/1999/xlink" xml:space="preserve" version="1.1"  baseProfile="full">
<path d="M22.75,14.5c0.04,0.57,0.08,1.48-0.08,2.31c-0.9,4.86-6.09,15.53-13.19,22.06" style="fill:none;stroke:black;stroke-width:3;opacity:0">
  <animate attributeType="CSS" attributeName="opacity" from="0" to="1" begin="0s" dur="1s" repeatCount="0" fill="freeze" />
</path>
<path d="M20.64,23.52c1.73,0,9.95-2.2,11.77-2.46c1.56-0.22,1.92,1.95,1.27,3.07c-2.75,4.67-4.69,9.15-9.16,16.57" style="fill:none;stroke:black;stroke-width:3;opacity:0">
  <animate attributeType="CSS" attributeName="opacity" from="0" to="1" begin="1s" dur="1s" repeatCount="0" fill="freeze" />
</path>
<path d="M11.97,42.05c0.53,0.7,1.23,1.86,1.35,2.5c1.01,5.26,1.58,18.08,2.2,27.89" style="fill:none;stroke:black;stroke-width:3;opacity:0">
  <animate attributeType="CSS" attributeName="opacity" from="0" to="1" begin="2s" dur="1s" repeatCount="0" fill="freeze" />
</path>
<path d="M13.51,43.87c7.8-1.32,14.67-2.19,20.49-3.29c2.14-0.41,3.23,1.03,3.12,2.48c-0.4,5.3-1.26,16.71-2.98,26.64" style="fill:none;stroke:black;stroke-width:3;opacity:0">
  <animate attributeType="CSS" attributeName="opacity" from="0" to="1" begin="3s" dur="1s" repeatCount="0" fill="freeze" />
</path>
<path d="M23.58,42.31c0.88,0.66,1.56,2.8,1.59,4.49c0.12,7.49,0.03,18.11,0.03,21.82" style="fill:none;stroke:black;stroke-width:3;opacity:0">
  <animate attributeType="CSS" attributeName="opacity" from="0" to="1" begin="4s" dur="1s" repeatCount="0" fill="freeze" />
</path>
<path d="M15.46,56.35c2.54-0.51,18.37-2.81,20.47-3.02" style="fill:none;stroke:black;stroke-width:3;opacity:0">
  <animate attributeType="CSS" attributeName="opacity" from="0" to="1" begin="5s" dur="1s" repeatCount="0" fill="freeze" />
</path>
<path d="M15.93,70.9c5.62-0.56,10.34-1.42,18.09-2.34" style="fill:none;stroke:black;stroke-width:3;opacity:0">
  <animate attributeType="CSS" attributeName="opacity" from="0" to="1" begin="6s" dur="1s" repeatCount="0" fill="freeze" />
</path>
<path d="M12.89,82.07c0,4.77-2.37,11.82-2.99,13.18" style="fill:none;stroke:black;stroke-width:3;opacity:0">
  <animate attributeType="CSS" attributeName="opacity" from="0" to="1" begin="7s" dur="1s" repeatCount="0" fill="freeze" />
</path>
<path d="M18.04,80.83c1.51,1.94,2.94,7.27,3.31,10.29" style="fill:none;stroke:black;stroke-width:3;opacity:0">
  <animate attributeType="CSS" attributeName="opacity" from="0" to="1" begin="8s" dur="1s" repeatCount="0" fill="freeze" />
</path>
<path d="M25.87,80.19c1.55,1.71,4,7.05,4.38,9.71" style="fill:none;stroke:black;stroke-width:3;opacity:0">
  <animate attributeType="CSS" attributeName="opacity" from="0" to="1" begin="9s" dur="1s" repeatCount="0" fill="freeze" />
</path>
<path d="M33.53,79.62c1.75,0.93,4.53,3.83,4.96,5.28" style="fill:none;stroke:black;stroke-width:3;opacity:0">
  <animate attributeType="CSS" attributeName="opacity" from="0" to="1" begin="10s" dur="1s" repeatCount="0" fill="freeze" />
</path>
<path d="M52.48,13c0.66,0.54,1.73,2.64,1.73,3.72c0,3.98-0.09,9.03-0.09,14.35" style="fill:none;stroke:black;stroke-width:3;opacity:0">
  <animate attributeType="CSS" attributeName="opacity" from="0" to="1" begin="11s" dur="1s" repeatCount="0" fill="freeze" />
</path>
<path d="M40.68,32.95c0.56,0.26,1.75,0.43,2.27,0.37c5.13-0.64,12.52-2.02,19.49-3.44c0.87-0.18,1.67-0.36,2.33,0.08" style="fill:none;stroke:black;stroke-width:3;opacity:0">
  <animate attributeType="CSS" attributeName="opacity" from="0" to="1" begin="12s" dur="1s" repeatCount="0" fill="freeze" />
</path>
<path d="M53.65,43.98c1.45,0.77,7.53,1.22,9.73,2c0.77,0.27,1.35,2.04,1.21,3.51C63.5,61,59.75,78,56.74,87.3c-3.68,11.35-7.05,3.81-7.77,3.14" style="fill:none;stroke:black;stroke-width:3;opacity:0">
  <animate attributeType="CSS" attributeName="opacity" from="0" to="1" begin="13s" dur="1s" repeatCount="0" fill="freeze" />
</path>
<path d="M52.92,34.76c0.58,0.99,0.5,3.4,0.43,5.21c-0.6,14.03-3.6,36.78-12.83,49.34" style="fill:none;stroke:black;stroke-width:3;opacity:0">
  <animate attributeType="CSS" attributeName="opacity" from="0" to="1" begin="14s" dur="1s" repeatCount="0" fill="freeze" />
</path>
<path d="M79.81,13.25c0.03,0.88,0.04,2.29-0.05,3.52C79,27,76.5,41.25,70.43,50.5" style="fill:none;stroke:black;stroke-width:3;opacity:0">
  <animate attributeType="CSS" attributeName="opacity" from="0" to="1" begin="15s" dur="1s" repeatCount="0" fill="freeze" />
</path>
<path d="M79.77,19.25C81.99,25.29,90.25,44,94.02,49.43c0.98,1.41,1.9,2.14,2.73,2.57" style="fill:none;stroke:black;stroke-width:3;opacity:0">
  <animate attributeType="CSS" attributeName="opacity" from="0" to="1" begin="16s" dur="1s" repeatCount="0" fill="freeze" />
</path>
<path d="M75.87,55.08c4.04,1.83,10.43,7.53,11.44,10.38" style="fill:none;stroke:black;stroke-width:3;opacity:0">
  <animate attributeType="CSS" attributeName="opacity" from="0" to="1" begin="17s" dur="1s" repeatCount="0" fill="freeze" />
</path>
<path d="M71.11,81.58c6.81,2.45,17.6,10.07,19.31,13.88" style="fill:none;stroke:black;stroke-width:3;opacity:0">
  <animate attributeType="CSS" attributeName="opacity" from="0" to="1" begin="18s" dur="1s" repeatCount="0" fill="freeze" />
</path>
</svg>