<svg width="109px" height="109px" viewBox="0 0 px 109px" xmlns="http://www.w3.org/2000/svg" xmlns:xlink="http://www.w3.org/1999/xlink" xml:space="preserve" version="1.1"  baseProfile="full">
<path d="M24.5,11.75c0.04,0.57,0.15,1.5-0.08,2.3c-1.58,5.6-7.28,16.05-14.43,23.57" style="fill:none;stroke:black;stroke-width:3;opacity:0">
  <animate attributeType="CSS" attributeName="opacity" from="0" to="1" begin="0s" dur="1s" repeatCount="Indefinite" fill="freeze" />
</path>
<path d="M23.64,19.38c1.46,0,9.98-1.44,11.52-1.73c1.32-0.25,2.12,1.67,1.57,2.9c-2.32,5.19-6.05,10.16-9.82,18.4" style="fill:none;stroke:black;stroke-width:3;opacity:0">
  <animate attributeType="CSS" attributeName="opacity" from="0" to="1" begin="1s" dur="1s" repeatCount="Indefinite" fill="freeze" />
</path>
<path d="M11.22,41.27c0.23,0.5,0.24,0.85,0.36,1.49c1.05,5.22,2.16,18.94,2.81,28.68" style="fill:none;stroke:black;stroke-width:3;opacity:0">
  <animate attributeType="CSS" attributeName="opacity" from="0" to="1" begin="2s" dur="1s" repeatCount="Indefinite" fill="freeze" />
</path>
<path d="M12.31,43.08c8.11-1.31,19.02-3.15,25.08-4.25c2.22-0.41,3.36,1.03,3.25,2.46c-0.42,5.26-1.38,18.21-2.62,28.42" style="fill:none;stroke:black;stroke-width:3;opacity:0">
  <animate attributeType="CSS" attributeName="opacity" from="0" to="1" begin="3s" dur="1s" repeatCount="Indefinite" fill="freeze" />
</path>
<path d="M24.41,41.54c0.92,0.65,1.62,2.78,1.65,4.46c0.12,7.44,0.03,17.97,0.03,21.66" style="fill:none;stroke:black;stroke-width:3;opacity:0">
  <animate attributeType="CSS" attributeName="opacity" from="0" to="1" begin="4s" dur="1s" repeatCount="Indefinite" fill="freeze" />
</path>
<path d="M14.33,55.46c2.64-0.51,22.35-2.78,24.53-2.99" style="fill:none;stroke:black;stroke-width:3;opacity:0">
  <animate attributeType="CSS" attributeName="opacity" from="0" to="1" begin="5s" dur="1s" repeatCount="Indefinite" fill="freeze" />
</path>
<path d="M14.81,69.42c5.84-0.56,14.52-1.9,22.58-2.81" style="fill:none;stroke:black;stroke-width:3;opacity:0">
  <animate attributeType="CSS" attributeName="opacity" from="0" to="1" begin="6s" dur="1s" repeatCount="Indefinite" fill="freeze" />
</path>
<path d="M13.36,82.82c0,5.32-1.83,13.16-2.17,14.68" style="fill:none;stroke:black;stroke-width:3;opacity:0">
  <animate attributeType="CSS" attributeName="opacity" from="0" to="1" begin="7s" dur="1s" repeatCount="Indefinite" fill="freeze" />
</path>
<path d="M19.89,81.33c1.41,2.27,2.75,8.51,3.11,12.04" style="fill:none;stroke:black;stroke-width:3;opacity:0">
  <animate attributeType="CSS" attributeName="opacity" from="0" to="1" begin="8s" dur="1s" repeatCount="Indefinite" fill="freeze" />
</path>
<path d="M27.34,78.44c1.9,2.07,4.92,8.5,5.4,11.71" style="fill:none;stroke:black;stroke-width:3;opacity:0">
  <animate attributeType="CSS" attributeName="opacity" from="0" to="1" begin="9s" dur="1s" repeatCount="Indefinite" fill="freeze" />
</path>
<path d="M35.3,74.87c1.83,1.73,4.74,7.1,5.2,9.78" style="fill:none;stroke:black;stroke-width:3;opacity:0">
  <animate attributeType="CSS" attributeName="opacity" from="0" to="1" begin="10s" dur="1s" repeatCount="Indefinite" fill="freeze" />
</path>
<path d="M51.46,34.89c0.03,1.44-0.04,3.7-0.07,5.78c-0.3,19.31-3.05,42.23-10.33,54.05" style="fill:none;stroke:black;stroke-width:3;opacity:0">
  <animate attributeType="CSS" attributeName="opacity" from="0" to="1" begin="11s" dur="1s" repeatCount="Indefinite" fill="freeze" />
</path>
<path d="M48.04,33.93c1.24,0.33,3.51,0.41,4.75,0.33c6.87-0.45,29.49-2.88,40.44-3.78c2.05-0.17,3.3,0.16,4.33,0.32" style="fill:none;stroke:black;stroke-width:3;opacity:0">
  <animate attributeType="CSS" attributeName="opacity" from="0" to="1" begin="12s" dur="1s" repeatCount="Indefinite" fill="freeze" />
</path>
<path d="M56.07,46.84c1.05,0.31,2.99,0.43,4.04,0.31c3.72-0.43,9.49-1.33,12.9-1.61c1.74-0.14,3.25-0.26,4.13-0.1" style="fill:none;stroke:black;stroke-width:3;opacity:0">
  <animate attributeType="CSS" attributeName="opacity" from="0" to="1" begin="13s" dur="1s" repeatCount="Indefinite" fill="freeze" />
</path>
<path d="M64.51,53.65c0.25,0.78,0.7,2.06,0.57,3.19c-0.63,5.54-4.63,14.25-7.43,20.73c-0.57,1.33,0.24,1.93,0.57,1.97c4.84,0.65,12.02,4.71,16.65,10.82" style="fill:none;stroke:black;stroke-width:3;opacity:0">
  <animate attributeType="CSS" attributeName="opacity" from="0" to="1" begin="14s" dur="1s" repeatCount="Indefinite" fill="freeze" />
</path>
<path d="M73.83,62.46c0.05,0.75,0.09,2.56-0.12,3.64c-1.69,8.73-6.56,21.12-18.64,27.62" style="fill:none;stroke:black;stroke-width:3;opacity:0">
  <animate attributeType="CSS" attributeName="opacity" from="0" to="1" begin="15s" dur="1s" repeatCount="Indefinite" fill="freeze" />
</path>
<path d="M53.46,65.96c1.04,0.04,2.17,0.39,3.48,0.22c1.18-0.16,10.23-1.38,18.08-2.49c1.5-0.21,2.96,0.06,4.32-0.18" style="fill:none;stroke:black;stroke-width:3;opacity:0">
  <animate attributeType="CSS" attributeName="opacity" from="0" to="1" begin="16s" dur="1s" repeatCount="Indefinite" fill="freeze" />
</path>
<path d="M76.94,14.5c0.95,1.72,1.39,2.19,1.55,5.89c1.22,28.96,6.96,60.53,18.2,71.98c3.71,3.78,3.17,1.36,2.69-6.24" style="fill:none;stroke:black;stroke-width:3;opacity:0">
  <animate attributeType="CSS" attributeName="opacity" from="0" to="1" begin="17s" dur="1s" repeatCount="Indefinite" fill="freeze" />
</path>
<path d="M95.31,44.89c0.05,0.92,0.1,2.37-0.09,3.68c-1.13,7.77-8.96,34.92-20.81,47.89" style="fill:none;stroke:black;stroke-width:3;opacity:0">
  <animate attributeType="CSS" attributeName="opacity" from="0" to="1" begin="18s" dur="1s" repeatCount="Indefinite" fill="freeze" />
</path>
<path d="M87.68,16.5c2.75,1.7,7.14,5.59,8.43,8.5" style="fill:none;stroke:black;stroke-width:3;opacity:0">
  <animate attributeType="CSS" attributeName="opacity" from="0" to="1" begin="19s" dur="1s" repeatCount="Indefinite" fill="freeze" />
</path>
</svg>