<svg width="109px" height="109px" viewBox="0 0 px 109px" xmlns="http://www.w3.org/2000/svg" xmlns:xlink="http://www.w3.org/1999/xlink" xml:space="preserve" version="1.1"  baseProfile="full">
<path d="M24.49,14.25c0.04,0.56,0.09,1.45-0.08,2.26c-1,4.76-6.77,15.21-14.67,21.61" style="fill:none;stroke:black;stroke-width:3;opacity:0">
  <animate attributeType="CSS" attributeName="opacity" from="0" to="1" begin="0s" dur="1s" repeatCount="0" fill="freeze" />
</path>
<path d="M23.39,21.38c1.93,0,13.32-1.94,15.35-2.23c1.74-0.25,2.13,2.17,1.41,3.4c-3.05,5.19-7.48,10.16-12.45,18.4" style="fill:none;stroke:black;stroke-width:3;opacity:0">
  <animate attributeType="CSS" attributeName="opacity" from="0" to="1" begin="1s" dur="1s" repeatCount="0" fill="freeze" />
</path>
<path d="M12.72,42.39c0.21,0.46,0.72,1.77,0.84,2.35c0.97,4.72,2,19.14,2.6,27.95" style="fill:none;stroke:black;stroke-width:3;opacity:0">
  <animate attributeType="CSS" attributeName="opacity" from="0" to="1" begin="2s" dur="1s" repeatCount="0" fill="freeze" />
</path>
<path d="M14.22,44.52c7.49-1.19,20.31-2.21,25.91-3.21c2.05-0.37,3.11,0.93,3,2.23c-0.39,4.76-1.19,17.76-2.84,26.67" style="fill:none;stroke:black;stroke-width:3;opacity:0">
  <animate attributeType="CSS" attributeName="opacity" from="0" to="1" begin="3s" dur="1s" repeatCount="0" fill="freeze" />
</path>
<path d="M26.75,43.23c0.85,0.59,1.5,2.51,1.52,4.04c0.11,6.73,0.02,18.27,0.02,21.6" style="fill:none;stroke:black;stroke-width:3;opacity:0">
  <animate attributeType="CSS" attributeName="opacity" from="0" to="1" begin="4s" dur="1s" repeatCount="0" fill="freeze" />
</path>
<path d="M16.09,56.23c2.44-0.46,23.88-2.37,25.9-2.56" style="fill:none;stroke:black;stroke-width:3;opacity:0">
  <animate attributeType="CSS" attributeName="opacity" from="0" to="1" begin="5s" dur="1s" repeatCount="0" fill="freeze" />
</path>
<path d="M16.54,70.4c5.39-0.51,16.15-2.12,23.6-2.95" style="fill:none;stroke:black;stroke-width:3;opacity:0">
  <animate attributeType="CSS" attributeName="opacity" from="0" to="1" begin="6s" dur="1s" repeatCount="0" fill="freeze" />
</path>
<path d="M12.57,81.32c0,5.32-1.66,13.16-2.09,14.68" style="fill:none;stroke:black;stroke-width:3;opacity:0">
  <animate attributeType="CSS" attributeName="opacity" from="0" to="1" begin="7s" dur="1s" repeatCount="0" fill="freeze" />
</path>
<path d="M19.89,79.83c1.41,2.36,2.75,8.87,3.11,12.54" style="fill:none;stroke:black;stroke-width:3;opacity:0">
  <animate attributeType="CSS" attributeName="opacity" from="0" to="1" begin="8s" dur="1s" repeatCount="0" fill="freeze" />
</path>
<path d="M27.77,77.19c1.95,2.2,5.04,9.04,5.53,12.46" style="fill:none;stroke:black;stroke-width:3;opacity:0">
  <animate attributeType="CSS" attributeName="opacity" from="0" to="1" begin="9s" dur="1s" repeatCount="0" fill="freeze" />
</path>
<path d="M37.3,74.87c2.01,1.9,5.2,7.82,5.7,10.78" style="fill:none;stroke:black;stroke-width:3;opacity:0">
  <animate attributeType="CSS" attributeName="opacity" from="0" to="1" begin="10s" dur="1s" repeatCount="0" fill="freeze" />
</path>
<path d="M49.08,29.07c1.04,0.4,2.81,0.77,4.6,0.58c10.82-1.15,26.62-3.25,34.54-3.97c1.95-0.18,3.79-0.04,5.53,0.31" style="fill:none;stroke:black;stroke-width:3;opacity:0">
  <animate attributeType="CSS" attributeName="opacity" from="0" to="1" begin="11s" dur="1s" repeatCount="0" fill="freeze" />
</path>
<path d="M51.76,39.75c0.23,0.4,0.48,0.72,0.58,1.22c0.81,3.91,2.21,13.26,2.77,20.29" style="fill:none;stroke:black;stroke-width:3;opacity:0">
  <animate attributeType="CSS" attributeName="opacity" from="0" to="1" begin="12s" dur="1s" repeatCount="0" fill="freeze" />
</path>
<path d="M52.64,41.97c7.05-1.57,32.97-4.11,35.72-4.48c1.72-0.23,3.11,1.81,2.84,3.99c-0.77,6.35-3.59,13.78-4.56,18.08" style="fill:none;stroke:black;stroke-width:3;opacity:0">
  <animate attributeType="CSS" attributeName="opacity" from="0" to="1" begin="13s" dur="1s" repeatCount="0" fill="freeze" />
</path>
<path d="M59.22,45.46c2.17,1.51,5.62,6.22,6.16,8.57" style="fill:none;stroke:black;stroke-width:3;opacity:0">
  <animate attributeType="CSS" attributeName="opacity" from="0" to="1" begin="14s" dur="1s" repeatCount="0" fill="freeze" />
</path>
<path d="M82.06,43.35c0.02,0.22,0.03,0.57-0.03,0.89c-0.35,1.88-2.35,6.02-5.09,8.55" style="fill:none;stroke:black;stroke-width:3;opacity:0">
  <animate attributeType="CSS" attributeName="opacity" from="0" to="1" begin="15s" dur="1s" repeatCount="0" fill="freeze" />
</path>
<path d="M54.93,59.49c7.69-0.88,24.66-2.08,31.85-2.52" style="fill:none;stroke:black;stroke-width:3;opacity:0">
  <animate attributeType="CSS" attributeName="opacity" from="0" to="1" begin="16s" dur="1s" repeatCount="0" fill="freeze" />
</path>
<path d="M69.26,13.75c0.81,0.5,1.3,2.25,1.47,3.25c0.16,1,0,74.25-0.16,80.5" style="fill:none;stroke:black;stroke-width:3;opacity:0">
  <animate attributeType="CSS" attributeName="opacity" from="0" to="1" begin="17s" dur="1s" repeatCount="0" fill="freeze" />
</path>
<path d="M70.07,59.25c-4.5,9.98-14.32,24-25.57,29.75" style="fill:none;stroke:black;stroke-width:3;opacity:0">
  <animate attributeType="CSS" attributeName="opacity" from="0" to="1" begin="18s" dur="1s" repeatCount="0" fill="freeze" />
</path>
<path d="M70.87,58.75C75.25,65,87.75,80,93.73,84.36c1.47,1.07,2.45,1.78,3.77,2.14" style="fill:none;stroke:black;stroke-width:3;opacity:0">
  <animate attributeType="CSS" attributeName="opacity" from="0" to="1" begin="19s" dur="1s" repeatCount="0" fill="freeze" />
</path>
</svg>