<svg width="109px" height="109px" viewBox="0 0 px 109px" xmlns="http://www.w3.org/2000/svg" xmlns:xlink="http://www.w3.org/1999/xlink" xml:space="preserve" version="1.1"  baseProfile="full">
<path d="M24.19,12.25c0.04,0.56,0.19,1.48-0.08,2.26C22.25,19.75,16.5,31.5,9.23,39.62" style="fill:none;stroke:black;stroke-width:3;opacity:0">
  <animate attributeType="CSS" attributeName="opacity" from="0" to="1" begin="0s" dur="1s" repeatCount="Indefinite" fill="freeze" />
</path>
<path d="M20.64,23.38c1.82,0,14.57-2.94,16.48-3.23c1.64-0.25,2.69,1.78,1.83,2.9c-3.2,4.2-5.7,10.2-9.7,18.2" style="fill:none;stroke:black;stroke-width:3;opacity:0">
  <animate attributeType="CSS" attributeName="opacity" from="0" to="1" begin="1s" dur="1s" repeatCount="Indefinite" fill="freeze" />
</path>
<path d="M11.69,42.65c0.22,0.5,0.23,0.83,0.36,1.45c1.03,5.08,2.71,19.36,3.4,28.78" style="fill:none;stroke:black;stroke-width:3;opacity:0">
  <animate attributeType="CSS" attributeName="opacity" from="0" to="1" begin="2s" dur="1s" repeatCount="Indefinite" fill="freeze" />
</path>
<path d="M12.73,44.45c7.63-0.85,21.67-3.33,27.36-4.08c2.09-0.28,3.18,1.16,3.08,2.54c-0.35,5.05-2.05,17.29-3.64,26.69" style="fill:none;stroke:black;stroke-width:3;opacity:0">
  <animate attributeType="CSS" attributeName="opacity" from="0" to="1" begin="3s" dur="1s" repeatCount="Indefinite" fill="freeze" />
</path>
<path d="M25.99,42.73c0.87,0.68,1.55,2.76,1.59,4.38c0.18,7.18,0.19,17.32,0.22,20.88" style="fill:none;stroke:black;stroke-width:3;opacity:0">
  <animate attributeType="CSS" attributeName="opacity" from="0" to="1" begin="4s" dur="1s" repeatCount="Indefinite" fill="freeze" />
</path>
<path d="M14.75,56.99c2.48-0.36,24.3-3.3,26.36-3.39" style="fill:none;stroke:black;stroke-width:3;opacity:0">
  <animate attributeType="CSS" attributeName="opacity" from="0" to="1" begin="5s" dur="1s" repeatCount="Indefinite" fill="freeze" />
</path>
<path d="M15.82,70.48c5.49-0.24,16.45-2.87,24.03-3.34" style="fill:none;stroke:black;stroke-width:3;opacity:0">
  <animate attributeType="CSS" attributeName="opacity" from="0" to="1" begin="6s" dur="1s" repeatCount="Indefinite" fill="freeze" />
</path>
<path d="M13.12,80.82c0,4.95-1.41,12.27-1.78,13.68" style="fill:none;stroke:black;stroke-width:3;opacity:0">
  <animate attributeType="CSS" attributeName="opacity" from="0" to="1" begin="7s" dur="1s" repeatCount="Indefinite" fill="freeze" />
</path>
<path d="M21.84,79.58c1.02,2.69,1.98,10.1,2.24,14.29" style="fill:none;stroke:black;stroke-width:3;opacity:0">
  <animate attributeType="CSS" attributeName="opacity" from="0" to="1" begin="8s" dur="1s" repeatCount="Indefinite" fill="freeze" />
</path>
<path d="M29.42,77.44c1.45,2.33,3.76,9.59,4.12,13.21" style="fill:none;stroke:black;stroke-width:3;opacity:0">
  <animate attributeType="CSS" attributeName="opacity" from="0" to="1" begin="9s" dur="1s" repeatCount="Indefinite" fill="freeze" />
</path>
<path d="M38.72,75.87c1.57,1.9,4.05,7.82,4.44,10.78" style="fill:none;stroke:black;stroke-width:3;opacity:0">
  <animate attributeType="CSS" attributeName="opacity" from="0" to="1" begin="10s" dur="1s" repeatCount="Indefinite" fill="freeze" />
</path>
<path d="M51.67,17.63C52.58,18.54,52.85,19,53,20.2c0.5,3.8,3.28,25.77,3.28,26.38" style="fill:none;stroke:black;stroke-width:3;opacity:0">
  <animate attributeType="CSS" attributeName="opacity" from="0" to="1" begin="11s" dur="1s" repeatCount="Indefinite" fill="freeze" />
</path>
<path d="M53,19.75c5-1,31.62-3.87,34.05-4.01c2.02-0.12,3.33,1.81,3.17,2.51c-0.32,1.42-1.97,19.25-3.28,26.83" style="fill:none;stroke:black;stroke-width:3;opacity:0">
  <animate attributeType="CSS" attributeName="opacity" from="0" to="1" begin="12s" dur="1s" repeatCount="Indefinite" fill="freeze" />
</path>
<path d="M54.97,31.67c7.53-0.92,27.28-3.17,33.52-3.8" style="fill:none;stroke:black;stroke-width:3;opacity:0">
  <animate attributeType="CSS" attributeName="opacity" from="0" to="1" begin="13s" dur="1s" repeatCount="Indefinite" fill="freeze" />
</path>
<path d="M56.84,45.35c7.35-0.51,20.43-2.86,29.58-3.3" style="fill:none;stroke:black;stroke-width:3;opacity:0">
  <animate attributeType="CSS" attributeName="opacity" from="0" to="1" begin="14s" dur="1s" repeatCount="Indefinite" fill="freeze" />
</path>
<path d="M51.64,60.55c0.46,0.84,1.06,1.03,1.16,1.76c0.78,5.81,1.95,20.39,2.49,30.86" style="fill:none;stroke:black;stroke-width:3;opacity:0">
  <animate attributeType="CSS" attributeName="opacity" from="0" to="1" begin="15s" dur="1s" repeatCount="Indefinite" fill="freeze" />
</path>
<path d="M53.17,62.29c8.33-1.04,32.25-3.49,35.33-3.36c1.5,0.06,3.46,2.03,3.12,4.12c-0.55,3.38-2.12,21.2-2.85,28.87" style="fill:none;stroke:black;stroke-width:3;opacity:0">
  <animate attributeType="CSS" attributeName="opacity" from="0" to="1" begin="16s" dur="1s" repeatCount="Indefinite" fill="freeze" />
</path>
<path d="M63.71,62.72c0.19,0.55,0.89,1.5,0.98,2.19c0.67,5.48,0.98,18.36,1.44,28.24" style="fill:none;stroke:black;stroke-width:3;opacity:0">
  <animate attributeType="CSS" attributeName="opacity" from="0" to="1" begin="17s" dur="1s" repeatCount="Indefinite" fill="freeze" />
</path>
<path d="M75.42,61.49c0.58,1.01,1.05,2.22,1.07,3.25c0.11,6.49,0,17.3-0.71,27.99" style="fill:none;stroke:black;stroke-width:3;opacity:0">
  <animate attributeType="CSS" attributeName="opacity" from="0" to="1" begin="18s" dur="1s" repeatCount="Indefinite" fill="freeze" />
</path>
<path d="M42.63,94.37c1.1,0.27,3.11,0.25,4.2,0.17c11.4-0.87,26.72-1.78,47.71-2.53c1.83-0.07,2.92,0.05,3.84,0.17" style="fill:none;stroke:black;stroke-width:3;opacity:0">
  <animate attributeType="CSS" attributeName="opacity" from="0" to="1" begin="19s" dur="1s" repeatCount="Indefinite" fill="freeze" />
</path>
</svg>