<svg width="109px" height="109px" viewBox="0 0 px 109px" xmlns="http://www.w3.org/2000/svg" xmlns:xlink="http://www.w3.org/1999/xlink" xml:space="preserve" version="1.1"  baseProfile="full">
<path d="M23.5,11.75c0.04,0.56,0.08,1.45-0.08,2.26c-0.94,4.76-6.31,15.21-13.68,21.61" style="fill:none;stroke:black;stroke-width:3;opacity:0">
  <animate attributeType="CSS" attributeName="opacity" from="0" to="1" begin="0s" dur="1s" repeatCount="0" fill="freeze" />
</path>
<path d="M22.39,19.88c1.93,0,13.82-2.44,15.85-2.73c1.74-0.25,3.13,1.17,2.41,2.4c-3.05,5.19-7.48,11.66-12.45,19.9" style="fill:none;stroke:black;stroke-width:3;opacity:0">
  <animate attributeType="CSS" attributeName="opacity" from="0" to="1" begin="1s" dur="1s" repeatCount="0" fill="freeze" />
</path>
<path d="M12.72,41.15c0.23,0.49,0.23,0.83,0.36,1.44c1.02,5.07,2.61,18.39,3.25,27.84" style="fill:none;stroke:black;stroke-width:3;opacity:0">
  <animate attributeType="CSS" attributeName="opacity" from="0" to="1" begin="2s" dur="1s" repeatCount="0" fill="freeze" />
</path>
<path d="M13.78,42.91c7.92-1.28,20.51-3.02,26.42-4.08c2.17-0.39,3.29,1,3.17,2.39c-0.41,5.11-1.29,17.01-3.03,26.58" style="fill:none;stroke:black;stroke-width:3;opacity:0">
  <animate attributeType="CSS" attributeName="opacity" from="0" to="1" begin="3s" dur="1s" repeatCount="0" fill="freeze" />
</path>
<path d="M27.06,40.94c0.9,0.64,1.58,2.69,1.61,4.33c0.12,7.22,0.03,17.45,0.03,21.03" style="fill:none;stroke:black;stroke-width:3;opacity:0">
  <animate attributeType="CSS" attributeName="opacity" from="0" to="1" begin="4s" dur="1s" repeatCount="0" fill="freeze" />
</path>
<path d="M15.76,54.93c2.58-0.5,23.76-3.15,25.89-3.36" style="fill:none;stroke:black;stroke-width:3;opacity:0">
  <animate attributeType="CSS" attributeName="opacity" from="0" to="1" begin="5s" dur="1s" repeatCount="0" fill="freeze" />
</path>
<path d="M16.73,67.99c5.71-0.54,16.11-1.31,23.99-2.2" style="fill:none;stroke:black;stroke-width:3;opacity:0">
  <animate attributeType="CSS" attributeName="opacity" from="0" to="1" begin="6s" dur="1s" repeatCount="0" fill="freeze" />
</path>
<path d="M13.02,78.32c0,5.32-2.18,13.16-2.74,14.68" style="fill:none;stroke:black;stroke-width:3;opacity:0">
  <animate attributeType="CSS" attributeName="opacity" from="0" to="1" begin="7s" dur="1s" repeatCount="0" fill="freeze" />
</path>
<path d="M20.39,77.83c1.42,2.36,2.76,8.87,3.11,12.54" style="fill:none;stroke:black;stroke-width:3;opacity:0">
  <animate attributeType="CSS" attributeName="opacity" from="0" to="1" begin="8s" dur="1s" repeatCount="0" fill="freeze" />
</path>
<path d="M29.75,76.94c1.61,2.07,4.16,8.5,4.57,11.71" style="fill:none;stroke:black;stroke-width:3;opacity:0">
  <animate attributeType="CSS" attributeName="opacity" from="0" to="1" begin="9s" dur="1s" repeatCount="0" fill="freeze" />
</path>
<path d="M38.55,75.37c2.1,1.9,5.42,7.82,5.95,10.78" style="fill:none;stroke:black;stroke-width:3;opacity:0">
  <animate attributeType="CSS" attributeName="opacity" from="0" to="1" begin="10s" dur="1s" repeatCount="0" fill="freeze" />
</path>
<path d="M63.96,15.39c0.02,0.27,0.09,0.71-0.05,1.07c-1.32,3.5-4.05,6.93-8.47,10.7" style="fill:none;stroke:black;stroke-width:3;opacity:0">
  <animate attributeType="CSS" attributeName="opacity" from="0" to="1" begin="11s" dur="1s" repeatCount="0" fill="freeze" />
</path>
<path d="M51.29,27.66c0.63,0.46,1.01,2.06,1.13,2.97c0.13,0.91,0,54.66-0.13,60.37" style="fill:none;stroke:black;stroke-width:3;opacity:0">
  <animate attributeType="CSS" attributeName="opacity" from="0" to="1" begin="12s" dur="1s" repeatCount="0" fill="freeze" />
</path>
<path d="M52.65,31.63c4.23-1.06,11.07-2.45,13.25-2.81c0.8-0.13,1.78,1.32,1.66,2.09c-0.47,3.18-1.72,10.39-2.53,16.84" style="fill:none;stroke:black;stroke-width:3;opacity:0">
  <animate attributeType="CSS" attributeName="opacity" from="0" to="1" begin="13s" dur="1s" repeatCount="0" fill="freeze" />
</path>
<path d="M52.74,50.66c6.9-1.11,10.13-1.15,13.38-1.56" style="fill:none;stroke:black;stroke-width:3;opacity:0">
  <animate attributeType="CSS" attributeName="opacity" from="0" to="1" begin="14s" dur="1s" repeatCount="0" fill="freeze" />
</path>
<path d="M52.7,63.15c4.78-1.25,9.63-2.4,12.1-2.82c0.9-0.15,1.44,1.56,1.31,2.47c-0.53,3.76-2.14,14.96-3.29,20.38" style="fill:none;stroke:black;stroke-width:3;opacity:0">
  <animate attributeType="CSS" attributeName="opacity" from="0" to="1" begin="15s" dur="1s" repeatCount="0" fill="freeze" />
</path>
<path d="M52.66,84.62c2.9-0.48,9.46-0.5,13.13-0.98" style="fill:none;stroke:black;stroke-width:3;opacity:0">
  <animate attributeType="CSS" attributeName="opacity" from="0" to="1" begin="16s" dur="1s" repeatCount="0" fill="freeze" />
</path>
<path d="M70.16,19.89c0.84,0.35,2.39,0.39,3.24,0.35c8.2-0.43,16.36-2.12,22.89-2.31c1.41-0.04,2.25,0.17,2.96,0.34" style="fill:none;stroke:black;stroke-width:3;opacity:0">
  <animate attributeType="CSS" attributeName="opacity" from="0" to="1" begin="17s" dur="1s" repeatCount="0" fill="freeze" />
</path>
<path d="M71.76,39.41c0.31,0.36,0.97,2.71,1.04,3.43c0.06,0.72-0.04,30.37-0.1,34.89" style="fill:none;stroke:black;stroke-width:3;opacity:0">
  <animate attributeType="CSS" attributeName="opacity" from="0" to="1" begin="18s" dur="1s" repeatCount="0" fill="freeze" />
</path>
<path d="M72.58,40.7c1.96-0.25,19.82-2.63,21.28-2.83c2.64-0.37,3.02,1.13,3.02,4.33c0,8.31-0.28,20.29-0.28,28.98c0,8.57-5.25,3.06-5.9,1.79" style="fill:none;stroke:black;stroke-width:3;opacity:0">
  <animate attributeType="CSS" attributeName="opacity" from="0" to="1" begin="19s" dur="1s" repeatCount="0" fill="freeze" />
</path>
<path d="M83.13,20.38c0.32,0.4,0.98,3.01,1.05,3.82s-0.04,67.16-0.1,72.18" style="fill:none;stroke:black;stroke-width:3;opacity:0">
  <animate attributeType="CSS" attributeName="opacity" from="0" to="1" begin="20s" dur="1s" repeatCount="0" fill="freeze" />
</path>
</svg>