<svg width="109px" height="109px" viewBox="0 0 px 109px" xmlns="http://www.w3.org/2000/svg" xmlns:xlink="http://www.w3.org/1999/xlink" xml:space="preserve" version="1.1"  baseProfile="full">
<path d="M60.82,9.43c0.04,0.25,0.09,0.65-0.08,1c-1,2.12-6.73,6.76-14.58,9.6" style="fill:none;stroke:black;stroke-width:3;opacity:0">
  <animate attributeType="CSS" attributeName="opacity" from="0" to="1" begin="0s" dur="1s" repeatCount="Indefinite" fill="freeze" />
</path>
<path d="M48.47,11.92c5.06,0.8,11.79,4.87,13.76,7.69" style="fill:none;stroke:black;stroke-width:3;opacity:0">
  <animate attributeType="CSS" attributeName="opacity" from="0" to="1" begin="1s" dur="1s" repeatCount="Indefinite" fill="freeze" />
</path>
<path d="M58.92,22.47c0.04,0.26,0.08,0.67-0.08,1.04c-0.9,2.19-6.09,7-13.19,9.95" style="fill:none;stroke:black;stroke-width:3;opacity:0">
  <animate attributeType="CSS" attributeName="opacity" from="0" to="1" begin="2s" dur="1s" repeatCount="Indefinite" fill="freeze" />
</path>
<path d="M48.25,24.22c5.53,0.89,12.89,5.42,15.04,8.55" style="fill:none;stroke:black;stroke-width:3;opacity:0">
  <animate attributeType="CSS" attributeName="opacity" from="0" to="1" begin="3s" dur="1s" repeatCount="Indefinite" fill="freeze" />
</path>
<path d="M38.2,9.46c0.03,0.18,0.14,0.53-0.07,0.73c-2.75,2.6-5.96,4.92-12.22,6.99" style="fill:none;stroke:black;stroke-width:3;opacity:0">
  <animate attributeType="CSS" attributeName="opacity" from="0" to="1" begin="4s" dur="1s" repeatCount="Indefinite" fill="freeze" />
</path>
<path d="M23.77,15.8c0.77,0.51,1.21,1.63,1.28,2.67c0.3,4.87,0.84,13.27,1.44,19.27" style="fill:none;stroke:black;stroke-width:3;opacity:0">
  <animate attributeType="CSS" attributeName="opacity" from="0" to="1" begin="5s" dur="1s" repeatCount="Indefinite" fill="freeze" />
</path>
<path d="M25.75,21.96c3.81-0.23,8.94-0.81,9.85-0.81c0.91,0,2.18,0,2.91,0" style="fill:none;stroke:black;stroke-width:3;opacity:0">
  <animate attributeType="CSS" attributeName="opacity" from="0" to="1" begin="6s" dur="1s" repeatCount="Indefinite" fill="freeze" />
</path>
<path d="M26.56,30.48c3.81-0.23,8.94-1.31,9.85-1.31s2.18,0,2.91,0" style="fill:none;stroke:black;stroke-width:3;opacity:0">
  <animate attributeType="CSS" attributeName="opacity" from="0" to="1" begin="7s" dur="1s" repeatCount="Indefinite" fill="freeze" />
</path>
<path d="M68.13,12.82c0.78,0.11,1.4,0.32,2.48,0.32s9.56-1.28,10.8-1.38c1.24-0.11,2.27,0.53,2.17,1.17c-0.93,6.18-2.25,17.1-3.18,22.22" style="fill:none;stroke:black;stroke-width:3;opacity:0">
  <animate attributeType="CSS" attributeName="opacity" from="0" to="1" begin="8s" dur="1s" repeatCount="Indefinite" fill="freeze" />
</path>
<path d="M67.48,20.13c0.77,0.11,1.39,0.32,2.48,0.32c1.09,0,11.25-0.85,12.49-0.96" style="fill:none;stroke:black;stroke-width:3;opacity:0">
  <animate attributeType="CSS" attributeName="opacity" from="0" to="1" begin="9s" dur="1s" repeatCount="Indefinite" fill="freeze" />
</path>
<path d="M68.29,27.23c0.77,0.11,1.39,0.32,2.48,0.32c1.09,0,9.59-0.85,10.83-0.96" style="fill:none;stroke:black;stroke-width:3;opacity:0">
  <animate attributeType="CSS" attributeName="opacity" from="0" to="1" begin="10s" dur="1s" repeatCount="Indefinite" fill="freeze" />
</path>
<path d="M16.87,37.35c0,3.37-2.31,12.65-3.36,14.9" style="fill:none;stroke:black;stroke-width:3;opacity:0">
  <animate attributeType="CSS" attributeName="opacity" from="0" to="1" begin="11s" dur="1s" repeatCount="Indefinite" fill="freeze" />
</path>
<path d="M18.59,40.07c10.27-0.94,61.3-4.32,69.63-4.68c13.02-0.56,2.76,7.33-0.49,9.35" style="fill:none;stroke:black;stroke-width:3;opacity:0">
  <animate attributeType="CSS" attributeName="opacity" from="0" to="1" begin="12s" dur="1s" repeatCount="Indefinite" fill="freeze" />
</path>
<path d="M51.23,39.93c0.02,0.17,0.04,0.44-0.04,0.69c-0.44,1.45-2.97,4.64-6.44,6.59" style="fill:none;stroke:black;stroke-width:3;opacity:0">
  <animate attributeType="CSS" attributeName="opacity" from="0" to="1" begin="13s" dur="1s" repeatCount="Indefinite" fill="freeze" />
</path>
<path d="M30.63,48.78c0.46,0.26,0.82,0.61,0.82,1.05c0,4.51,0.05,21.83-0.23,28.93" style="fill:none;stroke:black;stroke-width:3;opacity:0">
  <animate attributeType="CSS" attributeName="opacity" from="0" to="1" begin="14s" dur="1s" repeatCount="Indefinite" fill="freeze" />
</path>
<path d="M32.02,49.56c2.13-0.07,36.09-2.87,38.17-2.87c3.07,0,4.07,1.32,4.29,3.37c0.08,0.74-0.75,7.55-2.73,13.09" style="fill:none;stroke:black;stroke-width:3;opacity:0">
  <animate attributeType="CSS" attributeName="opacity" from="0" to="1" begin="15s" dur="1s" repeatCount="Indefinite" fill="freeze" />
</path>
<path d="M32.36,55.99c2.61,0,38.42-2.64,41.37-2.64" style="fill:none;stroke:black;stroke-width:3;opacity:0">
  <animate attributeType="CSS" attributeName="opacity" from="0" to="1" begin="16s" dur="1s" repeatCount="Indefinite" fill="freeze" />
</path>
<path d="M32.24,63.19c5.31-0.26,33.37-2.3,39.98-2.52" style="fill:none;stroke:black;stroke-width:3;opacity:0">
  <animate attributeType="CSS" attributeName="opacity" from="0" to="1" begin="17s" dur="1s" repeatCount="Indefinite" fill="freeze" />
</path>
<path d="M31.53,71.01c13.34-0.51,48.16-3.29,53.21-3.77c1.76-0.17,4.75-0.36,5.64-0.24" style="fill:none;stroke:black;stroke-width:3;opacity:0">
  <animate attributeType="CSS" attributeName="opacity" from="0" to="1" begin="18s" dur="1s" repeatCount="Indefinite" fill="freeze" />
</path>
<path d="M31.23,78.9c12.48-1.42,45.33-3.35,52.27-3.35c2.25,0,4.81,1.59,4,3.91c-2.25,6.45-4.5,10.29-8,15.99c-2.75,4.47-4.25,3.21-8,1.17" style="fill:none;stroke:black;stroke-width:3;opacity:0">
  <animate attributeType="CSS" attributeName="opacity" from="0" to="1" begin="19s" dur="1s" repeatCount="Indefinite" fill="freeze" />
</path>
<path d="M23.79,85.45c-0.54,5.05-3.07,9.89-5.4,12.55" style="fill:none;stroke:black;stroke-width:3;opacity:0">
  <animate attributeType="CSS" attributeName="opacity" from="0" to="1" begin="20s" dur="1s" repeatCount="Indefinite" fill="freeze" />
</path>
<path d="M36,85.26c1.55,1.95,3.02,7.31,3.41,10.34" style="fill:none;stroke:black;stroke-width:3;opacity:0">
  <animate attributeType="CSS" attributeName="opacity" from="0" to="1" begin="21s" dur="1s" repeatCount="Indefinite" fill="freeze" />
</path>
<path d="M51,84.39c1.5,1.84,3.88,7.57,4.25,10.44" style="fill:none;stroke:black;stroke-width:3;opacity:0">
  <animate attributeType="CSS" attributeName="opacity" from="0" to="1" begin="22s" dur="1s" repeatCount="Indefinite" fill="freeze" />
</path>
<path d="M65.25,81.6c1.59,1.45,4.1,5.95,4.5,8.19" style="fill:none;stroke:black;stroke-width:3;opacity:0">
  <animate attributeType="CSS" attributeName="opacity" from="0" to="1" begin="23s" dur="1s" repeatCount="Indefinite" fill="freeze" />
</path>
</svg>