<svg width="109px" height="109px" viewBox="0 0 px 109px" xmlns="http://www.w3.org/2000/svg" xmlns:xlink="http://www.w3.org/1999/xlink" xml:space="preserve" version="1.1"  baseProfile="full">
<path d="M29.63,27.39c0.94,0.23,2.66,0.26,3.6,0.23C43,27.36,68,24.32,76.59,23.98c1.56-0.06,2.5,0.11,3.29,0.22" style="fill:none;stroke:black;stroke-width:3;opacity:0">
  <animate attributeType="CSS" attributeName="opacity" from="0" to="1" begin="0s" dur="1s" repeatCount="0" fill="freeze" />
</path>
<path d="M29.63,40.14c0.94,0.23,2.66,0.26,3.6,0.23C43,40.11,68,37.07,76.59,36.73c1.56-0.06,2.5,0.11,3.29,0.22" style="fill:none;stroke:black;stroke-width:3;opacity:0">
  <animate attributeType="CSS" attributeName="opacity" from="0" to="1" begin="1s" dur="1s" repeatCount="0" fill="freeze" />
</path>
<path d="M21.88,54.89c0.94,0.23,2.66,0.33,3.6,0.23c12.27-1.3,45.52-6.05,60.36-6.64c1.56-0.06,2.5,0.11,3.29,0.22" style="fill:none;stroke:black;stroke-width:3;opacity:0">
  <animate attributeType="CSS" attributeName="opacity" from="0" to="1" begin="2s" dur="1s" repeatCount="0" fill="freeze" />
</path>
<path d="M52.25,11.82c1.25,0.5,2,2.25,2.25,3.25s-0.25,24-0.25,35" style="fill:none;stroke:black;stroke-width:3;opacity:0">
  <animate attributeType="CSS" attributeName="opacity" from="0" to="1" begin="3s" dur="1s" repeatCount="0" fill="freeze" />
</path>
<path d="M45.51,55.32c0.07,0.6,0.14,1.55-0.13,2.41c-1.62,5.09-10.91,16.25-23.62,23.09" style="fill:none;stroke:black;stroke-width:3;opacity:0">
  <animate attributeType="CSS" attributeName="opacity" from="0" to="1" begin="4s" dur="1s" repeatCount="0" fill="freeze" />
</path>
<path d="M47.25,63.07c3.32-0.3,14.43-2.43,19.18-3.36c3.04-0.6,3.7,1.08,2.35,3.47c-5.19,9.2-28.54,31.86-48.86,36.77" style="fill:none;stroke:black;stroke-width:3;opacity:0">
  <animate attributeType="CSS" attributeName="opacity" from="0" to="1" begin="5s" dur="1s" repeatCount="0" fill="freeze" />
</path>
<path d="M38.75,67.32c8.2,4.6,35.98,23.93,46.1,28.87c3.02,1.47,5.46,2.19,8.4,2.63" style="fill:none;stroke:black;stroke-width:3;opacity:0">
  <animate attributeType="CSS" attributeName="opacity" from="0" to="1" begin="6s" dur="1s" repeatCount="0" fill="freeze" />
</path>
</svg>