<svg width="109px" height="109px" viewBox="0 0 px 109px" xmlns="http://www.w3.org/2000/svg" xmlns:xlink="http://www.w3.org/1999/xlink" xml:space="preserve" version="1.1"  baseProfile="full">
<path d="M14.02,25.82c0.68,0.23,1.93,0.23,2.62,0.23c8.86-0.05,24.76-2.8,31-3.14c1.14-0.06,1.82,0.11,2.39,0.22" style="fill:none;stroke:black;stroke-width:3;opacity:0">
  <animate attributeType="CSS" attributeName="opacity" from="0" to="1" begin="0s" dur="1s" repeatCount="0" fill="freeze" />
</path>
<path d="M16.02,36.9c0.59,0.19,1.67,0.19,2.26,0.19c6.97-0.09,21.8-2.68,27.19-2.96c0.98-0.05,1.57,0.09,2.06,0.18" style="fill:none;stroke:black;stroke-width:3;opacity:0">
  <animate attributeType="CSS" attributeName="opacity" from="0" to="1" begin="1s" dur="1s" repeatCount="0" fill="freeze" />
</path>
<path d="M11.55,49.82c0.54,0.23,1.53,0.22,2.08,0.23c8.87,0.2,27.78-3.55,36.35-4.14c0.9-0.06,1.45,0.11,1.9,0.22" style="fill:none;stroke:black;stroke-width:3;opacity:0">
  <animate attributeType="CSS" attributeName="opacity" from="0" to="1" begin="2s" dur="1s" repeatCount="0" fill="freeze" />
</path>
<path d="M31.08,13.25c0.72,0.5,1.15,2.25,1.3,3.25c0.14,1-0.14,20-0.14,31" style="fill:none;stroke:black;stroke-width:3;opacity:0">
  <animate attributeType="CSS" attributeName="opacity" from="0" to="1" begin="3s" dur="1s" repeatCount="0" fill="freeze" />
</path>
<path d="M29.18,52.75c0.04,0.57,0.09,1.46-0.09,2.27c-1.04,4.79-6.98,15.29-15.12,21.73" style="fill:none;stroke:black;stroke-width:3;opacity:0">
  <animate attributeType="CSS" attributeName="opacity" from="0" to="1" begin="4s" dur="1s" repeatCount="0" fill="freeze" />
</path>
<path d="M29.2,63c1.05,0.25,2.06,0.28,2.83,0.07c2.73-0.75,9.61-2.2,11.74-2.93c1.75-0.6,2.64,0.58,1.86,2.97c-3,9.2-19.98,29.86-31.71,34.77" style="fill:none;stroke:black;stroke-width:3;opacity:0">
  <animate attributeType="CSS" attributeName="opacity" from="0" to="1" begin="5s" dur="1s" repeatCount="0" fill="freeze" />
</path>
<path d="M20.54,69.75C31.33,73.69,67.88,90.27,81.2,94.5c3.97,1.26,7.18,1.88,11.05,2.25" style="fill:none;stroke:black;stroke-width:3;opacity:0">
  <animate attributeType="CSS" attributeName="opacity" from="0" to="1" begin="6s" dur="1s" repeatCount="0" fill="freeze" />
</path>
<path d="M56.75,22.43c0.87,0.46,2.45,0.53,3.33,0.46c7.69-0.64,25.95-2.89,33.26-2.98c1.45-0.02,2.32,0.22,3.04,0.45" style="fill:none;stroke:black;stroke-width:3;opacity:0">
  <animate attributeType="CSS" attributeName="opacity" from="0" to="1" begin="7s" dur="1s" repeatCount="0" fill="freeze" />
</path>
<path d="M74.07,24.73c0.02,0.32,0.05,0.83-0.05,1.29c-0.56,2.71-3.79,8.67-8.21,12.32" style="fill:none;stroke:black;stroke-width:3;opacity:0">
  <animate attributeType="CSS" attributeName="opacity" from="0" to="1" begin="8s" dur="1s" repeatCount="0" fill="freeze" />
</path>
<path d="M56.75,38.86c0.59,0.81,0.81,1.42,0.92,2.48C58.83,52.54,59.5,68,59.52,80.6" style="fill:none;stroke:black;stroke-width:3;opacity:0">
  <animate attributeType="CSS" attributeName="opacity" from="0" to="1" begin="9s" dur="1s" repeatCount="0" fill="freeze" />
</path>
<path d="M57.71,41.01c9.55-1.09,28.03-4.14,34.12-4.38c2.52-0.1,3.84,2.21,3.66,4.52c-0.76,9.57-1.56,27.6-3.37,39.05" style="fill:none;stroke:black;stroke-width:3;opacity:0">
  <animate attributeType="CSS" attributeName="opacity" from="0" to="1" begin="10s" dur="1s" repeatCount="0" fill="freeze" />
</path>
<path d="M69.08,40.76c0.39,0.63,0.78,1.68,0.78,2.52s1.02,33.85,1.02,33.85" style="fill:none;stroke:black;stroke-width:3;opacity:0">
  <animate attributeType="CSS" attributeName="opacity" from="0" to="1" begin="11s" dur="1s" repeatCount="0" fill="freeze" />
</path>
<path d="M81.19,38.66c0.39,1.05,0.78,1.68,0.78,2.52c0,0.84-0.91,32.8-0.91,34.9" style="fill:none;stroke:black;stroke-width:3;opacity:0">
  <animate attributeType="CSS" attributeName="opacity" from="0" to="1" begin="12s" dur="1s" repeatCount="0" fill="freeze" />
</path>
<path d="M70.25,51.28c1.3,0,9.64-1.47,10.94-1.47" style="fill:none;stroke:black;stroke-width:3;opacity:0">
  <animate attributeType="CSS" attributeName="opacity" from="0" to="1" begin="13s" dur="1s" repeatCount="0" fill="freeze" />
</path>
<path d="M70.64,63.52c2.21-0.42,8.6-1.26,10.42-1.47" style="fill:none;stroke:black;stroke-width:3;opacity:0">
  <animate attributeType="CSS" attributeName="opacity" from="0" to="1" begin="14s" dur="1s" repeatCount="0" fill="freeze" />
</path>
<path d="M60.25,79.24c2.73-0.21,27.98-2.02,31.22-2.02" style="fill:none;stroke:black;stroke-width:3;opacity:0">
  <animate attributeType="CSS" attributeName="opacity" from="0" to="1" begin="15s" dur="1s" repeatCount="0" fill="freeze" />
</path>
</svg>