<svg width="109px" height="109px" viewBox="0 0 px 109px" xmlns="http://www.w3.org/2000/svg" xmlns:xlink="http://www.w3.org/1999/xlink" xml:space="preserve" version="1.1"  baseProfile="full">
<path d="M29.11,18.41c0.8,0.8,1.14,1.84,1.4,3.33c1.05,6.1,2.44,15.14,3.45,22.03c0.2,1.34,0.38,2.59,0.54,3.73" style="fill:none;stroke:black;stroke-width:3;opacity:0">
  <animate attributeType="CSS" attributeName="opacity" from="0" to="1" begin="0s" dur="1s" repeatCount="Indefinite" fill="freeze" />
</path>
<path d="M31.26,20.14c14.95-1.85,32.51-3.41,46.55-4.69c3.6-0.33,4.93,2.06,4.76,3.76c-0.35,3.51-2.57,13.12-4.73,20.58c-0.5,1.74-0.77,2.63-1.27,4.07" style="fill:none;stroke:black;stroke-width:3;opacity:0">
  <animate attributeType="CSS" attributeName="opacity" from="0" to="1" begin="1s" dur="1s" repeatCount="Indefinite" fill="freeze" />
</path>
<path d="M33.82,32.24c6.81-0.74,37.68-3.74,45.65-3.91" style="fill:none;stroke:black;stroke-width:3;opacity:0">
  <animate attributeType="CSS" attributeName="opacity" from="0" to="1" begin="2s" dur="1s" repeatCount="Indefinite" fill="freeze" />
</path>
<path d="M35.47,43.91c11.53-1.16,28.06-3.11,41.12-3.86" style="fill:none;stroke:black;stroke-width:3;opacity:0">
  <animate attributeType="CSS" attributeName="opacity" from="0" to="1" begin="3s" dur="1s" repeatCount="Indefinite" fill="freeze" />
</path>
<path d="M53.29,19.56c0.98,0.93,1.45,1.98,1.49,3.11C55.14,32.86,55.05,57.6,55,67.75" style="fill:none;stroke:black;stroke-width:3;opacity:0">
  <animate attributeType="CSS" attributeName="opacity" from="0" to="1" begin="4s" dur="1s" repeatCount="Indefinite" fill="freeze" />
</path>
<path d="M33.88,57.14c1.48,0.28,4.2,0.38,5.68,0.28c9.66-0.67,21.01-2.54,32.19-3.22c2.46-0.15,3.95,0.13,5.19,0.27" style="fill:none;stroke:black;stroke-width:3;opacity:0">
  <animate attributeType="CSS" attributeName="opacity" from="0" to="1" begin="5s" dur="1s" repeatCount="Indefinite" fill="freeze" />
</path>
<path d="M20.63,70.47c2.16,0.4,6.14,0.56,8.29,0.4c18.27-1.37,34.62-3,52.13-3.34c3.6-0.07,5.77,0.19,7.57,0.39" style="fill:none;stroke:black;stroke-width:3;opacity:0">
  <animate attributeType="CSS" attributeName="opacity" from="0" to="1" begin="6s" dur="1s" repeatCount="Indefinite" fill="freeze" />
</path>
<path d="M24.75,81.88c-1.27,6.05-7.36,13.11-9,14.62" style="fill:none;stroke:black;stroke-width:3;opacity:0">
  <animate attributeType="CSS" attributeName="opacity" from="0" to="1" begin="7s" dur="1s" repeatCount="Indefinite" fill="freeze" />
</path>
<path d="M42,79.5c1.71,2.87,4.25,10.5,3.76,15.25" style="fill:none;stroke:black;stroke-width:3;opacity:0">
  <animate attributeType="CSS" attributeName="opacity" from="0" to="1" begin="8s" dur="1s" repeatCount="Indefinite" fill="freeze" />
</path>
<path d="M62.75,78.5c2.65,2.69,6.5,10.5,6.5,15.25" style="fill:none;stroke:black;stroke-width:3;opacity:0">
  <animate attributeType="CSS" attributeName="opacity" from="0" to="1" begin="9s" dur="1s" repeatCount="Indefinite" fill="freeze" />
</path>
<path d="M83.71,79.08c4.27,2.63,11.03,10.8,12.1,14.88" style="fill:none;stroke:black;stroke-width:3;opacity:0">
  <animate attributeType="CSS" attributeName="opacity" from="0" to="1" begin="10s" dur="1s" repeatCount="Indefinite" fill="freeze" />
</path>
</svg>