<svg width="109px" height="109px" viewBox="0 0 px 109px" xmlns="http://www.w3.org/2000/svg" xmlns:xlink="http://www.w3.org/1999/xlink" xml:space="preserve" version="1.1"  baseProfile="full">
<path d="M14.5,19.21c0.29,0.42,0.66,1.63,0.82,2.16c1.33,4.33,2.58,15.24,3.41,23.33" style="fill:none;stroke:black;stroke-width:3;opacity:0">
  <animate attributeType="CSS" attributeName="opacity" from="0" to="1" begin="0s" dur="1s" repeatCount="0" fill="freeze" />
</path>
<path d="M15.62,21.17c9.44-0.99,27.35-3.64,34.4-4.47c2.59-0.31,3.9,1.21,3.78,2.78c-0.31,4-1.9,14.23-3.81,21.26" style="fill:none;stroke:black;stroke-width:3;opacity:0">
  <animate attributeType="CSS" attributeName="opacity" from="0" to="1" begin="1s" dur="1s" repeatCount="0" fill="freeze" />
</path>
<path d="M22.15,26.44c1.9,1.37,4.9,5.65,5.37,7.78" style="fill:none;stroke:black;stroke-width:3;opacity:0">
  <animate attributeType="CSS" attributeName="opacity" from="0" to="1" begin="2s" dur="1s" repeatCount="0" fill="freeze" />
</path>
<path d="M45.75,23.37c0.02,0.22,0.04,0.56-0.04,0.87c-0.44,1.83-2.94,5.84-6.36,8.3" style="fill:none;stroke:black;stroke-width:3;opacity:0">
  <animate attributeType="CSS" attributeName="opacity" from="0" to="1" begin="3s" dur="1s" repeatCount="0" fill="freeze" />
</path>
<path d="M18.89,41.8c6.8-0.42,21.93-3.11,31.32-3.8" style="fill:none;stroke:black;stroke-width:3;opacity:0">
  <animate attributeType="CSS" attributeName="opacity" from="0" to="1" begin="4s" dur="1s" repeatCount="0" fill="freeze" />
</path>
<path d="M15.9,52.33c1,0.31,2.84,0.91,3.84,0.81C30.5,52,39,50.75,46.95,49.7c1.66-0.22,2.67,0.15,3.51,0.3" style="fill:none;stroke:black;stroke-width:3;opacity:0">
  <animate attributeType="CSS" attributeName="opacity" from="0" to="1" begin="5s" dur="1s" repeatCount="0" fill="freeze" />
</path>
<path d="M14.01,69.69c0.81,0.75,2.85,0.97,3.63,0.75c10.79-3.04,19.29-5.72,30.62-9.44" style="fill:none;stroke:black;stroke-width:3;opacity:0">
  <animate attributeType="CSS" attributeName="opacity" from="0" to="1" begin="6s" dur="1s" repeatCount="0" fill="freeze" />
</path>
<path d="M32.91,21.05c0.52,0.63,0.77,1.01,0.79,1.78c0.24,8.9,0.1,38.88,0.1,42.01" style="fill:none;stroke:black;stroke-width:3;opacity:0">
  <animate attributeType="CSS" attributeName="opacity" from="0" to="1" begin="7s" dur="1s" repeatCount="0" fill="freeze" />
</path>
<path d="M15.63,82.58c-0.52,5.55-3.02,12.03-3.7,13.41" style="fill:none;stroke:black;stroke-width:3;opacity:0">
  <animate attributeType="CSS" attributeName="opacity" from="0" to="1" begin="8s" dur="1s" repeatCount="0" fill="freeze" />
</path>
<path d="M23.84,78.23c2.66,3.77,4.18,10.52,3.47,14.61" style="fill:none;stroke:black;stroke-width:3;opacity:0">
  <animate attributeType="CSS" attributeName="opacity" from="0" to="1" begin="9s" dur="1s" repeatCount="0" fill="freeze" />
</path>
<path d="M34.18,74.88c2.57,3.37,5.17,9.68,5.17,13.61" style="fill:none;stroke:black;stroke-width:3;opacity:0">
  <animate attributeType="CSS" attributeName="opacity" from="0" to="1" begin="10s" dur="1s" repeatCount="0" fill="freeze" />
</path>
<path d="M45.36,71.59c2.28,2.03,5.88,8.36,6.45,11.52" style="fill:none;stroke:black;stroke-width:3;opacity:0">
  <animate attributeType="CSS" attributeName="opacity" from="0" to="1" begin="11s" dur="1s" repeatCount="0" fill="freeze" />
</path>
<path d="M70.81,14.63c0.76,0.45,2.51,1.87,2.51,4.25c0,5.87-0.25,30.12-0.25,43.25" style="fill:none;stroke:black;stroke-width:3;opacity:0">
  <animate attributeType="CSS" attributeName="opacity" from="0" to="1" begin="12s" dur="1s" repeatCount="0" fill="freeze" />
</path>
<path d="M73.75,36.62c8.64-1.08,18.23-3.23,19.43-3.23c1.2,0,3.36,0,4.32,0.36" style="fill:none;stroke:black;stroke-width:3;opacity:0">
  <animate attributeType="CSS" attributeName="opacity" from="0" to="1" begin="13s" dur="1s" repeatCount="0" fill="freeze" />
</path>
<path d="M56.91,64.05c0.41,0.46,0.82,0.84,1,1.41c1.41,4.54,4.09,22.55,5.05,30.7" style="fill:none;stroke:black;stroke-width:3;opacity:0">
  <animate attributeType="CSS" attributeName="opacity" from="0" to="1" begin="14s" dur="1s" repeatCount="0" fill="freeze" />
</path>
<path d="M58.71,65.69C69.5,64,86.34,61.62,91.46,60.98c1.87-0.23,2.99,2.36,2.73,3.75c-1.11,5.71-2.49,18.04-4.02,25.28" style="fill:none;stroke:black;stroke-width:3;opacity:0">
  <animate attributeType="CSS" attributeName="opacity" from="0" to="1" begin="15s" dur="1s" repeatCount="0" fill="freeze" />
</path>
<path d="M63.36,92.66c9.14-0.91,20.89-2.16,29.68-2.94" style="fill:none;stroke:black;stroke-width:3;opacity:0">
  <animate attributeType="CSS" attributeName="opacity" from="0" to="1" begin="16s" dur="1s" repeatCount="0" fill="freeze" />
</path>
</svg>