<svg width="109px" height="109px" viewBox="0 0 px 109px" xmlns="http://www.w3.org/2000/svg" xmlns:xlink="http://www.w3.org/1999/xlink" xml:space="preserve" version="1.1"  baseProfile="full">
<path d="M30.09,13c0.65,0.51,1.17,2.25,1.17,3.29c0,5.31,0.17,10.92,0.17,15.98" style="fill:none;stroke:black;stroke-width:3;opacity:0">
  <animate attributeType="CSS" attributeName="opacity" from="0" to="1" begin="0s" dur="1s" repeatCount="0" fill="freeze" />
</path>
<path d="M31.39,23.52c4.91-0.88,9.08-1.19,14.24-1.77c1.2-0.14,1.5-0.29,2.25,0" style="fill:none;stroke:black;stroke-width:3;opacity:0">
  <animate attributeType="CSS" attributeName="opacity" from="0" to="1" begin="1s" dur="1s" repeatCount="0" fill="freeze" />
</path>
<path d="M18.99,18.58c0.65,0.51,1.04,2.28,1.17,3.29c0.13,1.01,0,5.34-0.13,11.67" style="fill:none;stroke:black;stroke-width:3;opacity:0">
  <animate attributeType="CSS" attributeName="opacity" from="0" to="1" begin="2s" dur="1s" repeatCount="0" fill="freeze" />
</path>
<path d="M7.75,33.54c0.49,0.25,1.8,0.85,3.1,0.76c7.03-0.51,30.93-3.05,37.58-3.05c1.31,0,3.57,0.01,4.32,0.26" style="fill:none;stroke:black;stroke-width:3;opacity:0">
  <animate attributeType="CSS" attributeName="opacity" from="0" to="1" begin="3s" dur="1s" repeatCount="0" fill="freeze" />
</path>
<path d="M26.71,39.81c0.12,0.18-0.06,1.85-0.16,2.25c-1.03,4.37-3.7,11.52-7.5,15.62" style="fill:none;stroke:black;stroke-width:3;opacity:0">
  <animate attributeType="CSS" attributeName="opacity" from="0" to="1" begin="4s" dur="1s" repeatCount="0" fill="freeze" />
</path>
<path d="M25.02,48.16c1.58,0.87,3.61,3.19,4.38,5.39" style="fill:none;stroke:black;stroke-width:3;opacity:0">
  <animate attributeType="CSS" attributeName="opacity" from="0" to="1" begin="5s" dur="1s" repeatCount="0" fill="freeze" />
</path>
<path d="M39.59,40.06c0.14,0.18-0.07,1.85-0.18,2.25c-1.18,4.36-4.25,11.5-8.62,15.61" style="fill:none;stroke:black;stroke-width:3;opacity:0">
  <animate attributeType="CSS" attributeName="opacity" from="0" to="1" begin="6s" dur="1s" repeatCount="0" fill="freeze" />
</path>
<path d="M36.9,49.4c2.04,1.24,4.64,4.52,5.63,7.64" style="fill:none;stroke:black;stroke-width:3;opacity:0">
  <animate attributeType="CSS" attributeName="opacity" from="0" to="1" begin="7s" dur="1s" repeatCount="0" fill="freeze" />
</path>
<path d="M13.91,65.13c2.1,0,31.57-3.29,33.53-3.29" style="fill:none;stroke:black;stroke-width:3;opacity:0">
  <animate attributeType="CSS" attributeName="opacity" from="0" to="1" begin="8s" dur="1s" repeatCount="0" fill="freeze" />
</path>
<path d="M25.47,70.42c0.1,0.17-0.05,1.75-0.13,2.12c-0.86,4.12-3.1,10.87-6.29,14.75" style="fill:none;stroke:black;stroke-width:3;opacity:0">
  <animate attributeType="CSS" attributeName="opacity" from="0" to="1" begin="9s" dur="1s" repeatCount="0" fill="freeze" />
</path>
<path d="M25.52,77.76c1.37,0.87,3.11,3.18,3.78,5.37" style="fill:none;stroke:black;stroke-width:3;opacity:0">
  <animate attributeType="CSS" attributeName="opacity" from="0" to="1" begin="10s" dur="1s" repeatCount="0" fill="freeze" />
</path>
<path d="M38.69,69.9c0.14,0.18-0.07,1.85-0.17,2.25c-1.13,4.37-4.08,11.52-8.28,15.63" style="fill:none;stroke:black;stroke-width:3;opacity:0">
  <animate attributeType="CSS" attributeName="opacity" from="0" to="1" begin="11s" dur="1s" repeatCount="0" fill="freeze" />
</path>
<path d="M36.7,77.23c2.11,1.16,4.8,4.24,5.83,7.15" style="fill:none;stroke:black;stroke-width:3;opacity:0">
  <animate attributeType="CSS" attributeName="opacity" from="0" to="1" begin="12s" dur="1s" repeatCount="0" fill="freeze" />
</path>
<path d="M12.3,41.26c0.46,0.45,1.32,1.89,1.21,4.3c-0.04,0.92-0.26,45.15-0.3,46.53c-0.04,1.38,0.39,2.54,1.29,2.42c9.79-1.29,23.77-2.3,32.94-2.81" style="fill:none;stroke:black;stroke-width:3;opacity:0">
  <animate attributeType="CSS" attributeName="opacity" from="0" to="1" begin="13s" dur="1s" repeatCount="0" fill="freeze" />
</path>
<path d="M47.16,39.21c0.28,0.45,0.89,3.39,0.94,4.3s-0.12,32.25-0.09,53.38" style="fill:none;stroke:black;stroke-width:3;opacity:0">
  <animate attributeType="CSS" attributeName="opacity" from="0" to="1" begin="14s" dur="1s" repeatCount="0" fill="freeze" />
</path>
<path d="M61.12,17.62c0.75,1.05,1.25,2.08,1.5,3.11c0.25,1.02,0.55,67.94,0.46,70.21" style="fill:none;stroke:black;stroke-width:3;opacity:0">
  <animate attributeType="CSS" attributeName="opacity" from="0" to="1" begin="15s" dur="1s" repeatCount="0" fill="freeze" />
</path>
<path d="M63.09,19.78c2.97-0.11,17.67-3.03,19.87-3.2c3.96-0.31,5.46,3.56,4.97,5.05c-0.47,1.43-0.23,47.27-0.38,67.74" style="fill:none;stroke:black;stroke-width:3;opacity:0">
  <animate attributeType="CSS" attributeName="opacity" from="0" to="1" begin="16s" dur="1s" repeatCount="0" fill="freeze" />
</path>
<path d="M63.19,42.24c10.13-1.02,15.19-0.97,24.09-1.29" style="fill:none;stroke:black;stroke-width:3;opacity:0">
  <animate attributeType="CSS" attributeName="opacity" from="0" to="1" begin="17s" dur="1s" repeatCount="0" fill="freeze" />
</path>
<path d="M63.29,62.5c7.91-0.37,14.71-1.29,23.86-1.34" style="fill:none;stroke:black;stroke-width:3;opacity:0">
  <animate attributeType="CSS" attributeName="opacity" from="0" to="1" begin="18s" dur="1s" repeatCount="0" fill="freeze" />
</path>
<path d="M53.91,91.06c1.49,0.44,4.22,0.52,5.71,0.44C69,91,83.25,89.25,93.78,89.54c2.48,0.07,3.97,0.21,5.22,0.43" style="fill:none;stroke:black;stroke-width:3;opacity:0">
  <animate attributeType="CSS" attributeName="opacity" from="0" to="1" begin="19s" dur="1s" repeatCount="0" fill="freeze" />
</path>
</svg>